 <svg xmlns="http://www.w3.org/2000/svg" width="13" height="17"
                                         viewBox="0 0 13 17" fill="none">
                                        <path
                                            d="M6.47031 0.97237L6.51303 0.972675C9.19606 0.991864 11.4031 3.16868 11.713 5.90313L11.713 5.90325C11.8707 7.29629 11.5031 8.52996 11.0053 9.64791L11.0053 9.64803C10.2888 11.2563 9.30254 12.6448 8.24586 13.9268L6.47031 0.97237ZM6.47031 0.97237L6.42784 0.976917M6.47031 0.97237L6.42784 0.976917M6.42784 0.976917C6.36582 0.983556 6.29975 0.99032 6.23168 0.997289M6.42784 0.976917L6.23168 0.997289M7.25061 15.0626L7.2505 15.0627C7.14486 15.1838 6.91 15.4117 6.54123 15.4269C6.15809 15.4427 5.90066 15.2206 5.77627 15.0851C4.31262 13.4949 2.96172 11.7523 2.00913 9.66442L7.25061 15.0626ZM7.25061 15.0626C7.35409 14.9439 7.46623 14.8186 7.58198 14.6892M7.25061 15.0626L7.58198 14.6892M1.25072 6.4151L1.25073 6.41482C1.292 3.77345 3.28771 1.33775 5.83866 1.03947L1.25072 6.4151ZM1.25072 6.4151C1.23251 7.60927 1.56063 8.682 2.00905 9.66425L1.25072 6.4151ZM6.50114 8.06742C7.1655 8.06963 7.81463 7.45655 7.81728 6.60884C7.81995 5.72776 7.17583 5.11756 6.50821 5.11638H6.5082C5.83871 5.11518 5.19358 5.72494 5.18961 6.5761L6.50114 8.06742ZM6.50114 8.06742C5.82742 8.06444 5.18565 7.45179 5.18961 6.57616L6.50114 8.06742ZM7.58198 14.6892C7.80174 14.4436 8.03449 14.1834 8.24564 13.927L7.58198 14.6892ZM6.23168 0.997289C6.10337 1.01042 5.96795 1.02429 5.83916 1.03942L6.23168 0.997289Z"
                                            stroke="white" stroke-width="1.5" />
                                    </svg>