<svg width="16" height="16" viewBox="0 0 16 16" fill="none"
                                         xmlns="http://www.w3.org/2000/svg">
                                        <path
                                            d="M0.499897 4.23L0.500015 4.21493C0.505138 3.56427 0.59207 2.93307 0.897041 2.33371L0.899357 2.32916L0.89938 2.32917C1.00505 2.12664 1.13821 1.93969 1.29509 1.7736C1.50251 1.54876 1.72401 1.3332 1.93387 1.12896C1.99146 1.07292 2.04817 1.01773 2.10347 0.963439L0.499897 4.23ZM0.499897 4.23L0.500685 4.24504M0.499897 4.23L0.500685 4.24504M0.500685 4.24504C0.501404 4.25875 0.502266 4.27877 0.503317 4.30317C0.506225 4.37071 0.510576 4.47176 0.517312 4.56501L0.517402 4.56621M0.500685 4.24504L0.517402 4.56621M6.59073 5.45373L6.59049 5.45397C6.53657 5.50826 6.47963 5.5672 6.42016 5.62875C6.24953 5.80536 6.05808 6.00352 5.8572 6.17554L5.85705 6.17567C5.79114 6.23206 5.76667 6.28033 5.7537 6.32725C5.73791 6.38438 5.73214 6.4678 5.74808 6.59923C5.80672 7.07587 6.0114 7.51387 6.31147 7.95289L6.31212 7.95386C6.94519 8.88478 7.73357 9.60289 8.74758 10.0384C9.09541 10.1869 9.36731 10.253 9.62512 10.2012C9.66834 10.1909 9.70824 10.17 9.7412 10.1405C9.91474 9.98128 10.0719 9.8224 10.2382 9.65436C10.3335 9.558 10.4318 9.45863 10.5379 9.35447M6.59073 5.45373L14.6876 13.4728L15.0457 13.8218C15.0459 13.8216 15.0461 13.8214 15.0463 13.8212C15.647 13.2041 15.6565 12.2938 15.043 11.6737L15.0429 11.6736C14.2682 10.8911 13.4881 10.114 12.7026 9.34219L12.7026 9.34214C12.0729 8.72357 11.1522 8.75064 10.5379 9.35447M6.59073 5.45373C6.89182 5.15016 7.06719 4.76651 7.06969 4.35799M6.59073 5.45373L7.06969 4.35799M10.5379 9.35447L10.8882 9.71122L10.5376 9.3547C10.5377 9.35462 10.5378 9.35454 10.5379 9.35447ZM10.2164 15.2291L10.2162 15.2291C8.61924 14.8246 7.22674 14.0402 5.96264 13.0726L5.96249 13.0725C4.05183 11.6088 2.48893 9.83013 1.41146 7.64417L10.2164 15.2291ZM10.2164 15.2291C11.082 15.448 11.9983 15.5413 12.9379 15.3062L10.2164 15.2291ZM0.517402 4.56621C0.599879 5.6706 0.940762 6.6898 1.4114 7.64406L0.517402 4.56621ZM3.19387 0.492213C3.59993 0.489807 3.98526 0.657484 4.29014 0.958379L3.19387 0.492213ZM3.19387 0.492213C2.78874 0.494614 2.40622 0.665968 2.10366 0.963254L3.19387 0.492213ZM7.06969 4.35799C7.07219 3.94863 6.90071 3.56252 6.59732 3.25713L7.06969 4.35799ZM6.59722 3.25703C5.83225 2.48672 5.06326 1.72054 4.29027 0.958504L6.59722 3.25703Z"
                                            stroke="#F5F5F5" />
                                    </svg>