 <svg xmlns="http://www.w3.org/2000/svg" width="24" height="21" viewBox="0 0 24 21"
                fill="none">
                <path
                    d="M11.9906 3.46054C8.52515 3.46054 5.05974 3.46379 1.5934 3.45838C0.453573 3.45621 -0.292563 2.27583 0.1105 1.1106C0.345777 0.431148 0.799457 0.0654565 1.43311 0.00270482C1.47998 -0.00162289 1.52685 0.000540963 1.57371 0.000540963C8.52046 0.000540963 15.4672 -0.000540963 22.414 0.00162289C23.327 0.00162289 23.9953 0.734087 24 1.71756C24.0047 2.72375 23.3307 3.45729 22.3868 3.45729C18.9214 3.46054 15.456 3.45838 11.9896 3.45729L11.9906 3.46054Z"
                    fill="#2E2E2E" />
                <path
                    d="M11.9981 12.1168C8.51676 12.1168 5.03545 12.12 1.55413 12.1146C0.752695 12.1135 0.118109 11.486 0.0140631 10.6237C-0.0899828 9.75815 0.392752 8.93372 1.14919 8.71085C1.31229 8.66324 1.48851 8.66 1.65911 8.66C8.55894 8.65783 15.4588 8.65783 22.3586 8.65891C23.3156 8.65891 23.9905 9.36649 23.9999 10.3673C24.0093 11.3929 23.3297 12.1168 22.3483 12.1168C18.8979 12.1189 15.4485 12.1168 11.9981 12.1168Z"
                    fill="#2E2E2E" />
                <path
                    d="M11.9755 20.7713C8.51009 20.7713 5.04467 20.7734 1.57831 20.7702C0.796547 20.7702 0.208822 20.2411 0.0372846 19.4113C-0.119255 18.6539 0.228506 17.8111 0.866849 17.4898C1.08807 17.3783 1.34678 17.3199 1.58862 17.3199C8.5354 17.3113 15.4822 17.3113 22.429 17.3145C23.3354 17.3145 24.0028 18.0621 24 19.0477C23.9972 20.0323 23.3298 20.7691 22.4187 20.7702C18.9373 20.7745 15.4559 20.7713 11.9746 20.7713H11.9755Z"
                    fill="#2E2E2E" />
            </svg>