<svg width="16" height="16" viewBox="0 0 16 16" fill="none" xmlns="http://www.w3.org/2000/svg">
<path d="M1.59879 3.51962C1.26937 3.51962 0.978754 3.52621 0.688868 3.51816C0.26502 3.50645 -0.00290438 3.26854 2.37598e-05 2.92009C0.0029519 2.56432 0.255504 2.35203 0.697653 2.34983C1.88062 2.34324 3.06432 2.34105 4.24729 2.33665C4.37906 2.33665 4.51082 2.33665 4.68431 2.33665C4.68431 2.0475 4.68065 1.79568 4.68431 1.54313C4.69969 0.696897 5.33875 0.0285494 6.18352 0.0131766C7.13443 -0.00439221 8.08681 -0.00439221 9.03772 0.0131766C9.88249 0.0292814 10.5194 0.696897 10.5362 1.54459C10.5406 1.78763 10.5362 2.0314 10.5362 2.31689C10.6819 2.32421 10.81 2.33519 10.9381 2.33592C12.1211 2.34105 13.3048 2.34324 14.4877 2.3491C14.9592 2.3513 15.2183 2.55773 15.2205 2.92228C15.222 3.27952 14.9438 3.51084 14.4936 3.51889C14.2154 3.52402 13.9372 3.51962 13.632 3.51962C13.5756 4.36366 13.5192 5.17475 13.4673 5.98585C13.2974 8.62556 13.1408 11.2667 12.9548 13.9057C12.8758 15.0243 11.8912 15.9664 10.769 15.9803C8.68342 16.0059 6.59639 16.0067 4.51082 15.9818C3.31248 15.9679 2.33814 14.9496 2.26347 13.7549C2.10828 11.2726 1.93406 8.79174 1.77008 6.31014C1.71006 5.39876 1.65662 4.48737 1.59659 3.51816L1.59879 3.51962ZM2.8147 3.5511C2.8147 3.62723 2.81177 3.68579 2.8147 3.74363C2.92597 5.66668 3.03724 7.58974 3.14924 9.51206C3.2261 10.8385 3.29638 12.1657 3.38422 13.4914C3.44644 14.4247 3.88274 14.8215 4.81169 14.8222C6.67764 14.8237 8.54433 14.8237 10.4103 14.8222C11.3239 14.8215 11.766 14.4299 11.8348 13.5251C11.9058 12.5895 11.9461 11.6511 12.0047 10.7141C12.1152 8.93814 12.2309 7.16223 12.3414 5.38558C12.3795 4.78238 12.4109 4.17845 12.4461 3.55037H2.81396L2.8147 3.5511ZM9.3686 2.31103C9.3686 2.05263 9.40887 1.80227 9.35396 1.57534C9.31956 1.43332 9.1446 1.22396 9.02748 1.2203C8.09047 1.19029 7.152 1.19029 6.21427 1.21811C6.09202 1.22177 5.90535 1.42015 5.87241 1.5585C5.81604 1.79495 5.85703 2.05409 5.85703 2.31103H9.36934H9.3686Z" fill="#919191"/>
<path d="M5.85638 9.19445C5.85638 10.1688 5.85711 11.1431 5.85638 12.1175C5.85638 12.5867 5.61993 12.8876 5.26196 12.8795C4.91498 12.8715 4.68805 12.5801 4.68805 12.1336C4.68732 10.1607 4.68732 8.18717 4.68805 6.21433C4.68805 5.73851 4.91718 5.44789 5.28173 5.45521C5.64116 5.46253 5.85638 5.75315 5.85638 6.23483C5.85638 7.22161 5.85638 8.20766 5.85638 9.19445Z" fill="#919191"/>
<path d="M8.19286 9.17128C8.19286 10.1698 8.19433 11.169 8.19286 12.1675C8.19213 12.6009 7.93885 12.8988 7.59113 12.8856C7.25513 12.8724 7.02527 12.587 7.02454 12.169C7.02307 10.1712 7.02307 8.17425 7.02454 6.17652C7.02454 5.7373 7.27123 5.44888 7.62554 5.46132C7.9652 5.47377 8.1914 5.75414 8.19213 6.17506C8.19433 7.17355 8.19213 8.17278 8.19213 9.17128H8.19286Z" fill="#919191"/>
<path d="M10.5366 9.20775C10.5366 10.1945 10.5381 11.1806 10.5359 12.1674C10.5351 12.5839 10.3016 12.8701 9.96563 12.8796C9.61791 12.8899 9.36829 12.5927 9.36829 12.1571C9.36682 10.1594 9.36682 8.1624 9.36829 6.16468C9.36829 5.7423 9.59522 5.46486 9.93854 5.45534C10.2899 5.44509 10.5359 5.73644 10.5366 6.1742C10.5388 7.18514 10.5366 8.19608 10.5366 9.20702V9.20775Z" fill="#919191"/>
</svg>
