<svg width="20" height="20" viewBox="0 0 24 25" fill="none" xmlns="http://www.w3.org/2000/svg">
<path d="M4.618 14.5405C4.789 13.9715 5.312 13.5825 5.905 13.5825C6.498 13.5825 7.022 13.9715 7.192 14.5405L7.949 17.0645C8.176 17.8215 7.609 18.5835 6.819 18.5835H4.99C4.2 18.5835 3.633 17.8215 3.86 17.0645L4.618 14.5405ZM13 10.5825C11.346 10.5825 10 9.23652 10 7.58252V2.60552C9.84 2.58952 9.678 2.58252 9.515 2.58252H7V3.58252C7 4.13552 6.552 4.58252 6 4.58252C5.448 4.58252 5 4.13552 5 3.58252V2.58252C3.346 2.58252 2 3.92852 2 5.58252V19.5825C2 21.2365 3.346 22.5825 5 22.5825H9C9.552 22.5825 10 23.0295 10 23.5825C10 24.1355 9.552 24.5825 9 24.5825H5C2.243 24.5825 0 22.3395 0 19.5825V5.58252C0 2.82552 2.243 0.58252 5 0.58252H9.515C11.386 0.58252 13.143 1.31152 14.465 2.63352L17.95 6.11752C18.838 7.00652 19.471 8.11852 19.783 9.33452C19.86 9.63452 19.794 9.95152 19.604 10.1955C19.414 10.4395 19.123 10.5825 18.814 10.5825H13.001H13ZM13 8.58252H17.338C17.119 8.19952 16.849 7.84652 16.535 7.53152L13.05 4.04752C12.732 3.72952 12.379 3.45952 12 3.24152V7.58252C12 8.13452 12.449 8.58252 13 8.58252ZM6 8.58252C6.552 8.58252 7 8.13552 7 7.58252V6.58252C7 6.02952 6.552 5.58252 6 5.58252C5.448 5.58252 5 6.02952 5 6.58252V7.58252C5 8.13552 5.448 8.58252 6 8.58252ZM5 11.5825C5 12.1355 5.448 12.5825 6 12.5825C6.552 12.5825 7 12.1355 7 11.5825V10.5825C7 10.0295 6.552 9.58252 6 9.58252C5.448 9.58252 5 10.0295 5 10.5825V11.5825ZM18 18.0825C17.172 18.0825 16.5 18.7545 16.5 19.5825C16.5 20.4105 17.172 21.0825 18 21.0825C18.828 21.0825 19.5 20.4105 19.5 19.5825C19.5 18.7545 18.828 18.0825 18 18.0825ZM24 16.7855V20.5825C24 22.7885 22.206 24.5825 20 24.5825H16C13.794 24.5825 12 22.7885 12 20.5825V16.5825C12 14.3765 13.794 12.5825 16 12.5825H19.796C20.597 12.5825 21.351 12.8945 21.918 13.4615L23.121 14.6645C23.688 15.2305 24 15.9845 24 16.7855ZM22 16.7855C22 16.5225 21.893 16.2645 21.707 16.0785L20.504 14.8755C20.365 14.7375 20.188 14.6625 20 14.6225V15.5825C20 16.1345 19.552 16.5825 19 16.5825H17C16.448 16.5825 16 16.1345 16 15.5825V14.5825C14.897 14.5825 14 15.4795 14 16.5825V20.5825C14 21.6855 14.897 22.5825 16 22.5825H20C21.103 22.5825 22 21.6855 22 20.5825V16.7855Z" fill="#FFD258"/>
</svg>
