<svg width="30" height="30" viewBox="0 0 30 30" fill="none" xmlns="http://www.w3.org/2000/svg">
<g clip-path="url(#clip0_4266_10584)">
<path d="M6.1417 17.4486C6.3469 16.7658 6.9745 16.299 7.6861 16.299C8.3977 16.299 9.0265 16.7658 9.2305 17.4486L10.1389 20.4774C10.4113 21.3858 9.7309 22.3002 8.7829 22.3002H6.5881C5.6401 22.3002 4.9597 21.3858 5.2321 20.4774L6.1417 17.4486ZM16.2001 12.699C14.2153 12.699 12.6001 11.0838 12.6001 9.09897V3.12657C12.4081 3.10737 12.2137 3.09897 12.0181 3.09897H9.0001V4.29897C9.0001 4.96257 8.4625 5.49897 7.8001 5.49897C7.1377 5.49897 6.6001 4.96257 6.6001 4.29897V3.09897C4.6153 3.09897 3.0001 4.71417 3.0001 6.69897V23.499C3.0001 25.4838 4.6153 27.099 6.6001 27.099H11.4001C12.0625 27.099 12.6001 27.6354 12.6001 28.299C12.6001 28.9626 12.0625 29.499 11.4001 29.499H6.6001C3.2917 29.499 0.600098 26.8074 0.600098 23.499V6.69897C0.600098 3.39057 3.2917 0.698975 6.6001 0.698975H12.0181C14.2633 0.698975 16.3717 1.57377 17.9581 3.16017L22.1401 7.34097C23.2057 8.40777 23.9653 9.74218 24.3397 11.2014C24.4321 11.5614 24.3529 11.9418 24.1249 12.2346C23.8969 12.5274 23.5477 12.699 23.1769 12.699H16.2013H16.2001ZM16.2001 10.299H21.4057C21.1429 9.83937 20.8189 9.41577 20.4421 9.03777L16.2601 4.85697C15.8785 4.47537 15.4549 4.15137 15.0001 3.88977V9.09897C15.0001 9.76137 15.5389 10.299 16.2001 10.299ZM7.8001 10.299C8.4625 10.299 9.0001 9.76257 9.0001 9.09897V7.89897C9.0001 7.23537 8.4625 6.69897 7.8001 6.69897C7.1377 6.69897 6.6001 7.23537 6.6001 7.89897V9.09897C6.6001 9.76257 7.1377 10.299 7.8001 10.299ZM6.6001 13.899C6.6001 14.5626 7.1377 15.099 7.8001 15.099C8.4625 15.099 9.0001 14.5626 9.0001 13.899V12.699C9.0001 12.0354 8.4625 11.499 7.8001 11.499C7.1377 11.499 6.6001 12.0354 6.6001 12.699V13.899ZM22.2001 21.699C21.2065 21.699 20.4001 22.5054 20.4001 23.499C20.4001 24.4926 21.2065 25.299 22.2001 25.299C23.1937 25.299 24.0001 24.4926 24.0001 23.499C24.0001 22.5054 23.1937 21.699 22.2001 21.699ZM29.4001 20.1426V24.699C29.4001 27.3462 27.2473 29.499 24.6001 29.499H19.8001C17.1529 29.499 15.0001 27.3462 15.0001 24.699V19.899C15.0001 17.2518 17.1529 15.099 19.8001 15.099H24.3553C25.3165 15.099 26.2213 15.4734 26.9017 16.1538L28.3453 17.5974C29.0257 18.2766 29.4001 19.1814 29.4001 20.1426ZM27.0001 20.1426C27.0001 19.827 26.8717 19.5174 26.6485 19.2942L25.2049 17.8506C25.0381 17.685 24.8257 17.595 24.6001 17.547V18.699C24.6001 19.3614 24.0625 19.899 23.4001 19.899H21.0001C20.3377 19.899 19.8001 19.3614 19.8001 18.699V17.499C18.4765 17.499 17.4001 18.5754 17.4001 19.899V24.699C17.4001 26.0226 18.4765 27.099 19.8001 27.099H24.6001C25.9237 27.099 27.0001 26.0226 27.0001 24.699V20.1426Z" fill="#151515"/>
</g>
<defs>
<clipPath id="clip0_4266_10584">
<rect width="30" height="30" fill="white"/>
</clipPath>
</defs>
</svg>
