<svg width="56" height="57" viewBox="0 0 56 57" fill="none" xmlns="http://www.w3.org/2000/svg">
<g clip-path="url(#clip0_1830_18531)">
<path d="M37.5677 37.541H18.6094V50.491H37.5677V37.541Z" fill="#A6C44A"/>
<path d="M42.5826 12.1661C42.3492 12.1661 42.0576 12.1661 41.8242 12.2245C40.0159 6.39115 34.1826 2.13281 27.2409 2.13281C21.1159 2.13281 15.8076 5.45781 13.4159 10.2995C6.76588 10.9995 1.57422 16.1911 1.57422 22.5495C1.57422 29.3745 7.64088 34.9745 15.0492 34.9745C19.4825 34.9745 23.4492 32.9911 25.8992 29.9578C26.3076 30.0161 26.7742 30.0161 27.2409 30.0161C29.1659 30.0161 31.0326 29.6661 32.7826 29.0245C34.8825 31.9411 38.4992 33.8661 42.6409 33.8661C49.1742 33.8661 54.4826 29.0245 54.4826 23.0161C54.4826 17.0078 49.1159 12.1661 42.5826 12.1661Z" fill="#F8B602"/>
<path d="M15.1065 36.0835C6.99818 36.0835 0.464844 30.0168 0.464844 22.5501C0.464844 15.9001 5.71484 10.2418 12.7148 9.1918C15.4565 4.17513 21.1148 0.966797 27.2398 0.966797C34.1815 0.966797 40.3648 5.05013 42.6398 11.0585C49.7565 11.0585 55.5898 16.4251 55.5898 23.0751C55.5898 29.6668 49.7565 35.0918 42.6398 35.0918C38.6148 35.0918 34.8232 33.3418 32.3732 30.4251C30.6815 30.9501 28.9898 31.1835 27.2398 31.1835C26.9482 31.1835 26.6565 31.1835 26.4232 31.1835C23.6232 34.2751 19.5398 36.0835 15.1065 36.0835ZM27.2398 3.2418C21.7565 3.2418 16.7398 6.2168 14.4648 10.7668L14.1732 11.3501L13.5315 11.4085C7.40651 12.1085 2.73984 16.8918 2.73984 22.5501C2.73984 28.7335 8.28151 33.8085 15.1065 33.8085C19.0732 33.8085 22.6898 32.1168 25.0232 29.2001L25.4315 28.7335L26.0148 28.7918C26.3648 28.7918 26.7732 28.8501 27.2398 28.8501C28.9898 28.8501 30.7398 28.5585 32.3732 27.9751L33.1898 27.6835L33.7148 28.3835C35.6982 31.1251 39.0232 32.7585 42.6398 32.7585C48.5315 32.7585 53.3148 28.3835 53.3148 23.0751C53.3148 17.7668 48.4732 13.3335 42.5815 13.3335C42.4065 13.3335 42.2315 13.3335 42.0565 13.3335L41.0065 13.3918L40.7148 12.5168C39.0232 7.0918 33.4815 3.2418 27.2398 3.2418Z" fill="#2E2E2E"/>
<path d="M42.3505 56.0336H13.6505L7.99219 31.9419L10.0339 32.8169C11.6672 33.4586 13.3589 33.8086 15.1089 33.8086C19.0755 33.8086 22.6922 32.1169 25.0255 29.2003L25.4339 28.7336L26.0172 28.7919C26.3672 28.7919 26.7755 28.8503 27.2422 28.8503C28.9922 28.8503 30.7422 28.5586 32.3755 27.9753L33.1922 27.6836L33.7172 28.3836C35.7005 31.1253 39.0255 32.7586 42.6422 32.7586C43.8672 32.7586 45.0922 32.5836 46.2589 32.1753L48.1839 31.5336L42.3505 56.0336ZM15.4589 53.7586H40.6005L45.0922 34.8003C44.2755 34.9169 43.4589 35.0336 42.6422 35.0336C38.6172 35.0336 34.8255 33.2836 32.3755 30.3669C30.6839 30.8919 28.9922 31.1253 27.2422 31.1253C26.9505 31.1253 26.6589 31.1253 26.4255 31.1253C23.6255 34.2753 19.5422 36.0836 15.1089 36.0836C13.7672 36.0836 12.4255 35.9086 11.2005 35.6169L15.4589 53.7586Z" fill="#2E2E2E"/>
<path d="M23.568 39.9336H21.293V47.5753H23.568V39.9336Z" fill="#2E2E2E"/>
<path d="M29.2242 39.9336H26.9492V47.5753H29.2242V39.9336Z" fill="#2E2E2E"/>
<path d="M34.8258 39.9336H32.5508V47.5753H34.8258V39.9336Z" fill="#2E2E2E"/>
<path d="M13.5634 28.3395L11.7344 26.623L10.1776 28.282L12.0066 29.9984L13.5634 28.3395Z" fill="#2E2E2E"/>
<path d="M15.3759 18.1129L13.5469 16.3965L11.9901 18.0554L13.8191 19.7719L15.3759 18.1129Z" fill="#2E2E2E"/>
<path d="M44.6491 18.9804L42.8203 17.2637L41.2633 18.9224L43.0921 20.6391L44.6491 18.9804Z" fill="#2E2E2E"/>
<path d="M35.3838 21.2477L33.5547 19.5312L31.9979 21.1902L33.827 22.9066L35.3838 21.2477Z" fill="#2E2E2E"/>
<path d="M47.3564 27.4411L45.5273 25.7246L43.9706 27.3835L45.7996 29.1L47.3564 27.4411Z" fill="#2E2E2E"/>
<path d="M24.1416 22.9567L22.3125 21.2402L20.7557 22.8992L22.5848 24.6156L24.1416 22.9567Z" fill="#2E2E2E"/>
<path d="M25.8291 12.9645L24 11.248L22.4432 12.907L24.2723 14.6234L25.8291 12.9645Z" fill="#2E2E2E"/>
<path d="M34.497 10.195L32.668 8.47852L31.1112 10.1374L32.9402 11.8539L34.497 10.195Z" fill="#2E2E2E"/>
</g>
<defs>
<clipPath id="clip0_1830_18531">
<rect width="56" height="56" fill="white" transform="translate(0 0.5)"/>
</clipPath>
</defs>
</svg>
