<svg width="15" height="12" viewBox="0 0 15 12" fill="none" xmlns="http://www.w3.org/2000/svg">
<mask id="path-1-outside-1_1830_17469" maskUnits="userSpaceOnUse" x="4" y="1.5" width="5" height="5" fill="black">
<rect fill="white" x="4" y="1.5" width="5" height="5"/>
<path d="M5 3.98815C4.99985 3.69384 5.08963 3.40611 5.25798 3.16136C5.42633 2.91661 5.66569 2.72585 5.94575 2.61322C6.22581 2.5006 6.53399 2.47116 6.83129 2.52865C7.12858 2.58614 7.40163 2.72797 7.61587 2.93618C7.83011 3.14439 7.97592 3.40963 8.03483 3.69833C8.09375 3.98703 8.06312 4.2862 7.94684 4.55799C7.83055 4.82979 7.63383 5.06197 7.38157 5.22518C7.12931 5.38838 6.83285 5.47525 6.52971 5.47481C6.32864 5.47501 6.12951 5.43668 5.94372 5.36202C5.75794 5.28736 5.58916 5.17783 5.44705 5.03973C5.30494 4.90162 5.1923 4.73764 5.11559 4.55719C5.03888 4.37674 4.9996 4.18337 5 3.98815ZM6.52971 4.62412C6.61675 4.62572 6.70324 4.61038 6.78407 4.579C6.86491 4.54763 6.93845 4.50085 7.00037 4.44144C7.06228 4.38203 7.11131 4.31117 7.14457 4.23307C7.17783 4.15496 7.19463 4.07117 7.194 3.98666C7.19741 3.90059 7.18295 3.81474 7.15148 3.73421C7.12001 3.65368 7.07217 3.58013 7.0108 3.51793C6.94944 3.45573 6.87582 3.40615 6.79431 3.37215C6.7128 3.33815 6.62508 3.32042 6.53637 3.32002C6.44766 3.31961 6.35977 3.33655 6.27794 3.36981C6.19611 3.40307 6.12201 3.45198 6.06005 3.51362C5.9981 3.57527 5.94955 3.64838 5.9173 3.72862C5.88506 3.80886 5.86978 3.89458 5.87236 3.98067C5.8706 4.0652 5.88636 4.1492 5.9187 4.2277C5.95104 4.30619 5.99931 4.37757 6.06063 4.4376C6.12195 4.49762 6.19508 4.54507 6.27566 4.57711C6.35625 4.60915 6.44264 4.62514 6.52971 4.62412Z"/>
</mask>
<path d="M5 3.98815C4.99985 3.69384 5.08963 3.40611 5.25798 3.16136C5.42633 2.91661 5.66569 2.72585 5.94575 2.61322C6.22581 2.5006 6.53399 2.47116 6.83129 2.52865C7.12858 2.58614 7.40163 2.72797 7.61587 2.93618C7.83011 3.14439 7.97592 3.40963 8.03483 3.69833C8.09375 3.98703 8.06312 4.2862 7.94684 4.55799C7.83055 4.82979 7.63383 5.06197 7.38157 5.22518C7.12931 5.38838 6.83285 5.47525 6.52971 5.47481C6.32864 5.47501 6.12951 5.43668 5.94372 5.36202C5.75794 5.28736 5.58916 5.17783 5.44705 5.03973C5.30494 4.90162 5.1923 4.73764 5.11559 4.55719C5.03888 4.37674 4.9996 4.18337 5 3.98815ZM6.52971 4.62412C6.61675 4.62572 6.70324 4.61038 6.78407 4.579C6.86491 4.54763 6.93845 4.50085 7.00037 4.44144C7.06228 4.38203 7.11131 4.31117 7.14457 4.23307C7.17783 4.15496 7.19463 4.07117 7.194 3.98666C7.19741 3.90059 7.18295 3.81474 7.15148 3.73421C7.12001 3.65368 7.07217 3.58013 7.0108 3.51793C6.94944 3.45573 6.87582 3.40615 6.79431 3.37215C6.7128 3.33815 6.62508 3.32042 6.53637 3.32002C6.44766 3.31961 6.35977 3.33655 6.27794 3.36981C6.19611 3.40307 6.12201 3.45198 6.06005 3.51362C5.9981 3.57527 5.94955 3.64838 5.9173 3.72862C5.88506 3.80886 5.86978 3.89458 5.87236 3.98067C5.8706 4.0652 5.88636 4.1492 5.9187 4.2277C5.95104 4.30619 5.99931 4.37757 6.06063 4.4376C6.12195 4.49762 6.19508 4.54507 6.27566 4.57711C6.35625 4.60915 6.44264 4.62514 6.52971 4.62412Z" fill="#727272"/>
<path d="M5 3.98815C4.99985 3.69384 5.08963 3.40611 5.25798 3.16136C5.42633 2.91661 5.66569 2.72585 5.94575 2.61322C6.22581 2.5006 6.53399 2.47116 6.83129 2.52865C7.12858 2.58614 7.40163 2.72797 7.61587 2.93618C7.83011 3.14439 7.97592 3.40963 8.03483 3.69833C8.09375 3.98703 8.06312 4.2862 7.94684 4.55799C7.83055 4.82979 7.63383 5.06197 7.38157 5.22518C7.12931 5.38838 6.83285 5.47525 6.52971 5.47481C6.32864 5.47501 6.12951 5.43668 5.94372 5.36202C5.75794 5.28736 5.58916 5.17783 5.44705 5.03973C5.30494 4.90162 5.1923 4.73764 5.11559 4.55719C5.03888 4.37674 4.9996 4.18337 5 3.98815ZM6.52971 4.62412C6.61675 4.62572 6.70324 4.61038 6.78407 4.579C6.86491 4.54763 6.93845 4.50085 7.00037 4.44144C7.06228 4.38203 7.11131 4.31117 7.14457 4.23307C7.17783 4.15496 7.19463 4.07117 7.194 3.98666C7.19741 3.90059 7.18295 3.81474 7.15148 3.73421C7.12001 3.65368 7.07217 3.58013 7.0108 3.51793C6.94944 3.45573 6.87582 3.40615 6.79431 3.37215C6.7128 3.33815 6.62508 3.32042 6.53637 3.32002C6.44766 3.31961 6.35977 3.33655 6.27794 3.36981C6.19611 3.40307 6.12201 3.45198 6.06005 3.51362C5.9981 3.57527 5.94955 3.64838 5.9173 3.72862C5.88506 3.80886 5.86978 3.89458 5.87236 3.98067C5.8706 4.0652 5.88636 4.1492 5.9187 4.2277C5.95104 4.30619 5.99931 4.37757 6.06063 4.4376C6.12195 4.49762 6.19508 4.54507 6.27566 4.57711C6.35625 4.60915 6.44264 4.62514 6.52971 4.62412Z" stroke="#727272" stroke-width="0.4" mask="url(#path-1-outside-1_1830_17469)"/>
<mask id="path-2-outside-2_1830_17469" maskUnits="userSpaceOnUse" x="0" y="0" width="15" height="12" fill="black">
<rect fill="white" width="15" height="12"/>
<path d="M14 1.68531V10.3147C13.7624 10.869 13.5588 11 12.9316 11H2.0036C1.95253 11 1.90213 11 1.85106 11C1.36859 10.9784 1.00002 10.6249 1.00002 10.1736C1.00002 7.39161 1.00002 4.61009 1.00002 1.82899C0.999148 1.71567 1.02316 1.60348 1.07046 1.49988C1.11776 1.39629 1.18726 1.30368 1.27432 1.22823C1.46417 1.05404 1.69657 1 1.95122 1C5.64867 1 9.34633 1 13.0442 1C13.0822 1 13.1208 1 13.1588 1C13.3463 1.00534 13.5269 1.06966 13.6736 1.18327C13.8202 1.29688 13.9249 1.45365 13.9719 1.63C13.9797 1.64915 13.9891 1.66765 14 1.68531ZM1.7365 8.06866C1.79149 8.03051 1.82946 8.00509 1.86743 7.98029L3.89684 6.48061C4.33087 6.15957 4.79763 6.13986 5.26243 6.42339L7.20411 7.61093C7.39134 7.72473 7.47252 7.71456 7.62112 7.55563C8.44161 6.67493 9.26232 5.79487 10.0832 4.91545C10.4597 4.51367 10.984 4.53401 11.3271 4.96058C11.7731 5.51155 12.2178 6.06548 12.6612 6.62238C12.8544 6.86332 13.0488 7.10426 13.2668 7.37571V1.93325C13.2668 1.74253 13.2478 1.72409 13.0468 1.72409H1.94991C1.75745 1.72409 1.7365 1.74444 1.7365 1.92753V8.06866ZM10.6921 5.34011C10.6541 5.37508 10.6266 5.39542 10.6063 5.41958C9.80066 6.28417 8.99479 7.14918 8.1887 8.01462C7.77693 8.45963 7.30885 8.5232 6.78841 8.20534C6.14511 7.81204 5.50137 7.41852 4.8572 7.02479C4.67848 6.91481 4.52202 6.91799 4.36491 7.03369C3.51692 7.65967 2.66872 8.28565 1.8203 8.91163C1.79123 8.93069 1.76795 8.95695 1.75287 8.98769C1.73779 9.01843 1.73146 9.05254 1.73454 9.08646C1.73912 9.40432 1.73454 9.72727 1.73454 10.0477C1.73454 10.2632 1.74697 10.2746 1.97414 10.2746H13.0049C13.2596 10.2746 13.2668 10.2702 13.2668 10.0172C13.2668 9.56135 13.2668 9.10489 13.2635 8.64908C13.2618 8.58156 13.239 8.51616 13.1981 8.46154C12.6167 7.73045 12.0328 7.00127 11.4462 6.274L10.6921 5.34011Z"/>
</mask>
<path d="M14 1.68531V10.3147C13.7624 10.869 13.5588 11 12.9316 11H2.0036C1.95253 11 1.90213 11 1.85106 11C1.36859 10.9784 1.00002 10.6249 1.00002 10.1736C1.00002 7.39161 1.00002 4.61009 1.00002 1.82899C0.999148 1.71567 1.02316 1.60348 1.07046 1.49988C1.11776 1.39629 1.18726 1.30368 1.27432 1.22823C1.46417 1.05404 1.69657 1 1.95122 1C5.64867 1 9.34633 1 13.0442 1C13.0822 1 13.1208 1 13.1588 1C13.3463 1.00534 13.5269 1.06966 13.6736 1.18327C13.8202 1.29688 13.9249 1.45365 13.9719 1.63C13.9797 1.64915 13.9891 1.66765 14 1.68531ZM1.7365 8.06866C1.79149 8.03051 1.82946 8.00509 1.86743 7.98029L3.89684 6.48061C4.33087 6.15957 4.79763 6.13986 5.26243 6.42339L7.20411 7.61093C7.39134 7.72473 7.47252 7.71456 7.62112 7.55563C8.44161 6.67493 9.26232 5.79487 10.0832 4.91545C10.4597 4.51367 10.984 4.53401 11.3271 4.96058C11.7731 5.51155 12.2178 6.06548 12.6612 6.62238C12.8544 6.86332 13.0488 7.10426 13.2668 7.37571V1.93325C13.2668 1.74253 13.2478 1.72409 13.0468 1.72409H1.94991C1.75745 1.72409 1.7365 1.74444 1.7365 1.92753V8.06866ZM10.6921 5.34011C10.6541 5.37508 10.6266 5.39542 10.6063 5.41958C9.80066 6.28417 8.99479 7.14918 8.1887 8.01462C7.77693 8.45963 7.30885 8.5232 6.78841 8.20534C6.14511 7.81204 5.50137 7.41852 4.8572 7.02479C4.67848 6.91481 4.52202 6.91799 4.36491 7.03369C3.51692 7.65967 2.66872 8.28565 1.8203 8.91163C1.79123 8.93069 1.76795 8.95695 1.75287 8.98769C1.73779 9.01843 1.73146 9.05254 1.73454 9.08646C1.73912 9.40432 1.73454 9.72727 1.73454 10.0477C1.73454 10.2632 1.74697 10.2746 1.97414 10.2746H13.0049C13.2596 10.2746 13.2668 10.2702 13.2668 10.0172C13.2668 9.56135 13.2668 9.10489 13.2635 8.64908C13.2618 8.58156 13.239 8.51616 13.1981 8.46154C12.6167 7.73045 12.0328 7.00127 11.4462 6.274L10.6921 5.34011Z" fill="#727272"/>
<path d="M14 1.68531V10.3147C13.7624 10.869 13.5588 11 12.9316 11H2.0036C1.95253 11 1.90213 11 1.85106 11C1.36859 10.9784 1.00002 10.6249 1.00002 10.1736C1.00002 7.39161 1.00002 4.61009 1.00002 1.82899C0.999148 1.71567 1.02316 1.60348 1.07046 1.49988C1.11776 1.39629 1.18726 1.30368 1.27432 1.22823C1.46417 1.05404 1.69657 1 1.95122 1C5.64867 1 9.34633 1 13.0442 1C13.0822 1 13.1208 1 13.1588 1C13.3463 1.00534 13.5269 1.06966 13.6736 1.18327C13.8202 1.29688 13.9249 1.45365 13.9719 1.63C13.9797 1.64915 13.9891 1.66765 14 1.68531ZM1.7365 8.06866C1.79149 8.03051 1.82946 8.00509 1.86743 7.98029L3.89684 6.48061C4.33087 6.15957 4.79763 6.13986 5.26243 6.42339L7.20411 7.61093C7.39134 7.72473 7.47252 7.71456 7.62112 7.55563C8.44161 6.67493 9.26232 5.79487 10.0832 4.91545C10.4597 4.51367 10.984 4.53401 11.3271 4.96058C11.7731 5.51155 12.2178 6.06548 12.6612 6.62238C12.8544 6.86332 13.0488 7.10426 13.2668 7.37571V1.93325C13.2668 1.74253 13.2478 1.72409 13.0468 1.72409H1.94991C1.75745 1.72409 1.7365 1.74444 1.7365 1.92753V8.06866ZM10.6921 5.34011C10.6541 5.37508 10.6266 5.39542 10.6063 5.41958C9.80066 6.28417 8.99479 7.14918 8.1887 8.01462C7.77693 8.45963 7.30885 8.5232 6.78841 8.20534C6.14511 7.81204 5.50137 7.41852 4.8572 7.02479C4.67848 6.91481 4.52202 6.91799 4.36491 7.03369C3.51692 7.65967 2.66872 8.28565 1.8203 8.91163C1.79123 8.93069 1.76795 8.95695 1.75287 8.98769C1.73779 9.01843 1.73146 9.05254 1.73454 9.08646C1.73912 9.40432 1.73454 9.72727 1.73454 10.0477C1.73454 10.2632 1.74697 10.2746 1.97414 10.2746H13.0049C13.2596 10.2746 13.2668 10.2702 13.2668 10.0172C13.2668 9.56135 13.2668 9.10489 13.2635 8.64908C13.2618 8.58156 13.239 8.51616 13.1981 8.46154C12.6167 7.73045 12.0328 7.00127 11.4462 6.274L10.6921 5.34011Z" stroke="#727272" stroke-width="0.4" mask="url(#path-2-outside-2_1830_17469)"/>
</svg>
