<svg width="56" height="57" viewBox="0 0 56 57" fill="none" xmlns="http://www.w3.org/2000/svg">
<g id="Burger">
<path id="Vector" d="M55.7096 25.409H0.292969V24.2423C0.292969 13.7423 12.1346 1.95898 28.0013 1.95898C43.868 1.95898 55.7096 13.7423 55.7096 24.2423V25.409ZM2.68464 23.0757H53.3763C52.5013 13.9757 41.943 4.23398 28.0013 4.23398C14.0596 4.23398 3.5013 13.9757 2.68464 23.0757Z" fill="white"/>
<path id="Vector_2" d="M9.0987 18.4671C12.3654 13.3337 19.5987 8.90039 27.9987 8.90039C36.3987 8.90039 43.5737 13.3337 46.8987 18.4671H9.0987ZM52.3237 53.8754H3.6737C2.4487 53.8754 1.45703 52.8837 1.45703 51.6587V44.1921H54.5404V51.6587C54.5404 52.8837 53.5487 53.8754 52.3237 53.8754Z" fill="white"/>
<path id="Vector_3" d="M52.3263 55.0423H3.6763C1.80964 55.0423 0.292969 53.5256 0.292969 51.659V43.084H55.7096V51.7173C55.7096 53.5256 54.193 55.0423 52.3263 55.0423ZM2.6263 45.359V51.659C2.6263 52.2423 3.09297 52.709 3.6763 52.709H52.3846C52.968 52.709 53.4346 52.2423 53.4346 51.659V45.359H2.6263Z" fill="white"/>
<path id="Vector_4" d="M49.5237 39.1759H6.4737C3.6737 39.1759 1.45703 36.9009 1.45703 34.1592C1.45703 31.3592 3.73203 29.1426 6.4737 29.1426H49.5237C52.3237 29.1426 54.5404 31.4176 54.5404 34.1592C54.5404 36.9592 52.3237 39.1759 49.5237 39.1759Z" fill="white"/>
<path id="Vector_5" d="M49.5263 40.3413H6.4763C3.03464 40.3413 0.292969 37.5413 0.292969 34.1579C0.292969 30.7746 3.09297 27.9746 6.4763 27.9746H49.5263C52.968 27.9746 55.7096 30.7746 55.7096 34.1579C55.7096 37.5413 52.9096 40.3413 49.5263 40.3413ZM6.4763 30.2496C4.31797 30.2496 2.56797 31.9996 2.56797 34.1579C2.56797 36.3163 4.31797 38.0663 6.4763 38.0663H49.5263C51.6846 38.0663 53.4346 36.3163 53.4346 34.1579C53.4346 31.9996 51.6846 30.2496 49.5263 30.2496H6.4763Z" fill="white"/>
<path id="Vector_6" d="M30.7984 36.317C29.6901 36.317 28.6984 35.9087 27.7651 35.5587C27.0068 35.267 26.3068 34.9754 25.6651 34.9754C24.9068 34.917 24.0318 35.2087 23.1568 35.442C21.8151 35.8504 20.2984 36.317 18.7818 35.792C18.3151 35.617 17.9068 35.3837 17.5568 35.2087C17.3234 35.092 17.0901 34.917 16.8568 34.8587C15.7484 34.392 14.4068 34.6837 12.9484 35.0337L12.5401 35.1504C10.8484 35.5004 8.39844 35.8504 6.64844 34.3337L8.1651 32.5837C8.92344 33.2254 10.1484 33.342 12.0734 32.9337L12.4818 32.817C14.1151 32.467 15.9818 32.0587 17.7901 32.7587C18.1401 32.9337 18.4318 33.1087 18.7818 33.2254C19.0734 33.4004 19.3651 33.5754 19.5984 33.6337C20.4151 33.9254 21.4068 33.6337 22.5734 33.2837C23.6234 32.992 24.6734 32.642 25.8984 32.7004C26.9484 32.7587 27.8234 33.1087 28.6984 33.4587C29.6318 33.8087 30.5068 34.1587 31.2651 34.042C31.5568 33.9837 31.9068 33.867 32.3151 33.692C32.4901 33.6337 32.6068 33.5754 32.7818 33.517C34.5318 32.817 36.5734 32.642 38.4401 33.0504C38.7318 33.1087 39.0818 33.167 39.3734 33.2837C39.9568 33.4587 40.5401 33.5754 41.0651 33.5754C41.8234 33.5754 42.6401 33.2254 43.4568 32.9337C43.8068 32.817 44.1568 32.642 44.5068 32.5254C46.4901 31.8254 48.2401 32.0004 49.4068 32.992L47.8901 34.742C47.1318 34.1004 45.7901 34.5087 45.2068 34.6837C44.9151 34.8004 44.5651 34.917 44.2734 35.0337C43.2818 35.442 42.2318 35.8504 41.0068 35.8504C41.0068 35.8504 41.0068 35.8504 40.9484 35.8504C40.1318 35.8504 39.3734 35.6754 38.6734 35.5004C38.3818 35.442 38.1484 35.3837 37.8568 35.3254C36.3984 35.0337 34.8818 35.1504 33.5401 35.6754C33.4234 35.7337 33.2484 35.792 33.1318 35.8504C32.6651 36.0254 32.1984 36.2587 31.6151 36.317C31.3234 36.2587 31.0901 36.317 30.7984 36.317Z" fill="white"/>
<path id="Vector_7" d="M9.11897 19.0609L7.76562 17.1602L6.00742 18.412L7.36077 20.3128L9.11897 19.0609Z" fill="white"/>
<path id="Vector_8" d="M40.0958 11.881L38.7422 9.98047L36.9842 11.2326L38.3378 13.1331L40.0958 11.881Z" fill="white"/>
<path id="Vector_9" d="M34.5018 9.53748L33.1484 7.63672L31.3902 8.88857L32.7436 10.7893L34.5018 9.53748Z" fill="white"/>
<path id="Vector_10" d="M13.4821 14.6623L11.9258 12.9238L10.8827 13.8576L12.4389 15.5961L13.4821 14.6623Z" fill="white"/>
<path id="Vector_11" d="M21.0229 10.9076L20.125 8.75391L18.4559 9.44974L19.3538 11.6034L21.0229 10.9076Z" fill="white"/>
<path id="Vector_12" d="M15.4588 20.0797L14.4688 17.9668L13.2538 18.5361L14.2439 20.6489L15.4588 20.0797Z" fill="white"/>
<path id="Vector_13" d="M26.657 9.71719L25.1987 7.90885C25.8987 7.32552 26.7737 6.91719 27.6487 6.74219L28.1737 8.95885C27.5904 9.13385 27.0654 9.36719 26.657 9.71719ZM17.7904 16.5422L17.207 14.3255C17.732 14.2089 18.257 13.9755 18.7237 13.7422L19.7737 15.7839C19.132 16.0755 18.4904 16.3089 17.7904 16.5422Z" fill="white"/>
<path id="Vector_14" d="M30.8666 19.6831L30.125 17.4707L28.1892 18.1196L28.9308 20.3319L30.8666 19.6831Z" fill="white"/>
<path id="Vector_15" d="M42.6127 20.4096L41.8711 18.1973L39.9353 18.8461L40.6769 21.0585L42.6127 20.4096Z" fill="white"/>
<path id="Vector_16" d="M35.6427 20.8586L34.7094 18.7586C35.2927 18.5253 35.876 18.2919 36.4594 18.1753L36.926 20.4503C36.4594 20.5669 35.9927 20.6836 35.6427 20.8586ZM32.6677 16.3669L31.7344 14.2669C32.3177 14.0336 32.901 13.8586 33.4844 13.6836L33.951 15.9586C33.4844 16.0169 33.076 16.1919 32.6677 16.3669Z" fill="white"/>
<path id="Vector_17" d="M26.9316 14.8912L26.1875 12.6797L24.8606 13.1261L25.6047 15.3376L26.9316 14.8912Z" fill="white"/>
<path id="Vector_18" d="M16.0263 12.0393L15.2812 9.82812L13.9545 10.2752L14.6996 12.4864L16.0263 12.0393Z" fill="white"/>
<path id="Vector_19" d="M24.0146 20.508L23.2695 18.2969L21.9428 18.7439L22.6879 20.9551L24.0146 20.508Z" fill="white"/>
<g id="Group">
<path id="Vector_20" d="M48.1269 18.7564L47.3828 16.5449L46.0559 16.9914L46.8 19.2029L48.1269 18.7564Z" fill="white"/>
</g>
<g id="Group_2">
<path id="Vector_21" d="M43.9316 16.2154L43.1875 14.0039L41.8606 14.4504L42.6047 16.6619L43.9316 16.2154Z" fill="white"/>
</g>
</g>
</svg>
