<svg width="56" height="56" viewBox="0 0 56 56" fill="none" xmlns="http://www.w3.org/2000/svg">
<g id="Burger">
<path id="Vector" d="M55.7077 24.907H0.291016V23.7404C0.291016 13.2404 12.1327 1.45703 27.9994 1.45703C43.866 1.45703 55.7077 13.2404 55.7077 23.7404V24.907ZM2.68268 22.5737H53.3744C52.4994 13.4737 41.941 3.73203 27.9994 3.73203C14.0577 3.73203 3.49935 13.4737 2.68268 22.5737Z" fill="#2E2E2E"/>
<path id="Vector_2" d="M9.10065 17.9651C12.3673 12.8318 19.6007 8.39844 28.0007 8.39844C36.4007 8.39844 43.5756 12.8318 46.9007 17.9651H9.10065ZM52.3256 53.3734H3.67565C2.45065 53.3734 1.45898 52.3818 1.45898 51.1568V43.6901H54.5423V51.1568C54.5423 52.3818 53.5506 53.3734 52.3256 53.3734Z" fill="#A6C44A"/>
<path id="Vector_3" d="M52.3244 54.5404H3.67435C1.80768 54.5404 0.291016 53.0237 0.291016 51.157V42.582H55.7077V51.2154C55.7077 53.0237 54.191 54.5404 52.3244 54.5404ZM2.62435 44.857V51.157C2.62435 51.7404 3.09102 52.207 3.67435 52.207H52.3827C52.966 52.207 53.4327 51.7404 53.4327 51.157V44.857H2.62435Z" fill="#2E2E2E"/>
<path id="Vector_4" d="M49.5257 38.674H6.47565C3.67565 38.674 1.45898 36.399 1.45898 33.6573C1.45898 30.8573 3.73398 28.6406 6.47565 28.6406H49.5257C52.3256 28.6406 54.5423 30.9156 54.5423 33.6573C54.5423 36.4573 52.3256 38.674 49.5257 38.674Z" fill="#F8B602"/>
<path id="Vector_5" d="M49.5244 39.8432H6.47435C3.03268 39.8432 0.291016 37.0432 0.291016 33.6599C0.291016 30.2766 3.09102 27.4766 6.47435 27.4766H49.5244C52.966 27.4766 55.7077 30.2766 55.7077 33.6599C55.7077 37.0432 52.9077 39.8432 49.5244 39.8432ZM6.47435 29.7516C4.31602 29.7516 2.56602 31.5016 2.56602 33.6599C2.56602 35.8182 4.31602 37.5682 6.47435 37.5682H49.5244C51.6827 37.5682 53.4327 35.8182 53.4327 33.6599C53.4327 31.5016 51.6827 29.7516 49.5244 29.7516H6.47435Z" fill="#F8B602"/>
<path id="Vector_6" d="M30.8004 35.817C29.6921 35.817 28.7004 35.4087 27.7671 35.0587C27.0087 34.767 26.3087 34.4754 25.6671 34.4754C24.9087 34.417 24.0337 34.7087 23.1587 34.942C21.8171 35.3504 20.3004 35.817 18.7837 35.292C18.3171 35.117 17.9087 34.8837 17.5587 34.7087C17.3254 34.592 17.0921 34.417 16.8587 34.3587C15.7504 33.892 14.4087 34.1837 12.9504 34.5337L12.5421 34.6504C10.8504 35.0004 8.40039 35.3504 6.65039 33.8337L8.16706 32.0837C8.92539 32.7254 10.1504 32.842 12.0754 32.4337L12.4837 32.317C14.1171 31.967 15.9837 31.5587 17.7921 32.2587C18.1421 32.4337 18.4337 32.6087 18.7837 32.7254C19.0754 32.9004 19.3671 33.0754 19.6004 33.1337C20.4171 33.4254 21.4087 33.1337 22.5754 32.7837C23.6254 32.492 24.6754 32.142 25.9004 32.2004C26.9504 32.2587 27.8254 32.6087 28.7004 32.9587C29.6337 33.3087 30.5087 33.6587 31.2671 33.542C31.5587 33.4837 31.9087 33.367 32.3171 33.192C32.4921 33.1337 32.6087 33.0754 32.7837 33.017C34.5337 32.317 36.5754 32.142 38.4421 32.5504C38.7337 32.6087 39.0837 32.667 39.3754 32.7837C39.9587 32.9587 40.5421 33.0754 41.0671 33.0754C41.8254 33.0754 42.6421 32.7254 43.4587 32.4337C43.8087 32.317 44.1587 32.142 44.5087 32.0254C46.4921 31.3254 48.2421 31.5004 49.4087 32.492L47.8921 34.242C47.1337 33.6004 45.7921 34.0087 45.2087 34.1837C44.9171 34.3004 44.5671 34.417 44.2754 34.5337C43.2837 34.942 42.2337 35.3504 41.0087 35.3504C41.0087 35.3504 41.0087 35.3504 40.9504 35.3504C40.1337 35.3504 39.3754 35.1754 38.6754 35.0004C38.3837 34.942 38.1504 34.8837 37.8587 34.8254C36.4004 34.5337 34.8837 34.6504 33.5421 35.1754C33.4254 35.2337 33.2504 35.292 33.1337 35.3504C32.6671 35.5254 32.2004 35.7587 31.6171 35.817C31.3254 35.7587 31.0921 35.817 30.8004 35.817Z" fill="#2E2E2E"/>
<path id="Vector_7" d="M9.11702 18.5609L7.76367 16.6602L6.00547 17.912L7.35882 19.8128L9.11702 18.5609Z" fill="#060606"/>
<path id="Vector_8" d="M40.0938 11.381L38.7402 9.48047L36.9822 10.7326L38.3358 12.6331L40.0938 11.381Z" fill="#060606"/>
<path id="Vector_9" d="M34.5037 9.03748L33.1504 7.13672L31.3922 8.38857L32.7455 10.2893L34.5037 9.03748Z" fill="#060606"/>
<path id="Vector_10" d="M13.4821 14.1643L11.9258 12.4258L10.8827 13.3595L12.4389 15.0981L13.4821 14.1643Z" fill="#060606"/>
<path id="Vector_11" d="M21.0209 10.4076L20.123 8.25391L18.4539 8.94974L19.3518 11.1034L21.0209 10.4076Z" fill="#060606"/>
<path id="Vector_12" d="M15.4568 19.5777L14.4668 17.4648L13.2519 18.0341L14.2419 20.147L15.4568 19.5777Z" fill="#060606"/>
<path id="Vector_13" d="M26.659 9.21719L25.2007 7.40885C25.9007 6.82552 26.7757 6.41719 27.6507 6.24219L28.1756 8.45885C27.5923 8.63385 27.0673 8.86719 26.659 9.21719ZM17.7923 16.0422L17.209 13.8255C17.734 13.7089 18.259 13.4755 18.7256 13.2422L19.7757 15.2839C19.134 15.5755 18.4923 15.8089 17.7923 16.0422Z" fill="#060606"/>
<path id="Vector_14" d="M30.8666 19.1811L30.125 16.9688L28.1892 17.6176L28.9308 19.83L30.8666 19.1811Z" fill="#060606"/>
<path id="Vector_15" d="M42.6127 19.9077L41.8711 17.6953L39.9353 18.3442L40.6769 20.5565L42.6127 19.9077Z" fill="#060606"/>
<path id="Vector_16" d="M35.6408 20.3586L34.7074 18.2586C35.2908 18.0253 35.8741 17.7919 36.4574 17.6753L36.9241 19.9503C36.4574 20.0669 35.9908 20.1836 35.6408 20.3586ZM32.6658 15.8669L31.7324 13.7669C32.3158 13.5336 32.8991 13.3586 33.4824 13.1836L33.9491 15.4586C33.4824 15.5169 33.0741 15.6919 32.6658 15.8669Z" fill="#060606"/>
<path id="Vector_17" d="M26.9316 14.3912L26.1875 12.1797L24.8606 12.6261L25.6047 14.8376L26.9316 14.3912Z" fill="#060606"/>
<path id="Vector_18" d="M16.0244 11.5393L15.2793 9.32812L13.9526 9.77518L14.6977 11.9864L16.0244 11.5393Z" fill="#060606"/>
<path id="Vector_19" d="M24.0146 20.008L23.2695 17.7969L21.9428 18.2439L22.6879 20.4551L24.0146 20.008Z" fill="#060606"/>
<g id="Group">
<path id="Vector_20" d="M48.1249 18.2545L47.3809 16.043L46.054 16.4894L46.798 18.7009L48.1249 18.2545Z" fill="#060606"/>
</g>
<g id="Group_2">
<path id="Vector_21" d="M43.9296 15.7154L43.1855 13.5039L41.8586 13.9504L42.6027 16.1619L43.9296 15.7154Z" fill="#060606"/>
</g>
</g>
</svg>
