<svg width="20" height="20" viewBox="0 0 20 20" fill="none" xmlns="http://www.w3.org/2000/svg">
<path d="M0.756104 17.494V4.01003C0.769351 3.98078 0.780708 3.95072 0.790104 3.92003C0.963104 3.17403 1.3971 2.69603 2.1011 2.56703C2.4601 2.50103 2.8351 2.53803 3.2041 2.53103C3.3641 2.52803 3.5241 2.53103 3.6941 2.53103V1.61003C3.6941 1.23003 3.9141 0.974025 4.2371 0.973025C4.5591 0.973025 4.7801 1.22903 4.7811 1.60803V2.51803H9.5001V1.61103C9.5001 1.23103 9.7191 0.974025 10.0411 0.973025C10.3641 0.973025 10.5861 1.22803 10.5871 1.60703V2.51903H15.3031V1.61303C15.3031 1.23103 15.5221 0.975025 15.8431 0.973025C16.1651 0.972025 16.3891 1.22803 16.3901 1.60603V2.53203H17.6931C17.9081 2.53003 18.1221 2.57403 18.3211 2.66103C18.5201 2.74803 18.7011 2.87703 18.8531 3.04103C19.0051 3.20403 19.1251 3.39803 19.2071 3.61103C19.2891 3.82503 19.3301 4.05403 19.3281 4.28503V17.22C19.3301 17.45 19.2881 17.68 19.2081 17.893C19.1279 18.1041 19.0077 18.2976 18.8541 18.463C18.7051 18.6244 18.5248 18.7537 18.3241 18.843C18.1267 18.9303 17.913 18.9746 17.6971 18.973H2.3901C1.9111 18.973 1.5131 18.774 1.1841 18.4C0.954104 18.145 0.846104 17.824 0.756104 17.494ZM1.8431 7.75803V17.141C1.8431 17.577 2.0701 17.808 2.4961 17.808H17.5821C18.0341 17.808 18.2421 17.581 18.2421 17.09V7.76003L1.8431 7.75803ZM18.2401 6.57403C18.2401 5.78803 18.2501 5.01603 18.2361 4.24403C18.2301 3.92603 17.9841 3.70603 17.6771 3.70003C17.4111 3.69303 17.1441 3.70003 16.8791 3.70003H16.3911V4.09703C16.3911 4.29803 16.3961 4.50003 16.3911 4.70103C16.3855 4.84886 16.3257 4.98947 16.2231 5.09603C16.1743 5.14669 16.1157 5.18697 16.0509 5.21446C15.9861 5.24195 15.9165 5.25609 15.8461 5.25603C15.7759 5.25499 15.7066 5.23984 15.6424 5.2115C15.5781 5.18315 15.5202 5.14219 15.4721 5.09103C15.3703 4.98305 15.3119 4.84135 15.3081 4.69303C15.3021 4.36503 15.3081 4.03603 15.3081 3.71303H10.5881V4.09703C10.5881 4.29703 10.5921 4.49903 10.5881 4.70103C10.582 4.84913 10.5215 4.98978 10.4181 5.09603C10.3693 5.14643 10.3109 5.18649 10.2463 5.21381C10.1817 5.24112 10.1122 5.25514 10.0421 5.25503C9.97165 5.25399 9.90212 5.23876 9.83769 5.21023C9.77326 5.18171 9.71524 5.14049 9.6671 5.08903C9.56592 4.98116 9.50791 4.83987 9.5041 4.69203C9.4981 4.36303 9.5041 4.03503 9.5041 3.71203H4.7821V4.13603C4.7821 4.31803 4.7851 4.50103 4.7821 4.68203C4.78388 4.83441 4.72818 4.98187 4.6261 5.09503C4.57782 5.14874 4.51898 5.19193 4.45325 5.22186C4.38752 5.2518 4.31632 5.26786 4.2441 5.26903C4.17188 5.26928 4.10038 5.25458 4.03412 5.22583C3.96786 5.19709 3.90827 5.15494 3.8591 5.10203C3.75546 4.9906 3.69762 4.8442 3.6971 4.69203C3.6911 4.36203 3.6971 4.03403 3.6971 3.69603H2.4571C2.0741 3.69603 1.8471 3.93903 1.8461 4.34803V6.57203L18.2401 6.57403Z" fill="#151515"/>
<path d="M5.38308 10.868C5.18908 10.868 4.99608 10.873 4.80508 10.868C4.73419 10.8652 4.66459 10.848 4.60049 10.8176C4.53639 10.7872 4.4791 10.7441 4.43208 10.691C4.33295 10.5794 4.27847 10.4352 4.27908 10.286C4.27908 10.134 4.33308 9.98899 4.43208 9.87999C4.4791 9.82685 4.53639 9.78378 4.60049 9.75336C4.66459 9.72294 4.73419 9.70581 4.80508 9.70299C5.20208 9.69699 5.60008 9.69699 5.99908 9.70299C6.06998 9.70581 6.13957 9.72294 6.20367 9.75336C6.26778 9.78378 6.32506 9.82685 6.37208 9.87999C6.47144 9.9918 6.52594 10.1364 6.52508 10.286C6.52569 10.4352 6.47121 10.5794 6.37208 10.691C6.32506 10.7441 6.26778 10.7872 6.20367 10.8176C6.13957 10.848 6.06998 10.8652 5.99908 10.868C5.79308 10.873 5.58908 10.868 5.38308 10.868ZM10.0431 10.867C9.84908 10.867 9.65508 10.87 9.46408 10.867C9.39045 10.8698 9.31709 10.8566 9.24906 10.8283C9.18104 10.8 9.11997 10.7572 9.07008 10.703C8.96573 10.5886 8.90788 10.4393 8.90788 10.2845C8.90788 10.1296 8.96573 9.98039 9.07008 9.86599C9.12001 9.81181 9.18109 9.7691 9.2491 9.74079C9.31712 9.71248 9.39046 9.69924 9.46408 9.70199C9.85208 9.69799 10.2381 9.69799 10.6221 9.70199C10.6957 9.69924 10.769 9.71248 10.8371 9.74079C10.9051 9.7691 10.9662 9.81181 11.0161 9.86599C11.1206 9.98028 11.1786 10.1296 11.1786 10.2845C11.1786 10.4394 11.1206 10.5887 11.0161 10.703C10.9662 10.7572 10.9051 10.7999 10.8371 10.8282C10.769 10.8565 10.6957 10.8697 10.6221 10.867C10.4281 10.87 10.2341 10.867 10.0421 10.867H10.0431ZM14.6871 10.868C14.4871 10.868 14.2891 10.873 14.0891 10.868C14.0182 10.8652 13.9486 10.848 13.8845 10.8176C13.8204 10.7872 13.7631 10.7441 13.7161 10.691C13.617 10.5794 13.5625 10.4352 13.5631 10.286C13.5631 10.134 13.6181 9.98899 13.7161 9.87999C13.7631 9.82685 13.8204 9.78378 13.8845 9.75336C13.9486 9.72294 14.0182 9.70581 14.0891 9.70299C14.4871 9.69699 14.8851 9.69699 15.2831 9.70299C15.354 9.70586 15.4235 9.72302 15.4876 9.75344C15.5517 9.78385 15.609 9.8269 15.6561 9.87999C15.7554 9.9918 15.8099 10.1364 15.8091 10.286C15.8097 10.4352 15.7552 10.5794 15.6561 10.691C15.6091 10.7441 15.5518 10.7872 15.4877 10.8176C15.4236 10.848 15.354 10.8652 15.2831 10.868C15.0841 10.873 14.8851 10.868 14.6871 10.868ZM5.39108 13.36C5.19708 13.36 5.00408 13.364 4.81208 13.36C4.74126 13.3573 4.67171 13.3403 4.60761 13.3101C4.54352 13.2798 4.48619 13.2369 4.43908 13.184C4.33981 13.0721 4.28532 12.9275 4.28608 12.778C4.28608 12.626 4.34108 12.48 4.43908 12.372C4.4861 12.3189 4.54339 12.2758 4.60749 12.2454C4.67159 12.2149 4.74119 12.1978 4.81208 12.195C5.20408 12.19 5.59608 12.19 5.98808 12.195C6.05898 12.1978 6.12857 12.2149 6.19267 12.2454C6.25678 12.2758 6.31406 12.3189 6.36108 12.372C6.46036 12.4838 6.51484 12.6284 6.51408 12.778C6.51484 12.9275 6.46036 13.0721 6.36108 13.184C6.31406 13.2371 6.25678 13.2802 6.19267 13.3106C6.12857 13.341 6.05898 13.3582 5.98808 13.361H5.39008L5.39108 13.36ZM10.0421 13.36C9.84408 13.36 9.64408 13.364 9.44508 13.36C9.37426 13.3573 9.30471 13.3403 9.24061 13.3101C9.17652 13.2798 9.11919 13.2369 9.07208 13.184C8.97272 13.0722 8.91823 12.9276 8.91908 12.778C8.91908 12.626 8.97408 12.481 9.07208 12.372C9.11919 12.319 9.17652 12.2761 9.24061 12.2459C9.30471 12.2157 9.37426 12.1987 9.44508 12.196C9.84308 12.19 10.2411 12.19 10.6391 12.196C10.7099 12.1987 10.7795 12.2157 10.8436 12.2459C10.9076 12.2761 10.965 12.319 11.0121 12.372C11.1114 12.4838 11.1659 12.6284 11.1651 12.778C11.1659 12.9276 11.1114 13.0722 11.0121 13.184C10.965 13.2369 10.9076 13.2798 10.8436 13.3101C10.7795 13.3403 10.7099 13.3573 10.6391 13.36C10.4411 13.363 10.2421 13.36 10.0421 13.36ZM14.6841 12.193C14.8841 12.193 15.0821 12.189 15.2811 12.193C15.352 12.1954 15.4217 12.2121 15.486 12.2422C15.5503 12.2723 15.6078 12.3151 15.6551 12.368C15.755 12.4792 15.8102 12.6235 15.8101 12.773C15.8115 12.9228 15.7573 13.0678 15.6581 13.18C15.6113 13.2332 15.5542 13.2764 15.4903 13.307C15.4263 13.3376 15.3569 13.3549 15.2861 13.358C14.8881 13.364 14.4901 13.364 14.0921 13.358C14.0212 13.3556 13.9515 13.3388 13.8872 13.3087C13.8229 13.2786 13.7654 13.2359 13.7181 13.183C13.6182 13.0717 13.563 12.9275 13.5631 12.778C13.5621 12.6283 13.6162 12.4834 13.7151 12.371C13.7619 12.3178 13.819 12.2746 13.8829 12.244C13.9468 12.2134 14.0163 12.1961 14.0871 12.193C14.2871 12.189 14.4851 12.193 14.6841 12.193ZM5.39108 15.857C5.19708 15.857 5.00308 15.86 4.81208 15.857C4.7398 15.8567 4.66836 15.8415 4.60227 15.8122C4.53618 15.783 4.47687 15.7403 4.42808 15.687C4.32517 15.5753 4.26805 15.4289 4.26808 15.277C4.26697 15.1245 4.32298 14.9772 4.42508 14.864C4.47353 14.8103 4.53256 14.7672 4.59848 14.7374C4.66439 14.7076 4.73576 14.6918 4.80808 14.691C5.20007 14.6858 5.5921 14.6858 5.98408 14.691C6.12808 14.691 6.26608 14.751 6.36808 14.861C6.47008 14.969 6.52808 15.117 6.52808 15.271C6.52959 15.4235 6.47353 15.571 6.37108 15.684C6.32264 15.7377 6.2636 15.7808 6.19769 15.8106C6.13177 15.8403 6.06041 15.8561 5.98808 15.857C5.79008 15.863 5.59008 15.857 5.39108 15.857ZM10.0401 15.857C9.84708 15.857 9.65308 15.859 9.46208 15.857C9.38974 15.8565 9.31827 15.8411 9.25218 15.8117C9.1861 15.7822 9.12682 15.7395 9.07808 15.686C8.97515 15.5735 8.91837 15.4264 8.91908 15.274C8.91908 15.119 8.97608 14.971 9.07908 14.861C9.17908 14.751 9.31808 14.691 9.46208 14.691C9.85008 14.687 10.2361 14.687 10.6201 14.691C10.7641 14.691 10.9021 14.751 11.0041 14.861C11.1051 14.971 11.1631 15.119 11.1631 15.273C11.1638 15.4259 11.1066 15.5734 11.0031 15.686C10.9544 15.7391 10.8952 15.7817 10.8293 15.8109C10.7634 15.8402 10.6922 15.8555 10.6201 15.856C10.4251 15.859 10.2321 15.856 10.0401 15.856V15.857ZM14.6761 15.856C14.4821 15.856 14.2881 15.86 14.0961 15.856C14.024 15.8551 13.9529 15.8393 13.8872 15.8097C13.8215 15.7801 13.7625 15.7373 13.7141 15.684C13.6114 15.5714 13.555 15.4243 13.5561 15.272C13.5561 15.117 13.6141 14.969 13.7161 14.86C13.7651 14.8068 13.8246 14.7643 13.8909 14.7352C13.9572 14.7061 14.0287 14.691 14.1011 14.691C14.4921 14.686 14.8841 14.686 15.2761 14.691C15.4201 14.691 15.5581 14.754 15.6591 14.863C15.7611 14.973 15.8171 15.121 15.8171 15.276C15.8174 15.4282 15.7602 15.575 15.6571 15.687C15.6083 15.7403 15.5489 15.7829 15.4829 15.8121C15.4168 15.8414 15.3454 15.8567 15.2731 15.857C15.0731 15.86 14.8751 15.857 14.6761 15.857V15.856Z" fill="#151515"/>
</svg>
