<svg width="20" height="20" viewBox="0 0 20 20" fill="none" xmlns="http://www.w3.org/2000/svg">
  <path d="M.756 17.494V4.01a.75.75 0 0 0 .034-.09c.173-.746.607-1.224 1.311-1.353.359-.066.734-.029 1.103-.036.16-.003.32 0 .49 0V1.61c0-.38.22-.636.543-.637.322 0 .543.256.544.635v.91H9.5v-.907c0-.38.219-.637.541-.638.323 0 .545.255.546.634v.912h4.716v-.906c0-.382.219-.638.54-.64.322-.001.546.255.547.633v.926h1.303c.215-.002.429.042.628.129s.38.216.532.38c.152.163.272.357.354.57.082.214.123.443.121.674V17.22c.002.23-.04.46-.12.673a1.752 1.752 0 0 1-.354.57 1.616 1.616 0 0 1-.53.38 1.522 1.522 0 0 1-.627.13H2.39c-.479 0-.877-.199-1.206-.573-.23-.255-.338-.576-.428-.906Zm1.087-9.736v9.383c0 .436.227.667.653.667h15.086c.452 0 .66-.227.66-.718V7.76L1.843 7.758ZM18.24 6.574c0-.786.01-1.558-.004-2.33-.006-.318-.252-.538-.559-.544-.266-.007-.533 0-.798 0h-.488v.397c0 .201.005.403 0 .604a.602.602 0 0 1-.168.395.523.523 0 0 1-.377.16.524.524 0 0 1-.374-.165.603.603 0 0 1-.164-.398c-.006-.328 0-.657 0-.98h-4.72v.384c0 .2.004.402 0 .604a.602.602 0 0 1-.17.395.522.522 0 0 1-.376.159.524.524 0 0 1-.375-.166.603.603 0 0 1-.163-.397c-.006-.329 0-.657 0-.98H4.782v.424c0 .182.003.365 0 .546a.606.606 0 0 1-.156.413.525.525 0 0 1-.382.174.523.523 0 0 1-.385-.167.605.605 0 0 1-.162-.41c-.006-.33 0-.658 0-.996h-1.24c-.383 0-.61.243-.611.652v2.224l16.393.002Z" fill="#FFC00B"/>
  <path d="M5.383 10.868c-.194 0-.387.005-.578 0a.526.526 0 0 1-.373-.177.606.606 0 0 1-.153-.405c0-.152.054-.297.153-.406a.526.526 0 0 1 .373-.177c.397-.006.795-.006 1.194 0a.526.526 0 0 1 .373.177.606.606 0 0 1 .153.406.606.606 0 0 1-.153.405.526.526 0 0 1-.373.177c-.206.005-.41 0-.616 0Zm4.66-.001c-.194 0-.388.003-.579 0a.509.509 0 0 1-.394-.164.621.621 0 0 1 0-.837.51.51 0 0 1 .394-.164c.388-.004.774-.004 1.158 0a.51.51 0 0 1 .394.164.62.62 0 0 1 0 .837.51.51 0 0 1-.394.164c-.194.003-.388 0-.58 0Zm4.644.001c-.2 0-.398.005-.598 0a.526.526 0 0 1-.373-.177.606.606 0 0 1-.153-.405c0-.152.055-.297.153-.406a.526.526 0 0 1 .373-.177c.398-.006.796-.006 1.194 0a.527.527 0 0 1 .373.177.606.606 0 0 1 .153.406.606.606 0 0 1-.153.405.526.526 0 0 1-.373.177c-.199.005-.398 0-.596 0ZM5.391 13.36c-.194 0-.387.004-.579 0a.526.526 0 0 1-.373-.176.607.607 0 0 1-.153-.406c0-.152.055-.298.153-.406a.526.526 0 0 1 .373-.177c.392-.005.784-.005 1.176 0a.526.526 0 0 1 .373.177.607.607 0 0 1 .153.406.607.607 0 0 1-.153.406.526.526 0 0 1-.373.177H5.39Zm4.651 0c-.198 0-.398.004-.597 0a.526.526 0 0 1-.373-.176.606.606 0 0 1-.153-.406c0-.152.055-.297.153-.406a.526.526 0 0 1 .373-.176c.398-.006.796-.006 1.194 0a.526.526 0 0 1 .373.176.606.606 0 0 1 .153.406.606.606 0 0 1-.153.406.526.526 0 0 1-.373.176c-.198.003-.397 0-.597 0Zm4.642-1.167c.2 0 .398-.004.597 0a.525.525 0 0 1 .374.175.605.605 0 0 1 .155.405.606.606 0 0 1-.152.407.526.526 0 0 1-.372.178c-.398.006-.796.006-1.194 0a.526.526 0 0 1-.374-.175.606.606 0 0 1-.155-.405.61.61 0 0 1 .152-.407.526.526 0 0 1 .372-.178c.2-.004.398 0 .597 0Zm-9.293 3.664c-.194 0-.388.003-.579 0a.523.523 0 0 1-.384-.17.605.605 0 0 1-.16-.41.61.61 0 0 1 .157-.413.524.524 0 0 1 .383-.173 44.31 44.31 0 0 1 1.176 0c.144 0 .282.06.384.17.102.108.16.256.16.41a.606.606 0 0 1-.157.413.524.524 0 0 1-.383.173c-.198.006-.398 0-.597 0Zm4.649 0c-.193 0-.387.002-.578 0a.524.524 0 0 1-.384-.171.606.606 0 0 1-.159-.412c0-.155.057-.303.16-.413.1-.11.239-.17.383-.17.388-.004.774-.004 1.158 0 .144 0 .282.06.384.17.101.11.159.258.159.412a.606.606 0 0 1-.16.413.524.524 0 0 1-.383.17c-.195.003-.388 0-.58 0Zm4.636-.001c-.194 0-.388.004-.58 0a.525.525 0 0 1-.382-.172.605.605 0 0 1-.158-.412c0-.155.058-.303.16-.412a.524.524 0 0 1 .385-.169c.391-.005.783-.005 1.175 0 .144 0 .282.063.383.172.102.11.158.258.158.413a.605.605 0 0 1-.16.411.524.524 0 0 1-.384.17c-.2.003-.398 0-.597 0Z" fill="#FFC00B"/>
</svg>
