<svg width="16" height="17" viewBox="0 0 16 17" fill="none" xmlns="http://www.w3.org/2000/svg">
<g clip-path="url(#clip0_4258_10606)">
<path fill-rule="evenodd" clip-rule="evenodd" d="M0 4.41993V4.44993L0.002 4.47993L0.003 4.52093C0.006 4.58693 0.011 4.70793 0.019 4.80993V4.81193C0.107 5.99693 0.473 7.07993 0.963 8.07393C2.08 10.3399 3.696 12.1749 5.66 13.6799C6.96 14.6749 8.414 15.4979 10.095 15.9239C11.008 16.1539 12.013 16.2639 13.061 16.0009C13.404 15.9149 13.97 15.7659 14.436 15.3409L14.439 15.3389C14.766 15.0389 15.073 14.7229 15.356 14.4319L15.406 14.3799C16.193 13.5719 16.208 12.3499 15.399 11.5319C14.6227 10.7476 13.841 9.96859 13.054 9.19493C12.222 8.37793 10.989 8.42093 10.188 9.20793L9.872 9.52493C9.732 9.66693 9.604 9.79493 9.462 9.92793C9.359 9.93193 9.208 9.90093 8.946 9.78793C8.036 9.39793 7.316 8.74993 6.726 7.88293C6.494 7.54193 6.296 7.16293 6.246 6.74893C6.24446 6.73729 6.24313 6.72562 6.242 6.71393C6.442 6.53693 6.638 6.33393 6.796 6.17093L6.946 6.01593C7.329 5.63093 7.567 5.12593 7.571 4.57093C7.56988 4.29936 7.51465 4.03072 7.40855 3.78073C7.30244 3.53074 7.14757 3.3044 6.953 3.11493C6.187 2.34293 5.417 1.57493 4.643 0.811934C4.253 0.426934 3.743 0.198934 3.193 0.201934C2.65132 0.210631 2.13465 0.431443 1.754 0.816934L1.592 0.974934C1.382 1.17993 1.148 1.40693 0.931 1.64193C0.743157 1.84111 0.583656 2.06521 0.457 2.30793L0.453 2.31693C0.098 3.01093 0.006 3.72893 0 4.41993ZM1.343 2.76993C1.42782 2.60725 1.53485 2.45715 1.661 2.32393C1.859 2.10893 2.068 1.90493 2.277 1.70093L2.454 1.52893C2.894 1.09593 3.5 1.08893 3.939 1.52293C4.711 2.28393 5.479 3.04893 6.243 3.81793C6.683 4.26093 6.677 4.86593 6.236 5.30993L6.046 5.50593C5.8826 5.67993 5.71107 5.84611 5.532 6.00393C5.252 6.24393 5.212 6.53893 5.252 6.86793C5.324 7.45193 5.572 7.96593 5.899 8.44393C6.575 9.43793 7.433 10.2269 8.551 10.7069C8.925 10.8669 9.317 10.9839 9.731 10.8989C9.86029 10.87 9.97985 10.8079 10.078 10.7189C10.26 10.5519 10.433 10.3769 10.606 10.2019L10.888 9.91993C11.316 9.49993 11.925 9.48793 12.352 9.90793C13.136 10.6779 13.915 11.4529 14.688 12.2339C15.106 12.6569 15.103 13.2559 14.688 13.6809L14.642 13.7279C14.355 14.0239 14.067 14.3209 13.762 14.6009C13.498 14.8409 13.157 14.9449 12.817 15.0299C11.985 15.2379 11.157 15.1599 10.339 14.9529C8.826 14.5699 7.494 13.8229 6.267 12.8839C4.408 11.4599 2.899 9.73993 1.86 7.63193C1.41 6.71793 1.093 5.76193 1.016 4.73793C1.01085 4.65933 1.00685 4.58065 1.004 4.50193L1 4.42793C1.005 3.81793 1.087 3.27393 1.343 2.76993Z" fill="#151515"/>
</g>
<defs>
<clipPath id="clip0_4258_10606">
<rect width="16" height="17" fill="white"/>
</clipPath>
</defs>
</svg>
