<svg width="20" height="20" viewBox="0 0 20 20" fill="none" xmlns="http://www.w3.org/2000/svg">
<path d="M0 10.0074C0 4.48646 4.48412 0 10.0027 0C15.5182 0 20.0016 4.48959 20 10.0121C19.9992 15.5385 15.4995 20.0055 9.93944 20C4.48568 19.9953 0 15.4854 0 10.0074ZM9.15888 7.70871C9.15888 8.55491 9.16357 9.40032 9.15654 10.2465C9.15341 10.5926 9.26515 10.8708 9.51517 11.1161C10.3965 11.9834 11.2662 12.8617 12.1405 13.736C12.6194 14.2142 13.0867 14.7048 13.5805 15.1674C14.079 15.6339 14.8549 15.3948 14.9861 14.7486C15.058 14.3915 14.8916 14.1267 14.6462 13.8837C13.4555 12.7007 12.2647 11.517 11.0911 10.3168C10.956 10.1785 10.856 9.94179 10.8528 9.7488C10.8333 8.22674 10.8528 6.70391 10.831 5.18107C10.827 4.92714 10.7341 4.6357 10.5856 4.43255C10.3778 4.1497 10.0379 4.09345 9.70192 4.22706C9.3339 4.37239 9.16592 4.67008 9.16279 5.0545C9.15654 5.93976 9.16045 6.82423 9.15967 7.7095L9.15888 7.70871Z" fill="#FFC00B"/>
</svg>
