<svg width="20" height="20" viewBox="0 0 20 20" fill="none" xmlns="http://www.w3.org/2000/svg">
<path d="M9.54369 19.9982C7.03095 19.9982 4.51821 19.999 2.00625 19.9982C0.742063 19.9974 0.000585994 19.2513 0.000585994 17.98C-0.000195331 14.4649 -0.000195331 10.9505 0.000585994 7.43527C0.000585994 6.21406 0.748314 5.41008 1.96484 5.47883C2.97665 5.53665 3.81267 5.24287 4.6651 4.72798C7.13565 3.23643 9.64526 1.81051 12.1408 0.361152C13.2823 -0.302193 14.2566 -0.0474813 14.9114 1.09013C15.6958 2.45276 16.4686 3.82242 17.2632 5.17958C17.3491 5.32569 17.5273 5.46399 17.6898 5.51243C18.5492 5.76792 19.0485 6.37423 19.0774 7.27041C19.0907 7.68686 19.0884 8.1033 19.0805 8.51975C19.0727 8.9401 18.9368 9.07683 18.5094 9.07996C17.5327 9.08699 16.5569 9.07449 15.5802 9.08465C13.5574 9.10574 12.0853 10.4113 11.8361 12.3951C11.5978 14.2922 13.1573 16.2181 15.0708 16.326C16.1482 16.3869 17.2311 16.3525 18.3109 16.3596C18.9821 16.3643 19.0813 16.4604 19.0821 17.1229C19.0821 17.4745 19.0907 17.8261 19.0774 18.1769C19.0384 19.2606 18.2836 19.9951 17.1976 19.9974C14.6457 20.0021 12.0939 19.999 9.54291 19.999L9.54369 19.9982ZM5.33235 5.37492C5.33782 5.40304 5.34329 5.43195 5.34797 5.46008C5.68238 5.46008 6.01757 5.44055 6.34963 5.46477C6.78249 5.49602 7.14971 5.37492 7.52318 5.1538C9.58198 3.9365 11.6533 2.74029 13.7191 1.53548C13.8136 1.48001 13.8996 1.41047 13.991 1.3464C13.6105 0.867451 13.2206 0.787756 12.7096 1.08232C11.5947 1.72535 10.4844 2.37541 9.3718 3.02235C8.02479 3.80601 6.67935 4.59047 5.33235 5.37492ZM15.37 3.72319C14.402 4.28731 13.4706 4.83111 12.4494 5.42726H16.3451C16.0123 4.84518 15.7036 4.30684 15.37 3.72319Z" fill="#151515"/>
</svg>
