<svg width="177" height="171" viewBox="0 0 177 171" fill="none" xmlns="http://www.w3.org/2000/svg">
<path d="M88.5003 22.2305C71.2544 22.2305 54.715 28.8964 42.5203 40.7619C30.3256 52.6273 23.4747 68.7202 23.4747 85.5005C23.4747 102.281 30.3256 118.374 42.5203 130.239C54.715 142.105 71.2544 148.77 88.5003 148.77C105.746 148.77 122.286 142.105 134.48 130.239C146.675 118.374 153.526 102.281 153.526 85.5005C153.526 68.7202 146.675 52.6273 134.48 40.7619C122.286 28.8964 105.746 22.2305 88.5003 22.2305Z" fill="#FFC00B" fill-opacity="0.05"/>
<path d="M23.4744 46.1699C22.5422 46.1699 21.6481 46.5302 20.989 47.1716C20.3298 47.813 19.9595 48.6829 19.9595 49.5899C19.9595 50.497 20.3298 51.3669 20.989 52.0082C21.6481 52.6496 22.5422 53.0099 23.4744 53.0099C24.4066 53.0099 25.3006 52.6496 25.9598 52.0082C26.6189 51.3669 26.9893 50.497 26.9893 49.5899C26.9893 48.6829 26.6189 47.813 25.9598 47.1716C25.3006 46.5302 24.4066 46.1699 23.4744 46.1699Z" fill="url(#paint0_linear_3363_4711)"/>
<path d="M135.951 20.5201C135.485 20.5201 135.038 20.7002 134.708 21.021C134.378 21.3416 134.194 21.7765 134.194 22.2301C134.194 22.6836 134.378 23.1185 134.708 23.4393C135.038 23.7599 135.485 23.9401 135.951 23.9401C136.417 23.9401 136.864 23.7599 137.194 23.4393C137.523 23.1185 137.708 22.6836 137.708 22.2301C137.708 21.7765 137.523 21.3416 137.194 21.021C136.864 20.7002 136.417 20.5201 135.951 20.5201ZM146.496 18.8101C144.632 18.8101 142.843 19.5307 141.525 20.8134C140.207 22.0962 139.466 23.836 139.466 25.6501C139.466 27.4641 140.207 29.2039 141.525 30.4867C142.843 31.7694 144.632 32.4901 146.496 32.4901C148.36 32.4901 150.147 31.7694 151.467 30.4867C152.785 29.2039 153.526 27.4641 153.526 25.6501C153.526 23.836 152.785 22.0962 151.467 20.8134C150.147 19.5307 148.36 18.8101 146.496 18.8101Z" fill="url(#paint1_linear_3363_4711)"/>
<path d="M153.526 37.6196C152.593 37.6196 151.699 37.9799 151.04 38.6213C150.381 39.2627 150.011 40.1326 150.011 41.0396C150.011 41.9467 150.381 42.8166 151.04 43.4579C151.699 44.0993 152.593 44.4596 153.526 44.4596C154.458 44.4596 155.352 44.0993 156.011 43.4579C156.67 42.8166 157.04 41.9467 157.04 41.0396C157.04 40.1326 156.67 39.2627 156.011 38.6213C155.352 37.9799 154.458 37.6196 153.526 37.6196Z" fill="url(#paint2_linear_3363_4711)"/>
<path d="M142.981 126.54C142.048 126.54 141.154 126.9 140.495 127.542C139.836 128.183 139.466 129.052 139.466 129.96C139.466 130.868 139.836 131.737 140.495 132.378C141.154 133.02 142.048 133.38 142.981 133.38C143.914 133.38 144.807 133.02 145.466 132.378C146.125 131.737 146.496 130.868 146.496 129.96C146.496 129.052 146.125 128.183 145.466 127.542C144.807 126.9 143.914 126.54 142.981 126.54ZM26.9893 100.89C25.1249 100.89 23.3368 101.611 22.0184 102.894C20.7001 104.176 19.9595 105.916 19.9595 107.73C19.9595 109.544 20.7001 111.284 22.0184 112.567C23.3368 113.849 25.1249 114.57 26.9893 114.57C28.8537 114.57 30.6417 113.849 31.9601 112.567C33.2784 111.284 34.019 109.544 34.019 107.73C34.019 105.916 33.2784 104.176 31.9601 102.894C30.6417 101.611 28.8537 100.89 26.9893 100.89Z" fill="url(#paint3_linear_3363_4711)"/>
<path d="M44.5641 145.35C43.6319 145.35 42.7379 145.71 42.0787 146.352C41.4195 146.993 41.0492 147.863 41.0492 148.77C41.0492 149.678 41.4195 150.547 42.0787 151.189C42.7379 151.83 43.6319 152.19 44.5641 152.19C45.4963 152.19 46.3903 151.83 47.0495 151.189C47.7087 150.547 48.079 149.678 48.079 148.77C48.079 147.863 47.7087 146.993 47.0495 146.352C46.3903 145.71 45.4963 145.35 44.5641 145.35Z" fill="url(#paint4_linear_3363_4711)"/>
<path d="M33.1403 87.21C31.975 87.21 30.8575 87.6603 30.0335 88.462C29.2097 89.2638 28.7467 90.3511 28.7467 91.485C28.7467 92.6188 29.2097 93.7061 30.0335 94.5079C30.8575 95.3096 31.975 95.76 33.1403 95.76C34.3056 95.76 35.4231 95.3096 36.2471 94.5079C37.0711 93.7061 37.5339 92.6188 37.5339 91.485C37.5339 90.3511 37.0711 89.2638 36.2471 88.462C35.4231 87.6603 34.3056 87.21 33.1403 87.21Z" fill="url(#paint5_linear_3363_4711)"/>
<path d="M37.5341 112.86C37.068 112.86 36.6209 113.04 36.2913 113.361C35.9618 113.681 35.7766 114.116 35.7766 114.57C35.7766 115.023 35.9618 115.458 36.2913 115.779C36.6209 116.1 37.068 116.28 37.5341 116.28C38.0002 116.28 38.4472 116.1 38.7768 115.779C39.1063 115.458 39.2915 115.023 39.2915 114.57C39.2915 114.116 39.1063 113.681 38.7768 113.361C38.4472 113.04 38.0002 112.86 37.5341 112.86Z" fill="url(#paint6_linear_3363_4711)"/>
<path d="M141.223 56.4302C140.758 56.4302 140.311 56.6103 139.981 56.931C139.652 57.2517 139.466 57.6867 139.466 58.1402C139.466 58.5937 139.652 59.0286 139.981 59.3493C140.311 59.67 140.758 59.8502 141.223 59.8502C141.689 59.8502 142.136 59.67 142.466 59.3493C142.796 59.0286 142.981 58.5937 142.981 58.1402C142.981 57.6867 142.796 57.2517 142.466 56.931C142.136 56.6103 141.689 56.4302 141.223 56.4302Z" fill="url(#paint7_linear_3363_4711)"/>
<path d="M88.5002 44.5322C77.3333 44.5322 66.6238 48.8485 58.7276 56.5315C50.8314 64.2146 46.3953 74.6349 46.3953 85.5004C46.3953 96.3659 50.8314 106.786 58.7276 114.469C66.6238 122.153 77.3333 126.468 88.5002 126.468C99.6672 126.468 110.377 122.153 118.273 114.469C126.17 106.786 130.605 96.3659 130.605 85.5004C130.605 74.6349 126.17 64.2146 118.273 56.5315C110.377 48.8485 99.6672 44.5322 88.5002 44.5322Z" fill="url(#paint8_linear_3363_4711)"/>
<path d="M88.5 45.144C111.37 45.144 129.976 63.2478 129.976 85.5C129.976 107.752 111.37 125.856 88.5 125.856C65.6304 125.856 47.0243 107.752 47.0243 85.5C47.0243 63.2478 65.6304 45.144 88.5 45.144ZM88.5 42.75C64.2349 42.75 44.5638 61.89 44.5638 85.5C44.5638 109.11 64.2349 128.25 88.5 128.25C112.765 128.25 132.436 109.11 132.436 85.5C132.436 61.89 112.765 42.75 88.5 42.75Z" fill="url(#paint9_linear_3363_4711)"/>
<path d="M88.5003 52.1553C83.9998 52.1553 79.5434 53.0177 75.3856 54.6935C71.2277 56.3692 67.4498 58.8254 64.2676 61.9218C61.0852 65.0181 58.5609 68.694 56.8387 72.7396C55.1164 76.7853 54.23 81.1213 54.23 85.5003C54.23 89.8792 55.1164 94.2153 56.8387 98.2608C58.5609 102.306 61.0852 105.982 64.2676 109.079C67.4498 112.175 71.2277 114.631 75.3856 116.307C79.5434 117.983 83.9998 118.845 88.5003 118.845C93.0007 118.845 97.4571 117.983 101.615 116.307C105.773 114.631 109.551 112.175 112.733 109.079C115.915 105.982 118.439 102.306 120.162 98.2608C121.884 94.2153 122.77 89.8792 122.77 85.5003C122.77 81.1213 121.884 76.7853 120.162 72.7396C118.439 68.694 115.915 65.0181 112.733 61.9218C109.551 58.8254 105.773 56.3692 101.615 54.6935C97.4571 53.0177 93.0007 52.1553 88.5003 52.1553Z" fill="#FFC00B" fill-opacity="0.1"/>
<path d="M123.23 80.2914C123.155 79.8245 122.707 79.5048 122.227 79.5766C121.747 79.6484 121.417 80.0844 121.494 80.553C123.13 90.7719 119.642 101.213 112.164 108.484C99.1288 121.159 77.9199 121.159 64.885 108.484C51.85 95.8113 51.85 75.1887 64.885 62.5142C77.9199 49.8414 99.1288 49.8414 112.164 62.5142C113.531 63.8446 114.788 65.322 116.006 67.0303C116.283 67.4185 116.83 67.5159 117.231 67.2458C117.626 66.9807 117.728 66.4455 117.452 66.0556C116.173 64.2618 114.849 62.7074 113.406 61.3052C99.6859 47.9655 77.3611 47.9638 63.6389 61.3052C49.9185 74.6466 49.9185 96.3534 63.6389 109.695C77.3593 123.034 99.6842 123.037 113.406 109.695C121.281 102.039 124.954 91.0473 123.23 80.2914Z" fill="url(#paint10_linear_3363_4711)"/>
<path d="M119.377 73.1812C119.561 73.619 120.076 73.8276 120.524 73.648C120.971 73.4702 121.188 72.9709 121.002 72.5331C120.449 71.2233 119.932 70.1477 119.375 69.1525C119.143 68.7369 118.609 68.5847 118.181 68.8104C118.106 68.8498 118.037 68.9011 117.979 68.9575C117.71 69.2191 117.638 69.6295 117.828 69.9715C118.357 70.9103 118.849 71.9312 119.377 73.1812Z" fill="url(#paint11_linear_3363_4711)"/>
<path d="M72.683 82.7216C71.9203 82.7216 71.2032 83.0106 70.6637 83.5355C70.1242 84.0605 69.8271 84.7582 69.8271 85.5003C69.8271 86.2425 70.1242 86.9402 70.6637 87.4651L82.9658 99.4351C83.5054 99.9601 84.2224 100.249 84.9851 100.249V100.89L85.0396 100.249C85.8217 100.234 86.5668 99.9054 87.0905 99.3496L106.422 78.8296C106.937 78.2824 107.203 77.5728 107.171 76.8306C107.138 76.0885 106.809 75.4062 106.248 74.9035C105.684 74.4024 104.969 74.134 104.194 74.175C103.433 74.2075 102.73 74.5256 102.215 75.0728L84.8973 93.4535L74.7041 83.5355C74.1628 83.0106 73.4457 82.7216 72.683 82.7216Z" fill="url(#paint12_linear_3363_4711)"/>
<path d="M104.317 74.8128C104.867 74.8128 105.395 75.0128 105.802 75.3754C106.235 75.7618 106.486 76.2868 106.512 76.8579C106.537 77.4291 106.333 77.9746 105.936 78.3952L86.604 98.9152C86.2015 99.3427 85.6286 99.5958 84.9853 99.6078C84.3984 99.6078 83.8465 99.3855 83.4318 98.9819L71.1296 87.0119C70.7149 86.6084 70.4864 86.0714 70.4864 85.5003C70.4864 84.9291 70.7149 84.3922 71.1314 83.9886C71.5444 83.5851 72.0962 83.3628 72.6832 83.3628C73.2702 83.3628 73.822 83.5851 74.2368 83.9886L83.9432 93.433L84.9168 94.3803L85.8465 93.3936L102.699 75.5053C103.119 75.059 103.693 74.8128 104.317 74.8128ZM104.317 73.5303C103.366 73.5303 102.419 73.9031 101.727 74.6401L84.8746 92.5267L75.1682 83.0823C74.4828 82.4137 73.583 82.0803 72.6832 82.0803C71.7834 82.0803 70.8836 82.4137 70.1982 83.0823C68.8256 84.4178 68.8256 86.5827 70.1982 87.9182L82.5003 99.8882C83.1594 100.531 84.0539 100.89 84.9853 100.89C85.0117 100.89 85.0363 100.89 85.0609 100.89C86.0187 100.87 86.9273 100.47 87.5758 99.7822L106.908 79.2622C108.221 77.8703 108.122 75.7054 106.692 74.4297C106.017 73.8278 105.166 73.5303 104.317 73.5303Z" fill="#FFC00B"/>
<defs>
<linearGradient id="paint0_linear_3363_4711" x1="23.4744" y1="46.1699" x2="23.4744" y2="53.0099" gradientUnits="userSpaceOnUse">
<stop stop-color="#FFC00B"/>
<stop offset="1" stop-color="#FFC92F"/>
</linearGradient>
<linearGradient id="paint1_linear_3363_4711" x1="143.86" y1="18.8101" x2="143.86" y2="32.4901" gradientUnits="userSpaceOnUse">
<stop stop-color="#FFC00B"/>
<stop offset="0.765" stop-color="#FFC00B"/>
</linearGradient>
<linearGradient id="paint2_linear_3363_4711" x1="153.526" y1="37.6196" x2="153.526" y2="44.4596" gradientUnits="userSpaceOnUse">
<stop stop-color="#FFC00B"/>
<stop offset="1" stop-color="#FFC92F"/>
</linearGradient>
<linearGradient id="paint3_linear_3363_4711" x1="83.2276" y1="100.89" x2="83.2276" y2="133.38" gradientUnits="userSpaceOnUse">
<stop stop-color="#FFC00B"/>
<stop offset="1" stop-color="#FFC00B"/>
</linearGradient>
<linearGradient id="paint4_linear_3363_4711" x1="44.5641" y1="145.35" x2="44.5641" y2="152.19" gradientUnits="userSpaceOnUse">
<stop stop-color="#FFC00B"/>
<stop offset="1" stop-color="#FFC92F"/>
</linearGradient>
<linearGradient id="paint5_linear_3363_4711" x1="33.1403" y1="87.21" x2="33.1403" y2="95.76" gradientUnits="userSpaceOnUse">
<stop stop-color="#FFC00B"/>
<stop offset="0.765" stop-color="#EAD497"/>
</linearGradient>
<linearGradient id="paint6_linear_3363_4711" x1="37.5341" y1="112.86" x2="37.5341" y2="116.28" gradientUnits="userSpaceOnUse">
<stop stop-color="#FFC00B"/>
<stop offset="0.765" stop-color="#EAD497"/>
</linearGradient>
<linearGradient id="paint7_linear_3363_4711" x1="141.223" y1="56.4302" x2="141.223" y2="59.8502" gradientUnits="userSpaceOnUse">
<stop stop-color="#FFC00B"/>
<stop offset="0.765" stop-color="#EAD497"/>
</linearGradient>
<linearGradient id="paint8_linear_3363_4711" x1="88.5002" y1="44.5322" x2="88.5002" y2="126.468" gradientUnits="userSpaceOnUse">
<stop stop-color="#FFD763"/>
<stop offset="1" stop-color="#FFD55B"/>
</linearGradient>
<linearGradient id="paint9_linear_3363_4711" x1="88.5" y1="42.75" x2="88.5" y2="128.25" gradientUnits="userSpaceOnUse">
<stop stop-color="#FFC00B"/>
<stop offset="0.765" stop-color="#EAD497"/>
</linearGradient>
<linearGradient id="paint10_linear_3363_4711" x1="88.4985" y1="51.2998" x2="88.4985" y2="119.7" gradientUnits="userSpaceOnUse">
<stop stop-color="#FFC00B"/>
<stop offset="0.765" stop-color="#FFC00B"/>
</linearGradient>
<linearGradient id="paint11_linear_3363_4711" x1="119.395" y1="68.706" x2="119.395" y2="73.7124" gradientUnits="userSpaceOnUse">
<stop stop-color="#FFC00B"/>
<stop offset="0.765" stop-color="#FFC00B"/>
</linearGradient>
<linearGradient id="paint12_linear_3363_4711" x1="88.5004" y1="74.1708" x2="88.5004" y2="100.89" gradientUnits="userSpaceOnUse">
<stop stop-color="#FFC00B"/>
<stop offset="1" stop-color="#FFCE40"/>
</linearGradient>
</defs>
</svg>
