<svg width="177" height="171" viewBox="0 0 177 171" fill="none" xmlns="http://www.w3.org/2000/svg">
<path d="M88.5002 22.2305C71.2543 22.2305 54.7149 28.8964 42.5202 40.7619C30.3255 52.6273 23.4746 68.7202 23.4746 85.5005C23.4746 102.281 30.3255 118.374 42.5202 130.239C54.7149 142.105 71.2543 148.77 88.5002 148.77C105.746 148.77 122.286 142.105 134.48 130.239C146.675 118.374 153.526 102.281 153.526 85.5005C153.526 68.7202 146.675 52.6273 134.48 40.7619C122.286 28.8964 105.746 22.2305 88.5002 22.2305Z" fill="#72CE15" fill-opacity="0.05"/>
<path d="M23.4749 46.1699C22.5427 46.1699 21.6486 46.5302 20.9895 47.1716C20.3303 47.813 19.96 48.6829 19.96 49.5899C19.96 50.497 20.3303 51.3669 20.9895 52.0082C21.6486 52.6496 22.5427 53.0099 23.4749 53.0099C24.4071 53.0099 25.3011 52.6496 25.9603 52.0082C26.6194 51.3669 26.9898 50.497 26.9898 49.5899C26.9898 48.6829 26.6194 47.813 25.9603 47.1716C25.3011 46.5302 24.4071 46.1699 23.4749 46.1699Z" fill="url(#paint0_linear_4314_10591)"/>
<path d="M135.951 20.5201C135.485 20.5201 135.038 20.7002 134.708 21.021C134.378 21.3416 134.194 21.7765 134.194 22.2301C134.194 22.6836 134.378 23.1185 134.708 23.4393C135.038 23.7599 135.485 23.9401 135.951 23.9401C136.417 23.9401 136.864 23.7599 137.194 23.4393C137.523 23.1185 137.708 22.6836 137.708 22.2301C137.708 21.7765 137.523 21.3416 137.194 21.021C136.864 20.7002 136.417 20.5201 135.951 20.5201ZM146.496 18.8101C144.632 18.8101 142.843 19.5307 141.525 20.8134C140.207 22.0962 139.466 23.836 139.466 25.6501C139.466 27.4641 140.207 29.2039 141.525 30.4867C142.843 31.7694 144.632 32.4901 146.496 32.4901C148.36 32.4901 150.147 31.7694 151.467 30.4867C152.785 29.2039 153.526 27.4641 153.526 25.6501C153.526 23.836 152.785 22.0962 151.467 20.8134C150.147 19.5307 148.36 18.8101 146.496 18.8101Z" fill="url(#paint1_linear_4314_10591)"/>
<path d="M153.526 37.6196C152.593 37.6196 151.699 37.9799 151.04 38.6213C150.381 39.2627 150.011 40.1326 150.011 41.0396C150.011 41.9467 150.381 42.8166 151.04 43.4579C151.699 44.0993 152.593 44.4596 153.526 44.4596C154.458 44.4596 155.352 44.0993 156.011 43.4579C156.67 42.8166 157.04 41.9467 157.04 41.0396C157.04 40.1326 156.67 39.2627 156.011 38.6213C155.352 37.9799 154.458 37.6196 153.526 37.6196Z" fill="url(#paint2_linear_4314_10591)"/>
<path d="M142.981 126.54C142.048 126.54 141.154 126.9 140.495 127.542C139.836 128.183 139.466 129.052 139.466 129.96C139.466 130.868 139.836 131.737 140.495 132.378C141.154 133.02 142.048 133.38 142.981 133.38C143.914 133.38 144.807 133.02 145.466 132.378C146.125 131.737 146.496 130.868 146.496 129.96C146.496 129.052 146.125 128.183 145.466 127.542C144.807 126.9 143.914 126.54 142.981 126.54ZM26.9898 100.89C25.1254 100.89 23.3373 101.611 22.0189 102.894C20.7006 104.176 19.96 105.916 19.96 107.73C19.96 109.544 20.7006 111.284 22.0189 112.567C23.3373 113.849 25.1254 114.57 26.9898 114.57C28.8542 114.57 30.6422 113.849 31.9606 112.567C33.2789 111.284 34.0195 109.544 34.0195 107.73C34.0195 105.916 33.2789 104.176 31.9606 102.894C30.6422 101.611 28.8542 100.89 26.9898 100.89Z" fill="url(#paint3_linear_4314_10591)"/>
<path d="M44.5637 145.35C43.6315 145.35 42.7375 145.71 42.0783 146.352C41.4191 146.993 41.0488 147.863 41.0488 148.77C41.0488 149.678 41.4191 150.547 42.0783 151.189C42.7375 151.83 43.6315 152.19 44.5637 152.19C45.4959 152.19 46.3899 151.83 47.0491 151.189C47.7083 150.547 48.0786 149.678 48.0786 148.77C48.0786 147.863 47.7083 146.993 47.0491 146.352C46.3899 145.71 45.4959 145.35 44.5637 145.35Z" fill="url(#paint4_linear_4314_10591)"/>
<path d="M33.1407 87.21C31.9754 87.21 30.8579 87.6603 30.0339 88.462C29.2101 89.2638 28.7471 90.3511 28.7471 91.485C28.7471 92.6188 29.2101 93.7061 30.0339 94.5079C30.8579 95.3096 31.9754 95.76 33.1407 95.76C34.306 95.76 35.4235 95.3096 36.2475 94.5079C37.0715 93.7061 37.5343 92.6188 37.5343 91.485C37.5343 90.3511 37.0715 89.2638 36.2475 88.462C35.4235 87.6603 34.306 87.21 33.1407 87.21Z" fill="url(#paint5_linear_4314_10591)"/>
<path d="M37.5339 112.86C37.0678 112.86 36.6207 113.04 36.2911 113.361C35.9616 113.681 35.7764 114.116 35.7764 114.57C35.7764 115.023 35.9616 115.458 36.2911 115.779C36.6207 116.1 37.0678 116.28 37.5339 116.28C38 116.28 38.447 116.1 38.7766 115.779C39.1061 115.458 39.2913 115.023 39.2913 114.57C39.2913 114.116 39.1061 113.681 38.7766 113.361C38.447 113.04 38 112.86 37.5339 112.86Z" fill="url(#paint6_linear_4314_10591)"/>
<path d="M141.223 56.4302C140.758 56.4302 140.311 56.6103 139.981 56.931C139.652 57.2517 139.466 57.6867 139.466 58.1402C139.466 58.5937 139.652 59.0286 139.981 59.3493C140.311 59.67 140.758 59.8502 141.223 59.8502C141.689 59.8502 142.136 59.67 142.466 59.3493C142.796 59.0286 142.981 58.5937 142.981 58.1402C142.981 57.6867 142.796 57.2517 142.466 56.931C142.136 56.6103 141.689 56.4302 141.223 56.4302Z" fill="url(#paint7_linear_4314_10591)"/>
<path d="M88.5004 44.5322C77.3335 44.5322 66.624 48.8485 58.7278 56.5315C50.8316 64.2146 46.3955 74.6349 46.3955 85.5004C46.3955 96.3659 50.8316 106.786 58.7278 114.469C66.624 122.153 77.3335 126.468 88.5004 126.468C99.6674 126.468 110.377 122.153 118.273 114.469C126.17 106.786 130.605 96.3659 130.605 85.5004C130.605 74.6349 126.17 64.2146 118.273 56.5315C110.377 48.8485 99.6674 44.5322 88.5004 44.5322Z" fill="url(#paint8_linear_4314_10591)"/>
<path d="M88.4997 45.144C111.37 45.144 129.976 63.2478 129.976 85.5C129.976 107.752 111.37 125.856 88.4997 125.856C65.6301 125.856 47.024 107.752 47.024 85.5C47.024 63.2478 65.6301 45.144 88.4997 45.144ZM88.4997 42.75C64.2346 42.75 44.5635 61.89 44.5635 85.5C44.5635 109.11 64.2346 128.25 88.4997 128.25C112.765 128.25 132.436 109.11 132.436 85.5C132.436 61.89 112.765 42.75 88.4997 42.75Z" fill="url(#paint9_linear_4314_10591)"/>
<path d="M123.23 80.2914C123.155 79.8245 122.707 79.5048 122.227 79.5766C121.747 79.6484 121.417 80.0844 121.494 80.553C123.13 90.7719 119.642 101.213 112.164 108.484C99.1288 121.159 77.9199 121.159 64.885 108.484C51.85 95.8113 51.85 75.1887 64.885 62.5142C77.9199 49.8414 99.1288 49.8414 112.164 62.5142C113.531 63.8446 114.788 65.322 116.006 67.0303C116.283 67.4185 116.83 67.5159 117.231 67.2458C117.626 66.9807 117.728 66.4455 117.452 66.0556C116.173 64.2618 114.849 62.7074 113.406 61.3052C99.6859 47.9655 77.3611 47.9638 63.6389 61.3052C49.9185 74.6466 49.9185 96.3534 63.6389 109.695C77.3593 123.034 99.6842 123.037 113.406 109.695C121.281 102.039 124.954 91.0473 123.23 80.2914Z" fill="url(#paint10_linear_4314_10591)"/>
<path d="M119.377 73.1812C119.561 73.619 120.076 73.8276 120.524 73.648C120.971 73.4702 121.188 72.9709 121.002 72.5331C120.449 71.2233 119.932 70.1477 119.375 69.1525C119.143 68.7369 118.609 68.5847 118.181 68.8104C118.106 68.8498 118.037 68.9011 117.979 68.9575C117.71 69.2191 117.638 69.6295 117.828 69.9715C118.357 70.9103 118.849 71.9312 119.377 73.1812Z" fill="url(#paint11_linear_4314_10591)"/>
<path d="M72.683 82.7216C71.9203 82.7216 71.2032 83.0106 70.6637 83.5355C70.1242 84.0605 69.8271 84.7582 69.8271 85.5003C69.8271 86.2425 70.1242 86.9402 70.6637 87.4651L82.9658 99.4351C83.5054 99.9601 84.2224 100.249 84.9851 100.249V100.89L85.0396 100.249C85.8217 100.234 86.5668 99.9054 87.0905 99.3496L106.422 78.8296C106.937 78.2824 107.203 77.5728 107.171 76.8306C107.138 76.0885 106.809 75.4062 106.248 74.9035C105.684 74.4024 104.969 74.134 104.194 74.175C103.433 74.2075 102.73 74.5256 102.215 75.0728L84.8973 93.4535L74.7041 83.5355C74.1628 83.0106 73.4457 82.7216 72.683 82.7216Z" fill="url(#paint12_linear_4314_10591)"/>
<path d="M104.317 74.8128C104.867 74.8128 105.395 75.0128 105.802 75.3754C106.235 75.7618 106.486 76.2868 106.512 76.8579C106.537 77.4291 106.333 77.9746 105.936 78.3952L86.6042 98.9152C86.2017 99.3427 85.6288 99.5958 84.9855 99.6078C84.3986 99.6078 83.8467 99.3855 83.432 98.9819L71.1298 87.0119C70.7151 86.6084 70.4866 86.0714 70.4866 85.5003C70.4866 84.9291 70.7151 84.3922 71.1316 83.9886C71.5446 83.5851 72.0964 83.3628 72.6834 83.3628C73.2704 83.3628 73.8222 83.5851 74.237 83.9886L83.9434 93.433L84.917 94.3803L85.8467 93.3936L102.699 75.5053C103.119 75.059 103.693 74.8128 104.317 74.8128ZM104.317 73.5303C103.366 73.5303 102.419 73.9031 101.727 74.6401L84.8748 92.5267L75.1684 83.0823C74.483 82.4137 73.5832 82.0803 72.6834 82.0803C71.7836 82.0803 70.8838 82.4137 70.1984 83.0823C68.8258 84.4178 68.8258 86.5827 70.1984 87.9182L82.5005 99.8882C83.1596 100.531 84.0541 100.89 84.9855 100.89C85.0119 100.89 85.0365 100.89 85.0611 100.89C86.0189 100.87 86.9275 100.47 87.576 99.7822L106.908 79.2622C108.221 77.8703 108.122 75.7054 106.692 74.4297C106.017 73.8278 105.166 73.5303 104.317 73.5303Z" fill="#B7E89C"/>
<defs>
<linearGradient id="paint0_linear_4314_10591" x1="23.4749" y1="46.1699" x2="23.4749" y2="53.0099" gradientUnits="userSpaceOnUse">
<stop stop-color="#72CE15"/>
<stop offset="1" stop-color="#72CE15"/>
</linearGradient>
<linearGradient id="paint1_linear_4314_10591" x1="143.86" y1="18.8101" x2="143.86" y2="32.4901" gradientUnits="userSpaceOnUse">
<stop stop-color="#72CE15"/>
<stop offset="0.765" stop-color="#72CE15"/>
</linearGradient>
<linearGradient id="paint2_linear_4314_10591" x1="153.526" y1="37.6196" x2="153.526" y2="44.4596" gradientUnits="userSpaceOnUse">
<stop stop-color="#72CE15"/>
<stop offset="1" stop-color="#72CE15"/>
</linearGradient>
<linearGradient id="paint3_linear_4314_10591" x1="83.2281" y1="100.89" x2="83.2281" y2="133.38" gradientUnits="userSpaceOnUse">
<stop stop-color="#72CE15"/>
<stop offset="1" stop-color="#72CE15"/>
</linearGradient>
<linearGradient id="paint4_linear_4314_10591" x1="44.5637" y1="145.35" x2="44.5637" y2="152.19" gradientUnits="userSpaceOnUse">
<stop stop-color="#72CE15"/>
<stop offset="1" stop-color="#72CE15"/>
</linearGradient>
<linearGradient id="paint5_linear_4314_10591" x1="33.1407" y1="87.21" x2="33.1407" y2="95.76" gradientUnits="userSpaceOnUse">
<stop stop-color="#72CE15"/>
<stop offset="0.765" stop-color="#72CE15"/>
</linearGradient>
<linearGradient id="paint6_linear_4314_10591" x1="37.5339" y1="112.86" x2="37.5339" y2="116.28" gradientUnits="userSpaceOnUse">
<stop offset="0.765" stop-color="#72CE15"/>
</linearGradient>
<linearGradient id="paint7_linear_4314_10591" x1="141.223" y1="56.4302" x2="141.223" y2="59.8502" gradientUnits="userSpaceOnUse">
<stop stop-color="#72CE15"/>
<stop offset="0.765" stop-color="#72CE15"/>
</linearGradient>
<linearGradient id="paint8_linear_4314_10591" x1="88.5004" y1="44.5322" x2="88.5004" y2="126.468" gradientUnits="userSpaceOnUse">
<stop stop-color="#72CE15"/>
<stop offset="1" stop-color="#5F8C31"/>
</linearGradient>
<linearGradient id="paint9_linear_4314_10591" x1="88.4997" y1="42.75" x2="88.4997" y2="128.25" gradientUnits="userSpaceOnUse">
<stop stop-color="#72CE15"/>
<stop offset="0.765" stop-color="#72CE15"/>
</linearGradient>
<linearGradient id="paint10_linear_4314_10591" x1="88.4985" y1="51.2998" x2="88.4985" y2="119.7" gradientUnits="userSpaceOnUse">
<stop stop-color="#72CE15"/>
<stop offset="0.765" stop-color="#72CE15"/>
</linearGradient>
<linearGradient id="paint11_linear_4314_10591" x1="119.395" y1="68.706" x2="119.395" y2="73.7124" gradientUnits="userSpaceOnUse">
<stop stop-color="#72CE15"/>
<stop offset="0.765" stop-color="#72CE15"/>
</linearGradient>
<linearGradient id="paint12_linear_4314_10591" x1="88.5004" y1="74.1708" x2="88.5004" y2="100.89" gradientUnits="userSpaceOnUse">
<stop stop-color="#72CE15"/>
<stop offset="1" stop-color="#72CE15"/>
</linearGradient>
</defs>
</svg>
