<svg width="10" height="16" viewBox="0 0 10 16" fill="none" xmlns="http://www.w3.org/2000/svg">
<g id="Frame 2686">
<path id="Vector" d="M2.63645 8.01717C2.92991 8.22432 3.11224 8.31711 3.25034 8.45521C5.09743 10.2937 6.93805 12.1386 8.78298 13.9803C9.14009 14.3374 9.32027 14.7442 9.15628 15.2469C9.0171 15.6753 8.71501 16 8.27157 16C7.92632 16 7.48289 15.9051 7.25201 15.6796C4.93883 13.4171 2.65587 11.1255 0.378294 8.82743C-0.15037 8.29337 -0.119081 7.6676 0.435476 7.11089C2.66666 4.86784 4.90323 2.63127 7.14628 0.40009C7.67386 -0.124259 8.34602 -0.126417 8.82074 0.353697C9.2933 0.831652 9.28143 1.49626 8.75385 2.02924C6.94344 3.85367 5.12225 5.66731 3.30213 7.48203C3.15001 7.63308 2.96767 7.75392 2.63752 8.01825L2.63645 8.01717Z" fill="#292929"/>
</g>
</svg>
