<svg width="56" height="57" viewBox="0 0 56 57" fill="none" xmlns="http://www.w3.org/2000/svg">
<g id="Chicken">
<path id="Vector" d="M14.4099 55.6244C9.97662 55.6244 5.54328 54.0494 2.80162 50.4911C0.40995 47.3994 -0.29005 43.2577 0.701616 38.7661C1.63495 34.6827 3.96828 30.8327 7.00162 28.5577C11.9599 24.7661 35.0599 13.2161 41.1849 21.2077C43.8099 24.7077 42.5266 30.5994 37.4516 38.2411C33.4849 44.1911 28.1183 49.9077 25.0849 52.1827C22.2266 54.3994 18.3183 55.6244 14.4099 55.6244ZM34.0099 20.6827C26.0766 20.6827 12.8933 26.9827 8.40162 30.3661C5.83495 32.3494 3.79328 35.6744 2.97662 39.2327C2.10162 43.0244 2.74328 46.5244 4.66828 49.0911C8.92662 54.6327 18.4933 54.3411 23.6849 50.4327C26.6016 48.2161 31.8516 42.5577 35.5266 37.0161C39.9599 30.3077 41.3016 25.2327 39.3183 22.6077C38.2683 21.2661 36.3433 20.6827 34.0099 20.6827Z" fill="#2E2E2E"/>
<path id="Vector_2" d="M14.4662 49.8503C11.3746 49.8503 8.80788 48.8003 7.40788 46.9919C6.12455 45.3003 5.71622 42.7336 6.35788 40.0503C6.94122 37.2503 8.51622 34.6253 10.4996 33.1669C14.6412 30.0169 27.0662 24.1836 34.0079 24.1836C35.8162 24.1836 36.5162 24.5919 36.6329 24.7086C36.9829 25.1169 37.2746 28.1503 32.6662 35.0919C28.8162 40.8086 23.7412 46.0003 21.5246 47.6919C19.7746 49.0336 17.0912 49.8503 14.4662 49.8503Z" fill="#F8B602"/>
<path id="Vector_3" d="M53.726 16.8333C53.2594 16.1916 52.676 15.725 52.0344 15.375C50.8094 14.7333 49.876 13.5666 49.6427 12.225C49.4677 11.525 49.176 10.825 48.7094 10.2416C47.251 8.43329 44.276 8.02495 42.351 9.36662C40.1927 10.8833 39.726 13.9166 41.301 16.0166C41.7094 16.5416 41.651 17.3 41.126 17.65L37.8594 20.1583C38.7927 20.5666 39.6094 21.0916 40.1927 21.9083C40.776 22.6666 41.126 23.6 41.2427 24.5916L44.5094 22.0833C45.0344 21.675 45.7344 21.7916 46.1427 22.3166C47.776 24.4166 50.8094 24.7666 52.851 23.075C54.7177 21.675 55.0677 18.7 53.726 16.8333Z" fill="#A6C44A"/>
<path id="Vector_4" d="M40.3654 26.749L40.132 24.7657C40.0154 23.8907 39.782 23.1907 39.3154 22.6074C38.8487 22.024 38.2654 21.5574 37.4487 21.2657L35.582 20.5074L40.482 16.774L40.4237 16.7157C39.432 15.4324 39.0237 13.8574 39.3154 12.2824C39.5487 10.7074 40.4237 9.30738 41.707 8.37404C44.0987 6.68238 47.7154 7.14904 49.582 9.48238C50.1654 10.2407 50.5737 11.0574 50.7487 11.9324C50.982 12.9824 51.6237 13.8574 52.557 14.324C53.3737 14.7324 54.0737 15.374 54.657 16.1324C56.407 18.524 55.882 22.1407 53.607 24.0074C52.382 25.0574 50.807 25.4657 49.232 25.2907C47.657 25.1157 46.257 24.299 45.2654 23.0157L45.207 22.9574L40.3654 26.749ZM45.207 20.7407C45.3237 20.7407 45.4404 20.7407 45.4987 20.7407C46.1404 20.799 46.6654 21.149 47.0737 21.674C47.657 22.4324 48.532 22.9574 49.4654 23.074C50.457 23.1907 51.3904 22.899 52.1487 22.2574C53.4904 21.149 53.782 18.874 52.7904 17.474C52.4404 17.0074 52.032 16.6574 51.5654 16.3657C49.9904 15.549 48.882 14.149 48.532 12.399C48.4154 11.874 48.182 11.349 47.832 10.8824C46.7237 9.54071 44.4487 9.24905 43.0487 10.2407C42.232 10.824 41.707 11.6407 41.5904 12.574C41.4154 13.5074 41.707 14.499 42.2904 15.2574C42.6987 15.7824 42.8737 16.3657 42.757 17.0074C42.6987 17.5907 42.3487 18.174 41.882 18.524L40.0154 19.9824C40.482 20.3324 40.832 20.6824 41.182 21.149C41.532 21.6157 41.7654 22.0824 41.9987 22.6074L43.8654 21.149C44.2737 20.9157 44.7404 20.7407 45.207 20.7407Z" fill="#2E2E2E"/>
<path id="Vector_5" d="M7.90317 37.1412L6.22656 36.916L5.91595 39.2286L7.59256 39.4538L7.90317 37.1412Z" fill="#2E2E2E"/>
<path id="Vector_6" d="M20.3836 37.4908L18.707 37.2656L18.3964 39.5782L20.073 39.8034L20.3836 37.4908Z" fill="#2E2E2E"/>
<path id="Vector_7" d="M31.7665 34.8619L30.0898 34.6367L29.7792 36.9493L31.4558 37.1745L31.7665 34.8619Z" fill="#2E2E2E"/>
<path id="Vector_8" d="M14.9032 48.0455L13.2266 47.8203L12.9159 50.1329L14.5926 50.3581L14.9032 48.0455Z" fill="#2E2E2E"/>
<path id="Vector_9" d="M18.9266 30.8385L17.25 30.6133L16.9394 32.9258L18.616 33.151L18.9266 30.8385Z" fill="#2E2E2E"/>
<path id="Vector_10" d="M30.7157 25.2955L29.0391 25.0703L28.7284 27.3829L30.4051 27.6081L30.7157 25.2955Z" fill="#2E2E2E"/>
<path id="Vector_11" d="M15.6341 1.375H13.3008V8.60833H15.6341V1.375Z" fill="#2E2E2E"/>
<path id="Vector_12" d="M8.7513 11.4668H6.41797V18.7001H8.7513V11.4668Z" fill="#2E2E2E"/>
<g id="Group">
<path id="Vector_13" d="M22.5755 9.19141H20.2422V16.4247H22.5755V9.19141Z" fill="#2E2E2E"/>
</g>
</g>
</svg>
