<svg width="35" height="34" viewBox="0 0 35 34" fill="none" xmlns="http://www.w3.org/2000/svg">
<path d="M17.3005 14.6669C17.542 14.4254 17.7236 14.2437 17.9043 14.063C19.7169 12.2505 21.523 10.4315 23.3457 8.62906C24.1902 7.79377 25.3389 7.83433 25.9493 8.68253C26.4563 9.3869 26.3439 10.2259 25.6091 10.9644C23.8186 12.7677 22.0172 14.5618 20.2203 16.3587C20.0377 16.5412 19.8552 16.7238 19.6063 16.9727C19.8063 17.1728 19.9686 17.335 20.1299 17.4964C21.9886 19.355 23.8537 21.2072 25.7003 23.0779C26.3623 23.7491 26.4342 24.5936 25.9474 25.2647C25.5215 25.8548 24.7 26.1083 24.0307 25.7949C23.7255 25.652 23.4508 25.4159 23.2074 25.1762C21.417 23.4024 19.6394 21.6175 17.8573 19.8354C17.6923 19.6703 17.5273 19.5053 17.2995 19.2776C17.0773 19.4998 16.8976 19.6796 16.7187 19.8584C14.9679 21.6092 13.2162 23.3609 11.4636 25.1099C11.2801 25.2933 11.0911 25.4786 10.8809 25.628C10.2318 26.0927 9.356 26.0023 8.80282 25.4325C8.26809 24.8812 8.18788 24.0303 8.63503 23.4024C8.79729 23.1738 8.99828 22.9709 9.1965 22.7709C10.9445 21.0173 12.6971 19.2665 14.4479 17.5157C14.613 17.3507 14.778 17.1857 14.9937 16.9699C14.7752 16.7514 14.6111 16.5873 14.447 16.4232C12.604 14.5803 10.7546 12.7419 8.92268 10.8878C8.25058 10.2084 8.16391 9.38598 8.63319 8.70281C9.04438 8.10354 9.8603 7.83157 10.5379 8.13673C10.8634 8.28332 11.1566 8.53409 11.4147 8.78855C13.1904 10.5458 14.9522 12.3169 16.7196 14.0824C16.8865 14.2493 17.0534 14.4161 17.2995 14.6623L17.3005 14.6669Z" fill="#C0C0C0"/>
</svg>
