<svg width="30" height="31" viewBox="0 0 30 31" fill="none" xmlns="http://www.w3.org/2000/svg">
<path d="M3 22.5341C3.34482 22.5963 3.53976 22.6122 3.72254 22.6682C5.05665 23.0702 6.37385 23.538 7.72387 23.8732C9.25543 24.2534 10.6859 23.4712 11.2366 22.0747C11.9068 20.3751 11.5009 18.9203 10.045 18.0613C8.89479 17.3839 7.70921 16.7637 6.52256 16.1508C5.58555 15.6671 5.51363 15.41 6.18132 14.6143C10.1705 9.86122 14.1596 5.10811 18.1426 0.351354C18.4972 -0.0714415 18.7799 -0.126271 19.2453 0.26119C22.4706 2.94661 25.7214 5.60279 28.966 8.26629C29.6642 8.83895 29.6983 9.14112 29.0781 9.87827C24.9512 14.7812 20.8208 19.6805 16.6915 24.581C15.2672 26.2723 13.8342 27.9548 12.4331 29.6644C12.1162 30.0506 11.8665 30.1152 11.4889 29.7971C8.74364 27.4846 5.99367 25.1769 3.24735 22.8667C3.19252 22.8204 3.15841 22.7485 3.00122 22.5354L3 22.5341ZM15.7741 19.6062C18.2987 19.6355 20.1312 17.848 20.1579 15.3283C20.1872 12.705 17.7686 10.245 15.1209 10.2048C12.6293 10.167 10.6372 12.1312 10.614 14.6472C10.5896 17.3692 12.8827 19.5733 15.7741 19.6062Z" fill="#308921"/>
<path d="M12.7213 14.5535C12.6298 14.0783 12.4739 13.6031 12.4776 13.1279C12.4788 12.9318 12.7908 12.6515 13.0198 12.5638C13.3658 12.431 13.78 12.481 14.1371 12.3664C14.5489 12.2336 14.8804 12.2458 15.0228 12.6832C15.074 12.8428 14.9705 13.1072 14.8523 13.2534C14.6646 13.4837 14.3588 13.6214 14.1931 13.8614C14.098 13.9991 14.1396 14.2794 14.2138 14.4572C14.2394 14.5182 14.5648 14.5035 14.7256 14.4475C15.2361 14.2708 15.7198 13.9565 16.24 13.8797C17.3343 13.7177 18.1554 14.7143 17.9447 15.8098C17.8983 16.0522 17.9276 16.3581 18.0409 16.5712C18.2261 16.9196 18.164 17.189 17.9411 17.4595C17.7143 17.7336 17.5122 17.5643 17.255 17.4656C17.0808 17.3998 16.7506 17.5082 16.6019 17.6533C16.1157 18.126 15.6807 18.0979 15.3323 17.5168C15.152 17.2158 15.185 17.0038 15.509 16.821C15.771 16.6735 16.0499 16.5115 16.2327 16.2849C16.3826 16.0997 16.4022 15.8098 16.48 15.5672C16.2072 15.5502 15.9148 15.4636 15.6638 15.5307C15.2787 15.6342 14.9352 15.8889 14.5513 16.0009C13.4986 16.3104 12.5652 15.6172 12.7213 14.5559V14.5535Z" fill="#308921"/>
<path d="M27.1215 7.39715C26.7728 7.34486 26.5762 7.33453 26.3907 7.28373C25.0369 6.91992 23.6983 6.48986 22.3305 6.19333C20.7787 5.85696 19.3614 6.6793 18.8467 8.09046C18.2204 9.80805 18.6698 11.2503 20.1591 12.0673C21.3355 12.7116 22.546 13.2977 23.7573 13.8764C24.7138 14.3331 24.7934 14.588 24.1441 15.4022C20.2644 20.2655 16.3847 25.1289 12.5113 29.9957C12.1665 30.4283 11.8835 30.4911 11.4043 30.1172C8.08318 27.5252 4.73722 24.9633 1.39721 22.3938C0.678487 21.8414 0.635694 21.5404 1.23892 20.7861C5.25295 15.769 9.27061 10.7556 13.2872 5.74095C14.6726 4.01031 16.0669 2.28813 17.4285 0.539839C17.7364 0.144954 17.9859 0.0733116 18.3748 0.380402C21.2024 2.61334 24.0346 4.84125 26.8632 7.07187C26.9197 7.11654 26.956 7.18744 27.1202 7.39597L27.1215 7.39715ZM14.3508 10.6864C11.8097 10.7289 10.0163 12.5673 10.0606 15.0861C10.1052 17.7084 12.6083 20.098 15.2735 20.0629C17.7817 20.0298 19.7306 18.0104 19.6829 15.4953C19.6306 12.7745 17.261 10.637 14.3508 10.6864Z" fill="#308921"/>
</svg>
