<svg xmlns="http://www.w3.org/2000/svg" shape-rendering="geometricPrecision" text-rendering="geometricPrecision" image-rendering="optimizeQuality" fill-rule="evenodd" clip-rule="evenodd" viewBox="0 0 512 265.789"><path fill="#427D2A" d="M0 0h512v265.789H0z"/><path fill="#87CC71" d="M427.35 41.012c-.271 19.771 17.153 37.655 37.661 37.901v105.16c-21.602-.271-39.483 17.153-39.729 40.707H84.649c.271-21.603-17.157-39.487-37.661-39.733V79.886c21.685.246 39.579-17.167 39.825-38.874H427.35z"/><path fill="#427D2A" d="M184.561 94.868c21.003-39.457 70.011-54.416 109.468-33.413 39.458 21.003 54.417 70.01 33.413 109.468-21.002 39.458-70.01 54.417-109.468 33.414-39.457-21.004-54.416-70.011-33.413-109.469z"/><path fill="#fff" d="M265.599 152.988c0-3.057-.75-5.443-2.249-7.18-1.52-1.736-4.144-3.374-7.931-4.913-3.767-1.538-7.258-3.097-10.455-4.675-3.196-1.579-5.957-3.413-8.265-5.503-2.308-2.073-4.083-4.478-5.327-7.223-1.221-2.72-1.832-6.035-1.832-9.941 0-6.509 2.19-11.877 6.589-16.076 4.378-4.221 10.238-6.687 17.556-7.378l-.001-8.752h9.192v8.989c7.044 1.027 12.584 3.926 16.61 8.699 4.023 4.757 6.056 10.792 6.056 18.109h-19.547c0-4.003-.769-7.079-2.31-9.251-1.538-2.149-3.728-3.234-6.589-3.234-2.544 0-4.518.806-5.916 2.405-1.402 1.598-2.112 3.788-2.112 6.607 0 2.862.808 5.111 2.426 6.789 1.617 1.675 4.222 3.273 7.791 4.81 3.59 1.52 6.964 3.1 10.159 4.735 3.177 1.639 5.919 3.494 8.225 5.564 2.31 2.091 4.125 4.519 5.429 7.299 1.32 2.76 1.97 6.094 1.97 9.982 0 6.588-2.091 11.975-6.273 16.136-4.182 4.161-9.863 6.589-17.082 7.28l.001 8.18h-9.173v-8.24c-8.406-.887-14.856-3.766-19.333-8.641-4.497-4.87-6.746-11.302-6.746-19.27h19.49c0 4.399.964 7.73 2.919 10.038 1.933 2.289 4.696 3.435 8.284 3.435 2.624 0 4.675-.792 6.195-2.348 1.499-1.558 2.249-3.71 2.249-6.431v-.001z"/></svg>