<svg width="29" height="26" viewBox="0 0 29 26" fill="none" xmlns="http://www.w3.org/2000/svg">
<path d="M20.1666 9.59573C24.6822 9.58343 28.377 13.2546 28.3904 17.768C28.4039 22.2746 24.7349 25.9693 20.216 26.0007C15.725 26.0321 11.9966 22.3183 12 17.8195C12.0034 13.2782 15.6477 9.60813 20.1666 9.59573Z" fill="#828282"/>
<path d="M9.5909 8.3399C7.0612 8.2043 4.6156 7.8454 2.355 6.6871C1.73378 6.3687 1.1406 5.9358 0.648342 5.4424C-0.220688 4.5701 -0.183688 3.6741 0.659552 2.77369C1.54091 1.83177 2.67233 1.29017 3.87327 0.915649C8.0031 -0.370511 12.115 -0.341351 16.1585 1.25541C16.9076 1.55144 17.6252 2.01119 18.2475 2.52812C19.4608 3.5351 19.444 4.6564 18.2778 5.7093C17.0477 6.8206 15.5384 7.3879 13.9562 7.7098C12.5176 8.0035 11.0464 8.1347 9.5887 8.3377L9.5909 8.3399Z" fill="#191919"/>
<path d="M11.9419 10.8528C11.4317 11.7666 10.9585 12.6278 10.4662 13.4767C10.4079 13.5776 10.2419 13.6706 10.1242 13.6729C7.2312 13.7189 4.4256 13.3488 1.85667 11.8889C1.7266 11.8148 1.60325 11.7319 1.47879 11.6489C0.393342 10.9279 -0.226748 9.98602 0.0771317 8.57422C3.74611 10.753 7.775 11.169 11.943 10.8528H11.9419Z" fill="#191919"/>
<path d="M0.0757025 19.498C3.14477 21.3393 6.4695 21.9145 9.9366 21.873C10.2641 21.8696 10.421 21.9728 10.5679 22.27C10.9313 23.0011 11.3495 23.7041 11.7947 24.5059C11.1824 24.544 10.5848 24.6068 9.9849 24.6147C7.3441 24.6494 4.7752 24.3007 2.3789 23.1098C1.98083 22.9114 1.60295 22.6635 1.23852 22.4068C0.248383 21.7082 -0.183327 20.7685 0.0757025 19.498Z" fill="#191919"/>
<path d="M9.6177 19.1594C7.9604 19.1549 6.321 19.0327 4.7556 18.5203C3.64775 18.1581 2.54213 17.7118 1.53966 17.1253C0.19183 16.3359 -0.0593502 15.6553 0.0471798 14.0137C2.99178 15.8055 6.2234 16.392 9.6166 16.42V19.1583L9.6177 19.1594Z" fill="#191919"/>
<path d="M21.064 18.9281H18.964C19.124 19.4481 19.388 19.8481 19.756 20.1281C20.124 20.4081 20.552 20.5481 21.04 20.5481C21.856 20.5481 22.492 20.1721 22.948 19.4201L24.532 20.2001C24.18 20.8161 23.692 21.2961 23.068 21.6401C22.452 21.9761 21.752 22.1441 20.968 22.1441C19.936 22.1441 19.064 21.8561 18.352 21.2801C17.648 20.7041 17.192 19.9201 16.984 18.9281H16.216V18.1721H16.888C16.88 18.0921 16.876 17.9681 16.876 17.8001C16.876 17.6401 16.88 17.5201 16.888 17.4401H16.216V16.6841H16.984C17.184 15.6921 17.636 14.9081 18.34 14.3321C19.052 13.7481 19.928 13.4561 20.968 13.4561C21.752 13.4561 22.452 13.6281 23.068 13.9721C23.692 14.3081 24.18 14.7841 24.532 15.4001L22.948 16.1801C22.492 15.4281 21.856 15.0521 21.04 15.0521C20.552 15.0521 20.12 15.1961 19.744 15.4841C19.376 15.7641 19.112 16.1641 18.952 16.6841H21.724L21.508 17.4401H18.82C18.812 17.5201 18.808 17.6401 18.808 17.8001C18.808 17.9681 18.812 18.0921 18.82 18.1721H21.292C21.236 18.3401 21.16 18.5921 21.064 18.9281Z" fill="white"/>
</svg>
