<svg width="40" height="40" viewBox="0 0 40 40" fill="none" xmlns="http://www.w3.org/2000/svg">
                                        <path
                                            d="M26.1666 16.5957C30.6822 16.5834 34.377 20.2546 34.3904 24.768C34.4039 29.2746 30.7349 32.9693 26.216 33.0007C21.725 33.0321 17.9966 29.3183 18 24.8195C18.0034 20.2782 21.6477 16.6081 26.1666 16.5957Z"
                                            fill="#FFC00B" />
                                        <path
                                            d="M15.5909 15.3399C13.0612 15.2043 10.6156 14.8454 8.355 13.6871C7.73378 13.3687 7.1406 12.9358 6.64834 12.4424C5.77931 11.5701 5.81631 10.6741 6.65955 9.77369C7.54091 8.83177 8.67233 8.29017 9.87327 7.91565C14.0031 6.62949 18.115 6.65865 22.1585 8.25541C22.9076 8.55144 23.6252 9.01119 24.2475 9.52812C25.4608 10.5351 25.444 11.6564 24.2778 12.7093C23.0477 13.8206 21.5384 14.3879 19.9562 14.7098C18.5176 15.0035 17.0464 15.1347 15.5887 15.3377L15.5909 15.3399Z"
                                            fill="#FFD258" />
                                        <path
                                            d="M17.9419 17.8528C17.4317 18.7666 16.9585 19.6278 16.4662 20.4767C16.4079 20.5776 16.2419 20.6706 16.1242 20.6729C13.2312 20.7189 10.4256 20.3488 7.85667 18.8889C7.7266 18.8148 7.60325 18.7319 7.47879 18.6489C6.39334 17.9279 5.77325 16.986 6.07713 15.5742C9.74611 17.753 13.775 18.169 17.943 17.8528H17.9419Z"
                                            fill="#FFD258" />
                                        <path
                                            d="M6.0757 26.498C9.14477 28.3393 12.4695 28.9145 15.9366 28.873C16.2641 28.8696 16.421 28.9728 16.5679 29.27C16.9313 30.0011 17.3495 30.7041 17.7947 31.5059C17.1824 31.544 16.5848 31.6068 15.9849 31.6147C13.3441 31.6494 10.7752 31.3007 8.3789 30.1098C7.98083 29.9114 7.60295 29.6635 7.23852 29.4068C6.24838 28.7082 5.81667 27.7685 6.0757 26.498Z"
                                            fill="#FFD258" />
                                        <path
                                            d="M15.6177 26.1594C13.9604 26.1549 12.321 26.0327 10.7556 25.5203C9.64775 25.1581 8.54213 24.7118 7.53966 24.1253C6.19183 23.3359 5.94065 22.6553 6.04718 21.0137C8.99178 22.8055 12.2234 23.392 15.6166 23.42V26.1583L15.6177 26.1594Z"
                                            fill="#FFD258" />
                                        <path
                                            d="M27.064 25.928H24.964C25.124 26.448 25.388 26.848 25.756 27.128C26.124 27.408 26.552 27.548 27.04 27.548C27.856 27.548 28.492 27.172 28.948 26.42L30.532 27.2C30.18 27.816 29.692 28.296 29.068 28.64C28.452 28.976 27.752 29.144 26.968 29.144C25.936 29.144 25.064 28.856 24.352 28.28C23.648 27.704 23.192 26.92 22.984 25.928H22.216V25.172H22.888C22.88 25.092 22.876 24.968 22.876 24.8C22.876 24.64 22.88 24.52 22.888 24.44H22.216V23.684H22.984C23.184 22.692 23.636 21.908 24.34 21.332C25.052 20.748 25.928 20.456 26.968 20.456C27.752 20.456 28.452 20.628 29.068 20.972C29.692 21.308 30.18 21.784 30.532 22.4L28.948 23.18C28.492 22.428 27.856 22.052 27.04 22.052C26.552 22.052 26.12 22.196 25.744 22.484C25.376 22.764 25.112 23.164 24.952 23.684H27.724L27.508 24.44H24.82C24.812 24.52 24.808 24.64 24.808 24.8C24.808 24.968 24.812 25.092 24.82 25.172H27.292C27.236 25.34 27.16 25.592 27.064 25.928Z"
                                            fill="white" />
                                    </svg>