<svg xmlns="http://www.w3.org/2000/svg" width="40" height="40"
                                         viewBox="0 0 40 40" fill="none">
                                        <path
                                            d="M15.7412 15.6936C15.7361 16.1708 15.4203 16.4886 15 16.4876L15.0335 18.0065C15.4437 18.0217 15.7239 18.3141 15.7422 18.772C15.7564 19.1091 15.7452 19.4472 15.7452 19.7853H15.7442C15.7432 20.1061 15.7574 20.4279 15.7401 20.7478C15.7168 21.1782 15.4812 21.4361 15.0467 21.4737L15.0396 22.9956C15.4721 23.0169 15.7432 23.3428 15.7462 23.8759C15.7523 24.9084 15.7483 25.94 15.7483 26.9725V27.4487C15.8995 27.4649 15.9666 27.4791 16.0336 27.4791C21.3974 27.4802 26.7621 27.4822 32.1259 27.4781C32.725 27.4781 32.992 27.205 32.996 26.607C33.0042 25.3714 33.0031 24.1368 32.996 22.9012C32.992 22.2717 32.7595 22.0392 32.1087 21.9752C30.872 21.8544 30.0009 20.9183 30.0121 19.7223C30.0233 18.5436 30.8863 17.6257 32.0955 17.5069C32.791 17.4389 32.996 17.2125 32.9981 16.4927C33.0011 15.3586 32.9991 14.2255 32.9981 13.0914C32.9971 12.2031 32.791 12 31.8843 12H16.3503H15.7462V12.597C15.7452 13.6295 15.7533 14.6611 15.7412 15.6936Z"
                                            fill="#FFC00B" />
                                        <path
                                            d="M14.2469 15.2327V12.0609C14.1383 12.0315 14.0906 12.0071 14.0439 12.0071C11.9625 12.0041 9.88117 11.997 7.79982 12.0071C7.27492 12.0091 7.00993 12.3015 7.00586 12.8498C6.99673 14.0854 6.99977 15.32 7.00485 16.5556C7.00688 17.2024 7.23227 17.441 7.86988 17.5049C9.12579 17.6308 9.98778 18.5365 9.99184 19.7345C9.9959 20.9315 9.12884 21.8544 7.88308 21.9773C7.23938 22.0402 7.00993 22.2768 7.00688 22.9134C7.00079 24.0982 7.00383 25.2821 7.00586 26.4669C7.0079 27.2527 7.23938 27.4812 8.04248 27.4822C9.93803 27.4842 11.8326 27.4822 13.7281 27.4822H14.25C14.25 26.2212 14.2408 25.0384 14.254 23.8566C14.2601 23.3053 14.583 22.9733 15.0378 22.9956L15.0449 21.4737C14.6246 21.5102 14.2896 21.2412 14.2672 20.7863C14.2337 20.0959 14.2347 19.4015 14.2652 18.7111C14.2855 18.2532 14.6114 17.9912 15.0317 18.0065L14.9982 16.4876C14.5921 16.4866 14.3007 16.2003 14.255 15.7403C14.2378 15.5718 14.2469 15.4022 14.2469 15.2327Z"
                                            fill="#FFD258" />
                                        <path class="menu-hover-path-icon"
                                              d="M28.5232 22.9384C28.5221 24.1283 27.6704 24.9917 26.4955 24.9938C25.312 24.9959 24.4645 24.1474 24.4571 22.9522C24.4496 21.7379 25.3258 20.8416 26.5072 20.8554C27.6662 20.8692 28.5243 21.756 28.5232 22.9384ZM26.4763 22.2345C26.0946 22.2409 25.766 22.5716 25.7713 22.9427C25.7777 23.3287 26.0903 23.6189 26.4955 23.6147C26.8995 23.6104 27.2015 23.3106 27.1962 22.9203C27.1909 22.5386 26.8634 22.2281 26.4753 22.2345H26.4763Z"
                                              fill="white" />
                                        <path class="menu-hover-path-icon"
                                              d="M21.048 15.4257C22.2134 15.4257 23.0885 16.3051 23.0917 17.4768C23.0949 18.6433 22.2209 19.5461 21.0693 19.5631C19.9028 19.5811 18.9905 18.6582 19.0001 17.4705C19.0096 16.287 19.8731 15.4246 21.047 15.4246L21.048 15.4257ZM21.0587 18.1903C21.4606 18.1829 21.7286 17.8947 21.7222 17.4737C21.7158 17.0547 21.4415 16.7878 21.0257 16.7963C20.627 16.8048 20.3335 17.11 20.343 17.5056C20.3526 17.8947 20.6684 18.1967 21.0587 18.1903Z"
                                              fill="white" />
                                        <rect x="19" y="23.9474" width="12.6535" height="1.48865"
                                              rx="0.744323" transform="rotate(-45 19 23.9474)"
                                              fill="white" />
                                    </svg>