<svg class="me-2" width="29" height="18" viewBox="0 0 29 18" fill="none" xmlns="http://www.w3.org/2000/svg">
                                      <path id="Vector" d="M10.5031 8.8954C10.5034 8.92678 10.5038 8.95883 10.5042 8.99142C10.5072 9.24529 10.5107 9.53224 10.4963 9.79753L10.4963 9.79773C10.4764 10.1643 10.3602 10.5423 10.078 10.8412C9.97054 10.955 9.85011 11.0456 9.72141 11.116L9.71858 11.7221C9.86943 11.8099 10.0061 11.9254 10.1224 12.0689C10.3939 12.4039 10.5018 12.8244 10.5042 13.2417L10.5031 8.8954ZM10.5031 8.8954V8.68356C10.5031 8.58422 10.5041 8.47825 10.5052 8.36819C10.5079 8.0983 10.5109 7.80386 10.4991 7.52262C10.4829 7.12117 10.3478 6.73029 10.0663 6.42914C9.95659 6.31178 9.83204 6.2161 9.69713 6.14192L9.68441 5.56519C10.1812 5.29134 10.4916 4.75005 10.4985 4.12867C10.5079 3.32923 10.5065 2.527 10.5051 1.73054C10.5045 1.40252 10.504 1.07547 10.5042 0.75H27.7544C27.9883 0.75 28.1275 0.76402 28.2109 0.782707C28.2122 0.783009 28.2135 0.783308 28.2148 0.783606C28.2325 0.861612 28.2464 0.993868 28.2466 1.21823C28.2468 1.42946 28.2471 1.64058 28.2473 1.85161C28.2484 2.90522 28.2495 3.95668 28.2466 5.00904M10.5031 8.8954L27.9313 11.8726C26.1891 11.7022 24.8999 10.3523 24.9162 8.60634L24.9162 8.60624C24.9324 6.89038 26.2048 5.56411 27.9166 5.39595L27.9169 5.39592C28.0776 5.3802 28.1686 5.35889 28.218 5.34158M28.2466 5.00904C28.2466 5.009 28.2466 5.00897 28.2466 5.00893L28.9966 5.01105L28.2466 5.00904ZM28.2466 5.00904C28.2462 5.18039 28.233 5.2804 28.2192 5.33674C28.2188 5.33842 28.2184 5.34003 28.218 5.34158M28.218 5.34158C28.2124 5.36321 28.2083 5.37157 28.2083 5.37148C28.2083 5.37139 28.2126 5.36245 28.2239 5.34985C28.2366 5.33553 28.2466 5.32971 28.2466 5.32968C28.2467 5.32966 28.2395 5.33387 28.2207 5.34063C28.2198 5.34095 28.2189 5.34126 28.218 5.34158ZM28.2444 16.2875C28.2534 14.9132 28.2523 13.5394 28.2444 12.1639C28.2435 12.0322 28.2308 11.9618 28.222 11.9288C28.219 11.9276 28.2156 11.9263 28.2119 11.925C28.1639 11.9078 28.0778 11.8871 27.9315 11.8727L10.5042 13.2419C10.5091 14.0672 10.5081 14.8934 10.5072 15.7167C10.5069 15.9832 10.5066 16.2494 10.5065 16.5153M28.2444 16.2875C28.2444 16.2874 28.2444 16.2874 28.2444 16.2873L28.9944 16.2924L28.2444 16.2875ZM28.2444 16.2875C28.2436 16.4017 28.2307 16.4641 28.2215 16.4938M28.2215 16.4938C28.1923 16.5024 28.1323 16.5141 28.0239 16.5141H28.0233C22.8938 16.5179 17.7635 16.5168 12.6333 16.5157C11.9244 16.5156 11.2154 16.5154 10.5065 16.5153M28.2215 16.4938C28.2317 16.4908 28.2381 16.4882 28.2416 16.4865M28.2215 16.4938C28.2182 16.5046 28.2153 16.5111 28.2138 16.5143M10.5065 16.5153C10.3649 16.5152 10.2232 16.5152 10.0816 16.5152C10.0773 16.5148 10.0664 16.5136 10.0452 16.511C10.0369 16.5099 10.0273 16.5087 10.0163 16.5072C9.97361 16.5017 9.91123 16.4935 9.83656 16.4855L9.81351 16.7001L9.75648 17.2312M10.5065 16.5153C10.5065 16.5769 10.5065 16.6385 10.5065 16.7001V17.2312H10.0747H9.75648M9.75648 17.2312C9.82165 17.2382 9.8728 17.2449 9.91534 17.2504C9.98295 17.2592 10.0288 17.2652 10.0747 17.2652C10.9274 17.2654 11.7801 17.2655 12.6328 17.2657C17.7631 17.2668 22.8939 17.2679 28.0239 17.2641L9.75648 17.2312ZM28.2416 16.4865C28.2383 16.4887 28.2329 16.4928 28.226 16.4997C28.2194 16.5063 28.2156 16.5115 28.2138 16.5143M28.2416 16.4865C28.2439 16.4855 28.2449 16.4848 28.2448 16.4847C28.2447 16.4847 28.2436 16.4852 28.2416 16.4865ZM28.2138 16.5143C28.2128 16.5157 28.2124 16.5165 28.2125 16.5166C28.2125 16.5166 28.213 16.5159 28.2138 16.5143ZM28.2445 11.9392C28.2445 11.9392 28.2443 11.9391 28.2439 11.9388L28.2445 11.9392ZM28.2149 11.9071C28.2139 11.9054 28.2134 11.9044 28.2135 11.9043C28.2135 11.9043 28.214 11.9051 28.2149 11.9071Z" stroke="#FFC00B" stroke-width="1.5" />
                                      <path id="Vector_2" d="M0.895768 0.759774L0.895011 0.759777C0.835625 0.760007 0.799007 0.766473 0.779604 0.771475C0.770654 0.797107 0.757281 0.852575 0.756521 0.955263M0.895768 0.759774L1.04506 5.39569C0.891461 5.38028 0.814177 5.35756 0.78043 5.34458C0.770759 5.30982 0.75588 5.23178 0.755406 5.08076L0.755403 5.08003C0.749742 3.70231 0.746363 2.32888 0.756521 0.955263M0.895768 0.759774C2.77231 0.75062 4.6485 0.754062 6.52763 0.75751C6.79606 0.758002 7.06455 0.758495 7.33311 0.758951V3.60755C7.33311 3.63606 7.33259 3.67054 7.33202 3.70944C7.32987 3.85418 7.32681 4.06016 7.34584 4.2479C7.38522 4.64434 7.53752 5.02503 7.82581 5.31304C7.93345 5.42058 8.05387 5.50884 8.18351 5.57756L8.19535 6.11442C8.0789 6.17174 7.96831 6.24482 7.86669 6.33473C7.54471 6.61961 7.37347 7.02012 7.35423 7.45406L7.35422 7.45423C7.31931 8.24555 7.31806 9.04337 7.35664 9.83835L7.35666 9.83878C7.37809 10.2752 7.55644 10.678 7.88415 10.9596C7.98791 11.0488 8.10102 11.121 8.22036 11.1768M0.895768 0.759774L8.22036 11.1768M0.756521 0.955263L0.00654137 0.949708M0.756521 0.955263L0.00654137 0.949708M0.00654137 0.949708C-0.0036506 2.32789 -0.000253274 3.70494 0.00540893 5.08312M0.00654137 0.949708C0.0110711 0.33819 0.306638 0.0120473 0.89211 0.00978245C2.77142 0.000615071 4.65073 0.00406375 6.53005 0.00751243L0.00540893 5.08312M0.00540893 5.08312C0.00767381 5.80448 0.259076 6.0706 0.970248 6.14195L0.00540893 5.08312ZM1.05857 11.8767L1.05797 11.8768C0.914758 11.8908 0.832066 11.9113 0.787385 11.9277C0.78524 11.9284 0.783234 11.9292 0.781362 11.9299C0.772102 11.9637 0.758338 12.0375 0.757665 12.178L0.757664 12.1783C0.751564 13.3648 0.753697 14.5504 0.755837 15.7398C0.756075 15.872 0.756313 16.0044 0.75654 16.1367L0.00654137 16.138L0.756539 16.1361C0.757013 16.3197 0.77113 16.4276 0.786214 16.4886C0.78657 16.4887 0.786929 16.4888 0.787291 16.4889C0.852826 16.5054 0.968046 16.5202 1.16371 16.5204C2.57266 16.522 3.98067 16.5214 5.38946 16.5209C6.03799 16.5207 6.68668 16.5205 7.33572 16.5204C7.33543 16.3652 7.33509 16.2106 7.33476 16.0567C7.33267 15.0927 7.33063 14.1539 7.34108 13.2182L1.05857 11.8767ZM1.05857 11.8767C2.80578 11.7044 4.09298 10.3747 4.08704 8.62625C4.08111 6.87443 2.79632 5.57126 1.04511 5.39569L1.05857 11.8767ZM8.22036 11.1768L8.21803 11.6758C8.06087 11.754 7.91627 11.8609 7.79061 11.9963C7.4819 12.3291 7.34605 12.7696 7.34108 13.2181L8.22036 11.1768ZM0.788589 5.36802C0.788582 5.36803 0.788423 5.36774 0.788136 5.36713L0.788589 5.36802ZM0.787586 0.753234C0.787602 0.75325 0.787359 0.753684 0.786809 0.754488L0.787586 0.753234ZM0.789683 11.9061C0.789703 11.9061 0.789413 11.9068 0.788749 11.9079C0.78933 11.9066 0.789662 11.9061 0.789683 11.9061Z" stroke="#FFD258" stroke-width="1.5" />
                                      <path id="Vector_3" d="M24.0041 12.2025C24.0029 13.5296 23.0529 14.4927 21.7424 14.495C20.4224 14.4974 19.4771 13.551 19.4688 12.2179C19.4605 10.8635 20.4378 9.86366 21.7554 9.87908C23.0482 9.8945 24.0053 10.8836 24.0041 12.2025ZM21.721 11.4173C21.2953 11.4245 20.9288 11.7933 20.9347 12.2072C20.9418 12.6377 21.2905 12.9615 21.7424 12.9568C22.1931 12.952 22.5299 12.6176 22.524 12.1823C22.518 11.7565 22.1527 11.4102 21.7198 11.4173H21.721Z" fill="#FFC00B" /> <path id="Vector_4" d="M15.6671 3.8215C16.967 3.8215 17.9431 4.80233 17.9467 6.10931C17.9502 7.41036 16.9753 8.41728 15.6909 8.43626C14.3898 8.45642 13.3722 7.42697 13.3829 6.10219C13.3936 4.78217 14.3566 3.82031 15.666 3.82031L15.6671 3.8215ZM15.679 6.90512C16.1273 6.89682 16.4262 6.57541 16.4191 6.10575C16.412 5.63846 16.106 5.34078 15.6422 5.35026C15.1975 5.35975 14.8702 5.70014 14.8808 6.14133C14.8915 6.57541 15.2437 6.91224 15.679 6.90512Z" fill="#FFC00B" /> <rect id="Rectangle 5542" x="13.3828" y="13.3281" width="14.1135" height="1.66041" rx="0.830206" transform="rotate(-45 13.3828 13.3281)" fill="#FFC00B" />
                                  </svg>