<svg width="18" height="11" viewBox="0 0 18 11" fill="none" xmlns="http://www.w3.org/2000/svg">
<path d="M17.8125 7.54678L17.3125 7.54997C17.3125 7.54986 17.3125 7.54974 17.3125 7.54962C17.3121 7.49086 17.3078 7.45254 17.3035 7.42902C17.2758 7.42065 17.2292 7.41068 17.155 7.40331C16.0617 7.29526 15.2575 6.4397 15.2677 5.34145L15.2677 5.34138C15.2778 4.26215 16.0714 3.42149 17.146 3.31484L17.1462 3.31482C17.2229 3.30724 17.2715 3.29767 17.3012 3.28949C17.3077 3.25515 17.3136 3.19866 17.3139 3.10883C17.3156 2.45555 17.3149 1.80284 17.3142 1.14872C17.3141 1.01793 17.314 0.887078 17.3138 0.756157C17.3137 0.637726 17.3075 0.562432 17.2993 0.514849C17.2504 0.506389 17.1729 0.5 17.0506 0.5H6.49178L17.3125 10.1089L17.8125 10.1123M17.8125 7.54678C17.8173 8.40218 17.818 9.25687 17.8125 10.1123M17.8125 7.54678C17.8097 7.11099 17.6503 6.95004 17.2044 6.90575L17.8125 7.54678ZM17.8125 10.1123C17.8097 10.5263 17.6267 10.7153 17.2162 10.7153L6.49183 8.21862C6.49183 8.21865 6.49183 8.21868 6.49183 8.21871C6.49482 8.73111 6.49425 9.24401 6.49368 9.75504C6.49351 9.90892 6.49334 10.0626 6.49327 10.2161C6.91637 10.2162 7.33947 10.2163 7.76258 10.2164C10.9138 10.2171 14.0651 10.2178 17.2158 10.2153H17.2162C17.2571 10.2153 17.2856 10.2123 17.3043 10.2091C17.3083 10.1885 17.3121 10.1562 17.3125 10.109L17.8125 10.1123Z" stroke="#D2D2D2"/>
<path d="M0.550552 0.505594L0.550042 0.505597C0.533917 0.50566 0.521204 0.506548 0.511483 0.507679C0.507831 0.525598 0.504295 0.553174 0.504005 0.592653M0.550552 0.505594L0.646471 3.31422C0.580671 3.30755 0.538833 3.29868 0.513628 3.29133C0.508544 3.265 0.503533 3.22129 0.503321 3.15293L0.503319 3.15245C0.499841 2.29735 0.497766 1.44504 0.504005 0.592653M0.550552 0.505594C1.70329 0.499913 2.85579 0.50205 4.01026 0.50419C4.16215 0.504471 4.31407 0.504753 4.46604 0.505017M0.550552 0.505594L4.46604 0.505017M0.504005 0.592653L0.00401884 0.588987M0.504005 0.592653L0.00401884 0.588987M0.00401884 0.588987C-0.00224282 1.44439 -0.000155604 2.29908 0.0033231 3.15448M0.00401884 0.588987C0.0068018 0.209434 0.18839 0.00700608 0.548088 0.00560032C1.70268 -8.96223e-05 2.85728 0.00205088 4.01188 0.00419139L0.0033231 3.15448M0.0033231 3.15448C0.00471458 3.60222 0.159169 3.76739 0.596094 3.81167L0.0033231 3.15448ZM0.654706 7.40538L0.654297 7.40542C0.584635 7.4123 0.540642 7.42164 0.514322 7.42942C0.509652 7.45421 0.505008 7.49503 0.504709 7.55826L0.504708 7.55844C0.500961 8.29473 0.502271 9.03052 0.503586 9.76877C0.503733 9.85085 0.503879 9.93296 0.504018 10.0151L0.00401884 10.016L0.504017 10.0147C0.504255 10.1078 0.510166 10.1679 0.516969 10.2054C0.555772 10.2126 0.618069 10.2187 0.715008 10.2188C1.5806 10.2198 2.44558 10.2195 3.31108 10.2191C3.69644 10.219 4.08191 10.2189 4.46757 10.2188C4.46741 10.1342 4.46723 10.0498 4.46705 9.96577C4.46577 9.36732 4.46451 8.7843 4.47094 8.20334C4.47405 7.91977 4.55903 7.63809 4.75586 7.42375C4.83092 7.34199 4.9167 7.27629 5.0098 7.22667L5.01104 6.95691C4.94218 6.92229 4.87677 6.87888 4.81633 6.8264C4.6065 6.64421 4.49404 6.38528 4.48054 6.10764L4.48053 6.10736C4.45678 5.61296 4.45755 5.11686 4.47904 4.62488L4.47904 4.62476C4.49115 4.3488 4.59909 4.0914 4.8052 3.90718C4.86433 3.85432 4.92822 3.81045 4.99534 3.77504L4.98891 3.48064C4.91289 3.43774 4.84212 3.38406 4.77844 3.31979C4.59448 3.13412 4.49871 2.89029 4.474 2.639M0.654706 7.40538L4.83399 0.525102C4.80792 0.517963 4.78579 0.511221 4.76773 0.505512C4.66715 0.505358 4.56658 0.505191 4.46604 0.505017M0.654706 7.40538C1.75084 7.29617 2.55388 6.45348 2.55019 5.35351C2.54649 4.25129 1.74469 3.42545 0.646509 3.31422L0.654706 7.40538ZM4.474 2.639L4.9716 2.59007L4.47415 2.6405C4.4741 2.64 4.47405 2.6395 4.474 2.639ZM4.474 2.639C4.46212 2.52051 4.46405 2.38993 4.46538 2.30023C4.46573 2.27652 4.46604 2.25566 4.46604 2.23864V0.505017" stroke="#E6E6E6"/>
<path d="M14.7473 7.57499C14.7466 8.39871 14.163 8.99644 13.3578 8.99792C12.5468 8.99939 11.9661 8.41196 11.961 7.58456C11.9559 6.7439 12.5563 6.12335 13.3658 6.13292C14.16 6.14249 14.7481 6.75642 14.7473 7.57499ZM13.3447 7.08767C13.0831 7.09209 12.8579 7.32103 12.8616 7.57793C12.866 7.84515 13.0802 8.04611 13.3578 8.04316C13.6347 8.04022 13.8416 7.83263 13.838 7.56248C13.8343 7.29821 13.6099 7.08326 13.3439 7.08767H13.3447Z" fill="#D2D2D2"/>
<path d="M9.62609 2.37183C10.4247 2.37183 11.0244 2.9806 11.0266 3.79181C11.0287 4.59934 10.4298 5.22431 9.64066 5.23609C8.84133 5.2486 8.21615 4.60965 8.22271 3.7874C8.22927 2.96809 8.82093 2.37109 9.62536 2.37109L9.62609 2.37183ZM9.63338 4.28575C9.90881 4.2806 10.0924 4.08111 10.0881 3.78961C10.0837 3.49957 9.89569 3.31481 9.61079 3.32069C9.33754 3.32658 9.13644 3.53785 9.14299 3.81169C9.14955 4.08111 9.36596 4.29017 9.63338 4.28575Z" fill="#D2D2D2"/>
<rect width="8.71553" height="1.02536" rx="0.512678" transform="matrix(0.70349 -0.710705 0.70349 0.710705 8.22266 8.27148)" fill="#D2D2D2"/>
</svg>
