<svg width="20" height="13" viewBox="0 0 20 13" fill="none" xmlns="http://www.w3.org/2000/svg">
<path d="M6.84493 3.57589C6.84113 3.93378 6.60431 4.17212 6.28906 4.17136L6.31419 5.31051C6.62182 5.32193 6.83199 5.54124 6.8457 5.88466C6.85636 6.13747 6.84798 6.39104 6.84798 6.64461H6.84722C6.84646 6.88523 6.85712 7.12662 6.84417 7.36648C6.82666 7.68934 6.65 7.88275 6.32409 7.91093L6.31876 9.05237C6.64315 9.06836 6.84646 9.31279 6.84874 9.71256C6.85331 10.487 6.85027 11.2606 6.85027 12.035V12.3922C6.96372 12.4044 7.01398 12.415 7.06424 12.415C11.0871 12.4158 15.1107 12.4173 19.1335 12.4143C19.5828 12.4143 19.783 12.2094 19.7861 11.7609C19.7922 10.8342 19.7914 9.90826 19.7861 8.98155C19.783 8.50944 19.6087 8.33507 19.1206 8.28709C18.1931 8.19648 17.5398 7.4944 17.5481 6.59739C17.5565 5.71333 18.2038 5.02496 19.1107 4.93587C19.6323 4.88485 19.7861 4.71504 19.7876 4.17516C19.7899 3.3246 19.7884 2.4748 19.7876 1.62424C19.7869 0.957958 19.6323 0.805664 18.9523 0.805664H7.30182H6.84874V1.25341C6.84798 2.02782 6.85407 2.80147 6.84493 3.57589Z" fill="#191919"/>
<path d="M5.72426 3.22978V0.85095C5.64278 0.828867 5.60699 0.810592 5.57196 0.810592C4.01095 0.808307 2.44994 0.802977 0.888929 0.810592C0.49525 0.812115 0.296507 1.03142 0.293461 1.44261C0.286608 2.36932 0.288892 3.29526 0.2927 4.22197C0.294222 4.70703 0.463268 4.88597 0.941471 4.93394C1.88341 5.02837 2.52989 5.7076 2.53294 6.60613C2.53599 7.5039 1.88569 8.19608 0.95137 8.28821C0.468599 8.33542 0.296507 8.51285 0.294222 8.99029C0.289654 9.87892 0.291938 10.7668 0.293461 11.6554C0.294984 12.2448 0.468599 12.4161 1.07092 12.4169C2.49258 12.4184 3.91348 12.4169 5.33514 12.4169H5.72654C5.72654 11.4712 5.71969 10.584 5.72959 9.69769C5.73415 9.28421 5.9763 9.03521 6.31744 9.05197L6.32277 7.91052C6.00752 7.93794 5.75624 7.73615 5.73948 7.39501C5.71436 6.87721 5.71512 6.35637 5.73796 5.83857C5.75319 5.49515 5.99762 5.29869 6.31287 5.31011L6.28774 4.17095C5.98315 4.17019 5.76461 3.95546 5.73035 3.61051C5.7174 3.48411 5.72426 3.35694 5.72426 3.22978Z" fill="#828282"/>
<path d="M16.4324 9.00966C16.4316 9.90205 15.7929 10.5496 14.9116 10.5512C14.024 10.5528 13.3884 9.91641 13.3828 9.02003C13.3773 8.1093 14.0344 7.43702 14.9204 7.44738C15.7897 7.45775 16.4332 8.12286 16.4324 9.00966ZM14.8973 8.48173C14.611 8.48651 14.3646 8.73453 14.3685 9.01285C14.3733 9.30234 14.6078 9.52006 14.9116 9.51687C15.2147 9.51368 15.4412 9.28879 15.4372 8.99611C15.4332 8.70981 15.1876 8.47694 14.8965 8.48173H14.8973Z" fill="white"/>
<path d="M10.8251 3.37482C11.6991 3.37482 12.3555 4.03434 12.3579 4.91318C12.3602 5.78802 11.7047 6.46509 10.841 6.47785C9.96619 6.49141 9.28194 5.79919 9.28912 4.90839C9.2963 4.02079 9.94386 3.37402 10.8243 3.37402L10.8251 3.37482ZM10.8331 5.44829C11.1345 5.44271 11.3355 5.22659 11.3307 4.91078C11.3259 4.59657 11.1202 4.3964 10.8083 4.40278C10.5093 4.40916 10.2892 4.63804 10.2963 4.93471C10.3035 5.22659 10.5404 5.45308 10.8331 5.44829Z" fill="white"/>
<rect x="9.28906" y="9.7666" width="9.49012" height="1.11648" rx="0.558242" transform="rotate(-45 9.28906 9.7666)" fill="white"/>
</svg>
