 <svg xmlns="http://www.w3.org/2000/svg" width="14" height="13" viewBox="0 0 14 13" fill="none">
                                          <path d="M13.1001 3.52033L13.0949 3.53595C13.0859 3.5631 13.0792 3.58773 13.0718 3.61482C13.0667 3.63337 13.0614 3.65307 13.0547 3.67552L13.1001 3.52033ZM13.1001 3.52033L13.1 3.50387M13.1001 3.52033L13.1 3.50387M13.1 3.50387L13.0976 3.13698L13.0976 3.12826L13.096 3.11968C13.0163 2.68245 12.7333 2.38042 12.4418 2.11018C12.273 1.95355 12.1112 1.79323 11.9479 1.63143C11.8512 1.53562 11.754 1.43929 11.6544 1.34289C11.3536 1.04992 10.9956 0.899416 10.633 0.900002C10.2703 0.900587 9.91242 1.05226 9.61165 1.34627L9.61163 1.3463L8.21902 2.7087M13.1 3.50387L8.21902 2.7087M1.54192 9.49893C1.56189 9.39894 1.63588 9.29781 1.71193 9.22196L1.54192 9.49893ZM1.54192 9.49893C1.36537 10.389 1.19914 11.281 1.0329 12.1731L1.01987 12.243C0.968197 12.5283 1.00754 12.6056 1.25477 12.7493H1.46588L1.54192 9.49893ZM8.21902 2.7087C6.02469 4.85398 3.83231 7.00128 1.64189 9.15058L1.64131 9.15116C1.56032 9.23194 1.46962 9.35035 1.44386 9.47934L1.44383 9.47947C1.26717 10.3701 1.10085 11.2626 0.934644 12.1545L0.921564 12.2247L0.921474 12.2252C0.895629 12.3679 0.885663 12.4874 0.934728 12.5918C0.983606 12.6958 1.08157 12.7643 1.20453 12.8357L1.22782 12.8493H1.25477H1.46588H1.48903L1.50983 12.8391C1.52312 12.8326 1.53695 12.8271 1.55118 12.8229C1.79784 12.7779 2.04464 12.7331 2.29149 12.6884C2.96624 12.5661 3.64137 12.4437 4.31525 12.316L4.31525 12.316L4.31697 12.3156C4.44072 12.2899 4.55483 12.2306 4.64611 12.1441L4.64612 12.1441L4.64716 12.1431C7.32462 9.53059 9.99797 6.91428 12.6672 4.29415L12.6674 4.29393C12.791 4.17188 12.8817 4.01739 12.9626 3.87953C12.9719 3.86379 12.981 3.84826 12.99 3.83303L8.21902 2.7087ZM11.716 4.12079C11.755 4.08158 11.7938 4.04245 11.8325 4.0034C11.9193 3.91599 12.0056 3.82899 12.0924 3.7424L12.0203 2.95526C12.1437 3.07758 12.1962 3.2003 12.1962 3.31381C12.1963 3.42737 12.144 3.54981 12.0218 3.67157L12.0218 3.67158C11.9348 3.75837 11.8481 3.8457 11.7613 3.93322C11.7459 3.94876 11.7305 3.96431 11.715 3.97987M11.716 4.12079L11.786 4.04934L11.715 3.97987M11.716 4.12079L11.6451 4.05028C11.6684 4.02681 11.6917 4.00333 11.715 3.97987M11.716 4.12079L11.715 3.97987M11.715 3.97987L9.97698 2.27809C10.002 2.25142 10.0266 2.22484 10.0511 2.19844C10.1511 2.0904 10.2483 1.98545 10.3585 1.88975C10.5116 1.75709 10.7537 1.75855 10.9206 1.89231L10.9206 1.89233C11.0021 1.95756 11.0759 2.03034 11.1538 2.10722C11.1748 2.12791 11.1961 2.14889 11.2179 2.1701L11.2626 2.21359C11.5161 2.4603 11.7694 2.70676 12.0203 2.95524L11.715 3.97987ZM9.31214 2.92619L11.0378 4.61662L4.29695 11.2073L2.5731 9.52075L9.31214 2.92619ZM2.0037 11.3828C2.06179 11.0758 2.11937 10.7716 2.17678 10.4686L3.32474 11.5919L1.91565 11.848C1.94517 11.6921 1.9745 11.5371 2.0037 11.3828Z" fill="#FFC00B" stroke="#FFC00B" stroke-width="0.2" />
                                        </svg>