<svg xmlns="http://www.w3.org/2000/svg" width="40" height="40"
                                        viewBox="0 0 40 40" fill="none">
                                        <path
                                            d="M21.0112 14.9996C21.0112 13.3131 21.0074 11.6266 21.0121 9.93912C21.0159 8.68571 21.703 8.00042 22.948 8.00042C25.3217 8.00042 27.6954 7.99948 30.07 8.00042C31.2841 8.00042 31.9975 8.70821 31.9984 9.911C31.9994 13.3 31.9994 16.689 31.9984 20.078C31.9984 21.2695 31.3075 21.9801 30.1244 21.9838C27.7188 21.9913 25.3142 21.9904 22.9086 21.9838C21.6805 21.981 21.0168 21.3032 21.0131 20.0592C21.0084 18.3727 21.0121 16.6862 21.0121 14.9987L21.0112 14.9996Z"
                                            fill="#FFD258" />
                                        <path
                                            d="M18.989 25.063C18.989 26.7186 18.9918 28.3742 18.989 30.0298C18.9862 31.3198 18.3102 31.9976 17.0343 31.9976C14.6756 31.9976 12.3179 31.9976 9.95917 31.9976C8.71139 31.9976 8.00359 31.2991 8.00266 30.0673C8.00172 26.6783 8.00172 23.2893 8.00266 19.9003C8.00266 18.7369 8.69639 18.0188 9.84855 18.0141C12.2851 18.0057 14.7216 18.0057 17.1581 18.0141C18.2999 18.0179 18.9815 18.7107 18.9871 19.8628C18.9955 21.5962 18.989 23.3296 18.9899 25.064L18.989 25.063Z"
                                            fill="#FFD258" />
                                        <path
                                            d="M13.521 15.9876C12.3033 15.9876 11.0845 15.9941 9.86675 15.9857C8.70897 15.9772 8.00398 15.2666 8.00211 14.1173C7.9993 12.6961 7.9993 11.2748 8.00211 9.85457C8.00492 8.74084 8.73803 8.00305 9.84707 8.00211C12.2826 7.9993 14.7191 7.9993 17.1547 8.00211C18.2506 8.00398 18.9753 8.71178 18.9847 9.80863C18.9969 11.2767 18.9978 12.7448 18.9847 14.212C18.9753 15.2723 18.2787 15.9707 17.2222 15.9829C15.9885 15.9979 14.7548 15.9866 13.521 15.9866V15.9876Z"
                                            fill="#FFD258" />
                                        <path
                                            d="M26.4895 24.0108C27.7073 24.0108 28.9251 24.0042 30.1438 24.0127C31.2978 24.0211 31.9972 24.7336 31.999 25.8895C32.0009 27.3107 32.0028 28.7319 31.999 30.1522C31.9962 31.2612 31.2594 31.9944 30.1447 31.9962C27.7091 31.999 25.2726 32 22.8371 31.9962C21.7646 31.9944 21.0287 31.2884 21.0184 30.2263C21.0043 28.7432 21.0043 27.2591 21.0184 25.7761C21.0277 24.7214 21.7299 24.0258 22.7902 24.0145C24.0239 24.0014 25.2576 24.0117 26.4914 24.0108H26.4895Z"
                                            fill="#FFD258" />
                                    </svg>