<svg width="19" height="19" viewBox="0 0 19 19" fill="none" xmlns="http://www.w3.org/2000/svg">
<path d="M10.9947 9.47526C10.9991 9.38775 11.0045 9.32579 11.0047 9.2641C11.0053 8.10478 11.005 6.94546 11.0053 5.78613C11.0053 5.66801 11.0653 5.60886 11.1853 5.60867C12.8995 5.60867 14.6136 5.60867 16.3278 5.60867C16.5078 5.60867 16.5083 5.60895 16.5083 5.78586C16.5083 7.099 16.5086 8.41241 16.5078 9.72555C16.5078 9.79132 16.4989 9.85681 16.4942 9.91741C14.2663 9.16546 12.2782 9.52825 10.7251 11.3088C9.10244 13.169 9.04857 15.2577 10.1975 17.4237C10.1493 17.4288 10.0984 17.4392 10.0472 17.4392C6.74968 17.44 3.45213 17.4392 0.154577 17.4421C0.0365462 17.4421 0 17.4074 0 17.2878C0.00270713 13.4432 0.00270713 9.59837 0 5.75379C0 5.64129 0.0346512 5.60623 0.146726 5.6065C1.88335 5.60949 3.62024 5.60976 5.35686 5.60596C5.48085 5.60596 5.50657 5.65107 5.50629 5.76494C5.50305 6.93323 5.50413 8.10152 5.50467 9.27008C5.50467 9.3315 5.51144 9.39292 5.51712 9.4883C5.71528 9.35759 5.88989 9.24399 6.06288 9.12822C6.35471 8.9331 6.64843 8.7407 6.93539 8.53851C7.04096 8.46405 7.12028 8.46921 7.22424 8.54204C7.53041 8.75619 7.84552 8.95756 8.15305 9.16953C8.22831 9.22144 8.28218 9.22198 8.35771 9.1698C8.66172 8.96055 8.97439 8.7638 9.27516 8.54992C9.39535 8.46432 9.48008 8.4722 9.59784 8.55373C10.031 8.8532 10.4717 9.14154 10.91 9.43368C10.9276 9.44537 10.9479 9.45243 10.9945 9.47526H10.9947ZM7.07507 13.094C7.07507 12.2336 7.0721 11.3735 7.07805 10.5131C7.07913 10.3734 7.03717 10.3384 6.90182 10.3389C5.18333 10.3433 3.46485 10.3433 1.74637 10.3389C1.60857 10.3386 1.57176 10.3772 1.57203 10.5142C1.57636 12.2393 1.57636 13.9644 1.57203 15.6896C1.57176 15.8276 1.61047 15.8651 1.74718 15.8646C3.46566 15.86 5.18415 15.8602 6.90263 15.8646C7.03988 15.8649 7.07859 15.826 7.07778 15.6885C7.07183 14.8237 7.0748 13.9587 7.0748 13.094H7.07507Z" fill="white"/>
<path d="M19.0007 14.6487C18.9969 17.0529 17.0408 19.0019 14.6341 18.9997C12.2253 18.9975 10.273 17.0357 10.2793 14.6233C10.2856 12.2222 12.246 10.2745 14.6527 10.2783C17.0539 10.2822 19.0042 12.2429 19.0004 14.6487H19.0007ZM16.4821 13.7283C16.4523 13.6906 16.4302 13.6565 16.4023 13.6278C16.2972 13.5204 16.1904 13.4147 16.0842 13.3087C15.9468 13.1718 15.9427 13.1715 15.8037 13.3106C15.192 13.9217 14.5795 14.5315 13.9708 15.1457C13.8785 15.2388 13.8146 15.2388 13.724 15.1443C13.5069 14.9178 13.2783 14.702 13.0601 14.4766C12.9765 14.3905 12.9118 14.3747 12.8247 14.4714C12.7182 14.5897 12.6049 14.7023 12.4872 14.8094C12.3973 14.8911 12.4069 14.9522 12.4894 15.0337C12.9102 15.4495 13.328 15.868 13.7439 16.2887C13.8168 16.3625 13.8709 16.3699 13.9473 16.2931C14.766 15.4711 15.5872 14.6512 16.4067 13.8302C16.4346 13.8023 16.4542 13.7663 16.4818 13.7283H16.4821Z" fill="white"/>
<path d="M0 4.64913C0.166965 4.41654 0.317673 4.20566 0.46976 3.99584C1.16076 3.04297 1.85259 2.09037 2.54387 1.13723C2.79183 0.795311 3.03953 0.453124 3.28584 0.110134C3.33929 0.0356404 3.40156 -0.000266473 3.50157 1.48855e-06C4.57114 0.00348499 5.6407 0.00187722 6.70999 0.00241314C6.86511 0.00241314 6.87144 0.0209025 6.83232 0.166674C6.73038 0.545571 6.63643 0.926344 6.53779 1.30605C6.44356 1.6686 6.34575 2.03008 6.25208 2.39263C6.1606 2.74661 6.07216 3.10139 5.98234 3.4559C5.89225 3.81041 5.80105 4.16439 5.71234 4.51917C5.68451 4.63038 5.62555 4.67245 5.50019 4.67218C3.73301 4.66789 1.96583 4.6695 0.198649 4.66843C0.141341 4.66843 0.0840333 4.65744 0 4.64913Z" fill="white"/>
<path d="M16.5086 4.64752C16.4376 4.6569 16.3868 4.66923 16.3358 4.66923C14.6221 4.6703 12.9083 4.66923 11.1949 4.67218C11.0734 4.67218 11.0296 4.6368 11.0117 4.5103C10.9556 4.11767 10.8792 3.72799 10.8143 3.3367C10.7507 2.95398 10.6927 2.57047 10.6294 2.18802C10.5653 1.80102 10.4967 1.41482 10.4312 1.02808C10.3786 0.715854 10.3263 0.403625 10.2795 0.0905924C10.2761 0.0664717 10.3116 0.0251986 10.3388 0.0112622C10.3677 -0.00374624 10.4083 0.00268594 10.4438 0.00268594C11.3295 0.00241793 12.2152 0.00429398 13.1012 5.86451e-06C13.2072 -0.00053015 13.2737 0.0356509 13.3328 0.119537C14.2604 1.44108 15.1899 2.76155 16.1184 4.0823C16.2455 4.26347 16.37 4.44652 16.5089 4.64752H16.5086Z" fill="white"/>
<path d="M8.41245 4.67152C7.8402 4.67152 7.26823 4.67179 6.69598 4.67152C6.53294 4.67152 6.52204 4.66562 6.55775 4.51597C6.64772 4.13888 6.74587 3.7634 6.84129 3.38765C6.93016 3.03764 7.01986 2.68764 7.10928 2.33791C7.20743 1.95358 7.30612 1.56924 7.40372 1.18464C7.4926 0.834641 7.58448 0.485176 7.66545 0.133296C7.68617 0.0429122 7.72025 0.000268201 7.81485 0.000536402C8.33694 0.00187741 8.85929 0.00187741 9.38138 0C9.45799 0 9.4967 0.0265519 9.50979 0.103794C9.57958 0.5128 9.65374 0.921002 9.72462 1.33001C9.79551 1.73875 9.86448 2.14802 9.93455 2.55676C9.99262 2.8955 10.051 3.23397 10.109 3.5727C10.1616 3.8806 10.214 4.18849 10.2663 4.49639C10.2944 4.66241 10.2868 4.67206 10.1156 4.67206C9.54796 4.67233 8.98034 4.67206 8.41273 4.67206L8.41245 4.67152Z" fill="white"/>
<path d="M10.2613 7.86759C10.1052 7.76664 9.97713 7.68538 9.85062 7.60156C9.63754 7.46049 9.42403 7.46101 9.21009 7.60309C8.98639 7.75182 8.75882 7.89493 8.54 8.05031C8.44254 8.11956 8.37003 8.10883 8.27721 8.04545C7.98176 7.84331 7.67962 7.65037 7.38366 7.44925C7.31603 7.40325 7.26692 7.403 7.20007 7.44925C7.03216 7.56604 6.8591 7.67567 6.68759 7.78709C6.6534 7.80932 6.61688 7.82798 6.56237 7.85915C6.5544 7.79373 6.54411 7.74952 6.54411 7.70506C6.54308 7.0534 6.54591 6.40175 6.54103 5.75034C6.54026 5.63688 6.57677 5.6057 6.68811 5.60596C7.83648 5.60954 8.98484 5.60903 10.1335 5.60673C10.2325 5.60673 10.2795 5.62666 10.2787 5.73987C10.2741 6.39996 10.2767 7.06004 10.2759 7.72013C10.2759 7.75693 10.2687 7.79348 10.2608 7.86733L10.2613 7.86759Z" fill="white"/>
<path d="M4.52627 14.9495C3.9091 14.9495 3.29193 14.9461 2.67504 14.9521C2.53885 14.9533 2.49039 14.9245 2.49122 14.7895C2.49679 13.6498 2.49596 12.5102 2.49234 11.3705C2.49206 11.2576 2.51963 11.2138 2.65387 11.2144C3.89267 11.219 5.13174 11.219 6.37054 11.2144C6.50812 11.2138 6.54098 11.256 6.54043 11.3766C6.53625 12.512 6.53792 13.6474 6.53792 14.7828C6.53792 14.949 6.53736 14.9492 6.34993 14.9495C5.74223 14.9495 5.13425 14.9495 4.52655 14.9495H4.52627ZM4.52627 11.9645C4.16003 11.9645 3.79352 11.9661 3.42728 11.9632C3.33955 11.9625 3.30056 11.9877 3.30279 12.073C3.30725 12.2484 3.30697 12.4241 3.30279 12.5997C3.30084 12.6843 3.33816 12.7108 3.42672 12.7106C4.15001 12.7085 4.87357 12.708 5.59685 12.7111C5.70379 12.7116 5.73248 12.6723 5.72969 12.5812C5.7244 12.4187 5.72273 12.2556 5.73025 12.0931C5.73499 11.9892 5.69015 11.9612 5.58376 11.9625C5.23145 11.9671 4.87886 11.9643 4.52655 11.9643L4.52627 11.9645ZM4.51123 14.2024C4.87301 14.2024 5.23479 14.2006 5.59629 14.2037C5.68903 14.2045 5.7322 14.1793 5.72914 14.0872C5.72385 13.9162 5.72385 13.7446 5.72914 13.5734C5.73192 13.4823 5.69154 13.4556 5.5974 13.4558C4.87412 13.4582 4.15056 13.4584 3.42728 13.4558C3.32618 13.4553 3.3 13.4937 3.30223 13.5785C3.30669 13.7454 3.30808 13.9126 3.30195 14.0795C3.29833 14.1759 3.33844 14.2055 3.43981 14.2045C3.79686 14.2004 4.1539 14.2029 4.51095 14.2029L4.51123 14.2024Z" fill="white"/>
</svg>
