<svg width="21" height="20" viewBox="0 0 21 20" fill="none" xmlns="http://www.w3.org/2000/svg">
<g id="Group 2537">
<path id="Vector" d="M12.0712 9.9752C12.0757 9.88309 12.0814 9.81787 12.0817 9.75294C12.0823 8.53263 12.082 7.31231 12.0823 6.092C12.0823 5.96766 12.1455 5.9054 12.2718 5.9052C14.0761 5.9052 15.8805 5.9052 17.6848 5.9052C17.8743 5.9052 17.8748 5.90549 17.8748 6.09171C17.8748 7.47393 17.8751 8.85644 17.8743 10.2387C17.8743 10.3079 17.8649 10.3768 17.86 10.4406C15.5149 9.6491 13.4221 10.031 11.7874 11.9052C10.0794 13.8633 10.0226 16.0619 11.232 18.3418C11.1813 18.3472 11.1277 18.3581 11.0738 18.3581C7.60281 18.3589 4.13178 18.3581 0.660756 18.3612C0.536516 18.3612 0.498047 18.3246 0.498047 18.1987C0.500896 14.1519 0.500896 10.1048 0.498047 6.05796C0.498047 5.93953 0.534521 5.90263 0.652492 5.90292C2.48047 5.90606 4.30874 5.90635 6.13672 5.90234C6.26723 5.90234 6.2943 5.94983 6.29402 6.06969C6.2906 7.29944 6.29174 8.52919 6.29231 9.75923C6.29231 9.82388 6.29943 9.88853 6.30542 9.98893C6.514 9.85134 6.6978 9.73177 6.87988 9.60991C7.18706 9.40452 7.49624 9.202 7.79829 8.98917C7.90942 8.91079 7.99291 8.91623 8.10234 8.99289C8.42462 9.2183 8.75631 9.43027 9.08002 9.65339C9.15923 9.70803 9.21594 9.7086 9.29544 9.65368C9.61544 9.43341 9.94457 9.22631 10.2612 9.00118C10.3877 8.91108 10.4769 8.91937 10.6008 9.00519C11.0567 9.32042 11.5206 9.62393 11.982 9.93144C12.0005 9.94374 12.0219 9.95118 12.0709 9.9752H12.0712ZM7.94533 13.7843C7.94533 12.8787 7.94219 11.9733 7.94846 11.0677C7.9496 10.9206 7.90543 10.8837 7.76296 10.8843C5.95407 10.8889 4.14518 10.8889 2.33629 10.8843C2.19125 10.884 2.15249 10.9246 2.15278 11.0688C2.15734 12.8847 2.15734 14.7006 2.15278 16.5164C2.15249 16.6618 2.19324 16.7012 2.33714 16.7007C4.14603 16.6958 5.95492 16.6961 7.76381 16.7007C7.90828 16.7009 7.94903 16.66 7.94818 16.5153C7.94191 15.6051 7.94504 14.6945 7.94504 13.7843H7.94533Z" fill="#FFC00B"/>
<path id="Vector_2" d="M20.4966 15.4206C20.4926 17.9513 18.4336 20.0028 15.9003 20.0005C13.3648 19.9982 11.3098 17.9332 11.3164 15.3939C11.323 12.8664 13.3866 10.8163 15.9199 10.8203C18.4474 10.8243 20.5004 12.8883 20.4963 15.4206H20.4966ZM17.8455 14.4518C17.8142 14.4121 17.7909 14.3762 17.7616 14.346C17.6509 14.233 17.5385 14.1217 17.4267 14.0101C17.2821 13.866 17.2778 13.8657 17.1315 14.0121C16.4876 14.6554 15.8429 15.2973 15.2021 15.9437C15.105 16.0418 15.0377 16.0418 14.9423 15.9423C14.7138 15.7039 14.4732 15.4767 14.2435 15.2395C14.1555 15.1489 14.0874 15.1322 13.9957 15.234C13.8836 15.3585 13.7643 15.477 13.6404 15.5897C13.5459 15.6757 13.5559 15.7401 13.6427 15.8258C14.0857 16.2635 14.5255 16.7041 14.9633 17.1469C15.04 17.2246 15.0969 17.2323 15.1774 17.1515C16.0392 16.2862 16.9035 15.4232 17.7662 14.5591C17.7955 14.5297 17.8162 14.4918 17.8452 14.4518H17.8455Z" fill="#FFC00B"/>
<path id="Vector_3" d="M0.498047 4.89372C0.673795 4.64889 0.832433 4.42691 0.99252 4.20606C1.71987 3.20306 2.4481 2.20034 3.17574 1.19706C3.43675 0.837151 3.69748 0.476962 3.95675 0.115928C4.01301 0.0375153 4.07855 -0.000280492 4.18383 1.56686e-06C5.30966 0.00366833 6.43549 0.00197598 7.56104 0.00254009C7.72431 0.00254009 7.73098 0.0220021 7.6898 0.175442C7.5825 0.574273 7.4836 0.975078 7.37978 1.37475C7.28059 1.75638 7.17764 2.13688 7.07903 2.5185C6.98275 2.8911 6.88966 3.26455 6.79511 3.63771C6.70028 4.01087 6.60428 4.38347 6.5109 4.75692C6.48161 4.87397 6.41954 4.91826 6.28759 4.91797C4.42744 4.91346 2.56729 4.91515 0.707147 4.91402C0.646824 4.91402 0.586501 4.90246 0.498047 4.89372Z" fill="#FFC00B"/>
<path id="Vector_4" d="M17.8734 4.89202C17.7986 4.90189 17.7452 4.91487 17.6915 4.91487C15.8876 4.916 14.0838 4.91487 12.2802 4.91797C12.1522 4.91797 12.1061 4.88074 12.0873 4.74758C12.0283 4.3343 11.9478 3.92411 11.8795 3.51224C11.8126 3.10939 11.7516 2.70569 11.685 2.30313C11.6175 1.89576 11.5452 1.48925 11.4763 1.08217C11.421 0.753514 11.3659 0.424859 11.3167 0.0953583C11.313 0.0699687 11.3504 0.0265242 11.3791 0.0118547C11.4094 -0.00394332 11.4522 0.00282724 11.4896 0.00282724C12.4219 0.00254513 13.3542 0.00451988 14.2868 6.17303e-06C14.3984 -0.000558041 14.4684 0.0375264 14.5305 0.125826C15.507 1.51689 16.4854 2.90684 17.4627 4.29706C17.5965 4.48776 17.7275 4.68044 17.8737 4.89202H17.8734Z" fill="#FFC00B"/>
<path id="Vector_5" d="M9.35466 4.91728C8.7523 4.91728 8.15023 4.91757 7.54788 4.91728C7.37627 4.91728 7.36479 4.91107 7.40238 4.75354C7.49708 4.35662 7.60039 3.96138 7.70083 3.56586C7.79439 3.19745 7.8888 2.82903 7.98293 2.4609C8.08624 2.05635 8.19012 1.6518 8.29286 1.24697C8.38641 0.87855 8.48312 0.5107 8.56835 0.140308C8.59016 0.0451697 8.62603 0.000282311 8.72561 0.000564621C9.27517 0.00197617 9.82501 0.00197617 10.3746 0C10.4552 0 10.4959 0.0279487 10.5097 0.109254C10.5832 0.539778 10.6612 0.969454 10.7359 1.39998C10.8105 1.83022 10.8831 2.26102 10.9568 2.69127C11.018 3.04782 11.0794 3.4041 11.1405 3.76066C11.1959 4.08475 11.251 4.40884 11.3061 4.73294C11.3356 4.90769 11.3276 4.91785 11.1474 4.91785C10.5499 4.91813 9.95242 4.91785 9.35494 4.91785L9.35466 4.91728Z" fill="#FFC00B"/>
<path id="Vector_6" d="M11.3007 8.28295C11.1364 8.1767 11.0016 8.09116 10.8685 8.00293C10.6442 7.85444 10.4195 7.85498 10.1943 8.00454C9.95878 8.1611 9.71925 8.31174 9.48891 8.47529C9.38633 8.54818 9.31 8.53689 9.21229 8.47017C8.9013 8.2574 8.58327 8.05431 8.27174 7.84261C8.20056 7.79419 8.14886 7.79392 8.07849 7.84261C7.90174 7.96554 7.71959 8.08094 7.53906 8.19822C7.50306 8.22162 7.46462 8.24126 7.40724 8.27408C7.39885 8.20521 7.38803 8.15868 7.38803 8.11187C7.38694 7.42593 7.38992 6.74 7.38478 6.05433C7.38397 5.93489 7.4224 5.90208 7.5396 5.90235C8.74838 5.90611 9.95716 5.90557 11.1662 5.90315C11.2704 5.90315 11.3199 5.92413 11.3191 6.0433C11.3143 6.73811 11.317 7.43293 11.3162 8.12774C11.3162 8.16648 11.3086 8.20495 11.3002 8.28268L11.3007 8.28295Z" fill="#FFC00B"/>
<path id="Vector_7" d="M5.26126 15.7363C4.61162 15.7363 3.96198 15.7328 3.31264 15.739C3.16928 15.7404 3.11827 15.7101 3.11915 15.5679C3.12501 14.3682 3.12414 13.1687 3.12032 11.969C3.12003 11.8502 3.14905 11.8042 3.29036 11.8047C4.59432 11.8096 5.89858 11.8096 7.20255 11.8047C7.34737 11.8042 7.38196 11.8485 7.38138 11.9755C7.37698 13.1706 7.37874 14.3658 7.37874 15.5609C7.37874 15.7358 7.37815 15.736 7.18086 15.7363C6.54119 15.7363 5.90122 15.7363 5.26155 15.7363H5.26126ZM5.26126 12.5943C4.87576 12.5943 4.48996 12.5959 4.10446 12.593C4.01211 12.5922 3.97107 12.6187 3.97341 12.7086C3.97811 12.8932 3.97781 13.0781 3.97341 13.2629C3.97136 13.352 4.01065 13.3799 4.10387 13.3796C4.8652 13.3775 5.62683 13.3769 6.38816 13.3802C6.50073 13.3807 6.53093 13.3393 6.52799 13.2435C6.52242 13.0724 6.52067 12.9008 6.52858 12.7297C6.53356 12.6203 6.48637 12.5908 6.37438 12.5922C6.00353 12.597 5.6324 12.594 5.26155 12.594L5.26126 12.5943ZM5.24543 14.9499C5.62624 14.9499 6.00705 14.948 6.38757 14.9513C6.48519 14.9521 6.53063 14.9256 6.52741 14.8287C6.52184 14.6487 6.52184 14.4681 6.52741 14.2878C6.53034 14.192 6.48783 14.1638 6.38874 14.1641C5.62741 14.1665 4.86579 14.1668 4.10446 14.1641C3.99804 14.1636 3.97048 14.2039 3.97283 14.2932C3.97752 14.4689 3.97898 14.6449 3.97254 14.8205C3.96872 14.9221 4.01094 14.9532 4.11765 14.9521C4.49348 14.9478 4.86931 14.9505 5.24513 14.9505L5.24543 14.9499Z" fill="#FFC00B"/>
</g>
</svg>
