<svg width="19" height="19" viewBox="0 0 19 19" fill="none" xmlns="http://www.w3.org/2000/svg">
                                                    <path d="M10.995 9.475c.004-.087.01-.15.01-.21v-3.48c0-.118.06-.177.18-.177h5.143c.18 0 .18 0 .18.177v3.94c0 .065-.01.13-.014.191-2.228-.752-4.216-.389-5.769 1.392-1.623 1.86-1.676 3.949-.527 6.115-.049.005-.1.015-.15.015-3.298.001-6.596 0-9.893.003-.118 0-.155-.035-.155-.154.003-3.845.003-7.69 0-11.534 0-.113.035-.148.147-.147 1.736.002 3.473.003 5.21-.001.124 0 .15.045.15.159a819.003 819.003 0 0 0-.002 3.505c0 .062.006.123.012.218.198-.13.373-.244.546-.36.292-.195.585-.387.872-.59.106-.074.185-.069.29.004.305.214.62.416.928.628.075.051.13.052.205 0 .304-.21.616-.406.917-.62.12-.086.205-.078.323.004.433.3.874.588 1.312.88.018.011.038.018.085.041Zm-3.92 3.619c0-.86-.003-1.72.003-2.58.001-.14-.04-.176-.176-.175-1.719.004-3.437.004-5.156 0-.137 0-.174.038-.174.175.004 1.725.004 3.45 0 5.176 0 .138.038.175.175.175 1.719-.005 3.437-.005 5.156 0 .137 0 .176-.039.175-.177-.006-.864-.003-1.73-.003-2.594Z" fill="#fff"/>
                                                    <path d="M19 14.649a4.362 4.362 0 0 1-4.366 4.35 4.364 4.364 0 0 1-4.355-4.376 4.365 4.365 0 0 1 4.374-4.345A4.364 4.364 0 0 1 19 14.648Zm-2.518-.92c-.03-.038-.052-.072-.08-.101-.105-.108-.212-.213-.318-.32-.137-.136-.141-.136-.28.003-.612.61-1.225 1.22-1.833 1.835-.092.093-.156.093-.247-.002-.217-.226-.446-.442-.664-.667-.084-.087-.148-.102-.235-.006-.107.119-.22.231-.338.338-.09.082-.08.143.002.225.421.415.839.834 1.255 1.255.073.073.127.08.203.004.819-.822 1.64-1.642 2.46-2.463.028-.028.047-.064.075-.102ZM0 4.65l.47-.654c.69-.953 1.383-1.906 2.074-2.859.248-.342.496-.684.742-1.027A.24.24 0 0 1 3.502 0C4.572.003 5.64.002 6.71.002c.155 0 .161.019.122.165-.102.379-.196.76-.294 1.139-.094.363-.192.724-.286 1.087-.091.354-.18.708-.27 1.063-.09.354-.181.708-.27 1.063-.027.111-.086.153-.212.153-1.767-.004-3.534-.002-5.3-.004-.058 0-.115-.01-.199-.019Zm16.509-.002c-.071.009-.122.021-.173.021-1.714.001-3.428 0-5.141.003-.122 0-.165-.035-.183-.162-.056-.392-.133-.782-.198-1.173-.063-.383-.121-.767-.185-1.149-.064-.387-.132-.773-.198-1.16a51.353 51.353 0 0 1-.151-.937c-.004-.025.032-.066.059-.08.029-.015.07-.008.105-.008.885 0 1.771.001 2.657-.003.106 0 .173.036.232.12.927 1.321 1.857 2.642 2.785 3.962.128.181.252.365.39.566Zm-8.097.024H6.696c-.163 0-.174-.006-.138-.156.09-.377.188-.753.283-1.128l.268-1.05.295-1.153c.089-.35.18-.7.261-1.052.021-.09.055-.133.15-.132L9.38 0c.077 0 .116.027.129.104.07.409.144.817.215 1.226l.21 1.227.174 1.016.157.923c.028.166.02.176-.15.176H8.413Zm1.849 3.196c-.156-.101-.284-.183-.41-.266a.536.536 0 0 0-.64.001c-.225.149-.452.292-.671.447-.097.07-.17.059-.263-.005-.295-.202-.597-.395-.893-.596-.068-.046-.117-.046-.184 0-.168.117-.34.227-.512.338-.035.022-.071.041-.126.072-.008-.065-.018-.11-.018-.154 0-.652.002-1.303-.003-1.955 0-.113.036-.144.147-.144 1.148.004 2.297.003 3.446 0 .098 0 .146.02.145.134-.005.66-.002 1.32-.003 1.98 0 .037-.007.073-.015.147ZM4.526 14.95c-.617 0-1.234-.004-1.851.002-.136.001-.185-.027-.184-.162.006-1.14.005-2.28.001-3.42 0-.112.028-.156.162-.156 1.239.005 2.478.005 3.717 0 .137 0 .17.042.17.163-.005 1.135-.003 2.27-.003 3.406 0 .166 0 .166-.188.167H4.527Zm0-2.986c-.366 0-.732.002-1.099 0-.087-.002-.126.024-.124.109.004.175.004.351 0 .527-.002.084.035.11.124.11a301.89 301.89 0 0 1 2.17.001c.107 0 .135-.039.133-.13a6.202 6.202 0 0 1 0-.488c.005-.104-.04-.132-.146-.13-.353.004-.705.001-1.057.001Zm-.015 2.238c.362 0 .724-.001 1.085.002.093 0 .136-.025.133-.117a8.32 8.32 0 0 1 0-.514c.003-.09-.037-.117-.132-.117-.723.002-1.446.002-2.17 0-.1 0-.127.038-.125.123.005.166.006.334 0 .5-.004.097.036.127.138.125.357-.004.714-.001 1.071-.001Z" fill="#fff"/>
                                                  </svg>