<svg width="26" height="23" viewBox="0 0 26 23" fill="none" xmlns="http://www.w3.org/2000/svg">
<g id="Group 1737">
<path id="Vector" d="M22.363 10.4096H16.3083C15.8444 10.409 15.3996 10.2234 15.0716 9.89352C14.7436 9.56361 14.5591 9.11646 14.5586 8.64998V2.79709C14.5591 2.32069 14.7475 1.86393 15.0825 1.52703C15.4175 1.19013 15.8718 1.00059 16.3456 1H22.363C22.8368 1.00059 23.2911 1.19013 23.6261 1.52703C23.9611 1.86393 24.1495 2.32069 24.15 2.79709V8.61244C24.1495 9.08887 23.9611 9.54561 23.6261 9.88253C23.2911 10.2194 22.8368 10.409 22.363 10.4096ZM16.3456 1.74275C16.0676 1.74314 15.8012 1.85436 15.6046 2.05201C15.4081 2.24967 15.2976 2.51761 15.2973 2.79709V8.64998C15.2976 8.91946 15.4042 9.17788 15.5938 9.3685C15.7832 9.55912 16.0402 9.66641 16.3083 9.66683H22.363C22.6409 9.66641 22.9074 9.5552 23.1039 9.3575C23.3004 9.15988 23.4109 8.89194 23.4112 8.61244V2.79709C23.4111 2.51759 23.3005 2.24958 23.1041 2.05191C22.9075 1.85423 22.641 1.74304 22.363 1.74275H16.3456Z" fill="#292929" stroke="#292929" stroke-width="0.6"/>
<path id="Vector_2" d="M21.3813 13.4672H14.7405C14.6425 13.4672 14.5486 13.428 14.4793 13.3583C14.41 13.2887 14.3711 13.1942 14.3711 13.0957V11.4134C14.3718 10.9507 14.5549 10.5072 14.8803 10.18C15.2057 9.85278 15.6469 9.6686 16.1071 9.66797H21.3813C21.8415 9.6686 22.2827 9.85278 22.6081 10.18C22.9335 10.5072 23.1167 10.9507 23.1174 11.4134V11.7213C23.1168 12.184 22.9337 12.6277 22.6083 12.955C22.2829 13.2823 21.8416 13.4665 21.3813 13.4672ZM15.1095 12.7243H21.3813C21.6459 12.7243 21.8995 12.6187 22.0866 12.4307C22.2736 12.2427 22.3786 11.9876 22.3786 11.7216V11.4138C22.3786 11.1479 22.2736 10.8928 22.0866 10.7048C21.8995 10.5167 21.6459 10.4111 21.3813 10.4111H16.1071C15.8426 10.4111 15.589 10.5167 15.402 10.7048C15.2149 10.8928 15.1098 11.1479 15.1098 11.4138L15.1095 12.7243Z" fill="#292929" stroke="#292929" stroke-width="0.6"/>
<path id="Vector_3" d="M23.7045 19.2722H7.42012C7.32219 19.2722 7.22824 19.2331 7.15897 19.1635C7.0897 19.0938 7.05078 18.9993 7.05078 18.9009C7.05078 18.8023 7.0897 18.7079 7.15897 18.6383C7.22824 18.5686 7.32219 18.5295 7.42012 18.5295H23.7045C23.9474 18.5293 24.1807 18.434 24.3549 18.2638C24.5292 18.0936 24.6307 17.8619 24.6379 17.6178C24.0997 14.1101 21.417 13.4862 21.3028 13.4617C21.2069 13.4414 21.123 13.3836 21.0694 13.3011C21.0159 13.2186 20.9971 13.1181 21.0173 13.0216C21.0375 12.9252 21.095 12.8407 21.177 12.7869C21.2592 12.7331 21.3591 12.7143 21.455 12.7345C21.4883 12.7416 24.7668 13.4773 25.3726 17.5368C25.3752 17.5551 25.3766 17.5736 25.3766 17.5921C25.3758 18.0377 25.1994 18.4647 24.886 18.7796C24.5725 19.0946 24.1477 19.2718 23.7045 19.2722Z" fill="#292929" stroke="#292929" stroke-width="0.6"/>
<path id="Vector_4" d="M14.7402 19.2692C14.6706 19.2691 14.6024 19.2493 14.5436 19.212C14.4846 19.1746 14.4375 19.1213 14.4074 19.0582C14.3773 18.9951 14.3656 18.9248 14.3735 18.8553C14.3815 18.7857 14.4089 18.7199 14.4525 18.6653C16.7171 15.828 14.5633 13.4475 14.4706 13.348C14.4036 13.2759 14.368 13.1801 14.3713 13.0816C14.3747 12.983 14.4168 12.8899 14.4885 12.8227C14.5601 12.7554 14.6554 12.7194 14.7534 12.7229C14.8514 12.7262 14.9441 12.7686 15.0109 12.8407C15.0379 12.87 17.6889 15.7975 15.0287 19.1303C14.994 19.1737 14.9501 19.2087 14.9002 19.2328C14.8502 19.2568 14.7956 19.2692 14.7402 19.2692Z" fill="#292929" stroke="#292929" stroke-width="0.6"/>
<path id="Vector_5" d="M19.0422 22.1696C18.1787 22.1686 17.3508 21.8233 16.7402 21.2094C16.1296 20.5954 15.7861 19.7631 15.7852 18.8948C15.7852 18.7963 15.8241 18.7019 15.8933 18.6323C15.9626 18.5626 16.0566 18.5234 16.1545 18.5234C16.2525 18.5234 16.3464 18.5626 16.4157 18.6323C16.485 18.7019 16.5239 18.7963 16.5239 18.8948C16.5199 19.2299 16.582 19.5624 16.7067 19.8732C16.8315 20.1839 17.0163 20.4667 17.2506 20.705C17.4848 20.9434 17.7638 21.1327 18.0713 21.2619C18.3788 21.391 18.7087 21.4575 19.042 21.4575C19.3753 21.4575 19.7053 21.391 20.0129 21.2619C20.3204 21.1327 20.5993 20.9434 20.8336 20.705C21.0678 20.4667 21.2527 20.1839 21.3773 19.8732C21.5021 19.5624 21.5643 19.2299 21.5603 18.8948C21.5603 18.7963 21.5991 18.7019 21.6684 18.6323C21.7377 18.5626 21.8316 18.5234 21.9296 18.5234C22.0276 18.5234 22.1215 18.5626 22.1908 18.6323C22.2601 18.7019 22.299 18.7963 22.299 18.8948C22.2981 19.7631 21.9547 20.5954 21.3441 21.2093C20.7336 21.8233 19.9057 22.1686 19.0422 22.1696Z" fill="#292929" stroke="#292929" stroke-width="0.6"/>
<path id="Vector_6" d="M20.5826 16.3677H18.8772C18.7792 16.3677 18.6852 16.3286 18.616 16.259C18.5467 16.1893 18.5078 16.0948 18.5078 15.9964C18.5078 15.8978 18.5467 15.8034 18.616 15.7338C18.6852 15.6641 18.7792 15.625 18.8772 15.625H20.5818C20.6797 15.625 20.7737 15.6641 20.843 15.7338C20.9122 15.8034 20.9512 15.8978 20.9512 15.9964C20.9512 16.0948 20.9122 16.1893 20.843 16.259C20.7737 16.3286 20.6797 16.3677 20.5818 16.3677H20.5826Z" fill="#292929" stroke="#292929" stroke-width="0.6"/>
<path id="Vector_7" d="M4.39782 22.311C3.72639 22.3116 3.06988 22.112 2.51128 21.7375C1.95268 21.3629 1.51709 20.8302 1.25959 20.2067C1.00209 19.5833 0.934242 18.8971 1.06463 18.2349C1.19502 17.5726 1.51778 16.9641 1.99212 16.4863C2.46644 16.0086 3.07104 15.6829 3.72944 15.5506C4.38783 15.4183 5.07048 15.4852 5.69104 15.7429C6.3116 16.0007 6.84221 16.4376 7.21577 16.9986C7.58931 17.5595 7.78907 18.2192 7.7897 18.8943C7.78879 19.7991 7.43127 20.6666 6.79557 21.307C6.15985 21.9473 5.29768 22.3084 4.39782 22.311ZM4.39782 16.2275C3.87222 16.2269 3.35827 16.3831 2.921 16.6764C2.48374 16.9696 2.14284 17.3866 1.94146 17.8748C1.74006 18.3629 1.68723 18.9002 1.78966 19.4184C1.89208 19.9368 2.14515 20.4129 2.51683 20.7866C2.88852 21.1602 3.3621 21.4146 3.87763 21.5175C4.39317 21.6204 4.92749 21.5672 5.41294 21.3647C5.8984 21.1621 6.31318 20.8193 6.60477 20.3796C6.89636 19.94 7.05165 19.4231 7.05099 18.8947C7.04923 18.1878 6.76913 17.5104 6.27193 17.0105C5.77474 16.5107 5.10091 16.2292 4.39782 16.2275Z" fill="#292929" stroke="#292929" stroke-width="0.6"/>
<path id="Vector_8" d="M10.026 19.2671C9.96804 19.2671 9.91085 19.2534 9.8591 19.227C9.80735 19.2006 9.76249 19.1624 9.72822 19.1154C9.69389 19.0684 9.67111 19.0139 9.66157 18.9564C9.65209 18.8989 9.65627 18.8399 9.67362 18.7843C9.85144 18.2226 9.90619 17.6288 9.83424 17.0438C9.76221 16.4587 9.56517 15.8963 9.25654 15.3951C8.94791 14.8939 8.53508 14.4658 8.04633 14.1401C7.55764 13.8146 7.00459 13.5991 6.42523 13.5087C5.84587 13.4183 5.25391 13.4549 4.68999 13.6163C4.12607 13.7776 3.60356 14.0597 3.15834 14.4432C2.71311 14.8268 2.35572 15.3026 2.11069 15.8382C1.86567 16.3738 1.73883 16.9563 1.73887 17.5457C1.73623 17.76 1.75616 17.9741 1.79834 18.1841C1.8038 18.2093 1.80652 18.2349 1.80646 18.2606C1.80656 18.3594 1.76777 18.4543 1.69857 18.5244C1.62936 18.5945 1.53536 18.6343 1.4371 18.635C1.34724 18.6352 1.26038 18.6025 1.1928 18.5429C1.12521 18.4834 1.08154 18.4011 1.06995 18.3115C1.0214 18.0592 0.998009 17.8027 1.00013 17.5457C1.00026 16.8492 1.1503 16.1609 1.43994 15.5281C1.72958 14.8954 2.15197 14.3332 2.67812 13.88C3.20427 13.4269 3.8217 13.0936 4.48805 12.903C5.1544 12.7124 5.85387 12.6691 6.53846 12.7759C7.22305 12.8827 7.87651 13.1372 8.45407 13.522C9.03156 13.9067 9.51948 14.4125 9.88425 15.0047C10.249 15.5968 10.482 16.2614 10.5673 16.9526C10.6524 17.6439 10.5879 18.3455 10.378 19.0093C10.3541 19.0843 10.3071 19.1496 10.2438 19.1959C10.1805 19.2422 10.1043 19.2672 10.026 19.2671Z" fill="#292929" stroke="#292929" stroke-width="0.6"/>
<path id="Vector_9" d="M10.2331 17.9178C10.1351 17.9178 10.0412 17.8787 9.97195 17.809C9.90265 17.7394 9.86378 17.645 9.86378 17.5464V10.6248C9.87534 9.92452 9.6466 9.24172 9.21601 8.69128C8.78542 8.1409 8.1793 7.7565 7.49977 7.60286L7.47505 7.59837L6.16009 13.1817C6.14971 13.2299 6.12988 13.2756 6.10173 13.3161C6.07358 13.3565 6.0377 13.3909 5.99617 13.4173C5.95464 13.4437 5.9083 13.4614 5.85987 13.4695C5.81143 13.4776 5.76187 13.476 5.71409 13.4646C5.6663 13.4532 5.62125 13.4324 5.58155 13.4034C5.54186 13.3743 5.50834 13.3376 5.48294 13.2953C5.45754 13.253 5.44078 13.2061 5.43362 13.1573C5.42648 13.1084 5.42908 13.0586 5.4413 13.0109L6.8316 7.10224C6.85093 7.01518 6.90126 6.93823 6.9731 6.8859C7.04495 6.83357 7.13335 6.80947 7.22165 6.81814C7.35928 6.82927 7.49622 6.84737 7.63204 6.87236C8.48536 7.05005 9.24972 7.52274 9.79239 8.20827C10.3351 8.89374 10.6217 9.74882 10.6025 10.6248V17.5464C10.6025 17.645 10.5636 17.7394 10.4943 17.809C10.425 17.8787 10.3311 17.9178 10.2331 17.9178Z" fill="#292929" stroke="#292929" stroke-width="0.6"/>
<path id="Vector_10" d="M11.7523 7.56145H5.80296C5.70499 7.56145 5.61105 7.52237 5.54178 7.45269C5.47251 7.38308 5.43359 7.28859 5.43359 7.1901V4.14482C5.43359 4.04632 5.47251 3.95186 5.54178 3.88222C5.61105 3.81257 5.70499 3.77344 5.80296 3.77344H7.04663C7.60356 3.77413 8.13752 3.99691 8.53133 4.39293C8.92515 4.78894 9.14664 5.32583 9.1472 5.88583V6.81724H11.7523C11.8503 6.81724 11.9443 6.85637 12.0135 6.92601C12.0828 6.99566 12.1218 7.09012 12.1218 7.18861C12.1218 7.28711 12.0828 7.38154 12.0135 7.45122C11.9443 7.52083 11.8503 7.55998 11.7523 7.55998V7.56145ZM6.17233 6.81872H8.40847V5.88731C8.40812 5.52425 8.26449 5.17616 8.00922 4.9194C7.75387 4.66264 7.4077 4.51817 7.04663 4.51768H6.17233V6.81872Z" fill="#292929" stroke="#292929" stroke-width="0.6"/>
<path id="Vector_11" d="M23.7806 4.78572H14.928C14.83 4.78572 14.7361 4.74659 14.6668 4.67695C14.5975 4.6073 14.5586 4.51284 14.5586 4.41434C14.5586 4.31584 14.5975 4.22139 14.6668 4.15174C14.7361 4.0821 14.83 4.04297 14.928 4.04297H23.7806C23.8786 4.04297 23.9725 4.0821 24.0418 4.15174C24.1111 4.22139 24.15 4.31584 24.15 4.41434C24.15 4.51284 24.1111 4.6073 24.0418 4.67695C23.9725 4.74659 23.8786 4.78572 23.7806 4.78572Z" fill="#292929" stroke="#292929" stroke-width="0.6"/>
</g>
</svg>
