<svg xmlns="http://www.w3.org/2000/svg" width="17" height="10" viewBox="0 0 17 10" fill="none">
  <g clip-path="url(#clip0_476_42883)" transform="rotate(180, 8.5, 5)">
    <path d="M8.55439 2.70064e-05C8.32941 -0.00123943 8.10639 0.0407738 7.89811 0.123659C7.68983 0.206542 7.50039 0.328667 7.34066 0.48303L0.502743 7.14514C0.180842 7.45876 -3.46587e-07 7.88413 -2.73935e-07 8.32766C-2.01283e-07 8.77119 0.180842 9.19656 0.502744 9.51018C0.824645 9.82381 1.26124 10 1.71647 10C2.17171 10 2.6083 9.82381 2.9302 9.51018L8.55439 4.01394L14.1786 9.49353C14.5056 9.76638 14.9263 9.90896 15.3565 9.89277C15.7867 9.87658 16.1949 9.70281 16.4993 9.40619C16.8038 9.10957 16.9821 8.71194 16.9987 8.29277C17.0153 7.8736 16.869 7.46375 16.5889 7.14513L9.75102 0.483029C9.43261 0.175333 9.00285 0.00186751 8.55439 2.70064e-05Z" fill="#949494"/>
  </g>
  <defs>
    <clipPath id="clip0_476_42883">
      <rect width="17" height="10" fill="white" transform="translate(17 10) rotate(180)"/>
    </clipPath>
  </defs>
</svg>
