<svg width="14" height="14" viewBox="0 0 14 14" fill="none" xmlns="http://www.w3.org/2000/svg">
<g id="Group 2498">
<path id="Vector" d="M6.22405 8.23868C6.22405 8.05662 6.22405 7.9593 6.22405 7.86198C6.22405 5.51208 6.22186 3.16274 6.22623 0.812841C6.22733 0.174794 6.86428 -0.203551 7.38915 0.115199C7.67236 0.287423 7.77078 0.550405 7.76968 0.87845C7.76367 3.20976 7.7664 5.54161 7.7664 7.87291C7.7664 7.96914 7.7664 8.06536 7.7664 8.219C7.87684 8.11785 7.943 8.06099 8.00478 7.99976C8.49466 7.51097 8.98236 7.02 9.47388 6.5323C9.85441 6.1545 10.3279 6.12662 10.6565 6.45849C10.9796 6.78435 10.9572 7.24799 10.5876 7.61922C9.59197 8.61976 8.59417 9.61866 7.59254 10.6132C7.22185 10.9811 6.79047 10.997 6.43235 10.6432C5.40284 9.62522 4.37989 8.59953 3.36021 7.5722C3.08356 7.29337 3.03381 6.95603 3.1951 6.64766C3.34873 6.35406 3.65163 6.17309 3.98897 6.24745C4.17978 6.28955 4.37661 6.4071 4.51985 6.54378C5.07917 7.0774 5.61826 7.6318 6.22459 8.23868H6.22405Z" fill="#292929"/>
<path id="Vector_2" d="M6.98997 13.9993C5.71497 13.9993 4.43997 13.9998 3.16496 13.9993C1.36892 13.9982 0.00261221 12.6335 0.000971985 10.8408C0.000971985 10.6133 -0.00121498 10.3853 0.000971985 10.1579C0.00589266 9.67893 0.320269 9.34706 0.768597 9.34378C1.22731 9.3405 1.5313 9.64886 1.54934 10.1404C1.56083 10.4586 1.5477 10.779 1.58051 11.095C1.65268 11.7904 2.20489 12.3366 2.89597 12.4225C2.99547 12.4351 3.09498 12.4493 3.19503 12.4493C5.72645 12.4509 8.25841 12.4575 10.7898 12.4471C11.8035 12.4433 12.4284 11.7965 12.4448 10.7806C12.4486 10.5439 12.4377 10.3066 12.4525 10.0704C12.4792 9.62589 12.8029 9.33503 13.2436 9.34432C13.6099 9.35198 13.9615 9.61879 13.9801 9.98346C14.0123 10.6078 14.0473 11.236 13.8445 11.8495C13.4207 13.1305 12.2447 13.9971 10.8975 13.9993C9.59519 14.0015 8.29285 13.9993 6.99051 13.9993H6.98997Z" fill="#292929"/>
</g>
</svg>
