<svg width="56" height="57" viewBox="0 0 56 57" fill="none" xmlns="http://www.w3.org/2000/svg">
<g id="Fast" clip-path="url(#clip0_1830_18611)">
<path id="Vector" d="M31.7329 49.3252C22.3996 53.4085 11.4912 49.1502 7.4079 39.8169C3.32457 30.4835 7.5829 19.5752 16.9162 15.4919C21.5829 13.4502 26.6579 13.5086 31.0329 15.2002L32.9579 10.2419C27.2996 8.02522 20.7662 7.96688 14.7579 10.5919C2.74123 15.8419 -2.7421 29.9002 2.5079 41.9169C7.7579 53.9335 21.8162 59.4169 33.8329 54.1669C45.8496 48.9169 51.3329 34.8585 46.0829 22.8419L41.2412 25.0002C45.3246 34.3335 41.0662 45.2419 31.7329 49.3252Z" fill="#F8B602"/>
<path id="Vector_2" d="M38.8516 7.26693C43.2849 8.95859 47.0182 12.4003 49.0599 17.0669L53.9016 14.9086C51.2766 8.90026 46.4932 4.52526 40.7766 2.30859L38.8516 7.26693Z" fill="#A6C44A"/>
<path id="Vector_3" d="M48.4737 18.5827L48.007 17.5327C46.1404 13.2743 42.757 10.066 38.4404 8.37435L37.332 7.90768L40.132 0.791016L41.2404 1.19935C47.4237 3.64935 52.3237 8.31602 55.007 14.441L55.4737 15.491L48.4737 18.5827ZM40.3654 6.62435C44.3904 8.49102 47.5987 11.5827 49.6404 15.5493L52.382 14.3827C50.0487 9.71601 46.257 6.04102 41.4737 3.88268L40.3654 6.62435Z" fill="#2E2E2E"/>
<path id="Vector_4" d="M49.0573 17.0676C47.0156 12.4009 43.2823 9.01758 38.849 7.26758L32.1406 24.4759L49.0573 17.0676Z" fill="#F8B602"/>
<path id="Vector_5" d="M30.043 26.6917L38.2096 5.75L39.318 6.15833C44.218 8.08333 48.068 11.7583 50.168 16.6L50.6346 17.65L30.043 26.6917ZM39.493 8.78333L34.243 22.2583L47.4846 16.4833C45.7346 13.1 42.9346 10.4167 39.493 8.78333Z" fill="#2E2E2E"/>
<path id="Vector_6" d="M24.3268 52.067C16.7435 52.067 9.51016 47.692 6.30183 40.2837C1.92683 30.367 6.47683 18.7587 16.3935 14.3837C21.1768 12.2837 26.5435 12.167 31.4435 14.092L32.5518 14.5004L26.4268 30.192L41.8268 23.4254L42.2935 24.4754C44.3935 29.2587 44.5102 34.6254 42.5852 39.5254C40.6602 44.4254 36.9852 48.2754 32.1435 50.3754C29.6352 51.542 27.0102 52.067 24.3268 52.067ZM8.46016 39.3504C12.3102 48.1004 22.5185 52.067 31.2685 48.2754C35.5268 46.4087 38.7352 43.0254 40.4268 38.7087C41.9435 34.742 42.0018 30.4837 40.6018 26.5754L22.2268 34.6254L29.5185 15.9004C25.5518 14.617 21.2352 14.8504 17.3852 16.542C8.63516 20.392 4.6685 30.6004 8.46016 39.3504Z" fill="#2E2E2E"/>
<path id="Vector_7" d="M17.9089 45.0091C19.5197 45.0091 20.8255 43.7033 20.8255 42.0924C20.8255 40.4816 19.5197 39.1758 17.9089 39.1758C16.298 39.1758 14.9922 40.4816 14.9922 42.0924C14.9922 43.7033 16.298 45.0091 17.9089 45.0091Z" fill="#A6C44A"/>
<path id="Vector_8" d="M17.9071 46.1741C16.3321 46.1741 14.8155 45.2407 14.1155 43.7241C13.6488 42.7324 13.6488 41.6241 14.0571 40.5741C14.4655 39.5241 15.2238 38.7657 16.2155 38.2991C17.2071 37.8324 18.3155 37.8324 19.3655 38.2407C20.4155 38.6491 21.1738 39.4074 21.6405 40.3991C22.1071 41.3907 22.1071 42.4991 21.6988 43.5491C21.2905 44.5991 20.5321 45.3574 19.5405 45.8241C19.0155 46.0574 18.4321 46.1741 17.9071 46.1741ZM17.9071 40.2824C17.6738 40.2824 17.4405 40.3407 17.2071 40.4574C16.7988 40.6324 16.4488 40.9824 16.2738 41.4491C16.0988 41.9157 16.0988 42.3824 16.2738 42.7907C16.6821 43.6657 17.7321 44.0741 18.6071 43.7241C19.0155 43.5491 19.3655 43.1991 19.5405 42.7324C19.7155 42.2657 19.7155 41.7991 19.5405 41.3907C19.3655 40.9824 19.0155 40.6324 18.5488 40.4574C18.3155 40.3407 18.0821 40.2824 17.9071 40.2824Z" fill="#A6C44A"/>
<path id="Vector_9" d="M15.9846 26.6333C17.4022 26.6333 18.5513 25.4842 18.5513 24.0667C18.5513 22.6491 17.4022 21.5 15.9846 21.5C14.5671 21.5 13.418 22.6491 13.418 24.0667C13.418 25.4842 14.5671 26.6333 15.9846 26.6333Z" fill="#A6C44A"/>
<path id="Vector_10" d="M15.9825 27.8C15.5158 27.8 15.0491 27.7416 14.6408 27.5666C13.7075 27.2166 13.0075 26.5166 12.5991 25.5833C12.1908 24.65 12.1908 23.6583 12.5408 22.725C12.8908 21.7916 13.5908 21.0916 14.5241 20.6833C16.3908 19.8666 18.6075 20.7416 19.4241 22.6083C20.2408 24.475 19.3658 26.6916 17.4991 27.5083C17.0325 27.6833 16.5075 27.8 15.9825 27.8ZM15.9825 22.725C15.8075 22.725 15.6325 22.7833 15.4575 22.8416C15.1075 23.0166 14.8741 23.25 14.6991 23.6C14.5825 23.95 14.5825 24.3 14.6991 24.65C14.8158 25 15.1075 25.2333 15.4575 25.4083C15.8075 25.525 16.1575 25.525 16.5075 25.4083C17.2075 25.1166 17.4991 24.3 17.2075 23.6C17.0325 23.0166 16.5075 22.725 15.9825 22.725Z" fill="#A6C44A"/>
<path id="Vector_11" d="M32.9576 44.3658C32.4909 44.3658 32.0826 44.3074 31.6159 44.1324C30.6826 43.7824 29.9826 43.0824 29.5742 42.2074L31.7326 41.2741C31.8492 41.6241 32.1409 41.8574 32.4326 41.9741C32.7826 42.0908 33.1326 42.0908 33.4242 41.9741C34.0659 41.6824 34.4159 40.9241 34.1242 40.2241L36.2826 39.2908C37.0992 41.1574 36.2242 43.3158 34.4159 44.1324C33.9492 44.3074 33.4826 44.3658 32.9576 44.3658ZM40.5409 18.1158C39.1409 18.1158 37.7992 17.2991 37.1576 15.8991L39.3159 14.9658C39.6076 15.6074 40.3659 15.9574 41.0659 15.6658C41.7076 15.3741 42.0576 14.6158 41.7659 13.9158L43.9242 12.9824C44.7409 14.8491 43.8659 17.0074 42.0576 17.8241C41.5326 18.0574 41.0659 18.1158 40.5409 18.1158Z" fill="#2E2E2E"/>
<path id="Vector_12" d="M10.8695 33.9202L8.54688 33.6973L8.37965 35.4392L10.7022 35.6622L10.8695 33.9202Z" fill="#2E2E2E"/>
<path id="Vector_13" d="M13.5328 38.7081L11.2578 38.2414C11.3745 37.5997 11.6661 36.9581 12.0745 36.4331L13.9411 37.8331C13.7078 38.1247 13.5911 38.4164 13.5328 38.7081ZM16.4495 33.5747L14.5245 32.2331C14.8161 31.7664 15.2245 31.4164 15.6911 31.0664L17.0328 32.9914C16.7995 33.1081 16.6245 33.3414 16.4495 33.5747Z" fill="#2E2E2E"/>
<path id="Vector_14" d="M23.1201 27.3707L21.0117 26.3711L20.4869 27.478L22.5953 28.4776L23.1201 27.3707Z" fill="#2E2E2E"/>
<path id="Vector_15" d="M42.0433 11.4382L39.9336 10.4414L39.4103 11.549L41.52 12.5458L42.0433 11.4382Z" fill="#2E2E2E"/>
<path id="Vector_16" d="M26.0183 21.266L23.685 20.8577C23.8017 20.2743 24.035 19.691 24.385 19.2243L26.31 20.566C26.135 20.741 26.0767 21.0327 26.0183 21.266ZM21.76 19.691L19.485 19.0493C19.66 18.466 19.9517 17.8827 20.4183 17.416L22.11 19.0493C21.9934 19.2243 21.8183 19.4577 21.76 19.691ZM9.45168 28.3243C9.21835 27.6827 9.21835 26.9827 9.56835 26.341L11.6683 27.4493L9.45168 28.3243Z" fill="#2E2E2E"/>
<path id="Vector_17" d="M23.6112 38.3818L22.6758 36.2441L21.7673 36.6417L22.7027 38.7793L23.6112 38.3818Z" fill="#2E2E2E"/>
<path id="Vector_18" d="M26.1485 42.9433L25.2109 40.8066L24.3028 41.2051L25.2404 43.3418L26.1485 42.9433Z" fill="#2E2E2E"/>
<path id="Vector_19" d="M24.923 47.341L24.457 45.0547L23.0281 45.3459L23.494 47.6322L24.923 47.341Z" fill="#2E2E2E"/>
<path id="Vector_20" d="M31.3677 46.5827L30.1133 44.6152L28.4901 45.6501L29.7445 47.6176L31.3677 46.5827Z" fill="#2E2E2E"/>
<path id="Vector_21" d="M26.7734 38.3581C26.7734 37.5414 27.1234 36.7831 27.7651 36.3164L29.2234 38.1831C29.1651 38.1831 29.1651 38.2414 29.1651 38.2997L26.7734 38.3581Z" fill="#2E2E2E"/>
<path id="Vector_22" d="M33.0219 32.8026L31.707 30.875L30.5023 31.6968L31.8171 33.6244L33.0219 32.8026Z" fill="#2E2E2E"/>
<g id="Group">
<path id="Vector_23" d="M34.0089 38.0667L33.3672 35.7917C33.5422 35.7333 33.7755 35.6167 33.8922 35.5L35.4089 37.3083C35.0005 37.6583 34.5339 37.8917 34.0089 38.0667Z" fill="#2E2E2E"/>
</g>
<g id="Group_2">
<path id="Vector_24" d="M39.4233 32.059L37.7305 30.4531L36.4056 31.8497L38.0985 33.4556L39.4233 32.059Z" fill="#2E2E2E"/>
</g>
<g id="Group_3">
<path id="Vector_25" d="M20.6916 33.95L18.6445 32.8301L18.2526 33.5465L20.2996 34.6664L20.6916 33.95Z" fill="#2E2E2E"/>
</g>
<g id="Group_4">
<path id="Vector_26" d="M38.6091 19.025L36.5625 17.9043L36.1702 18.6206L38.2168 19.7413L38.6091 19.025Z" fill="#2E2E2E"/>
</g>
</g>
<defs>
<clipPath id="clip0_1830_18611">
<rect width="56" height="56" fill="white" transform="translate(0 0.5)"/>
</clipPath>
</defs>
</svg>
