 <svg width="22" height="20" viewBox="0 0 22 20" fill="none" xmlns="http://www.w3.org/2000/svg">
                    <path d="M11.7905 1.82308L11.7902 1.8233C11.5031 2.05799 11.2207 2.30746 10.9468 2.54978C8.64995 -0.0915376 4.6793 -0.20716 2.25237 2.35955L2.25232 2.35959C0.4442 4.27233 -0.0130138 7.3889 1.10781 9.86143L1.10788 9.86158C1.75297 11.2834 2.69966 12.4819 3.81607 13.5044L3.81627 13.5045C5.15565 14.7299 6.52448 15.9275 7.88859 17.121C8.46281 17.6234 9.03619 18.1251 9.60618 18.6278L9.60621 18.6278C10.03 19.0015 10.4726 19.2846 10.9878 19.2843C11.5014 19.284 11.9445 19.0018 12.3688 18.6335L12.3688 18.6335C12.837 18.2271 13.3173 17.8162 13.7991 17.404C14.3708 16.9149 14.9449 16.4238 15.5039 15.9358L15.5039 15.9358C15.6168 15.8372 15.7302 15.7385 15.8439 15.6395C17.2162 14.445 18.6353 13.2097 19.7761 11.691C21.4889 9.41137 22.0466 6.87673 20.8837 4.13274L20.4233 4.32784L20.8837 4.13273C19.3398 0.49 14.8253 -0.654354 11.7905 1.82308Z" stroke="#AFAFAF" />
                  </svg>