 <svg xmlns="http://www.w3.org/2000/svg" width="40" height="40"
                                        viewBox="0 0 40 40" fill="none">
                                        <g clip-path="url(#clip0_1924_32128)">
                                            <path
                                                d="M8 25.5293C8.08596 20.6719 12.3475 14.7879 19.4054 14.7059C26.4207 14.6249 30.9332 20.3982 31.0696 25.5293H8Z"
                                                fill="#FFC00B" />
                                            <path
                                                d="M19.6511 27.043C23.5016 27.043 27.3522 27.043 31.2027 27.043C32.1216 27.043 32.421 27.4007 32.2599 28.3018C31.9774 29.8718 30.7225 30.9844 29.1277 30.9884C22.809 31.0032 16.4903 31.0032 10.1715 30.9884C8.56292 30.9844 7.28139 29.8303 7.0314 28.2514C6.89604 27.3967 7.19147 27.044 8.0511 27.044C11.9184 27.043 15.7848 27.044 19.6521 27.044L19.6511 27.043Z"
                                                fill="#FFD258" />
                                            <path
                                                d="M21.5815 13.2777H17.732C17.563 12.6226 17.8436 11.8598 18.4622 11.3944C19.1084 10.9083 19.9986 10.8678 20.6873 11.2937C21.3869 11.7274 21.711 12.4655 21.5825 13.2777H21.5815Z"
                                                fill="#FFC00B" />
                                            <path
                                                d="M19.5305 2.95889C19.8343 2.65508 20.0631 2.39318 20.325 2.17143C21.0417 1.56295 22.0736 1.5839 22.7502 2.20112C23.4268 2.81833 23.5935 3.89475 22.9684 4.59839C21.9741 5.71846 20.8863 6.75733 19.8117 7.80407C19.7191 7.89486 19.3577 7.86518 19.2486 7.75955C18.1992 6.74511 17.1516 5.72544 16.1564 4.65863C15.5313 3.98991 15.6378 2.90039 16.2961 2.25088C16.9613 1.59612 17.9967 1.54025 18.7064 2.14175C18.9832 2.37659 19.225 2.65333 19.5297 2.95801L19.5305 2.95889Z"
                                                fill="#FFC00B" />
                                            <path
                                                d="M10.3493 8.77905C10.5702 8.58612 10.7317 8.43334 10.9054 8.29453C11.4746 7.84057 12.2481 7.87898 12.7484 8.37922C13.2486 8.87945 13.3219 9.69309 12.8374 10.2213C12.1451 10.9764 11.4135 11.6975 10.6601 12.3916C10.5475 12.4954 10.1433 12.4562 10.0097 12.3331C9.31482 11.6958 8.64697 11.0279 8.0027 10.34C7.42215 9.71928 7.44746 8.89778 8.01143 8.35826C8.56928 7.82486 9.3707 7.85279 9.99751 8.42898C10.1023 8.52501 10.1983 8.62977 10.3476 8.77905L10.3493 8.77905Z"
                                                fill="#FFC00B" />
                                            <path
                                                d="M29.0198 8.77905C28.7989 8.58612 28.6374 8.43334 28.4637 8.29453C27.8945 7.84057 27.121 7.87898 26.6208 8.37922C26.1206 8.87945 26.0472 9.69309 26.5317 10.2213C27.224 10.9764 27.9556 11.6975 28.709 12.3916C28.8216 12.4954 29.2258 12.4562 29.3594 12.3331C30.0543 11.6958 30.7222 11.0279 31.3664 10.34C31.947 9.71928 31.9217 8.89778 31.3577 8.35826C30.7999 7.82486 29.9984 7.85279 29.3716 8.42898C29.2669 8.52501 29.1708 8.62977 29.0216 8.77905L29.0198 8.77905Z"
                                                fill="#FFC00B" />
                                            <path
                                                d="M8 25.5293C8.08596 20.6719 12.3475 14.7879 19.4054 14.7059C26.4207 14.6249 30.9332 20.3982 31.0696 25.5293H8Z"
                                                fill="#FFC00B" />
                                            <path
                                                d="M19.6511 27.043C23.5016 27.043 27.3522 27.043 31.2027 27.043C32.1216 27.043 32.421 27.4007 32.2599 28.3018C31.9774 29.8718 30.7225 30.9844 29.1277 30.9884C22.809 31.0032 16.4903 31.0032 10.1715 30.9884C8.56292 30.9844 7.28139 29.8303 7.0314 28.2514C6.89604 27.3967 7.19147 27.044 8.0511 27.044C11.9184 27.043 15.7848 27.044 19.6521 27.044L19.6511 27.043Z"
                                                fill="#FFD258" />
                                            <path
                                                d="M21.5815 13.2777H17.732C17.563 12.6226 17.8436 11.8598 18.4622 11.3944C19.1084 10.9083 19.9986 10.8678 20.6873 11.2937C21.3869 11.7274 21.711 12.4655 21.5825 13.2777H21.5815Z"
                                                fill="#FFC00B" />
                                        </g>
                                        <defs>
                                            <clipPath id="clip0_1924_32128">
                                                <rect width="40" height="40" fill="white" />
                                            </clipPath>
                                        </defs>
                                    </svg>