<svg width="26" height="30" viewBox="0 0 26 30" fill="none" xmlns="http://www.w3.org/2000/svg">
<path d="M1 24.5293C1.08596 19.6719 5.3475 13.7879 12.4054 13.7059C19.4207 13.6249 23.9332 19.3982 24.0696 24.5293H1Z" fill="#191919"/>
<path d="M12.6511 26.043C16.5016 26.043 20.3522 26.043 24.2027 26.043C25.1216 26.043 25.421 26.4007 25.2599 27.3018C24.9774 28.8718 23.7225 29.9844 22.1277 29.9884C15.809 30.0032 9.4903 30.0032 3.1715 29.9884C1.56292 29.9844 0.28139 28.8303 0.0313996 27.2514C-0.10396 26.3967 0.191469 26.044 1.0511 26.044C4.9184 26.043 8.7848 26.044 12.6521 26.044L12.6511 26.043Z" fill="#191919"/>
<path d="M14.5815 12.2777H10.732C10.563 11.6226 10.8436 10.8598 11.4622 10.3944C12.1084 9.9083 12.9986 9.8678 13.6873 10.2937C14.3869 10.7274 14.711 11.4655 14.5825 12.2777H14.5815Z" fill="#191919"/>
<path d="M12.5305 1.95933C12.8343 1.65552 13.0631 1.39363 13.325 1.17188C14.0417 0.563395 15.0736 0.584345 15.7502 1.20156C16.4268 1.81877 16.5935 2.8952 15.9684 3.59883C14.9741 4.7189 13.8863 5.75777 12.8117 6.80451C12.7191 6.8953 12.3577 6.86562 12.2486 6.75999C11.1992 5.74556 10.1516 4.72588 9.15637 3.65907C8.53127 2.99035 8.63777 1.90083 9.29607 1.25132C9.96127 0.596565 10.9967 0.540695 11.7064 1.14219C11.9832 1.37703 12.225 1.65377 12.5297 1.95845L12.5305 1.95933Z" fill="#191919"/>
<path d="M3.34928 7.77989C3.57018 7.58696 3.73168 7.43418 3.90538 7.29537C4.47458 6.84141 5.24808 6.87982 5.74838 7.38006C6.24858 7.88029 6.32188 8.69393 5.83738 9.22214C5.14508 9.97724 4.41348 10.6983 3.66008 11.3924C3.54748 11.4962 3.14328 11.457 3.00968 11.3339C2.3148 10.6966 1.64695 10.0287 1.00268 9.34084C0.422134 8.72012 0.447444 7.89862 1.01141 7.3591C1.56926 6.8257 2.37068 6.85363 2.99749 7.42982C3.10228 7.52585 3.19828 7.63061 3.34758 7.77989H3.34928Z" fill="#191919"/>
<path d="M22.0198 7.77989C21.7989 7.58696 21.6374 7.43418 21.4637 7.29537C20.8945 6.84141 20.121 6.87982 19.6208 7.38006C19.1206 7.88029 19.0472 8.69393 19.5317 9.22214C20.224 9.97724 20.9556 10.6983 21.709 11.3924C21.8216 11.4962 22.2258 11.457 22.3594 11.3339C23.0543 10.6966 23.7222 10.0287 24.3664 9.34084C24.947 8.72012 24.9217 7.89862 24.3577 7.3591C23.7999 6.8257 22.9984 6.85363 22.3716 7.42982C22.2669 7.52585 22.1708 7.63061 22.0216 7.77989H22.0198Z" fill="#191919"/>
<path d="M1 24.5293C1.08596 19.6719 5.3475 13.7879 12.4054 13.7059C19.4207 13.6249 23.9332 19.3982 24.0696 24.5293H1Z" fill="#191919"/>
<path d="M12.6511 26.043C16.5016 26.043 20.3522 26.043 24.2027 26.043C25.1216 26.043 25.421 26.4007 25.2599 27.3018C24.9774 28.8718 23.7225 29.9844 22.1277 29.9884C15.809 30.0032 9.4903 30.0032 3.1715 29.9884C1.56292 29.9844 0.28139 28.8303 0.0313996 27.2514C-0.10396 26.3967 0.191469 26.044 1.0511 26.044C4.9184 26.043 8.7848 26.044 12.6521 26.044L12.6511 26.043Z" fill="#828282"/>
<path d="M14.5815 12.2777H10.732C10.563 11.6226 10.8436 10.8598 11.4622 10.3944C12.1084 9.9083 12.9986 9.8678 13.6873 10.2937C14.3869 10.7274 14.711 11.4655 14.5825 12.2777H14.5815Z" fill="#828282"/>
</svg>
