<svg width="22" height="20" viewBox="0 0 22 20" fill="none" xmlns="http://www.w3.org/2000/svg">
<path d="M9.93692 18.2528C10.7426 18.9633 11.2314 18.9586 12.0411 18.2559C12.5184 17.8416 12.9987 17.4307 13.479 17.0198C14.0459 16.5349 14.6129 16.0499 15.175 15.5591C15.2862 15.462 15.3976 15.3651 15.5089 15.2681C16.8886 14.0669 18.2688 12.8652 19.3763 11.3906L9.93692 18.2528ZM9.93692 18.2528C9.36369 17.7472 8.78847 17.244 8.21327 16.7407ZM9.93692 18.2528L8.21327 16.7407ZM8.21327 16.7407C8.24501 16.7685 8.27755 16.7971 8.24501 16.7685L8.21327 16.7407ZM10.9468 2.54981C8.64997 -0.0915089 4.67932 -0.207131 2.25239 2.35958C0.444268 4.27232 -0.0129957 7.38893 1.10783 9.86146C1.75292 11.2833 2.69968 12.4819 3.81609 13.5044C5.15547 14.7298 6.52452 15.9276 7.88863 17.121C8.46284 17.6234 9.03621 18.1251 9.6062 18.6278C10.03 19.0015 10.4726 19.2846 10.9878 19.2843C11.5014 19.284 11.9445 19.0018 12.3688 18.6335C12.837 18.2271 13.3173 17.8162 13.7991 17.404C14.3709 16.9148 14.9449 16.4238 15.5039 15.9358C15.6168 15.8372 15.7302 15.7385 15.8439 15.6395C17.2162 14.445 18.6353 13.2097 19.7761 11.691C21.4889 9.4114 22.0466 6.87676 20.8837 4.13277C19.3398 0.490039 14.8253 -0.654325 11.7905 1.82311C11.5034 2.0578 11.2207 2.30749 10.9468 2.54981ZM11.2663 2.9348C11.2147 2.87338 11.5483 3.06019 11.5 3C11.5 3 11.5475 2.68607 11.2726 2.92928C11.3234 2.88179 11.2684 2.93296 11.2663 2.9348Z" fill="#FF5545"/>
</svg>
