<svg width="22" height="20" viewBox="0 0 22 20" fill="none" xmlns="http://www.w3.org/2000/svg">
                    <path d="M9.9369 18.2528C10.7426 18.9633 11.2314 18.9586 12.0411 18.2559C12.5184 17.8416 12.9987 17.4307 13.479 17.0198C14.0459 16.5349 14.6129 16.0499 15.175 15.5591C15.2862 15.462 15.3976 15.3651 15.5089 15.2681C16.8886 14.0669 18.2688 12.8652 19.3763 11.3906L9.9369 18.2528ZM9.9369 18.2528C9.36367 17.7472 8.78845 17.244 8.21325 16.7407M9.9369 18.2528L8.21325 16.7407M8.21325 16.7407C6.85099 15.5488 5.48887 14.3571 4.15378 13.1356L8.21325 16.7407ZM10.9468 2.54978C8.64995 -0.0915376 4.6793 -0.20716 2.25237 2.35955L2.25232 2.35959C0.4442 4.27233 -0.0130138 7.3889 1.10781 9.86143L1.10788 9.86158C1.75297 11.2834 2.69966 12.4819 3.81607 13.5044L3.81627 13.5045C5.15565 14.7299 6.5245 15.9276 7.88861 17.121C8.46282 17.6234 9.03619 18.1251 9.60618 18.6278L9.60621 18.6278C10.03 19.0015 10.4726 19.2846 10.9878 19.2843C11.5014 19.284 11.9445 19.0018 12.3688 18.6335L12.3688 18.6335C12.837 18.2271 13.3173 17.8162 13.7991 17.404C14.3709 16.9148 14.9449 16.4238 15.5039 15.9358L15.5039 15.9358C15.6168 15.8372 15.7302 15.7385 15.8439 15.6395C17.2162 14.445 18.6353 13.2097 19.7761 11.691C21.4889 9.41137 22.0466 6.87673 20.8837 4.13274L20.4233 4.32784L20.8837 4.13273C19.3398 0.49 14.8253 -0.654354 11.7905 1.82308L11.7902 1.8233C11.5031 2.05799 11.2207 2.30746 10.9468 2.54978ZM11.2663 2.93477C11.2147 2.87335 11.1658 2.81481 11.1175 2.75462L12.1066 2.21041C11.8224 2.4428 11.5475 2.68604 11.2726 2.92925C11.2705 2.93109 11.2684 2.93293 11.2663 2.93477Z" fill="#FFC00B"></path>
                  </svg>