<svg width="22" height="20" viewBox="0 0 22 20" fill="none" xmlns="http://www.w3.org/2000/svg">
<g id="Group 1589">
<path id="Vector" d="M2.45038 8.98756C2.63771 8.98756 2.82692 8.96976 3.01144 8.99037C3.7102 9.06905 4.19259 8.93698 4.61971 8.22324C5.30629 7.07487 6.81059 6.72081 8.05824 7.19945C9.32649 7.68558 10.0618 8.89296 9.95313 10.3158C9.85571 11.5962 8.88907 12.6462 7.53745 12.9384C6.30385 13.2054 4.95504 12.5778 4.35557 11.4117C4.19633 11.1016 4.03054 10.9902 3.68585 11.0014C2.84378 11.0286 2.00077 11.0155 1.1587 11.008C0.430908 11.0023 0.0047214 10.6277 3.80372e-05 10.0085C-0.00464533 9.38939 0.423414 9.00161 1.13997 8.98943C1.57646 8.98194 2.01389 8.98756 2.45038 8.98756Z" fill="#FFC00B"/>
<path id="Vector_2" d="M19.5245 17.9831C19.369 17.9831 19.2107 17.9981 19.0571 17.9803C18.2955 17.8923 17.757 18.0347 17.298 18.813C16.6151 19.9708 14.9703 20.293 13.719 19.7225C12.461 19.1484 11.7604 17.7799 12.0208 16.403C12.2699 15.086 13.4754 14.0557 14.8242 14.0173C16.1215 13.9807 17.0694 14.5521 17.6539 15.7023C17.7729 15.9356 17.9021 16.0077 18.1522 16.003C19.0561 15.989 19.96 15.9937 20.8639 15.9983C21.5317 16.0021 21.957 16.402 21.9504 17.0081C21.9448 17.6047 21.5505 17.9682 20.8808 17.9803C20.4293 17.9888 19.9769 17.9831 19.5245 17.9831Z" fill="#FFC00B"/>
<path id="Vector_3" d="M21.9481 2.98338C21.9565 4.67127 20.6593 5.98261 18.9742 5.99011C17.3106 5.99666 15.9506 4.65066 15.959 3.00493C15.9675 1.362 17.349 -0.0120964 18.9789 8.03134e-05C20.6208 0.0131937 21.9397 1.33859 21.9481 2.98338Z" fill="#FFC00B"/>
<path id="Vector_4" d="M6.99415 4.00918C5.044 4.00918 3.09291 4.01012 1.14276 4.00918C0.427137 4.00825 -0.00279633 3.62702 1.36902e-05 3.00507C0.00282371 2.38968 0.401846 2.02718 1.11091 2.02625C5.02808 2.0225 8.94431 2.0225 12.8615 2.02625C13.5434 2.02625 13.9761 2.42714 13.9696 3.02006C13.9639 3.60361 13.5125 4.00731 12.8465 4.00825C10.8963 4.01106 8.94524 4.00918 6.99509 4.00918H6.99415Z" fill="#FFC00B"/>
<path id="Vector_5" d="M16.9208 11.0112C15.6591 11.0112 14.3974 11.0159 13.1348 11.0094C12.5025 11.0056 12.0773 10.6862 12.0014 10.1841C11.8974 9.50132 12.3395 9.00581 13.0926 8.99176C13.8869 8.97771 14.6812 8.98802 15.4764 8.98802C17.2524 8.98802 19.0283 8.98427 20.8042 8.98989C21.459 8.99176 21.8852 9.3299 21.9423 9.861C22.0163 10.5466 21.5732 11.0028 20.8005 11.0075C19.5079 11.0159 18.2143 11.0103 16.9217 11.0103L16.9208 11.0112Z" fill="#FFC00B"/>
<path id="Vector_6" d="M4.94845 17.9784C3.68394 17.9784 2.41943 17.9812 1.15492 17.9775C0.405586 17.9747 0.00187944 17.6243 6.09695e-06 16.994C-0.00186725 16.372 0.428066 15.9936 1.14649 15.9936C3.70642 15.9917 6.26635 15.9917 8.82628 15.9936C9.53815 15.9936 9.96621 16.3823 9.95872 17.0089C9.95122 17.6197 9.54939 17.9737 8.83565 17.9765C7.54023 17.9822 6.24481 17.9784 4.94845 17.9784Z" fill="#FFC00B"/>
</g>
</svg>
