<svg width="24" height="25" viewBox="0 0 24 25" fill="none" xmlns="http://www.w3.org/2000/svg">
<path d="M14.0407 0.805686C17.2209 0.796999 19.8231 3.38259 19.8326 6.56126C19.8421 9.7352 17.2581 12.3374 14.0754 12.3595C10.9126 12.3816 8.28669 9.766 8.28906 6.59759C8.29143 3.39917 10.8581 0.814373 14.0407 0.805686Z" fill="#191919"/>
<path d="M16.2451 12.9057C16.5491 12.9057 16.8171 12.8297 17.0491 12.6777C17.2891 12.5177 17.4731 12.2977 17.6011 12.0177H20.4091C20.2891 12.6897 20.0451 13.2777 19.6771 13.7817C19.3171 14.2857 18.8451 14.6777 18.2611 14.9577C17.6851 15.2297 17.0291 15.3657 16.2931 15.3657C15.2531 15.3657 14.3811 15.0977 13.6771 14.5617C12.9731 14.0257 12.5011 13.2977 12.2611 12.3777H11.4691V11.1897H12.0931V11.0457V10.8537H11.4691V9.65366H12.2731C12.5211 8.74966 12.9931 8.03766 13.6891 7.51766C14.3931 6.98966 15.2611 6.72566 16.2931 6.72566C17.0291 6.72566 17.6851 6.86566 18.2611 7.14566C18.8451 7.41766 19.3171 7.80566 19.6771 8.30966C20.0451 8.81366 20.2891 9.40166 20.4091 10.0737H17.6011C17.4731 9.79366 17.2891 9.57766 17.0491 9.42566C16.8171 9.26566 16.5491 9.18566 16.2451 9.18566C15.8211 9.18566 15.4771 9.34166 15.2131 9.65366H16.7011V10.8537H14.7931V11.0457V11.1897H16.7011V12.3777H15.1651C15.4291 12.7297 15.7891 12.9057 16.2451 12.9057Z" fill="white"/>
<path d="M12.2006 21.1504C11.3099 21.1504 10.4192 21.1401 9.52951 21.156C9.24824 21.1607 9.08417 21.0838 8.93792 20.826C8.11757 19.3738 7.27847 17.9309 6.43468 16.4918C6.30155 16.2649 6.28561 16.0877 6.42999 15.857C7.81662 13.6407 11.1955 12.5607 13.6144 14.7432C13.7569 14.8717 13.9941 14.9486 14.19 14.9542C14.9391 14.9786 15.6892 14.9608 16.4392 14.9654C17.1208 14.9701 17.5277 15.3358 17.5174 15.9227C17.5071 16.4927 17.1142 16.8312 16.4458 16.833C15.3526 16.8368 14.2585 16.8321 13.1653 16.8349C12.6178 16.8368 12.3056 17.0974 12.3084 17.5399C12.3112 17.9768 12.629 18.2403 13.1747 18.2422C14.221 18.2459 15.2682 18.2422 16.3145 18.2431C16.9117 18.2431 17.4433 18.0621 17.9271 17.7096C19.2518 16.7449 20.5813 15.7867 21.9144 14.8333C22.101 14.6992 22.3082 14.5651 22.5257 14.5089C22.9757 14.3935 23.4098 14.6336 23.6067 15.0508C23.8017 15.4652 23.7183 15.9236 23.3254 16.2274C22.6213 16.7712 21.8957 17.2859 21.1747 17.8071C20.1762 18.53 19.1796 19.2556 18.1727 19.9663C17.0167 20.782 15.7342 21.1945 14.3091 21.1532C13.6069 21.1335 12.9028 21.1495 12.1996 21.1495L12.2006 21.1504Z" fill="#828282"/>
<path d="M4.08669 15.6699C4.25263 15.8162 4.48702 15.9399 4.6014 16.1349C5.7152 18.0288 6.81212 19.9329 7.90436 21.8389C8.15281 22.2721 8.0553 22.5946 7.60903 22.8571C6.57398 23.4646 5.53519 24.0656 4.4917 24.6572C4.02387 24.9225 3.71542 24.8363 3.43884 24.36C2.35036 22.4868 1.26937 20.6098 0.191197 18.731C-0.0694396 18.2772 0.00275117 17.9435 0.423708 17.695C1.48407 17.0697 2.55287 16.4584 3.62166 15.8471C3.74073 15.7796 3.87949 15.7477 4.08669 15.6699Z" fill="#828282"/>
</svg>
