<svg width="56" height="56" viewBox="0 0 56 56" fill="none" xmlns="http://www.w3.org/2000/svg">
<g id="Fish" clip-path="url(#clip0_2603_20456)">
<path id="Vector" d="M34.7083 36.575C30.2167 36.575 21.2333 32.3166 14.0583 25.1416C9.50833 20.5916 7.93333 15.575 7.875 12.0166L9.39167 9.56664L11.4917 7.99164C11.55 7.99164 11.6667 7.99164 11.725 7.99164C14.4667 7.99164 19.8333 8.80831 25.1417 14.0583C29.3417 18.2583 33.0167 23.6833 35.0583 28.5833C36.9833 33.3083 36.6917 35.875 36.225 36.2833C36.1667 36.3416 35.7 36.575 34.7083 36.575Z" fill="#F8B602"/>
<path id="Vector_2" d="M19.1911 27.8833C18.7828 27.8833 18.4911 27.7083 18.3745 27.65C17.2661 27.0667 16.4495 25.9583 15.9828 24.5583C15.6328 23.3917 15.6328 22.225 15.6328 21.175L17.9078 21.1167C17.9078 22.05 17.9661 23.0417 18.1995 23.9167C18.3161 24.2667 18.4328 24.5583 18.6078 24.85C18.6661 24.6167 18.6661 24.15 19.0161 23.7417C19.5411 23.1 20.4745 22.925 21.3495 23.3917C21.4661 23.45 21.5828 23.5083 21.6995 23.5667C21.7578 23.625 21.8161 23.625 21.8745 23.6833C21.8745 23.6833 21.8745 23.6833 21.8745 23.625C21.9328 23.45 21.9328 23.2167 21.8745 22.8667C21.8745 22.75 21.8161 22.6917 21.8161 22.575C21.7578 22.225 21.6411 21.875 21.6411 21.4667C21.6411 20.5917 22.1078 19.775 22.8661 19.4833C23.4495 19.25 24.0328 19.3083 24.4411 19.425L23.9745 17.7333C23.8578 17.325 23.9745 16.9167 24.2661 16.625C24.2661 16.625 24.2661 16.625 24.3245 16.5667C23.2745 16.3917 22.1078 16.5083 20.9995 16.625L20.7661 14.35C22.0495 14.2333 23.5078 14.0583 24.9078 14.35C26.6578 14.7 28.0578 15.6333 28.8161 16.9167C28.9911 17.2083 28.9911 17.6167 28.8745 17.9667C28.6995 18.3167 28.4078 18.55 28.0578 18.6083C27.5911 18.6667 27.1245 18.725 26.6578 18.725L26.7161 18.9C27.0078 19.95 26.8328 20.7667 26.2495 21.2917C25.4911 21.9333 24.6161 21.7 24.1495 21.5833C24.0911 21.5833 24.0328 21.5833 24.0328 21.525C24.0328 21.6417 24.0911 21.8167 24.1495 21.9917C24.1495 22.1083 24.2078 22.225 24.2078 22.3417C24.3828 23.1583 24.3245 23.8583 24.0911 24.4417C23.6828 25.375 22.7495 25.9583 21.8161 25.8417C21.4078 25.7833 21.1161 25.6667 20.8828 25.4917L20.7661 26.25C20.5911 27.5333 19.7745 27.7667 19.4828 27.7667C19.3078 27.8833 19.2495 27.8833 19.1911 27.8833Z" fill="#2E2E2E"/>
<path id="Vector_3" d="M15.2242 11.2C14.2909 12.1333 12.8326 12.1333 11.8992 11.2C10.9659 10.2667 10.9659 8.80832 11.8992 7.87499C12.8326 6.94165 14.2909 6.94165 15.2242 7.87499C16.1576 8.80832 16.1576 10.2667 15.2242 11.2Z" fill="#A6C44A"/>
<path id="Vector_4" d="M13.5344 13.0083C12.601 13.0083 11.726 12.6583 11.0844 11.9583C9.74271 10.6167 9.74271 8.40001 11.0844 7.00001C11.726 6.35835 12.601 5.95001 13.5344 5.95001C14.4677 5.95001 15.3427 6.30001 15.9844 7.00001C17.326 8.34168 17.326 10.5583 15.9844 11.9583C15.3427 12.6583 14.4677 13.0083 13.5344 13.0083ZM13.5344 8.28335C13.1844 8.28335 12.8927 8.40001 12.6594 8.63335C12.1927 9.10001 12.1927 9.91668 12.6594 10.3833C13.126 10.85 13.9427 10.85 14.4094 10.3833C14.876 9.91668 14.876 9.10001 14.4094 8.63335C14.176 8.40001 13.8844 8.28335 13.5344 8.28335Z" fill="#2E2E2E"/>
<path id="Vector_5" d="M34.7088 42.0584C28.0588 42.0584 17.7921 36.575 10.2088 28.9917C1.45881 20.2417 1.80881 10.675 3.20881 6.82503L3.50048 5.95003L5.83381 6.18336L5.54215 3.73336L6.30048 3.38336C10.6755 1.57503 20.7088 1.80836 28.9921 10.15C38.6755 19.8334 45.5005 34.7084 40.0755 40.1334C38.8505 41.3584 37.0421 42.0584 34.7088 42.0584ZM5.07548 8.40003C4.02548 12.6 4.95881 20.475 11.7838 27.3584C18.8421 34.4167 28.7005 39.725 34.7088 39.725C36.4005 39.725 37.6838 39.3167 38.5588 38.4417C42.5255 34.475 36.9838 21.2334 27.4755 11.6667C20.3588 4.6667 12.1338 3.9667 7.99215 5.19169L8.40048 8.80836L5.07548 8.40003Z" fill="#2E2E2E"/>
<g id="Group">
<path id="Vector_6" d="M40.9508 35.1166C40.8924 36.8666 40.3674 38.325 39.3758 39.3166C38.3841 40.3083 36.9258 40.8333 35.1758 40.8916L38.6174 53.4916L53.4925 38.5L40.9508 35.1166Z" fill="#A6C44A"/>
<path id="Vector_7" d="M37.9768 55.65L33.6602 39.7833L35.0602 39.725C36.5768 39.6666 37.7435 39.2583 38.5018 38.4416C39.2602 37.6833 39.6685 36.5166 39.7852 35L39.8435 33.6L55.7102 37.9166L37.9768 55.65ZM36.5768 41.8833L39.1435 51.3333L51.3352 39.0833L41.8852 36.5166C41.5935 37.975 41.0102 39.1416 40.1352 40.075C39.2602 41.0083 38.0352 41.5916 36.5768 41.8833Z" fill="#2E2E2E"/>
</g>
<g id="Group_2">
<path id="Vector_8" d="M26.4263 52.4416C25.7263 52.4416 25.0263 52.4416 24.3846 52.3833L24.5596 50.1083C25.2013 50.1666 25.843 50.1666 26.4263 50.1666C26.543 50.1666 26.6013 50.1666 26.718 50.1666L26.7763 52.4416C26.6596 52.4416 26.543 52.4416 26.4263 52.4416ZM30.2763 52.15L29.9263 49.9333C30.6263 49.8166 31.3263 49.7 32.0263 49.525L32.5513 51.7416C31.8513 51.8583 31.0346 52.0333 30.2763 52.15ZM20.8846 51.8583C20.1263 51.6833 19.368 51.5083 18.6096 51.275L19.3096 49.1166C20.0096 49.35 20.7096 49.525 21.4096 49.6416L20.8846 51.8583ZM15.2846 49.9916C14.5846 49.6416 13.8846 49.2916 13.1846 48.8833L14.3513 46.9583C14.993 47.3083 15.6346 47.6583 16.2763 47.95L15.2846 49.9916ZM10.268 46.8416C9.6263 46.375 9.04297 45.85 8.45963 45.2666L10.0346 43.6333C10.5596 44.1 11.0846 44.625 11.668 45.0333L10.268 46.8416ZM6.06797 42.7C5.6013 42.0583 5.0763 41.4166 4.66797 40.775L6.53463 39.55C6.94297 40.1333 7.3513 40.7166 7.81797 41.3L6.06797 42.7ZM2.91797 37.7416C2.56797 37.0416 2.2763 36.2833 1.98464 35.5833L4.08463 34.7666C4.31797 35.4666 4.60963 36.1083 4.95963 36.75L2.91797 37.7416ZM0.934635 32.1416C0.759635 31.3833 0.642969 30.5666 0.526302 29.8083L2.74297 29.5166C2.85963 30.2166 2.9763 30.9166 3.1513 31.6166L0.934635 32.1416ZM2.56797 26.3083H0.292969C0.292969 25.55 0.351302 24.7333 0.409635 23.975L2.68463 24.2083C2.6263 24.85 2.56797 25.55 2.56797 26.3083Z" fill="#2E2E2E"/>
</g>
<g id="Group_3">
<path id="Vector_9" d="M52.0344 30.7417L49.8177 30.3917C49.9344 29.6917 50.051 28.9917 50.1094 28.2334L52.3844 28.4084C52.2677 29.1667 52.2094 29.9834 52.0344 30.7417ZM50.1094 24.9667C50.051 24.2667 49.9927 23.5084 49.876 22.8084L52.0927 22.4584C52.2094 23.2167 52.2677 24.0334 52.326 24.7917L50.1094 24.9667ZM49.176 19.6584C49.001 18.9584 48.7677 18.2584 48.476 17.6167L50.576 16.8C50.8677 17.5584 51.101 18.2584 51.3344 19.0167L49.176 19.6584ZM47.1344 14.7C46.7844 14.0584 46.376 13.475 45.9677 12.8917L47.8344 11.6084C48.301 12.25 48.7094 12.95 49.0594 13.5917L47.1344 14.7ZM43.9844 10.325C43.5177 9.80002 42.9927 9.27502 42.4677 8.80835L43.9844 7.11669C44.5677 7.64169 45.151 8.22502 45.676 8.80835L43.9844 10.325ZM39.901 6.76669C39.3177 6.35835 38.676 5.95002 38.0927 5.60002L39.201 3.61669C39.901 4.02502 40.5427 4.43335 41.1844 4.90002L39.901 6.76669ZM35.176 4.25835C34.476 3.96669 33.8344 3.73335 33.1344 3.50002L33.776 1.34169C34.5344 1.57502 35.2927 1.80835 35.9927 2.10002L35.176 4.25835ZM22.4594 2.85835L22.1094 0.641687C22.8677 0.52502 23.6844 0.408354 24.4427 0.35002L24.6177 2.62502C23.8594 2.68335 23.1594 2.74169 22.4594 2.85835ZM29.9844 2.80002C29.2844 2.68335 28.526 2.62502 27.826 2.56669L27.9427 0.291687C28.701 0.35002 29.5177 0.408354 30.276 0.52502L29.9844 2.80002Z" fill="#2E2E2E"/>
</g>
</g>
<defs>
<clipPath id="clip0_2603_20456">
<rect width="56" height="56" fill="white"/>
</clipPath>
</defs>
</svg>
