<svg width="60" height="60" viewBox="0 0 60 60" fill="none" xmlns="http://www.w3.org/2000/svg">
<rect width="60" height="60" rx="12" fill="#FFC00B"/>
<path d="M11.452 24.456C12.276 24.456 12.984 24.664 13.576 25.08C14.168 25.488 14.572 26.032 14.788 26.712L13.288 27.156C13.168 26.764 12.94 26.452 12.604 26.22C12.268 25.988 11.88 25.872 11.44 25.872C10.728 25.872 10.184 26.14 9.808 26.676C9.432 27.212 9.244 27.92 9.244 28.8C9.244 29.768 9.456 30.5 9.88 30.996C10.304 31.484 10.876 31.728 11.596 31.728C11.956 31.728 12.292 31.668 12.604 31.548C12.916 31.42 13.148 31.252 13.3 31.044V29.772H11.632V28.38H14.836V31.656C14.54 32.104 14.092 32.464 13.492 32.736C12.9 33.008 12.264 33.144 11.584 33.144C10.376 33.144 9.42 32.768 8.716 32.016C8.012 31.264 7.66 30.192 7.66 28.8C7.66 27.504 7.992 26.456 8.656 25.656C9.32 24.856 10.252 24.456 11.452 24.456ZM18.1193 31.38C18.3753 31.708 18.7193 31.872 19.1513 31.872C19.5833 31.872 19.9273 31.708 20.1833 31.38C20.4393 31.044 20.5673 30.584 20.5673 30C20.5673 29.416 20.4393 28.96 20.1833 28.632C19.9273 28.296 19.5833 28.128 19.1513 28.128C18.7193 28.128 18.3753 28.296 18.1193 28.632C17.8633 28.96 17.7353 29.416 17.7353 30C17.7353 30.584 17.8633 31.044 18.1193 31.38ZM17.0393 27.72C17.5833 27.144 18.2873 26.856 19.1513 26.856C20.0153 26.856 20.7193 27.144 21.2633 27.72C21.8073 28.288 22.0793 29.048 22.0793 30C22.0793 30.952 21.8073 31.716 21.2633 32.292C20.7193 32.86 20.0153 33.144 19.1513 33.144C18.2873 33.144 17.5833 32.86 17.0393 32.292C16.4953 31.716 16.2233 30.952 16.2233 30C16.2233 29.048 16.4953 28.288 17.0393 27.72ZM30.9374 33V29.136C30.9374 28.808 30.8534 28.56 30.6854 28.392C30.5254 28.216 30.3014 28.128 30.0134 28.128C29.7414 28.128 29.4814 28.216 29.2334 28.392C28.9854 28.568 28.8054 28.784 28.6934 29.04V33H27.2054V29.136C27.2054 28.808 27.1214 28.56 26.9534 28.392C26.7934 28.216 26.5694 28.128 26.2814 28.128C26.0094 28.128 25.7494 28.216 25.5014 28.392C25.2534 28.568 25.0734 28.784 24.9614 29.04V33H23.4734V27H24.9614V27.78C25.1374 27.516 25.3854 27.296 25.7054 27.12C26.0254 26.944 26.3654 26.856 26.7254 26.856C27.0934 26.856 27.4294 26.948 27.7334 27.132C28.0454 27.316 28.2814 27.564 28.4414 27.876C28.6494 27.572 28.9254 27.328 29.2694 27.144C29.6214 26.952 29.9934 26.856 30.3854 26.856C31.0094 26.856 31.5054 27.048 31.8734 27.432C32.2414 27.808 32.4254 28.332 32.4254 29.004V33H30.9374ZM39.5257 30C39.5257 30.224 39.5217 30.384 39.5137 30.48H35.3257C35.3657 30.912 35.5217 31.248 35.7937 31.488C36.0657 31.728 36.4057 31.848 36.8137 31.848C37.4137 31.848 37.8417 31.612 38.0977 31.14L39.3457 31.86C39.1057 32.26 38.7577 32.576 38.3017 32.808C37.8457 33.032 37.3497 33.144 36.8137 33.144C35.9257 33.144 35.1977 32.864 34.6297 32.304C34.0697 31.744 33.7897 30.976 33.7897 30C33.7897 29.048 34.0577 28.288 34.5937 27.72C35.1377 27.144 35.8257 26.856 36.6577 26.856C37.5057 26.856 38.1937 27.148 38.7217 27.732C39.2577 28.308 39.5257 29.064 39.5257 30ZM35.3377 29.376H37.9777C37.9297 28.984 37.7897 28.68 37.5577 28.464C37.3257 28.24 37.0257 28.128 36.6577 28.128C36.2897 28.128 35.9897 28.24 35.7577 28.464C35.5257 28.68 35.3857 28.984 35.3377 29.376ZM42.1006 28.776L40.8166 28.224C41.0326 27.816 41.3606 27.488 41.8006 27.24C42.2406 26.984 42.7366 26.856 43.2886 26.856C44.0646 26.856 44.6766 27.048 45.1246 27.432C45.5806 27.816 45.8086 28.344 45.8086 29.016V33H44.3206V32.388C44.1686 32.62 43.9366 32.804 43.6246 32.94C43.3206 33.076 42.9886 33.144 42.6286 33.144C42.0286 33.144 41.5326 32.972 41.1406 32.628C40.7486 32.284 40.5526 31.832 40.5526 31.272C40.5526 30.672 40.7526 30.2 41.1526 29.856C41.5606 29.512 42.1206 29.34 42.8326 29.34C43.4726 29.34 43.9686 29.388 44.3206 29.484V29.016C44.3206 28.728 44.2246 28.504 44.0326 28.344C43.8486 28.184 43.6006 28.104 43.2886 28.104C43.0326 28.104 42.7966 28.168 42.5806 28.296C42.3726 28.416 42.2126 28.576 42.1006 28.776ZM44.3206 31.164V30.612C43.9926 30.54 43.5806 30.504 43.0846 30.504C42.4046 30.504 42.0646 30.74 42.0646 31.212C42.0646 31.436 42.1526 31.608 42.3286 31.728C42.5046 31.84 42.7326 31.896 43.0126 31.896C43.3086 31.896 43.5806 31.828 43.8286 31.692C44.0766 31.556 44.2406 31.38 44.3206 31.164ZM48.9965 33H47.5085V24.384H48.9965V33Z" fill="#292929"/>
<path d="M52.1835 32.856C52.0155 33.024 51.8035 33.108 51.5475 33.108C51.2915 33.108 51.0755 33.024 50.8995 32.856C50.7315 32.68 50.6475 32.464 50.6475 32.208C50.6475 31.952 50.7315 31.74 50.8995 31.572C51.0755 31.396 51.2915 31.308 51.5475 31.308C51.8035 31.308 52.0155 31.396 52.1835 31.572C52.3595 31.74 52.4475 31.952 52.4475 32.208C52.4475 32.464 52.3595 32.68 52.1835 32.856Z" fill="white"/>
</svg>
