<svg xmlns="http://www.w3.org/2000/svg" width="19" height="19" viewBox="0 0 19 19" fill="none">
              <path d="M18.8148 7.63924H18.0496V7.59982H9.49977V11.3997H14.8686C14.0853 13.6117 11.9806 15.1996 9.49977 15.1996C6.35202 15.1996 3.79991 12.6475 3.79991 9.49977C3.79991 6.35202 6.35202 3.79991 9.49977 3.79991C10.9528 3.79991 12.2747 4.34804 13.2812 5.2434L15.9682 2.55639C14.2715 0.975151 12.002 0 9.49977 0C4.25352 0 0 4.25352 0 9.49977C0 14.746 4.25352 18.9995 9.49977 18.9995C14.746 18.9995 18.9995 14.746 18.9995 9.49977C18.9995 8.86281 18.934 8.24105 18.8148 7.63924Z" fill="#FFC00B" />
              <path d="M1.09766 5.0781L4.21881 7.36707C5.06334 5.27617 7.10864 3.79991 9.5021 3.79991C10.9551 3.79991 12.277 4.34804 13.2835 5.2434L15.9705 2.55639C14.2738 0.975151 12.0043 0 9.5021 0C5.85324 0 2.68887 2.06003 1.09766 5.0781Z" fill="#FF3D00" />
              <path d="M9.50014 18.9999C11.9539 18.9999 14.1835 18.0609 15.8693 16.5338L12.9291 14.0458C11.9753 14.7683 10.7897 15.2 9.50014 15.2C7.02925 15.2 4.93123 13.6245 4.14084 11.4258L1.04297 13.8126C2.61518 16.8891 5.80805 18.9999 9.50014 18.9999Z" fill="#4CAF50" />
              <path d="M18.815 7.63708H18.0498V7.59766H9.5V11.3976H14.8688C14.4926 12.4601 13.8091 13.3764 12.9275 14.0437C12.928 14.0433 12.9285 14.0433 12.9289 14.0428L15.8691 16.5308C15.6611 16.7198 18.9998 14.2475 18.9998 9.49761C18.9998 8.86065 18.9342 8.23889 18.815 7.63708Z" fill="#1976D2" />
            </svg>