<svg width="30" height="29" viewBox="0 0 30 29" fill="none" xmlns="http://www.w3.org/2000/svg">
<g id="Group 2523">
<path id="Vector" d="M11.2454 15.7934C12.2589 16.6452 13.2728 17.4973 14.2855 18.3502C14.9398 17.5548 15.6045 16.7674 16.2663 15.9836C16.4702 15.7422 16.6737 15.5011 16.8766 15.2603L16.8767 15.2601C17.5354 14.4783 18.1942 13.6966 18.853 12.9149C20.8282 10.5711 22.8033 8.2274 24.7771 5.88237L11.2454 15.7934ZM11.2454 15.7934C11.3294 15.8158 11.4133 15.8375 11.4971 15.8583M11.2454 15.7934L11.4971 15.8583M11.4971 15.8583C12.7961 16.1807 14.0304 15.5069 14.499 14.3188L14.499 14.3187C14.7311 13.73 14.8114 13.1295 14.6847 12.5641C15.2936 12.9324 16.0136 13.147 16.781 13.1557C18.749 13.1785 20.2138 11.7519 20.2347 9.78404M11.4971 15.8583L20.2347 9.78404M20.2347 9.78404C20.2347 9.78415 20.2347 9.78426 20.2347 9.78437L19.5848 9.77713L20.2347 9.78404ZM20.2347 9.78404C20.2462 8.74609 19.7763 7.77559 19.0822 7.06957C18.3878 6.36329 17.4235 5.87501 16.3818 5.85919H16.3818C14.4259 5.82954 12.8652 7.37753 12.8472 9.33671L12.8472 9.33687C12.8427 9.84333 12.9402 10.3234 13.1207 10.7613C12.4795 10.3959 11.8279 10.0558 11.1857 9.72418L11.1856 9.72414C11.1845 9.72355 11.1833 9.72295 11.1822 9.72236C13.6888 6.73569 16.1957 3.7487 18.6989 0.759426C20.3164 2.10534 21.944 3.44019 23.5696 4.77338C23.9768 5.10732 24.3838 5.44116 24.7906 5.77504L24.7907 5.77519C24.8067 5.78826 24.8212 5.80046 24.8345 5.81186C24.818 5.83297 24.799 5.85634 24.7772 5.88226L20.2347 9.78404ZM14.4708 18.5124L14.3434 18.6637L14.1684 18.5202L14.4708 18.5124Z" stroke="#292929" stroke-width="1.3"/>
<path id="Vector_2" d="M19.6073 22.9266C18.9201 22.9318 18.2526 22.9309 17.5883 22.9301C16.8158 22.9292 16.0477 22.9282 15.2581 22.9367L15.2581 22.9367C14.1434 22.9486 13.2035 22.5646 12.3561 21.9661L19.6073 22.9266ZM19.6073 22.9266C19.6076 22.9266 19.6104 22.9266 19.6164 22.9269C19.6229 22.9272 19.6314 22.9276 19.6431 22.9285C19.6472 22.9287 19.6542 22.9293 19.663 22.9299C19.6846 22.9315 19.7165 22.9339 19.7389 22.9352C19.8084 22.9394 19.9449 22.9461 20.0921 22.914C20.256 22.8782 20.4581 22.7887 20.6101 22.587C20.7529 22.3976 20.7958 22.1823 20.8024 22.0023L19.6073 22.9266ZM17.011 20.8448L17.0112 20.8448C17.4866 20.8491 17.9481 20.8484 18.4136 20.8477C18.7943 20.8471 19.1776 20.8465 19.5733 20.8487L17.011 20.8448ZM17.011 20.8448C16.6817 20.8419 16.5053 20.6744 16.451 20.4353L17.011 20.8448ZM27.6538 25.6426C26.9904 25.6999 26.3316 25.7568 25.6742 25.8167L16.451 20.4353C16.4022 20.2191 16.4533 20.0926 16.5014 20.0304C16.5474 19.971 16.6482 19.8955 16.8588 19.8949L16.8592 19.8949C17.2369 19.8935 17.6141 19.8916 17.9907 19.8897C19.5559 19.8819 21.1121 19.8742 22.6685 19.9041L22.6686 19.9041C23.6068 19.922 24.3705 19.993 25.0166 20.4449C25.682 20.9109 26.1034 21.5925 26.4746 22.4174C26.8791 23.3168 27.2517 24.2252 27.629 25.1451C27.6949 25.3056 27.7609 25.4664 27.8272 25.6277C27.7693 25.6327 27.7115 25.6377 27.6538 25.6426ZM25.674 25.8167C25.3155 25.8491 24.9601 25.8828 24.6065 25.9163C23.8907 25.9843 23.1819 26.0515 22.4679 26.1055C21.8235 25.3204 20.9589 25.0554 20.0905 25.0455C20.0905 25.0455 20.0904 25.0455 20.0903 25.0455L25.674 25.8167ZM9.09251 19.7858C10.1973 20.4943 11.2904 21.2144 12.3558 21.9659L8.53207 19.8387C8.68239 19.6816 8.86936 19.6425 9.09204 19.7855L9.09251 19.7858ZM12.1053 23.8467C11.7132 23.5127 11.3214 23.1803 10.9302 22.8483C10.1978 22.2268 9.46718 21.6069 8.73957 20.981L8.73955 20.981C8.59683 20.8583 8.47132 20.7175 8.37945 20.5743L8.3791 20.5737C8.26825 20.4012 8.26547 20.3053 8.27429 20.2484C8.28548 20.1762 8.3361 20.0436 8.53202 19.8387L12.1053 23.8467ZM20.8024 22.0018C20.8112 21.7626 20.781 21.378 20.452 21.1052C20.1712 20.8723 19.8117 20.8499 19.5735 20.8487L20.8024 22.0018Z" stroke="#292929" stroke-width="1.3"/>
<path id="Vector_3" d="M11.6603 5.79771C11.217 5.71062 10.7913 5.62775 10.3628 5.54885C9.13288 5.32243 7.97484 5.31505 6.82588 5.70262C5.87317 6.02479 4.8906 6.26914 3.93963 6.50563C3.74 6.55527 3.54178 6.60456 3.34551 6.65416C3.31358 6.66226 3.28564 6.66927 3.26009 6.67569C3.2564 6.67661 3.25275 6.67753 3.24915 6.67843C3.24913 6.6896 3.24913 6.70125 3.24913 6.71342V6.71437C3.24701 8.16183 3.24746 9.60943 3.24873 11.0574C3.47999 10.9943 3.69869 10.9318 3.92021 10.8587C4.36934 10.7102 4.81026 10.6436 5.25692 10.7657C5.6954 10.8856 6.04165 11.1615 6.35673 11.4839L11.6603 5.79771ZM11.6603 5.79771C10.9952 6.56973 10.3534 7.31386 9.70499 8.0513L11.6603 5.79771ZM9.6834 8.0533C9.62862 8.05743 9.56383 8.05559 9.46164 8.04955C9.45012 8.04886 9.43782 8.04811 9.42486 8.04731C9.33712 8.04189 9.21873 8.03458 9.10092 8.03676L9.6834 8.0533ZM8.22708 8.34413C7.97398 8.55706 7.8373 8.84234 7.77137 9.12833L9.1004 8.03677C8.79315 8.04239 8.48333 8.12853 8.22708 8.34413Z" stroke="#292929" stroke-width="1.3"/>
<path id="Vector_4" d="M1.36708 13.1268C1.71788 13.1043 1.7181 12.8609 1.71832 12.6237C1.71832 12.6144 1.71833 12.6052 1.71836 12.5959L1.25173 12.5055C1.28873 12.4859 1.31646 12.4798 1.3256 12.4783M1.36708 13.1268L1.33373 12.5947L1.3337 12.5943L1.32642 12.4781C1.32801 12.4779 1.32884 12.4778 1.32884 12.4778C1.32885 12.4778 1.3278 12.4779 1.32559 12.4781L1.3256 12.4783M1.36708 13.1268L1.33305 12.5947L1.33302 12.5943L1.3256 12.4783M1.36708 13.1268L1.3256 12.4783M0.751157 6.90591C0.725194 6.66094 0.69948 6.41832 0.675793 6.18098C0.67049 6.12391 0.665707 6.06995 0.661741 6.0183C0.795452 6.01955 0.922352 6.014 1.02827 6.00937C1.04253 6.00875 1.05641 6.00814 1.06988 6.00757C1.06938 6.521 1.06811 7.03332 1.06684 7.54626C1.06597 7.89784 1.0651 8.24972 1.06448 8.60245V8.6036V8.60497V8.60633V8.60769V8.60905V8.61041V8.61177V8.61314V8.6145V8.61586V8.61722V8.61858V8.61994V8.6213V8.62267V8.62403V8.62539V8.62675V8.62811V8.62947V8.63084V8.6322V8.63356V8.63492V8.63628V8.63764V8.639V8.64037V8.64173V8.64309V8.64445V8.64581V8.64717V8.64854V8.6499V8.65126V8.65262V8.65398V8.65534V8.65671V8.65807V8.65943V8.66079V8.66215V8.66351V8.66488V8.66624V8.6676V8.66896V8.67032V8.67168V8.67304V8.67441V8.67577V8.67713V8.67849V8.67985V8.68121V8.68258V8.68394V8.6853V8.68666V8.68802V8.68938V8.69075V8.69211V8.69347V8.69483V8.69619V8.69755V8.69892V8.70028V8.70164V8.703V8.70436V8.70572V8.70709V8.70845V8.70981V8.71117V8.71253V8.71389V8.71526V8.71662V8.71798V8.71934V8.7207V8.72206V8.72343V8.72479V8.72615V8.72751V8.72887V8.73023V8.7316V8.73296V8.73432V8.73568V8.73704V8.73841V8.73977V8.74113V8.74249V8.74385V8.74521V8.74658V8.74794V8.7493V8.75066V8.75202V8.75338V8.75475V8.75611V8.75747V8.75883V8.76019V8.76156V8.76292V8.76428V8.76564V8.767V8.76836V8.76973V8.77109V8.77245V8.77381V8.77517V8.77654V8.7779V8.77926V8.78062V8.78198V8.78334V8.78471V8.78607V8.78743V8.78879V8.79015V8.79152V8.79288V8.79424V8.7956V8.79696V8.79833V8.79969V8.80105V8.80241V8.80377V8.80514V8.8065V8.80786V8.80922V8.81058V8.81195V8.81331V8.81467V8.81603V8.81739V8.81876V8.82012V8.82148V8.82284V8.8242V8.82557V8.82693V8.82829V8.82965V8.83101V8.83238V8.83374V8.8351V8.83646V8.83782V8.83919V8.84055V8.84191V8.84327V8.84463V8.846V8.84736V8.84872V8.85008V8.85144V8.85281V8.85417V8.85553V8.85689V8.85826V8.85962V8.86098V8.86234V8.8637V8.86507V8.86643V8.86779V8.86915V8.87052V8.87188V8.87324V8.8746V8.87596V8.87733V8.87869V8.88005V8.88141V8.88278V8.88414V8.8855V8.88686V8.88823V8.88959V8.89095V8.89231V8.89367V8.89504V8.8964V8.89776V8.89912V8.90049V8.90185V8.90321V8.90457V8.90594V8.9073V8.90866V8.91002V8.91139V8.91275V8.91411V8.91547V8.91684V8.9182V8.91956V8.92092V8.92229V8.92365V8.92501V8.92637V8.92774V8.9291V8.93046V8.93182V8.93319V8.93455V8.93591V8.93727V8.93864V8.94V8.94136V8.94272V8.94409V8.94545V8.94681V8.94818V8.94954V8.9509V8.95226V8.95363V8.95499V8.95635V8.95771V8.95908V8.96044V8.9618V8.96317V8.96453V8.96589V8.96725V8.96862V8.96998V8.97134V8.9727V8.97407V8.97543V8.97679V8.97816V8.97952V8.98088V8.98225V8.98361V8.98497V8.98633V8.9877V8.98906V8.99042V8.99179V8.99315V8.99451V8.99587V8.99724V8.9986V8.99996V9.00133V9.00269V9.00405V9.00542V9.00678V9.00814V9.00951V9.01087V9.01223V9.01359V9.01496V9.01632V9.01768V9.01905V9.02041V9.02177V9.02314V9.0245V9.02586V9.02723V9.02859V9.02995V9.03132V9.03268V9.03404V9.03541V9.03677V9.03813V9.0395V9.04086V9.04222V9.04359V9.04495V9.04631V9.04768V9.04904V9.0504V9.05177V9.05313V9.05449V9.05586V9.05722V9.05858V9.05995V9.06131V9.06267V9.06404V9.0654V9.06677V9.06813V9.06949V9.07086V9.07222V9.07358V9.07495V9.07631V9.07767V9.07904V9.0804V9.08177V9.08313V9.08449V9.08586V9.08722V9.08858V9.08995V9.09131V9.09268V9.09404V9.0954V9.09677V9.09813V9.09949V9.10086V9.10222V9.10359V9.10495V9.10631V9.10768V9.10904V9.11041V9.11177V9.11313V9.1145V9.11586V9.11723V9.11859V9.11995V9.12132V9.12268V9.12405V9.12541V9.12678V9.12814V9.1295V9.13087V9.13223V9.1336V9.13496V9.13632V9.13769V9.13905V9.14042V9.14178V9.14315V9.14451V9.14587V9.14724V9.1486V9.14997V9.15133V9.1527V9.15406V9.15542V9.15679V9.15815V9.15952V9.16088V9.16225V9.16361V9.16498V9.16634V9.16771V9.16907V9.17043V9.1718V9.17316V9.17453V9.17589V9.17726V9.17862V9.17999V9.18135V9.18272V9.18408V9.18545V9.18681V9.18817V9.18954V9.1909V9.19227V9.19363V9.195V9.19636V9.19773V9.19909V9.20046V9.20182V9.20319V9.20455V9.20592V9.20728V9.20865V9.21001V9.21138V9.21274V9.21411V9.21547V9.21684V9.2182V9.21957V9.22093V9.2223V9.22366V9.22503V9.22639V9.22776V9.22912V9.23049V9.23186V9.23322V9.23459V9.23595V9.23732V9.23868V9.24005V9.24141V9.24278V9.24414V9.24551V9.24687V9.24824V9.24961V9.25097V9.25234V9.2537V9.25507V9.25643V9.2578V9.25916V9.26053V9.26189V9.26326V9.26463V9.26599V9.26736V9.26872V9.27009V9.27145V9.27282V9.27419V9.27555V9.27692V9.27828V9.27965V9.28102V9.28238V9.28375V9.28511V9.28648V9.28784V9.28921V9.29058V9.29194V9.29331V9.29467V9.29604V9.29741V9.29877V9.30014V9.30151V9.95151H1.07089C1.07092 10.0096 1.07095 10.0678 1.07098 10.1259C1.07104 10.2244 1.07109 10.3228 1.07113 10.4212C1.0648 10.3464 1.05846 10.2716 1.05213 10.1967C0.9947 9.51842 0.937144 8.83857 0.875972 8.14975L0.875963 8.14964C0.839313 7.7377 0.794882 7.31848 0.751157 6.90591ZM0.650762 5.72968C0.650794 5.72971 0.650718 5.73079 0.65044 5.73278L0.650762 5.72968ZM0.356015 6.00141C0.353196 6.00155 0.351674 6.0015 0.351617 6.00144C0.351561 6.00138 0.35297 6.00131 0.356015 6.00141ZM1.06506 12.7416C1.06504 12.7415 1.06513 12.7408 1.06537 12.7395L1.06506 12.7416Z" stroke="#292929" stroke-width="1.3"/>
<path id="Vector_5" d="M25.6081 28.3459C25.8469 28.346 26.0855 28.3462 26.324 28.3464C26.9789 28.3469 27.6327 28.3474 28.287 28.3459C28.2871 28.3459 28.2872 28.3459 28.2872 28.3459L25.6081 28.3459ZM25.6081 28.3459L25.6073 28.3451H25.338C25.101 28.3451 24.8641 28.3451 24.6273 28.3452C24.8492 28.3228 25.0709 28.3004 25.2925 28.2779L25.3386 28.2733C26.4488 28.1608 27.5565 28.0487 28.6647 27.9438C28.6873 28.1179 28.6985 28.2405 28.7008 28.329C28.6097 28.3392 28.4787 28.3453 28.2874 28.3459L25.6081 28.3459ZM28.6953 28.4541C28.6953 28.4541 28.6954 28.4536 28.6956 28.4526L28.6953 28.4541Z" stroke="#292929" stroke-width="1.3"/>
<path id="Vector_6" d="M14.8391 9.27828C14.7808 8.97518 14.6813 8.67208 14.6836 8.36898C14.6844 8.24386 14.8834 8.06511 15.0295 8.00915C15.2502 7.92444 15.5144 7.95631 15.7421 7.88325C16.0048 7.79854 16.2162 7.80631 16.3071 8.08532C16.3398 8.18713 16.2737 8.35577 16.1983 8.44903C16.0787 8.59592 15.8836 8.68374 15.7779 8.83684C15.7173 8.92466 15.7437 9.10341 15.7911 9.21688C15.8074 9.25574 16.0149 9.24641 16.1175 9.21066C16.4432 9.09797 16.7517 8.89746 17.0835 8.8485C17.7814 8.74514 18.3053 9.38087 18.1708 10.0795C18.1413 10.2342 18.1599 10.4293 18.2322 10.5653C18.3503 10.7875 18.3107 10.9593 18.1685 11.1318C18.0239 11.3067 17.8949 11.1987 17.7309 11.1357C17.6198 11.0938 17.4092 11.1629 17.3144 11.2554C17.0043 11.5569 16.7268 11.5391 16.5046 11.1684C16.3895 10.9764 16.4105 10.8412 16.6172 10.7246C16.7843 10.6306 16.9623 10.5272 17.0789 10.3826C17.1745 10.2645 17.1869 10.0795 17.2366 9.92489C17.0626 9.91401 16.876 9.85883 16.7159 9.90157C16.4704 9.96763 16.2512 10.1301 16.0064 10.2016C15.3349 10.399 14.7396 9.95675 14.8391 9.27983V9.27828Z" fill="#292929"/>
</g>
</svg>
