<svg width="18" height="18" viewBox="0 0 18 18" fill="none" xmlns="http://www.w3.org/2000/svg">
<g id="Frame 2993">
<g id="Group 2880">
<g id="Group 3206">
<g id="Vector">
<mask id="path-1-outside-1_476_25467" maskUnits="userSpaceOnUse" x="0" y="1.30859" width="18" height="16" fill="black">
<rect fill="white" y="1.30859" width="18" height="16"/>
<path d="M15.672 7.78574V14.9441C15.8727 14.9441 16.0653 14.9385 16.2579 14.9454C16.6955 14.9604 16.9504 15.2166 16.9622 15.6509C16.9672 15.8277 16.9635 16.0052 16.9628 16.1821C16.961 16.7726 16.7385 17.0001 16.1576 17.0001C13.0518 17.0001 9.94605 17.0001 6.84029 17.0001C5.15746 17.0001 3.47463 17.0001 1.7918 17.0001C1.2508 17.0001 1.01271 16.762 1.00897 16.2227C1.00834 16.1083 1.00897 15.9933 1.00897 15.879C1.00897 15.1722 1.15544 15.0066 1.8909 14.9172V14.6179C1.8909 12.3895 1.8884 10.1604 1.89526 7.93197C1.89526 7.73449 1.84228 7.61639 1.67275 7.50453C1.23521 7.21457 1.04138 6.78213 1.00647 6.2622C0.974063 5.78289 1.06194 5.34795 1.3019 4.92114C1.64221 4.31497 1.93702 3.68256 2.24304 3.05764C2.4936 2.54647 2.89187 2.29713 3.46154 2.309C3.87664 2.31775 4.29236 2.31275 4.70808 2.31025C4.87262 2.309 5.00538 2.34774 5.006 2.54209C5.006 2.74394 4.86016 2.76768 4.70309 2.76768C4.29797 2.76768 3.89284 2.77081 3.48772 2.76768C3.09568 2.76456 2.81895 2.92891 2.64443 3.28949C2.32469 3.9519 1.99062 4.6068 1.6447 5.30171H16.304C16.2704 5.21547 16.2448 5.13298 16.2068 5.05612C15.9201 4.47995 15.6184 3.91065 15.3461 3.32761C15.1585 2.92704 14.863 2.75581 14.4324 2.76643C14.0484 2.77581 13.6626 2.78393 13.2799 2.75831C13.1709 2.75081 12.997 2.6402 12.9783 2.55084C12.9346 2.34212 13.1098 2.309 13.2824 2.31025C13.7293 2.31275 14.1756 2.30775 14.6225 2.31275C15.0743 2.31837 15.4364 2.51522 15.6452 2.91204C16.0803 3.73942 16.5889 4.54806 16.8793 5.42606C17.1791 6.33219 16.9716 7.43391 15.6714 7.78511L15.672 7.78574ZM3.38301 14.9235H9.85007V13.6862C9.71482 13.6862 9.60201 13.6862 9.48982 13.6862C8.3162 13.6862 7.14258 13.6862 5.96896 13.6862C5.88606 13.6862 5.78696 13.708 5.72464 13.6712C5.64735 13.6256 5.55386 13.5293 5.55324 13.4543C5.55261 13.38 5.64423 13.2743 5.72152 13.2381C5.80878 13.1975 5.92471 13.2144 6.02817 13.2144C7.18122 13.2131 8.33365 13.2137 9.4867 13.2137C9.60699 13.2137 9.72666 13.2137 9.85568 13.2137V8.82872H8.33116C8.26197 9.34989 8.26571 9.36989 8.51565 9.74484C8.67146 9.97856 8.83351 10.2079 8.9806 10.446C9.16946 10.7509 9.04231 11.0259 8.6939 11.0415C8.27943 11.0597 7.86246 11.0597 7.44798 11.0415C7.09147 11.0259 6.96308 10.7597 7.15255 10.4547C7.31211 10.1992 7.47104 9.94106 7.65678 9.70484C7.87181 9.43113 7.87118 9.13992 7.80948 8.82997H5.43793C5.37498 9.18742 5.40303 9.49862 5.63675 9.78171C5.8013 9.98106 5.93343 10.2079 6.07304 10.4266C6.28807 10.7641 6.15968 11.029 5.7639 11.0428C5.37 11.0565 4.97422 11.0565 4.58031 11.0428C4.19201 11.0297 4.06424 10.7566 4.27865 10.4204C4.43509 10.1754 4.58467 9.92294 4.76542 9.69672C4.98481 9.42176 4.95303 9.1293 4.90877 8.82622H3.39236V13.2131C3.78813 13.2131 4.16147 13.2112 4.53481 13.2137C4.70808 13.215 4.89257 13.2269 4.88073 13.4649C4.87013 13.6774 4.70247 13.6868 4.5373 13.6862C4.15649 13.6843 3.77567 13.6855 3.38238 13.6855V14.9229L3.38301 14.9235ZM2.88688 14.9329C2.88688 14.7773 2.88688 14.6542 2.88688 14.531C2.88688 12.6776 2.88688 10.8241 2.88688 8.9712C2.88688 8.47002 3.01029 8.34503 3.51202 8.34441C5.57879 8.34316 7.64556 8.34316 9.7117 8.34441C10.2402 8.34441 10.353 8.45814 10.353 8.98245C10.353 10.8566 10.353 12.7307 10.353 14.6048C10.353 14.7135 10.353 14.8229 10.353 14.926H10.9202C10.9202 14.7979 10.9202 14.6854 10.9202 14.5735C10.9202 12.6994 10.9202 10.8253 10.9202 8.9512C10.9202 8.46627 11.0393 8.34566 11.5285 8.34441C12.3388 8.34191 13.1484 8.34253 13.9587 8.34441C14.4772 8.34566 14.5882 8.46189 14.5888 8.99619C14.5888 10.8597 14.5888 12.7238 14.5888 14.5873V14.9254H15.1878V7.8701C14.7901 7.60889 14.4511 7.38579 14.0939 7.15083C13.811 7.53952 13.3878 7.78136 12.8561 7.78324C12.3176 7.78511 11.8925 7.53015 11.5597 7.08583C11.2231 7.55452 10.7925 7.78199 10.2627 7.78261C9.73227 7.78261 9.3153 7.52827 8.98372 7.08458C8.64778 7.53515 8.22832 7.78261 7.69667 7.78386C7.15691 7.78511 6.73371 7.52702 6.40774 7.10458C5.56321 8.01133 4.78973 8.01133 3.80745 7.11208C3.46029 7.59201 2.97289 7.79949 2.39263 7.79136V14.9316H2.88564L2.88688 14.9329ZM8.94882 16.5314C11.2431 16.5314 13.5367 16.5314 15.831 16.5314C16.5752 16.5314 16.4786 16.582 16.4835 15.8802C16.4867 15.4272 16.4835 15.4272 16.0136 15.4272C11.3945 15.4272 6.77485 15.4259 2.15579 15.4284C1.40973 15.4284 1.492 15.3241 1.48826 16.0871C1.48577 16.5295 1.48826 16.5308 1.942 16.5308C4.2774 16.5308 6.61342 16.5308 8.94882 16.5308V16.5314ZM11.4145 14.9222H14.0858V8.83809H11.4145V14.9222ZM6.65269 5.82726C6.58974 6.36843 6.6558 6.84774 7.14445 7.15457C7.52153 7.39142 7.91419 7.37829 8.28628 7.12958C8.76371 6.81087 8.7824 6.33656 8.72569 5.82726H6.65269ZM11.3222 5.82726H9.24612C9.18753 6.35094 9.21558 6.82525 9.69924 7.13833C10.0645 7.37517 10.4465 7.38642 10.8149 7.1627C11.3098 6.86149 11.3802 6.38093 11.3216 5.82726H11.3222ZM4.08107 5.81601C4.01064 6.37593 4.07733 6.85774 4.58405 7.16895C4.94742 7.39204 5.41113 7.36017 5.74957 7.10146C6.12602 6.814 6.27 6.32719 6.12602 5.81601H4.08107ZM11.8159 5.80976C11.7461 6.36843 11.8165 6.84462 12.3014 7.15333C12.6641 7.38392 13.0499 7.38142 13.4146 7.1502C13.9044 6.83962 13.9587 6.36156 13.8939 5.82851C13.8471 5.82164 13.8078 5.81101 13.7692 5.81101C13.1279 5.80976 12.4865 5.81039 11.8159 5.81039V5.80976ZM1.50821 5.82038C1.44339 6.38468 1.49699 6.87399 2.01991 7.17707C2.39014 7.39142 2.85759 7.3558 3.18605 7.09083C3.59991 6.75713 3.63294 6.31157 3.56687 5.82038H1.50758H1.50821ZM16.4655 5.83413H14.3981C14.3389 6.38281 14.3981 6.86649 14.9004 7.1652C15.2707 7.38517 15.6533 7.37392 16.0155 7.13645C16.4935 6.82275 16.5247 6.34844 16.4655 5.83413ZM8.4851 10.5497C8.33801 10.326 8.21585 10.1398 8.07001 9.91794C7.92915 10.1335 7.80325 10.3254 7.65615 10.5497H8.4851ZM4.75857 10.5447H5.59001C5.43918 10.3204 5.3139 10.1335 5.17242 9.92294C5.02096 10.1504 4.90192 10.3291 4.75857 10.5447Z"/>
</mask>
<path d="M15.672 7.78574V14.9441C15.8727 14.9441 16.0653 14.9385 16.2579 14.9454C16.6955 14.9604 16.9504 15.2166 16.9622 15.6509C16.9672 15.8277 16.9635 16.0052 16.9628 16.1821C16.961 16.7726 16.7385 17.0001 16.1576 17.0001C13.0518 17.0001 9.94605 17.0001 6.84029 17.0001C5.15746 17.0001 3.47463 17.0001 1.7918 17.0001C1.2508 17.0001 1.01271 16.762 1.00897 16.2227C1.00834 16.1083 1.00897 15.9933 1.00897 15.879C1.00897 15.1722 1.15544 15.0066 1.8909 14.9172V14.6179C1.8909 12.3895 1.8884 10.1604 1.89526 7.93197C1.89526 7.73449 1.84228 7.61639 1.67275 7.50453C1.23521 7.21457 1.04138 6.78213 1.00647 6.2622C0.974063 5.78289 1.06194 5.34795 1.3019 4.92114C1.64221 4.31497 1.93702 3.68256 2.24304 3.05764C2.4936 2.54647 2.89187 2.29713 3.46154 2.309C3.87664 2.31775 4.29236 2.31275 4.70808 2.31025C4.87262 2.309 5.00538 2.34774 5.006 2.54209C5.006 2.74394 4.86016 2.76768 4.70309 2.76768C4.29797 2.76768 3.89284 2.77081 3.48772 2.76768C3.09568 2.76456 2.81895 2.92891 2.64443 3.28949C2.32469 3.9519 1.99062 4.6068 1.6447 5.30171H16.304C16.2704 5.21547 16.2448 5.13298 16.2068 5.05612C15.9201 4.47995 15.6184 3.91065 15.3461 3.32761C15.1585 2.92704 14.863 2.75581 14.4324 2.76643C14.0484 2.77581 13.6626 2.78393 13.2799 2.75831C13.1709 2.75081 12.997 2.6402 12.9783 2.55084C12.9346 2.34212 13.1098 2.309 13.2824 2.31025C13.7293 2.31275 14.1756 2.30775 14.6225 2.31275C15.0743 2.31837 15.4364 2.51522 15.6452 2.91204C16.0803 3.73942 16.5889 4.54806 16.8793 5.42606C17.1791 6.33219 16.9716 7.43391 15.6714 7.78511L15.672 7.78574ZM3.38301 14.9235H9.85007V13.6862C9.71482 13.6862 9.60201 13.6862 9.48982 13.6862C8.3162 13.6862 7.14258 13.6862 5.96896 13.6862C5.88606 13.6862 5.78696 13.708 5.72464 13.6712C5.64735 13.6256 5.55386 13.5293 5.55324 13.4543C5.55261 13.38 5.64423 13.2743 5.72152 13.2381C5.80878 13.1975 5.92471 13.2144 6.02817 13.2144C7.18122 13.2131 8.33365 13.2137 9.4867 13.2137C9.60699 13.2137 9.72666 13.2137 9.85568 13.2137V8.82872H8.33116C8.26197 9.34989 8.26571 9.36989 8.51565 9.74484C8.67146 9.97856 8.83351 10.2079 8.9806 10.446C9.16946 10.7509 9.04231 11.0259 8.6939 11.0415C8.27943 11.0597 7.86246 11.0597 7.44798 11.0415C7.09147 11.0259 6.96308 10.7597 7.15255 10.4547C7.31211 10.1992 7.47104 9.94106 7.65678 9.70484C7.87181 9.43113 7.87118 9.13992 7.80948 8.82997H5.43793C5.37498 9.18742 5.40303 9.49862 5.63675 9.78171C5.8013 9.98106 5.93343 10.2079 6.07304 10.4266C6.28807 10.7641 6.15968 11.029 5.7639 11.0428C5.37 11.0565 4.97422 11.0565 4.58031 11.0428C4.19201 11.0297 4.06424 10.7566 4.27865 10.4204C4.43509 10.1754 4.58467 9.92294 4.76542 9.69672C4.98481 9.42176 4.95303 9.1293 4.90877 8.82622H3.39236V13.2131C3.78813 13.2131 4.16147 13.2112 4.53481 13.2137C4.70808 13.215 4.89257 13.2269 4.88073 13.4649C4.87013 13.6774 4.70247 13.6868 4.5373 13.6862C4.15649 13.6843 3.77567 13.6855 3.38238 13.6855V14.9229L3.38301 14.9235ZM2.88688 14.9329C2.88688 14.7773 2.88688 14.6542 2.88688 14.531C2.88688 12.6776 2.88688 10.8241 2.88688 8.9712C2.88688 8.47002 3.01029 8.34503 3.51202 8.34441C5.57879 8.34316 7.64556 8.34316 9.7117 8.34441C10.2402 8.34441 10.353 8.45814 10.353 8.98245C10.353 10.8566 10.353 12.7307 10.353 14.6048C10.353 14.7135 10.353 14.8229 10.353 14.926H10.9202C10.9202 14.7979 10.9202 14.6854 10.9202 14.5735C10.9202 12.6994 10.9202 10.8253 10.9202 8.9512C10.9202 8.46627 11.0393 8.34566 11.5285 8.34441C12.3388 8.34191 13.1484 8.34253 13.9587 8.34441C14.4772 8.34566 14.5882 8.46189 14.5888 8.99619C14.5888 10.8597 14.5888 12.7238 14.5888 14.5873V14.9254H15.1878V7.8701C14.7901 7.60889 14.4511 7.38579 14.0939 7.15083C13.811 7.53952 13.3878 7.78136 12.8561 7.78324C12.3176 7.78511 11.8925 7.53015 11.5597 7.08583C11.2231 7.55452 10.7925 7.78199 10.2627 7.78261C9.73227 7.78261 9.3153 7.52827 8.98372 7.08458C8.64778 7.53515 8.22832 7.78261 7.69667 7.78386C7.15691 7.78511 6.73371 7.52702 6.40774 7.10458C5.56321 8.01133 4.78973 8.01133 3.80745 7.11208C3.46029 7.59201 2.97289 7.79949 2.39263 7.79136V14.9316H2.88564L2.88688 14.9329ZM8.94882 16.5314C11.2431 16.5314 13.5367 16.5314 15.831 16.5314C16.5752 16.5314 16.4786 16.582 16.4835 15.8802C16.4867 15.4272 16.4835 15.4272 16.0136 15.4272C11.3945 15.4272 6.77485 15.4259 2.15579 15.4284C1.40973 15.4284 1.492 15.3241 1.48826 16.0871C1.48577 16.5295 1.48826 16.5308 1.942 16.5308C4.2774 16.5308 6.61342 16.5308 8.94882 16.5308V16.5314ZM11.4145 14.9222H14.0858V8.83809H11.4145V14.9222ZM6.65269 5.82726C6.58974 6.36843 6.6558 6.84774 7.14445 7.15457C7.52153 7.39142 7.91419 7.37829 8.28628 7.12958C8.76371 6.81087 8.7824 6.33656 8.72569 5.82726H6.65269ZM11.3222 5.82726H9.24612C9.18753 6.35094 9.21558 6.82525 9.69924 7.13833C10.0645 7.37517 10.4465 7.38642 10.8149 7.1627C11.3098 6.86149 11.3802 6.38093 11.3216 5.82726H11.3222ZM4.08107 5.81601C4.01064 6.37593 4.07733 6.85774 4.58405 7.16895C4.94742 7.39204 5.41113 7.36017 5.74957 7.10146C6.12602 6.814 6.27 6.32719 6.12602 5.81601H4.08107ZM11.8159 5.80976C11.7461 6.36843 11.8165 6.84462 12.3014 7.15333C12.6641 7.38392 13.0499 7.38142 13.4146 7.1502C13.9044 6.83962 13.9587 6.36156 13.8939 5.82851C13.8471 5.82164 13.8078 5.81101 13.7692 5.81101C13.1279 5.80976 12.4865 5.81039 11.8159 5.81039V5.80976ZM1.50821 5.82038C1.44339 6.38468 1.49699 6.87399 2.01991 7.17707C2.39014 7.39142 2.85759 7.3558 3.18605 7.09083C3.59991 6.75713 3.63294 6.31157 3.56687 5.82038H1.50758H1.50821ZM16.4655 5.83413H14.3981C14.3389 6.38281 14.3981 6.86649 14.9004 7.1652C15.2707 7.38517 15.6533 7.37392 16.0155 7.13645C16.4935 6.82275 16.5247 6.34844 16.4655 5.83413ZM8.4851 10.5497C8.33801 10.326 8.21585 10.1398 8.07001 9.91794C7.92915 10.1335 7.80325 10.3254 7.65615 10.5497H8.4851ZM4.75857 10.5447H5.59001C5.43918 10.3204 5.3139 10.1335 5.17242 9.92294C5.02096 10.1504 4.90192 10.3291 4.75857 10.5447Z" fill="#FFC00B"/>
<path d="M15.672 7.78574V14.9441C15.8727 14.9441 16.0653 14.9385 16.2579 14.9454C16.6955 14.9604 16.9504 15.2166 16.9622 15.6509C16.9672 15.8277 16.9635 16.0052 16.9628 16.1821C16.961 16.7726 16.7385 17.0001 16.1576 17.0001C13.0518 17.0001 9.94605 17.0001 6.84029 17.0001C5.15746 17.0001 3.47463 17.0001 1.7918 17.0001C1.2508 17.0001 1.01271 16.762 1.00897 16.2227C1.00834 16.1083 1.00897 15.9933 1.00897 15.879C1.00897 15.1722 1.15544 15.0066 1.8909 14.9172V14.6179C1.8909 12.3895 1.8884 10.1604 1.89526 7.93197C1.89526 7.73449 1.84228 7.61639 1.67275 7.50453C1.23521 7.21457 1.04138 6.78213 1.00647 6.2622C0.974063 5.78289 1.06194 5.34795 1.3019 4.92114C1.64221 4.31497 1.93702 3.68256 2.24304 3.05764C2.4936 2.54647 2.89187 2.29713 3.46154 2.309C3.87664 2.31775 4.29236 2.31275 4.70808 2.31025C4.87262 2.309 5.00538 2.34774 5.006 2.54209C5.006 2.74394 4.86016 2.76768 4.70309 2.76768C4.29797 2.76768 3.89284 2.77081 3.48772 2.76768C3.09568 2.76456 2.81895 2.92891 2.64443 3.28949C2.32469 3.9519 1.99062 4.6068 1.6447 5.30171H16.304C16.2704 5.21547 16.2448 5.13298 16.2068 5.05612C15.9201 4.47995 15.6184 3.91065 15.3461 3.32761C15.1585 2.92704 14.863 2.75581 14.4324 2.76643C14.0484 2.77581 13.6626 2.78393 13.2799 2.75831C13.1709 2.75081 12.997 2.6402 12.9783 2.55084C12.9346 2.34212 13.1098 2.309 13.2824 2.31025C13.7293 2.31275 14.1756 2.30775 14.6225 2.31275C15.0743 2.31837 15.4364 2.51522 15.6452 2.91204C16.0803 3.73942 16.5889 4.54806 16.8793 5.42606C17.1791 6.33219 16.9716 7.43391 15.6714 7.78511L15.672 7.78574ZM3.38301 14.9235H9.85007V13.6862C9.71482 13.6862 9.60201 13.6862 9.48982 13.6862C8.3162 13.6862 7.14258 13.6862 5.96896 13.6862C5.88606 13.6862 5.78696 13.708 5.72464 13.6712C5.64735 13.6256 5.55386 13.5293 5.55324 13.4543C5.55261 13.38 5.64423 13.2743 5.72152 13.2381C5.80878 13.1975 5.92471 13.2144 6.02817 13.2144C7.18122 13.2131 8.33365 13.2137 9.4867 13.2137C9.60699 13.2137 9.72666 13.2137 9.85568 13.2137V8.82872H8.33116C8.26197 9.34989 8.26571 9.36989 8.51565 9.74484C8.67146 9.97856 8.83351 10.2079 8.9806 10.446C9.16946 10.7509 9.04231 11.0259 8.6939 11.0415C8.27943 11.0597 7.86246 11.0597 7.44798 11.0415C7.09147 11.0259 6.96308 10.7597 7.15255 10.4547C7.31211 10.1992 7.47104 9.94106 7.65678 9.70484C7.87181 9.43113 7.87118 9.13992 7.80948 8.82997H5.43793C5.37498 9.18742 5.40303 9.49862 5.63675 9.78171C5.8013 9.98106 5.93343 10.2079 6.07304 10.4266C6.28807 10.7641 6.15968 11.029 5.7639 11.0428C5.37 11.0565 4.97422 11.0565 4.58031 11.0428C4.19201 11.0297 4.06424 10.7566 4.27865 10.4204C4.43509 10.1754 4.58467 9.92294 4.76542 9.69672C4.98481 9.42176 4.95303 9.1293 4.90877 8.82622H3.39236V13.2131C3.78813 13.2131 4.16147 13.2112 4.53481 13.2137C4.70808 13.215 4.89257 13.2269 4.88073 13.4649C4.87013 13.6774 4.70247 13.6868 4.5373 13.6862C4.15649 13.6843 3.77567 13.6855 3.38238 13.6855V14.9229L3.38301 14.9235ZM2.88688 14.9329C2.88688 14.7773 2.88688 14.6542 2.88688 14.531C2.88688 12.6776 2.88688 10.8241 2.88688 8.9712C2.88688 8.47002 3.01029 8.34503 3.51202 8.34441C5.57879 8.34316 7.64556 8.34316 9.7117 8.34441C10.2402 8.34441 10.353 8.45814 10.353 8.98245C10.353 10.8566 10.353 12.7307 10.353 14.6048C10.353 14.7135 10.353 14.8229 10.353 14.926H10.9202C10.9202 14.7979 10.9202 14.6854 10.9202 14.5735C10.9202 12.6994 10.9202 10.8253 10.9202 8.9512C10.9202 8.46627 11.0393 8.34566 11.5285 8.34441C12.3388 8.34191 13.1484 8.34253 13.9587 8.34441C14.4772 8.34566 14.5882 8.46189 14.5888 8.99619C14.5888 10.8597 14.5888 12.7238 14.5888 14.5873V14.9254H15.1878V7.8701C14.7901 7.60889 14.4511 7.38579 14.0939 7.15083C13.811 7.53952 13.3878 7.78136 12.8561 7.78324C12.3176 7.78511 11.8925 7.53015 11.5597 7.08583C11.2231 7.55452 10.7925 7.78199 10.2627 7.78261C9.73227 7.78261 9.3153 7.52827 8.98372 7.08458C8.64778 7.53515 8.22832 7.78261 7.69667 7.78386C7.15691 7.78511 6.73371 7.52702 6.40774 7.10458C5.56321 8.01133 4.78973 8.01133 3.80745 7.11208C3.46029 7.59201 2.97289 7.79949 2.39263 7.79136V14.9316H2.88564L2.88688 14.9329ZM8.94882 16.5314C11.2431 16.5314 13.5367 16.5314 15.831 16.5314C16.5752 16.5314 16.4786 16.582 16.4835 15.8802C16.4867 15.4272 16.4835 15.4272 16.0136 15.4272C11.3945 15.4272 6.77485 15.4259 2.15579 15.4284C1.40973 15.4284 1.492 15.3241 1.48826 16.0871C1.48577 16.5295 1.48826 16.5308 1.942 16.5308C4.2774 16.5308 6.61342 16.5308 8.94882 16.5308V16.5314ZM11.4145 14.9222H14.0858V8.83809H11.4145V14.9222ZM6.65269 5.82726C6.58974 6.36843 6.6558 6.84774 7.14445 7.15457C7.52153 7.39142 7.91419 7.37829 8.28628 7.12958C8.76371 6.81087 8.7824 6.33656 8.72569 5.82726H6.65269ZM11.3222 5.82726H9.24612C9.18753 6.35094 9.21558 6.82525 9.69924 7.13833C10.0645 7.37517 10.4465 7.38642 10.8149 7.1627C11.3098 6.86149 11.3802 6.38093 11.3216 5.82726H11.3222ZM4.08107 5.81601C4.01064 6.37593 4.07733 6.85774 4.58405 7.16895C4.94742 7.39204 5.41113 7.36017 5.74957 7.10146C6.12602 6.814 6.27 6.32719 6.12602 5.81601H4.08107ZM11.8159 5.80976C11.7461 6.36843 11.8165 6.84462 12.3014 7.15333C12.6641 7.38392 13.0499 7.38142 13.4146 7.1502C13.9044 6.83962 13.9587 6.36156 13.8939 5.82851C13.8471 5.82164 13.8078 5.81101 13.7692 5.81101C13.1279 5.80976 12.4865 5.81039 11.8159 5.81039V5.80976ZM1.50821 5.82038C1.44339 6.38468 1.49699 6.87399 2.01991 7.17707C2.39014 7.39142 2.85759 7.3558 3.18605 7.09083C3.59991 6.75713 3.63294 6.31157 3.56687 5.82038H1.50758H1.50821ZM16.4655 5.83413H14.3981C14.3389 6.38281 14.3981 6.86649 14.9004 7.1652C15.2707 7.38517 15.6533 7.37392 16.0155 7.13645C16.4935 6.82275 16.5247 6.34844 16.4655 5.83413ZM8.4851 10.5497C8.33801 10.326 8.21585 10.1398 8.07001 9.91794C7.92915 10.1335 7.80325 10.3254 7.65615 10.5497H8.4851ZM4.75857 10.5447H5.59001C5.43918 10.3204 5.3139 10.1335 5.17242 9.92294C5.02096 10.1504 4.90192 10.3291 4.75857 10.5447Z" stroke="#FFC00B" stroke-width="0.4" mask="url(#path-1-outside-1_476_25467)"/>
</g>
<path id="Vector_2" d="M9.21057 4.17551H8.96954C8.72541 4.17551 8.48117 4.17578 8.23688 4.17605C7.65029 4.1767 7.06333 4.17735 6.47655 4.17426C6.18541 4.17293 5.95078 4.10327 5.78875 3.94185C5.62687 3.78055 5.55521 3.54528 5.55063 3.25219C5.54314 2.77265 5.54188 2.29218 5.55063 1.81213L5.55064 1.8119C5.55657 1.52265 5.63361 1.28984 5.79944 1.13032C5.9649 0.971162 6.20188 0.901266 6.49254 0.900937L6.49258 0.900937C8.15427 0.899688 9.81596 0.899688 11.4777 0.900937C11.768 0.900949 12.0049 0.970496 12.1705 1.12948C12.3364 1.28884 12.4137 1.52168 12.4196 1.81124C12.4296 2.29142 12.4283 2.77201 12.4196 3.25168C12.4196 3.25172 12.4196 3.25177 12.4196 3.25182L12.3196 3.25C12.3103 3.80805 12.0454 4.07114 11.4925 4.07364L9.21057 4.17551ZM9.21057 4.17551L9.21002 4.17496L9.21057 4.17551ZM11.8565 3.21625C11.8653 3.51559 11.7325 3.6262 11.4458 3.6237L11.8565 3.21625ZM11.8565 3.21625C11.8441 2.76882 11.8441 2.32075 11.8565 1.87332V3.21625ZM11.4467 3.5237L11.4466 3.5237C10.8479 3.51875 10.249 3.51963 9.65061 3.52051C9.43192 3.52084 9.21331 3.52116 8.99482 3.52119L8.9942 3.52057H8.95271C8.68599 3.52057 8.41935 3.52078 8.15276 3.52099C7.61975 3.52141 7.08693 3.52182 6.55397 3.52057L6.55391 3.52057C6.46415 3.52042 6.39952 3.51582 6.3519 3.50561C6.30541 3.49564 6.28238 3.48182 6.26872 3.46816C6.25506 3.4545 6.24128 3.43149 6.23132 3.38514C6.22112 3.33767 6.21651 3.27332 6.2162 3.18404L6.2162 3.18396C6.21555 3.03288 6.21642 2.88049 6.21729 2.72748C6.21892 2.4423 6.22056 2.15493 6.21242 1.86984L6.21242 1.86977C6.20866 1.74151 6.23336 1.67248 6.26837 1.63438C6.30218 1.59758 6.3654 1.5684 6.49188 1.56837C8.15362 1.57087 9.81599 1.57087 11.4777 1.56837L11.4778 1.56837C11.6044 1.56809 11.6671 1.5975 11.7006 1.63433C11.7356 1.67278 11.76 1.74231 11.7566 1.87053C11.7441 2.31983 11.7441 2.76975 11.7566 3.21904L11.7566 3.21917C11.7606 3.35653 11.7311 3.42445 11.693 3.46078C11.6533 3.49861 11.5809 3.52487 11.4467 3.5237Z" fill="#FFC00B" stroke="#FFC00B" stroke-width="0.2"/>
<path id="Vector_3" d="M12.1823 12.5447C12.2549 12.5318 12.3229 12.4864 12.3735 12.4387C12.425 12.3902 12.4724 12.3263 12.495 12.2596L12.4951 12.2594C12.5212 12.1815 12.5231 12.1005 12.5204 12.0292C12.5191 11.9952 12.5171 11.966 12.5152 11.9386C12.5126 11.9012 12.5103 11.867 12.5103 11.8282C12.5103 11.7926 12.5126 11.7613 12.5151 11.7267C12.517 11.7015 12.519 11.6746 12.5203 11.6429C12.5231 11.5768 12.5217 11.4999 12.4959 11.4264C12.4707 11.3543 12.4199 11.2985 12.3762 11.256C12.359 11.2392 12.3405 11.2224 12.3236 11.207C12.3187 11.2025 12.314 11.1982 12.3094 11.194C12.288 11.1744 12.2693 11.1567 12.2532 11.1392L12.1836 11.0638L12.11 11.1353C12.0941 11.1508 12.0739 11.1671 12.0494 11.186C12.0438 11.1904 12.0378 11.1949 12.0316 11.1997C12.0127 11.2141 11.9919 11.23 11.973 11.2457C11.9477 11.2666 11.9202 11.2915 11.8978 11.3199C11.8755 11.3482 11.8532 11.3861 11.8478 11.433M12.1823 12.5447C12.132 12.5537 12.0856 12.5333 12.059 12.5191C12.0274 12.5022 11.9964 12.4789 11.9692 12.4541C11.9419 12.4291 11.9155 12.3999 11.8946 12.3692C11.8751 12.3406 11.8538 12.3014 11.849 12.2579L11.849 12.2574L11.849 12.2574C11.8203 11.9858 11.8163 11.7059 11.8478 11.433M12.1823 12.5447C12.1824 12.5447 12.1825 12.5446 12.1826 12.5446L12.1647 12.4462L12.1822 12.5447C12.1822 12.5447 12.1822 12.5447 12.1823 12.5447ZM11.8478 11.433L11.9472 11.4445L11.8478 11.4331C11.8478 11.4331 11.8478 11.433 11.8478 11.433ZM12.1796 11.207L12.2037 11.2318C12.1954 11.2236 12.1874 11.2154 12.1796 11.207ZM12.1796 11.207L12.1621 11.2232C12.1682 11.2179 12.1741 11.2125 12.1796 11.207Z" fill="#FFC00B" stroke="#FFC00B" stroke-width="0.2"/>
</g>
</g>
</g>
</svg>
