 <svg xmlns="http://www.w3.org/2000/svg" width="25" height="22" viewBox="0 0 25 22" fill="none">
                                    <g clip-path="url(#clip0_1830_3674)">
                                      <path d="M0 0.00729745C4.80472 0.00729745 9.60944 -0.00289164 14.4142 0.0120531C16.2735 0.0181668 18.0656 0.38635 19.7568 1.19201C19.9666 1.29186 20.1832 1.38221 20.3674 1.53166C20.0034 1.88943 19.6401 2.24787 19.2774 2.607C19.2525 2.63146 19.2505 2.67969 19.2377 2.71705C19.1859 2.69599 19.1328 2.67765 19.0824 2.65455C17.7365 2.02763 16.2728 1.70051 14.7907 1.69537C10.4971 1.66684 6.20343 1.68518 1.90911 1.67567C1.67173 1.67567 1.60449 1.72119 1.60449 1.97593C1.61256 8.09647 1.61435 14.2166 1.60987 20.3362C1.11673 20.8412 0.623594 21.3457 0.130457 21.8497C0.115469 21.8691 0.0959404 21.8844 0.0736343 21.8942C0.0513282 21.9041 0.0269467 21.9081 0.00269041 21.9061L0 0.00729745Z" fill="#494949" />
                                      <path d="M19.2377 2.71273C19.2505 2.67537 19.2525 2.62714 19.2774 2.60269C19.6392 2.24265 20.0025 1.88421 20.3674 1.52734C22.0661 2.44509 23.2086 3.86484 23.9658 5.62356C24.6503 7.21517 24.9684 8.88762 24.9973 10.6192C25.0262 12.3507 24.8716 14.0456 24.3423 15.6949C23.3666 18.7369 21.2934 20.6043 18.2747 21.4548C16.9977 21.8113 15.6786 21.9912 14.3536 21.9894C9.6666 21.9976 4.97956 21.9976 0.29252 21.9894C0.195013 21.9894 0.0975065 21.9948 0 21.9969V21.9018C0.0242563 21.9038 0.0486378 21.8997 0.0709439 21.8899C0.09325 21.8801 0.112779 21.8648 0.127768 21.8454C0.620904 21.3413 1.11404 20.8368 1.60718 20.3319C1.66366 20.336 1.72015 20.3428 1.77731 20.3428H14.1506C15.4222 20.3428 16.6803 20.2259 17.9096 19.8788C20.2746 19.2104 21.9813 17.7818 22.8273 15.4212C23.6248 13.1965 23.723 10.8977 23.3377 8.58058C22.9046 5.97204 21.6142 3.94771 19.2377 2.71273Z" fill="black" />
                                      <path d="M19.2394 2.71258C21.6158 3.94892 22.9063 5.97325 23.3414 8.5811C23.7267 10.8982 23.6285 13.2004 22.831 15.4217C21.985 17.7823 20.2756 19.2109 17.9133 19.8793C16.684 20.2264 15.4252 20.3426 14.1542 20.3433H1.78098C1.72382 20.3433 1.66734 20.3365 1.61085 20.3324C1.61085 14.2128 1.60906 8.09268 1.60547 1.97214C1.60547 1.7174 1.67271 1.6712 1.91009 1.67188C6.20441 1.68139 10.4981 1.66305 14.7917 1.69158C16.274 1.6964 17.7379 2.0233 19.084 2.65008C19.1345 2.67318 19.1876 2.69152 19.2394 2.71258ZM19.6428 4.92712C19.6388 4.89247 19.6159 4.8816 19.5843 4.8816H19.5877C19.5832 4.86165 19.5716 4.84405 19.5551 4.83216C19.5386 4.82026 19.5184 4.81489 19.4983 4.81707C19.4862 4.7877 19.4657 4.76264 19.4395 4.74509C19.4133 4.72755 19.3825 4.71831 19.351 4.71857L19.3369 4.7274L19.351 4.71789C19.3382 4.68898 19.3173 4.66449 19.2909 4.64747C19.2645 4.63044 19.2337 4.62162 19.2024 4.62211C18.8877 4.35514 18.5104 4.20298 18.1372 4.04877C16.7479 3.47544 15.2846 3.29339 13.7998 3.27436C12.0938 3.25195 10.3871 3.26961 8.68108 3.26214C8.49952 3.26214 8.44841 3.30901 8.44975 3.49446C8.45782 4.70906 8.45312 5.92434 8.45581 7.13894C8.45581 7.20687 8.41344 7.28838 8.50019 7.33729C8.87408 7.33729 9.24796 7.33254 9.62185 7.34748C9.79237 7.35104 9.96032 7.39016 10.1152 7.46241C10.27 7.53465 10.4084 7.63845 10.5216 7.76729C10.8632 8.14499 10.9923 8.5974 11.0233 9.0933C11.0959 10.2101 10.6453 11.1434 9.56469 11.4247C9.28691 11.4881 9.00101 11.5071 8.71739 11.4811C8.51229 11.4682 8.44101 11.515 8.44505 11.7439C8.46052 12.606 8.45043 13.4687 8.45177 14.3314C8.45177 15.8997 8.45424 17.4685 8.45917 19.0377C8.40604 19.2639 8.56474 19.2251 8.68982 19.2251C10.3246 19.2251 11.9586 19.236 13.5934 19.2217C14.9269 19.2102 16.251 19.0947 17.534 18.6885C19.1883 18.1654 20.5184 17.2232 21.3368 15.6398C21.9857 14.3844 22.211 13.0306 22.2244 11.6319C22.2244 11.443 22.1773 11.3982 21.9964 11.4002C21.1895 11.4097 20.3859 11.3961 19.5816 11.4097C19.3718 11.4131 19.3308 11.3486 19.3322 11.1496C19.3402 10.1476 19.3322 9.1456 19.3281 8.14431C19.3281 7.93304 19.3409 7.72178 19.3328 7.51119C19.3281 7.38145 19.3725 7.34476 19.4976 7.34748C19.7706 7.3536 20.0436 7.34748 20.3166 7.34273C20.4679 7.32846 20.5184 7.38756 20.5184 7.54992C20.5096 8.36508 20.5184 9.17617 20.511 9.98862C20.511 10.1578 20.552 10.2176 20.7268 10.2128C21.1579 10.2006 21.5889 10.2053 22.0193 10.2128C22.1444 10.2128 22.1827 10.1829 22.178 10.0457C22.1571 9.62909 22.1038 9.2148 22.0186 8.80663C21.864 8.00641 21.6259 7.23743 21.1444 6.56492C20.7826 5.97053 20.3469 5.44407 19.774 5.04396C19.7814 5.00456 19.7598 4.98961 19.7262 4.98418C19.7198 4.96482 19.7072 4.94815 19.6904 4.93684C19.6736 4.92552 19.6536 4.92018 19.6334 4.92168L19.6428 4.92712ZM6.35034 7.39503C5.80834 6.84751 5.14462 6.67361 4.41231 6.81762C3.54686 6.98745 2.94971 7.51391 2.6888 8.36712C2.43259 9.20402 2.59667 9.96824 3.20794 10.6136C3.1649 10.7596 3.29939 10.7936 3.37135 10.8479C4.16821 11.4451 5.02694 11.5402 5.8971 11.0606C6.76726 10.581 7.15325 9.80113 7.06987 8.81274C7.0228 8.25639 6.81097 7.75167 6.35034 7.39503ZM2.83943 18.9942C2.7816 19.1925 2.93089 19.1382 3.02099 19.1382C4.2247 19.1382 5.42907 19.1348 6.63277 19.145C6.8224 19.145 6.8567 19.0913 6.85603 18.9127C6.84863 17.3679 6.85266 15.8225 6.85132 14.2778C6.85132 13.612 6.84527 12.947 6.84191 12.2813C6.78744 12.1651 6.68388 12.2269 6.60789 12.2263C5.42907 12.2215 4.25092 12.2263 3.0721 12.2181C2.8744 12.2181 2.81455 12.2602 2.81522 12.4701C2.82396 14.5719 2.8206 16.6737 2.82127 18.7754C2.82127 18.8481 2.83338 18.9208 2.83943 18.9942ZM8.96957 8.19322C8.87239 8.19969 8.7749 8.19969 8.67772 8.19322C8.47127 8.16469 8.39663 8.22786 8.40403 8.45543C8.42218 9.02061 8.41008 9.58647 8.41008 10.1537C8.41008 10.6659 8.41411 10.6971 8.91577 10.6353C9.45037 10.5708 9.86864 10.3874 9.95068 9.97436C10.0268 9.62118 10.0418 9.25737 9.99506 8.89902C9.91504 8.3447 9.72944 8.19661 9.16458 8.19661L8.96957 8.19322Z" fill="#FEFDFD" />
                                      <path d="M8.45569 19.0394C8.453 17.4702 8.45053 15.9015 8.44829 14.3332C8.44829 13.4705 8.45703 12.6078 8.44157 11.7457C8.43753 11.5168 8.50881 11.4699 8.71391 11.4828C8.99753 11.5089 9.28343 11.4899 9.56121 11.4264C10.6419 11.1452 11.0924 10.2118 11.0198 9.09506C10.9875 8.59917 10.8597 8.14403 10.5181 7.76906C10.4049 7.64022 10.2665 7.53642 10.1117 7.46417C9.95684 7.39193 9.78889 7.3528 9.61837 7.34925C9.24448 7.3343 8.87059 7.3411 8.49671 7.33906C8.62178 7.17195 8.80469 7.07481 8.96339 6.94846L13.2671 3.49894C13.3591 3.43042 13.4718 3.39654 13.5859 3.40316C14.2987 3.40119 15.0107 3.44932 15.7169 3.54717C16.8601 3.69662 17.9562 3.99619 18.9763 4.55119C19.0436 4.58855 19.1108 4.65104 19.2002 4.62387C19.2123 4.71626 19.2634 4.74479 19.3488 4.71966L19.3347 4.72916L19.3488 4.72101C19.3576 4.81544 19.4114 4.84125 19.4961 4.81883C19.4961 4.88065 19.5378 4.88676 19.5856 4.88337H19.5822C19.5842 4.89713 19.5914 4.90958 19.6023 4.91807C19.6133 4.92656 19.627 4.93044 19.6407 4.92888L19.6367 4.92412C19.6441 4.98119 19.6831 4.99206 19.7295 4.98662L19.7772 5.0464C20.3501 5.44651 20.7859 5.97297 21.1477 6.56737C20.8074 6.75825 20.5868 7.07888 20.3179 7.34721C20.0448 7.34721 19.7718 7.35808 19.4988 7.35197C19.3737 7.35197 19.3293 7.38593 19.3341 7.51568C19.3421 7.72626 19.3341 7.93753 19.3293 8.14879C19.1835 8.2766 19.0485 8.41658 18.9259 8.56724C18.712 8.81926 18.4733 9.04955 18.2453 9.28866C18.0799 8.88108 17.9158 8.4735 17.7491 8.06591C17.6536 7.83223 17.6146 7.51024 17.4397 7.39408C17.2649 7.27792 16.9522 7.36963 16.7 7.354C16.5521 7.34449 16.4909 7.40223 16.4398 7.53877C16.1379 8.34171 15.8258 9.14126 15.5165 9.94216C15.3309 10.4211 15.1446 10.9 14.949 11.4061C15.2704 11.4061 15.5616 11.4013 15.8521 11.4061C15.9677 11.4061 15.9966 11.3449 16.035 11.2525C16.1251 11.0365 16.1251 10.7268 16.3248 10.6283C16.5245 10.5298 16.7861 10.599 17.0215 10.5963C17.062 10.5978 17.1024 10.6017 17.1425 10.6079C16.8406 10.9632 16.4889 11.2661 16.1567 11.5902C15.3914 12.3374 14.6201 13.0751 13.8528 13.8176C13.0553 14.5893 12.2645 15.3664 11.4616 16.132C10.7703 16.7902 10.1113 17.4838 9.41327 18.1339C9.08645 18.428 8.78654 18.7548 8.45569 19.0394ZM11.6741 9.3763C11.6741 9.97612 11.6828 10.576 11.6694 11.1751C11.6647 11.368 11.7272 11.4047 11.9034 11.402C12.5698 11.3918 13.2369 11.3979 13.9033 11.3979C14.5192 11.3979 14.5139 11.3979 14.4997 10.7777C14.4964 10.6344 14.4513 10.5984 14.3168 10.6004C13.9019 10.6079 13.487 10.6004 13.0728 10.6004C12.4434 10.6004 12.4494 10.6004 12.4602 9.96525C12.4602 9.79543 12.5274 9.76146 12.6767 9.76486C13.0802 9.77369 13.4897 9.76486 13.8959 9.76486C14.5145 9.76486 14.5098 9.76486 14.4944 9.14533C14.4903 9.0054 14.4507 8.96192 14.3128 8.96464C13.8979 8.97211 13.483 8.96464 13.0688 8.96464C12.4481 8.96464 12.4535 8.96464 12.4602 8.33424C12.4602 8.16713 12.5194 8.13045 12.674 8.13045C13.0889 8.14064 13.5038 8.13045 13.9181 8.13045C14.5024 8.13045 14.4964 8.13045 14.4944 7.53809C14.4944 7.37506 14.4466 7.3343 14.2879 7.3343C13.481 7.342 12.676 7.342 11.8731 7.3343C11.7104 7.3343 11.668 7.38253 11.6714 7.54217C11.6774 8.15762 11.6721 8.769 11.6721 9.3763H11.6741Z" fill="#CC1B69" />
                                      <path d="M18.2408 9.28441C18.4688 9.04529 18.7075 8.81501 18.9213 8.56298C19.044 8.41232 19.1789 8.27234 19.3248 8.14453C19.3248 9.14583 19.3369 10.1478 19.3288 11.1498C19.3288 11.3488 19.3685 11.4133 19.5783 11.41C20.3853 11.3964 21.1882 11.41 21.9931 11.4004C22.174 11.4004 22.2231 11.4432 22.2211 11.6321C22.2056 13.0335 21.9824 14.3874 21.3334 15.64C20.5151 17.2235 19.1816 18.1657 17.5307 18.6887C16.2476 19.0963 14.9236 19.2104 13.5901 19.222C11.9553 19.2362 10.3213 19.2254 8.68651 19.2254C8.56143 19.2254 8.40273 19.2641 8.45585 19.0379C8.78872 18.7499 9.08864 18.4265 9.41074 18.1263C10.1088 17.4762 10.7678 16.7826 11.4591 16.1243C12.262 15.3588 13.0528 14.5816 13.8503 13.8099C14.6176 13.0675 15.3889 12.3284 16.1542 11.5825C16.4864 11.2585 16.838 10.9555 17.14 10.6002C17.2651 10.5472 17.3969 10.586 17.5246 10.5703C17.6524 10.5547 17.7116 10.6247 17.7613 10.7313C17.8615 10.948 17.8474 11.2748 18.0565 11.3692C18.2657 11.4636 18.534 11.3923 18.7774 11.3943C18.7938 11.393 18.8102 11.393 18.8265 11.3943C19.0282 11.4222 19.0148 11.3359 18.9516 11.1905C18.7196 10.6505 18.4977 10.1036 18.2724 9.5602C18.2341 9.47325 18.1769 9.38562 18.2408 9.28441Z" fill="#B50662" />
                                      <path d="M6.84356 12.2812C6.84692 12.947 6.8523 13.612 6.85297 14.2777C6.85297 15.8225 6.85297 17.3679 6.85768 18.9126C6.85768 19.0913 6.82406 19.1463 6.63442 19.145C5.43072 19.1348 4.22635 19.1402 3.02264 19.1382C2.93253 19.1382 2.78325 19.1925 2.84108 18.9942C2.93455 18.988 2.94733 18.9024 2.9823 18.8427C4.06496 16.9859 5.14739 15.1291 6.2296 13.2724C6.4226 12.9388 6.57457 12.5747 6.84356 12.2812Z" fill="black" />
                                      <path d="M6.84309 12.2808C6.57949 12.5742 6.42549 12.9383 6.22913 13.2739C5.14289 15.1275 4.06046 16.9843 2.98183 18.8442C2.94686 18.904 2.93409 18.9896 2.84061 18.9957C2.83456 18.9223 2.82246 18.8497 2.82246 18.777C2.82246 16.6752 2.82246 14.5734 2.81641 12.4717C2.81641 12.2618 2.87558 12.2183 3.07329 12.2196C4.25211 12.2291 5.43025 12.223 6.60907 12.2278C6.6817 12.2264 6.78526 12.1666 6.84309 12.2808Z" fill="#494949" />
                                      <path d="M19.1997 4.62766C19.1089 4.65483 19.0443 4.59234 18.9757 4.55498C17.9556 3.99998 16.8602 3.70041 15.7163 3.55096C15.0102 3.45242 14.2981 3.40362 13.5853 3.40491C13.4712 3.39829 13.3585 3.43217 13.2666 3.50069L8.96282 6.95021C8.80412 7.07656 8.62121 7.1737 8.49613 7.34081C8.40938 7.2919 8.45175 7.20834 8.45175 7.14245C8.45175 5.92785 8.45175 4.71257 8.4457 3.49798C8.4457 3.31252 8.49546 3.26429 8.67702 3.26565C10.3831 3.27313 12.0898 3.25546 13.7958 3.27788C15.2806 3.2969 16.7438 3.48167 18.1331 4.05229C18.5077 4.20717 18.8849 4.35934 19.1997 4.62766Z" fill="#F42588" />
                                      <path d="M6.34994 7.39453C6.81057 7.75253 7.02239 8.25589 7.06946 8.81224C7.15285 9.80063 6.76215 10.5832 5.8967 11.0601C5.03124 11.5369 4.16781 11.4446 3.37094 10.8474C3.29899 10.7931 3.1645 10.7591 3.20753 10.6131C3.23626 10.5992 3.26333 10.5821 3.28823 10.5621C4.28033 9.5622 5.27153 8.56158 6.26184 7.56028C6.3069 7.51409 6.35868 7.47061 6.34994 7.39453Z" fill="black" />
                                      <path d="M6.34824 7.39524C6.35698 7.47132 6.30587 7.5148 6.26014 7.56099C5.26894 8.56229 4.27774 9.56291 3.28653 10.5628C3.26163 10.5829 3.23456 10.6 3.20584 10.6138C2.59457 9.96845 2.43049 9.20423 2.6867 8.36733C2.94761 7.51412 3.54476 6.98766 4.41021 6.81783C5.14252 6.67382 5.80624 6.84772 6.34824 7.39524Z" fill="#494949" />
                                      <path d="M20.3125 7.34234C20.5815 7.07402 20.8021 6.75338 21.1423 6.5625C21.6211 7.23501 21.8592 8.00399 22.0165 8.80421C22.1014 9.21217 22.1545 9.62624 22.1752 10.0426C22.1799 10.1784 22.1416 10.2111 22.0165 10.2097C21.5861 10.2043 21.1551 10.1995 20.724 10.2097C20.5492 10.2144 20.5068 10.1547 20.5082 9.98552C20.5163 9.17036 20.5082 8.35994 20.5156 7.54682C20.5156 7.3865 20.4638 7.3274 20.3125 7.34234Z" fill="#B50662" />
                                      <path d="M8.96838 8.1934H9.16339C9.72826 8.1934 9.91385 8.34148 9.99388 8.8958C10.0406 9.25415 10.0256 9.61797 9.94949 9.97114C9.86745 10.3842 9.44919 10.5676 8.91458 10.6321C8.41293 10.6932 8.40889 10.6627 8.40889 10.1505C8.40889 9.58461 8.421 9.01875 8.40284 8.45221C8.39544 8.22464 8.47009 8.16147 8.67653 8.19C8.77363 8.1976 8.87113 8.19873 8.96838 8.1934Z" fill="#CC1B69" />
                                      <path d="M19.3517 4.71689C19.2663 4.74203 19.2172 4.7135 19.2031 4.62111C19.2345 4.62063 19.2652 4.62944 19.2917 4.64647C19.3181 4.6635 19.339 4.68798 19.3517 4.71689Z" fill="#ED328A" />
                                      <path d="M19.4949 4.81659C19.4102 4.83901 19.3564 4.81319 19.3477 4.71877C19.3791 4.71827 19.4099 4.72733 19.4362 4.74478C19.4625 4.76222 19.4829 4.78724 19.4949 4.81659Z" fill="#ED328A" />
                                      <path d="M19.5816 4.88141C19.5339 4.88141 19.4935 4.88141 19.4922 4.81688C19.5123 4.8147 19.5326 4.82008 19.5491 4.83197C19.5655 4.84387 19.5771 4.86146 19.5816 4.88141Z" fill="#ED328A" />
                                      <path d="M19.7256 4.98462C19.6792 4.98462 19.6402 4.97918 19.6328 4.92212C19.653 4.92062 19.673 4.92596 19.6898 4.93728C19.7066 4.9486 19.7192 4.96526 19.7256 4.98462Z" fill="#ED328A" />
                                      <path d="M19.6366 4.92442C19.6229 4.92598 19.6092 4.9221 19.5983 4.91361C19.5874 4.90512 19.5801 4.89268 19.5781 4.87891C19.6097 4.87891 19.6326 4.88978 19.6366 4.92442Z" fill="#ED328A" />
                                      <path d="M19.7704 5.04025L19.7227 4.98047C19.7563 4.9859 19.7778 5.00085 19.7704 5.04025Z" fill="#ED328A" />
                                      <path d="M18.241 9.28406C18.1772 9.38528 18.2343 9.47291 18.2713 9.56257C18.4966 10.106 18.7185 10.6495 18.9505 11.1929C19.0137 11.341 19.0244 11.4273 18.8254 11.3967C18.8091 11.3953 18.7926 11.3953 18.7763 11.3967C18.5329 11.3967 18.2572 11.4646 18.0554 11.3716C17.8537 11.2785 17.8604 10.9504 17.7602 10.7337C17.7105 10.627 17.6533 10.5571 17.5235 10.5727C17.3937 10.5883 17.264 10.5496 17.1389 10.6026C17.0988 10.5964 17.0584 10.5925 17.0178 10.591C16.7825 10.591 16.5128 10.5285 16.3212 10.623C16.1295 10.7174 16.1194 11.0306 16.0313 11.2473C15.993 11.3396 15.9641 11.4035 15.8484 11.4008C15.5579 11.394 15.2667 11.4008 14.9453 11.4008C15.141 10.8947 15.3273 10.4158 15.5129 9.93687C15.8222 9.13597 16.1342 8.33643 16.4362 7.53349C16.4873 7.39763 16.5485 7.3392 16.6964 7.34871C16.9479 7.36434 17.2586 7.2706 17.4361 7.3888C17.6136 7.507 17.6499 7.82695 17.7454 8.06063C17.9115 8.46617 18.0729 8.87512 18.241 9.28406ZM17.311 9.36829L16.9829 8.36767L16.6466 9.36829H17.311Z" fill="#FEFDFD" />
                                      <path d="M11.6736 9.37881C11.6736 8.77083 11.679 8.16285 11.6702 7.55555C11.6702 7.39591 11.7099 7.34632 11.872 7.34768C12.6789 7.35629 13.4839 7.35629 14.2868 7.34768C14.4455 7.34768 14.4932 7.38912 14.4932 7.55148C14.4932 8.14383 14.5013 8.14383 13.9169 8.14383C13.5027 8.14383 13.0878 8.15062 12.6729 8.14383C12.5182 8.14043 12.461 8.17983 12.459 8.34762C12.4523 8.97802 12.4469 8.97802 13.0676 8.97802C13.4818 8.97802 13.8967 8.98277 14.3116 8.97802C14.4495 8.97802 14.4892 9.01878 14.4932 9.15871C14.5087 9.77824 14.5134 9.77824 13.8947 9.77824C13.4912 9.77824 13.0817 9.78435 12.6756 9.77824C12.5243 9.77484 12.4617 9.80881 12.459 9.97863C12.4483 10.6138 12.4422 10.6138 13.0716 10.6138C13.4859 10.6138 13.9008 10.6185 14.3157 10.6138C14.4502 10.6138 14.4952 10.6478 14.4986 10.7911C14.5127 11.4113 14.5181 11.4113 13.9021 11.4113C13.2357 11.4113 12.5686 11.4052 11.9022 11.4154C11.726 11.4154 11.6635 11.3814 11.6682 11.1885C11.685 10.5785 11.6736 9.97863 11.6736 9.37881Z" fill="#FEFDFD" />
                                      <path d="M17.3128 9.36781H16.6484L16.9847 8.36719L17.3128 9.36781Z" fill="#CC1B69" />
                                    </g>
                                    <defs>
                                      <clipPath id="clip0_1830_3674">
                                        <rect width="25" height="22" fill="white" />
                                      </clipPath>
                                    </defs>
                                  </svg>