 <svg width="27" height="20" viewBox="0 0 27 20" fill="none" xmlns="http://www.w3.org/2000/svg">
                                                    <path d="M12.941 10.548c.25-1.727-.237-3.343-.347-4.986-.021-.316-.074-.631-.1-.947-.058-.682-.577-.994-1.23-.919-1.192.138-2.03.842-2.742 1.727-.531.661-1.231.779-1.961.991-.962.28-1.665-.261-2.438-.593-.294-.127-.449-.08-.639.15a2.947 2.947 0 0 0-.688 1.591c-.027.247.023.377.287.405.463.051.924.133 1.46.213-.291.58-.543 1.086-.802 1.59-.391.764-.769 1.538-1.19 2.285-.207.365-.238.648.077.945.097.092.157.226.286.42-1.066.033-1.91.397-2.477 1.279-.335.521-.467 1.1-.431 1.73.071 1.24.883 2.275 2.102 2.518.459.091.987.068 1.43-.077.43-.14.854-.442 1.163-.786.32-.356.497-.848.743-1.29-.005 0 .038-.003.047.014.282.561.751.603 1.301.595 1.896-.029 3.792-.009 5.689-.012.704-.002 1.432.133 2.057-.462.398 1.08 1.026 1.796 2.074 2.041.657.154 1.278.06 1.86-.265a2.654 2.654 0 0 0 1.377-1.959c.143-.862-.057-1.659-.622-2.38l.84-.53c-.557-.559-1.055-1.098-1.596-1.585-.318-.287-.24-.62-.213-.954.005-.059.19-.142.292-.145.474-.017.949-.004 1.422-.01.605-.007.836-.243.841-.864.008-.914-.069-.807.789-.81.683-.004 1.367.003 2.05-.003.206-.002.467.085.46-.307-.008-.395-.283-.29-.479-.29-1.868-.007-3.737-.004-5.606-.006-.498 0-.526-.043-.419-.647h4.595c.122-.6.098-.634-.412-.637-.795-.005-1.59-.013-2.384-.014-.215 0-.384-.013-.381-.315.002-.3.174-.312.387-.31.444.004.887.001 1.38.001 0-.625.036-1.215-.015-1.796-.03-.35-.329-.54-.664-.543a351.773 351.773 0 0 0-5.062 0c-.46.004-.711.338-.713.882-.004 1.516-.016 3.034.007 4.55.007.425-.118.569-.518.526-.3-.03-.603-.006-.893-.006l.006-.005ZM9.938 6.195c.054.165.098.268.12.375.156.732.294 1.467.468 2.195.06.258.02.347-.236.419-.979.275-1.952.573-2.924.877-.658.205-.917.647-.808 1.344.233 1.48.472 2.958.705 4.438.079.497.005.571-.471.453-.65-.161-1.067-.599-1.15-1.27-.131-1.057-.278-2.123-.259-3.183.024-1.278.214-2.553.332-3.83.03-.335.178-.5.535-.504.388-.003.773-.11 1.161-.129.544-.026 1.033-.162 1.476-.512.306-.242.656-.424 1.051-.673Zm-.227 5.406c.027.074.039.088.035.1-.033.123-.092.244-.097.368-.004.122.005.292.079.361.734.694.883 1.56.742 2.528-.166 1.146-.498 1.444-1.583 1.392-.014 0-.028-.002-.042 0-.223.016-.336-.085-.345-.323-.044-1.296-.096-2.593-.132-3.89-.003-.103.077-.285.148-.304.398-.1.804-.16 1.194-.232h.001Zm-8.58 4.623c.01-.857.736-1.603 1.56-1.604.855-.001 1.573.752 1.56 1.637-.013.874-.715 1.602-1.55 1.606-.839.005-1.58-.77-1.57-1.638Zm16.104 1.637c-.698-.009-1.28-.452-1.513-1.099-.102-.281-.037-.456.223-.595a41.76 41.76 0 0 0 1.907-1.067c.238-.143.384-.098.532.102.386.522.505 1.085.225 1.7-.283.622-.778.912-1.376.959h.002ZM8.833 1.595l1.487-.172c.331 1.219-.684 1.428-1.295 1.906.193.696.242.715.855.442.627-.278 1.264-.529 1.883-.825.143-.068.302-.262.321-.415.047-.383.053-.779.01-1.162C11.996.482 11.366-.027 10.46 0c-.864.026-1.563.686-1.626 1.593v.001Z" fill="#fff"/>
                                                    <path d="M23.968 14.216h2.633c.199 0 .39.022.399-.294.01-.34-.19-.321-.409-.32l-5.308.001c-.195 0-.393-.037-.396.286-.004.327.179.33.406.328.892-.005 1.784-.002 2.675-.002Zm-3.803-2.109c-.124.449.005.589.412.583 1.334-.022 2.668-.008 4.003-.009.207 0 .426.04.43-.303.006-.354-.224-.299-.426-.299h-4.086c-.109 0-.217.018-.332.028h-.001Z" fill="#fff"/>
                                                </svg>