<svg width="12" height="16" viewBox="0 0 12 16" fill="none" xmlns="http://www.w3.org/2000/svg">
<path d="M4.90302 1.12364C2.69302 1.37364 0.809024 3.49564 0.770024 5.87364C0.753024 6.95664 1.05802 7.97364 1.54302 8.99964C2.53402 11.0996 3.92902 12.9096 5.51902 14.6196L5.64502 14.4836C5.89602 14.2136 6.13502 13.9536 6.37502 13.6736C7.61802 12.2156 8.71902 10.7046 9.50802 8.99364C10.056 7.80364 10.379 6.66164 10.235 5.43164C9.94602 2.96464 7.91202 1.09264 5.56302 1.05664L5.33902 1.07864L4.90302 1.12364Z" stroke="#191919" stroke-width="1.5"/>
<path d="M5.77002 8.05664C6.30045 8.05664 6.80916 7.84593 7.18423 7.47085C7.55931 7.09578 7.77002 6.58707 7.77002 6.05664C7.77002 5.52621 7.55931 5.0175 7.18423 4.64243C6.80916 4.26735 6.30045 4.05664 5.77002 4.05664C5.23959 4.05664 4.73088 4.26735 4.35581 4.64243C3.98073 5.0175 3.77002 5.52621 3.77002 6.05664C3.77002 6.58707 3.98073 7.09578 4.35581 7.47085C4.73088 7.84593 5.23959 8.05664 5.77002 8.05664Z" stroke="#828282"/>
</svg>
