<svg width="17" height="22" viewBox="0 0 17 22" fill="none" xmlns="http://www.w3.org/2000/svg">
  <path d="M10.1 19.15c1.85-2.039 3.502-4.168 4.689-6.587.825-1.684 1.332-3.339 1.108-5.137-.448-3.59-3.622-6.386-7.38-6.426M10.1 19.15c-.358.395-.723.765-1.099 1.146a88.46 88.46 0 0 0-.523.534m1.622-1.68-1.622 1.68m0 0c-2.51-2.494-4.736-5.144-6.299-8.256C1.447 11.117.975 9.65 1.001 8.077c.06-3.454 2.97-6.604 6.507-6.98m0 0c.22-.023.436-.043.657-.064L8.517 1m-1.01.097L8.518 1M4.105 8.302c-.012 2.394 1.953 4.325 4.363 4.335 2.38.009 4.382-1.905 4.39-4.267.008-2.396-1.957-4.33-4.365-4.334-2.385-.004-4.376 1.9-4.388 4.266Z" stroke="#FFC00B" stroke-width="1.3"/>
</svg>
