<svg width="17" height="22" viewBox="0 0 17 22" fill="none" xmlns="http://www.w3.org/2000/svg">
<g clip-path="url(#clip0_4292_10584)">
<path d="M10.1 19.15C11.95 17.111 13.602 14.982 14.789 12.563C15.614 10.879 16.121 9.224 15.897 7.426C15.449 3.836 12.275 1.04 8.51702 1M10.1 19.15C9.74202 19.545 9.37702 19.915 9.00102 20.296C8.82594 20.4733 8.6516 20.6513 8.47802 20.83M10.1 19.15L8.47802 20.83M8.51702 1L8.16502 1.033C7.94402 1.054 7.72802 1.074 7.50802 1.097M8.51702 1L7.50802 1.097M8.47802 20.83C5.96802 18.336 3.74202 15.686 2.17902 12.574C1.44702 11.117 0.975022 9.65 1.00102 8.077C1.06102 4.623 3.97102 1.473 7.50802 1.097M4.10502 8.302C4.09302 10.696 6.05802 12.627 8.46802 12.637C10.848 12.646 12.85 10.732 12.858 8.37C12.866 5.974 10.901 4.04 8.49302 4.036C6.10802 4.032 4.11702 5.936 4.10502 8.302Z" stroke="#151515" stroke-width="1.3"/>
</g>
<defs>
<clipPath id="clip0_4292_10584">
<rect width="17" height="22" fill="white"/>
</clipPath>
</defs>
</svg>
