<svg width="13" height="18" viewBox="0 0 13 18" fill="none" xmlns="http://www.w3.org/2000/svg">
  <path d="M5.306.629C2.733.924.559 3.426.514 6.232c-.02 1.271.333 2.453.875 3.621 1.15 2.481 2.785 4.594 4.626 6.58.121-.135.241-.266.36-.396.277-.305.546-.601.811-.918 1.365-1.63 2.588-3.335 3.466-5.275.61-1.349.99-2.684.822-4.14C11.14 2.796 8.78.586 6.048.552M5.306.63c.162-.02.321-.035.484-.051L6.048.55m-.742.08.742-.08M2.767 6.413c-.01 1.866 1.414 3.44 3.241 3.448 1.806.007 3.256-1.554 3.262-3.394C9.276 4.6 7.853 3.023 6.027 3.02c-1.81-.003-3.252 1.55-3.26 3.393Z" stroke="#FFC00B"/>
</svg>
