<svg width="21" height="20" viewBox="0 0 21 20" fill="none" xmlns="http://www.w3.org/2000/svg">
<path d="M5.95111 1.32714C6.30444 1.44752 6.65698 1.5679 7.01031 1.6875C7.94758 2.00566 8.34468 2.55597 8.34468 3.55421C8.34624 7.61907 8.34468 11.6839 8.34468 15.7488C8.34468 15.9028 8.34468 16.0568 8.34468 16.2467C9.32337 16.2467 10.2716 16.2796 11.2159 16.2342C11.7568 16.2084 12.0922 15.7113 12.0953 15.0781C12.1008 13.9055 12.1015 12.733 12.0945 11.5604C12.0929 11.2563 12.1899 11.0187 12.4705 10.8921C12.8661 10.713 13.3288 10.9866 13.3359 11.4502C13.3546 12.7783 13.3976 14.1111 13.3093 15.4338C13.2249 16.7001 12.2329 17.5029 10.9517 17.5084C10.1184 17.5123 9.28429 17.5139 8.45099 17.5186C8.42832 17.5186 8.40644 17.5404 8.34546 17.5717C8.34546 17.7828 8.34937 18.0142 8.34546 18.2455C8.31732 19.5338 7.26202 20.2936 6.04257 19.8926C4.43773 19.3649 2.83524 18.8295 1.23431 18.2901C0.409612 18.0142 0 17.4302 0 16.5539C0 11.6292 0 6.70526 0 1.78052C0.000781703 0.698647 0.701188 0.00136798 1.78541 0.000586277C4.84734 -0.000195426 7.90849 -0.000195426 10.9704 0.000586277C12.3212 0.000586277 13.3202 0.966771 13.3429 2.32459C13.3632 3.52294 13.3515 4.72207 13.3452 5.92042C13.3429 6.39023 13.1076 6.65444 12.7199 6.65835C12.3282 6.66226 12.1008 6.40274 12.0992 5.92981C12.0953 4.79634 12.0992 3.66287 12.0969 2.5294C12.0953 1.63591 11.7068 1.25053 10.8078 1.25053C9.19283 1.24975 7.57783 1.25053 5.96283 1.25053C5.95892 1.27633 5.95423 1.30212 5.95033 1.32792L5.95111 1.32714ZM7.09474 10.8303C7.09474 8.4336 7.08692 6.03612 7.10177 3.63942C7.10412 3.2126 6.97514 2.97497 6.54755 2.83895C5.02401 2.35429 3.51219 1.83524 1.99491 1.33183C1.45631 1.15282 1.25073 1.30838 1.25073 1.89074C1.25073 6.74981 1.25307 11.6089 1.24447 16.4679C1.24447 16.8424 1.38127 17.0292 1.73694 17.1449C3.25736 17.6374 4.76995 18.1549 6.28568 18.6614C6.89775 18.8662 7.09396 18.72 7.09396 18.0595C7.09474 15.6495 7.09396 13.2395 7.09396 10.8303H7.09474Z" fill="#292929"/>
<path d="M17.8727 9.38136C17.4983 9.38136 17.2294 9.38136 16.9605 9.38136C15.1641 9.38136 13.3678 9.3837 11.5714 9.37979C11.0688 9.37901 10.7811 9.06633 10.8608 8.62936C10.9195 8.30808 11.1688 8.13219 11.5909 8.13219C13.5046 8.12985 15.4182 8.13141 17.3318 8.13141C17.474 8.13141 17.6155 8.13141 17.8203 8.13141C17.7297 8.01728 17.6789 7.93755 17.6132 7.87189C17.0441 7.29968 16.4703 6.73216 15.9028 6.15839C15.5784 5.8293 15.5495 5.46659 15.8129 5.19534C16.0771 4.92174 16.4516 4.93972 16.7752 5.26022C17.7828 6.25923 18.7865 7.26138 19.7863 8.26899C20.1154 8.60043 20.1092 8.92015 19.7738 9.25706C18.7826 10.2537 17.7883 11.2473 16.7908 12.2385C16.461 12.566 16.0998 12.5942 15.8278 12.3323C15.5448 12.0595 15.5737 11.6866 15.9161 11.3419C16.5391 10.7134 17.1661 10.0904 17.8743 9.38292L17.8727 9.38136Z" fill="#292929"/>
</svg>
