<svg xmlns="http://www.w3.org/2000/svg" width="18" height="13"
                                         viewBox="0 0 18 13" fill="none">
                                        <path
                                            d="M1.00171 2.06878C1.08065 1.79196 1.18049 1.52705 1.38573 1.31444C1.67418 1.01679 2.02151 0.859458 2.43711 0.859458C6.92992 0.859458 11.4226 0.859458 15.9151 0.859458C16.1045 0.857415 16.2924 0.893043 16.4679 0.964259C16.6433 1.03548 16.8027 1.14085 16.9368 1.27421C17.0708 1.40757 17.1769 1.56624 17.2486 1.74093C17.3204 1.91563 17.3565 2.10283 17.3548 2.29159C17.3565 5.15671 17.3565 8.02183 17.3548 10.887C17.3564 11.0757 17.3202 11.2629 17.2484 11.4375C17.1766 11.6122 17.0706 11.7709 16.9365 11.9042C16.8025 12.0376 16.6431 12.143 16.4678 12.2143C16.2924 12.2856 16.1045 12.3214 15.9151 12.3195C11.428 12.3195 6.94073 12.3195 2.45332 12.3195C1.75141 12.3195 1.19116 11.8688 1.0303 11.1825C1.0221 11.1578 1.01197 11.1337 1 11.1106L1.00171 2.06878ZM2.68032 1.81833C2.72299 1.86425 2.74049 1.88891 2.76225 1.9106C4.76885 3.91763 6.77574 5.92423 8.78291 7.93041C9.01717 8.16428 9.35084 8.15748 9.59363 7.91638C11.5897 5.92126 13.5852 3.92571 15.5802 1.92973C15.6105 1.89997 15.6352 1.86467 15.6736 1.81833H2.68032ZM2.69099 11.356H15.6736C14.2958 9.9974 12.9338 8.65371 11.5718 7.31002C11.1562 7.72248 10.7218 8.15195 10.2891 8.58312C9.64611 9.22307 8.71037 9.22307 8.07033 8.581C7.67578 8.18696 7.28123 7.79264 6.88668 7.39804C6.84657 7.35807 6.8039 7.32065 6.79494 7.31299L2.69099 11.356ZM1.96305 10.614L6.05079 6.58927L1.96305 2.55395V10.614ZM16.3905 10.6395V2.56628L12.2942 6.60118L16.3905 10.6395Z"
                                            fill="white" stroke="white" stroke-width="0.5" />
                                    </svg>