<svg width="18" height="12" viewBox="0 0 18 12" fill="none" xmlns="http://www.w3.org/2000/svg">
<g clip-path="url(#clip0_4261_10608)">
<path d="M1.00171 1.4636C1.08065 1.18582 1.18049 0.919994 1.38573 0.706647C1.67418 0.40796 2.02151 0.250083 2.43711 0.250083C6.92992 0.250083 11.4226 0.250083 15.9151 0.250083C16.1045 0.248033 16.2924 0.283785 16.4679 0.355249C16.6433 0.426712 16.8027 0.53245 16.9368 0.666274C17.0708 0.800098 17.1769 0.959319 17.2486 1.13462C17.3204 1.30992 17.3565 1.49777 17.3548 1.68719C17.3565 4.56226 17.3565 7.43733 17.3548 10.3124C17.3564 10.5018 17.3202 10.6896 17.2484 10.8649C17.1766 11.0402 17.0706 11.1994 16.9365 11.3332C16.8025 11.467 16.6431 11.5728 16.4678 11.6444C16.2924 11.7159 16.1045 11.7518 15.9151 11.7499C11.428 11.7499 6.94073 11.7499 2.45332 11.7499C1.75141 11.7499 1.19116 11.2976 1.0303 10.6089C1.0221 10.5842 1.01197 10.56 1 10.5368L1.00171 1.4636ZM2.68032 1.21228C2.72299 1.25836 2.74049 1.28311 2.76225 1.30487C4.76885 3.31887 6.77574 5.33244 8.78291 7.34559C9.01717 7.58027 9.35084 7.57344 9.59363 7.33151C11.5897 5.32946 13.5852 3.32698 15.5802 1.32407C15.6105 1.29421 15.6352 1.25879 15.6736 1.21228H2.68032ZM2.69099 10.783H15.6736C14.2958 9.41975 12.9338 8.0714 11.5718 6.72304C11.1562 7.13693 10.7218 7.5679 10.2891 8.00056C9.64611 8.64274 8.71037 8.64274 8.07033 7.99843C7.67578 7.60303 7.28123 7.20734 6.88668 6.81137C6.84657 6.77126 6.8039 6.73371 6.79494 6.72603L2.69099 10.783ZM1.96305 10.0385L6.05079 5.99979L1.96305 1.95046V10.0385ZM16.3905 10.0641V1.96284L12.2942 6.01174L16.3905 10.0641Z" fill="#151515" stroke="#151515" stroke-width="0.5"/>
</g>
<defs>
<clipPath id="clip0_4261_10608">
<rect width="18" height="12" fill="white"/>
</clipPath>
</defs>
</svg>
