<svg width="24" height="24" viewBox="0 0 24 24" fill="none" xmlns="http://www.w3.org/2000/svg">
<circle cx="12" cy="12" r="12" fill="#F4F4F4"/>
<path d="M7.51596 11.8114C7.6847 11.9486 7.78954 12.0101 7.86895 12.1016C8.93103 13.3196 9.98939 14.5418 11.0502 15.7619C11.2556 15.9985 11.3592 16.268 11.2649 16.6011C11.1848 16.8849 11.0111 17.1 10.7562 17.1C10.5576 17.1 10.3027 17.0371 10.1699 16.8877C8.83984 15.3888 7.52713 13.8706 6.21752 12.3482C5.91354 11.9944 5.93153 11.5798 6.2504 11.211C7.53333 9.72495 8.81936 8.24322 10.1091 6.76506C10.4125 6.41768 10.799 6.41625 11.0719 6.73432C11.3437 7.05097 11.3368 7.49127 11.0335 7.84437C9.99249 9.05306 8.9453 10.2546 7.89873 11.4568C7.81126 11.5569 7.70641 11.637 7.51658 11.8121L7.51596 11.8114Z" fill="#9A9A9A"/>
<path d="M12.8206 11.8114C12.9894 11.9486 13.0942 12.0101 13.1736 12.1016C14.2357 13.3196 15.2941 14.5418 16.3549 15.7619C16.5603 15.9985 16.6639 16.268 16.5696 16.6011C16.4895 16.8849 16.3158 17.1 16.0609 17.1C15.8623 17.1 15.6074 17.0371 15.4746 16.8877C14.1445 15.3888 12.8318 13.8706 11.5222 12.3482C11.2182 11.9944 11.2362 11.5798 11.5551 11.211C12.838 9.72495 14.1241 8.24322 15.4138 6.76506C15.7172 6.41768 16.1037 6.41625 16.3766 6.73432C16.6483 7.05097 16.6415 7.49127 16.3382 7.84437C15.2972 9.05306 14.25 10.2546 13.2034 11.4568C13.1159 11.5569 13.0111 11.637 12.8213 11.8121L12.8206 11.8114Z" fill="#9A9A9A"/>
</svg>
