<svg width="20" height="20" viewBox="0 0 20 20" fill="none" xmlns="http://www.w3.org/2000/svg">
<path d="M12.6373 10.9826C12.6373 13.5837 12.6373 16.1841 12.6373 18.7852C12.6373 19.3915 12.4758 19.5545 11.8756 19.5552C8.25995 19.5552 4.64353 19.5552 1.02788 19.5552C0.449775 19.5552 0.289824 19.3922 0.289824 18.8058C0.289062 13.6043 0.289062 8.4021 0.289062 3.20065C0.289062 2.62863 0.439112 2.47478 1.00656 2.47478C4.63516 2.47325 8.26376 2.47325 11.8924 2.47478C12.4773 2.47478 12.6365 2.63625 12.6365 3.21893C12.6373 5.80708 12.6365 8.39524 12.6365 10.9834L12.6373 10.9826ZM3.93594 9.22851C3.97098 9.7274 4.01363 10.2194 4.03801 10.7115C4.05172 10.9887 4.15149 11.1342 4.45388 11.1152C4.73189 11.0976 5.01218 11.0954 5.29019 11.1152C5.70302 11.1449 6.11432 11.2393 6.52562 11.2347C7.10221 11.2279 7.68108 11.1715 8.25385 11.0984C8.38181 11.0817 8.55471 10.9263 8.59432 10.7998C8.71847 10.4022 8.80606 9.99094 8.87309 9.57964C8.91498 9.32448 9.01248 9.20185 9.27678 9.12721C10.2555 8.85148 10.8062 7.85674 10.5457 6.89627C10.2837 5.92971 9.32552 5.35389 8.33459 5.58696C8.12742 5.63571 8.02611 5.59458 7.89434 5.43006C7.13801 4.48711 5.7929 4.48406 5.03351 5.43006C4.88346 5.61667 4.76692 5.62581 4.55823 5.5763C3.61985 5.35618 2.65329 5.93352 2.38747 6.85438C2.11479 7.79733 2.63501 8.79664 3.56653 9.11502C3.68459 9.15539 3.8057 9.18814 3.93899 9.22851H3.93594ZM6.55837 12.3224C5.78528 12.3224 5.01218 12.3224 4.23909 12.3224C3.8712 12.3224 3.50255 12.3064 3.13695 12.3346C3.04022 12.3422 2.95491 12.4885 2.86427 12.5707C2.94882 12.6454 3.0227 12.7444 3.12095 12.7863C3.20702 12.8228 3.32051 12.7969 3.42181 12.7969C4.8667 12.7969 6.31159 12.7969 7.75724 12.7969C8.44199 12.7969 9.12597 12.8 9.81071 12.7947C9.99123 12.7931 10.2471 12.8495 10.2494 12.5715C10.2517 12.2721 9.98742 12.3285 9.79167 12.3224C9.72845 12.3201 9.66523 12.3224 9.60125 12.3224C8.58747 12.3224 7.57292 12.3224 6.55914 12.3224H6.55837ZM6.54466 14.5762C5.83479 14.5762 5.12415 14.5739 4.41427 14.5777C4.24366 14.5785 4.02201 14.5404 4.01896 14.8077C4.01592 15.0675 4.22385 15.0538 4.40361 15.0538C5.83707 15.0545 7.26978 15.0606 8.70324 15.0439C8.83958 15.0423 9.07493 14.9106 9.08941 14.8138C9.12521 14.5648 8.89213 14.577 8.71466 14.5762C7.99184 14.5747 7.26901 14.5762 6.54619 14.5754L6.54466 14.5762ZM6.54314 17.2908C7.15095 17.2908 7.75801 17.2923 8.36582 17.29C8.54024 17.2893 8.77788 17.3091 8.73371 17.0516C8.71695 16.9541 8.4854 16.8285 8.34982 16.8262C7.16086 16.8087 5.97113 16.8163 4.7814 16.8163C4.59022 16.8163 4.35029 16.7965 4.37162 17.0638C4.37847 17.1491 4.62068 17.2748 4.75931 17.2809C5.35341 17.3053 5.94828 17.2908 6.54314 17.2908Z" fill="#191919"/>
<path d="M13.1268 17.1377V14.308C13.3919 14.308 13.6417 14.308 13.8908 14.308C14.7286 14.308 15.5664 14.3172 16.4035 14.2974C16.5254 14.2943 16.6442 14.1549 16.7645 14.0788C16.6472 13.9996 16.5307 13.8533 16.4119 13.851C15.4606 13.832 14.5085 13.8404 13.5564 13.8404C13.4208 13.8404 13.2852 13.8404 13.1291 13.8404V11.4914C13.27 11.4853 13.4041 11.4746 13.5381 11.4739C14.4772 11.4723 15.4172 11.4822 16.3555 11.4632C16.4926 11.4602 16.7303 11.3368 16.744 11.2431C16.7859 10.9536 16.5261 10.9963 16.3456 10.9955C15.4194 10.991 14.4925 10.9933 13.5663 10.9933C13.43 10.9933 13.2929 10.9933 13.1329 10.9933V8.64122C13.2654 8.63436 13.401 8.62141 13.5358 8.62141C14.475 8.61989 15.4149 8.62903 16.3532 8.60999C16.4919 8.60694 16.7326 8.4866 16.7455 8.39443C16.7859 8.11414 16.5376 8.14004 16.3487 8.14004C15.4225 8.13851 14.4955 8.13927 13.5693 8.13927C13.4322 8.13927 13.2951 8.13927 13.1329 8.13927V5.79028C13.2593 5.78419 13.3926 5.77276 13.5259 5.77276C14.4651 5.77124 15.4042 5.77276 16.3433 5.77048C16.5261 5.77048 16.7661 5.82151 16.76 5.52598C16.7539 5.25787 16.5292 5.30586 16.3586 5.30586C15.4324 5.30281 14.5054 5.30434 13.5792 5.30434C13.4414 5.30434 13.3043 5.30434 13.1085 5.30434C13.1085 4.76127 13.1085 4.24561 13.1085 3.72996C13.1085 3.46338 13.1161 3.19603 13.1017 2.93021C13.0781 2.50291 12.7909 2.18834 12.3956 2.0322C10.8311 1.41372 9.27504 0.777728 7.72656 0.0701358C7.83091 0.0655658 7.9345 0.0564257 8.03885 0.0564257C11.4534 0.0556641 14.8672 0.0556641 18.2818 0.0556641C18.8911 0.0556641 19.0457 0.209522 19.0457 0.817335C19.0457 6.00888 19.0457 11.1997 19.0457 16.3912C19.0457 16.9853 18.8972 17.1361 18.3085 17.1369C16.7089 17.1384 15.1102 17.1369 13.5107 17.1369C13.398 17.1369 13.2845 17.1369 13.1268 17.1369V17.1377Z" fill="#828282"/>
<path d="M6.75 1.94388V0.239258C7.46521 0.537833 8.11339 0.806702 8.76005 1.07862C9.39985 1.34749 10.0389 1.61941 10.6734 1.94388H6.75Z" fill="#191919"/>
</svg>
