<svg xmlns="http://www.w3.org/2000/svg" width="40" height="40"
                                         viewBox="0 0 40 40" fill="none">
                                        <rect x="8.85547" y="12.5707" width="13.9282" height="10.214"
                                              fill="white" />
                                        <rect x="8.85547" y="13.4998" width="13.9282" height="16.7138"
                                              fill="white" />
                                        <path
                                            d="M23.4643 21.5689C23.4643 25.0371 23.4643 28.5042 23.4643 31.9723C23.4643 32.7807 23.249 32.998 22.4487 32.9991C17.6278 32.9991 12.806 32.9991 7.98509 32.9991C7.21428 32.9991 7.00102 32.7817 7.00102 31.9997C7 25.0645 7 18.1282 7 11.1929C7 10.4302 7.20007 10.2251 7.95666 10.2251C12.7948 10.2231 17.6329 10.2231 22.4711 10.2251C23.251 10.2251 23.4633 10.4404 23.4633 11.2173C23.4643 14.6682 23.4633 18.1191 23.4633 21.5699L23.4643 21.5689ZM11.8625 19.2301C11.9092 19.8953 11.9661 20.5513 11.9986 21.2074C12.0169 21.577 12.1499 21.771 12.5531 21.7456C12.9238 21.7223 13.2975 21.7192 13.6682 21.7456C14.2186 21.7852 14.767 21.9112 15.3154 21.9051C16.0842 21.8959 16.856 21.8208 17.6197 21.7233C17.7903 21.7009 18.0209 21.4938 18.0737 21.3252C18.2392 20.7951 18.356 20.2466 18.4454 19.6982C18.5012 19.358 18.6312 19.1945 18.9836 19.095C20.2886 18.7274 21.0229 17.401 20.6755 16.1204C20.3262 14.8317 19.0486 14.0639 17.7274 14.3747C17.4511 14.4397 17.3161 14.3848 17.1404 14.1655C16.1319 12.9082 14.3384 12.9041 13.3259 14.1655C13.1259 14.4143 12.9705 14.4265 12.6922 14.3605C11.441 14.067 10.1523 14.8368 9.79787 16.0646C9.4343 17.3218 10.1279 18.6543 11.37 19.0788C11.5274 19.1326 11.6888 19.1762 11.8666 19.2301H11.8625ZM15.3591 23.3553C14.3283 23.3553 13.2975 23.3553 12.2667 23.3553C11.7762 23.3553 11.2847 23.334 10.7972 23.3715C10.6682 23.3817 10.5545 23.5767 10.4336 23.6864C10.5463 23.7859 10.6448 23.9179 10.7759 23.9738C10.8906 24.0225 11.0419 23.988 11.177 23.988C13.1035 23.988 15.03 23.988 16.9576 23.988C17.8706 23.988 18.7825 23.992 19.6955 23.9849C19.9362 23.9829 20.2774 24.0581 20.2805 23.6874C20.2835 23.2883 19.9311 23.3634 19.6701 23.3553C19.5858 23.3522 19.5016 23.3553 19.4162 23.3553C18.0645 23.3553 16.7118 23.3553 15.3601 23.3553H15.3591ZM15.3408 26.3603C14.3943 26.3603 13.4468 26.3573 12.5003 26.3624C12.2728 26.3634 11.9773 26.3126 11.9732 26.6691C11.9691 27.0154 12.2464 26.9971 12.4861 26.9971C14.3973 26.9981 16.3076 27.0062 18.2189 26.9839C18.4007 26.9819 18.7145 26.8062 18.7338 26.6772C18.7815 26.3451 18.4708 26.3613 18.2341 26.3603C17.2704 26.3583 16.3066 26.3603 15.3428 26.3593L15.3408 26.3603ZM15.3388 29.9798C16.1492 29.9798 16.9586 29.9818 17.769 29.9788C18.0016 29.9778 18.3184 30.0042 18.2595 29.6609C18.2372 29.5309 17.9285 29.3633 17.7477 29.3603C16.1624 29.3369 14.5761 29.3471 12.9898 29.3471C12.7349 29.3471 12.415 29.3207 12.4434 29.6772C12.4525 29.7909 12.7755 29.9585 12.9603 29.9666C13.7525 29.9991 14.5456 29.9798 15.3388 29.9798Z"
                                            fill="#FFC00B" />
                                        <path
                                            d="M24.1183 29.776V26.0032C24.4717 26.0032 24.8048 26.0032 25.1369 26.0032C26.254 26.0032 27.3711 26.0154 28.4872 25.989C28.6497 25.9849 28.8082 25.799 28.9686 25.6975C28.8122 25.5919 28.6568 25.3969 28.4984 25.3938C27.23 25.3684 25.9605 25.3796 24.6911 25.3796C24.5103 25.3796 24.3295 25.3796 24.1213 25.3796V22.2476C24.3092 22.2395 24.488 22.2253 24.6667 22.2243C25.9189 22.2222 27.1721 22.2354 28.4233 22.2101C28.6061 22.206 28.9229 22.0415 28.9412 21.9166C28.997 21.5306 28.6507 21.5875 28.4101 21.5865C27.1751 21.5804 25.9392 21.5835 24.7043 21.5835C24.5225 21.5835 24.3397 21.5835 24.1264 21.5835V18.4474C24.3031 18.4383 24.4839 18.421 24.6637 18.421C25.9158 18.419 27.169 18.4312 28.4202 18.4058C28.605 18.4017 28.926 18.2412 28.9432 18.1184C28.9971 17.7446 28.666 17.7792 28.4141 17.7792C27.1792 17.7771 25.9433 17.7781 24.7083 17.7781C24.5255 17.7781 24.3427 17.7781 24.1264 17.7781V14.6462C24.295 14.638 24.4727 14.6228 24.6504 14.6228C25.9026 14.6208 27.1548 14.6228 28.407 14.6198C28.6507 14.6198 28.9706 14.6878 28.9625 14.2938C28.9544 13.9363 28.6548 14.0003 28.4273 14.0003C27.1924 13.9962 25.9565 13.9982 24.7215 13.9982C24.5377 13.9982 24.3549 13.9982 24.0939 13.9982C24.0939 13.2741 24.0939 12.5866 24.0939 11.8991C24.0939 11.5436 24.1041 11.1872 24.0848 10.8327C24.0533 10.263 23.6704 9.84357 23.1434 9.63538C21.0574 8.81075 18.9826 7.96275 16.918 7.0193C17.0571 7.0132 17.1952 7.00102 17.3343 7.00102C21.8871 7 26.4389 7 30.9916 7C31.8041 7 32.0102 7.20514 32.0102 8.01556C32.0102 14.9376 32.0102 21.8587 32.0102 28.7807C32.0102 29.5729 31.8122 29.774 31.0272 29.775C28.8945 29.777 26.7628 29.775 24.6301 29.775C24.4798 29.775 24.3285 29.775 24.1183 29.775V29.776Z"
                                            fill="#FFC00B" />
                                        <path
                                            d="M15.6133 9.51733V7.24451C16.5669 7.64261 17.4311 8.0011 18.2933 8.36365C19.1464 8.72215 19.9985 9.0847 20.8444 9.51733H15.6133Z"
                                            fill="#FFC00B" />
                                    </svg>