<svg width="30" height="30" viewBox="0 0 30 30" fill="none" xmlns="http://www.w3.org/2000/svg">
<g clip-path="url(#clip0_6229_3558)">
<rect x="8.85938" y="12.5703" width="13.9282" height="10.214" fill="white"/>
<rect x="8.85938" y="13.5" width="13.9282" height="16.7138" fill="white"/>
<path d="M17.5982 16.177C17.5982 18.7781 17.5982 21.3784 17.5982 23.9795C17.5982 24.5858 17.4367 24.7488 16.8365 24.7496C13.2209 24.7496 9.60447 24.7496 5.98882 24.7496C5.41071 24.7496 5.25076 24.5866 5.25076 24.0001C5.25 18.7986 5.25 13.5964 5.25 8.39498C5.25 7.82297 5.40005 7.66911 5.96749 7.66911C9.59609 7.66759 13.2247 7.66759 16.8533 7.66911C17.4383 7.66911 17.5974 7.83059 17.5974 8.41326C17.5982 11.0014 17.5974 13.5896 17.5974 16.1777L17.5982 16.177ZM8.89688 14.4228C8.93192 14.9217 8.97457 15.4138 8.99894 15.9058C9.01265 16.1831 9.11243 16.3285 9.41482 16.3095C9.69283 16.292 9.97312 16.2897 10.2511 16.3095C10.664 16.3392 11.0753 16.4337 11.4866 16.4291C12.0631 16.4222 12.642 16.3659 13.2148 16.2927C13.3428 16.276 13.5157 16.1206 13.5553 15.9942C13.6794 15.5966 13.767 15.1853 13.834 14.774C13.8759 14.5188 13.9734 14.3962 14.2377 14.3215C15.2165 14.0458 15.7671 13.0511 15.5067 12.0906C15.2446 11.124 14.2865 10.5482 13.2955 10.7813C13.0884 10.83 12.9871 10.7889 12.8553 10.6244C12.0989 9.68144 10.7538 9.6784 9.99445 10.6244C9.8444 10.811 9.72786 10.8201 9.51916 10.7706C8.58079 10.5505 7.61423 11.1279 7.3484 12.0487C7.07572 12.9917 7.59595 13.991 8.52747 14.3094C8.64553 14.3497 8.76663 14.3825 8.89993 14.4228H8.89688ZM11.5193 17.5168C10.7462 17.5168 9.97312 17.5168 9.20002 17.5168C8.83214 17.5168 8.46349 17.5008 8.09789 17.5289C8.00115 17.5366 7.91585 17.6828 7.82521 17.7651C7.90975 17.8397 7.98364 17.9387 8.08189 17.9806C8.16796 18.0172 8.28145 17.9913 8.38275 17.9913C9.82764 17.9913 11.2725 17.9913 12.7182 17.9913C13.4029 17.9913 14.0869 17.9943 14.7716 17.989C14.9522 17.9875 15.2081 18.0438 15.2104 17.7658C15.2127 17.4665 14.9484 17.5228 14.7526 17.5168C14.6894 17.5145 14.6262 17.5168 14.5622 17.5168C13.5484 17.5168 12.5339 17.5168 11.5201 17.5168H11.5193ZM11.5056 19.7705C10.7957 19.7705 10.0851 19.7682 9.37521 19.7721C9.20459 19.7728 8.98295 19.7347 8.9799 20.0021C8.97686 20.2618 9.18479 20.2481 9.36455 20.2481C10.798 20.2489 12.2307 20.255 13.6642 20.2382C13.8005 20.2367 14.0359 20.1049 14.0503 20.0082C14.0861 19.7591 13.8531 19.7713 13.6756 19.7705C12.9528 19.769 12.23 19.7705 11.5071 19.7698L11.5056 19.7705ZM11.5041 22.4851C12.1119 22.4851 12.7189 22.4867 13.3268 22.4844C13.5012 22.4836 13.7388 22.5034 13.6946 22.246C13.6779 22.1485 13.4463 22.0228 13.3108 22.0205C12.1218 22.003 10.9321 22.0106 9.74233 22.0106C9.55115 22.0106 9.31123 21.9908 9.33256 22.2582C9.33941 22.3435 9.58162 22.4691 9.72025 22.4752C10.3143 22.4996 10.9092 22.4851 11.5041 22.4851Z" fill="#191919"/>
<path d="M18.0877 22.332V19.5024C18.3528 19.5024 18.6026 19.5024 18.8517 19.5024C19.6895 19.5024 20.5274 19.5115 21.3645 19.4917C21.4863 19.4887 21.6051 19.3493 21.7255 19.2731C21.6082 19.1939 21.4917 19.0477 21.3728 19.0454C20.4215 19.0263 19.4694 19.0347 18.5173 19.0347C18.3818 19.0347 18.2462 19.0347 18.09 19.0347V16.6857C18.2309 16.6796 18.365 16.669 18.499 16.6682C19.4382 16.6667 20.3781 16.6766 21.3165 16.6575C21.4536 16.6545 21.6912 16.5311 21.7049 16.4374C21.7468 16.148 21.4871 16.1906 21.3066 16.1899C20.3804 16.1853 19.4534 16.1876 18.5272 16.1876C18.3909 16.1876 18.2538 16.1876 18.0938 16.1876V13.8356C18.2264 13.8287 18.3619 13.8157 18.4968 13.8157C19.4359 13.8142 20.3758 13.8234 21.3142 13.8043C21.4528 13.8013 21.6935 13.6809 21.7064 13.5888C21.7468 13.3085 21.4985 13.3344 21.3096 13.3344C20.3834 13.3328 19.4565 13.3336 18.5303 13.3336C18.3932 13.3336 18.2561 13.3336 18.0938 13.3336V10.9846C18.2203 10.9785 18.3536 10.9671 18.4869 10.9671C19.426 10.9656 20.3651 10.9671 21.3043 10.9648C21.4871 10.9648 21.727 11.0158 21.7209 10.7203C21.7148 10.4522 21.4901 10.5002 21.3195 10.5002C20.3933 10.4971 19.4664 10.4987 18.5402 10.4987C18.4023 10.4987 18.2652 10.4987 18.0695 10.4987C18.0695 9.9556 18.0695 9.43995 18.0695 8.9243C18.0695 8.65771 18.0771 8.39037 18.0626 8.12455C18.039 7.69725 17.7518 7.38268 17.3565 7.22654C15.7921 6.60806 14.236 5.97206 12.6875 5.26447C12.7918 5.2599 12.8954 5.25076 12.9998 5.25076C16.4144 5.25 19.8282 5.25 23.2427 5.25C23.8521 5.25 24.0067 5.40386 24.0067 6.01167C24.0067 11.2032 24.0067 16.394 24.0067 21.5856C24.0067 22.1797 23.8582 22.3305 23.2694 22.3312C21.6699 22.3327 20.0711 22.3312 18.4716 22.3312C18.3589 22.3312 18.2454 22.3312 18.0877 22.3312V22.332Z" fill="#828282"/>
<path d="M11.7109 7.13821V5.43359C12.4261 5.73217 13.0743 6.00104 13.721 6.27295C14.3608 6.54182 14.9998 6.81374 15.6343 7.13821H11.7109Z" fill="#191919"/>
</g>
<defs>
<clipPath id="clip0_6229_3558">
<rect width="30" height="30" fill="white"/>
</clipPath>
</defs>
</svg>
