<svg xmlns="http://www.w3.org/2000/svg" width="40" height="40"
                                        viewBox="0 0 40 40" fill="none">
                                        <path
                                            d="M28.3068 9.38146L27.3837 8.91992L26.4606 9.38146L25.9991 13.9968L24.1529 19.9968L23.6914 31.5353H30.1529H31.076L31.5376 30.6122V28.7661V25.0738L31.076 21.843L30.6145 18.1507L30.1529 16.7661L29.6914 15.3815L29.2299 13.0738L28.7683 11.2276L28.3068 9.38146Z"
                                            fill="#FFD258" />
                                        <path
                                            d="M19.9709 31.9987C16.5007 31.9987 13.0305 31.9994 9.55965 31.9987C8.66413 31.9987 8.07744 31.4823 8.04086 30.5946C7.8657 26.2654 8.22728 21.9989 9.64054 17.871C9.92404 17.0423 10.2272 16.2066 10.6402 15.4377C11.2515 14.3009 11.4696 13.0874 11.6053 11.8345C11.6975 10.9847 11.8037 10.1349 11.9535 9.2936C12.1632 8.1167 12.9961 7.76919 14.0196 8.3791C14.1237 8.441 14.3453 8.42904 14.4438 8.35729C15.0474 7.91551 15.6432 7.90989 16.2806 8.28413C16.398 8.35307 16.6246 8.34533 16.747 8.27709C17.2767 7.98234 17.7796 7.995 18.2608 8.34955C18.455 8.49235 18.5921 8.49165 18.7863 8.34603C19.3723 7.90777 20.0082 7.90215 20.6364 8.237C20.8587 8.35588 21.0191 8.3791 21.247 8.25318C21.7535 7.9732 22.2741 7.94576 22.7686 8.30523C22.9747 8.45507 23.1696 8.45648 23.3813 8.30523C23.9082 7.92606 24.445 7.90918 24.9698 8.30875C25.1407 8.43889 25.2716 8.41849 25.439 8.29538C25.892 7.96124 26.2649 7.95842 26.7235 8.29327C26.8959 8.41919 27.019 8.40864 27.1948 8.30453C27.7604 7.97038 28.2142 8.0555 28.4625 8.67104C28.7924 9.48987 29.0428 10.3488 29.2433 11.2105C29.498 12.3044 29.633 13.4265 29.8863 14.5204C30.0783 15.3497 30.4083 16.1461 30.6193 16.9719C31.7603 21.4481 32.1346 25.9974 31.8708 30.6037C31.8201 31.4901 31.2482 31.9994 30.3471 31.9994C26.8881 32.0008 23.4299 31.9994 19.9709 31.9994V31.9987ZM31.1441 27.5077C31.0393 24.2423 30.7326 21.0042 29.9616 17.8252C29.7224 16.8383 29.3334 15.8865 29.1033 14.8974C28.8628 13.8619 28.7565 12.7955 28.5441 11.7529C28.39 10.9981 28.1734 10.2552 27.9546 9.5159C27.8589 9.1923 27.6887 9.15432 27.4425 9.37943C27.3334 9.47861 27.2385 9.64534 27.2258 9.78884C27.159 10.5704 27.1315 11.3555 27.0696 12.1377C26.9838 13.2239 26.8333 14.2868 26.4583 15.3315C26.0412 16.4943 25.6957 17.6965 25.4671 18.9093C24.7285 22.8381 24.706 26.8071 24.9459 30.7838C24.9634 31.0785 25.0957 31.1594 25.3679 31.158C27.0323 31.151 28.6967 31.1559 30.3611 31.1531C30.8135 31.1524 31.0069 30.9822 31.0287 30.527C31.0773 29.5211 31.1068 28.5137 31.1441 27.507V27.5077ZM15.8493 22.5258C15.767 22.6123 15.696 22.6897 15.6214 22.7636C15.084 23.3031 14.5423 23.8392 14.0084 24.3829C13.8058 24.5891 13.6848 24.862 13.8416 25.116C13.964 25.3136 14.187 25.538 14.3932 25.5704C14.6028 25.6035 14.8975 25.4705 15.0678 25.315C15.6263 24.8043 16.1448 24.25 16.7223 23.6689C16.8229 23.7949 16.8891 23.894 16.9707 23.977C17.4237 24.4357 17.8774 24.893 18.3368 25.3453C18.6738 25.6766 19.1078 25.7041 19.4004 25.4227C19.7093 25.1258 19.686 24.6981 19.3406 24.3344C19.2844 24.2746 19.2246 24.2183 19.1662 24.1607C18.609 23.6098 18.0519 23.0583 17.4708 22.4843C17.722 22.3401 17.767 21.9743 18.1384 22.0925C18.7054 22.2726 19.2028 22.1262 19.6227 21.7175C20.0012 21.3503 20.3719 20.9754 20.7412 20.599C20.991 20.3451 21.0149 20.1178 20.8242 19.9265C20.6392 19.7408 20.3923 19.7647 20.1475 20.0046C19.7796 20.3655 19.4201 20.7362 19.0515 21.0964C18.7638 21.3777 18.4163 21.3988 18.182 21.1611C17.9351 20.9106 17.9583 20.5976 18.2552 20.2951C18.6252 19.9188 19.0016 19.5494 19.373 19.1752C19.5707 18.9761 19.6473 18.7468 19.4272 18.528C19.2119 18.3134 18.9819 18.3725 18.7793 18.5751C18.3818 18.9733 17.9794 19.3665 17.5897 19.7717C17.2513 20.1242 17.0874 20.561 17.2253 21.0295C17.3294 21.3834 17.252 21.6183 16.9686 21.7977C16.8405 21.8786 16.5929 21.9834 16.5401 21.9321C16.3685 21.7661 16.0484 21.6816 16.1392 21.3158C16.4346 20.1185 15.7375 19.0134 14.5289 18.7355C13.6813 18.5407 12.8075 19.1583 12.7196 20.0151C12.5937 21.2441 13.8501 22.4301 15.06 22.1825C15.4329 22.1065 15.6566 22.1846 15.8472 22.5265L15.8493 22.5258ZM19.1535 11.3906C18.545 11.3906 17.9365 11.3878 17.328 11.3913C16.8145 11.3942 16.4747 11.6861 16.4712 12.1187C16.4677 12.5549 16.8046 12.8595 17.3147 12.8616C18.5429 12.8658 19.7719 12.8651 21.0001 12.8616C21.5136 12.8602 21.8527 12.5647 21.8569 12.1314C21.8612 11.6875 21.5136 11.3927 20.9783 11.3906C20.3698 11.3885 19.7613 11.3906 19.1528 11.3906H19.1535ZM20.2959 19.4974C20.2073 19.3806 20.1405 19.2026 20.0286 19.1682C19.8858 19.1238 19.6628 19.1386 19.5517 19.2265C19.2696 19.4495 19.0262 19.7232 18.7765 19.9849C18.5971 20.1727 18.576 20.3866 18.7645 20.5758C18.9509 20.7629 19.1718 20.7517 19.3596 20.5786C19.6255 20.3331 19.8781 20.0735 20.1264 19.8104C20.1939 19.7387 20.2249 19.6324 20.2959 19.4988V19.4974Z"
                                            fill="#FFC00B" />
                                    </svg>