<svg width="20" height="21" viewBox="0 0 20 21" fill="none" xmlns="http://www.w3.org/2000/svg">
<path d="M16.9243 1.65122L16.155 1.2666L15.3858 1.65122L15.0012 5.49737L13.4627 10.4974L13.0781 20.1128H18.4627H19.232L19.6166 19.3435V17.8051V14.7281L19.232 12.0358L18.8474 8.95891L18.4627 7.80506L18.0781 6.65122L17.6935 4.72814L17.3089 3.18968L16.9243 1.65122Z" fill="#838383"/>
<path d="M9.97579 20.4989C7.08395 20.4989 4.19212 20.4995 1.29971 20.4989C0.553445 20.4989 0.0645362 20.0686 0.0340526 19.3288C-0.111917 15.7212 0.189401 12.1658 1.36712 8.7258C1.60337 8.03523 1.85603 7.3388 2.20014 6.69806C2.70957 5.75073 2.8913 4.7395 3.00444 3.69544C3.08123 2.98728 3.16975 2.27912 3.29462 1.578C3.46931 0.597253 4.1634 0.30766 5.01635 0.815914C5.10311 0.867501 5.28777 0.857535 5.36984 0.797741C5.87282 0.429594 6.36935 0.424904 6.90047 0.736774C6.99837 0.794224 7.18713 0.787775 7.28913 0.730912C7.73056 0.485285 8.1497 0.495837 8.55068 0.791293C8.71248 0.910296 8.82679 0.909709 8.98859 0.788361C9.47691 0.423145 10.0069 0.418455 10.5304 0.697497C10.7156 0.796568 10.8493 0.815914 11.0392 0.71098C11.4613 0.477664 11.8951 0.454801 12.3072 0.75436C12.479 0.879226 12.6413 0.880398 12.8178 0.75436C13.2569 0.438387 13.7042 0.424318 14.1415 0.757292C14.2839 0.865743 14.393 0.848742 14.5325 0.746153C14.91 0.467698 15.2207 0.465353 15.6029 0.744395C15.7466 0.849329 15.8491 0.840535 15.9957 0.753774C16.467 0.475319 16.8451 0.546252 17.0521 1.0592C17.327 1.74156 17.5357 2.45733 17.7028 3.17546C17.915 4.08703 18.0275 5.02205 18.2386 5.93363C18.3986 6.62478 18.6736 7.28839 18.8494 7.97661C19.8003 11.7067 20.1121 15.4978 19.8923 19.3364C19.8501 20.0751 19.3735 20.4995 18.6226 20.4995C15.7401 20.5007 12.8582 20.4995 9.97579 20.4995V20.4989ZM19.2867 16.7565C19.1994 14.0352 18.9438 11.3368 18.3013 8.6877C18.102 7.86523 17.7778 7.07207 17.5861 6.24784C17.3856 5.38493 17.2971 4.49621 17.1201 3.62743C16.9917 2.99842 16.8111 2.37937 16.6288 1.76325C16.5491 1.49359 16.4072 1.46193 16.202 1.64952C16.1112 1.73218 16.032 1.87111 16.0215 1.9907C15.9658 2.64199 15.9429 3.29622 15.8913 3.9481C15.8198 4.85322 15.6944 5.739 15.3819 6.60954C15.0343 7.57857 14.7465 8.58042 14.5559 9.59107C13.9404 12.8651 13.9216 16.1726 14.1215 19.4865C14.1362 19.7321 14.2464 19.7995 14.4733 19.7984C15.8603 19.7925 17.2473 19.7966 18.6343 19.7943C19.0112 19.7937 19.1724 19.6518 19.1906 19.2725C19.2311 18.4342 19.2557 17.5947 19.2867 16.7559V16.7565ZM6.54111 12.6048C6.47252 12.6769 6.41332 12.7414 6.35118 12.803C5.9033 13.2526 5.45191 13.6993 5.00697 14.1525C4.83814 14.3242 4.73731 14.5517 4.86804 14.7633C4.97004 14.928 5.15587 15.115 5.32763 15.142C5.50233 15.1696 5.74795 15.0588 5.88982 14.9292C6.35528 14.5036 6.78733 14.0417 7.26861 13.5574C7.35244 13.6624 7.40755 13.745 7.47555 13.8142C7.85308 14.1964 8.23119 14.5775 8.61399 14.9544C8.89479 15.2305 9.25649 15.2534 9.50036 15.0189C9.75771 14.7715 9.73837 14.4151 9.45053 14.112C9.40363 14.0622 9.3538 14.0153 9.30515 13.9672C8.84086 13.5082 8.37657 13.0486 7.89235 12.5702C8.10163 12.4501 8.13915 12.1452 8.44868 12.2437C8.92117 12.3938 9.33563 12.2719 9.68561 11.9313C10.001 11.6253 10.3099 11.3128 10.6177 10.9992C10.8258 10.7875 10.8457 10.5982 10.6869 10.4387C10.5327 10.284 10.3269 10.3039 10.1229 10.5038C9.81633 10.8045 9.51677 11.1135 9.20959 11.4136C8.96983 11.6481 8.68023 11.6657 8.48502 11.4676C8.27926 11.2589 8.2986 10.998 8.54599 10.7459C8.85434 10.4323 9.16797 10.1245 9.4775 9.81266C9.64223 9.64676 9.70612 9.45565 9.52264 9.27333C9.34325 9.09454 9.15156 9.14378 8.98273 9.31261C8.65151 9.64441 8.31619 9.97211 7.99142 10.3098C7.70945 10.6035 7.57286 10.9675 7.68776 11.3579C7.77452 11.6528 7.71004 11.8486 7.47379 11.9981C7.3671 12.0655 7.16075 12.1529 7.11678 12.1101C6.97374 11.9717 6.70701 11.9014 6.78264 11.5965C7.02885 10.5988 6.4479 9.67783 5.44077 9.44627C4.73438 9.28389 4.00629 9.79859 3.93301 10.5126C3.82808 11.5367 4.87507 12.5251 5.88337 12.3188C6.19407 12.2554 6.38049 12.3205 6.53935 12.6054L6.54111 12.6048ZM9.29459 3.32553C8.78751 3.32553 8.28043 3.32318 7.77335 3.32612C7.34541 3.32846 7.06226 3.57174 7.05933 3.93227C7.0564 4.29573 7.3372 4.54956 7.76221 4.55132C8.78576 4.55484 9.80988 4.55425 10.8334 4.55132C11.2614 4.55015 11.5439 4.30393 11.5474 3.94282C11.551 3.57291 11.2614 3.32729 10.8153 3.32553C10.3082 3.32377 9.80109 3.32553 9.29401 3.32553H9.29459ZM10.2466 10.0811C10.1728 9.98383 10.1171 9.83552 10.0239 9.8068C9.90485 9.76986 9.71902 9.78218 9.6264 9.85545C9.39132 10.0413 9.18849 10.2693 8.98038 10.4874C8.83089 10.6439 8.81331 10.8221 8.97041 10.9798C9.12576 11.1358 9.30984 11.1264 9.46636 10.9822C9.68795 10.7776 9.8984 10.5613 10.1053 10.342C10.1616 10.2822 10.1874 10.1937 10.2466 10.0823V10.0811Z" fill="black"/>
</svg>
