<svg width="27" height="25" viewBox="0 0 27 25" fill="none" xmlns="http://www.w3.org/2000/svg">
<path fill-rule="evenodd" clip-rule="evenodd" d="M25.4659 0.00499592H14.8639L14.8653 0.00351869C13.8488 0.00351869 12.8323 0.00263902 11.8157 0.00175934C9.34702 -0.000377001 6.8783 -0.00251335 4.40958 0.00795039C1.78577 0.0197682 0.0117004 1.81756 0.00731274 4.47363C0.00152614 7.97961 0.00181367 11.4856 0.0021012 14.9916C0.00232238 17.6885 0.00254356 20.3854 0 23.0823C0 23.6274 0.061427 24.1179 0.590869 24.4104C1.12909 24.7043 1.56493 24.4724 2.00223 24.1548C2.64951 23.6851 3.2995 23.2194 3.94939 22.7537C5.08804 21.9377 6.22638 21.122 7.3493 20.2859C8.15224 19.6876 9.00491 19.4203 9.99944 19.4262C14.1662 19.4483 18.3345 19.4454 22.5013 19.4321C25.226 19.4232 26.9825 17.652 26.9913 14.897C27.0042 10.9662 27 7.03539 26.9959 3.10459C26.9953 2.58005 26.9948 2.05552 26.9942 1.53098C26.9942 0.331464 26.6622 0.00499592 25.4659 0.00499592ZM14.9303 5.90415H13.0404C12.9575 5.58255 13.0953 5.20807 13.3989 4.9796C13.7162 4.74094 14.1532 4.72105 14.4913 4.93012C14.8347 5.14307 14.9933 5.50542 14.9303 5.90415ZM13.8634 6.60331C10.3985 6.64357 8.30641 9.5322 8.2642 11.9168H19.5898C19.5228 9.39783 17.3075 6.56353 13.8634 6.60331ZM19.6538 12.6626H13.9828L12.0848 12.6629C10.8193 12.6628 9.5537 12.6627 8.28803 12.663C7.86602 12.663 7.72098 12.8362 7.78743 13.2558C7.91016 14.031 8.5393 14.5975 9.329 14.5995C12.4311 14.6067 15.5331 14.6067 18.6352 14.5995C19.4181 14.5975 20.0341 14.0513 20.1729 13.2805C20.2519 12.8382 20.105 12.6626 19.6538 12.6626Z" fill="#191919"/>
</svg>
