<svg width="20" height="20" viewBox="0 0 20 20" fill="none" xmlns="http://www.w3.org/2000/svg">
<path d="M11.5731 9.9752C11.5777 9.88309 11.5834 9.81787 11.5837 9.75294C11.5842 8.53263 11.584 7.31231 11.5842 6.092C11.5842 5.96766 11.6474 5.9054 11.7737 5.9052C13.5781 5.9052 15.3824 5.9052 17.1867 5.9052C17.3762 5.9052 17.3768 5.90549 17.3768 6.09171C17.3768 7.47393 17.3771 8.85644 17.3762 10.2387C17.3762 10.3079 17.3668 10.3768 17.362 10.4406C15.0168 9.6491 12.9241 10.031 11.2893 11.9052C9.5813 13.8633 9.5246 16.0619 10.7339 18.3418C10.6832 18.3472 10.6297 18.3581 10.5758 18.3581C7.10477 18.3589 3.63374 18.3581 0.162709 18.3612C0.0384688 18.3612 0 18.3246 0 18.1987C0.00284954 14.1519 0.00284954 10.1048 0 6.05796C0 5.93953 0.0364741 5.90263 0.154445 5.90292C1.98243 5.90606 3.81069 5.90635 5.63868 5.90234C5.76919 5.90234 5.79626 5.94983 5.79597 6.06969C5.79255 7.29944 5.79369 8.52919 5.79426 9.75923C5.79426 9.82388 5.80138 9.88853 5.80737 9.98893C6.01596 9.85134 6.19975 9.73177 6.38184 9.60991C6.68902 9.40452 6.99819 9.202 7.30024 8.98917C7.41138 8.91079 7.49487 8.91623 7.60429 8.99289C7.92657 9.2183 8.25826 9.43027 8.58197 9.65339C8.66119 9.70803 8.71789 9.7086 8.79739 9.65368C9.1174 9.43341 9.44652 9.22631 9.7631 9.00118C9.88962 8.91108 9.97881 8.91937 10.1028 9.00519C10.5587 9.32042 11.0226 9.62393 11.4839 9.93144C11.5025 9.94374 11.5241 9.95118 11.5731 9.9752ZM7.44728 13.7843C7.44728 12.8787 7.44415 11.9733 7.45042 11.0677C7.45155 10.9206 7.40739 10.8837 7.26491 10.8843C5.45602 10.8889 3.64713 10.8889 1.83824 10.8843C1.6932 10.884 1.65444 10.9246 1.65473 11.0688C1.65929 12.8847 1.65929 14.7006 1.65473 16.5164C1.65444 16.6618 1.69519 16.7012 1.8391 16.7007C3.64798 16.6958 5.45688 16.6961 7.26577 16.7007C7.41024 16.7009 7.45098 16.66 7.45013 16.5153C7.44386 15.6051 7.44728 14.6945 7.44728 13.7843Z" fill="#191919"/>
<path d="M19.9986 15.4206C19.9946 17.9513 17.9356 20.0028 15.4023 20.0005C12.8667 19.9982 10.8118 17.9332 10.8184 15.3939C10.825 12.8664 12.8886 10.8163 15.4218 10.8203C17.9494 10.8243 20.0026 12.8883 19.9986 15.4206ZM17.3475 14.4518C17.3161 14.4121 17.2928 14.3762 17.2635 14.346C17.1529 14.233 17.0405 14.1217 16.9286 14.0101C16.7841 13.866 16.7797 13.8657 16.6334 14.0121C15.9896 14.6554 15.3448 15.2973 14.7041 15.9437C14.6069 16.0418 14.5397 16.0418 14.4442 15.9423C14.2157 15.7039 13.9751 15.4767 13.7455 15.2395C13.6575 15.1489 13.5894 15.1322 13.4977 15.234C13.3856 15.3585 13.2663 15.477 13.1424 15.5897C13.0478 15.6757 13.0579 15.7401 13.1447 15.8258C13.5876 16.2635 14.0274 16.7041 14.4652 17.1469C14.542 17.2246 14.5989 17.2323 14.6794 17.1515C15.5411 16.2862 16.4055 15.4232 17.2681 14.5591C17.2974 14.5297 17.3184 14.4918 17.3475 14.4518Z" fill="#828282"/>
<path d="M0 4.89372C0.175748 4.64889 0.334386 4.42691 0.494473 4.20606C1.22183 3.20306 1.95005 2.20034 2.6777 1.19706C2.93871 0.837151 3.19943 0.476962 3.4587 0.115928C3.51496 0.0375153 3.58051 -0.000280492 3.68578 1.56687e-06C4.81161 0.00366833 5.93745 0.00197598 7.06299 0.00254009C7.22627 0.00254009 7.23294 0.0220021 7.19176 0.175442C7.08445 0.574273 6.98556 0.975078 6.88173 1.37475C6.78255 1.75638 6.67959 2.13688 6.58099 2.5185C6.4847 2.8911 6.39161 3.26455 6.29706 3.63771C6.20223 4.01087 6.10624 4.38347 6.01285 4.75692C5.98356 4.87397 5.9215 4.91826 5.78954 4.91797C3.92939 4.91346 2.06925 4.91515 0.2091 4.91402C0.148777 4.91402 0.0884541 4.90246 0 4.89372Z" fill="#191919"/>
<path d="M17.3754 4.89202C17.3006 4.90189 17.2472 4.91487 17.1935 4.91487C15.3896 4.916 13.5857 4.91487 11.7821 4.91797C11.6542 4.91797 11.6081 4.88074 11.5892 4.74758C11.5302 4.3343 11.4498 3.92411 11.3815 3.51224C11.3146 3.10939 11.2536 2.70569 11.1869 2.30313C11.1194 1.89576 11.0472 1.48925 10.9783 1.08217C10.9229 0.753514 10.8678 0.424859 10.8186 0.0953583C10.815 0.0699687 10.8523 0.0265242 10.881 0.0118547C10.9114 -0.00394332 10.9541 0.00282724 10.9915 0.00282724C11.9238 0.00254513 12.8561 0.00451988 13.7887 6.17304e-06C13.9003 -0.000558041 13.9703 0.0375264 14.0325 0.125826C15.0089 1.51689 15.9873 2.90684 16.9646 4.29706C17.0984 4.48776 17.2292 4.68044 17.3754 4.89202Z" fill="#191919"/>
<path d="M8.85661 4.91728C8.25425 4.91728 7.65219 4.91757 7.04983 4.91728C6.87822 4.91728 6.86674 4.91107 6.90434 4.75354C6.99904 4.35662 7.10235 3.96138 7.20279 3.56586C7.29634 3.19745 7.39075 2.82903 7.48488 2.4609C7.58819 2.05635 7.69208 1.6518 7.79481 1.24697C7.88836 0.87855 7.98507 0.5107 8.07031 0.140308C8.09212 0.0451697 8.12799 0.000282311 8.22757 0.000564621C8.77712 0.00197617 9.32696 0.00197617 9.87651 0C9.95715 0 9.9979 0.0279487 10.0117 0.109254C10.0851 0.539778 10.1632 0.969454 10.2378 1.39998C10.3124 1.83022 10.385 2.26102 10.4588 2.69127C10.5199 3.04782 10.5813 3.4041 10.6424 3.76066C10.6978 4.08475 10.7529 4.40884 10.808 4.73294C10.8376 4.90769 10.8295 4.91785 10.6493 4.91785C10.0519 4.91813 9.45408 4.91728 8.85661 4.91728Z" fill="#191919"/>
<path d="M10.8027 8.28295C10.6384 8.1767 10.5036 8.09116 10.3704 8.00293C10.1461 7.85444 9.9214 7.85498 9.69621 8.00454C9.46074 8.1611 9.2212 8.31174 8.99087 8.47529C8.88828 8.54818 8.81196 8.53689 8.71425 8.47017C8.40326 8.2574 8.08523 8.05431 7.77369 7.84261C7.70251 7.79419 7.65081 7.79392 7.58044 7.84261C7.4037 7.96554 7.22154 8.08094 7.04101 8.19822C7.00501 8.22162 6.96658 8.24126 6.9092 8.27408C6.90081 8.20521 6.88998 8.15868 6.88998 8.11187C6.8889 7.42593 6.89187 6.74 6.88673 6.05433C6.88592 5.93489 6.92435 5.90208 7.04155 5.90235C8.25033 5.90611 9.45911 5.90557 10.6682 5.90315C10.7724 5.90315 10.8219 5.92413 10.8211 6.0433C10.8162 6.73811 10.8189 7.43293 10.8181 8.12774C10.8181 8.16648 10.8111 8.20522 10.8027 8.28295Z" fill="#191919"/>
<path d="M4.76321 15.7363C4.11357 15.7363 3.46393 15.7328 2.81459 15.739C2.67123 15.7404 2.62023 15.7101 2.6211 15.5679C2.62697 14.3682 2.62609 13.1687 2.62228 11.969C2.62198 11.8502 2.65101 11.8042 2.79231 11.8047C4.09628 11.8096 5.40055 11.8096 6.7045 11.8047C6.84932 11.8042 6.88392 11.8485 6.88333 11.9755C6.87893 13.1706 6.88069 14.3658 6.88069 15.5609C6.88069 15.7358 6.88011 15.736 6.68281 15.7363C6.04314 15.7363 5.40289 15.7363 4.76321 15.7363ZM4.76321 12.5943C4.37771 12.5943 3.99191 12.5959 3.60641 12.593C3.51406 12.5922 3.47302 12.6187 3.47537 12.7086C3.48006 12.8932 3.47977 13.0781 3.47537 13.2629C3.47332 13.352 3.5126 13.3799 3.60582 13.3796C4.36715 13.3775 5.12878 13.3769 5.89011 13.3802C6.00268 13.3807 6.03288 13.3393 6.02995 13.2435C6.02438 13.0724 6.02262 12.9008 6.03053 12.7297C6.03552 12.6203 5.98832 12.5908 5.87633 12.5922C5.50549 12.597 5.13406 12.5943 4.76321 12.5943ZM4.74738 14.9499C5.12819 14.9499 5.50901 14.948 5.88952 14.9513C5.98715 14.9521 6.03259 14.9256 6.02936 14.8287C6.02379 14.6487 6.02379 14.4681 6.02936 14.2878C6.03229 14.192 5.98979 14.1638 5.8907 14.1641C5.12937 14.1665 4.36774 14.1668 3.60641 14.1641C3.49999 14.1636 3.47244 14.2039 3.47478 14.2932C3.47947 14.4689 3.48094 14.6449 3.47449 14.8205C3.47068 14.9221 3.51289 14.9532 3.6196 14.9521C3.99543 14.9478 4.37155 14.9499 4.74738 14.9499Z" fill="#191919"/>
</svg>
