<svg width="26" height="20" viewBox="0 0 26 20" fill="none" xmlns="http://www.w3.org/2000/svg">
<mask id="mask0_1772_4561" style="mask-type:luminance" maskUnits="userSpaceOnUse" x="0" y="0" width="26" height="20">
<path d="M25.8333 0H0V20H25.8333V0Z" fill="white"/>
</mask>
<g mask="url(#mask0_1772_4561)">
<path d="M4.51812 11.038C5.20366 10.7487 5.70443 10.5178 6.22035 10.3273C6.5293 10.2138 6.44247 10.0154 6.40713 9.80905C6.21126 8.67392 6.60401 7.72436 7.38142 6.80343C7.5682 7.02453 7.7146 7.19924 7.88825 7.40455C7.37133 8.12413 6.96445 8.91477 7.27036 9.87617C10.4507 8.94635 13.5614 7.80234 16.983 8.55054C16.7528 7.46772 17.3979 6.97419 18.3258 6.58331C20.1916 5.79859 22.0261 4.94083 23.8777 4.12255C24.7763 3.72476 25.5769 4.12057 25.8011 5.05631C25.9252 5.57453 25.685 6.11741 25.1519 6.37504C23.0751 7.38086 20.9983 8.38767 18.8982 9.34513C18.555 9.50208 18.0946 9.41423 17.6544 9.44088C17.7059 9.67284 17.7917 9.99956 17.8502 10.3312C18.141 11.9549 17.7866 13.4671 16.989 14.8925C14.5871 19.1852 8.53543 21.2077 3.94667 19.2514C2.24646 18.5268 0.976347 17.372 0.193886 15.7048C-0.127175 15.0208 -0.0504438 14.4216 0.431148 13.8768C0.648218 13.631 0.657305 13.4207 0.583602 13.1246C0.472543 12.6804 0.402879 12.2215 0.374609 11.7654C0.337253 11.1574 0.621968 10.7892 1.23178 10.6796C1.5478 10.6234 1.60333 10.4812 1.6003 10.2157C1.59121 9.42607 1.59525 8.6374 1.59727 7.84775C1.6003 6.91497 2.15963 6.302 2.98954 6.31581C3.80431 6.32963 4.3061 6.93767 4.33336 7.84577C4.36365 8.87529 4.44946 9.90184 4.51812 11.038ZM16.1359 10.7428C16.3368 10.5197 16.4822 10.3825 16.5983 10.2246C16.9941 9.68962 16.9022 9.37968 16.2429 9.23557C15.7563 9.12896 15.2434 9.07665 14.7446 9.09145C12.3841 9.16548 10.1367 9.77352 7.92561 10.5326C7.82263 10.5681 7.72873 10.6293 7.61364 10.6866C7.73378 10.88 7.83374 11.0429 7.94378 11.2196C7.72974 11.3884 7.54094 11.5364 7.33296 11.7013C7.12599 11.418 6.96142 11.1929 6.77464 10.9383C6.14564 11.2117 5.52674 11.4811 4.89875 11.7556C5.47424 13.1335 6.38391 14.0633 7.80042 14.4453C8.05787 14.5144 8.37792 14.5184 8.62629 14.4345C9.71871 14.0623 10.8081 13.6715 11.8733 13.2302C12.2246 13.0851 12.5477 12.8058 12.8021 12.5186C13.3332 11.9194 13.5442 11.1732 13.7027 10.4062C13.8198 9.83768 14.2893 9.48628 14.8486 9.47641C15.41 9.46654 15.8704 9.80708 16.039 10.3598C16.0672 10.4506 16.0864 10.5434 16.1359 10.7428ZM6.6868 15.0198C4.96841 14.0199 4.10922 12.5344 3.76393 10.7586C3.58018 9.81498 3.57917 8.83679 3.52162 7.87242C3.49133 7.37395 3.31161 7.08178 2.94815 7.11731C2.49786 7.16075 2.39992 7.4697 2.40396 7.85762C2.41305 8.69465 2.41305 9.53169 2.40396 10.3697C2.3979 10.9471 2.11521 11.3252 1.55385 11.4259C1.25198 11.4802 1.15808 11.5897 1.17928 11.873C1.2439 12.7742 1.48116 13.6211 2.01828 14.3634C2.53723 15.081 3.26517 15.4965 4.16374 15.4255C5.01082 15.3593 5.84679 15.16 6.6868 15.0198ZM14.0813 12.1316C14.7234 11.8454 15.308 11.5384 15.2434 10.7527C15.2293 10.5869 15.0394 10.4349 14.9304 10.2759C14.7769 10.3954 14.5407 10.4872 14.4862 10.6402C14.3166 11.112 14.2176 11.6075 14.0813 12.1316ZM18.4732 8.65023C18.5166 8.67195 18.56 8.69366 18.6044 8.71538C18.7205 8.48144 18.9437 8.23665 18.9205 8.01653C18.9013 7.83195 18.6115 7.56841 18.4096 7.53781C18.2077 7.50721 17.9664 7.72041 17.7422 7.82702C17.7644 7.86749 17.7866 7.90796 17.8089 7.94941C18.4833 7.83788 18.6559 8.0195 18.4732 8.65023ZM1.87693 15.4541C1.59525 15.1067 1.32063 14.7691 1.03995 14.4226C0.602785 15.0869 0.866298 15.4028 1.87693 15.4541Z" fill="#191919"/>
<path d="M7.48057 4.72095C7.37759 4.72095 7.14638 4.72095 6.9172 4.72095C6.80412 4.00533 7.3473 2.885 8.18731 2.12891C8.32563 2.31941 8.46596 2.51386 8.59116 2.6866C8.26202 3.2897 7.88947 3.97275 7.48057 4.72095Z" fill="#828282"/>
<path d="M7.24879 0.778805C7.25384 1.20127 6.89744 1.56451 6.46431 1.57537C6.03219 1.58623 5.6556 1.24273 5.63743 0.820262C5.61824 0.376081 5.9908 -0.00196644 6.44715 7.69695e-06C6.88129 0.00198184 7.24374 0.354366 7.24879 0.778805Z" fill="#828282"/>
<path d="M4.42205 3.58863C4.40085 4.0111 4.02123 4.35263 3.58911 4.33782C3.15598 4.32301 2.80261 3.95879 2.81068 3.53533C2.81977 3.08918 3.21453 2.73383 3.66786 2.76344C4.10099 2.79108 4.44426 3.16617 4.42205 3.58863Z" fill="#828282"/>
<path d="M0.8125 5.50189C0.8125 5.25809 0.8125 5.03304 0.8125 4.77344C1.05077 4.77344 1.29207 4.77344 1.56669 4.77344C1.56669 5.00244 1.56669 5.23835 1.56669 5.50189C1.31731 5.50189 1.07702 5.50189 0.8125 5.50189Z" fill="#828282"/>
<path d="M6.0005 5.91325C5.74305 5.91325 5.52497 5.91325 5.26953 5.91325C5.26953 5.66944 5.26953 5.43353 5.26953 5.16406C5.49872 5.16406 5.74002 5.16406 6.0005 5.16406C6.0005 5.41478 6.0005 5.66155 6.0005 5.91325Z" fill="#828282"/>
<path d="M5.62959 8.71484C5.62959 8.97346 5.62959 9.18666 5.62959 9.43738C5.38223 9.43738 5.14194 9.43738 4.86328 9.43738C4.86328 9.21726 4.86328 8.98135 4.86328 8.71484C5.10256 8.71484 5.34386 8.71484 5.62959 8.71484Z" fill="#828282"/>
<path d="M8.05146 12.2656C8.05146 12.5242 8.05146 12.7374 8.05146 12.9882C7.8041 12.9882 7.56381 12.9882 7.28516 12.9882C7.28516 12.768 7.28516 12.5321 7.28516 12.2656C7.52444 12.2656 7.76574 12.2656 8.05146 12.2656Z" fill="#828282"/>
<path d="M2.80078 13.4414C3.07338 13.4414 3.30459 13.4414 3.48632 13.4414C3.85584 13.8816 4.2082 14.3011 4.58883 14.7542C4.48484 14.9062 4.34753 15.1046 4.19508 15.3257C3.49641 14.8411 2.94415 14.309 2.80078 13.4414Z" fill="#828282"/>
</g>
</svg>
