<svg width="19" height="19" viewBox="0 0 19 19" fill="none" xmlns="http://www.w3.org/2000/svg">
<path d="M10.9953 9.47644C10.9996 9.38893 11.0051 9.32697 11.0053 9.26528C11.0059 8.10589 11.0056 6.94651 11.0059 5.78712C11.0059 5.66899 11.0659 5.60983 11.1859 5.60965C12.9001 5.60965 14.6144 5.60965 16.3286 5.60965C16.5087 5.60965 16.5092 5.60992 16.5092 5.78685C16.5092 7.10006 16.5095 8.41354 16.5087 9.72675C16.5087 9.79252 16.4997 9.85802 16.4951 9.91862C14.2671 9.16662 12.2788 9.52944 10.7257 11.3101C9.10293 13.1704 9.04906 15.2592 10.198 17.4253C10.1498 17.4304 10.0989 17.4408 10.0478 17.4408C6.75004 17.4416 3.45231 17.4408 0.154585 17.4438C0.0365482 17.4438 0 17.409 0 17.2894C0.00270727 13.4446 0.00270727 9.59956 0 5.75478C0 5.64226 0.0346531 5.60721 0.146734 5.60748C1.88345 5.61047 3.62043 5.61074 5.35715 5.60693C5.48114 5.60693 5.50686 5.65205 5.50659 5.76592C5.50334 6.93428 5.50443 8.10263 5.50497 9.27126C5.50497 9.33268 5.51173 9.3941 5.51742 9.48949C5.71559 9.35877 5.89021 9.24517 6.06321 9.12939C6.35505 8.93426 6.64879 8.74184 6.93576 8.53964C7.04134 8.46518 7.12067 8.47034 7.22462 8.54317C7.53082 8.75733 7.84594 8.95872 8.15349 9.1707C8.22875 9.22261 8.28263 9.22315 8.35816 9.17097C8.66219 8.96171 8.97488 8.76494 9.27565 8.55106C9.39586 8.46545 9.48059 8.47333 9.59836 8.55486C10.0315 8.85436 10.4723 9.14271 10.9106 9.43486C10.9282 9.44655 10.9485 9.45362 10.995 9.47644H10.9953ZM7.07545 13.0954C7.07545 12.2349 7.07248 11.3748 7.07843 10.5143C7.07952 10.3747 7.03755 10.3396 6.90219 10.3401C5.18361 10.3445 3.46504 10.3445 1.74646 10.3401C1.60866 10.3399 1.57184 10.3785 1.57211 10.5154C1.57644 12.2407 1.57644 13.9659 1.57211 15.6911C1.57184 15.8292 1.61056 15.8667 1.74727 15.8661C3.46585 15.8615 5.18443 15.8618 6.903 15.8661C7.04026 15.8664 7.07897 15.8275 7.07816 15.69C7.07221 14.8252 7.07518 13.9602 7.07518 13.0954H7.07545Z" fill="#292929"/>
<path d="M19.007 14.6494C19.0032 17.0537 17.047 19.0029 14.6402 19.0007C12.2313 18.9985 10.2789 17.0365 10.2852 14.624C10.2915 12.2227 12.252 10.275 14.6588 10.2788C17.0601 10.2826 19.0106 12.2435 19.0068 14.6494H19.007ZM16.4883 13.729C16.4585 13.6913 16.4364 13.6571 16.4085 13.6284C16.3034 13.5211 16.1966 13.4153 16.0904 13.3093C15.953 13.1724 15.9489 13.1722 15.8099 13.3112C15.1982 13.9224 14.5856 14.5322 13.9769 15.1464C13.8846 15.2396 13.8207 15.2396 13.73 15.1451C13.5129 14.9186 13.2843 14.7027 13.0661 14.4773C12.9825 14.3913 12.9178 14.3754 12.8307 14.4721C12.7242 14.5904 12.6109 14.703 12.4931 14.8101C12.4033 14.8918 12.4129 14.953 12.4953 15.0344C12.9162 15.4502 13.334 15.8688 13.7499 16.2896C13.8229 16.3633 13.8769 16.3707 13.9534 16.2939C14.7721 15.4718 15.5933 14.6519 16.4129 13.8309C16.4407 13.803 16.4604 13.767 16.488 13.729H16.4883Z" fill="#292929"/>
<path d="M0 4.64987C0.166973 4.41727 0.31769 4.20637 0.469785 3.99655C1.16082 3.04362 1.85269 2.09097 2.544 1.13778C2.79198 0.795842 3.03969 0.453637 3.28602 0.110628C3.33947 0.0361306 3.40174 0.000221794 3.50176 0.00048977C4.57138 0.00397346 5.641 0.0023656 6.71035 0.00290155C6.86548 0.00290155 6.87181 0.0213919 6.83269 0.167171C6.73074 0.546089 6.63678 0.926882 6.53814 1.3066C6.44391 1.66918 6.34609 2.03068 6.25241 2.39325C6.16094 2.74724 6.07249 3.10204 5.98267 3.45657C5.89257 3.81111 5.80136 4.1651 5.71264 4.5199C5.68481 4.63111 5.62585 4.67319 5.50048 4.67292C3.73321 4.66863 1.96593 4.67024 0.19866 4.66917C0.141349 4.66917 0.0840378 4.65818 0 4.64987Z" fill="#292929"/>
<path d="M16.5148 4.64826C16.4437 4.65764 16.393 4.66997 16.342 4.66997C14.6282 4.67104 12.9143 4.66997 11.2008 4.67292C11.0793 4.67292 11.0355 4.63754 11.0176 4.51103C10.9615 4.11838 10.8851 3.72868 10.8202 3.33737C10.7566 2.95463 10.6986 2.57109 10.6353 2.18862C10.5712 1.8016 10.5026 1.41538 10.4371 1.02863C10.3845 0.71638 10.3321 0.404135 10.2854 0.0910855C10.2819 0.0669636 10.3174 0.0256882 10.3447 0.0117511C10.3735 -0.00325816 10.4141 0.00317436 10.4497 0.00317436C11.3354 0.00290634 12.2212 0.0047825 13.1072 0.000494146C13.2132 -4.18976e-05 13.2798 0.0361411 13.3388 0.120032C14.2665 1.44165 15.196 2.76219 16.1245 4.083C16.2517 4.26419 16.3762 4.44724 16.5151 4.64826H16.5148Z" fill="#292929"/>
<path d="M8.41353 4.67226C7.84125 4.67226 7.26924 4.67253 6.69696 4.67226C6.53392 4.67226 6.52301 4.66636 6.55873 4.5167C6.6487 4.13959 6.74685 3.76409 6.84228 3.38832C6.93116 3.0383 7.02086 2.68827 7.11029 2.33852C7.20844 1.95417 7.30714 1.56982 7.40475 1.1852C7.49363 0.835174 7.58551 0.48569 7.66648 0.133791C7.68721 0.0434027 7.72129 0.000756497 7.81589 0.00102471C8.33801 0.00236579 8.8604 0.00236579 9.38251 0.000488281C9.45912 0.000488281 9.49784 0.0270416 9.51093 0.104288C9.58072 0.513316 9.65488 0.92154 9.72577 1.33057C9.79666 1.73933 9.86564 2.14863 9.93571 2.55739C9.99378 2.89614 10.0521 3.23463 10.1102 3.57338C10.1628 3.8813 10.2152 4.18921 10.2675 4.49712C10.2956 4.66314 10.288 4.6728 10.1167 4.6728C9.5491 4.67307 8.98145 4.6728 8.4138 4.6728L8.41353 4.67226Z" fill="#292929"/>
<path d="M10.2624 7.86869C10.1064 7.76774 9.97829 7.68647 9.85177 7.60264C9.63868 7.46157 9.42516 7.46208 9.21121 7.60418C8.98749 7.75291 8.75992 7.89603 8.54108 8.05141C8.44362 8.12067 8.37111 8.10994 8.27828 8.04656C7.98281 7.84441 7.68066 7.65146 7.38468 7.45033C7.31705 7.40432 7.26794 7.40407 7.20108 7.45033C7.03316 7.56712 6.8601 7.67676 6.68858 7.78818C6.65438 7.81042 6.61786 7.82907 6.56335 7.86025C6.55538 7.79483 6.54509 7.75061 6.54509 7.70615C6.54406 7.05445 6.54689 6.40276 6.542 5.75133C6.54123 5.63786 6.57775 5.60668 6.68909 5.60694C7.83752 5.61051 8.98595 5.61 10.1346 5.6077C10.2336 5.6077 10.2807 5.62764 10.2799 5.74085C10.2753 6.40098 10.2779 7.0611 10.2771 7.72122C10.2771 7.75803 10.2699 7.79457 10.2619 7.86843L10.2624 7.86869Z" fill="#292929"/>
<path d="M4.52638 14.9521C3.90917 14.9521 3.29197 14.9488 2.67505 14.9547C2.53885 14.956 2.49039 14.9272 2.49122 14.7922C2.49679 13.6523 2.49596 12.5127 2.49234 11.3729C2.49206 11.26 2.51963 11.2163 2.65388 11.2168C3.89274 11.2214 5.13188 11.2214 6.37075 11.2168C6.50834 11.2163 6.5412 11.2585 6.54064 11.3791C6.53647 12.5145 6.53814 13.65 6.53814 14.7855C6.53814 14.9516 6.53758 14.9519 6.35014 14.9521C5.7424 14.9521 5.13439 14.9521 4.52666 14.9521H4.52638ZM4.52638 11.967C4.16012 11.967 3.79359 11.9685 3.42733 11.9657C3.3396 11.9649 3.3006 11.9902 3.30283 12.0755C3.30729 12.2509 3.30701 12.4266 3.30283 12.6022C3.30088 12.6869 3.33821 12.7133 3.42678 12.7131C4.1501 12.711 4.87369 12.7105 5.59701 12.7136C5.70397 12.7141 5.73265 12.6748 5.72987 12.5837C5.72458 12.4212 5.72291 12.2581 5.73043 12.0956C5.73516 11.9917 5.69032 11.9637 5.58392 11.9649C5.23159 11.9696 4.87899 11.9667 4.52666 11.9667L4.52638 11.967ZM4.51134 14.205C4.87314 14.205 5.23494 14.2032 5.59646 14.2063C5.6892 14.2071 5.73237 14.1819 5.72931 14.0898C5.72402 13.9188 5.72402 13.7472 5.72931 13.5759C5.7321 13.4849 5.69171 13.4582 5.59757 13.4584C4.87425 13.4607 4.15065 13.461 3.42733 13.4584C3.32623 13.4579 3.30005 13.4962 3.30228 13.5811C3.30673 13.748 3.30812 13.9152 3.302 14.0821C3.29838 14.1785 3.33848 14.2081 3.43987 14.2071C3.79693 14.203 4.15399 14.2055 4.51106 14.2055L4.51134 14.205Z" fill="#292929"/>
</svg>
