<svg width="18" height="18" viewBox="0 0 19 19" fill="#fff" xmlns="http://www.w3.org/2000/svg">
                                                    <path d="M10.995 9.476c.005-.087.01-.149.01-.21v-3.48c0-.118.06-.177.18-.177h5.144c.18 0 .18 0 .18.177v3.94c0 .066-.01.131-.014.192-2.228-.752-4.216-.39-5.77 1.391-1.622 1.86-1.676 3.95-.527 6.115-.048.005-.1.016-.15.016-3.298 0-6.596 0-9.893.003-.118 0-.155-.035-.155-.155.003-3.844.003-7.69 0-11.534 0-.113.035-.148.147-.148 1.736.003 3.473.004 5.21 0 .124 0 .15.045.15.159a819.003 819.003 0 0 0-.002 3.505c0 .062.007.123.012.218.199-.13.373-.244.546-.36.292-.195.586-.387.873-.59.105-.074.185-.069.289.004.306.214.62.416.928.628.076.052.13.052.205 0 .304-.21.617-.406.918-.62.12-.086.205-.078.322.004.433.3.874.588 1.313.88.017.012.037.019.084.041Zm-3.92 3.62c0-.861-.003-1.721.003-2.582.002-.14-.04-.174-.176-.174-1.718.005-3.437.005-5.156 0-.137 0-.174.039-.174.175.004 1.726.004 3.45 0 5.176 0 .138.039.176.175.175 1.719-.005 3.437-.004 5.156 0 .137 0 .176-.038.175-.176-.006-.865-.003-1.73-.003-2.595Z" fill="#292929"/>
                                                    <path d="M19.007 14.65A4.363 4.363 0 0 1 14.64 19a4.364 4.364 0 0 1-4.355-4.376 4.366 4.366 0 0 1 4.374-4.345 4.364 4.364 0 0 1 4.348 4.37Zm-2.519-.921c-.03-.038-.052-.072-.08-.1a23.986 23.986 0 0 0-.318-.32c-.137-.137-.141-.137-.28.002-.612.611-1.224 1.221-1.833 1.835-.092.094-.156.094-.247 0-.217-.227-.446-.443-.664-.669-.084-.086-.148-.102-.235-.005-.107.118-.22.231-.338.338-.09.082-.08.143.002.224.421.416.839.835 1.255 1.256.073.073.127.08.203.004l2.46-2.463c.028-.028.047-.064.075-.102ZM0 4.65c.167-.233.318-.444.47-.653l2.074-2.86c.248-.341.496-.683.742-1.026A.24.24 0 0 1 3.502 0C4.572.003 5.64.001 6.71.002c.155 0 .162.018.123.164-.102.38-.196.76-.295 1.14-.094.362-.192.724-.286 1.086-.091.354-.18.709-.27 1.064l-.27 1.063c-.027.111-.086.153-.212.153-1.767-.003-3.534-.002-5.3-.003C.14 4.67.084 4.66 0 4.65Zm16.515-.002c-.071.01-.122.022-.173.022-1.714.001-3.428 0-5.141.003-.122 0-.165-.035-.183-.162-.057-.393-.133-.782-.198-1.174-.063-.382-.121-.766-.185-1.148-.064-.387-.132-.774-.198-1.16a50.517 50.517 0 0 1-.152-.938c-.003-.024.032-.065.06-.08.028-.014.07-.008.105-.008.885 0 1.771.002 2.657-.003.106 0 .173.036.232.12.928 1.322 1.857 2.642 2.786 3.963.127.181.251.364.39.565Zm-8.101.024H6.697c-.163 0-.174-.006-.138-.155.09-.377.188-.753.283-1.129l.268-1.05.295-1.153c.089-.35.18-.7.261-1.051.021-.09.055-.133.15-.133h1.567c.076 0 .115.026.128.103.07.41.144.818.215 1.227l.21 1.226.174 1.016.158.924c.028.166.02.176-.151.176H8.414Zm1.848 3.197c-.156-.101-.284-.183-.41-.266a.536.536 0 0 0-.64.001c-.225.149-.452.292-.67.447-.098.07-.17.059-.264-.004-.295-.203-.597-.396-.893-.597-.068-.046-.117-.046-.184 0-.168.117-.34.227-.512.338-.035.022-.071.041-.126.072-.008-.065-.018-.11-.018-.154 0-.652.002-1.303-.003-1.955 0-.113.036-.144.147-.144 1.149.004 2.297.003 3.446 0 .099 0 .146.02.145.134-.005.66-.002 1.32-.003 1.98 0 .037-.007.074-.015.147Zm-5.736 7.083c-.617 0-1.234-.003-1.85.003-.137.001-.186-.028-.185-.163.006-1.14.005-2.28.001-3.42 0-.112.028-.156.162-.155 1.239.004 2.478.004 3.717 0 .137 0 .17.041.17.162-.005 1.136-.003 2.271-.003 3.407 0 .166 0 .166-.188.166H4.527Zm0-2.985c-.366 0-.732.002-1.099-.001-.087-.001-.126.024-.124.11.004.175.004.35 0 .526-.002.085.035.111.124.111a392.41 392.41 0 0 1 2.17 0c.107.001.136-.038.133-.13a6.202 6.202 0 0 1 0-.487c.005-.104-.04-.132-.146-.131-.352.005-.705.002-1.057.002Zm-.015 2.238c.362 0 .724-.002 1.085.001.093.001.136-.024.133-.116a8.322 8.322 0 0 1 0-.514c.003-.091-.037-.118-.131-.118-.724.003-1.447.003-2.17 0-.102 0-.128.038-.126.123.005.167.006.334 0 .501-.004.096.036.126.138.125.357-.004.714-.002 1.071-.002Z" fill="#292929"/>
                                                  </svg>