<svg xmlns="http://www.w3.org/2000/svg" width="40" height="40"
                                         viewBox="0 0 40 40" fill="none">
                                        <path
                                            d="M23.6992 5.04796C25.47 4.76179 26.9191 5.84531 26.9265 7.49749C26.9521 13.3052 26.9326 19.1129 26.9289 24.9206C26.9289 25.0196 26.9106 25.1187 26.891 25.3107C26.1193 24.698 25.3073 24.4045 24.3681 24.6197C24.2862 24.6381 24.1773 24.5769 24.0905 24.5341C23.5512 24.2761 23.0155 24.0132 22.4175 23.7233V22.5787C23.0131 22.5787 23.583 22.6227 24.1419 22.5603C24.4207 22.5285 24.79 22.3659 24.9172 22.1457C25.1092 21.8143 24.9172 21.5013 24.5418 21.3117C24.4305 21.2555 24.3571 21.028 24.351 20.8763C24.2128 17.5121 22.5264 15.5113 19.1816 14.7825C18.9811 14.3373 19.3736 13.4874 18.4626 13.4972C17.5992 13.507 17.9416 14.2994 17.7863 14.747C17.2641 14.9036 16.7468 15.0161 16.2613 15.2105C14.0392 16.102 12.6292 18.2177 12.6035 20.6538C12.5998 20.9644 12.6757 21.2787 12.2415 21.445C12.0948 21.5013 11.9443 21.9574 12.0251 22.1066C12.1425 22.3231 12.4629 22.5481 12.705 22.5567C13.9463 22.6019 15.19 22.5787 16.4337 22.5787C16.6526 22.5787 16.8703 22.5787 17.1247 22.5787V28.5661C15.5324 27.9706 13.9744 27.7773 13.0927 29.5604C12.1571 31.4522 13.4828 32.5468 14.8231 33.5655C14.8072 33.6205 14.7913 33.6755 14.7754 33.7306C13.7812 33.6694 12.7662 33.7122 11.7988 33.519C10.7532 33.3099 10.0598 32.3046 10.0182 31.2223C9.98766 30.4287 10.0048 29.6325 10.0048 28.8388C10.0048 21.829 10.0011 14.8179 10.0072 7.80811C10.0072 5.91134 11.3365 4.75445 13.2468 5.04429C13.2468 5.40872 13.2382 5.78905 13.248 6.16938C13.2883 7.813 14.3486 8.86717 15.9947 8.8794C17.6456 8.89163 19.2966 8.89163 20.9463 8.8794C22.5924 8.86717 23.6539 7.81545 23.6967 6.17305C23.7065 5.79272 23.6979 5.41117 23.6979 5.04673L23.6992 5.04796Z"
                                            fill="#FFC00B" />
                                        <path
                                            d="M18.466 30.4073C18.466 28.7306 18.4647 27.1249 18.466 25.5204C18.466 24.421 18.4611 23.3216 18.4794 22.2222C18.4965 21.2108 18.9808 20.6397 19.7818 20.6422C20.578 20.6446 21.0696 21.2438 21.0733 22.2307C21.0781 23.4525 21.0733 24.6729 21.0733 26.0707C21.516 25.4385 21.9905 25.0961 22.6594 25.2404C23.3601 25.392 23.6341 25.9118 23.7368 26.6455C24.1734 26.0487 24.6674 25.7002 25.3657 25.9154C26.0298 26.1197 26.2842 26.6419 26.3355 27.3634C26.7428 26.7152 27.2356 26.3753 27.951 26.5746C28.4634 26.7177 28.8523 27.0466 28.8572 27.597C28.8804 30.0367 28.867 32.4765 28.867 34.9981H28.2519C25.1774 34.9981 22.103 35.0079 19.0285 34.9835C18.7179 34.981 18.3473 34.8489 18.1076 34.6521C16.974 33.7226 15.8758 32.7516 14.7678 31.7916C14.16 31.2645 14.0047 30.6898 14.3043 30.1272C14.626 29.5243 15.1983 29.3421 15.9932 29.5977C16.8003 29.8582 17.605 30.126 18.4635 30.4073H18.466Z"
                                            fill="#FFD258" />
                                        <path
                                            d="M22.9499 21.247C22.5402 21.3938 22.3164 21.2727 22.1208 20.8496C21.6744 19.881 20.8795 19.3649 19.7984 19.3576C18.6917 19.349 17.8882 19.8761 17.4198 20.8618C17.267 21.1847 17.1141 21.3192 16.7509 21.3094C15.8398 21.2837 14.9275 21.3008 14.0299 21.3008C13.63 19.8407 14.3723 17.9977 15.7334 16.9839C17.2719 15.8368 19.3362 15.7634 20.9419 16.798C22.4595 17.7751 23.2826 19.5961 22.9499 21.2495V21.247Z"
                                            fill="#FFD258" />
                                        <path
                                            d="M22.3735 5.00607C22.3735 5.51848 22.4138 6.00521 22.3637 6.48215C22.2976 7.11318 21.7864 7.57667 21.1004 7.58768C19.3528 7.61458 17.6028 7.61825 15.8552 7.58768C15.0689 7.57423 14.5883 7.03125 14.5614 6.24979C14.5479 5.84745 14.5589 5.44511 14.5589 5.0073H22.3722L22.3735 5.00607Z"
                                            fill="#FFC00B" />
                                    </svg>