<svg width="25" height="19" viewBox="0 0 25 19" fill="none" xmlns="http://www.w3.org/2000/svg">
<g id="Frame" clip-path="url(#clip0_476_41037)">
<path id="Vector" d="M4.37237 10.4814C5.0358 10.2066 5.52042 9.98719 6.01969 9.80621C6.31867 9.69838 6.23465 9.5099 6.20045 9.31391C6.0109 8.23554 6.39098 7.33346 7.14331 6.45857C7.32407 6.66862 7.46574 6.83459 7.63379 7.02964C7.13354 7.71323 6.73979 8.46434 7.03584 9.37768C10.1136 8.49435 13.1239 7.40754 16.4351 8.11833C16.2124 7.08965 16.8367 6.62079 17.7346 6.24946C19.5402 5.50397 21.3155 4.6891 23.1075 3.91173C23.9771 3.53383 24.7519 3.90986 24.9688 4.79881C25.0889 5.29111 24.8564 5.80686 24.3405 6.0516C22.3307 7.00713 20.3209 7.9636 18.2886 8.87319C17.9564 9.02228 17.5109 8.93883 17.0849 8.96414C17.1347 9.18451 17.2178 9.49489 17.2744 9.80996C17.5558 11.3525 17.2129 12.7891 16.441 14.1431C14.1166 18.2213 8.26009 20.1427 3.81936 18.2841C2.17399 17.5958 0.944852 16.4987 0.187632 14.9149C-0.123073 14.2651 -0.0488164 13.6959 0.41724 13.1782C0.627308 12.9447 0.636102 12.745 0.564776 12.4637C0.4573 12.0417 0.389883 11.6057 0.362525 11.1725C0.326374 10.5948 0.601905 10.2451 1.19205 10.141C1.49787 10.0875 1.55161 9.9525 1.54867 9.70025C1.53988 8.95008 1.54379 8.20084 1.54574 7.45067C1.54867 6.56453 2.08996 5.98221 2.89311 5.99534C3.68159 6.00846 4.16719 6.5861 4.19357 7.4488C4.22288 8.42683 4.30593 9.40206 4.37237 10.4814ZM15.6154 10.201C15.8098 9.98907 15.9505 9.85873 16.0629 9.70869C16.4459 9.20045 16.357 8.90601 15.719 8.7691C15.248 8.66783 14.7517 8.61813 14.269 8.63219C11.9846 8.70252 9.8097 9.28016 7.66995 10.0013C7.57029 10.035 7.47942 10.0932 7.36804 10.1475C7.48431 10.3313 7.58103 10.4861 7.68753 10.6539C7.4804 10.8143 7.29769 10.9549 7.09641 11.1115C6.89612 10.8424 6.73686 10.6286 6.5561 10.3867C5.94739 10.6464 5.34845 10.9024 4.74072 11.1631C5.29765 12.4721 6.17798 13.3555 7.54879 13.7184C7.79794 13.784 8.10767 13.7878 8.34803 13.708C9.4052 13.3545 10.4594 12.9832 11.4902 12.564C11.8303 12.4262 12.1429 12.1608 12.3891 11.8879C12.9031 11.3187 13.1073 10.6098 13.2607 9.88123C13.374 9.34111 13.8283 9.00728 14.3696 8.9979C14.9129 8.98852 15.3584 9.31204 15.5216 9.83716C15.5489 9.92343 15.5675 10.0116 15.6154 10.201ZM6.4711 14.2641C4.80814 13.3142 3.97666 11.9029 3.64251 10.216C3.46469 9.31954 3.46371 8.39026 3.40802 7.47411C3.37871 7.00057 3.20479 6.723 2.85305 6.75676C2.41728 6.79802 2.3225 7.09153 2.32641 7.46005C2.33521 8.25523 2.33521 9.05041 2.32641 9.84654C2.32055 10.3951 2.04697 10.7542 1.50373 10.8499C1.21159 10.9015 1.12072 11.0056 1.14124 11.2747C1.20377 12.1308 1.43338 12.9354 1.95318 13.6405C2.45538 14.3223 3.15984 14.717 4.02943 14.6495C4.84918 14.5867 5.65818 14.3973 6.4711 14.2641ZM13.6271 11.5204C14.2485 11.2484 14.8142 10.9568 14.7517 10.2104C14.738 10.0528 14.5543 9.90842 14.4488 9.75745C14.3003 9.87092 14.0716 9.95812 14.0189 10.1035C13.8547 10.5517 13.759 11.0224 13.6271 11.5204ZM17.8773 8.21303C17.9193 8.23366 17.9613 8.25429 18.0043 8.27492C18.1167 8.05268 18.3326 7.82013 18.3101 7.61102C18.2915 7.43567 18.0111 7.1853 17.8157 7.15623C17.6203 7.12716 17.3868 7.32971 17.1699 7.43098C17.1914 7.46943 17.2129 7.50787 17.2344 7.54726C17.887 7.44129 18.0541 7.61383 17.8773 8.21303ZM1.81639 14.6767C1.54379 14.3466 1.27803 14.0259 1.00641 13.6968C0.583341 14.3279 0.838353 14.6279 1.81639 14.6767Z" fill="white"/>
<path id="Vector_2" d="M7.23926 4.48588C7.1396 4.48588 6.91585 4.48588 6.69406 4.48588C6.58463 3.80604 7.11029 2.74173 7.9232 2.02344C8.05706 2.20442 8.19287 2.38915 8.31402 2.55325C7.9955 3.12619 7.63497 3.77509 7.23926 4.48588Z" fill="white"/>
<path id="Vector_3" d="M7.01515 0.739865C7.02004 1.14121 6.67513 1.48629 6.25598 1.4966C5.83779 1.50692 5.47335 1.18059 5.45576 0.779249C5.4372 0.357277 5.79773 -0.00186812 6.23937 7.31211e-06C6.6595 0.00188274 7.01027 0.336647 7.01515 0.739865Z" fill="white"/>
<path id="Vector_4" d="M4.28022 3.41057C4.2597 3.81191 3.89233 4.13636 3.47415 4.1223C3.05499 4.10823 2.71302 3.76221 2.72083 3.35993C2.72963 2.93609 3.11166 2.59851 3.55036 2.62664C3.96952 2.6529 4.30172 3.00923 4.28022 3.41057Z" fill="white"/>
<path id="Vector_5" d="M0.787109 5.22328C0.787109 4.99167 0.787109 4.77787 0.787109 4.53125C1.0177 4.53125 1.25121 4.53125 1.51697 4.53125C1.51697 4.7488 1.51697 4.97291 1.51697 5.22328C1.27564 5.22328 1.0431 5.22328 0.787109 5.22328Z" fill="white"/>
<path id="Vector_6" d="M5.807 5.61798C5.55785 5.61798 5.34681 5.61798 5.09961 5.61798C5.09961 5.38636 5.09961 5.16225 5.09961 4.90625C5.3214 4.90625 5.55492 4.90625 5.807 4.90625C5.807 5.14443 5.807 5.37886 5.807 5.61798Z" fill="white"/>
<path id="Vector_7" d="M5.44667 8.28125C5.44667 8.52693 5.44667 8.72948 5.44667 8.96766C5.20729 8.96766 4.97475 8.96766 4.70508 8.96766C4.70508 8.75855 4.70508 8.53443 4.70508 8.28125C4.93664 8.28125 5.17016 8.28125 5.44667 8.28125Z" fill="white"/>
<path id="Vector_8" d="M7.79237 11.6562C7.79237 11.9019 7.79237 12.1045 7.79237 12.3427C7.55299 12.3427 7.32045 12.3427 7.05078 12.3427C7.05078 12.1335 7.05078 11.9094 7.05078 11.6562C7.28234 11.6562 7.51586 11.6562 7.79237 11.6562Z" fill="white"/>
<path id="Vector_9" d="M2.71094 12.7656C2.97474 12.7656 3.19849 12.7656 3.37436 12.7656C3.73196 13.1838 4.07296 13.5824 4.44131 14.0128C4.34067 14.1572 4.20779 14.3457 4.06026 14.5557C3.38413 14.0953 2.84968 13.5899 2.71094 12.7656Z" fill="white"/>
</g>
<defs>
<clipPath id="clip0_476_41037">
<rect width="25" height="19" fill="white"/>
</clipPath>
</defs>
</svg>
