<svg xmlns="http://www.w3.org/2000/svg" width="25" height="19" viewBox="0 0 25 19" fill="none">
                                                    <g clip-path="url(#a)" fill="#292929">
                                                      <path d="M4.372 10.481c.664-.274 1.148-.494 1.648-.675.299-.108.215-.296.18-.492-.19-1.078.191-1.98.943-2.855l.49.57c-.5.684-.893 1.435-.597 2.349 3.078-.884 6.088-1.97 9.4-1.26-.224-1.028.4-1.497 1.299-1.869 1.805-.745 3.58-1.56 5.373-2.337.87-.378 1.644-.002 1.86.887.12.492-.112 1.008-.628 1.253-2.01.955-4.02 1.912-6.051 2.821-.333.15-.778.066-1.204.091.05.22.133.53.19.846.28 1.542-.062 2.98-.834 4.333-2.324 4.078-8.18 6-12.622 4.141C2.174 17.596.945 16.5.188 14.914c-.311-.649-.237-1.218.23-1.736.21-.233.218-.433.147-.714a7.054 7.054 0 0 1-.202-1.292c-.037-.577.239-.927.83-1.031.305-.053.359-.188.356-.44-.01-.75-.005-1.5-.003-2.25.003-.886.544-1.469 1.347-1.456.789.013 1.274.591 1.3 1.454.03.978.113 1.953.18 3.032Zm11.243-.28c.195-.212.335-.342.448-.492.383-.509.294-.803-.344-.94a6.122 6.122 0 0 0-1.45-.137c-2.284.07-4.46.648-6.6 1.37-.099.033-.19.091-.301.146l.32.506-.592.457-.54-.724c-.609.26-1.208.515-1.815.776.557 1.31 1.437 2.192 2.808 2.555.249.066.559.07.799-.01a52.691 52.691 0 0 0 3.142-1.144c.34-.138.653-.403.9-.676.513-.57.717-1.278.87-2.007.114-.54.568-.874 1.11-.883.543-.01.988.314 1.152.84.027.085.046.174.093.363Zm-9.144 4.063c-1.663-.95-2.494-2.361-2.828-4.048-.178-.896-.18-1.826-.235-2.742-.03-.473-.203-.751-.555-.717-.436.041-.53.335-.527.703.01.795.01 1.59 0 2.387-.005.548-.279.907-.822 1.003-.292.052-.383.156-.363.425.063.856.292 1.66.812 2.365.502.682 1.207 1.077 2.076 1.01.82-.063 1.63-.253 2.442-.386Zm7.156-2.744c.621-.272 1.187-.563 1.125-1.31-.014-.157-.198-.302-.303-.453-.149.114-.377.201-.43.347-.164.448-.26.918-.392 1.416Zm4.25-3.307.127.062c.113-.222.329-.455.306-.664-.018-.175-.299-.426-.494-.455-.196-.029-.43.174-.646.275l.064.116c.653-.106.82.067.643.666Zm-16.06 6.464-.81-.98c-.424.63-.169.93.81.98ZM7.24 4.486h-.546c-.11-.68.416-1.744 1.23-2.463l.39.53-1.075 1.933ZM7.015.74c.005.401-.34.746-.759.757-.418.01-.783-.316-.8-.718C5.437.357 5.798 0 6.239 0c.42.002.771.337.776.74ZM4.28 3.41c-.02.402-.388.726-.806.712-.419-.014-.761-.36-.753-.762.009-.424.39-.761.83-.733.419.026.75.382.73.784ZM.787 5.223v-.692h.73v.692h-.73Zm5.02.395H5.1v-.712h.707v.712Z"></path>
                                                      <path d="M5.447 8.281v.687h-.742V8.28h.742Zm2.345 3.375v.687h-.741v-.687h.741Zm-5.082 1.11h.664l1.067 1.247-.38.543c-.677-.46-1.211-.966-1.35-1.79Z"></path>
                                                    </g>
                                                    <defs>
                                                      <clipPath id="a">
                                                        <path fill="#fff" d="M0 0h25v19H0z"></path>
                                                      </clipPath>
                                                    </defs>
                                                  </svg>