<?xml version="1.0" encoding="UTF-8"?>
<svg id="Layer_1" data-name="Layer 1" xmlns="http://www.w3.org/2000/svg" viewBox="0 0 24.11 19.04">
  <path d="m12.94,10.55c.25-1.73-.24-3.34-.35-4.99-.02-.32-.07-.63-.1-.95-.06-.68-.58-.99-1.23-.92-1.19.14-2.03.84-2.74,1.73-.53.66-1.23.78-1.96.99-.96.28-1.66-.26-2.44-.59-.29-.13-.45-.08-.64.15-.38.45-.62,1-.69,1.59-.03.25.02.38.29.41.46.05.92.13,1.46.21-.29.58-.54,1.09-.8,1.59-.39.76-.77,1.54-1.19,2.28-.21.36-.24.65.08.94.1.09.16.23.29.42-1.07.03-1.91.4-2.48,1.28C.1,15.22-.03,15.8,0,16.43c.07,1.24.88,2.27,2.1,2.52.46.09.99.07,1.43-.08.43-.14.85-.44,1.16-.79.32-.36.5-.85.74-1.29,0,0,.04,0,.05.01.28.56.75.6,1.3.59,1.9-.03,3.79,0,5.69-.01.7,0,1.43.13,2.06-.46.4,1.08,1.03,1.8,2.07,2.04.66.15,1.28.06,1.86-.26.74-.4,1.26-1.12,1.38-1.96.14-.86-.06-1.66-.62-2.38l.84-.53c-.56-.56-1.06-1.1-1.6-1.59-.32-.29-.24-.62-.21-.95,0-.06.19-.14.29-.15.47-.02.95,0,1.42-.01.6,0,.84-.24.84-.86,0-.91-.07-.81.79-.81.68,0,1.37,0,2.05,0,.21,0,.47.09.46-.31,0-.4-.28-.29-.48-.29-1.87,0-3.74,0-5.61,0-.5,0-.53-.04-.42-.65h4.59c.12-.6.1-.63-.41-.64-.8,0-1.59-.01-2.38-.01-.22,0-.38-.01-.38-.32,0-.3.17-.31.39-.31.44,0,.89,0,1.38,0,0-.62.04-1.22-.01-1.8-.03-.35-.33-.54-.66-.54-1.69-.01-3.37-.01-5.06,0-.46,0-.71.34-.71.88,0,1.52-.02,3.03,0,4.55,0,.43-.12.57-.52.53-.3-.03-.6,0-.89,0,0,0,0,0,0,0Zm-3-4.35c.05.16.1.27.12.38.16.73.29,1.47.47,2.2.06.26.02.35-.24.42-.98.27-1.95.57-2.92.88-.66.2-.92.65-.81,1.34.23,1.48.47,2.96.7,4.44.08.5,0,.57-.47.45-.65-.16-1.07-.6-1.15-1.27-.13-1.06-.28-2.12-.26-3.18.02-1.28.21-2.55.33-3.83.03-.34.18-.5.53-.5.39,0,.77-.11,1.16-.13.54-.03,1.03-.16,1.48-.51.31-.24.66-.42,1.05-.67Zm-.23,5.41c.03.07.04.09.03.1-.03.12-.09.24-.1.37,0,.12,0,.29.08.36.73.69.88,1.56.74,2.53-.17,1.15-.5,1.44-1.58,1.39-.01,0-.03,0-.04,0-.22.02-.34-.08-.35-.32-.04-1.3-.1-2.59-.13-3.89,0-.1.08-.28.15-.3.4-.1.8-.16,1.19-.23h0ZM1.13,16.23c0-.86.74-1.6,1.56-1.6.86,0,1.57.75,1.56,1.64-.01.87-.71,1.6-1.55,1.61-.84,0-1.58-.77-1.57-1.64h0Zm16.1,1.64c-.7,0-1.28-.45-1.51-1.1-.1-.28-.04-.46.22-.59.64-.34,1.28-.69,1.91-1.07.24-.14.38-.1.53.1.39.52.5,1.09.23,1.7-.28.62-.78.91-1.38.96h0ZM8.83,1.6l1.49-.17c.33,1.22-.68,1.43-1.3,1.91.19.7.24.72.85.44.63-.28,1.26-.53,1.88-.83.14-.07.3-.26.32-.41.05-.38.05-.78.01-1.16C12,.48,11.37-.03,10.46,0c-.86.03-1.56.69-1.63,1.59h0s0,0,0,0Z"/>
</svg>