<svg width="31" height="20" viewBox="0 0 31 20" fill="none" xmlns="http://www.w3.org/2000/svg">
<g id="Group 3091">
<path id="Vector" d="M15.0621 11.0794C15.3336 9.26499 14.8043 7.56804 14.6841 5.84286C14.6613 5.5104 14.604 5.17975 14.5748 4.8482C14.512 4.13134 13.9472 3.80343 13.2377 3.88268C11.9397 4.02751 11.027 4.76713 10.2527 5.69621C9.67435 6.3912 8.91286 6.51417 8.11859 6.73733C7.072 7.03154 6.30687 6.46316 5.46523 6.1143C5.14552 5.98131 4.97701 6.03141 4.77024 6.27279C4.35398 6.75919 4.09347 7.30389 4.0206 7.94332C3.99145 8.20201 4.0461 8.33864 4.33303 8.36869C4.83765 8.42244 5.33953 8.50806 5.9234 8.59186C5.6055 9.20031 5.33134 9.73317 5.04988 10.2624C4.62359 11.0649 4.21279 11.8773 3.75372 12.6616C3.52873 13.0451 3.49594 13.3429 3.83842 13.6544C3.94409 13.751 4.00876 13.8922 4.14903 14.0953C2.9895 14.1299 2.07043 14.5125 1.45378 15.4388C1.08943 15.9863 0.945513 16.5947 0.98468 17.2551C1.0621 18.5576 1.94565 19.6452 3.27187 19.9003C3.77193 19.9968 4.34669 19.9722 4.82945 19.8201C5.29581 19.6735 5.75853 19.3556 6.09464 18.9939C6.44259 18.6205 6.63569 18.104 6.90258 17.6395C6.89802 17.6386 6.94448 17.6368 6.95359 17.6541C7.26055 18.2434 7.77155 18.2871 8.36999 18.2789C10.4331 18.2489 12.4971 18.2698 14.5611 18.2662C15.3272 18.2643 16.1196 18.4064 16.8001 17.7816C17.2327 18.9165 17.9168 19.6671 19.0572 19.9249C19.7722 20.0861 20.4481 19.9877 21.082 19.6461C21.9045 19.2034 22.4228 18.5085 22.5804 17.5894C22.7353 16.684 22.5185 15.8469 21.9027 15.09C22.2088 14.9032 22.472 14.7429 22.8172 14.5325C22.2115 13.9459 21.6695 13.3794 21.0802 12.8675C20.7341 12.566 20.8197 12.2162 20.8489 11.8664C20.8543 11.8045 21.0547 11.717 21.1667 11.7134C21.6823 11.6961 22.1988 11.7098 22.7143 11.7034C23.3729 11.6961 23.6243 11.4483 23.6297 10.7952C23.6379 9.83519 23.5541 9.94814 24.4878 9.94449C25.231 9.94085 25.9752 9.94814 26.7185 9.94176C26.9425 9.93994 27.2276 10.031 27.2185 9.61931C27.2103 9.20396 26.9116 9.31508 26.6984 9.31417C24.6654 9.30689 22.6314 9.31053 20.5975 9.30871C20.0546 9.30871 20.0245 9.26316 20.1411 8.6292H25.1418C25.2747 7.99888 25.2483 7.96336 24.6936 7.95971C23.8283 7.95425 22.9639 7.94605 22.0986 7.94514C21.8654 7.94514 21.6814 7.93148 21.6841 7.6145C21.6868 7.29843 21.8736 7.28659 22.1049 7.28841C22.5886 7.29296 23.0714 7.29023 23.607 7.29023C23.607 6.63349 23.647 6.01411 23.5915 5.40382C23.5578 5.03583 23.2335 4.83544 22.8682 4.83362C21.0319 4.82178 19.1956 4.81996 17.3593 4.83362C16.8593 4.83727 16.5851 5.18795 16.5833 5.75906C16.5796 7.35217 16.566 8.94618 16.5915 10.5393C16.5987 10.9847 16.463 11.1359 16.0267 11.0913C15.7015 11.0585 15.3709 11.0849 15.0557 11.0849L15.0621 11.0794ZM11.7939 6.50779C11.8522 6.68086 11.9005 6.78834 11.9251 6.90129C12.0945 7.67006 12.2448 8.44247 12.4334 9.20669C12.4999 9.47722 12.4561 9.57104 12.1774 9.64664C11.1117 9.93538 10.0524 10.2487 8.99484 10.5675C8.2789 10.7834 7.99653 11.247 8.11585 11.9794C8.36907 13.5333 8.62867 15.0863 8.8828 16.6403C8.96842 17.1631 8.88827 17.2405 8.36999 17.1167C7.66224 16.9472 7.20863 16.4872 7.11846 15.7822C6.97545 14.6728 6.81605 13.5524 6.837 12.4394C6.8625 11.0967 7.06927 9.75776 7.1977 8.41697C7.2314 8.06447 7.39172 7.8914 7.78065 7.88776C8.20239 7.88411 8.62138 7.77117 9.04403 7.75204C9.63609 7.72471 10.168 7.58171 10.6499 7.21463C10.9833 6.96049 11.364 6.76921 11.7939 6.50688V6.50779ZM11.5471 12.1852C11.5762 12.2626 11.589 12.2781 11.5853 12.29C11.5489 12.4193 11.4851 12.5468 11.4797 12.6771C11.4751 12.8046 11.4851 12.9831 11.5653 13.056C12.3641 13.7847 12.5263 14.6937 12.3732 15.7112C12.192 16.9144 11.8313 17.2278 10.6499 17.1731C10.6344 17.1731 10.6198 17.1713 10.6043 17.1731C10.3611 17.1904 10.2382 17.0839 10.2291 16.8343C10.1808 15.4725 10.1243 14.1108 10.0851 12.749C10.0824 12.6397 10.1689 12.4485 10.2464 12.4293C10.679 12.3246 11.1208 12.2608 11.5462 12.1852H11.5471ZM2.20889 17.0411C2.21981 16.1402 3.00954 15.3569 3.90583 15.3559C4.83765 15.355 5.61917 16.1457 5.60551 17.0757C5.59093 17.9938 4.82672 18.758 3.91767 18.7626C3.00498 18.7671 2.19795 17.9537 2.20889 17.042V17.0411ZM19.7349 18.7599C18.9752 18.7507 18.3431 18.2853 18.088 17.6058C17.9778 17.3107 18.0479 17.1267 18.3312 16.9809C19.0299 16.6211 19.7276 16.2559 20.4071 15.8606C20.6658 15.7103 20.8252 15.7576 20.9855 15.9671C21.4054 16.5155 21.5347 17.1066 21.2305 17.7524C20.9226 18.4064 20.3834 18.7107 19.733 18.7599H19.7349Z" fill="#FFC00B"/>
<path id="Vector_2" d="M10.5898 1.6753C11.1318 1.61519 11.6637 1.55507 12.2075 1.49495C12.5682 2.77472 11.4633 2.99424 10.7984 3.49613C11.0088 4.22755 11.0616 4.24759 11.7293 3.96067C12.4106 3.66828 13.1047 3.40504 13.7778 3.09443C13.9336 3.02248 14.1067 2.81935 14.1276 2.65813C14.1786 2.25644 14.185 1.84017 14.1386 1.43757C14.0311 0.506664 13.3461 -0.0280147 12.3587 0.00113303C11.4187 0.028459 10.6581 0.721628 10.5898 1.67439V1.6753Z" fill="#FFC00B"/>
<path id="Vector_3" d="M27.0579 14.9305C28.0134 14.9305 28.968 14.9305 29.9235 14.9305C30.1393 14.9305 30.347 14.9542 30.357 14.6226C30.368 14.2647 30.1503 14.2847 29.9125 14.2856C27.987 14.2874 26.0614 14.2874 24.1358 14.2874C23.9236 14.2874 23.7077 14.2483 23.7041 14.5871C23.7004 14.9305 23.899 14.9342 24.1467 14.9323C25.1168 14.9269 26.0878 14.9305 27.0579 14.9296V14.9305Z" fill="#FFC00B"/>
<path id="Vector_4" d="M22.9135 12.7161C22.7787 13.187 22.919 13.3345 23.3616 13.3282C24.8136 13.3054 26.2655 13.32 27.7183 13.3191C27.9442 13.3191 28.1819 13.36 28.1874 13.0003C28.1929 12.6286 27.9433 12.6869 27.7229 12.6869C26.2409 12.6851 24.758 12.6851 23.276 12.6869C23.1576 12.6869 23.0401 12.706 22.9144 12.7161H22.9135Z" fill="#FFC00B"/>
</g>
</svg>
