<svg xmlns="http://www.w3.org/2000/svg" width="21" height="19"
                                                     viewBox="0 0 21 19" fill="none">
                                                    <path
                                                        d="M20.3029 8.5703C19.479 6.83452 18.4985 5.4189 17.3615 4.32343L16.169 5.51593C17.1414 6.44523 17.9885 7.66093 18.7209 9.17499C16.7709 13.2109 14.0029 15.1281 10.2201 15.1281C9.08464 15.1281 8.03878 14.9533 7.08253 14.6036L5.79042 15.8957C7.11854 16.509 8.59511 16.8156 10.2201 16.8156C14.7248 16.8156 18.0857 14.4695 20.3029 9.77734C20.3921 9.58863 20.4383 9.38252 20.4383 9.17382C20.4383 8.96512 20.3921 8.75901 20.3029 8.5703ZM18.813 1.0553L17.8139 0.0549912C17.7964 0.0375581 17.7758 0.0237284 17.753 0.0142926C17.7302 0.00485679 17.7058 0 17.6812 0C17.6566 0 17.6322 0.00485679 17.6094 0.0142926C17.5866 0.0237284 17.566 0.0375581 17.5485 0.0549912L14.9852 2.61718C13.5719 1.8953 11.9835 1.53437 10.2201 1.53437C5.71542 1.53437 2.35448 3.88046 0.137294 8.57265C0.0481734 8.76136 0.00195313 8.96747 0.00195312 9.17616C0.00195312 9.38486 0.0481734 9.59097 0.137294 9.77968C1.02307 11.6453 2.08948 13.1407 3.33651 14.2659L0.856356 16.7453C0.82122 16.7805 0.801482 16.8281 0.801482 16.8778C0.801482 16.9276 0.82122 16.9752 0.856356 17.0104L1.8569 18.0109C1.89206 18.0461 1.93974 18.0658 1.98944 18.0658C2.03915 18.0658 2.08682 18.0461 2.12198 18.0109L18.813 1.32062C18.8304 1.3032 18.8443 1.28252 18.8537 1.25976C18.8631 1.237 18.868 1.2126 18.868 1.18796C18.868 1.16332 18.8631 1.13892 18.8537 1.11616C18.8443 1.0934 18.8304 1.07272 18.813 1.0553ZM1.71932 9.17499C3.67167 5.13905 6.43964 3.22187 10.2201 3.22187C11.4984 3.22187 12.6607 3.44124 13.7151 3.88726L12.0675 5.53491C11.2871 5.11858 10.3937 4.96406 9.51887 5.09416C8.64406 5.22426 7.83422 5.63208 7.20884 6.25747C6.58345 6.88286 6.17563 7.69269 6.04553 8.5675C5.91543 9.44231 6.06994 10.3358 6.48628 11.1161L4.53112 13.0712C3.44901 12.1162 2.5162 10.8222 1.71932 9.17499ZM7.50136 9.17499C7.50177 8.76171 7.59966 8.35434 7.78708 7.986C7.97451 7.61765 8.24618 7.29872 8.58002 7.05509C8.91387 6.81147 9.30047 6.65003 9.70843 6.58389C10.1164 6.51775 10.5342 6.54877 10.9279 6.67444L7.62581 9.97655C7.54304 9.71743 7.50106 9.44701 7.50136 9.17499Z"
                                                        fill="#BABABA"/>
                                                    <path
                                                        d="M10.1286 11.8024C10.0475 11.8024 9.96758 11.7987 9.88836 11.7914L8.65039 13.0294C9.39498 13.3145 10.2062 13.3779 10.9861 13.2118C11.7659 13.0457 12.4809 12.6573 13.0447 12.0935C13.6085 11.5297 13.9969 10.8147 14.163 10.0349C14.3291 9.25505 14.2657 8.44381 13.9805 7.69922L12.7426 8.93719C12.7498 9.01641 12.7536 9.09633 12.7536 9.17742C12.7538 9.52219 12.686 9.86362 12.5542 10.1822C12.4223 10.5007 12.229 10.7902 11.9852 11.034C11.7414 11.2778 11.4519 11.4711 11.1334 11.603C10.8148 11.7348 10.4734 11.8026 10.1286 11.8024Z"
                                                        fill="#BABABA"/>
                                                </svg>