<svg width="15" height="20" viewBox="0 0 15 20" fill="none" xmlns="http://www.w3.org/2000/svg">
<path d="M2.6793 8.30389C2.6793 7.58531 2.66391 6.88221 2.68526 6.18059C2.69244 5.75855 2.73848 5.33808 2.82278 4.92457C3.26268 2.91555 4.86287 1.41052 6.88656 1.07169C9.3854 0.652519 11.7596 2.10615 12.5302 4.52536C12.6912 5.04875 12.7716 5.59383 12.7685 6.14167C12.772 6.79039 12.7685 7.43611 12.7685 8.08333V8.2999C12.8822 8.31387 12.986 8.31936 13.0862 8.34032C13.9089 8.50999 14.4397 9.15771 14.4442 10.0125C14.4501 11.2136 14.4442 12.4148 14.4442 13.6164C14.4442 14.8425 14.4481 16.0685 14.4442 17.2946C14.4407 18.093 13.972 18.7268 13.2332 18.9334C13.0845 18.975 12.9308 18.9965 12.7764 18.9973C9.40758 19.0009 6.03889 19.0009 2.67036 18.9973C1.72008 18.9973 1.00662 18.2672 1.00265 17.2926C0.996689 15.7372 1.00265 14.1813 1.00265 12.6254C1.00265 11.7476 0.996689 10.8698 1.00265 9.99256C1.0101 9.15222 1.54581 8.50649 2.36005 8.33833C2.45737 8.32186 2.55617 8.31787 2.6793 8.30389ZM7.72216 17.875C9.35065 17.875 10.9791 17.875 12.6076 17.875C12.6941 17.8763 12.7806 17.8707 12.8663 17.8585C13.1314 17.8146 13.2829 17.6489 13.3062 17.3834C13.3126 17.3091 13.3141 17.2337 13.3141 17.1594C13.3141 14.8253 13.3141 12.4916 13.3141 10.1582C13.3162 10.0649 13.3117 9.9715 13.3007 9.87878C13.2918 9.78813 13.2563 9.7022 13.1986 9.63191C13.141 9.56162 13.0639 9.51015 12.977 9.48406C12.8704 9.45315 12.7597 9.43884 12.6488 9.44164C9.36703 9.43965 6.08523 9.43965 2.80342 9.44164C2.74148 9.43955 2.67947 9.44122 2.61773 9.44663C2.32828 9.48306 2.16295 9.65822 2.14061 9.95014C2.13564 10.0185 2.13465 10.0869 2.13465 10.1552C2.13465 12.4893 2.13465 14.8232 2.13465 17.1569C2.13323 17.2502 2.13754 17.3435 2.14756 17.4363C2.15933 17.5359 2.20196 17.6292 2.26941 17.7031C2.33686 17.777 2.42571 17.8277 2.5234 17.848C2.62661 17.8681 2.73158 17.8774 2.83669 17.876C4.46518 17.876 6.09367 17.8756 7.72216 17.875ZM11.6226 8.3014C11.6271 8.24202 11.6335 8.19361 11.6335 8.14521C11.6335 7.42314 11.641 6.69807 11.6281 5.97899C11.625 5.70562 11.5934 5.43332 11.5337 5.1666C11.0521 3.11365 9.15503 1.85315 7.0653 2.18748C5.22828 2.4814 3.84357 4.07825 3.81775 5.94755C3.80782 6.6821 3.81477 7.41665 3.81477 8.1512C3.81477 8.2011 3.82321 8.24701 3.82818 8.3009L11.6226 8.3014Z" fill="#151515" stroke="#151515" stroke-width="0.5"/>
<path d="M7.16701 15.0838C7.16552 15.0589 7.16552 15.0339 7.16701 15.009C7.20524 14.6392 7.14864 14.3807 6.75194 14.1607C6.07622 13.7854 5.86819 12.8792 6.17651 12.1362C6.47043 11.4276 7.24148 11.0129 8.00807 11.1516C8.75727 11.2868 9.29547 11.8353 9.39079 12.5603C9.49357 13.3428 9.1207 14.0229 8.40476 14.3433C8.3646 14.3556 8.33012 14.3819 8.30755 14.4175C8.28498 14.4531 8.27578 14.4956 8.28163 14.5374C8.28759 14.8917 8.2861 15.2465 8.28163 15.6008C8.27865 15.9721 8.0592 16.1996 7.71712 16.1966C7.37504 16.1936 7.17098 15.9681 7.16602 15.6063C7.16502 15.4322 7.16701 15.2565 7.16701 15.0838ZM7.71911 13.3692C8.05424 13.3692 8.28213 13.1477 8.28312 12.8168C8.28411 12.486 8.05126 12.2549 7.72159 12.2574C7.39192 12.2599 7.17545 12.4795 7.16751 12.8063C7.15956 13.1332 7.38745 13.3672 7.71911 13.3692Z" fill="#828282" stroke="#828282" stroke-width="0.5"/>
</svg>
