<svg width="15" height="19" viewBox="0 0 15 19" fill="none" xmlns="http://www.w3.org/2000/svg">
<mask id="mask0_330_146" style="mask-type:luminance" maskUnits="userSpaceOnUse" x="0" y="0" width="15" height="19">
<path d="M14.9101 0H0V19H14.9101V0Z" fill="white"/>
</mask>
<g mask="url(#mask0_330_146)">
<path d="M14.9095 18.9986H2.50195V5.89844H14.9095V18.9986ZM5.36669 12.9125C4.97363 13.3491 4.82941 13.8119 5.06952 14.3492C5.08933 14.3936 5.09646 14.4491 5.09171 14.4982C5.04733 14.9475 4.96175 15.3961 4.96016 15.8446C4.95778 16.4461 5.39364 16.8811 5.97847 16.8843C7.79954 16.8946 9.61982 16.8898 11.4409 16.8859C11.8308 16.8859 12.143 16.7012 12.3047 16.3565C12.567 15.7978 12.4877 15.2035 12.3918 14.6179C12.3784 14.5347 12.3047 14.4348 12.3308 14.3754C12.5765 13.8238 12.4275 13.3507 12.0495 12.9117C12.4204 12.4822 12.5773 12.0202 12.338 11.4829C12.3181 11.4377 12.3078 11.3815 12.3134 11.3331C12.3586 10.9234 12.46 10.5129 12.4465 10.1056C12.4061 8.88205 11.4916 8.01193 10.2744 8.00321C9.23231 7.99608 8.18943 7.99687 7.14735 8.00321C6.02443 8.00955 5.16699 8.71405 4.99027 9.81398C4.92609 10.2134 4.95144 10.6294 4.95778 11.0367C4.96016 11.1921 5.0925 11.3712 5.04654 11.4964C4.85159 12.0321 4.9776 12.4782 5.3659 12.9117L5.36669 12.9125Z" fill="black"/>
<path d="M1.40234 3.24071C1.59412 3.24071 1.72329 3.24071 1.85325 3.24071C5.36385 3.24071 8.87444 3.24387 12.385 3.23438C12.664 3.23438 12.8478 3.32075 13.023 3.52917C13.5111 4.11004 14.0199 4.67427 14.5825 5.31617H14.115C10.3143 5.31617 6.51291 5.31219 2.71228 5.32329C2.40718 5.32408 2.24156 5.25434 2.12982 4.95083C1.9214 4.38739 1.66227 3.84219 1.40234 3.24071Z" fill="black"/>
<path d="M0.0307159 5.89923H1.90409V18.657C1.61643 18.4034 1.39137 18.1483 1.11559 17.9716C0.217736 17.397 -0.0263412 16.6188 0.00218735 15.553C0.0838106 12.5075 0.0307159 9.45816 0.0307159 6.40957C0.0307159 6.25187 0.0307159 6.09576 0.0307159 5.89923Z" fill="black"/>
<path d="M10.0871 2.67208C10.0871 2.37253 10.0927 2.11022 10.0863 1.84792C10.0705 1.24723 9.71702 0.881119 9.12268 0.877949C7.65742 0.870817 6.19296 0.870817 4.7277 0.877949C4.13336 0.881119 3.77834 1.24803 3.76487 1.84713C3.75853 2.10943 3.76407 2.37173 3.76407 2.66098H1.22266C1.25118 2.09437 1.23058 1.52697 1.32013 0.977006C1.41126 0.419908 1.97549 0.00782907 2.56746 0.00624415C5.47103 -0.00168044 8.3746 -0.0024729 11.2782 0.00624415C11.9399 0.00862153 12.4883 0.476172 12.558 1.12837C12.6119 1.63158 12.5691 2.14588 12.5691 2.67208H10.0871Z" fill="black"/>
<path d="M0.199219 5.30083C0.45756 4.74135 0.692128 4.23339 0.965527 3.64062C1.2207 4.22864 1.44576 4.74769 1.68508 5.30083H0.199219Z" fill="black"/>
<path d="M5.47656 10.7597C5.51064 10.3865 5.5043 10.0528 5.5772 9.73743C5.7357 9.05275 6.334 8.5741 7.03691 8.56539C8.14477 8.55112 9.25342 8.55112 10.3613 8.56539C11.0943 8.5749 11.7069 9.08841 11.8456 9.80638C11.9042 10.1099 11.8955 10.4253 11.9193 10.7605L5.47656 10.7597ZM7.2168 10.14C7.07495 10.0275 6.98144 9.89909 6.91171 9.91019C6.81423 9.92604 6.73419 10.0473 6.64702 10.1234C6.71993 10.205 6.79125 10.3508 6.86495 10.3524C6.96163 10.354 7.05989 10.2414 7.2168 10.14ZM9.03391 9.20965C8.87621 9.10267 8.77953 8.98777 8.68444 8.98935C8.60836 8.99014 8.53466 9.13358 8.46017 9.21362C8.54655 9.29128 8.62421 9.41173 8.72327 9.43234C8.79063 9.4466 8.8873 9.3206 9.03391 9.20965ZM10.2543 9.22867C10.0982 9.11297 10.0078 8.99965 9.9072 8.98935C9.84143 8.98222 9.69007 9.14309 9.70275 9.19935C9.72414 9.29366 9.83667 9.40935 9.93018 9.43075C10.0007 9.4466 10.1021 9.32932 10.2543 9.22867ZM8.0679 10.4744C8.19628 10.3112 8.31277 10.2248 8.32625 10.1242C8.33496 10.0584 8.19945 9.9197 8.11862 9.91177C8.04175 9.90464 7.89039 10.0195 7.88485 10.0901C7.87692 10.1875 7.97519 10.2945 8.0679 10.4744ZM7.827 9.23898C7.67167 9.11694 7.5845 8.99569 7.4902 8.99014C7.41492 8.98618 7.33171 9.12248 7.25167 9.19618C7.33171 9.27939 7.39907 9.4046 7.49496 9.43234C7.56152 9.45135 7.66772 9.33724 7.827 9.23898ZM8.97368 10.1424C9.1401 10.2462 9.23995 10.3548 9.33822 10.354C9.40795 10.354 9.54663 10.1812 9.52841 10.1257C9.49908 10.033 9.37546 9.92842 9.27878 9.91257C9.20904 9.90147 9.11791 10.0275 8.97368 10.1424ZM10.5158 9.81034C10.4072 9.94743 10.2749 10.0481 10.2915 10.1083C10.3193 10.2089 10.4413 10.2834 10.5237 10.369C10.5998 10.2811 10.7179 10.201 10.7377 10.102C10.7504 10.0362 10.6228 9.94347 10.5158 9.81034Z" fill="black"/>
<path d="M5.50586 15.0703H11.8487C11.8709 15.1115 11.8923 15.1337 11.8939 15.1567C11.9565 16.3208 11.8257 16.3525 10.8027 16.3398C9.31204 16.3208 7.82063 16.3351 6.33002 16.3351C5.61443 16.3351 5.50586 16.2265 5.50586 15.5157C5.50586 15.3841 5.50586 15.2518 5.50586 15.0703Z" fill="black"/>
<path d="M8.66968 14.5C7.89069 14.5 7.11171 14.5024 6.33272 14.5C5.83109 14.4984 5.50935 14.2369 5.51173 13.843C5.51411 13.4547 5.81762 13.2447 6.29944 13.1869C7.06733 13.0942 7.69654 13.2725 8.14824 13.9342C8.21402 14.0309 8.31862 14.0998 8.39708 14.1886C8.59598 14.412 8.79172 14.4231 9.00014 14.2004C9.12614 14.0649 9.28938 13.9564 9.38686 13.805C9.87026 13.0522 10.6112 13.1568 11.3292 13.2162C11.6739 13.2447 11.9069 13.5498 11.8926 13.8716C11.8768 14.221 11.5978 14.4929 11.2048 14.4984C10.36 14.5095 9.51444 14.5016 8.66968 14.5024V14.5Z" fill="black"/>
<path d="M8.68037 12.628C7.85067 12.628 7.02017 12.6312 6.19046 12.6264C5.86635 12.6248 5.58344 12.4742 5.55808 12.1517C5.54065 11.9282 5.68487 11.6778 5.80691 11.4686C5.83703 11.4171 6.10567 11.4266 6.18888 11.4971C6.47971 11.7428 6.74598 12.0202 7.00432 12.3015C7.227 12.544 7.44968 12.6066 7.65097 12.3118C8.25323 11.433 9.09007 11.1865 10.1044 11.3252C10.4539 11.3727 10.8153 11.3276 11.1703 11.3347C11.5887 11.3434 11.8795 11.6018 11.893 11.9639C11.9073 12.3443 11.622 12.6216 11.1703 12.6272C10.3406 12.6375 9.51007 12.6304 8.68037 12.6304C8.68037 12.6304 8.68037 12.6288 8.68037 12.628Z" fill="black"/>
<path d="M9.12832 13.2266C8.96983 13.3946 8.83908 13.534 8.68138 13.702C8.5427 13.5562 8.41115 13.4175 8.23047 13.2266H9.12832Z" fill="black"/>
<path d="M7.82644 11.375C7.6307 11.547 7.48647 11.6738 7.30342 11.8346C7.18613 11.6928 7.06409 11.5446 6.92383 11.375H7.82644Z" fill="black"/>
</g>
</svg>
