<svg width="16" height="20" viewBox="0 0 16 20" fill="none" xmlns="http://www.w3.org/2000/svg">
<g clip-path="url(#clip0_1772_4562)">
<mask id="mask0_1772_4562" style="mask-type:luminance" maskUnits="userSpaceOnUse" x="0" y="0" width="16" height="20">
<path d="M15.6949 0H0V20H15.6949V0Z" fill="white"/>
</mask>
<g mask="url(#mask0_1772_4562)">
<path d="M15.6953 20.0006H2.63477V6.21094H15.6953V20.0006ZM5.65028 13.5942C5.23653 14.0538 5.08472 14.5409 5.33747 15.1065C5.35832 15.1532 5.36583 15.2116 5.36083 15.2633C5.31411 15.7363 5.22402 16.2084 5.22235 16.6806C5.21985 17.3137 5.67864 17.7717 6.29426 17.775C8.21117 17.7858 10.1273 17.7808 12.0442 17.7767C12.4546 17.7767 12.7832 17.5823 12.9534 17.2194C13.2295 16.6314 13.1461 16.0057 13.0452 15.3893C13.031 15.3017 12.9534 15.1966 12.9809 15.134C13.2395 14.5534 13.0827 14.0554 12.6848 13.5933C13.0752 13.1412 13.2404 12.6549 12.9885 12.0893C12.9676 12.0418 12.9568 11.9825 12.9626 11.9317C13.0101 11.5004 13.1169 11.0683 13.1027 10.6395C13.0602 9.35158 12.0976 8.43566 10.8163 8.42649C9.71935 8.41898 8.62159 8.41981 7.52466 8.42649C6.34264 8.43316 5.44007 9.17474 5.25405 10.3326C5.18648 10.753 5.21318 11.1909 5.21985 11.6197C5.22235 11.7832 5.36166 11.9717 5.31328 12.1035C5.10807 12.6674 5.24071 13.137 5.64945 13.5933L5.65028 13.5942Z" fill="#191919"/>
<path d="M1.47656 3.41292C1.67843 3.41292 1.8144 3.41292 1.9512 3.41292C5.64657 3.41292 9.34193 3.41626 13.0373 3.40625C13.3309 3.40625 13.5244 3.49717 13.7088 3.71656C14.2226 4.32801 14.7582 4.92193 15.3504 5.59761H14.8583C10.8576 5.59761 6.85611 5.59344 2.85544 5.60512C2.53429 5.60595 2.35995 5.53254 2.24233 5.21306C2.02294 4.61996 1.75017 4.04606 1.47656 3.41292Z" fill="#191919"/>
<path d="M0.0323325 6.20786H2.0043V19.6371C1.7015 19.3702 1.4646 19.1016 1.17431 18.9156C0.229196 18.3108 -0.0277276 17.4916 0.00230247 16.3697C0.0882217 13.164 0.0323325 9.95411 0.0323325 6.74507C0.0323325 6.57907 0.0323325 6.41473 0.0323325 6.20786Z" fill="#191919"/>
<path d="M10.6181 2.81271C10.6181 2.4974 10.6239 2.22129 10.6173 1.94518C10.6006 1.31288 10.2286 0.927494 9.60293 0.924157C8.06055 0.91665 6.51901 0.91665 4.97663 0.924157C4.35101 0.927494 3.9773 1.31371 3.96312 1.94434C3.95645 2.22045 3.96228 2.49656 3.96228 2.80103H1.28711C1.31714 2.2046 1.29545 1.60734 1.38971 1.02843C1.48564 0.442008 2.07957 0.00824112 2.70269 0.00657279C5.75908 -0.00176889 8.81547 -0.00260305 11.8719 0.00657279C12.5684 0.00907529 13.1456 0.501234 13.219 1.18775C13.2758 1.71745 13.2307 2.25883 13.2307 2.81271H10.6181Z" fill="#191919"/>
<path d="M0.210938 5.57961C0.482875 4.99069 0.72979 4.45599 1.01758 3.83203C1.28618 4.45098 1.52308 4.99736 1.775 5.57961H0.210938Z" fill="#191919"/>
<path d="M5.76562 11.325C5.8015 10.9321 5.79482 10.5809 5.87156 10.2489C6.0384 9.52818 6.66819 9.02434 7.4081 9.01517C8.57427 9.00015 9.74127 9.00015 10.9074 9.01517C11.679 9.02518 12.3238 9.56572 12.4698 10.3215C12.5316 10.641 12.5224 10.973 12.5474 11.3258L5.76562 11.325ZM7.59746 10.6727C7.44814 10.5542 7.34971 10.4191 7.2763 10.4307C7.1737 10.4474 7.08945 10.5751 6.99769 10.6551C7.07443 10.7411 7.14951 10.8945 7.22709 10.8962C7.32885 10.8979 7.4323 10.7794 7.59746 10.6727ZM9.5102 9.69335C9.3442 9.58073 9.24243 9.45978 9.14233 9.46145C9.06225 9.46228 8.98468 9.61327 8.90627 9.69752C8.99719 9.77926 9.07895 9.90606 9.18322 9.92775C9.25412 9.94276 9.35588 9.81013 9.5102 9.69335ZM10.7948 9.71337C10.6305 9.59158 10.5354 9.47229 10.4295 9.46145C10.3602 9.45394 10.2009 9.62328 10.2142 9.6825C10.2368 9.78177 10.3552 9.90356 10.4536 9.92608C10.5279 9.94276 10.6347 9.8193 10.7948 9.71337ZM8.49335 11.0247C8.62849 10.8528 8.75112 10.7619 8.7653 10.656C8.77448 10.5867 8.63182 10.4408 8.54674 10.4324C8.46583 10.4249 8.3065 10.5459 8.30066 10.6201C8.29232 10.7227 8.39576 10.8354 8.49335 11.0247ZM8.23977 9.72421C8.07627 9.59575 7.98451 9.46812 7.88524 9.46228C7.806 9.45811 7.71841 9.60159 7.63416 9.67916C7.71841 9.76675 7.78932 9.89855 7.89025 9.92775C7.96032 9.94777 8.0721 9.82765 8.23977 9.72421ZM9.44681 10.6752C9.62198 10.7844 9.72709 10.8987 9.83052 10.8979C9.90393 10.8979 10.0499 10.716 10.0307 10.6576C9.99986 10.56 9.86973 10.4499 9.76796 10.4333C9.69455 10.4216 9.59862 10.5542 9.44681 10.6752ZM11.0701 10.3256C10.9558 10.47 10.8165 10.5759 10.834 10.6393C10.8632 10.7452 10.9917 10.8236 11.0784 10.9137C11.1585 10.8211 11.2828 10.7369 11.3037 10.6326C11.317 10.5634 11.1827 10.4658 11.0701 10.3256Z" fill="#191919"/>
<path d="M5.79492 15.8672H12.4716C12.495 15.9106 12.5175 15.9339 12.5191 15.9581C12.585 17.1835 12.4474 17.2169 11.3705 17.2035C9.80143 17.1835 8.23152 17.1985 6.66246 17.1985C5.9092 17.1985 5.79492 17.0842 5.79492 16.336C5.79492 16.1975 5.79492 16.0582 5.79492 15.8672Z" fill="#191919"/>
<path d="M9.12495 15.2578C8.30497 15.2578 7.48498 15.2603 6.66499 15.2578C6.13696 15.2561 5.79829 14.9809 5.8008 14.5663C5.8033 14.1575 6.12278 13.9365 6.62996 13.8756C7.43827 13.778 8.10059 13.9657 8.57607 14.6622C8.64531 14.764 8.75542 14.8365 8.838 14.93C9.04737 15.1652 9.25341 15.1769 9.4728 14.9425C9.60543 14.7998 9.77727 14.6856 9.87987 14.5262C10.3887 13.7338 11.1687 13.8439 11.9244 13.9064C12.2873 13.9365 12.5325 14.2576 12.5175 14.5963C12.5008 14.9642 12.2072 15.2503 11.7935 15.2561C10.9042 15.2678 10.0142 15.2595 9.12495 15.2603V15.2578Z" fill="#191919"/>
<path d="M9.13579 13.2961C8.26242 13.2961 7.38821 13.2994 6.51484 13.2944C6.17366 13.2928 5.87587 13.1343 5.84917 12.7948C5.83082 12.5595 5.98264 12.2959 6.1111 12.0757C6.1428 12.0215 6.42558 12.0315 6.51317 12.1058C6.81931 12.3643 7.09959 12.6563 7.37153 12.9524C7.60593 13.2077 7.84033 13.2736 8.05221 12.9633C8.68618 12.0382 9.56706 11.7788 10.6348 11.9247C11.0027 11.9748 11.383 11.9272 11.7567 11.9348C12.1972 11.9439 12.5033 12.2159 12.5175 12.5971C12.5325 12.9975 12.2322 13.2894 11.7567 13.2953C10.8834 13.3061 10.0092 13.2986 9.13579 13.2986C9.13579 13.2986 9.13579 13.297 9.13579 13.2961Z" fill="#191919"/>
<path d="M9.60917 13.9219C9.44234 14.0987 9.3047 14.2455 9.1387 14.4224C8.99272 14.2689 8.85425 14.1229 8.66406 13.9219H9.60917Z" fill="#191919"/>
<path d="M8.23918 11.9727C8.03314 12.1537 7.88132 12.2871 7.68863 12.4565C7.56517 12.3072 7.43671 12.1512 7.28906 11.9727H8.23918Z" fill="#191919"/>
</g>
</g>
<defs>
<clipPath id="clip0_1772_4562">
<rect width="16" height="20" fill="white"/>
</clipPath>
</defs>
</svg>
