<svg xmlns="http://www.w3.org/2000/svg" width="29" height="29" viewBox="0 0 29 29" fill="none">
                                  <mask id="path-1-outside-1_2947_2673" maskUnits="userSpaceOnUse" x="0" y="2.20703" width="29" height="27" fill="black">
                                    <rect fill="white" y="2.20703" width="29" height="27" />
                                    <path d="M25.7566 12.4497V24.5295C26.0952 24.5295 26.4202 24.52 26.7452 24.5316C27.4834 24.5569 27.9136 24.9893 27.9336 25.7222C27.942 26.0206 27.9357 26.3201 27.9346 26.6185C27.9315 27.6151 27.556 27.9989 26.5759 27.9989C21.3354 27.9989 16.095 27.9989 10.8545 27.9989C8.01501 27.9989 5.17552 27.9989 2.33602 27.9989C1.42318 27.9989 1.02144 27.5971 1.01513 26.6871C1.01408 26.4941 1.01513 26.3 1.01513 26.1071C1.01513 24.9144 1.26227 24.6349 2.50324 24.4841V23.979C2.50324 20.2185 2.49903 16.457 2.5106 12.6965C2.5106 12.3632 2.42121 12.1639 2.13515 11.9752C1.39688 11.4859 1.06982 10.7561 1.01092 9.87874C0.956236 9.06991 1.10452 8.33595 1.50941 7.61569C2.08362 6.59279 2.58106 5.52559 3.09743 4.47105C3.5202 3.60844 4.19221 3.18768 5.15343 3.20771C5.85384 3.22248 6.5553 3.21404 7.25676 3.20982C7.5344 3.20771 7.75841 3.2731 7.75946 3.60106C7.75946 3.94167 7.51337 3.98175 7.24835 3.98175C6.56477 3.98175 5.88119 3.98702 5.1976 3.98175C4.53611 3.97647 4.06917 4.25382 3.7747 4.86229C3.23519 5.9801 2.6715 7.08526 2.08783 8.25791H26.823C26.7662 8.11238 26.7231 7.97318 26.6589 7.84348C26.1752 6.87119 25.6662 5.9105 25.2066 4.92662C24.89 4.25066 24.3915 3.96171 23.6648 3.97964C23.017 3.99546 22.366 4.00917 21.7203 3.96593C21.5363 3.95327 21.2429 3.76662 21.2113 3.61582C21.1377 3.2636 21.4332 3.20771 21.7245 3.20982C22.4786 3.21404 23.2316 3.20561 23.9856 3.21404C24.7481 3.22353 25.3591 3.55571 25.7114 4.22535C26.4454 5.62156 27.3036 6.98613 27.7937 8.46776C28.2995 9.99685 27.9493 11.856 25.7556 12.4487L25.7566 12.4497ZM5.02092 24.4947H15.933V22.4067C15.7048 22.4067 15.5144 22.4067 15.3251 22.4067C13.3449 22.4067 11.3646 22.4067 9.38428 22.4067C9.24441 22.4067 9.0772 22.4436 8.97203 22.3814C8.84162 22.3044 8.68387 22.142 8.68282 22.0154C8.68177 21.89 8.83636 21.7117 8.96677 21.6506C9.114 21.582 9.30961 21.6105 9.48419 21.6105C11.4298 21.6084 13.3743 21.6095 15.3199 21.6095C15.5229 21.6095 15.7248 21.6095 15.9425 21.6095V14.2097H13.3701C13.2534 15.0892 13.2597 15.123 13.6814 15.7557C13.9443 16.1501 14.2177 16.5371 14.4659 16.9389C14.7846 17.4535 14.57 17.9175 13.9822 17.9439C13.2828 17.9744 12.5792 17.9744 11.8799 17.9439C11.2783 17.9175 11.0617 17.4683 11.3814 16.9537C11.6506 16.5223 11.9188 16.0868 12.2322 15.6882C12.595 15.2263 12.594 14.7349 12.4899 14.2118H8.48826C8.38204 14.815 8.42937 15.3402 8.82374 15.8179C9.10138 16.1543 9.32434 16.5371 9.55991 16.9062C9.92273 17.4757 9.70609 17.9228 9.03828 17.946C8.37363 17.9692 7.70582 17.9692 7.04117 17.946C6.38598 17.9238 6.17039 17.463 6.53217 16.8957C6.79613 16.4823 7.04853 16.0562 7.35352 15.6745C7.7237 15.2105 7.67007 14.717 7.5954 14.2055H5.0367V21.6084C5.70451 21.6084 6.33445 21.6052 6.9644 21.6095C7.25676 21.6116 7.56806 21.6316 7.54807 22.0334C7.5302 22.3919 7.2473 22.4077 6.96861 22.4067C6.32604 22.4035 5.68347 22.4056 5.01987 22.4056V24.4936L5.02092 24.4947ZM4.1838 24.5105C4.1838 24.2479 4.1838 24.0402 4.1838 23.8324C4.1838 20.7047 4.1838 17.5769 4.1838 14.4502C4.1838 13.6044 4.39203 13.3935 5.23862 13.3925C8.72594 13.3904 12.2133 13.3904 15.6995 13.3925C16.5913 13.3925 16.7817 13.5844 16.7817 14.4692C16.7817 17.6317 16.7817 20.7943 16.7817 23.9569C16.7817 24.1403 16.7817 24.3249 16.7817 24.4989H17.7387C17.7387 24.2827 17.7387 24.0929 17.7387 23.9041C17.7387 20.7416 17.7387 17.579 17.7387 14.4164C17.7387 13.5981 17.9396 13.3946 18.7651 13.3925C20.1323 13.3883 21.4984 13.3893 22.8656 13.3925C23.7406 13.3946 23.9278 13.5907 23.9288 14.4924C23.9288 17.637 23.9288 20.7827 23.9288 23.9273V24.4978H24.9395V12.5921C24.2685 12.1513 23.6964 11.7748 23.0938 11.3783C22.6163 12.0342 21.9023 12.4423 21.0052 12.4455C20.0965 12.4487 19.3793 12.0184 18.8177 11.2686C18.2498 12.0595 17.5231 12.4434 16.6292 12.4444C15.7342 12.4444 15.0307 12.0152 14.4712 11.2665C13.9043 12.0268 13.1966 12.4444 12.2995 12.4465C11.3888 12.4487 10.6747 12.0131 10.1247 11.3003C8.69965 12.8304 7.39453 12.8304 5.73711 11.3129C5.15133 12.1228 4.32893 12.4729 3.34983 12.4592V24.5084H4.18169L4.1838 24.5105ZM14.4123 27.208C18.2835 27.208 22.1536 27.208 26.0248 27.208C27.2805 27.208 27.1175 27.2934 27.1259 26.1092C27.1311 25.3446 27.1259 25.3446 26.3329 25.3446C18.539 25.3446 10.7441 25.3425 2.95019 25.3467C1.69135 25.3467 1.83017 25.1706 1.82386 26.4582C1.81965 27.2048 1.82386 27.207 2.58947 27.207C6.53006 27.207 10.4717 27.207 14.4123 27.207V27.208ZM18.5727 24.4926H23.0801V14.2256H18.5727V24.4926ZM10.538 9.14478C10.4317 10.058 10.5432 10.8668 11.3677 11.3846C12.004 11.7843 12.6665 11.7621 13.2944 11.3424C14.0999 10.8046 14.1315 10.0042 14.0358 9.14478H10.538ZM18.417 9.14478H14.9139C14.8151 10.0285 14.8624 10.8289 15.6785 11.3572C16.2948 11.7569 16.9394 11.7759 17.561 11.3983C18.396 10.89 18.5148 10.0791 18.416 9.14478H18.417ZM6.19879 9.1258C6.07995 10.0707 6.19248 10.8837 7.04748 11.4089C7.6606 11.7853 8.44304 11.7316 9.0141 11.295C9.6493 10.8099 9.89224 9.98841 9.6493 9.1258H6.19879ZM19.25 9.11525C19.1322 10.058 19.251 10.8616 20.0692 11.3825C20.6813 11.7716 21.3323 11.7674 21.9475 11.3772C22.7741 10.8531 22.8656 10.0464 22.7562 9.14689C22.6773 9.13529 22.6111 9.11736 22.5459 9.11736C21.4637 9.11525 20.3815 9.11631 19.25 9.11631V9.11525ZM1.85751 9.13318C1.74814 10.0854 1.83858 10.9111 2.72093 11.4226C3.34562 11.7843 4.13437 11.7242 4.6886 11.2771C5.3869 10.7139 5.44264 9.96205 5.33116 9.13318H1.85646H1.85751ZM27.0954 9.15638H23.607C23.5071 10.0823 23.607 10.8985 24.4546 11.4026C25.0793 11.7737 25.7251 11.7548 26.3361 11.354C27.1427 10.8247 27.1953 10.0243 27.0954 9.15638ZM13.6299 17.1139C13.3817 16.7364 13.1755 16.4222 12.9294 16.0478C12.6918 16.4116 12.4793 16.7354 12.2311 17.1139H13.6299ZM7.34195 17.1055H8.74487C8.49037 16.7269 8.27898 16.4116 8.04025 16.0562C7.7847 16.4401 7.58383 16.7417 7.34195 17.1055Z" />
                                  </mask>
                                  <path d="M25.7566 12.4497V24.5295C26.0952 24.5295 26.4202 24.52 26.7452 24.5316C27.4834 24.5569 27.9136 24.9893 27.9336 25.7222C27.942 26.0206 27.9357 26.3201 27.9346 26.6185C27.9315 27.6151 27.556 27.9989 26.5759 27.9989C21.3354 27.9989 16.095 27.9989 10.8545 27.9989C8.01501 27.9989 5.17552 27.9989 2.33602 27.9989C1.42318 27.9989 1.02144 27.5971 1.01513 26.6871C1.01408 26.4941 1.01513 26.3 1.01513 26.1071C1.01513 24.9144 1.26227 24.6349 2.50324 24.4841V23.979C2.50324 20.2185 2.49903 16.457 2.5106 12.6965C2.5106 12.3632 2.42121 12.1639 2.13515 11.9752C1.39688 11.4859 1.06982 10.7561 1.01092 9.87874C0.956236 9.06991 1.10452 8.33595 1.50941 7.61569C2.08362 6.59279 2.58106 5.52559 3.09743 4.47105C3.5202 3.60844 4.19221 3.18768 5.15343 3.20771C5.85384 3.22248 6.5553 3.21404 7.25676 3.20982C7.5344 3.20771 7.75841 3.2731 7.75946 3.60106C7.75946 3.94167 7.51337 3.98175 7.24835 3.98175C6.56477 3.98175 5.88119 3.98702 5.1976 3.98175C4.53611 3.97647 4.06917 4.25382 3.7747 4.86229C3.23519 5.9801 2.6715 7.08526 2.08783 8.25791H26.823C26.7662 8.11238 26.7231 7.97318 26.6589 7.84348C26.1752 6.87119 25.6662 5.9105 25.2066 4.92662C24.89 4.25066 24.3915 3.96171 23.6648 3.97964C23.017 3.99546 22.366 4.00917 21.7203 3.96593C21.5363 3.95327 21.2429 3.76662 21.2113 3.61582C21.1377 3.2636 21.4332 3.20771 21.7245 3.20982C22.4786 3.21404 23.2316 3.20561 23.9856 3.21404C24.7481 3.22353 25.3591 3.55571 25.7114 4.22535C26.4454 5.62156 27.3036 6.98613 27.7937 8.46776C28.2995 9.99685 27.9493 11.856 25.7556 12.4487L25.7566 12.4497ZM5.02092 24.4947H15.933V22.4067C15.7048 22.4067 15.5144 22.4067 15.3251 22.4067C13.3449 22.4067 11.3646 22.4067 9.38428 22.4067C9.24441 22.4067 9.0772 22.4436 8.97203 22.3814C8.84162 22.3044 8.68387 22.142 8.68282 22.0154C8.68177 21.89 8.83636 21.7117 8.96677 21.6506C9.114 21.582 9.30961 21.6105 9.48419 21.6105C11.4298 21.6084 13.3743 21.6095 15.3199 21.6095C15.5229 21.6095 15.7248 21.6095 15.9425 21.6095V14.2097H13.3701C13.2534 15.0892 13.2597 15.123 13.6814 15.7557C13.9443 16.1501 14.2177 16.5371 14.4659 16.9389C14.7846 17.4535 14.57 17.9175 13.9822 17.9439C13.2828 17.9744 12.5792 17.9744 11.8799 17.9439C11.2783 17.9175 11.0617 17.4683 11.3814 16.9537C11.6506 16.5223 11.9188 16.0868 12.2322 15.6882C12.595 15.2263 12.594 14.7349 12.4899 14.2118H8.48826C8.38204 14.815 8.42937 15.3402 8.82374 15.8179C9.10138 16.1543 9.32434 16.5371 9.55991 16.9062C9.92273 17.4757 9.70609 17.9228 9.03828 17.946C8.37363 17.9692 7.70582 17.9692 7.04117 17.946C6.38598 17.9238 6.17039 17.463 6.53217 16.8957C6.79613 16.4823 7.04853 16.0562 7.35352 15.6745C7.7237 15.2105 7.67007 14.717 7.5954 14.2055H5.0367V21.6084C5.70451 21.6084 6.33445 21.6052 6.9644 21.6095C7.25676 21.6116 7.56806 21.6316 7.54807 22.0334C7.5302 22.3919 7.2473 22.4077 6.96861 22.4067C6.32604 22.4035 5.68347 22.4056 5.01987 22.4056V24.4936L5.02092 24.4947ZM4.1838 24.5105C4.1838 24.2479 4.1838 24.0402 4.1838 23.8324C4.1838 20.7047 4.1838 17.5769 4.1838 14.4502C4.1838 13.6044 4.39203 13.3935 5.23862 13.3925C8.72594 13.3904 12.2133 13.3904 15.6995 13.3925C16.5913 13.3925 16.7817 13.5844 16.7817 14.4692C16.7817 17.6317 16.7817 20.7943 16.7817 23.9569C16.7817 24.1403 16.7817 24.3249 16.7817 24.4989H17.7387C17.7387 24.2827 17.7387 24.0929 17.7387 23.9041C17.7387 20.7416 17.7387 17.579 17.7387 14.4164C17.7387 13.5981 17.9396 13.3946 18.7651 13.3925C20.1323 13.3883 21.4984 13.3893 22.8656 13.3925C23.7406 13.3946 23.9278 13.5907 23.9288 14.4924C23.9288 17.637 23.9288 20.7827 23.9288 23.9273V24.4978H24.9395V12.5921C24.2685 12.1513 23.6964 11.7748 23.0938 11.3783C22.6163 12.0342 21.9023 12.4423 21.0052 12.4455C20.0965 12.4487 19.3793 12.0184 18.8177 11.2686C18.2498 12.0595 17.5231 12.4434 16.6292 12.4444C15.7342 12.4444 15.0307 12.0152 14.4712 11.2665C13.9043 12.0268 13.1966 12.4444 12.2995 12.4465C11.3888 12.4487 10.6747 12.0131 10.1247 11.3003C8.69965 12.8304 7.39453 12.8304 5.73711 11.3129C5.15133 12.1228 4.32893 12.4729 3.34983 12.4592V24.5084H4.18169L4.1838 24.5105ZM14.4123 27.208C18.2835 27.208 22.1536 27.208 26.0248 27.208C27.2805 27.208 27.1175 27.2934 27.1259 26.1092C27.1311 25.3446 27.1259 25.3446 26.3329 25.3446C18.539 25.3446 10.7441 25.3425 2.95019 25.3467C1.69135 25.3467 1.83017 25.1706 1.82386 26.4582C1.81965 27.2048 1.82386 27.207 2.58947 27.207C6.53006 27.207 10.4717 27.207 14.4123 27.207V27.208ZM18.5727 24.4926H23.0801V14.2256H18.5727V24.4926ZM10.538 9.14478C10.4317 10.058 10.5432 10.8668 11.3677 11.3846C12.004 11.7843 12.6665 11.7621 13.2944 11.3424C14.0999 10.8046 14.1315 10.0042 14.0358 9.14478H10.538ZM18.417 9.14478H14.9139C14.8151 10.0285 14.8624 10.8289 15.6785 11.3572C16.2948 11.7569 16.9394 11.7759 17.561 11.3983C18.396 10.89 18.5148 10.0791 18.416 9.14478H18.417ZM6.19879 9.1258C6.07995 10.0707 6.19248 10.8837 7.04748 11.4089C7.6606 11.7853 8.44304 11.7316 9.0141 11.295C9.6493 10.8099 9.89224 9.98841 9.6493 9.1258H6.19879ZM19.25 9.11525C19.1322 10.058 19.251 10.8616 20.0692 11.3825C20.6813 11.7716 21.3323 11.7674 21.9475 11.3772C22.7741 10.8531 22.8656 10.0464 22.7562 9.14689C22.6773 9.13529 22.6111 9.11736 22.5459 9.11736C21.4637 9.11525 20.3815 9.11631 19.25 9.11631V9.11525ZM1.85751 9.13318C1.74814 10.0854 1.83858 10.9111 2.72093 11.4226C3.34562 11.7843 4.13437 11.7242 4.6886 11.2771C5.3869 10.7139 5.44264 9.96205 5.33116 9.13318H1.85646H1.85751ZM27.0954 9.15638H23.607C23.5071 10.0823 23.607 10.8985 24.4546 11.4026C25.0793 11.7737 25.7251 11.7548 26.3361 11.354C27.1427 10.8247 27.1953 10.0243 27.0954 9.15638ZM13.6299 17.1139C13.3817 16.7364 13.1755 16.4222 12.9294 16.0478C12.6918 16.4116 12.4793 16.7354 12.2311 17.1139H13.6299ZM7.34195 17.1055H8.74487C8.49037 16.7269 8.27898 16.4116 8.04025 16.0562C7.7847 16.4401 7.58383 16.7417 7.34195 17.1055Z" fill="#FFC00B" />
                                  <path d="M25.7566 12.4497V24.5295C26.0952 24.5295 26.4202 24.52 26.7452 24.5316C27.4834 24.5569 27.9136 24.9893 27.9336 25.7222C27.942 26.0206 27.9357 26.3201 27.9346 26.6185C27.9315 27.6151 27.556 27.9989 26.5759 27.9989C21.3354 27.9989 16.095 27.9989 10.8545 27.9989C8.01501 27.9989 5.17552 27.9989 2.33602 27.9989C1.42318 27.9989 1.02144 27.5971 1.01513 26.6871C1.01408 26.4941 1.01513 26.3 1.01513 26.1071C1.01513 24.9144 1.26227 24.6349 2.50324 24.4841V23.979C2.50324 20.2185 2.49903 16.457 2.5106 12.6965C2.5106 12.3632 2.42121 12.1639 2.13515 11.9752C1.39688 11.4859 1.06982 10.7561 1.01092 9.87874C0.956236 9.06991 1.10452 8.33595 1.50941 7.61569C2.08362 6.59279 2.58106 5.52559 3.09743 4.47105C3.5202 3.60844 4.19221 3.18768 5.15343 3.20771C5.85384 3.22248 6.5553 3.21404 7.25676 3.20982C7.5344 3.20771 7.75841 3.2731 7.75946 3.60106C7.75946 3.94167 7.51337 3.98175 7.24835 3.98175C6.56477 3.98175 5.88119 3.98702 5.1976 3.98175C4.53611 3.97647 4.06917 4.25382 3.7747 4.86229C3.23519 5.9801 2.6715 7.08526 2.08783 8.25791H26.823C26.7662 8.11238 26.7231 7.97318 26.6589 7.84348C26.1752 6.87119 25.6662 5.9105 25.2066 4.92662C24.89 4.25066 24.3915 3.96171 23.6648 3.97964C23.017 3.99546 22.366 4.00917 21.7203 3.96593C21.5363 3.95327 21.2429 3.76662 21.2113 3.61582C21.1377 3.2636 21.4332 3.20771 21.7245 3.20982C22.4786 3.21404 23.2316 3.20561 23.9856 3.21404C24.7481 3.22353 25.3591 3.55571 25.7114 4.22535C26.4454 5.62156 27.3036 6.98613 27.7937 8.46776C28.2995 9.99685 27.9493 11.856 25.7556 12.4487L25.7566 12.4497ZM5.02092 24.4947H15.933V22.4067C15.7048 22.4067 15.5144 22.4067 15.3251 22.4067C13.3449 22.4067 11.3646 22.4067 9.38428 22.4067C9.24441 22.4067 9.0772 22.4436 8.97203 22.3814C8.84162 22.3044 8.68387 22.142 8.68282 22.0154C8.68177 21.89 8.83636 21.7117 8.96677 21.6506C9.114 21.582 9.30961 21.6105 9.48419 21.6105C11.4298 21.6084 13.3743 21.6095 15.3199 21.6095C15.5229 21.6095 15.7248 21.6095 15.9425 21.6095V14.2097H13.3701C13.2534 15.0892 13.2597 15.123 13.6814 15.7557C13.9443 16.1501 14.2177 16.5371 14.4659 16.9389C14.7846 17.4535 14.57 17.9175 13.9822 17.9439C13.2828 17.9744 12.5792 17.9744 11.8799 17.9439C11.2783 17.9175 11.0617 17.4683 11.3814 16.9537C11.6506 16.5223 11.9188 16.0868 12.2322 15.6882C12.595 15.2263 12.594 14.7349 12.4899 14.2118H8.48826C8.38204 14.815 8.42937 15.3402 8.82374 15.8179C9.10138 16.1543 9.32434 16.5371 9.55991 16.9062C9.92273 17.4757 9.70609 17.9228 9.03828 17.946C8.37363 17.9692 7.70582 17.9692 7.04117 17.946C6.38598 17.9238 6.17039 17.463 6.53217 16.8957C6.79613 16.4823 7.04853 16.0562 7.35352 15.6745C7.7237 15.2105 7.67007 14.717 7.5954 14.2055H5.0367V21.6084C5.70451 21.6084 6.33445 21.6052 6.9644 21.6095C7.25676 21.6116 7.56806 21.6316 7.54807 22.0334C7.5302 22.3919 7.2473 22.4077 6.96861 22.4067C6.32604 22.4035 5.68347 22.4056 5.01987 22.4056V24.4936L5.02092 24.4947ZM4.1838 24.5105C4.1838 24.2479 4.1838 24.0402 4.1838 23.8324C4.1838 20.7047 4.1838 17.5769 4.1838 14.4502C4.1838 13.6044 4.39203 13.3935 5.23862 13.3925C8.72594 13.3904 12.2133 13.3904 15.6995 13.3925C16.5913 13.3925 16.7817 13.5844 16.7817 14.4692C16.7817 17.6317 16.7817 20.7943 16.7817 23.9569C16.7817 24.1403 16.7817 24.3249 16.7817 24.4989H17.7387C17.7387 24.2827 17.7387 24.0929 17.7387 23.9041C17.7387 20.7416 17.7387 17.579 17.7387 14.4164C17.7387 13.5981 17.9396 13.3946 18.7651 13.3925C20.1323 13.3883 21.4984 13.3893 22.8656 13.3925C23.7406 13.3946 23.9278 13.5907 23.9288 14.4924C23.9288 17.637 23.9288 20.7827 23.9288 23.9273V24.4978H24.9395V12.5921C24.2685 12.1513 23.6964 11.7748 23.0938 11.3783C22.6163 12.0342 21.9023 12.4423 21.0052 12.4455C20.0965 12.4487 19.3793 12.0184 18.8177 11.2686C18.2498 12.0595 17.5231 12.4434 16.6292 12.4444C15.7342 12.4444 15.0307 12.0152 14.4712 11.2665C13.9043 12.0268 13.1966 12.4444 12.2995 12.4465C11.3888 12.4487 10.6747 12.0131 10.1247 11.3003C8.69965 12.8304 7.39453 12.8304 5.73711 11.3129C5.15133 12.1228 4.32893 12.4729 3.34983 12.4592V24.5084H4.18169L4.1838 24.5105ZM14.4123 27.208C18.2835 27.208 22.1536 27.208 26.0248 27.208C27.2805 27.208 27.1175 27.2934 27.1259 26.1092C27.1311 25.3446 27.1259 25.3446 26.3329 25.3446C18.539 25.3446 10.7441 25.3425 2.95019 25.3467C1.69135 25.3467 1.83017 25.1706 1.82386 26.4582C1.81965 27.2048 1.82386 27.207 2.58947 27.207C6.53006 27.207 10.4717 27.207 14.4123 27.207V27.208ZM18.5727 24.4926H23.0801V14.2256H18.5727V24.4926ZM10.538 9.14478C10.4317 10.058 10.5432 10.8668 11.3677 11.3846C12.004 11.7843 12.6665 11.7621 13.2944 11.3424C14.0999 10.8046 14.1315 10.0042 14.0358 9.14478H10.538ZM18.417 9.14478H14.9139C14.8151 10.0285 14.8624 10.8289 15.6785 11.3572C16.2948 11.7569 16.9394 11.7759 17.561 11.3983C18.396 10.89 18.5148 10.0791 18.416 9.14478H18.417ZM6.19879 9.1258C6.07995 10.0707 6.19248 10.8837 7.04748 11.4089C7.6606 11.7853 8.44304 11.7316 9.0141 11.295C9.6493 10.8099 9.89224 9.98841 9.6493 9.1258H6.19879ZM19.25 9.11525C19.1322 10.058 19.251 10.8616 20.0692 11.3825C20.6813 11.7716 21.3323 11.7674 21.9475 11.3772C22.7741 10.8531 22.8656 10.0464 22.7562 9.14689C22.6773 9.13529 22.6111 9.11736 22.5459 9.11736C21.4637 9.11525 20.3815 9.11631 19.25 9.11631V9.11525ZM1.85751 9.13318C1.74814 10.0854 1.83858 10.9111 2.72093 11.4226C3.34562 11.7843 4.13437 11.7242 4.6886 11.2771C5.3869 10.7139 5.44264 9.96205 5.33116 9.13318H1.85646H1.85751ZM27.0954 9.15638H23.607C23.5071 10.0823 23.607 10.8985 24.4546 11.4026C25.0793 11.7737 25.7251 11.7548 26.3361 11.354C27.1427 10.8247 27.1953 10.0243 27.0954 9.15638ZM13.6299 17.1139C13.3817 16.7364 13.1755 16.4222 12.9294 16.0478C12.6918 16.4116 12.4793 16.7354 12.2311 17.1139H13.6299ZM7.34195 17.1055H8.74487C8.49037 16.7269 8.27898 16.4116 8.04025 16.0562C7.7847 16.4401 7.58383 16.7417 7.34195 17.1055Z" stroke="#FFC00B" stroke-width="0.6" mask="url(#path-1-outside-1_2947_2673)" />
                                  <path d="M14.8078 6.33992H14.4463C14.0344 6.33992 13.6223 6.34038 13.2101 6.34083C12.2204 6.34193 11.2301 6.34303 10.24 6.33781C10.24 6.33781 10.24 6.33781 10.2399 6.33781L10.2407 6.18781L14.8078 6.33992ZM14.8078 6.33992L14.8068 6.33897M14.8078 6.33992L14.8068 6.33897M14.8068 6.33897C15.1036 6.33913 15.4004 6.33946 15.6972 6.33978C16.6992 6.34088 17.7016 6.34197 18.7042 6.33676L14.8068 6.33897ZM18.6259 5.2775L18.6258 5.27749C17.6157 5.26914 16.6052 5.27063 15.5956 5.27211C15.224 5.27266 14.8525 5.27321 14.4812 5.27327L14.4802 5.27222H14.4179C13.9679 5.27222 13.518 5.27257 13.0682 5.27292C12.1688 5.27362 11.2697 5.27433 10.3704 5.27222H10.3703C10.2185 5.27196 10.1079 5.2642 10.0256 5.24655C9.94497 5.22926 9.90233 5.20471 9.87591 5.17828C9.84948 5.15185 9.82501 5.10926 9.80774 5.02887C9.7901 4.9468 9.78232 4.83663 9.7818 4.68563L9.7818 4.68551C9.78071 4.43016 9.78217 4.17282 9.78365 3.91453C9.78639 3.43351 9.78915 2.9492 9.77543 2.46839L9.77543 2.46828C9.76904 2.24993 9.81081 2.12744 9.87477 2.05782C9.93693 1.99017 10.0499 1.94041 10.2657 1.94038C13.0696 1.9446 15.8746 1.9446 18.6785 1.94038L18.6786 1.94038C18.8945 1.93989 19.0067 1.99004 19.0684 2.05781C19.1323 2.12802 19.1736 2.25136 19.1677 2.46966C19.1466 3.22746 19.1466 3.98631 19.1677 4.74411L19.1677 4.7443C19.1745 4.97841 19.1244 5.09951 19.0545 5.16614C18.9823 5.23503 18.8541 5.27949 18.6259 5.2775ZM19.8344 1.23203C19.5598 0.968313 19.1655 0.8516 18.6783 0.851582L18.7042 6.33676C19.192 6.33454 19.5821 6.21727 19.851 5.94969C20.1196 5.68235 20.2407 5.29118 20.249 4.79961C20.2638 3.99029 20.2659 3.17946 20.249 2.36936C20.239 1.88364 20.1096 1.4963 19.8344 1.23203Z" fill="#FFC00B" stroke="#FFC00B" stroke-width="0.3" />
                                  <path d="M19.8632 20.4614C19.9807 20.4405 20.0922 20.3666 20.1762 20.2875C20.2616 20.2071 20.3394 20.1018 20.3763 19.9929L20.3764 19.9925C20.4195 19.8643 20.4227 19.7304 20.4182 19.6108C20.4161 19.5548 20.4127 19.5058 20.4095 19.4594C20.4051 19.3956 20.4011 19.3366 20.4011 19.2709C20.4011 19.2105 20.405 19.1564 20.4094 19.0972C20.4125 19.0547 20.4158 19.0095 20.418 18.9574C20.4227 18.8464 20.4202 18.7196 20.3779 18.5991C20.3369 18.4818 20.2539 18.39 20.1806 18.3187C20.1517 18.2906 20.1209 18.2626 20.0924 18.2366C20.0841 18.229 20.076 18.2217 20.0682 18.2145C20.0321 18.1814 20 18.1511 19.9722 18.121L19.8678 18.0078L19.7574 18.1151C19.7298 18.1419 19.695 18.17 19.6536 18.202C19.644 18.2095 19.6338 18.2173 19.6233 18.2253C19.5915 18.2496 19.5569 18.2762 19.5252 18.3023C19.4829 18.3373 19.4377 18.3783 19.4011 18.4247C19.3646 18.4709 19.3292 18.5318 19.3207 18.6062M19.8632 20.4614C19.7849 20.4756 19.7113 20.4438 19.6672 20.4202C19.6156 20.3927 19.5645 20.3544 19.5195 20.3132C19.4743 20.2719 19.4308 20.2236 19.3965 20.1732C19.3642 20.126 19.3303 20.0629 19.3227 19.9939L19.3226 19.9932L19.3226 19.9932C19.2743 19.536 19.2677 19.065 19.3207 18.6062M19.8632 20.4614C19.8634 20.4614 19.8635 20.4614 19.8636 20.4614L19.8367 20.3138L19.8629 20.4615C19.863 20.4615 19.8631 20.4615 19.8632 20.4614ZM19.3207 18.6062L19.4697 18.6234L19.3207 18.6063C19.3207 18.6062 19.3207 18.6062 19.3207 18.6062ZM19.862 18.2227L19.9027 18.2646C19.8887 18.2508 19.875 18.2368 19.862 18.2227ZM19.862 18.2227L19.8322 18.2501C19.8425 18.241 19.8525 18.2319 19.862 18.2227Z" fill="#FFC00B" stroke="#FFC00B" stroke-width="0.3" />
                                </svg>