<svg width="21" height="22" viewBox="0 0 21 22" fill="none" xmlns="http://www.w3.org/2000/svg">
<path d="M19.4532 18.488V18.1533C19.4532 15.3069 19.4519 12.4601 19.4494 9.61287C19.4494 9.40733 19.4883 9.27493 19.6829 9.1564C20.2377 8.81658 20.5195 8.29013 20.5678 7.64327C20.613 7.04243 20.5622 6.47437 20.2415 5.91956C19.7915 5.14218 19.4186 4.32005 19.0251 3.51052C18.7069 2.85609 18.1904 2.54589 17.473 2.55094C16.9709 2.55409 16.4688 2.55598 15.9667 2.55094C15.7464 2.54778 15.5405 2.59066 15.5336 2.84474C15.5248 3.12782 15.752 3.15997 15.9774 3.15997C16.4795 3.15997 16.9816 3.17069 17.4837 3.15682C17.9676 3.14358 18.2952 3.34596 18.5067 3.78351C18.887 4.5653 19.2812 5.33952 19.6691 6.11626C19.7048 6.18877 19.7318 6.26568 19.7764 6.36845H1.28456C1.44523 6.0425 1.59021 5.74555 1.7377 5.44922C2.01763 4.88684 2.30257 4.32698 2.57747 3.76208C2.77706 3.35101 3.08961 3.14926 3.54904 3.15682C4.09257 3.16565 4.63735 3.17447 5.18088 3.14484C5.3064 3.13791 5.4244 2.97461 5.54616 2.8832C5.45452 2.77412 5.36415 2.57111 5.27188 2.56796C4.55325 2.55913 3.82833 2.55661 3.11598 2.61903C2.65404 2.65938 2.32454 2.97524 2.11177 3.39073C1.59711 4.40894 1.07116 5.42211 0.579727 6.45167C0.0726032 7.51465 0.746675 9.02464 1.85758 9.37518C1.93603 9.39977 2.01449 9.42625 2.10863 9.45651V18.5063C1.85444 18.5063 1.60653 18.5063 1.3605 18.5063C0.850863 18.5133 0.518847 18.8342 0.500017 19.3467C0.489975 19.6298 0.493742 19.9142 0.500017 20.1973C0.510059 20.7647 0.837055 21.0875 1.40631 21.0875C3.93733 21.0875 6.46877 21.0875 9.00063 21.0875H19.5705C20.276 21.0875 20.5747 20.7874 20.5747 20.0737C20.5747 19.8845 20.5747 19.6954 20.5747 19.5063C20.5747 18.8203 20.2936 18.5265 19.6214 18.5044C19.5793 18.5038 19.5379 18.4969 19.4532 18.488ZM17.5948 10.7666V16.3079H17.2609C16.8529 16.3079 16.4449 16.2864 16.0382 16.3217C15.9127 16.3325 15.7301 16.4831 15.7025 16.6004C15.6522 16.8122 15.8343 16.9062 16.0326 16.9226C16.1368 16.9308 16.2416 16.9226 16.3464 16.9226H17.5922V18.478H9.42741V16.9251H14.3323C14.4158 16.9251 14.5206 16.9547 14.5784 16.915C14.6913 16.8349 14.8514 16.717 14.8526 16.6136C14.8539 16.5102 14.6901 16.3961 14.5765 16.318C14.5194 16.2782 14.4139 16.3085 14.3305 16.3085H9.42993V10.771H11.3875C11.4377 11.2004 11.4402 11.585 11.1408 11.9355C10.9049 12.2123 10.7216 12.5364 10.5276 12.8472C10.2917 13.2255 10.4768 13.571 10.9199 13.5792C11.4325 13.588 11.945 13.588 12.4576 13.5792C12.902 13.571 13.0852 13.2223 12.848 12.8466C12.629 12.5017 12.4149 12.153 12.1645 11.8302C11.899 11.4904 11.9925 11.1298 11.9869 10.7742H15.029C15.0918 11.2225 15.061 11.6153 14.7623 11.9721C14.5488 12.2307 14.3632 12.5114 14.2087 12.8094C14.1302 12.9556 14.0668 13.1952 14.134 13.3137C14.2125 13.4499 14.4372 13.5615 14.606 13.5729C15.0955 13.6069 15.5889 13.5899 16.0803 13.5836C16.5472 13.5773 16.7362 13.2349 16.4889 12.8428C16.2937 12.5326 16.1123 12.2123 15.8757 11.9311C15.5794 11.5781 15.6027 11.1909 15.6384 10.7704L17.5948 10.7666ZM8.08805 18.4893V18.1016C8.08805 15.6747 8.08805 13.248 8.08805 10.8215C8.08805 10.3486 7.92173 10.1847 7.44473 10.1841C6.36772 10.1841 5.2905 10.1841 4.21307 10.1841C3.63628 10.1841 3.4982 10.3234 3.49757 10.9085V18.4849H2.71053V10.9079C2.71053 10.4987 2.70362 10.0882 2.71618 9.67907C2.71618 9.59458 2.77894 9.45336 2.83543 9.4376C3.33753 9.30583 3.7298 9.01833 4.04361 8.5852C4.46475 9.16838 5.00514 9.4811 5.68674 9.47668C6.36835 9.47227 6.88865 9.13812 7.29536 8.59402C7.71148 9.17469 8.24747 9.47668 8.91464 9.47668C9.59248 9.47668 10.1266 9.15262 10.5302 8.60726C11.4327 9.76292 12.8969 9.76481 13.7756 8.6205C14.6901 9.76355 16.1217 9.77175 17.0073 8.65392C17.2778 8.86386 17.5245 9.12236 17.8232 9.26863C18.122 9.4149 18.4929 9.45777 18.8475 9.55297V18.4824H18.1966V10.9621C18.1966 10.3095 18.0711 10.1841 17.4385 10.1841H9.56549C8.95795 10.1841 8.8274 10.3102 8.8274 10.9179C8.8274 13.3137 8.8274 15.7095 8.8274 18.1053V18.4912L8.08805 18.4893ZM10.5358 20.5119H1.93729C1.01405 20.5119 1.07995 20.5913 1.08183 19.6393C1.08183 19.1154 1.10882 19.0876 1.62849 19.0876H19.1023C20.0996 19.0876 19.981 19.0246 19.9879 19.9911C19.9879 20.474 19.9509 20.5119 19.4739 20.5119H10.5358ZM4.10763 18.4943V10.778H7.49808V18.4931L4.10763 18.4943ZM16.7305 6.97875C16.7977 7.6874 16.7154 8.30905 16.064 8.69931C15.8367 8.82997 15.5761 8.89033 15.3149 8.87284C15.0536 8.85534 14.8033 8.76076 14.5953 8.60096C14.0668 8.1798 14.0217 7.60355 14.0863 6.97875H16.7305ZM6.97464 6.97875C7.08824 7.80404 6.87485 8.36894 6.34701 8.68607C6.12164 8.81884 5.86279 8.88312 5.6018 8.87115C5.3408 8.85918 5.08886 8.77146 4.87648 8.61861C4.41203 8.27248 4.21119 7.62751 4.37437 6.97938L6.97464 6.97875ZM19.9666 6.98379C20.0262 7.65147 19.9829 8.25987 19.3791 8.65329C18.9084 8.9597 18.4075 8.96852 17.9356 8.66211C17.3211 8.26744 17.2646 7.65336 17.3299 6.98379H19.9666ZM3.73984 6.98379C3.79884 7.67731 3.73984 8.29896 3.09401 8.68292C2.60822 8.97105 2.11114 8.95024 1.65046 8.6287C1.0743 8.22646 1.03915 7.62814 1.10066 6.98379H3.73984ZM10.8521 6.99199H13.4706C13.5484 7.69875 13.4706 8.33174 12.8053 8.70435C12.3308 8.96978 11.8419 8.94393 11.3894 8.62744C10.8088 8.22015 10.795 7.62309 10.8553 6.99136L10.8521 6.99199ZM10.2094 6.98064C10.3017 7.90176 10.0996 8.44019 9.5316 8.72138C9.03577 8.96663 8.54058 8.93826 8.09182 8.59087C7.63114 8.23465 7.45603 7.59977 7.63177 6.98064H10.2094ZM14.8037 12.9582C14.9989 12.6669 15.1577 12.4311 15.3365 12.1638L15.8537 12.9582H14.8037ZM11.6913 12.1606L12.1934 12.9399H11.1735L11.6913 12.1606Z" fill="#292929" stroke="#292929" stroke-width="0.5"/>
<path d="M10.5276 0.914903C9.47129 0.914903 8.41562 0.914903 7.35932 0.914903C6.70658 0.914903 6.33502 1.29319 6.33251 1.9514C6.33251 2.56128 6.33251 3.17074 6.33251 3.77977C6.33565 4.39511 6.70219 4.80366 7.31475 4.80745C9.4579 4.81921 11.6013 4.81921 13.7448 4.80745C14.3724 4.80429 14.7384 4.40016 14.7402 3.76149C14.7402 3.15245 14.7402 2.543 14.7402 1.93312C14.7402 1.29571 14.3637 0.916164 13.7272 0.914903C12.6603 0.913012 11.5939 0.914903 10.5276 0.914903ZM10.5527 4.20471C9.50664 4.20471 8.4606 4.20471 7.41455 4.20471C7.01475 4.20471 6.92813 4.12275 6.925 3.73186C6.92039 3.14342 6.92039 2.55497 6.925 1.96653C6.92813 1.61158 7.04487 1.49305 7.3976 1.49242C9.4897 1.48989 11.5805 1.48989 13.6701 1.49242C14.0247 1.49242 14.1408 1.61032 14.144 1.96464C14.149 2.55308 14.149 3.14152 14.144 3.72997C14.144 4.12212 14.0555 4.20345 13.6557 4.20408C12.6222 4.20618 11.5879 4.20639 10.5527 4.20471Z" fill="#292929" stroke="#292929" stroke-width="0.5"/>
<path d="M6.23819 14.5797C6.23819 14.7575 6.20178 14.9466 6.25137 15.1093C6.28338 15.2146 6.4453 15.3495 6.54259 15.3445C6.63987 15.3394 6.80117 15.1856 6.81184 15.0841C6.84657 14.7487 6.84657 14.4107 6.81184 14.0753C6.80054 13.9688 6.64301 13.8086 6.54321 13.8011C6.44342 13.7935 6.28902 13.9372 6.25199 14.0463C6.19614 14.2077 6.22375 14.3981 6.21622 14.5759L6.23819 14.5797Z" fill="#292929" stroke="#292929" stroke-width="0.5"/>
</svg>
