<svg width="27" height="20" viewBox="0 0 27 20" fill="none" xmlns="http://www.w3.org/2000/svg">
<path d="M12.9411 10.5482C13.1905 8.82062 12.7043 7.20495 12.5938 5.56239C12.5729 5.24585 12.5201 4.93104 12.4933 4.61537C12.4356 3.93285 11.9167 3.62064 11.2647 3.69609C10.072 3.83398 9.2334 4.53818 8.52199 5.42277C7.99052 6.08447 7.29083 6.20155 6.561 6.41403C5.59934 6.69415 4.8963 6.15299 4.12295 5.82083C3.82918 5.69422 3.67434 5.74191 3.48435 5.97173C3.10186 6.43484 2.86249 6.95345 2.79554 7.56226C2.76876 7.80855 2.81897 7.93864 3.08261 7.96726C3.54629 8.01843 4.00745 8.09995 4.54394 8.17973C4.25184 8.75905 3.99992 9.26639 3.7413 9.77026C3.3496 10.5343 2.97214 11.3079 2.55031 12.0546C2.34358 12.4197 2.31345 12.7033 2.62815 12.9999C2.72523 13.0918 2.78466 13.2262 2.91355 13.4196C1.8481 13.4526 1.00362 13.8168 0.436996 14.6988C0.102213 15.22 -0.0300276 15.7993 0.00596147 16.4281C0.0771027 17.6682 0.888951 18.7037 2.10756 18.9465C2.56705 19.0385 3.09517 19.0151 3.53876 18.8702C3.96728 18.7306 4.39245 18.4279 4.70129 18.0836C5.021 17.7281 5.19844 17.2363 5.44367 16.7941C5.43948 16.7932 5.48217 16.7915 5.49054 16.8079C5.77259 17.369 6.24212 17.4107 6.792 17.4029C8.68771 17.3742 10.5843 17.3942 12.4808 17.3907C13.1847 17.389 13.9128 17.5243 14.538 16.9293C14.9356 18.0099 15.5641 18.7245 16.612 18.97C17.269 19.1235 17.89 19.0298 18.4726 18.7046C19.2283 18.2831 19.7046 17.6214 19.8494 16.7464C19.9916 15.8843 19.7924 15.0873 19.2267 14.3666C19.5079 14.1889 19.7498 14.0362 20.067 13.8359C19.5104 13.2774 19.0124 12.738 18.4709 12.2506C18.1528 11.9635 18.2315 11.6305 18.2583 11.2975C18.2633 11.2385 18.4475 11.1552 18.5504 11.1518C19.0241 11.1353 19.4987 11.1483 19.9724 11.1422C20.5775 11.1353 20.8085 10.8994 20.8135 10.2776C20.8211 9.36352 20.7441 9.47106 21.6019 9.46759C22.2849 9.46412 22.9687 9.47106 23.6516 9.46499C23.8575 9.46325 24.1195 9.54998 24.1111 9.15798C24.1036 8.76252 23.8291 8.86832 23.6332 8.86746C21.7651 8.86052 19.8962 8.86399 18.0273 8.86225C17.5285 8.86225 17.5009 8.81889 17.608 8.21529H22.2029C22.3251 7.61516 22.3008 7.58134 21.7911 7.57787C20.996 7.57266 20.2017 7.56486 19.4066 7.56399C19.1923 7.56399 19.0233 7.55098 19.0258 7.24918C19.0283 6.94825 19.1999 6.93697 19.4125 6.93871C19.8569 6.94304 20.3005 6.94044 20.7926 6.94044C20.7926 6.31516 20.8294 5.72544 20.7784 5.14438C20.7474 4.79402 20.4494 4.60322 20.1138 4.60149C18.4265 4.59022 16.7392 4.58848 15.0519 4.60149C14.5924 4.60496 14.3405 4.93885 14.3388 5.48261C14.3355 6.99942 14.3229 8.51709 14.3464 10.0339C14.3531 10.458 14.2284 10.6019 13.8275 10.5594C13.5287 10.5282 13.2248 10.5534 12.9353 10.5534L12.9411 10.5482ZM9.93812 6.19548C9.99169 6.36026 10.036 6.46259 10.0586 6.57013C10.2143 7.30208 10.3524 8.0375 10.5257 8.76512C10.5868 9.02269 10.5466 9.11202 10.2905 9.184C9.31124 9.45892 8.33786 9.75725 7.36616 10.0608C6.70831 10.2663 6.44885 10.7077 6.55849 11.405C6.79117 12.8845 7.0297 14.3632 7.26321 15.8427C7.34188 16.3405 7.26823 16.4142 6.792 16.2963C6.14169 16.1349 5.72488 15.697 5.64203 15.0257C5.51062 13.9694 5.36415 12.9027 5.3834 11.843C5.40684 10.5646 5.59683 9.2898 5.71484 8.01322C5.74581 7.6776 5.89311 7.51282 6.25049 7.50935C6.638 7.50588 7.023 7.39835 7.41135 7.38013C7.95537 7.35412 8.44415 7.21796 8.8869 6.86846C9.19323 6.6265 9.54308 6.44438 9.93812 6.19461V6.19548ZM9.7113 11.601C9.73809 11.6747 9.7498 11.6895 9.74646 11.7007C9.71298 11.8239 9.65439 11.9453 9.64937 12.0693C9.64519 12.1907 9.65439 12.3607 9.72804 12.4301C10.4621 13.1239 10.611 13.9894 10.4704 14.9581C10.3039 16.1037 9.97244 16.4021 8.8869 16.35C8.87268 16.35 8.85928 16.3483 8.84506 16.35C8.62159 16.3665 8.5086 16.265 8.50023 16.0274C8.45587 14.7309 8.40398 13.4344 8.36799 12.1378C8.36548 12.0338 8.44499 11.8516 8.51613 11.8334C8.91369 11.7337 9.31961 11.673 9.71047 11.601H9.7113ZM1.13083 16.2243C1.14087 15.3666 1.86652 14.6207 2.69008 14.6199C3.54629 14.619 4.2644 15.3718 4.25184 16.2572C4.23845 17.1314 3.53624 17.859 2.70096 17.8634C1.86233 17.8677 1.12079 17.0933 1.13083 16.2251V16.2243ZM17.2347 17.8608C16.5367 17.8521 15.9558 17.4089 15.7215 16.762C15.6202 16.481 15.6847 16.3058 15.945 16.167C16.5869 15.8245 17.228 15.4767 17.8524 15.1003C18.0901 14.9572 18.2365 15.0023 18.3838 15.2018C18.7697 15.7239 18.8885 16.2867 18.609 16.9016C18.3261 17.5243 17.8306 17.8139 17.233 17.8608H17.2347Z" fill="white"/>
<path d="M8.83344 1.59507C9.33143 1.53783 9.82021 1.48059 10.3199 1.42336C10.6513 2.64183 9.63608 2.85084 9.0251 3.32869C9.21844 4.02508 9.26698 4.04416 9.88047 3.77098C10.5065 3.4926 11.1443 3.24196 11.7628 2.94623C11.9059 2.87772 12.0649 2.68433 12.0842 2.53083C12.131 2.14837 12.1369 1.75204 12.0942 1.36872C11.9955 0.482398 11.3661 -0.026673 10.4588 0.00107877C9.59507 0.027096 8.89621 0.687068 8.83344 1.5942V1.59507Z" fill="white"/>
<path d="M23.9682 14.2155C24.8461 14.2155 25.7233 14.2155 26.6012 14.2155C26.7996 14.2155 26.9904 14.2381 26.9996 13.9224C27.0097 13.5816 26.8096 13.6007 26.5912 13.6015C24.8219 13.6033 23.0526 13.6033 21.2832 13.6033C21.0882 13.6033 20.8899 13.566 20.8865 13.8886C20.8832 14.2155 21.0656 14.219 21.2933 14.2173C22.1846 14.2121 23.0768 14.2155 23.9682 14.2147V14.2155Z" fill="white"/>
<path d="M20.1647 12.1071C20.0408 12.5555 20.1697 12.6959 20.5765 12.6899C21.9106 12.6682 23.2447 12.6821 24.5796 12.6812C24.7872 12.6812 25.0056 12.7202 25.0107 12.3777C25.0157 12.0238 24.7864 12.0793 24.5838 12.0793C23.2221 12.0776 21.8595 12.0776 20.4978 12.0793C20.389 12.0793 20.281 12.0975 20.1655 12.1071H20.1647Z" fill="white"/>
</svg>
