<svg xmlns="http://www.w3.org/2000/svg" width="32" height="32"
                                                             viewBox="0 0 32 32" fill="none">
                                                            <path
                                                                d="M23.5119 23.1552L19.281 18.9243C20.1552 17.6068 20.6668 16.0293 20.6668 14.3334C20.6668 9.73837 16.9285 6 12.3334 6C7.73837 6 4 9.73837 4 14.3334C4 18.9285 7.73837 22.6668 12.3334 22.6668C14.0293 22.6668 15.6068 22.1552 16.9243 21.281L21.1552 25.5119C21.8052 26.1627 22.8619 26.1627 23.5119 25.5119C24.1627 24.861 24.1627 23.806 23.5119 23.1552ZM6.50003 14.3334C6.50003 11.1167 9.11672 8.50003 12.3334 8.50003C15.5501 8.50003 18.1668 11.1167 18.1668 14.3334C18.1668 17.5501 15.5501 20.1668 12.3334 20.1668C9.11672 20.1668 6.50003 17.5501 6.50003 14.3334Z"
                                                                fill="#FFC00B"/>
                                                        </svg>