<svg width="18" height="18" viewBox="0 0 18 18" fill="none" xmlns="http://www.w3.org/2000/svg">
<g clip-path="url(#clip0_1774_4619)">
<path d="M17.5607 15.4397L13.7529 11.6319C14.5397 10.4461 15.0002 9.02634 15.0002 7.50008C15.0002 3.36454 11.6356 0 7.50008 0C3.36454 0 0 3.36454 0 7.50008C0 11.6356 3.36454 15.0002 7.50008 15.0002C9.02634 15.0002 10.4461 14.5397 11.6319 13.7529L15.4397 17.5607C16.0247 18.1464 16.9757 18.1464 17.5607 17.5607C18.1464 16.9749 18.1464 16.0254 17.5607 15.4397ZM2.25002 7.50008C2.25002 4.60505 4.60505 2.25002 7.50008 2.25002C10.3951 2.25002 12.7501 4.60505 12.7501 7.50008C12.7501 10.3951 10.3951 12.7501 7.50008 12.7501C4.60505 12.7501 2.25002 10.3951 2.25002 7.50008Z" fill="#191919"/>
</g>
<defs>
<clipPath id="clip0_1774_4619">
<rect width="18" height="18" fill="white"/>
</clipPath>
</defs>
</svg>
