<svg width="20" height="20" viewBox="0 0 20 20" fill="none" xmlns="http://www.w3.org/2000/svg">
<g clip-path="url(#clip0_4292_10586)">
<path d="M19.7561 18.5776L14.782 13.6034C16.1375 11.9456 16.804 9.83014 16.6435 7.6947C16.4831 5.55926 15.508 3.56717 13.92 2.1305C12.3319 0.693821 10.2525 -0.0775273 8.11167 -0.0240008C5.97088 0.0295257 3.93256 0.903832 2.41832 2.41807C0.904076 3.93232 0.0297698 5.97064 -0.0237567 8.11143C-0.0772832 10.2522 0.694065 12.3317 2.13074 13.9197C3.56742 15.5077 5.5595 16.4828 7.69494 16.6433C9.83038 16.8037 11.9458 16.1372 13.6036 14.7817L18.5778 19.7559C18.735 19.9077 18.9455 19.9917 19.164 19.9898C19.3825 19.9879 19.5915 19.9003 19.746 19.7457C19.9005 19.5912 19.9881 19.3822 19.99 19.1637C19.9919 18.9452 19.9079 18.7347 19.7561 18.5776ZM8.33364 15.0001C7.0151 15.0001 5.72617 14.6091 4.62984 13.8765C3.53351 13.144 2.67903 12.1028 2.17444 10.8846C1.66986 9.66644 1.53784 8.326 1.79507 7.03279C2.05231 5.73959 2.68724 4.5517 3.61959 3.61935C4.55194 2.687 5.73983 2.05206 7.03304 1.79483C8.32624 1.53759 9.66669 1.66961 10.8849 2.1742C12.103 2.67878 13.1442 3.53327 13.8768 4.62959C14.6093 5.72592 15.0003 7.01485 15.0003 8.3334C14.9983 10.1009 14.2953 11.7954 13.0455 13.0452C11.7957 14.2951 10.1011 14.9981 8.33364 15.0001Z" fill="#151515"/>
</g>
<defs>
<clipPath id="clip0_4292_10586">
<rect width="20" height="20" fill="white"/>
</clipPath>
</defs>
</svg>
