<svg width="27" height="26" viewBox="0 0 27 26" fill="none" xmlns="http://www.w3.org/2000/svg">
<path d="M8.6104 24.6169C8.4667 24.9926 8.3415 25.3846 8.1619 25.7489C8.1014 25.8721 7.8858 26.0168 7.7647 25.9983C6.4337 25.7869 5.2073 25.3025 4.1153 24.5523C4.1092 24.4928 4.102 24.4743 4.1061 24.4599C4.2559 23.9796 4.612 23.4439 4.5002 23.0365C4.3832 22.6147 3.8249 22.3037 3.4329 21.9764C3.3241 21.885 3.1199 21.8943 2.9577 21.8871C2.88176 21.884 2.80171 21.9497 2.72371 21.9846C2.07853 22.2699 1.57806 22.1125 1.22228 21.5125C0.67323 20.5796 0.27504 19.5903 0.0841498 18.484C0.47003 18.3116 0.85591 18.1699 1.20484 17.9667C1.33517 17.8908 1.42754 17.6784 1.45422 17.5152C1.48809 17.3007 1.43164 17.0739 1.42856 16.8522C1.41967 16.2351 1.12239 15.8133 0.53674 15.5868C0.36432 15.5201 0.19396 15.4462 0 15.3672C0.1837 14.0084 0.63218 12.7697 1.37725 11.6439C1.44293 11.5444 1.69129 11.4859 1.82265 11.5218C2.21366 11.6295 2.58927 11.7948 2.79145 11.8707C3.2871 11.4469 3.7141 11.1041 4.1081 10.7264C4.1923 10.6464 4.2118 10.4226 4.1666 10.2985C4.0291 9.91666 3.8454 9.55027 3.673 9.16337C4.7619 8.31367 5.9688 7.77587 7.2793 7.47617C7.3984 7.44947 7.6683 7.62497 7.6991 7.74917C7.9166 8.62147 8.4164 8.86267 9.3134 8.79907C9.9456 8.75387 10.2822 8.62557 10.4094 8.00777C10.4566 7.77997 10.5788 7.56857 10.6773 7.32227C12.1284 7.52547 13.4318 8.02427 14.6489 8.85037C14.5012 9.24547 14.3329 9.61907 14.2313 10.0101C14.1923 10.1589 14.2651 10.3795 14.3626 10.5119C14.5012 10.7008 14.7157 10.8311 14.887 10.9974C15.3058 11.4031 15.7843 11.4865 16.3228 11.2478C16.5075 11.1657 16.6953 11.0907 16.9139 10.9994C17.7924 12.1611 18.362 13.4347 18.6422 14.8807C18.3107 15.0337 17.9977 15.2092 17.6641 15.3241C17.3152 15.4442 17.1756 15.6227 17.2526 16.0025C17.309 16.2837 17.3408 16.5905 17.2906 16.8686C17.2044 17.3438 17.4024 17.547 17.8314 17.6558C18.1249 17.7307 18.401 17.8723 18.7171 17.9965C18.5385 19.4497 18.0202 20.7428 17.2023 21.9743C16.8082 21.8255 16.4367 21.6562 16.0467 21.5546C15.8969 21.5156 15.6701 21.5843 15.5428 21.6849C15.3181 21.8635 15.1744 22.1488 14.9404 22.3089C14.4416 22.6516 14.4293 23.0252 14.729 23.4993C14.8634 23.7118 14.9342 23.9632 15.0441 24.2218C13.9552 25.0541 12.7596 25.6104 11.4419 25.8957C11.3238 25.9213 11.0611 25.7736 11.0375 25.6689C10.8251 24.6908 10.2247 24.4107 9.3 24.6118C9.0897 24.657 8.8618 24.619 8.6083 24.619L8.6104 24.6169ZM5.0975 16.6654C5.0872 19.032 6.9807 20.9521 9.3401 20.9665C11.6851 20.9809 13.6247 19.0587 13.635 16.7085C13.6453 14.3491 11.7426 12.428 9.3832 12.4136C7.0176 12.4003 5.1088 14.2937 5.0975 16.6644V16.6654Z" fill="#191919"/>
<path d="M17.6624 9.1975C17.3094 9.3946 16.9533 9.5936 16.5756 9.8051C15.8326 9.0703 15.3431 8.2113 15.0598 7.1819C15.5781 6.8238 16.1815 6.6595 16.1466 5.7195C16.1148 4.8451 15.7023 4.5444 15.0547 4.2458C15.3277 3.199 15.8254 2.33486 16.5756 1.59081C16.9564 1.80325 17.3125 2.00235 17.6583 2.19426C17.9498 2.01056 18.2033 1.77554 18.5019 1.67907C19.0694 1.4964 19.2162 1.13002 19.13 0.59636C19.0694 0.22177 19.2141 9.94861e-05 19.6113 9.94861e-05C20.3246 -0.000930514 21.0389 0.00625956 21.7521 0.0113896C22.1113 0.0144696 22.217 0.215619 22.177 0.545049C22.1585 0.696929 22.1349 0.866269 22.1842 1.00276C22.2478 1.18236 22.3453 1.38864 22.492 1.49127C22.8543 1.74373 23.2535 1.94282 23.6743 2.184C23.9935 2.0044 24.3465 1.8053 24.7293 1.58979C25.4775 2.31433 25.9578 3.1774 26.2533 4.214C25.7043 4.5526 25.1614 4.7743 25.1655 5.702C25.1696 6.6144 25.6714 6.8371 26.3713 7.2291C25.8592 8.124 25.3687 8.982 24.8915 9.8174C24.7006 9.764 24.6493 9.7579 24.6062 9.7353C24.2757 9.5639 23.9073 9.1996 23.6271 9.2591C23.1519 9.3597 22.7076 9.6932 22.3053 10.0011C22.1729 10.1027 22.1554 10.4362 22.1862 10.6497C22.2642 11.209 22.0128 11.4358 21.4945 11.4317C20.848 11.4255 20.2014 11.406 19.5559 11.3824C19.2542 11.3711 19.0746 11.2295 19.13 10.895C19.2336 10.2823 19.0633 9.8574 18.4065 9.6665C18.1407 9.5895 17.918 9.3638 17.6624 9.1975ZM18.5296 5.6928C18.5276 6.8658 19.4574 7.8172 20.6242 7.8367C21.8034 7.8562 22.7774 6.8905 22.7794 5.702C22.7815 4.5116 21.8127 3.5428 20.6335 3.5571C19.4697 3.5705 18.5327 4.5239 18.5296 5.6928Z" fill="#848484"/>
</svg>
