<svg xmlns="http://www.w3.org/2000/svg" width="40" height="40"
                                         viewBox="0 0 40 40" fill="none">
                                        <path
                                            d="M15.6104 31.617C15.4667 31.9927 15.3415 32.3847 15.1619 32.749C15.1014 32.8722 14.8858 33.0169 14.7647 32.9984C13.4337 32.787 12.2073 32.3026 11.1153 31.5524C11.1092 31.4929 11.102 31.4744 11.1061 31.46C11.2559 30.9797 11.612 30.444 11.5002 30.0366C11.3832 29.6148 10.8249 29.3038 10.4329 28.9765C10.3241 28.8851 10.1199 28.8944 9.9577 28.8872C9.88176 28.8841 9.80171 28.9498 9.72371 28.9847C9.07853 29.27 8.57806 29.1126 8.22228 28.5126C7.67323 27.5797 7.27504 26.5904 7.08415 25.4841C7.47003 25.3117 7.85591 25.17 8.20484 24.9668C8.33517 24.8909 8.42754 24.6785 8.45422 24.5153C8.48809 24.3008 8.43164 24.074 8.42856 23.8523C8.41967 23.2352 8.12239 22.8134 7.53674 22.5869C7.36432 22.5202 7.19396 22.4463 7 22.3673C7.1837 21.0085 7.63218 19.7698 8.37725 18.644C8.44293 18.5445 8.69129 18.486 8.82265 18.5219C9.21366 18.6296 9.58927 18.7949 9.79145 18.8708C10.2871 18.447 10.7141 18.1042 11.1081 17.7265C11.1923 17.6465 11.2118 17.4227 11.1666 17.2986C11.0291 16.9168 10.8454 16.5504 10.673 16.1635C11.7619 15.3138 12.9688 14.776 14.2793 14.4763C14.3984 14.4496 14.6683 14.6251 14.6991 14.7493C14.9166 15.6216 15.4164 15.8628 16.3134 15.7992C16.9456 15.754 17.2822 15.6257 17.4094 15.0079C17.4566 14.7801 17.5788 14.5687 17.6773 14.3224C19.1284 14.5256 20.4318 15.0244 21.6489 15.8505C21.5012 16.2456 21.3329 16.6192 21.2313 17.0102C21.1923 17.159 21.2651 17.3796 21.3626 17.512C21.5012 17.7009 21.7157 17.8312 21.887 17.9975C22.3058 18.4032 22.7843 18.4866 23.3228 18.2479C23.5075 18.1658 23.6953 18.0908 23.9139 17.9995C24.7924 19.1612 25.362 20.4348 25.6422 21.8808C25.3107 22.0338 24.9977 22.2093 24.6641 22.3242C24.3152 22.4443 24.1756 22.6228 24.2526 23.0026C24.309 23.2838 24.3408 23.5906 24.2906 23.8687C24.2044 24.3439 24.4024 24.5471 24.8314 24.6559C25.1249 24.7308 25.401 24.8724 25.7171 24.9966C25.5385 26.4498 25.0202 27.7429 24.2023 28.9744C23.8082 28.8256 23.4367 28.6563 23.0467 28.5547C22.8969 28.5157 22.6701 28.5844 22.5428 28.685C22.3181 28.8636 22.1744 29.1489 21.9404 29.309C21.4416 29.6517 21.4293 30.0253 21.729 30.4994C21.8634 30.7119 21.9342 30.9633 22.0441 31.2219C20.9552 32.0542 19.7596 32.6105 18.4419 32.8958C18.3238 32.9214 18.0611 32.7737 18.0375 32.669C17.8251 31.6909 17.2247 31.4108 16.3 31.6119C16.0897 31.6571 15.8618 31.6191 15.6083 31.6191L15.6104 31.617ZM12.0975 23.6655C12.0872 26.0321 13.9807 27.9522 16.3401 27.9666C18.6851 27.981 20.6247 26.0588 20.635 23.7086C20.6453 21.3492 18.7426 19.4281 16.3832 19.4137C14.0176 19.4004 12.1088 21.2938 12.0975 23.6645V23.6655Z"
                                            fill="#FFC00B" />
                                        <path
                                            d="M24.6624 16.1975C24.3094 16.3946 23.9533 16.5936 23.5756 16.8051C22.8326 16.0703 22.3431 15.2113 22.0598 14.1819C22.5781 13.8238 23.1815 13.6595 23.1466 12.7195C23.1148 11.8451 22.7023 11.5444 22.0547 11.2458C22.3277 10.199 22.8254 9.33486 23.5756 8.59081C23.9564 8.80325 24.3125 9.00235 24.6583 9.19426C24.9498 9.01056 25.2033 8.77554 25.5019 8.67907C26.0694 8.4964 26.2162 8.13002 26.13 7.59636C26.0694 7.22177 26.2141 7.0001 26.6113 7.0001C27.3246 6.99907 28.0389 7.00626 28.7521 7.01139C29.1113 7.01447 29.217 7.21562 29.177 7.54505C29.1585 7.69693 29.1349 7.86627 29.1842 8.00276C29.2478 8.18236 29.3453 8.38864 29.492 8.49127C29.8543 8.74373 30.2535 8.94282 30.6743 9.184C30.9935 9.0044 31.3465 8.8053 31.7293 8.58979C32.4775 9.31433 32.9578 10.1774 33.2533 11.214C32.7043 11.5526 32.1614 11.7743 32.1655 12.702C32.1696 13.6144 32.6714 13.8371 33.3713 14.2291C32.8592 15.124 32.3687 15.982 31.8915 16.8174C31.7006 16.764 31.6493 16.7579 31.6062 16.7353C31.2757 16.5639 30.9073 16.1996 30.6271 16.2591C30.1519 16.3597 29.7076 16.6932 29.3053 17.0011C29.1729 17.1027 29.1554 17.4362 29.1862 17.6497C29.2642 18.209 29.0128 18.4358 28.4945 18.4317C27.848 18.4255 27.2014 18.406 26.5559 18.3824C26.2542 18.3711 26.0746 18.2295 26.13 17.895C26.2336 17.2823 26.0633 16.8574 25.4065 16.6665C25.1407 16.5895 24.918 16.3638 24.6624 16.1975ZM25.5296 12.6928C25.5276 13.8658 26.4574 14.8172 27.6242 14.8367C28.8034 14.8562 29.7774 13.8905 29.7794 12.702C29.7815 11.5116 28.8127 10.5428 27.6335 10.5571C26.4697 10.5705 25.5317 11.5239 25.5286 12.6928H25.5296Z"
                                            fill="#FFD258" />
                                    </svg>