<svg width="20" height="20" viewBox="0 0 20 20" fill="none" xmlns="http://www.w3.org/2000/svg">
<g clip-path="url(#clip0_3648_4713)">
<path d="M20 10C20 10 20 10.0017 20 10.0025C19.9983 10.5633 19.7783 11.0892 19.3783 11.4825L15.9267 14.88C15.8458 14.96 15.74 15 15.6342 15C15.5267 15 15.4192 14.9583 15.3375 14.8758C15.1767 14.7125 15.1783 14.4483 15.3425 14.2867L18.7942 10.8892C18.9308 10.7542 19.0283 10.5925 19.0908 10.4175H5.41667C5.18667 10.4175 5 10.2308 5 10.0008C5 9.77083 5.18667 9.58417 5.41667 9.58417H19.0917C19.0292 9.40667 18.9317 9.24333 18.7933 9.1075L15.3425 5.71417C15.1783 5.55333 15.1758 5.28917 15.3375 5.125C15.4983 4.96 15.7625 4.95833 15.9267 5.12L19.3775 8.51333C19.7783 8.90833 20 9.435 20 9.99833C20 9.99833 20 9.99917 20 10ZM9.58333 12.5C9.35333 12.5 9.16667 12.6867 9.16667 12.9167V16.25C9.16667 17.8583 7.85833 19.1667 6.25 19.1667H3.75C2.14167 19.1667 0.833333 17.8583 0.833333 16.25V3.75C0.833333 2.14167 2.14167 0.833333 3.75 0.833333H6.25C7.85833 0.833333 9.16667 2.14167 9.16667 3.75V7.08333C9.16667 7.31333 9.35333 7.5 9.58333 7.5C9.81333 7.5 10 7.31333 10 7.08333V3.75C10 1.6825 8.3175 0 6.25 0H3.75C1.6825 0 0 1.6825 0 3.75V16.25C0 18.3175 1.6825 20 3.75 20H6.25C8.3175 20 10 18.3175 10 16.25V12.9167C10 12.6867 9.81333 12.5 9.58333 12.5Z" fill="#292929"/>
</g>
<defs>
<clipPath id="clip0_3648_4713">
<rect width="20" height="20" fill="white"/>
</clipPath>
</defs>
</svg>
