<svg xmlns="http://www.w3.org/2000/svg" width="27" height="20" viewBox="0 0 27 20" fill="none">
                                    <path d="M4 13V14V15.5H5H6H7V15V14L6.5 12.5H5L4 13Z" fill="#D2DCF8" />
                                    <path d="M13.1134 6.81998C17.2399 6.81998 21.3654 6.82907 25.4919 6.80862C25.9914 6.80634 26.1219 6.98136 26.1178 7.52005C26.0974 10.5862 26.1107 13.6536 26.1066 16.7198C26.1035 18.6325 24.8721 19.9974 23.1463 19.9985C16.4223 20.0008 9.69843 20.0008 2.97349 19.9985C1.24867 19.9985 0.017247 18.6302 0.0152082 16.7175C0.0111306 13.6513 0.0254021 10.584 0.00399486 7.51777C-8.27098e-05 6.97568 0.135497 6.80634 0.631941 6.80862C4.79209 6.82907 8.95223 6.81998 13.1124 6.81998H13.1134ZM6.53831 14.1036C6.53831 12.9956 6.31404 12.7274 5.38843 12.7262C4.31501 12.7251 4.08972 12.9535 4.08972 14.0502C4.08972 15.1946 4.30787 15.456 5.26508 15.4572C6.31608 15.4572 6.53933 15.2208 6.53933 14.1036H6.53831Z" fill="url(#paint0_linear_1830_3727)" />
                                    <path d="M13.0648 4.99905C8.92203 4.99905 4.77921 4.9911 0.63742 5.01042C0.149131 5.01269 -0.0414959 4.86154 0.00743502 4.30808C0.0594241 3.70802 -0.00479769 3.08751 0.102239 2.5045C0.376455 1.00095 1.50288 0.00539824 2.86785 0.00426177C9.65905 -0.00142059 16.4502 -0.00142059 23.2414 0.00426177C24.8592 0.00539824 26.0927 1.40326 26.1059 3.21706C26.109 3.57619 26.0805 3.93872 26.1121 4.29558C26.16 4.83199 25.9958 5.01723 25.4923 5.01155C23.0304 4.98428 20.5686 4.99905 18.1068 4.99905C16.4258 4.99905 14.7448 4.99905 13.0648 4.99905Z" fill="url(#paint1_linear_1830_3727)" />
                                    <defs>
                                      <linearGradient id="paint0_linear_1830_3727" x1="0.00195321" y1="7" x2="26.002" y2="20" gradientUnits="userSpaceOnUse">
                                        <stop stop-color="#2498F0" />
                                        <stop offset="1" stop-color="#2437CE" />
                                      </linearGradient>
                                      <linearGradient id="paint1_linear_1830_3727" x1="0" y1="0" x2="26" y2="5" gradientUnits="userSpaceOnUse">
                                        <stop stop-color="#21A7F6" />
                                        <stop offset="1" stop-color="#276BD3" />
                                      </linearGradient>
                                    </defs>
                                  </svg>