<svg width="22" height="22" viewBox="0 0 22 22" fill="none" xmlns="http://www.w3.org/2000/svg">
                                                      <g fill="#000">
                                                        <path d="M20.954 20.867c-.028-.066-1.687-14.473-1.759-15.195-.046-.474-.377-.802-.847-.803-.947-.002-1.895-.007-2.842.004a.376.376 0 0 1-.174-.028c-.07-.037-.093-.11-.09-.24.004-.255.001-.51-.013-.765a6.17 6.17 0 0 0-.151-1.08A3.877 3.877 0 0 0 13.954.942L13.95.94c-.56-.495-1.243-.79-2.004-.905a3.401 3.401 0 0 0-1.807.24A3.855 3.855 0 0 0 8.99.99l-.003.003a3.893 3.893 0 0 0-1.158 2.16 8.617 8.617 0 0 0-.061.95l-.011.526c-.003.12-.026.186-.092.218a.34.34 0 0 1-.152.024c-.962-.008-1.925-.002-2.887-.003-.306 0-.561.132-.685.396C3.824 5.517 2.047 20.024 2 20.5c.015-.057-.005.057 0 0-.088.335.03 1.005.257 1.265.208.239.477.23.748.23 1.417 0 16.428-.028 17.21.005.552.022.785-.5.74-1.133ZM11.5 1.491c.037 0 .074.001.11.003 1.106.06 1.985 1.008 1.985 2.169v1.07c-.02.102-.092.132-.215.134h-.03l-3.655-.004c-.23 0-.285 0-.291-.156V3.663c0-1.161.879-2.109 1.985-2.169.036-.002.073-.003.11-.003ZM3.71 20.335C3.716 20.182 5.295 6.7 5.339 6.49h12.332c.044.283 1.618 13.697 1.625 13.845H3.709Z"/>
                                                        <path d="M10.467 12.592c-.131.144-.3.245-.41.412-.153.229-.049.517-.033.77.071 1.117.2 2.241.055 3.359-.026.199-.062.402-.155.572-.094.17-.256.304-.43.295-.296-.015-.466-.392-.536-.723-.246-1.163-.071-2.454.022-3.632 0-.014.13-.47-.276-.903-.324-.345-.582-.696-.678-1.165-.06-.298 0-.63.015-.946.006-.128.041-.254.055-.382.035-.328.057-.657.102-.983.026-.187.164-.257.312-.266.14-.008.274.151.265.317-.019.345-.054.69-.076 1.034-.014.223-.022.447-.025.671-.002.106.01.23.087.302.085.082.23.083.324.022.103-.067.146-.19.15-.32.01-.535.01-1.07.017-1.606.004-.263.094-.375.293-.375.186-.002.287.106.289.324.005.55-.004 1.1.02 1.649.005.115.07.237.147.309.082.076.199.1.287.027a.416.416 0 0 0 .098-.132c.032-.064.017-.141.013-.212a43.248 43.248 0 0 0-.012-.258l-.027-.515c-.016-.324-.044-.648-.04-.972a.256.256 0 0 1 .266-.26c.137.002.287.065.3.25.048.69.093 1.38.113 2.071.016.519-.218.921-.532 1.266Zm3.532 1.628a.632.632 0 0 1-.05.308c-.055.1-.152.115-.244.122-.133.01-.26.008-.39-.005-.097-.01-.121.078-.118.177.021.764.119 1.583.024 2.343-.052.418-.266.924-.687.822a.41.41 0 0 1-.225-.144.811.811 0 0 1-.12-.25c-.22-.665-.2-1.41-.171-2.114.03-.75.106-1.497.119-2.248.023-1.302-.03-2.604-.003-3.905 0-.051-.005-.103.002-.153.02-.142.138-.216.235-.147.455.322.881.686 1.19 1.212.274.465.435.973.438 1.553.005.824-.015 1.605 0 2.43Z"/>
                                                      </g>
                                                    </svg>