<svg width="23" height="23" viewBox="0 0 23 23" fill="none" xmlns="http://www.w3.org/2000/svg">
<g id="Group 1739">
<path id="Vector" d="M21.9711 1.53985C22.0128 1.41479 21.9918 1.27731 21.9148 1.17034C21.8377 1.06337 21.7139 1 21.5821 1H9.60548C9.47367 1 9.34984 1.06337 9.27277 1.17034C9.1957 1.27727 9.1747 1.41479 9.21635 1.53985L9.99958 3.88939C9.48102 6.01042 9.19535 8.45171 9.19535 10.7806V11.8718C8.29956 11.498 7.29325 11.3359 6.32422 11.3359C2.90996 11.3359 0.992188 13.2476 0.992188 14.6172C0.992188 15.0634 1.27577 15.757 1.8125 16.1V17.1487C1.33512 17.318 0.992188 17.7739 0.992188 18.3086C0.992188 18.8433 1.33512 19.2992 1.8125 19.4685V19.9492C1.8125 21.08 2.73248 22 3.86328 22H19.7481C19.9745 22 20.1582 21.8163 20.1582 21.5899C20.1582 21.3633 19.9745 21.1797 19.7481 21.1797H10.4247C10.6828 20.8367 10.8359 20.4106 10.8359 19.9492V19.4685C11.3133 19.2992 11.6563 18.8433 11.6563 18.3086C11.6563 17.7739 11.3133 17.318 10.8359 17.1486V16.1C11.3727 15.757 11.6563 15.0633 11.6563 14.6172C11.6563 13.8174 11.0193 12.9239 10.0156 12.2939V10.7806C10.0156 8.58737 10.2755 6.29368 10.7489 4.28125H20.4385C20.9119 6.2936 21.1719 8.5873 21.1719 10.7806V21.1797H17.4395C17.2129 21.1797 17.0293 21.3633 17.0293 21.5899C17.0293 21.8163 17.2129 22 17.4395 22H21.5821C21.8085 22 21.9922 21.8163 21.9922 21.5899V10.7806C21.9922 8.45157 21.7065 6.01035 21.188 3.88939L21.9711 1.53985ZM11.9023 1.82032V2.23047C11.9023 2.45696 12.086 2.64062 12.3125 2.64062C12.539 2.64062 12.7226 2.45696 12.7226 2.23047V1.82032H15.1836V2.23047C15.1836 2.45696 15.3672 2.64062 15.5938 2.64062C15.8202 2.64062 16.0039 2.45696 16.0039 2.23047V1.82032H18.4648V2.23047C18.4648 2.45696 18.6485 2.64062 18.875 2.64062C19.1015 2.64062 19.2851 2.45696 19.2851 2.23047V1.82032H21.013L20.466 3.46093H10.7214L10.1746 1.82032H11.9023ZM3.86328 21.1797C3.1848 21.1797 2.63281 20.6277 2.63281 19.9492V19.5391H10.0156V19.9492C10.0156 20.6277 9.46366 21.1797 8.78515 21.1797H3.86328ZM10.4258 18.7188H2.22265C1.9965 18.7188 1.8125 18.5347 1.8125 18.3086C1.8125 18.0825 1.9965 17.8984 2.22265 17.8984H10.4258C10.6519 17.8984 10.8359 18.0825 10.8359 18.3086C10.8359 18.5347 10.6519 18.7188 10.4258 18.7188ZM10.0156 17.0782H9.03862L8.62849 16.2578H10.0156V17.0782ZM7.71137 16.2578L8.12155 17.0782H6.98785L6.5777 16.2578H7.71137ZM5.66059 16.2578L6.07074 17.0782H4.93707L4.52691 16.2578H5.66059ZM3.6098 16.2578L4.01996 17.0782H2.63281V16.2578H3.6098ZM10.8359 14.6172C10.8359 14.8344 10.6504 15.2881 10.3439 15.4375H2.30453C1.99801 15.2881 1.8125 14.8344 1.8125 14.6172C1.8125 14.0072 2.5982 12.9589 4.27344 12.4468V13.3867C4.27344 13.6132 4.45706 13.7968 4.6836 13.7968C4.91012 13.7968 5.09375 13.6132 5.09375 13.3867V12.2552C5.35933 12.2111 5.63331 12.1812 5.91406 12.1668V14.207C5.91406 14.4335 6.09769 14.6172 6.32422 14.6172C6.55075 14.6172 6.73437 14.4335 6.73437 14.207V12.1668C7.01513 12.1813 7.28915 12.2111 7.55469 12.2553V13.3867C7.55469 13.6132 7.73831 13.7968 7.96485 13.7968C8.19141 13.7968 8.37502 13.6132 8.37502 13.3867V12.4478C9.49691 12.7933 10.8359 13.6856 10.8359 14.6172Z" fill="#727272" stroke="#727272" stroke-width="0.2"/>
<path id="Vector_2" d="M17.2343 5.10156H13.9531C13.7266 5.10156 13.543 5.28523 13.543 5.51171C13.543 5.73821 13.7266 5.92187 13.9531 5.92187H17.2343C17.4609 5.92187 17.6445 5.73821 17.6445 5.51171C17.6445 5.28523 17.4609 5.10156 17.2343 5.10156Z" fill="#727272" stroke="#727272" stroke-width="0.2"/>
<path id="Vector_3" d="M13.9531 18.4727C14.1797 18.4727 14.3633 18.289 14.3633 18.0625V14.3076C15.3253 14.0078 16.0039 12.6921 16.0039 11.5V9.03911C16.0039 8.81259 15.8202 8.62891 15.5938 8.62891C15.3673 8.62891 15.1836 8.81259 15.1836 9.03911V11.0899H14.3633V9.03911C14.3633 8.81259 14.1797 8.62891 13.9531 8.62891C13.7267 8.62891 13.543 8.81259 13.543 9.03911V11.0899H12.7227V9.03911C12.7227 8.81259 12.539 8.62891 12.3125 8.62891C12.086 8.62891 11.9023 8.81259 11.9023 9.03911V11.5C11.9023 12.6921 12.5809 14.0077 13.543 14.3076V18.0625C13.543 18.289 13.7267 18.4727 13.9531 18.4727ZM12.757 11.9098H15.1494C15.0105 12.7658 14.4692 13.5508 13.9531 13.5508C13.4372 13.5508 12.8958 12.7658 12.757 11.9098Z" fill="#727272" stroke="#727272" stroke-width="0.2"/>
<path id="Vector_4" d="M16.8242 9.03911V18.0625C16.8242 18.289 17.0079 18.4727 17.2343 18.4727C17.4609 18.4727 17.6445 18.289 17.6445 18.0625V15.6016C17.6445 14.9231 18.1965 14.3711 18.875 14.3711C19.1015 14.3711 19.2851 14.1875 19.2851 13.9609V10.6797C19.2851 9.54892 18.3652 8.62891 17.2343 8.62891C17.0079 8.62891 16.8242 8.81259 16.8242 9.03911ZM17.6445 9.51952C18.122 9.68885 18.4648 10.145 18.4648 10.6797V13.592C18.162 13.6538 17.883 13.7825 17.6445 13.9619V9.51952Z" fill="#727272" stroke="#727272" stroke-width="0.2"/>
</g>
</svg>
