<svg width="37" height="24" viewBox="0 0 37 24" fill="none" xmlns="http://www.w3.org/2000/svg">
<g clip-path="url(#clip0_4292_10588)">
<path d="M0.964809 1.50147C0.964809 0.671156 1.63746 0 2.46627 0L35.4985 0C36.3273 0 37 0.671156 37 1.50147C37 2.33178 36.3273 3.00293 35.4985 3.00293L2.46627 3.00293C1.63746 3.00293 0.964809 2.33178 0.964809 1.50147ZM2.46627 24.0235L35.4985 24.0235C36.3273 24.0235 37 23.3523 37 22.522C37 21.6917 36.3273 21.0205 35.4985 21.0205L2.46627 21.0205C1.63746 21.0205 0.964809 21.6917 0.964809 22.522C0.964809 23.3523 1.63746 24.0235 2.46627 24.0235ZM2.46627 13.5132L35.4985 13.5132C36.3273 13.5132 37 12.842 37 12.0117C37 11.1814 36.3273 10.5103 35.4985 10.5103L2.46627 10.5103C1.63746 10.5103 0.964809 11.1814 0.964809 12.0117C0.964809 12.842 1.63746 13.5132 2.46627 13.5132Z" fill="black"/>
</g>
<defs>
<clipPath id="clip0_4292_10588">
<rect width="24" height="36.0352" fill="white" transform="matrix(0 1 -1 0 37 0)"/>
</clipPath>
</defs>
</svg>
