<svg width="90" height="90" viewBox="0 0 90 90" fill="none" xmlns="http://www.w3.org/2000/svg">
<mask id="mask0_4296_10602" style="mask-type:luminance" maskUnits="userSpaceOnUse" x="0" y="0" width="90" height="90">
<path d="M90 0H0V90H90V0Z" fill="white"/>
</mask>
<g mask="url(#mask0_4296_10602)">
<path d="M84 0H6C2.68629 0 0 2.68629 0 6V84C0 87.3137 2.68629 90 6 90H84C87.3137 90 90 87.3137 90 84V6C90 2.68629 87.3137 0 84 0Z" fill="#D8D8D8"/>
<path d="M45.4898 35.4084C48.1166 35.4084 50.7434 35.4402 53.3682 35.3916C54.2385 35.3747 54.8313 35.5769 55.3822 36.2582C57.5899 38.9853 60.1648 41.4916 62.055 44.3947C65.5002 49.6861 66.0591 55.3538 63.0052 61.0271C61.1149 64.5385 57.8933 66.7172 53.959 67.9076C47.4619 69.8748 41.0046 69.77 34.753 67.0616C29.0123 64.574 25.7747 59.2508 26.0122 53.3136C26.2038 48.52 28.1201 44.4546 31.4415 40.8852C32.9266 39.2886 34.3078 37.6096 35.7969 36.0167C36.0943 35.6985 36.6632 35.4459 37.1123 35.4384C39.9028 35.386 42.6973 35.4122 45.4898 35.4122V35.4084ZM50.0807 48.1981C49.6835 47.4326 49.4839 46.4424 48.8471 45.9501C47.5357 44.9356 46.6355 43.9286 46.8351 42.2066C46.9129 41.5365 46.1944 41.1341 45.4518 41.1341C44.7093 41.1341 44.1724 41.5066 44.0406 42.2141C43.9488 42.7008 43.9388 43.2099 43.9688 43.704C44.0047 44.2918 43.833 44.6362 43.2242 44.945C41.5356 45.7966 40.7511 47.3801 41.0485 49.1957C41.3399 50.972 42.4677 52.1026 44.3041 52.5874C44.8091 52.7203 45.4279 52.6285 45.8411 52.87C46.2862 53.1302 46.7952 53.6468 46.8251 54.0791C46.8551 54.5134 46.4359 55.1685 46.0147 55.3781C45.6335 55.5691 44.9029 55.4156 44.4817 55.176C44.1624 54.9944 44.0326 54.4497 43.9169 54.0417C43.6713 53.1751 43.0306 52.6529 42.2541 52.7652C41.3998 52.8887 40.9068 53.5644 40.9886 54.4928C41.1164 55.934 41.835 57.0646 43.1803 57.7422C43.821 58.0641 43.9787 58.4328 43.9747 59.0543C43.9668 60.1717 44.5496 60.7838 45.4778 60.7688C46.392 60.7538 46.9549 60.1361 46.9309 59.0075C46.9169 58.3598 47.1644 58.0454 47.7573 57.7122C50.4759 56.1867 50.6955 52.6173 48.1206 50.8747C47.3361 50.3431 46.2463 50.1672 45.2682 49.9388C44.4199 49.7423 43.9708 49.2931 43.9668 48.5238C43.9628 47.7751 44.4678 47.3128 45.2303 47.1612C46.0487 46.9964 46.6814 47.5523 46.9289 48.5987C47.1625 49.5757 47.7433 50.0249 48.6395 49.9201C49.4699 49.8228 49.913 49.2388 50.0807 48.2V48.1981Z" fill="#151515"/>
<path d="M37.8758 32.1847C37.6103 29.0027 36.7281 26.0322 35.271 23.1928C35.0414 22.7435 35.1612 21.9499 35.4486 21.497C35.8498 20.8643 36.6243 20.913 37.3209 21.2424C38.7122 21.8994 40.1174 22.5339 41.4927 23.2208C41.9877 23.4679 42.3131 23.4398 42.6883 23.0355C43.1893 22.4965 43.7422 21.9967 44.3071 21.5138C45.1055 20.8306 45.8022 20.8287 46.5986 21.5082C47.1635 21.9911 47.7144 22.4927 48.2174 23.0299C48.5887 23.4267 48.91 23.4735 49.411 23.2227C50.7564 22.5507 52.1377 21.9387 53.493 21.2854C54.2155 20.9373 54.9002 20.8811 55.495 21.4689C56.0539 22.0229 55.9841 22.6593 55.6407 23.2863C54.1177 26.064 53.3093 29.027 53.0259 32.1809H37.8758V32.1847Z" fill="#151515"/>
</g>
</svg>
