<svg width="35" height="32" viewBox="0 0 35 32" fill="none" xmlns="http://www.w3.org/2000/svg">
<path d="M15.3167 26.1452C12.7386 26.1452 10.1605 26.1412 7.58371 26.1462C5.79287 26.1502 4.34059 25.6227 3.24969 24.5675C2.3321 23.6791 1.9519 22.6542 2.21388 21.5384C2.66528 19.6161 4.65764 18.4366 6.75076 18.2163C7.00333 18.19 7.26262 18.188 7.51922 18.1869C9.60563 18.1849 11.6934 18.1829 13.7798 18.1859C14.8236 18.1869 15.6996 17.907 16.3727 17.3056C17.9311 15.9129 17.035 13.8015 14.6839 13.3285C14.4031 13.2719 14.1009 13.2527 13.808 13.2507C12.7252 13.2416 11.6437 13.2466 10.5608 13.2466C10.3405 13.2466 10.3432 13.2466 10.3754 13.0839C10.4574 12.6705 10.4722 12.2562 10.3539 11.8448C10.319 11.7235 10.4184 11.7346 10.5165 11.7346C11.6329 11.7346 12.748 11.7346 13.8644 11.7367C14.0149 11.7367 14.1667 11.7367 14.3158 11.7498C16.3579 11.9307 17.8088 12.7342 18.6821 14.1239C19.7582 15.8371 18.8863 17.8999 16.9638 18.9248C15.9911 19.4432 14.919 19.703 13.7233 19.6979C11.6369 19.6878 9.5492 19.6949 7.4628 19.6959C6.78301 19.6959 6.14352 19.8192 5.58732 20.1194C4.54748 20.6803 4.06921 21.4434 4.16997 22.4096C4.27341 23.4042 5.28638 24.3825 6.83271 24.5887C7.11618 24.6261 7.4104 24.6322 7.69925 24.6322C13.0328 24.6342 5.56771 24.6322 10.9013 24.6322C11.1364 24.6322 18.9624 24.7251 18.9624 24.7251C18.9624 25.3177 18.9624 26.1442 18.9624 26.1442C18.9624 26.1442 11.0894 26.1452 10.9872 26.1442C10.6353 26.1422 10.2846 26.1422 9.93263 26.1422C7.46065 26.1422 17.7887 26.1422 15.3167 26.1422V26.1452Z" fill="#FFC00B"/>
<path d="M20.6906 24.7776V24.6332C20.6906 22.7434 20.6901 20.8535 20.692 18.9637C20.692 18.8755 20.6734 18.8272 20.5843 18.7848C20.2239 18.613 20.0326 18.3176 20.0081 17.9203C19.9976 17.7502 20.0035 17.5789 20.0066 17.4083C20.0074 17.3666 20.0205 17.3218 20.0393 17.2842C20.3425 16.6774 20.6491 16.0726 20.9517 15.4653C21.1061 15.1556 21.3562 15.0087 21.6973 15.0082C22.2769 15.0075 22.8565 15.0079 23.4364 15.0079C23.4833 15.0079 23.5305 15.0079 23.5962 15.0079C23.5962 14.8088 23.5974 14.6196 23.5958 14.4307C23.5948 14.3157 23.6174 14.2104 23.7003 14.1244C23.7885 14.0331 23.8971 14 24.0227 14C25.3486 14.0012 26.6748 14.0005 28.0008 14.001C28.2314 14.001 28.3915 14.1501 28.4015 14.3816C28.4086 14.552 28.4034 14.723 28.4044 14.8938C28.4044 14.9253 28.4075 14.9565 28.4098 15.001C28.4592 15.0034 28.5047 15.0077 28.5502 15.0077C29.1379 15.0077 29.7253 15.0065 30.313 15.0067C30.6513 15.0067 30.8945 15.1587 31.0458 15.4627C31.346 16.0661 31.6495 16.6679 31.9489 17.2718C31.9742 17.3225 31.9909 17.3842 31.9894 17.4402C31.9825 17.7039 32.0283 17.9717 31.9265 18.2288C31.7774 18.6059 31.5027 18.8241 31.1018 18.8741C31.0141 18.8851 30.9908 18.911 30.9908 18.9968C30.9929 20.8866 30.9925 22.7765 30.9927 24.6663C30.9927 24.6973 30.9967 24.7283 31.0001 24.7759C31.1268 24.7759 31.2483 24.7759 31.37 24.7759C31.4694 24.7759 31.5687 24.7728 31.6678 24.7783C31.8594 24.7888 31.9801 24.9043 31.9873 25.094C31.9944 25.2881 31.9942 25.4832 31.9873 25.6774C31.9806 25.8646 31.8553 25.9849 31.6693 25.9985C31.6376 26.0009 31.6056 25.9997 31.574 25.9997C27.8579 25.9997 24.1415 25.9997 20.4254 25.9997C20.3897 25.9997 20.3537 26.0009 20.3182 25.9978C20.1315 25.9814 20.0112 25.8584 20.0066 25.6702C20.0021 25.4797 20.0021 25.2891 20.0066 25.0985C20.0109 24.9117 20.1319 24.7888 20.3213 24.7786C20.439 24.7721 20.5572 24.7776 20.6906 24.7776ZM22.8632 19.6703C22.4585 19.6703 22.0737 19.6703 21.6888 19.6703C21.4953 19.6703 21.4579 19.7065 21.4577 19.8963C21.457 21.4763 21.4562 23.0559 21.4558 24.6359C21.4558 24.6785 21.4558 24.7209 21.4558 24.7793C21.5156 24.7793 21.5618 24.7793 21.6082 24.7793C23.3151 24.7793 25.022 24.7797 26.7289 24.7797C26.8337 24.7797 26.8861 24.725 26.8861 24.6156C26.884 23.0795 26.8821 21.5434 26.8799 20.0071C26.8799 19.9554 26.8819 19.9037 26.8792 19.8523C26.8726 19.7165 26.824 19.6703 26.6872 19.6703C26.318 19.6698 25.949 19.6698 25.5797 19.6703C25.5456 19.6703 25.5113 19.6753 25.4675 19.6786C25.4675 19.968 25.4623 20.2494 25.4708 20.5303C25.4732 20.6079 25.504 20.6918 25.5442 20.7594C25.6395 20.9195 25.7498 21.0706 25.8508 21.2271C25.9158 21.3276 25.8868 21.3903 25.7701 21.3917C25.4487 21.3955 25.1271 21.3953 24.8055 21.3917C24.6892 21.3903 24.6592 21.3276 24.7233 21.2271C24.8 21.1065 24.8755 20.9846 24.9634 20.8724C25.0737 20.7316 25.1206 20.5822 25.1099 20.4009C25.0959 20.161 25.1064 19.9197 25.1064 19.6805H23.226C23.226 19.9966 23.2244 20.3023 23.2282 20.6077C23.2287 20.6475 23.2522 20.6908 23.2751 20.7258C23.383 20.8924 23.4955 21.0556 23.6039 21.2216C23.6737 21.3286 23.6451 21.391 23.5217 21.3922C23.2041 21.3955 22.8866 21.3953 22.569 21.3922C22.4435 21.391 22.4149 21.3307 22.4847 21.2235C22.5931 21.0575 22.7053 20.8938 22.8137 20.7278C22.8349 20.6954 22.8604 20.6572 22.8608 20.6217C22.8646 20.3092 22.8632 19.9974 22.8632 19.6703ZM27.6797 24.7695C27.7335 24.7721 27.7721 24.7755 27.8109 24.7755C28.5452 24.7757 29.2794 24.7736 30.0133 24.7781C30.1222 24.7788 30.1532 24.7497 30.1529 24.6392C30.1494 23.0598 30.1506 21.4803 30.1503 19.9009C30.1503 19.7074 30.1141 19.671 29.9219 19.671C29.2513 19.671 28.5806 19.671 27.9098 19.671C27.7128 19.671 27.6797 19.7036 27.6797 19.8963C27.6797 21.4758 27.6797 23.0552 27.6797 24.6347C27.6797 24.674 27.6797 24.713 27.6797 24.7695Z" fill="#FFC00B"/>
<g clip-path="url(#clip0_476_24273)">
<path d="M4.84138 12.9983C3.35176 12.9983 1.86215 12.9983 0.372957 12.9978C0.328575 12.9978 0.282899 12.9939 0.24024 12.9832C0.0976128 12.9474 0.00195312 12.8212 0.00195312 12.6703C0.00195312 12.1128 0.109247 11.5763 0.323835 11.0614C0.574618 10.4585 0.941314 9.93628 1.42995 9.50452C1.97461 9.02364 2.60071 8.69572 3.31428 8.53974C3.59177 8.47898 3.87143 8.44537 4.15496 8.44408C4.59706 8.44192 5.0396 8.43934 5.4817 8.44408C6.64168 8.457 7.6293 8.87799 8.44887 9.69972C8.79574 10.0475 9.06506 10.4482 9.27318 10.889C9.46579 11.2966 9.59549 11.7254 9.63858 12.177C9.65367 12.3373 9.66401 12.498 9.66918 12.6587C9.67478 12.8466 9.53689 12.9883 9.34773 12.9974C9.32791 12.9983 9.30852 12.9974 9.28869 12.9974C7.8064 12.9974 6.32411 12.9974 4.84138 12.9974V12.9983Z" fill="#FFC00B"/>
<path d="M7.73444 4.95417C7.70212 6.5541 6.38443 7.83861 4.76081 7.80069C3.25783 7.76536 1.913 6.52135 1.93583 4.85808C1.95781 3.26203 3.27421 1.97537 4.88275 2.00036C6.48096 2.02578 7.76547 3.35554 7.73401 4.95374L7.73444 4.95417Z" fill="#FFC00B"/>
</g>
<defs>
<clipPath id="clip0_476_24273">
<rect width="9.66722" height="11" fill="white" transform="translate(0.00195312 2)"/>
</clipPath>
</defs>
</svg>
