<svg width="102" height="102" viewBox="0 0 102 102" fill="none" xmlns="http://www.w3.org/2000/svg">
<g id="Frame 2748">
<g id="Group 3079">
<g id="Rectangle 5698" filter="url(#filter0_d_476_26862)">
<path d="M6 14C6 8.47715 10.4772 4 16 4H86C91.5229 4 96 8.47715 96 14V84C96 89.5229 91.5229 94 86 94H16C10.4772 94 6 89.5229 6 84V14Z" fill="white"/>
</g>
<g id="Group 3054">
<path id="Vector" d="M80.9976 48.5807C80.9561 64.8539 67.6402 78.0712 51.3606 77.9997C35.1363 77.9306 21.9586 64.6534 22.0001 48.4216C22.0416 32.1484 35.3575 18.9288 51.6371 19.0003C67.8614 19.0717 81.0391 32.3466 80.9999 48.5807H80.9976ZM76.4138 48.5184C76.423 34.7688 65.2642 23.5958 51.5173 23.5866C37.7704 23.5774 26.5955 34.7365 26.5862 48.4839C26.577 62.2335 37.7358 73.4065 51.4827 73.4157C65.2296 73.425 76.4046 62.2658 76.4138 48.5184Z" fill="#FFC00B"/>
<path id="Vector_2" d="M49.2073 41.7842C49.2073 39.6753 49.2004 37.5641 49.2096 35.4552C49.2188 33.7681 50.0946 32.7171 51.4798 32.7033C52.8695 32.6894 53.7868 33.745 53.7914 35.4137C53.803 39.0576 53.8306 42.7038 53.7707 46.3455C53.7546 47.2651 54.0772 47.7998 54.7917 48.3184C57.1817 50.0516 59.5371 51.8355 61.8834 53.6287C62.9182 54.4192 63.1855 55.5647 62.6647 56.5765C62.1761 57.5284 61.0813 58.0309 60.0373 57.7174C59.6455 57.5999 59.2744 57.3625 58.9402 57.1159C56.11 55.0093 53.2982 52.8773 50.4611 50.7799C49.583 50.13 49.1796 49.3233 49.1958 48.2285C49.228 46.0804 49.205 43.9323 49.205 41.7842H49.2073Z" fill="#292929"/>
</g>
</g>
</g>
<defs>
<filter id="filter0_d_476_26862" x="0" y="0" width="102" height="102" filterUnits="userSpaceOnUse" color-interpolation-filters="sRGB">
<feFlood flood-opacity="0" result="BackgroundImageFix"/>
<feColorMatrix in="SourceAlpha" type="matrix" values="0 0 0 0 0 0 0 0 0 0 0 0 0 0 0 0 0 0 127 0" result="hardAlpha"/>
<feOffset dy="2"/>
<feGaussianBlur stdDeviation="3"/>
<feComposite in2="hardAlpha" operator="out"/>
<feColorMatrix type="matrix" values="0 0 0 0 0 0 0 0 0 0 0 0 0 0 0 0 0 0 0.12 0"/>
<feBlend mode="normal" in2="BackgroundImageFix" result="effect1_dropShadow_476_26862"/>
<feBlend mode="normal" in="SourceGraphic" in2="effect1_dropShadow_476_26862" result="shape"/>
</filter>
</defs>
</svg>
