<svg width="35" height="32" viewBox="0 0 35 32" fill="none" xmlns="http://www.w3.org/2000/svg">
<path d="M15.3167 26.1452C12.7386 26.1452 10.1605 26.1412 7.58371 26.1462C5.79287 26.1502 4.34059 25.6227 3.24969 24.5675C2.3321 23.6791 1.9519 22.6542 2.21388 21.5384C2.66528 19.6161 4.65764 18.4366 6.75076 18.2163C7.00333 18.19 7.26262 18.188 7.51922 18.1869C9.60563 18.1849 11.6934 18.1829 13.7798 18.1859C14.8236 18.1869 15.6996 17.907 16.3727 17.3056C17.9311 15.9129 17.035 13.8015 14.6839 13.3285C14.4031 13.2719 14.1009 13.2527 13.808 13.2507C12.7252 13.2416 11.6437 13.2466 10.5608 13.2466C10.3405 13.2466 10.3432 13.2466 10.3754 13.0839C10.4574 12.6705 10.4722 12.2562 10.3539 11.8448C10.319 11.7235 10.4184 11.7346 10.5165 11.7346C11.6329 11.7346 12.748 11.7346 13.8644 11.7367C14.0149 11.7367 14.1667 11.7367 14.3158 11.7498C16.3579 11.9307 17.8088 12.7342 18.6821 14.1239C19.7582 15.8371 18.8863 17.8999 16.9638 18.9248C15.9911 19.4432 14.919 19.703 13.7233 19.6979C11.6369 19.6878 9.5492 19.6949 7.4628 19.6959C6.78301 19.6959 6.14352 19.8192 5.58732 20.1194C4.54748 20.6803 4.06921 21.4434 4.16997 22.4096C4.27341 23.4042 5.28638 24.3825 6.83271 24.5887C7.11618 24.6261 7.4104 24.6322 7.69925 24.6322C13.0328 24.6342 5.56771 24.6322 10.9013 24.6322C11.1364 24.6322 18.9624 24.7251 18.9624 24.7251C18.9624 25.3177 18.9624 26.1442 18.9624 26.1442C18.9624 26.1442 11.0894 26.1452 10.9872 26.1442C10.6353 26.1422 10.2846 26.1422 9.93263 26.1422C7.46065 26.1422 17.7887 26.1422 15.3167 26.1422V26.1452Z" fill="#828282"/>
<path d="M20.6907 24.7776V24.6332C20.6907 22.7434 20.6902 20.8535 20.6921 18.9637C20.6921 18.8755 20.6735 18.8272 20.5844 18.7848C20.224 18.613 20.0327 18.3176 20.0082 17.9203C19.9977 17.7502 20.0036 17.5789 20.0067 17.4083C20.0075 17.3666 20.0206 17.3218 20.0394 17.2842C20.3426 16.6774 20.6492 16.0726 20.9518 15.4653C21.1062 15.1556 21.3563 15.0087 21.6974 15.0082C22.277 15.0075 22.8566 15.0079 23.4365 15.0079C23.4834 15.0079 23.5306 15.0079 23.5963 15.0079C23.5963 14.8088 23.5975 14.6196 23.5959 14.4307C23.5949 14.3157 23.6175 14.2104 23.7004 14.1244C23.7886 14.0331 23.8972 14 24.0228 14C25.3487 14.0012 26.6749 14.0005 28.0009 14.001C28.2315 14.001 28.3916 14.1501 28.4016 14.3816C28.4087 14.552 28.4035 14.723 28.4045 14.8938C28.4045 14.9253 28.4076 14.9565 28.4099 15.001C28.4593 15.0034 28.5048 15.0077 28.5503 15.0077C29.138 15.0077 29.7254 15.0065 30.3131 15.0067C30.6514 15.0067 30.8946 15.1587 31.0459 15.4627C31.3461 16.0661 31.6496 16.6679 31.949 17.2718C31.9743 17.3225 31.991 17.3842 31.9895 17.4402C31.9826 17.7039 32.0284 17.9717 31.9266 18.2288C31.7775 18.6059 31.5028 18.8241 31.1019 18.8741C31.0142 18.8851 30.9909 18.911 30.9909 18.9968C30.993 20.8866 30.9926 22.7765 30.9928 24.6663C30.9928 24.6973 30.9968 24.7283 31.0002 24.7759C31.1269 24.7759 31.2484 24.7759 31.3701 24.7759C31.4695 24.7759 31.5688 24.7728 31.6679 24.7783C31.8595 24.7888 31.9802 24.9043 31.9874 25.094C31.9945 25.2881 31.9943 25.4832 31.9874 25.6774C31.9807 25.8646 31.8554 25.9849 31.6694 25.9985C31.6377 26.0009 31.6057 25.9997 31.5741 25.9997C27.858 25.9997 24.1416 25.9997 20.4255 25.9997C20.3898 25.9997 20.3538 26.0009 20.3183 25.9978C20.1316 25.9814 20.0113 25.8584 20.0067 25.6702C20.0022 25.4797 20.0022 25.2891 20.0067 25.0985C20.011 24.9117 20.132 24.7888 20.3214 24.7786C20.4391 24.7721 20.5573 24.7776 20.6907 24.7776ZM22.8633 19.6703C22.4586 19.6703 22.0738 19.6703 21.6889 19.6703C21.4954 19.6703 21.458 19.7065 21.4578 19.8963C21.4571 21.4763 21.4563 23.0559 21.4559 24.6359C21.4559 24.6785 21.4559 24.7209 21.4559 24.7793C21.5157 24.7793 21.5619 24.7793 21.6083 24.7793C23.3152 24.7793 25.0221 24.7797 26.729 24.7797C26.8338 24.7797 26.8862 24.725 26.8862 24.6156C26.8841 23.0795 26.8822 21.5434 26.88 20.0071C26.88 19.9554 26.882 19.9037 26.8793 19.8523C26.8727 19.7165 26.8241 19.6703 26.6873 19.6703C26.3181 19.6698 25.9491 19.6698 25.5798 19.6703C25.5457 19.6703 25.5114 19.6753 25.4676 19.6786C25.4676 19.968 25.4624 20.2494 25.4709 20.5303C25.4733 20.6079 25.5041 20.6918 25.5443 20.7594C25.6396 20.9195 25.7499 21.0706 25.8509 21.2271C25.9159 21.3276 25.8869 21.3903 25.7702 21.3917C25.4488 21.3955 25.1272 21.3953 24.8056 21.3917C24.6893 21.3903 24.6593 21.3276 24.7234 21.2271C24.8001 21.1065 24.8756 20.9846 24.9635 20.8724C25.0738 20.7316 25.1207 20.5822 25.11 20.4009C25.096 20.161 25.1065 19.9197 25.1065 19.6805H23.2261C23.2261 19.9966 23.2245 20.3023 23.2283 20.6077C23.2288 20.6475 23.2523 20.6908 23.2752 20.7258C23.3831 20.8924 23.4956 21.0556 23.604 21.2216C23.6738 21.3286 23.6452 21.391 23.5218 21.3922C23.2042 21.3955 22.8867 21.3953 22.5691 21.3922C22.4436 21.391 22.415 21.3307 22.4848 21.2235C22.5932 21.0575 22.7054 20.8938 22.8138 20.7278C22.835 20.6954 22.8605 20.6572 22.8609 20.6217C22.8647 20.3092 22.8633 19.9974 22.8633 19.6703ZM27.6798 24.7695C27.7336 24.7721 27.7722 24.7755 27.811 24.7755C28.5453 24.7757 29.2795 24.7736 30.0134 24.7781C30.1223 24.7788 30.1533 24.7497 30.153 24.6392C30.1495 23.0598 30.1507 21.4803 30.1504 19.9009C30.1504 19.7074 30.1142 19.671 29.922 19.671C29.2514 19.671 28.5807 19.671 27.9099 19.671C27.7129 19.671 27.6798 19.7036 27.6798 19.8963C27.6798 21.4758 27.6798 23.0552 27.6798 24.6347C27.6798 24.674 27.6798 24.713 27.6798 24.7695Z" fill="#151515"/>
<mask id="mask0_4252_10595" style="mask-type:luminance" maskUnits="userSpaceOnUse" x="0" y="2" width="10" height="11">
<path d="M9.66917 2H0.00195312V13H9.66917V2Z" fill="white"/>
</mask>
<g mask="url(#mask0_4252_10595)">
<path d="M4.84138 12.9983C3.35176 12.9983 1.86215 12.9983 0.372957 12.9978C0.328575 12.9978 0.282899 12.9939 0.24024 12.9832C0.0976128 12.9474 0.00195312 12.8212 0.00195312 12.6703C0.00195312 12.1128 0.109247 11.5763 0.323835 11.0614C0.574618 10.4585 0.941314 9.93628 1.42995 9.50452C1.97461 9.02364 2.60071 8.69572 3.31428 8.53974C3.59177 8.47898 3.87143 8.44537 4.15496 8.44408C4.59706 8.44192 5.0396 8.43934 5.4817 8.44408C6.64168 8.457 7.6293 8.87799 8.44887 9.69972C8.79574 10.0475 9.06506 10.4482 9.27318 10.889C9.46579 11.2966 9.59549 11.7254 9.63858 12.177C9.65367 12.3373 9.66401 12.498 9.66918 12.6587C9.67478 12.8466 9.53689 12.9883 9.34773 12.9974C9.32791 12.9983 9.30852 12.9974 9.28869 12.9974C7.8064 12.9974 6.32411 12.9983 4.84138 12.9983Z" fill="#151515"/>
<path d="M7.73444 4.95417C7.70212 6.5541 6.38443 7.83861 4.76081 7.80069C3.25783 7.76536 1.913 6.52135 1.93583 4.85808C1.95781 3.26203 3.27421 1.97537 4.88275 2.00036C6.48096 2.02578 7.7659 3.35597 7.73444 4.95417Z" fill="#151515"/>
</g>
</svg>
