<svg width="25" height="26" viewBox="0 0 25 26" fill="none" xmlns="http://www.w3.org/2000/svg">
<g clip-path="url(#clip0_4261_10613)">
<path d="M12.5053 16.5161C11.1182 16.5161 9.72501 16.4332 8.34562 16.5322C5.08545 16.7652 2.73097 19.1827 2.66154 22.2687C2.64765 22.9226 2.66154 23.578 2.65228 24.2334C2.64456 24.7197 2.38536 25.0154 1.85768 25.0359C1.33154 25.0577 1.00599 24.7664 0.973591 24.3047C0.780728 21.5653 1.09703 18.9643 3.37745 16.9385C4.67195 15.7895 6.18554 14.9986 7.96606 14.9506C10.967 14.8705 13.9834 14.7715 16.9736 14.9594C20.9003 15.2055 23.8148 18.1997 24.0447 21.909C24.091 22.6576 24.0741 23.412 24.0524 24.1635C24.0385 24.695 23.7562 25.0504 23.1483 25.0314C22.5713 25.014 22.3583 24.6601 22.3537 24.1533C22.3475 23.3771 22.4016 22.5949 22.3151 21.8275C21.9587 18.6614 19.5163 16.5628 16.125 16.4841C14.9184 16.4565 13.7103 16.4797 12.5022 16.4797C12.5022 16.4914 12.5022 16.5031 12.5022 16.5133L12.5053 16.5161Z" fill="#151515" stroke="#151515" stroke-width="1.38889"/>
<path d="M12.9533 12.0726C9.86738 12.0614 7.38811 9.55845 7.40758 6.47304C7.42568 3.42535 9.91886 0.957313 12.9714 0.9629C16.0531 0.968483 18.5352 3.47284 18.5185 6.56244C18.5018 9.60317 15.9975 12.0837 12.9533 12.074V12.0726ZM12.945 10.5222C15.1808 10.5292 16.9825 8.74135 16.9825 6.51774C16.9825 4.32625 15.203 2.52865 13.0159 2.51049C10.7731 2.49234 8.96723 4.25362 8.94636 6.48142C8.9241 8.70364 10.7175 10.5152 12.9464 10.5222H12.945Z" fill="#151515" stroke="#151515" stroke-width="1.38889"/>
</g>
<defs>
<clipPath id="clip0_4261_10613">
<rect width="25" height="26" fill="white"/>
</clipPath>
</defs>
</svg>
