<svg xmlns="http://www.w3.org/2000/svg" width="40" height="40"
                                         viewBox="0 0 40 40" fill="none">
                                        <path
                                            d="M16.8138 7.00393C19.6223 7.00393 22.4307 7.00393 25.2403 7.00393C26.1912 7.00393 26.4551 7.26083 26.4551 8.20473C26.4586 11.7106 26.4644 15.2165 26.4528 18.7225C26.4458 20.8904 25.0497 22.2842 22.8841 22.2911C19.5723 22.3016 16.2594 22.3039 12.9476 22.2865C12.1571 22.2818 11.4794 22.4922 10.8412 22.963C9.43934 23.9964 8.00722 24.9903 6.59137 26.0074C6.24381 26.2574 5.8974 26.4399 5.46962 26.2085C5.04882 25.9784 5 25.5925 5 25.1635C5.00465 20.2824 4.99768 15.4014 5.00581 10.5203C5.0093 8.43024 6.41933 7.01556 8.50474 7.00626C11.2748 6.99463 14.0449 7.00277 16.815 7.00277L16.8138 7.00393ZM16.3291 11.7583C14.7017 11.7583 13.0743 11.7629 11.4469 11.7548C11.0272 11.7525 10.6739 11.8525 10.4867 12.2616C10.1973 12.8963 10.6587 13.4927 11.4666 13.495C14.6831 13.5031 17.8984 13.5008 21.1148 13.4961C21.8088 13.4961 22.1971 13.1788 22.2099 12.6406C22.2238 12.0849 21.8228 11.7618 21.0951 11.7595C19.506 11.756 17.9182 11.7595 16.3291 11.7595V11.7583ZM16.2745 17.567C17.8821 17.567 19.4909 17.5716 21.0986 17.5647C21.8204 17.5623 22.2227 17.2264 22.2099 16.6661C22.1971 16.1314 21.81 15.8291 21.1114 15.828C18.69 15.8245 16.2675 15.8268 13.8461 15.8268C12.9941 15.8268 12.1408 15.8152 11.2888 15.8338C10.7668 15.8454 10.4286 16.1837 10.41 16.6522C10.3914 17.1136 10.718 17.4845 11.219 17.5542C11.3713 17.5751 11.5282 17.5658 11.6828 17.5658C13.2138 17.5658 14.7435 17.5658 16.2745 17.5658V17.567Z"
                                            fill="#FFC00B" />
                                        <path
                                            d="M28.1941 13.7879C29.4681 13.7879 30.6736 13.6984 31.8593 13.81C33.5076 13.9657 34.7468 15.4013 34.7537 17.0694C34.7723 22.0656 34.77 27.0606 34.7421 32.0567C34.7409 32.3648 34.5143 32.81 34.262 32.9378C34.0109 33.0657 33.525 32.9832 33.267 32.8088C31.7616 31.7882 30.2853 30.7234 28.8148 29.6528C28.258 29.2471 27.664 29.0623 26.977 29.0658C23.685 29.0786 20.3942 29.0727 17.1021 29.0704C14.6761 29.0704 13.3172 27.7185 13.3091 25.3041C13.3079 24.9182 13.3091 24.5323 13.3091 24.0685C13.5648 24.0568 13.7857 24.0371 14.0077 24.0371C16.9313 24.0347 19.856 24.0406 22.7795 24.0347C26.0575 24.0278 28.1825 21.8959 28.1941 18.6108C28.1999 17.0241 28.1941 15.4374 28.1941 13.7902V13.7879Z"
                                            fill="#FFD258" />
                                    </svg>