<svg width="16" height="20" viewBox="0 0 16 20" fill="none" xmlns="http://www.w3.org/2000/svg">
<path d="M7.89358 19.9976C5.99343 19.9976 4.09329 19.9991 2.19314 19.9976C0.905539 19.9952 6.01817e-07 19.0936 6.01817e-07 17.8177C-0.00156202 13.919 3.04008 10.5109 6.91694 10.0663C11.168 9.57878 14.9668 12.4048 15.6754 16.6114C15.7707 17.1794 15.8028 17.788 15.7098 18.3521C15.5465 19.3397 14.6738 19.9944 13.6721 19.9968C11.7462 20.0015 9.81951 19.9983 7.89358 19.9983V19.9976Z" fill="#FFC00B"/>
<path d="M7.83539 8.94032C5.28285 8.87547 3.36942 6.86203 3.43114 4.30715C3.4913 1.85461 5.55708 -0.0580337 8.08306 0.00134591C10.495 0.0583816 12.4139 2.15073 12.3498 4.65327C12.2881 7.04017 10.2231 9.00126 7.8346 8.94032H7.83539Z" fill="#FFC00B"/>
</svg>
