<svg width="24" height="20" viewBox="0 0 24 20" fill="none" xmlns="http://www.w3.org/2000/svg">
<path d="M9.64944 0.0586125C11.7558 0.0586125 13.8621 0.0586125 15.9693 0.0586125C16.6825 0.0586125 16.8804 0.251286 16.8804 0.95921C16.883 3.58864 16.8873 6.21807 16.8786 8.8475C16.8734 10.4735 15.8263 11.5188 14.2021 11.524C11.7183 11.5319 9.23358 11.5336 6.74974 11.5205C6.1569 11.517 5.64863 11.6748 5.16999 12.0279C4.11857 12.803 3.04448 13.5484 1.98259 14.3112C1.72192 14.4987 1.46211 14.6356 1.14128 14.4621C0.825679 14.2894 0.789062 14 0.789062 13.6783C0.79255 10.0175 0.787319 6.35669 0.793422 2.69589C0.796037 1.12834 1.85356 0.0673308 3.41762 0.0603562C5.49518 0.0516379 7.57275 0.0577407 9.65031 0.0577407L9.64944 0.0586125ZM9.28589 3.62439C8.06533 3.62439 6.84477 3.62787 5.62421 3.62177C5.30948 3.62003 5.04445 3.695 4.90409 4.00189C4.687 4.4779 5.03312 4.92515 5.63904 4.9269C8.05138 4.933 10.4629 4.93125 12.8752 4.92777C13.3957 4.92777 13.6869 4.68976 13.6965 4.2861C13.7069 3.86937 13.4061 3.627 12.8604 3.62526C11.6686 3.62264 10.4777 3.62526 9.28589 3.62526V3.62439ZM9.24491 7.98091C10.4506 7.98091 11.6573 7.98439 12.863 7.97916C13.4044 7.97742 13.706 7.72546 13.6965 7.30524C13.6869 6.9042 13.3966 6.67753 12.8726 6.67665C11.0566 6.67404 9.23968 6.67578 7.42367 6.67578C6.78462 6.67578 6.1447 6.66706 5.50565 6.68101C5.1142 6.68973 4.86049 6.94343 4.84655 7.29478C4.8326 7.64089 5.07758 7.91901 5.45334 7.97132C5.56755 7.98701 5.68524 7.98004 5.8012 7.98004C6.94939 7.98004 8.09672 7.98004 9.24491 7.98004V7.98091Z" fill="#191919"/>
<path d="M18.1876 5.14657C19.1431 5.14657 20.0472 5.07944 20.9364 5.16313C22.1727 5.27996 23.1021 6.35666 23.1073 7.60774C23.1212 11.3548 23.1195 15.1011 23.0986 18.8482C23.0977 19.0792 22.9277 19.4131 22.7385 19.5091C22.5502 19.605 22.1858 19.5431 21.9922 19.4123C20.8632 18.6468 19.756 17.8482 18.6531 17.0453C18.2355 16.741 17.79 16.6024 17.2748 16.605C14.8058 16.6146 12.3376 16.6102 9.8686 16.6085C8.04909 16.6085 7.02993 15.5945 7.02382 13.7838C7.02295 13.4943 7.02382 13.2049 7.02382 12.857C7.21563 12.8483 7.38127 12.8335 7.54779 12.8335C9.74044 12.8317 11.934 12.8361 14.1266 12.8317C16.5852 12.8265 18.1789 11.2276 18.1876 8.76378C18.1919 7.57373 18.1876 6.38369 18.1876 5.14831V5.14657Z" fill="#828282"/>
</svg>
