 <svg width="25" height="26" viewBox="0 0 27 28" fill="none" xmlns="http://www.w3.org/2000/svg">
                      <path d="M13.5056 17.7975C12.0076 17.7975 10.5029 17.7079 9.01316 17.8148C5.49218 18.0665 2.94934 20.6774 2.87435 24.0103C2.85935 24.7165 2.87435 25.4243 2.86435 26.1321C2.85602 26.6574 2.57608 26.9767 2.00619 26.9988C1.43796 27.0224 1.08636 26.7078 1.05137 26.2092C0.843078 23.2506 1.18468 20.4415 3.64754 18.2537C5.0456 17.0127 6.68028 16.1586 8.60324 16.1067C11.8443 16.0202 15.102 15.9133 18.3314 16.1162C22.5722 16.382 25.7199 19.6158 25.9682 23.6218C26.0182 24.4303 25.9999 25.245 25.9765 26.0566C25.9615 26.6307 25.6566 27.0145 25.0001 26.994C24.3769 26.9752 24.1469 26.593 24.1419 26.0456C24.1352 25.2073 24.1936 24.3626 24.1002 23.5338C23.7153 20.1144 21.0775 17.8479 17.4149 17.7629C16.1118 17.7331 14.807 17.7582 13.5023 17.7582C13.5023 17.7708 13.5023 17.7834 13.5023 17.7944L13.5056 17.7975Z" fill="#FFC00B" stroke="#FFC00B" stroke-width="1.5" />
                      <path d="M13.9895 12.9985C10.6567 12.9864 7.97909 10.2832 8.00012 6.95096C8.01966 3.65946 10.7123 0.993976 14.009 1.00001C17.3373 1.00604 20.0179 3.71075 19.9999 7.04751C19.9819 10.3315 17.2772 13.0105 13.9895 13V12.9985ZM13.9805 11.324C16.3952 11.3316 18.341 9.40074 18.341 6.99924C18.341 4.63243 16.4192 2.69102 14.0571 2.67141C11.6349 2.6518 9.68454 4.55399 9.662 6.96001C9.63796 9.36001 11.5748 11.3165 13.982 11.324H13.9805Z" fill="#FFC00B" stroke="#FFC00B" stroke-width="1.5" />
                    </svg>