<svg width="17" height="18" viewBox="0 0 17 18" fill="none" xmlns="http://www.w3.org/2000/svg">
<g id="Frame 2793">
<g id="Group 2555">
<path id="Vector" d="M8.69577 11.3406C7.7739 11.3406 6.84792 11.2854 5.93118 11.3512C3.76442 11.5061 2.19959 13.1128 2.15345 15.1638C2.14422 15.5984 2.15345 16.034 2.14729 16.4695C2.14217 16.7928 1.96989 16.9893 1.61919 17.0028C1.26952 17.0174 1.05315 16.8238 1.03161 16.517C0.903433 14.6963 1.11365 12.9676 2.62925 11.6212C3.4896 10.8576 4.49556 10.332 5.67892 10.3C7.6734 10.2468 9.67815 10.181 11.6655 10.3059C14.2752 10.4694 16.2123 12.4595 16.3651 14.9247C16.3958 15.4222 16.3845 15.9236 16.3702 16.4231C16.361 16.7764 16.1733 17.0125 15.7693 16.9999C15.3858 16.9883 15.2442 16.7531 15.2412 16.4163C15.2371 15.9004 15.273 15.3806 15.2155 14.8705C14.9787 12.7663 13.3554 11.3715 11.1015 11.3193C10.2996 11.3009 9.49664 11.3164 8.69372 11.3164C8.69372 11.3241 8.69372 11.3318 8.69372 11.3386L8.69577 11.3406Z" fill="#FFC00B" stroke="#FFC00B" stroke-width="0.5"/>
<path id="Vector_2" d="M8.99444 8.38367C6.9435 8.37624 5.29572 6.71274 5.30867 4.66213C5.32069 2.63659 6.97772 0.996293 9.00646 1.00001C11.0546 1.00372 12.7043 2.66815 12.6932 4.72154C12.6821 6.74244 11.0176 8.3911 8.99444 8.3846V8.38367ZM8.98889 7.35326C10.4749 7.3579 11.6723 6.16968 11.6723 4.69184C11.6723 3.23534 10.4896 2.04063 9.03605 2.02856C7.54547 2.01649 6.34523 3.18707 6.33136 4.6677C6.31657 6.14462 7.50848 7.34862 8.98982 7.35326H8.98889Z" fill="#FFC00B" stroke="#FFC00B" stroke-width="0.5"/>
</g>
</g>
</svg>
