<svg width="24" height="24" viewBox="0 0 24 24" fill="none" xmlns="http://www.w3.org/2000/svg">
<g clip-path="url(#clip0_4333_10616)">
<path d="M12 0C5.383 0 0 5.383 0 12C0 18.617 5.383 24 12 24C18.617 24 24 18.617 24 12C24 5.383 18.617 0 12 0ZM21.797 7H16.974C15.902 4.326 14.251 2.213 13.235 1.07C16.974 1.489 20.152 3.79 21.797 7ZM12 1.209C12.77 2.014 14.669 4.169 15.89 7H8.109C9.329 4.174 11.229 2.016 12 1.209ZM10.765 1.069C9.75 2.212 8.098 4.325 7.026 6.999H2.203C3.849 3.789 7.027 1.489 10.765 1.07V1.069ZM2.203 17H7.026C8.098 19.674 9.749 21.787 10.765 22.93C7.026 22.511 3.848 20.21 2.203 17ZM11.999 22.791C11.229 21.986 9.33 19.831 8.109 17H15.89C14.67 19.826 12.77 21.984 11.999 22.791ZM13.234 22.931C14.249 21.788 15.901 19.675 16.973 17.001H21.796C20.151 20.212 16.973 22.512 13.234 22.931ZM22.246 16.001H1.753C1.267 14.761 1 13.411 1 12.001C1 10.591 1.267 9.241 1.753 8.001H22.247C22.733 9.241 23 10.591 23 12.001C23 13.411 22.732 14.761 22.246 16.001ZM8.404 10.088L8.09 13.747C8.059 14.187 7.753 14.526 7.384 14.526C7.14 14.526 6.913 14.375 6.783 14.126L5.952 12.526L5.121 14.126C4.992 14.375 4.765 14.526 4.52 14.526C4.152 14.526 3.845 14.187 3.814 13.747L3.5 10.088C3.474 9.786 3.712 9.526 4.015 9.526C4.285 9.526 4.509 9.734 4.531 10.003L4.743 12.684L5.493 11.241C5.686 10.869 6.218 10.869 6.411 11.241L7.161 12.684L7.371 10.003C7.392 9.734 7.617 9.526 7.887 9.526H7.889C8.192 9.526 8.43 9.786 8.404 10.088ZM20.497 10.088L20.183 13.747C20.152 14.187 19.846 14.526 19.477 14.526C19.233 14.526 19.006 14.375 18.876 14.126L18.045 12.526L17.214 14.126C17.085 14.375 16.858 14.526 16.613 14.526C16.245 14.526 15.938 14.187 15.907 13.747L15.593 10.088C15.567 9.786 15.805 9.526 16.108 9.526C16.378 9.526 16.602 9.734 16.624 10.003L16.836 12.684L17.586 11.241C17.779 10.869 18.311 10.869 18.504 11.241L19.254 12.684L19.464 10.003C19.485 9.734 19.71 9.526 19.98 9.526H19.982C20.285 9.526 20.523 9.786 20.497 10.088ZM14.457 10.088L14.143 13.747C14.112 14.187 13.806 14.526 13.437 14.526C13.193 14.526 12.966 14.375 12.836 14.126L12.005 12.526L11.174 14.126C11.045 14.375 10.818 14.526 10.573 14.526C10.205 14.526 9.898 14.187 9.867 13.747L9.553 10.088C9.527 9.786 9.765 9.526 10.068 9.526C10.338 9.526 10.562 9.734 10.584 10.003L10.796 12.684L11.546 11.241C11.739 10.869 12.271 10.869 12.464 11.241L13.214 12.684L13.424 10.003C13.445 9.734 13.67 9.526 13.94 9.526H13.942C14.245 9.526 14.483 9.786 14.457 10.088Z" fill="#151515"/>
</g>
<defs>
<clipPath id="clip0_4333_10616">
<rect width="24" height="24" fill="white"/>
</clipPath>
</defs>
</svg>
