<svg width="30" height="45" viewBox="0 0 30 45" fill="none" xmlns="http://www.w3.org/2000/svg">
<path id="Vector" d="M15.0256 0.601562C22.5678 0.657017 28.9861 6.99448 29.8927 15.2174C30.3476 19.3488 29.305 23.0886 27.734 26.7157C25.4737 31.9319 22.3396 36.4879 18.8897 40.7908C17.8361 42.1062 16.706 43.3452 15.618 44.6276C15.2194 45.0973 14.8567 45.1354 14.4284 44.6554C9.64051 39.3074 5.32777 33.5626 2.30464 26.7503C0.90249 23.5929 -0.0510323 20.3054 0.00211481 16.7216C0.122477 8.80197 5.97335 1.66734 13.0873 0.812985C13.7328 0.735001 14.38 0.672614 15.0256 0.601562ZM14.9912 24.9151C18.7521 24.9307 21.8784 21.5064 21.8909 17.3542C21.9034 13.1171 18.8287 9.66845 15.0318 9.66152C11.2599 9.65459 8.15082 13.0616 8.13207 17.2225C8.11331 21.4509 11.1865 24.8978 14.9927 24.9151H14.9912Z" fill="#FFC00B"/>
</svg>
