<svg width="22" height="16" viewBox="0 0 22 16" fill="none" xmlns="http://www.w3.org/2000/svg">
<path d="M2.69098 10.5822C3.24398 10.0782 3.82498 9.9262 4.49998 10.1992C4.58298 10.2322 4.73998 10.1192 4.84498 10.0492C4.99798 9.9442 5.13498 9.8162 5.26398 9.7122C3.79698 7.1842 4.05398 5.0142 5.94498 3.5662C6.75316 2.94379 7.76071 2.63774 8.77853 2.7055C9.79634 2.77326 10.7544 3.21016 11.473 3.9342C12.1923 4.65648 12.6262 5.61452 12.6945 6.63159C12.7629 7.64866 12.4612 8.65615 11.845 9.4682C10.708 10.9742 8.25198 11.9022 5.79498 10.2082C5.64998 10.3912 5.48298 10.5882 5.33198 10.7942C5.28898 10.8542 5.25398 10.9592 5.27798 11.0192C5.54998 11.7212 5.31798 12.2972 4.75798 12.8732H19.862C20.834 12.8732 21.139 12.5652 21.139 11.5872V2.7372C21.139 1.8602 20.801 1.5252 19.915 1.5252H14.03C13.901 1.5252 13.738 1.5652 13.652 1.5022C13.51 1.3982 13.339 1.2322 13.327 1.0792C13.317 0.956202 13.504 0.791202 13.639 0.690202C13.714 0.633202 13.86 0.665202 13.974 0.665202C15.978 0.665202 17.983 0.663202 19.987 0.665202C21.27 0.667202 21.999 1.4052 21.999 2.7012C22.001 5.6642 21.999 8.6282 21.999 11.5932C21.999 13.0382 21.312 13.7332 19.879 13.7332C14.681 13.7332 9.48398 13.7362 4.28598 13.7272C3.98998 13.7272 3.77298 13.8002 3.57298 14.0212C3.27229 14.3479 2.95871 14.6625 2.63298 14.9642C1.97498 15.5882 1.02598 15.5982 0.432981 14.9972C-0.166019 14.3892 -0.142019 13.4672 0.492981 12.8022C0.512981 12.7822 0.530981 12.7582 0.553981 12.7422C1.63598 12.0062 1.86898 10.9852 1.81398 9.7142C1.71298 7.3842 1.78398 5.0472 1.78598 2.7142C1.78898 1.3872 2.50598 0.668202 3.82598 0.666202C5.78698 0.664202 16.748 0.661202 18.709 0.673202C18.893 0.673202 19.109 0.733202 19.251 0.843202C19.334 0.907202 19.371 1.1792 19.308 1.2562C19.198 1.3892 18.992 1.5122 18.826 1.5152C17.379 1.5352 6.93398 1.5262 5.48798 1.5272C4.87198 1.5272 4.25698 1.5172 3.64198 1.5302C3.04598 1.5432 2.65498 1.9112 2.65298 2.4932C2.64498 5.1422 2.65098 7.7902 2.65298 10.4392C2.65298 10.4672 2.66598 10.4942 2.69098 10.5822ZM8.47298 3.5622C8.03221 3.56151 7.59569 3.64834 7.18874 3.81764C6.78178 3.98694 6.41248 4.23534 6.10225 4.54845C5.79203 4.86156 5.54705 5.23314 5.38152 5.64165C5.216 6.05016 5.13322 6.48746 5.13798 6.9282C5.13916 7.36882 5.22715 7.8049 5.39692 8.2115C5.56669 8.61811 5.81492 8.98728 6.12741 9.29791C6.43991 9.60855 6.81055 9.85457 7.21816 10.0219C7.62577 10.1893 8.06236 10.2746 8.50298 10.2732C9.39338 10.2663 10.2449 9.90746 10.8716 9.27494C11.4983 8.64242 11.8493 7.78763 11.848 6.8972C11.8456 6.45659 11.7564 6.02076 11.5855 5.61465C11.4145 5.20854 11.1652 4.84012 10.8517 4.53046C10.5383 4.2208 10.1668 3.97599 9.75865 3.81001C9.35048 3.64404 8.91359 3.55917 8.47298 3.5622ZM3.93998 10.9882C3.71698 10.9512 3.45998 11.0722 3.34598 11.1832C2.55998 11.9522 1.82998 12.6792 1.06198 13.4652C0.786981 13.7472 0.799981 14.1352 1.04798 14.3892C1.10675 14.4525 1.17778 14.5033 1.25675 14.5384C1.33573 14.5734 1.421 14.5921 1.50741 14.5932C1.59381 14.5943 1.67955 14.5779 1.7594 14.5449C1.83926 14.5119 1.91158 14.463 1.97198 14.4012C2.78581 13.6215 3.58038 12.8219 4.35498 12.0032C4.47998 11.8692 4.50998 11.5312 4.43398 11.3512C4.34898 11.1512 4.16398 11.0262 3.93998 10.9882Z" fill="#151515"/>
<path d="M18.157 3.3428H19.316C19.659 3.3428 19.857 3.4948 19.857 3.8558V6.2998C19.857 6.6368 19.677 6.7958 19.348 6.7968C18.533 6.7968 17.718 6.7988 16.903 6.7968C16.571 6.7948 16.405 6.6258 16.406 6.2898C16.409 5.4738 16.406 4.6598 16.407 3.8438C16.407 3.5078 16.586 3.3458 16.914 3.3438C17.329 3.3398 17.744 3.3438 18.158 3.3428H18.157ZM17.289 5.9028H18.961V4.2298H17.289V5.9028ZM16.137 11.0758C15.122 11.0758 14.107 11.0718 13.092 11.0768C12.774 11.0788 12.483 11.0168 12.49 10.6388C12.498 10.2648 12.795 10.2118 13.108 10.2128C15.152 10.2158 17.198 10.2158 19.242 10.2128C19.558 10.2128 19.847 10.2768 19.842 10.6548C19.836 11.0388 19.536 11.0768 19.225 11.0758C18.195 11.0718 17.165 11.0748 16.136 11.0748L16.137 11.0758ZM17.079 8.9868C16.349 8.9868 15.619 8.9838 14.889 8.9878C14.585 8.9898 14.314 8.9118 14.305 8.5678C14.295 8.1888 14.58 8.1228 14.9 8.1238C16.346 8.1288 17.792 8.1278 19.237 8.1238C19.553 8.1238 19.846 8.1738 19.84 8.5578C19.834 8.9378 19.538 8.9888 19.225 8.9878C18.509 8.9828 17.794 8.9868 17.078 8.9858L17.079 8.9868ZM7.71698 4.4858C8.52698 4.1778 9.26698 4.3278 9.89698 4.9258C10.499 5.4998 10.717 6.3918 10.353 7.1308C10.015 7.8208 9.59798 8.4758 9.16698 9.1128C8.86498 9.5578 8.16298 9.6078 7.86298 9.1758C7.30698 8.3758 6.63198 7.4218 6.46698 6.4538C6.46698 5.5758 6.89998 4.7958 7.71698 4.4858ZM8.48098 8.6218C8.84898 8.0198 9.19098 7.4938 9.49798 6.9468C9.63654 6.70913 9.68539 6.42969 9.63568 6.1591C9.58596 5.88852 9.44097 5.64469 9.22698 5.4718C9.01623 5.29618 8.75067 5.19983 8.47634 5.19947C8.20201 5.1991 7.9362 5.29474 7.72498 5.4698C7.50975 5.64182 7.36391 5.88581 7.3143 6.15683C7.26469 6.42786 7.31465 6.70768 7.45498 6.9448C7.76498 7.4918 8.10898 8.0178 8.48098 8.6228V8.6218Z" fill="#828282"/>
<path d="M8.47301 6.75084C8.67846 6.75084 8.84501 6.58429 8.84501 6.37884C8.84501 6.17339 8.67846 6.00684 8.47301 6.00684C8.26756 6.00684 8.10101 6.17339 8.10101 6.37884C8.10101 6.58429 8.26756 6.75084 8.47301 6.75084Z" fill="#151515"/>
</svg>
