<svg width="22" height="19" viewBox="0 0 22 19" fill="none" xmlns="http://www.w3.org/2000/svg">
<g clip-path="url(#clip0_4400_10601)">
<path d="M8.45163 0.502646C10.3419 0.502646 12.2322 0.502646 14.1233 0.502646C14.7633 0.502646 14.9409 0.675559 14.9409 1.31087C14.9433 3.67062 14.9472 6.03037 14.9394 8.39012C14.9347 9.84931 13.995 10.7874 12.5374 10.7921C10.3083 10.7992 8.07842 10.8007 5.84933 10.789C5.3173 10.7859 4.86115 10.9275 4.43161 11.2443C3.48802 11.9399 2.52409 12.6089 1.57112 13.2935C1.33718 13.4617 1.10402 13.5845 0.816093 13.4288C0.532861 13.2739 0.5 13.0142 0.5 12.7254C0.50313 9.44011 0.498435 6.15477 0.503912 2.86944C0.506259 1.46266 1.45532 0.51047 2.85896 0.504211C4.72345 0.496387 6.58793 0.501864 8.45241 0.501864L8.45163 0.502646ZM8.12536 3.7027C7.02999 3.7027 5.93462 3.70583 4.83924 3.70035C4.55679 3.69879 4.31894 3.76608 4.19297 4.04148C3.99815 4.46868 4.30877 4.87006 4.85254 4.87162C7.01747 4.8771 9.18161 4.87553 11.3465 4.8724C11.8136 4.8724 12.075 4.65881 12.0836 4.29655C12.093 3.92256 11.823 3.70505 11.3332 3.70348C10.2637 3.70114 9.19492 3.7027 8.12536 3.7027ZM8.08859 7.6124C9.17066 7.6124 10.2535 7.61553 11.3356 7.61084C11.8215 7.60927 12.0922 7.38316 12.0836 7.00604C12.075 6.64613 11.8144 6.4427 11.3442 6.44192C9.71444 6.43957 8.08389 6.44114 6.45414 6.44114C5.88063 6.44114 5.30634 6.43331 4.73283 6.44583C4.38153 6.45365 4.15385 6.68134 4.14133 6.99665C4.12881 7.30726 4.34867 7.55685 4.68589 7.6038C4.78839 7.61788 4.89401 7.61162 4.99807 7.61162C6.0285 7.61162 7.05816 7.6124 8.08859 7.6124Z" fill="black"/>
<path d="M16.1129 5.06876C16.9704 5.06876 17.7817 5.00851 18.5798 5.08362C19.6892 5.18847 20.5233 6.15474 20.528 7.2775C20.5405 10.6403 20.5389 14.0023 20.5202 17.3651C20.5194 17.5724 20.3668 17.8721 20.197 17.9582C20.028 18.0442 19.701 17.9887 19.5273 17.8713C18.5141 17.1844 17.5204 16.4677 16.5307 15.7471C16.1559 15.474 15.7561 15.3496 15.2937 15.352C13.0779 15.3606 10.8629 15.3567 8.6471 15.3551C7.01421 15.3551 6.09957 14.4452 6.0941 12.8201C6.09332 12.5603 6.0941 12.3006 6.0941 11.9884C6.26623 11.9806 6.41489 11.9673 6.56433 11.9673C8.53209 11.9657 10.5006 11.9696 12.4684 11.9657C14.6748 11.961 16.105 10.5261 16.1129 8.31498C16.1168 7.24699 16.1129 6.179 16.1129 5.07032V5.06876Z" fill="black"/>
</g>
<defs>
<clipPath id="clip0_4400_10601">
<rect width="21" height="18" fill="white" transform="translate(0.5 0.5)"/>
</clipPath>
</defs>
</svg>
