<svg width="21" height="18" viewBox="0 0 21 18" fill="none" xmlns="http://www.w3.org/2000/svg">
<path d="M7.95163 0.00264607C9.84193 0.00264607 11.7322 0.00264607 13.6233 0.00264607C14.2633 0.00264607 14.4409 0.175559 14.4409 0.810875C14.4433 3.17062 14.4472 5.53037 14.4394 7.89012C14.4347 9.34931 13.495 10.2874 12.0374 10.2921C9.80828 10.2992 7.57842 10.3007 5.34933 10.289C4.8173 10.2859 4.36115 10.4275 3.93161 10.7443C2.98802 11.4399 2.02409 12.1089 1.07112 12.7935C0.837178 12.9617 0.60402 13.0845 0.316093 12.9288C0.0328612 12.7739 0 12.5142 0 12.2254C0.00312964 8.94011 -0.00156482 5.65477 0.00391205 2.36944C0.00625928 0.962663 0.955322 0.0104702 2.35896 0.00421089C4.22345 -0.00361321 6.08793 0.00186366 7.95241 0.00186366L7.95163 0.00264607ZM7.62536 3.2027C6.52999 3.2027 5.43462 3.20583 4.33924 3.20035C4.05679 3.19879 3.81894 3.26608 3.69297 3.54148C3.49815 3.96868 3.80877 4.37006 4.35254 4.37162C6.51747 4.3771 8.68161 4.37553 10.8465 4.3724C11.3136 4.3724 11.575 4.15881 11.5836 3.79655C11.593 3.42256 11.323 3.20505 10.8332 3.20348C9.76369 3.20114 8.69492 3.20348 7.62536 3.20348V3.2027ZM7.58859 7.1124C8.67066 7.1124 9.75352 7.11553 10.8356 7.11084C11.3215 7.10927 11.5922 6.88316 11.5836 6.50604C11.575 6.14613 11.3144 5.9427 10.8442 5.94192C9.21444 5.93957 7.58389 5.94114 5.95414 5.94114C5.38063 5.94114 4.80634 5.93331 4.23283 5.94583C3.88153 5.95365 3.65385 6.18134 3.64133 6.49665C3.62881 6.80726 3.84867 7.05685 4.18589 7.1038C4.28839 7.11788 4.39401 7.11162 4.49807 7.11162C5.5285 7.11162 6.55816 7.11162 7.58859 7.11162V7.1124Z" fill="#ABABAB"/>
<path d="M15.6129 4.56876C16.4704 4.56876 17.2817 4.50851 18.0798 4.58362C19.1892 4.68847 20.0233 5.65474 20.028 6.7775C20.0405 10.1403 20.0389 13.5023 20.0202 16.8651C20.0194 17.0724 19.8668 17.3721 19.697 17.4582C19.528 17.5442 19.201 17.4887 19.0273 17.3713C18.0141 16.6844 17.0204 15.9677 16.0307 15.2471C15.6559 14.974 15.2561 14.8496 14.7937 14.852C12.5779 14.8606 10.3629 14.8567 8.1471 14.8551C6.51421 14.8551 5.59957 13.9452 5.5941 12.3201C5.59332 12.0603 5.5941 11.8006 5.5941 11.4884C5.76623 11.4806 5.91489 11.4673 6.06433 11.4673C8.03209 11.4657 10.0006 11.4696 11.9684 11.4657C14.1748 11.461 15.605 10.0261 15.6129 7.81498C15.6168 6.74699 15.6129 5.679 15.6129 4.57032V4.56876Z" fill="#ABABAB"/>
</svg>
