<svg width="21" height="13" viewBox="0 0 21 13" fill="none" xmlns="http://www.w3.org/2000/svg">
<g clip-path="url(#clip0_4400_10604)">
<path d="M7.22638 3.34128C7.22247 3.70835 6.97958 3.9528 6.65625 3.95202L6.68202 5.12039C6.99755 5.13211 7.2131 5.35704 7.22716 5.70927C7.23809 5.96856 7.2295 6.22863 7.2295 6.4887C7.22872 6.7355 7.23888 6.98308 7.2256 7.22909C7.20764 7.56024 7.02644 7.75861 6.69218 7.78751L6.68671 8.95823C7.01941 8.97463 7.22794 9.22533 7.23028 9.63535C7.23497 10.4296 7.23185 11.2231 7.23185 12.0174V12.3837C7.34822 12.3962 7.39976 12.4071 7.45131 12.4071C11.5773 12.4079 15.7041 12.4095 19.8301 12.4063C20.2909 12.4063 20.4963 12.1962 20.4995 11.7362C20.5057 10.7858 20.5049 9.83607 20.4995 8.88559C20.4963 8.40137 20.3175 8.22252 19.8169 8.17332C18.8656 8.08038 18.1955 7.3603 18.2041 6.44028C18.2127 5.53354 18.8765 4.82752 19.8067 4.73614C20.3417 4.68382 20.4995 4.50965 20.501 3.95592C20.5034 3.08355 20.5018 2.21195 20.501 1.33957C20.5002 0.6562 20.3417 0.5 19.6443 0.5H7.69498H7.23028V0.959228C7.2295 1.7535 7.23575 2.547 7.22638 3.34128Z" fill="black"/>
<path d="M6.0746 2.98724V0.547399C5.99103 0.52475 5.95432 0.506006 5.9184 0.506006C4.31735 0.503663 2.7163 0.498196 1.11525 0.506006C0.711476 0.507568 0.507635 0.732496 0.504511 1.15424C0.497482 2.10471 0.499825 3.05441 0.50373 4.00488C0.505292 4.50238 0.678674 4.68591 1.16914 4.73512C2.13524 4.83196 2.79831 5.52861 2.80143 6.45019C2.80455 7.37099 2.13758 8.08092 1.1793 8.17542C0.684141 8.22384 0.507635 8.40582 0.505292 8.8955C0.500606 9.80693 0.502949 10.7176 0.504511 11.629C0.506073 12.2335 0.684141 12.4092 1.30191 12.41C2.76004 12.4116 4.21738 12.41 5.67551 12.41H6.07694C6.07694 11.44 6.06991 10.5301 6.08007 9.62105C6.08475 9.19697 6.33311 8.94158 6.683 8.95876L6.68846 7.78804C6.36513 7.81616 6.1074 7.6092 6.09022 7.25931C6.06445 6.72823 6.06523 6.19402 6.08866 5.66295C6.10428 5.31071 6.35498 5.10922 6.67831 5.12093L6.65254 3.95256C6.34014 3.95178 6.11599 3.73153 6.08085 3.37774C6.06757 3.2481 6.0746 3.11767 6.0746 2.98724Z" fill="black"/>
<path d="M17.0497 8.91106C17.0489 9.82634 16.3937 10.4905 15.4899 10.4921C14.5795 10.4938 13.9276 9.84106 13.9219 8.92169C13.9162 7.9876 14.5902 7.29808 15.4989 7.30872C16.3905 7.31935 17.0505 8.0015 17.0497 8.91106ZM15.4752 8.36958C15.1815 8.37449 14.9288 8.62888 14.9329 8.91434C14.9378 9.21125 15.1783 9.43455 15.4899 9.43128C15.8007 9.42801 16.033 9.19734 16.0289 8.89715C16.0248 8.60351 15.7737 8.36467 15.4752 8.36958Z" fill="#E1E1E1"/>
<path d="M11.302 3.13168C12.1984 3.13168 12.8716 3.80812 12.8741 4.70949C12.8765 5.60677 12.2042 6.30121 11.3183 6.31429C10.4211 6.3282 9.71926 5.61823 9.72662 4.70458C9.73398 3.79421 10.3982 3.13086 11.3012 3.13086L11.302 3.13168ZM11.3102 5.25833C11.6193 5.2526 11.8255 5.03094 11.8206 4.70704C11.8156 4.38477 11.6046 4.17946 11.2848 4.18601C10.9781 4.19255 10.7523 4.4273 10.7597 4.73157C10.767 5.03094 11.01 5.26324 11.3102 5.25833Z" fill="#E1E1E1"/>
<path d="M16.2043 3.20874L10.1314 9.28166C9.90783 9.50526 9.90783 9.86779 10.1314 10.0914C10.355 10.315 10.7175 10.315 10.9411 10.0914L17.0141 4.01846C17.2377 3.79486 17.2377 3.43234 17.0141 3.20874C16.7905 2.98514 16.4279 2.98514 16.2043 3.20874Z" fill="#E1E1E1"/>
</g>
<defs>
<clipPath id="clip0_4400_10604">
<rect width="20" height="12" fill="white" transform="translate(0.5 0.5)"/>
</clipPath>
</defs>
</svg>
