<svg width="20" height="12" viewBox="0 0 20 12" fill="none" xmlns="http://www.w3.org/2000/svg">
<path d="M6.72638 2.84128C6.72247 3.20835 6.47958 3.4528 6.15625 3.45202L6.18202 4.62039C6.49755 4.63211 6.7131 4.85704 6.72716 5.20927C6.73809 5.46856 6.7295 5.72863 6.7295 5.9887H6.72872C6.72794 6.2355 6.73888 6.48308 6.7256 6.72909C6.70764 7.06024 6.52644 7.25861 6.19218 7.28751L6.18671 8.45823C6.51941 8.47463 6.72794 8.72533 6.73028 9.13535C6.73497 9.92963 6.73185 10.7231 6.73185 11.5174V11.8837C6.84822 11.8962 6.89976 11.9071 6.95131 11.9071C11.0773 11.9079 15.2041 11.9095 19.3301 11.9063C19.7909 11.9063 19.9963 11.6962 19.9995 11.2362C20.0057 10.2858 20.0049 9.33607 19.9995 8.38559C19.9963 7.90137 19.8175 7.72252 19.3169 7.67332C18.3656 7.58038 17.6955 6.8603 17.7041 5.94028C17.7127 5.03354 18.3765 4.32752 19.3067 4.23614C19.8417 4.18382 19.9995 4.00965 20.001 3.45592C20.0034 2.58355 20.0018 1.71195 20.001 0.839575C20.0002 0.1562 19.8417 0 19.1443 0H7.19498H6.73028V0.459228C6.7295 1.2535 6.73575 2.047 6.72638 2.84128Z" fill="#ABABAB"/>
<path d="M5.5746 2.48724V0.0473987C5.49103 0.0247497 5.45432 0.00600571 5.4184 0.00600571C3.81735 0.00366271 2.2163 -0.00180429 0.615253 0.00600571C0.211476 0.00756771 0.00763532 0.232496 0.00451132 0.654235C-0.00251767 1.60471 -0.000174673 2.55441 0.00373032 3.50488C0.00529232 4.00238 0.178674 4.18591 0.669142 4.23512C1.63524 4.33196 2.29831 5.02861 2.30143 5.95019C2.30455 6.87099 1.63758 7.58092 0.679295 7.67542C0.184141 7.72384 0.00763532 7.90582 0.00529232 8.3955C0.000606327 9.30693 0.00294932 10.2176 0.00451132 11.129C0.00607332 11.7335 0.184141 11.9092 0.801912 11.91C2.26004 11.9116 3.71738 11.91 5.17551 11.91H5.57694C5.57694 10.94 5.56991 10.0301 5.58007 9.12105C5.58475 8.69697 5.83311 8.44158 6.183 8.45876L6.18846 7.28804C5.86513 7.31616 5.6074 7.1092 5.59022 6.75931C5.56445 6.22823 5.56523 5.69402 5.58866 5.16295C5.60428 4.81071 5.85498 4.60922 6.17831 4.62093L6.15254 3.45256C5.84014 3.45178 5.61599 3.23153 5.58085 2.87774C5.56757 2.7481 5.5746 2.61767 5.5746 2.48724Z" fill="#ABABAB"/>
<path d="M16.5497 8.41107C16.5489 9.32635 15.8937 9.99051 14.9899 9.99215C14.0795 9.99379 13.4276 9.34107 13.4219 8.4217C13.4162 7.48761 14.0902 6.79808 14.9989 6.80872C15.8905 6.81935 16.5505 7.50151 16.5497 8.41107ZM14.9752 7.86959C14.6815 7.8745 14.4288 8.12888 14.4329 8.41434C14.4378 8.71125 14.6783 8.93455 14.9899 8.93128C15.3007 8.92801 15.533 8.69735 15.5289 8.39716C15.5248 8.10352 15.2729 7.86468 14.9744 7.86959H14.9752Z" fill="white"/>
<path d="M10.802 2.63168C11.6984 2.63168 12.3716 3.30812 12.3741 4.20949C12.3765 5.10677 11.7042 5.80121 10.8183 5.81429C9.92105 5.8282 9.21926 5.11823 9.22662 4.20458C9.23398 3.29421 9.89815 2.63086 10.8012 2.63086L10.802 2.63168ZM10.8102 4.75833C11.1193 4.7526 11.3255 4.53094 11.3206 4.20704C11.3156 3.88477 11.1046 3.67946 10.7848 3.68601C10.4781 3.69255 10.2523 3.9273 10.2597 4.23157C10.267 4.53094 10.51 4.76324 10.8102 4.75833Z" fill="white"/>
<rect x="9.22656" y="9.18652" width="9.73353" height="1.14512" rx="0.572561" transform="rotate(-45 9.22656 9.18652)" fill="white"/>
</svg>
