<svg width="18" height="21" viewBox="0 0 18 21" fill="none" xmlns="http://www.w3.org/2000/svg">
<g clip-path="url(#clip0_4400_10617)">
<path d="M1.71094 17.0803C1.76466 14.0446 4.42804 10.3672 8.83902 10.316C13.2234 10.2653 16.0437 13.8735 16.1289 17.0803H1.71094Z" fill="black"/>
<path d="M8.99258 18.0264C11.3991 18.0264 13.8056 18.0264 16.2121 18.0264C16.7864 18.0264 16.9735 18.2499 16.8728 18.8131C16.6962 19.7943 15.9119 20.4897 14.9153 20.4921C10.9662 20.5014 7.01712 20.5014 3.06805 20.4921C2.06273 20.4897 1.2618 19.7684 1.10556 18.7816C1.02096 18.2474 1.2056 18.027 1.74285 18.027C4.15984 18.0264 6.57559 18.0264 8.99258 18.0264Z" fill="black"/>
<path d="M10.2017 9.42449H7.79587C7.69027 9.01508 7.86565 8.53835 8.25222 8.24749C8.65608 7.94367 9.21247 7.91835 9.64288 8.18451C10.0801 8.4556 10.282 8.91689 10.2017 9.42449Z" fill="black"/>
<path d="M8.91742 2.9754C9.10729 2.78553 9.25024 2.62185 9.41392 2.48327C9.86187 2.10298 10.5068 2.11607 10.9296 2.50182C11.3525 2.88756 11.4567 3.5603 11.066 4.00006C10.4446 4.70007 9.76475 5.34935 9.09311 6.00353C9.03527 6.06027 8.80939 6.04172 8.74119 5.9757C8.08537 5.34171 7.43064 4.70444 6.80864 4.0377C6.41799 3.61977 6.48455 2.93885 6.89594 2.53292C7.3117 2.12371 7.95879 2.08879 8.40237 2.46471C8.57532 2.61148 8.72701 2.78498 8.91742 2.9754Z" fill="black"/>
<path d="M3.17509 6.61278C3.31313 6.4922 3.41407 6.39672 3.52264 6.30997C3.87838 6.02625 4.36179 6.05026 4.67442 6.36289C4.98706 6.67552 5.03289 7.18403 4.73008 7.51412C4.29741 7.98608 3.84019 8.43675 3.36933 8.87051C3.29895 8.93543 3.04633 8.91088 2.96285 8.83395C2.52855 8.43566 2.11116 8.01827 1.7085 7.58833C1.34567 7.2004 1.36149 6.68698 1.71395 6.3498C2.0626 6.01643 2.56347 6.03389 2.95521 6.39399C3.02068 6.45401 3.0807 6.51948 3.174 6.61278H3.17509Z" fill="black"/>
<path d="M14.8483 6.61278C14.7103 6.4922 14.6093 6.39672 14.5008 6.30997C14.145 6.02625 13.6616 6.05026 13.349 6.36289C13.0364 6.67552 12.9905 7.18403 13.2933 7.51412C13.726 7.98608 14.1832 8.43675 14.6541 8.87051C14.7245 8.93543 14.9771 8.91088 15.0606 8.83395C15.4949 8.43566 15.9123 8.01827 16.3149 7.58833C16.6777 7.2004 16.6619 6.68698 16.3095 6.3498C15.9608 6.01643 15.4599 6.03389 15.0682 6.39399C15.0027 6.45401 14.9427 6.51948 14.8494 6.61278H14.8483Z" fill="black"/>
<path d="M1.71094 17.0803C1.76466 14.0446 4.42804 10.3672 8.83902 10.316C13.2234 10.2653 16.0437 13.8735 16.1289 17.0803H1.71094Z" fill="black"/>
<path d="M8.99258 18.0264C11.3991 18.0264 13.8056 18.0264 16.2121 18.0264C16.7864 18.0264 16.9735 18.2499 16.8728 18.8131C16.6962 19.7943 15.9119 20.4897 14.9153 20.4921C10.9662 20.5014 7.01712 20.5014 3.06805 20.4921C2.06273 20.4897 1.2618 19.7684 1.10556 18.7816C1.02096 18.2474 1.2056 18.027 1.74285 18.027C4.15984 18.0264 6.57559 18.0264 8.99258 18.0264Z" fill="black"/>
<path d="M10.2017 9.42449H7.79587C7.69027 9.01508 7.86565 8.53835 8.25222 8.24749C8.65608 7.94367 9.21247 7.91835 9.64288 8.18451C10.0801 8.4556 10.282 8.91689 10.2017 9.42449Z" fill="black"/>
</g>
<defs>
<clipPath id="clip0_4400_10617">
<rect width="17" height="20" fill="white" transform="translate(0.5 0.5)"/>
</clipPath>
</defs>
</svg>
