<svg width="17" height="20" viewBox="0 0 17 20" fill="none" xmlns="http://www.w3.org/2000/svg">
<path d="M1.21094 16.5803C1.26466 13.5446 3.92804 9.86721 8.33902 9.81596C12.7234 9.76532 15.5437 13.3735 15.6289 16.5803H1.21094Z" fill="#ABABAB"/>
<path d="M8.49258 17.5264C10.8991 17.5264 13.3056 17.5264 15.7121 17.5264C16.2864 17.5264 16.4735 17.7499 16.3728 18.3131C16.1962 19.2943 15.4119 19.9897 14.4153 19.9921C10.4662 20.0014 6.51712 20.0014 2.56805 19.9921C1.56273 19.9897 0.761797 19.2684 0.605563 18.2816C0.520962 17.7474 0.705602 17.527 1.24285 17.527C3.65984 17.5264 6.07621 17.527 8.4932 17.527L8.49258 17.5264Z" fill="#ABABAB"/>
<path d="M9.70174 8.92449H7.29587C7.19027 8.51508 7.36565 8.03835 7.75222 7.74749C8.15608 7.44367 8.71247 7.41835 9.14288 7.68451C9.58009 7.9556 9.78264 8.41689 9.70236 8.92449H9.70174Z" fill="#ABABAB"/>
<path d="M8.41742 2.47529C8.60729 2.28542 8.75024 2.12174 8.91392 1.98316C9.36187 1.60287 10.0068 1.61596 10.4296 2.00171C10.8525 2.38745 10.9567 3.06019 10.566 3.49995C9.94458 4.19996 9.26475 4.84924 8.59311 5.50342C8.53527 5.56016 8.30939 5.54161 8.24119 5.47559C7.58537 4.8416 6.93064 4.20433 6.30864 3.53759C5.91799 3.11966 5.98455 2.43874 6.39594 2.03281C6.8117 1.6236 7.45879 1.58868 7.90237 1.9646C8.07532 2.11137 8.22646 2.28433 8.41687 2.47475L8.41742 2.47529Z" fill="#ABABAB"/>
<path d="M2.67512 6.11282C2.81316 5.99224 2.9141 5.89676 3.02267 5.81001C3.37841 5.52629 3.86182 5.5503 4.17445 5.86293C4.48709 6.17556 4.53292 6.68407 4.23011 7.01416C3.79744 7.48612 3.34022 7.93679 2.86936 8.37055C2.79898 8.43547 2.54636 8.41092 2.46288 8.33399C2.02858 7.9357 1.61119 7.51831 1.20853 7.08837C0.845698 6.70044 0.86152 6.18702 1.21398 5.84984C1.56263 5.51647 2.0635 5.53393 2.45524 5.89403C2.52071 5.95405 2.58073 6.01952 2.67403 6.11282L2.67512 6.11282Z" fill="#ABABAB"/>
<path d="M14.3483 6.11282C14.2103 5.99224 14.1093 5.89676 14.0008 5.81001C13.645 5.52629 13.1616 5.5503 12.849 5.86293C12.5364 6.17556 12.4905 6.68407 12.7933 7.01416C13.226 7.48612 13.6832 7.93679 14.1541 8.37055C14.2245 8.43547 14.4771 8.41092 14.5606 8.33399C14.9949 7.9357 15.4123 7.51831 15.8149 7.08837C16.1777 6.70044 16.1619 6.18702 15.8095 5.84984C15.4608 5.51647 14.9599 5.53393 14.5682 5.89403C14.5027 5.95405 14.4427 6.01952 14.3494 6.11282L14.3483 6.11282Z" fill="#ABABAB"/>
<path d="M1.21094 16.5803C1.26466 13.5446 3.92804 9.86721 8.33902 9.81596C12.7234 9.76532 15.5437 13.3735 15.6289 16.5803H1.21094Z" fill="#ABABAB"/>
<path d="M8.49258 17.5264C10.8991 17.5264 13.3056 17.5264 15.7121 17.5264C16.2864 17.5264 16.4735 17.7499 16.3728 18.3131C16.1962 19.2943 15.4119 19.9897 14.4153 19.9921C10.4662 20.0014 6.51712 20.0014 2.56805 19.9921C1.56273 19.9897 0.761797 19.2684 0.605563 18.2816C0.520962 17.7474 0.705602 17.527 1.24285 17.527C3.65984 17.5264 6.07621 17.527 8.4932 17.527L8.49258 17.5264Z" fill="#ABABAB"/>
<path d="M9.70174 8.92449H7.29587C7.19027 8.51508 7.36565 8.03835 7.75222 7.74749C8.15608 7.44367 8.71247 7.41835 9.14288 7.68451C9.58009 7.9556 9.78264 8.41689 9.70236 8.92449H9.70174Z" fill="#ABABAB"/>
</svg>
