<svg width="18" height="18" viewBox="0 0 18 18" fill="none" xmlns="http://www.w3.org/2000/svg">
<g clip-path="url(#clip0_4400_10627)">
<path d="M14.4621 1.45012L13.8275 1.13281L13.1929 1.45012L12.8756 4.6232L11.6064 8.7482L11.2891 16.6809H15.7314H16.366L16.6833 16.0463V14.777V12.2386L16.366 10.0174L16.0487 7.47897L15.7314 6.52704L15.4141 5.57512L15.0968 3.98858L14.7794 2.71935L14.4621 1.45012Z" fill="black"/>
<path d="M8.73002 16.9991C6.34426 16.9991 3.9585 16.9996 1.57226 16.9991C0.956592 16.9991 0.553242 16.6441 0.528093 16.0338C0.407669 13.0575 0.656256 10.1242 1.62787 7.28629C1.82278 6.71657 2.03122 6.14201 2.31512 5.6134C2.73539 4.83185 2.88532 3.99758 2.97866 3.13623C3.04202 2.55201 3.11505 1.96778 3.21806 1.38935C3.36218 0.580234 3.9348 0.341319 4.63849 0.760629C4.71007 0.803189 4.86241 0.794967 4.93012 0.745636C5.34508 0.441915 5.75471 0.438046 6.19288 0.695339C6.27365 0.742735 6.42938 0.737414 6.51353 0.690502C6.87771 0.48786 7.22351 0.496566 7.55431 0.740317C7.68779 0.838494 7.7821 0.83801 7.91559 0.737898C8.31845 0.436595 8.75566 0.432726 9.18754 0.662935C9.34037 0.744669 9.45064 0.760629 9.60733 0.674059C9.95555 0.481573 10.3134 0.462711 10.6534 0.709847C10.7951 0.812861 10.9291 0.813828 11.0747 0.709847C11.4369 0.449169 11.8059 0.437562 12.1667 0.712266C12.2842 0.801738 12.3742 0.787712 12.4893 0.703077C12.8008 0.473351 13.0571 0.471417 13.3724 0.701626C13.4909 0.788196 13.5755 0.780941 13.6965 0.709364C14.0853 0.479638 14.3972 0.538158 14.568 0.961337C14.7948 1.52429 14.967 2.1148 15.1048 2.70725C15.2799 3.4593 15.3727 4.23069 15.5468 4.98274C15.6789 5.55295 15.9057 6.10042 16.0508 6.6682C16.8352 9.74556 17.0925 12.8732 16.9112 16.04C16.8763 16.6494 16.4831 16.9996 15.8636 16.9996C13.4856 17.0005 11.108 16.9991 8.73002 16.9991ZM16.4116 13.9116C16.3395 11.6666 16.1286 9.44039 15.5986 7.25485C15.4341 6.57631 15.1667 5.92196 15.0085 5.24197C14.8431 4.53006 14.7701 3.79688 14.6241 3.08013C14.5181 2.56119 14.3692 2.05048 14.2188 1.54218C14.153 1.31971 14.036 1.29359 13.8667 1.44836C13.7917 1.51655 13.7264 1.63117 13.7177 1.72983C13.6718 2.26715 13.6529 2.80688 13.6104 3.34468C13.5514 4.09141 13.4479 4.82218 13.1901 5.54037C12.9033 6.33982 12.6658 7.16635 12.5086 8.00013C12.0008 10.7012 11.9854 13.4299 12.1503 16.1639C12.1624 16.3665 12.2533 16.4221 12.4405 16.4211C13.5847 16.4163 14.729 16.4197 15.8733 16.4178C16.1843 16.4173 16.3173 16.3002 16.3322 15.9873C16.3656 15.2957 16.3859 14.6037 16.4116 13.9116ZM5.89642 10.4865C5.83983 10.546 5.79099 10.5992 5.73972 10.65C5.37023 11.0209 4.99783 11.3894 4.63075 11.7633C4.49146 11.905 4.40828 12.0926 4.51613 12.2672C4.60028 12.4031 4.75359 12.5574 4.8953 12.5796C5.03942 12.6024 5.24206 12.511 5.3591 12.4041C5.74311 12.053 6.09954 11.6719 6.49661 11.2724C6.56577 11.359 6.61123 11.4272 6.66733 11.4842C6.97879 11.7995 7.29073 12.1139 7.60654 12.4249C7.8382 12.6527 8.13661 12.6715 8.3378 12.4781C8.55011 12.274 8.53415 11.9799 8.29669 11.7299C8.258 11.6888 8.21689 11.6501 8.17675 11.6104C7.79371 11.2318 7.41067 10.8526 7.01119 10.4579C7.18385 10.3588 7.2148 10.1073 7.47016 10.1886C7.85997 10.3124 8.2019 10.2118 8.49062 9.93079C8.75082 9.67834 9.00569 9.42056 9.2596 9.16181C9.43129 8.98722 9.44773 8.83101 9.31667 8.69946C9.18947 8.57178 9.01972 8.58823 8.85141 8.75315C8.59847 9.00125 8.35134 9.25612 8.09791 9.50374C7.90011 9.6972 7.66119 9.71171 7.50014 9.54824C7.33039 9.37607 7.34635 9.16085 7.55044 8.95289C7.80483 8.69414 8.06358 8.44024 8.31894 8.18294C8.45484 8.04607 8.50755 7.88841 8.35617 7.738C8.20818 7.59049 8.05004 7.63112 7.91075 7.7704C7.6375 8.04414 7.36086 8.31449 7.09293 8.59306C6.8603 8.83536 6.74761 9.1357 6.8424 9.4578C6.91398 9.70107 6.86078 9.8626 6.66588 9.98593C6.57786 10.0415 6.40762 10.1136 6.37135 10.0783C6.25334 9.96416 6.03329 9.90613 6.09567 9.65464C6.2988 8.83149 5.81952 8.07171 4.98864 7.88067C4.40586 7.74671 3.80519 8.17134 3.74474 8.7604C3.65817 9.60531 4.52193 10.4207 5.35378 10.2505C5.61011 10.1982 5.7639 10.2519 5.89497 10.487L5.89642 10.4865ZM8.16804 2.83106C7.7497 2.83106 7.33136 2.82913 6.91301 2.83154C6.55996 2.83348 6.32637 3.03419 6.32395 3.33162C6.32153 3.63147 6.55319 3.84089 6.90383 3.84234C7.74825 3.84524 8.59315 3.84476 9.43758 3.84234C9.79063 3.84137 10.0237 3.63824 10.0266 3.34033C10.0295 3.03515 9.79063 2.83251 9.42259 2.83106C9.00424 2.82961 8.58638 2.83106 8.16804 2.83106ZM8.95346 8.40445C8.89252 8.32416 8.84658 8.2018 8.76968 8.17811C8.6715 8.14764 8.51819 8.15779 8.44178 8.21825C8.24784 8.37156 8.0805 8.55969 7.90881 8.7396C7.78549 8.86873 7.77098 9.01576 7.90059 9.14586C8.02876 9.2745 8.18062 9.26676 8.30975 9.14779C8.49256 8.979 8.66618 8.80054 8.83691 8.61966C8.88333 8.57033 8.90461 8.49634 8.95346 8.40445Z" fill="black"/>
</g>
<defs>
<clipPath id="clip0_4400_10627">
<rect width="17" height="17" fill="white" transform="translate(0.5 0.5)"/>
</clipPath>
</defs>
</svg>
