<svg width="17" height="17" viewBox="0 0 17 17" fill="none" xmlns="http://www.w3.org/2000/svg">
<path d="M13.9621 0.95012L13.3275 0.632812L12.6929 0.95012L12.3756 4.1232L11.1064 8.2482L10.7891 16.1809H15.2314H15.866L16.1833 15.5463V14.277V11.7386L15.866 9.51743L15.5487 6.97897L15.2314 6.02704L14.9141 5.07512L14.5968 3.48858L14.2794 2.21935L13.9621 0.95012Z" fill="#ABABAB"/>
<path d="M8.23002 16.4991C5.84426 16.4991 3.4585 16.4996 1.07226 16.4991C0.456592 16.4991 0.0532423 16.1441 0.0280934 15.5338C-0.0923312 12.5575 0.156256 9.62424 1.12787 6.78629C1.32278 6.21657 1.53122 5.64201 1.81512 5.1134C2.23539 4.33185 2.38532 3.49758 2.47866 2.63623C2.54202 2.05201 2.61505 1.46778 2.71806 0.889352C2.86218 0.080234 3.4348 -0.158681 4.13849 0.260629C4.21007 0.303189 4.36241 0.294967 4.43012 0.245636C4.84508 -0.0580853 5.25471 -0.061954 5.69288 0.195339C5.77365 0.242735 5.92938 0.237414 6.01353 0.190502C6.37771 -0.0121401 6.72351 -0.00343444 7.05431 0.240317C7.18779 0.338494 7.2821 0.33801 7.41559 0.237898C7.81845 -0.0634051 8.25566 -0.0672743 8.68754 0.162935C8.84037 0.244669 8.95064 0.260629 9.10733 0.174059C9.45555 -0.0184272 9.81344 -0.037289 10.1534 0.209847C10.2951 0.312861 10.4291 0.313828 10.5747 0.209847C10.9369 -0.0508307 11.3059 -0.0624377 11.6667 0.212266C11.7842 0.301738 11.8742 0.287712 11.9893 0.203077C12.3008 -0.026649 12.5571 -0.0285835 12.8724 0.201626C12.9909 0.288196 13.0755 0.280941 13.1965 0.209364C13.5853 -0.0203619 13.8972 0.038158 14.068 0.461337C14.2948 1.02429 14.467 1.6148 14.6048 2.20725C14.7799 2.9593 14.8727 3.73069 15.0468 4.48274C15.1789 5.05295 15.4057 5.60042 15.5508 6.1682C16.3352 9.24556 16.5925 12.3732 16.4112 15.54C16.3763 16.1494 15.9831 16.4996 15.3636 16.4996C12.9856 16.5005 10.608 16.4996 8.23002 16.4996V16.4991ZM15.9116 13.4116C15.8395 11.1666 15.6286 8.94039 15.0986 6.75485C14.9341 6.07631 14.6667 5.42196 14.5085 4.74197C14.3431 4.03006 14.2701 3.29688 14.1241 2.58013C14.0181 2.06119 13.8692 1.55048 13.7188 1.04218C13.653 0.819708 13.536 0.793593 13.3667 0.948355C13.2917 1.01655 13.2264 1.13117 13.2177 1.22983C13.1718 1.76715 13.1529 2.30688 13.1104 2.84468C13.0514 3.59141 12.9479 4.32218 12.6901 5.04037C12.4033 5.83982 12.1658 6.66635 12.0086 7.50013C11.5008 10.2012 11.4854 12.9299 11.6503 15.6639C11.6624 15.8665 11.7533 15.9221 11.9405 15.9211C13.0847 15.9163 14.229 15.9197 15.3733 15.9178C15.6843 15.9173 15.8173 15.8002 15.8322 15.4873C15.8656 14.7957 15.8859 14.1032 15.9116 13.4111V13.4116ZM5.39642 9.98649C5.33983 10.046 5.29099 10.0992 5.23972 10.15C4.87023 10.5209 4.49783 10.8894 4.13075 11.2633C3.99146 11.405 3.90828 11.5926 4.01613 11.7672C4.10028 11.9031 4.25359 12.0574 4.3953 12.0796C4.53942 12.1024 4.74206 12.011 4.8591 11.9041C5.24311 11.553 5.59954 11.1719 5.99661 10.7724C6.06577 10.859 6.11123 10.9272 6.16733 10.9842C6.47879 11.2995 6.79073 11.6139 7.10654 11.9249C7.3382 12.1527 7.63661 12.1715 7.8378 11.9781C8.05011 11.774 8.03415 11.4799 7.79669 11.2299C7.758 11.1888 7.71689 11.1501 7.67675 11.1104C7.29371 10.7318 6.91067 10.3526 6.51119 9.95795C6.68385 9.85881 6.7148 9.60732 6.97016 9.68857C7.35997 9.81238 7.7019 9.71178 7.99062 9.43079C8.25082 9.17834 8.50569 8.92056 8.7596 8.66181C8.93129 8.48722 8.94773 8.33101 8.81667 8.19946C8.68947 8.07178 8.51972 8.08823 8.35141 8.25315C8.09847 8.50125 7.85134 8.75612 7.59791 9.00374C7.40011 9.1972 7.16119 9.21171 7.00014 9.04824C6.83039 8.87607 6.84635 8.66085 7.05044 8.45289C7.30483 8.19414 7.56358 7.94024 7.81894 7.68294C7.95484 7.54607 8.00755 7.38841 7.85617 7.238C7.70818 7.09049 7.55004 7.13112 7.41075 7.2704C7.1375 7.54414 6.86086 7.81449 6.59293 8.09306C6.3603 8.33536 6.24761 8.6357 6.3424 8.9578C6.41398 9.20107 6.36078 9.3626 6.16588 9.48593C6.07786 9.54154 5.90762 9.6136 5.87135 9.5783C5.75334 9.46416 5.53329 9.40613 5.59567 9.15464C5.7988 8.33149 5.31952 7.57171 4.48864 7.38067C3.90586 7.24671 3.30519 7.67134 3.24474 8.2604C3.15817 9.10531 4.02193 9.92071 4.85378 9.75047C5.11011 9.69824 5.2639 9.75192 5.39497 9.98697L5.39642 9.98649ZM7.66804 2.33106C7.2497 2.33106 6.83136 2.32913 6.41301 2.33154C6.05996 2.33348 5.82637 2.53419 5.82395 2.83162C5.82153 3.13147 6.05319 3.34089 6.40383 3.34234C7.24825 3.34524 8.09315 3.34476 8.93758 3.34234C9.29063 3.34137 9.52374 3.13824 9.52664 2.84033C9.52954 2.53515 9.29063 2.33251 8.92259 2.33106C8.50424 2.32961 8.0859 2.33106 7.66756 2.33106H7.66804ZM8.45346 7.90445C8.39252 7.82416 8.34658 7.7018 8.26968 7.67811C8.1715 7.64764 8.01819 7.65779 7.94178 7.71825C7.74784 7.87156 7.5805 8.05969 7.40881 8.2396C7.28549 8.36873 7.27098 8.51576 7.40059 8.64586C7.52876 8.7745 7.68062 8.76676 7.80975 8.64779C7.99256 8.479 8.16618 8.30054 8.33691 8.11966C8.38333 8.07033 8.40461 7.9973 8.45346 7.90541V7.90445Z" fill="#ABABAB"/>
</svg>
