<svg width="19" height="19" viewBox="0 0 19 19" fill="none" xmlns="http://www.w3.org/2000/svg">
<path d="M5.98037 17.9634C5.88058 18.2449 5.79362 18.5388 5.66888 18.8119C5.62682 18.9042 5.47714 19.0126 5.39302 18.9988C4.46853 18.8403 3.61673 18.4772 2.85832 17.9149C2.85404 17.8703 2.84905 17.8565 2.8519 17.8457C2.95597 17.4857 3.20331 17.0841 3.12562 16.7787C3.04436 16.4626 2.6566 16.2295 2.38431 15.9841C2.30875 15.9156 2.1669 15.9226 2.05428 15.9172C2.00154 15.9149 1.94594 15.9641 1.89176 15.9903C1.44365 16.2041 1.09604 16.0862 0.848942 15.6364C0.467595 14.9372 0.19103 14.1956 0.0584494 13.3664C0.326461 13.2371 0.594473 13.131 0.836824 12.9787C0.927349 12.9217 0.991501 12.7625 1.01003 12.6402C1.03356 12.4794 0.994352 12.3094 0.992214 12.1432C0.986036 11.6807 0.779563 11.3645 0.372793 11.1948C0.253043 11.1448 0.134719 11.0894 0 11.0301C0.127591 10.0117 0.439083 9.08317 0.956574 8.23931C1.00219 8.16469 1.17469 8.12084 1.26593 8.14777C1.5375 8.22854 1.79839 8.35239 1.93881 8.40931C2.28309 8.09161 2.57961 7.83468 2.85333 7.5516C2.91178 7.4916 2.92532 7.3239 2.89396 7.23082C2.79844 6.94466 2.67085 6.67004 2.5511 6.38003C3.30738 5.74309 4.14563 5.34001 5.05587 5.11539C5.13856 5.09539 5.32602 5.22693 5.34741 5.32001C5.49852 5.97387 5.84565 6.15464 6.46864 6.10695C6.90772 6.0731 7.14152 5.97695 7.2299 5.51386C7.26269 5.34309 7.34752 5.18462 7.41594 5C8.42384 5.15231 9.32909 5.52617 10.1745 6.14541C10.0718 6.44157 9.95493 6.72158 9.88436 7.01466C9.85728 7.1262 9.90788 7.29159 9.9756 7.39083C10.0718 7.53237 10.2208 7.63006 10.3398 7.75468C10.6307 8.05879 10.9631 8.12136 11.337 7.94238C11.4653 7.88084 11.5958 7.82468 11.7476 7.75622C12.3578 8.62701 12.7534 9.58165 12.948 10.6655C12.7177 10.7801 12.5003 10.9117 12.2687 10.9978C12.0263 11.0878 11.9294 11.2217 11.9828 11.5063C12.022 11.7171 12.0441 11.9471 12.0092 12.1556C11.9493 12.5117 12.0869 12.664 12.3849 12.7456C12.5887 12.8017 12.7805 12.9079 13 13.001C12.876 14.0902 12.516 15.0595 11.9479 15.9826C11.6742 15.871 11.4162 15.7441 11.1453 15.6679C11.0412 15.6387 10.8837 15.6903 10.7953 15.7656C10.6392 15.8995 10.5394 16.1133 10.3769 16.2333C10.0305 16.4903 10.0219 16.7703 10.2301 17.1257C10.3234 17.2849 10.3726 17.4734 10.4489 17.6672C9.69262 18.2911 8.86221 18.708 7.94698 18.9219C7.86501 18.9411 7.68253 18.8303 7.66614 18.7519C7.51859 18.0188 7.1016 17.8088 6.45937 17.9595C6.31325 17.9934 6.15501 17.9649 5.97894 17.9649L5.98037 17.9634ZM3.54046 12.0032C3.53334 13.7771 4.84845 15.2164 6.48717 15.2272C8.11591 15.2379 9.4631 13.7971 9.47023 12.0356C9.47735 10.267 8.15583 8.82701 6.51711 8.81625C4.87411 8.80625 3.54831 10.2255 3.54046 12.0025V12.0032Z" fill="#ABABAB"/>
<path d="M12.8435 6.43647C12.5939 6.57436 12.3422 6.71369 12.0752 6.86163C11.5499 6.34741 11.2039 5.74629 11.0036 5.02595C11.37 4.7753 11.7966 4.66039 11.7719 4.00253C11.7494 3.39063 11.4578 3.1802 11 2.97121C11.193 2.23866 11.5448 1.63395 12.0752 1.11326C12.3443 1.26192 12.5961 1.40125 12.8406 1.53555C13.0466 1.407 13.2258 1.24253 13.4369 1.17502C13.8381 1.04719 13.9419 0.790794 13.8809 0.417336C13.8381 0.155198 13.9404 6.91951e-05 14.2212 6.91951e-05C14.7254 -0.000648993 15.2303 0.00437832 15.7346 0.00796926C15.9885 0.0101238 16.0632 0.150889 16.0349 0.381427C16.0219 0.487719 16.0052 0.60622 16.04 0.701739C16.085 0.827421 16.1539 0.971777 16.2576 1.0436C16.5137 1.22027 16.796 1.3596 17.0934 1.52837C17.319 1.40269 17.5686 1.26336 17.8392 1.11254C18.3681 1.61958 18.7076 2.22358 18.9166 2.94895C18.5284 3.18595 18.1446 3.34108 18.1475 3.99032C18.1504 4.62879 18.5052 4.78464 19 5.05898C18.638 5.68524 18.2912 6.28565 17.9538 6.87025C17.8189 6.83291 17.7826 6.8286 17.7522 6.8128C17.5185 6.69286 17.2581 6.4379 17.06 6.47956C16.7241 6.54994 16.41 6.78335 16.1256 6.99881C16.032 7.06991 16.0197 7.30332 16.0414 7.4527C16.0966 7.84411 15.9188 8.00283 15.5525 7.99996C15.0954 7.99565 14.6383 7.98201 14.182 7.96549C13.9687 7.95759 13.8418 7.85848 13.8809 7.62435C13.9542 7.19559 13.8338 6.89826 13.3695 6.76468C13.1816 6.71081 13.0241 6.55281 12.8435 6.43647ZM13.4565 3.98386C13.4551 4.80475 14.1124 5.4705 14.9372 5.48415C15.7708 5.4978 16.4593 4.82198 16.4608 3.99032C16.4622 3.15722 15.7774 2.47925 14.9438 2.48931C14.1211 2.49864 13.458 3.16584 13.4558 3.98386H13.4565Z" fill="#ABABAB"/>
</svg>
