<svg width="20" height="20" viewBox="0 0 20 20" fill="none" xmlns="http://www.w3.org/2000/svg">
<path d="M5.36426 7.63574H14.6368C15.3268 7.63574 15.8868 7.07658 15.8868 6.38574C15.8868 5.69491 15.3268 5.13574 14.6368 5.13574H5.36426C4.67426 5.13574 4.11426 5.69491 4.11426 6.38574C4.11426 7.07658 4.67426 7.63574 5.36426 7.63574Z" fill="black"/>
<path d="M5.36426 3.71753H14.6368C15.3268 3.71753 15.8868 3.15836 15.8868 2.46753C15.8868 1.7767 15.3268 1.21753 14.6368 1.21753H5.36426C4.67426 1.21753 4.11426 1.7767 4.11426 2.46753C4.11426 3.15836 4.67426 3.71753 5.36426 3.71753Z" fill="black"/>
<path d="M18.9234 9.19993C18.7668 9.04327 18.5551 8.9541 18.3326 8.9541H13.3701C12.9393 8.9541 12.5801 9.28243 12.5401 9.71077C12.4993 10.1558 12.4301 10.6033 12.3351 11.0474C10.7826 11.3808 9.21842 11.3808 7.66509 11.0474C7.57009 10.6033 7.50092 10.1558 7.46008 9.71077C7.42008 9.28243 7.06092 8.9541 6.63009 8.9541H1.66759C1.44509 8.9541 1.23342 9.04243 1.07675 9.19993C0.920085 9.35743 0.832585 9.57077 0.834252 9.79244C0.860085 13.9558 1.78842 17.0974 1.82675 17.2291C1.91009 17.5058 2.12925 17.7191 2.40759 17.7941C2.55675 17.8341 6.10425 18.7816 9.99925 18.7816C14.0301 18.7816 17.4551 17.8324 17.5993 17.7916C17.8734 17.7141 18.0893 17.5024 18.1718 17.2299C18.2118 17.0991 19.1393 13.9799 19.1651 9.7916C19.1668 9.5691 19.0793 9.3566 18.9226 9.1991L18.9234 9.19993Z" fill="black"/>
</svg>
