<svg width="20" height="20" viewBox="0 0 20 20" fill="none" xmlns="http://www.w3.org/2000/svg">
<g clip-path="url(#clip0_3938_148)">
<path d="M17.5 10H15C14.558 10 14.134 10.1756 13.8215 10.4882C13.5089 10.8007 13.3333 11.2246 13.3333 11.6667C13.3333 12.1087 13.1577 12.5326 12.8452 12.8452C12.5326 13.1577 12.1087 13.3333 11.6667 13.3333H8.33333C7.89131 13.3333 7.46738 13.1577 7.15482 12.8452C6.84226 12.5326 6.66667 12.1087 6.66667 11.6667C6.66667 11.2246 6.49107 10.8007 6.17851 10.4882C5.86595 10.1756 5.44203 10 5 10H2.5C1.83696 10 1.20107 10.2634 0.732233 10.7322C0.263392 11.2011 0 11.837 0 12.5L0 15.8333C0.00132321 16.938 0.440735 17.997 1.22185 18.7782C2.00296 19.5593 3.062 19.9987 4.16667 20H15.8333C16.938 19.9987 17.997 19.5593 18.7782 18.7782C19.5593 17.997 19.9987 16.938 20 15.8333V12.5C20 11.837 19.7366 11.2011 19.2678 10.7322C18.7989 10.2634 18.163 10 17.5 10ZM18.3333 15.8333C18.3333 16.4964 18.0699 17.1323 17.6011 17.6011C17.1323 18.0699 16.4964 18.3333 15.8333 18.3333H4.16667C3.50363 18.3333 2.86774 18.0699 2.3989 17.6011C1.93006 17.1323 1.66667 16.4964 1.66667 15.8333V12.5C1.66667 12.279 1.75446 12.067 1.91074 11.9107C2.06702 11.7545 2.27899 11.6667 2.5 11.6667H5C5 12.5507 5.35119 13.3986 5.97631 14.0237C6.60143 14.6488 7.44928 15 8.33333 15H11.6667C12.5507 15 13.3986 14.6488 14.0237 14.0237C14.6488 13.3986 15 12.5507 15 11.6667H17.5C17.721 11.6667 17.933 11.7545 18.0893 11.9107C18.2455 12.067 18.3333 12.279 18.3333 12.5V15.8333Z" fill="black"/>
<path d="M2.50008 8.33317H17.5001C17.7211 8.33317 17.9331 8.24537 18.0893 8.08909C18.2456 7.93281 18.3334 7.72085 18.3334 7.49984C18.3334 7.27882 18.2456 7.06686 18.0893 6.91058C17.9331 6.7543 17.7211 6.6665 17.5001 6.6665H2.50008C2.27907 6.6665 2.06711 6.7543 1.91083 6.91058C1.75455 7.06686 1.66675 7.27882 1.66675 7.49984C1.66675 7.72085 1.75455 7.93281 1.91083 8.08909C2.06711 8.24537 2.27907 8.33317 2.50008 8.33317Z" fill="black"/>
<path d="M2.50008 5.00016H17.5001C17.7211 5.00016 17.9331 4.91237 18.0893 4.75608C18.2456 4.5998 18.3334 4.38784 18.3334 4.16683C18.3334 3.94582 18.2456 3.73385 18.0893 3.57757C17.9331 3.42129 17.7211 3.3335 17.5001 3.3335H2.50008C2.27907 3.3335 2.06711 3.42129 1.91083 3.57757C1.75455 3.73385 1.66675 3.94582 1.66675 4.16683C1.66675 4.38784 1.75455 4.5998 1.91083 4.75608C2.06711 4.91237 2.27907 5.00016 2.50008 5.00016Z" fill="black"/>
</g>
<defs>
<clipPath id="clip0_3938_148">
<rect width="20" height="20" fill="white"/>
</clipPath>
</defs>
</svg>
