<svg width="20" height="20" viewBox="0 0 20 20" fill="none" xmlns="http://www.w3.org/2000/svg">
<g clip-path="url(#clip0_3935_90)">
<path d="M9.9999 20C8.7174 20 7.50823 19.4367 6.68157 18.455C6.6024 18.3609 6.49907 18.3175 6.36823 18.3259C5.0949 18.4317 3.83573 17.9784 2.92907 17.0717C2.0224 16.165 1.5649 14.9117 1.6749 13.6325C1.68573 13.51 1.63907 13.3984 1.54573 13.32C0.563232 12.4925 0.000732422 11.2825 0.000732422 10.0009C0.000732422 8.71921 0.564066 7.50921 1.54573 6.68254C1.6399 6.60338 1.68657 6.49171 1.67573 6.36921C1.56573 5.09004 2.02323 3.83671 2.9299 2.93004C3.83573 2.02421 5.08323 1.56504 6.36907 1.67588C6.4899 1.68588 6.60323 1.64088 6.6824 1.54671C7.50907 0.564209 8.71823 0.00170898 10.0007 0.00170898C11.2832 0.00170898 12.4924 0.565042 13.3191 1.54671C13.3991 1.64088 13.5024 1.68421 13.6324 1.67588C14.8999 1.56421 16.1649 2.02338 17.0716 2.93004C17.9782 3.83671 18.4357 5.09004 18.3257 6.36921C18.3149 6.49171 18.3616 6.60338 18.4549 6.68171C19.4374 7.50921 19.9999 8.71921 19.9999 10.0009C19.9999 11.2825 19.4366 12.4925 18.4549 13.3192C18.3607 13.3984 18.3141 13.51 18.3249 13.6325C18.4349 14.9117 17.9774 16.165 17.0707 17.0717C16.1649 17.9775 14.9191 18.4384 13.6316 18.3259C13.5116 18.3192 13.3974 18.3617 13.3182 18.455C12.4916 19.4375 11.2824 20 9.9999 20ZM6.4049 17.49C6.75907 17.49 7.0874 17.6425 7.3199 17.9184C7.9874 18.7117 8.9649 19.1667 10.0007 19.1667C11.0366 19.1667 12.0141 18.7117 12.6816 17.9184C12.9366 17.615 13.3124 17.4567 13.7049 17.495C14.7391 17.5825 15.7507 17.2142 16.4832 16.4817C17.2157 15.7492 17.5849 14.7367 17.4966 13.7025C17.4632 13.3075 17.6174 12.9359 17.9207 12.6809C18.7132 12.0125 19.1682 11.035 19.1682 10C19.1682 8.96504 18.7132 7.98671 17.9199 7.31838C17.6174 7.06421 17.4632 6.69171 17.4966 6.29671C17.5849 5.26254 17.2157 4.25004 16.4832 3.51754C15.7499 2.78504 14.7307 2.41504 13.7049 2.50421C13.3049 2.53754 12.9374 2.38421 12.6816 2.08088C12.0141 1.28754 11.0366 0.832542 10.0007 0.832542C8.9649 0.832542 7.9874 1.28754 7.3199 2.08088C7.06407 2.38421 6.6849 2.53671 6.29657 2.50421C5.26073 2.41504 4.25073 2.78504 3.51823 3.51754C2.78573 4.25004 2.41657 5.26254 2.5049 6.29671C2.53823 6.69171 2.38407 7.06338 2.08073 7.31838C1.28823 7.98671 0.833232 8.96421 0.833232 9.99921C0.833232 11.0342 1.28823 12.0125 2.08157 12.6809C2.38407 12.935 2.53823 13.3075 2.5049 13.7025C2.41657 14.7367 2.78573 15.7492 3.51823 16.4817C4.25073 17.2142 5.2674 17.58 6.29657 17.495C6.33323 17.4917 6.36907 17.49 6.4049 17.49ZM7.4999 6.66671C7.0399 6.66671 6.66657 7.04004 6.66657 7.50004C6.66657 7.96004 7.0399 8.33338 7.4999 8.33338C7.9599 8.33338 8.33323 7.96004 8.33323 7.50004C8.33323 7.04004 7.9599 6.66671 7.4999 6.66671ZM12.4999 11.6667C12.0399 11.6667 11.6666 12.04 11.6666 12.5C11.6666 12.96 12.0399 13.3334 12.4999 13.3334C12.9599 13.3334 13.3332 12.96 13.3332 12.5C13.3332 12.04 12.9599 11.6667 12.4999 11.6667ZM8.26323 13.5642L12.4299 7.31421C12.5574 7.12254 12.5057 6.86421 12.3141 6.73671C12.1241 6.61004 11.8649 6.66088 11.7366 6.85254L7.5699 13.1025C7.4424 13.2942 7.49407 13.5525 7.68573 13.68C7.75657 13.7275 7.8374 13.75 7.91657 13.75C8.05073 13.75 8.1824 13.685 8.26323 13.5642Z" fill="black"/>
</g>
<defs>
<clipPath id="clip0_3935_90">
<rect width="20" height="20" fill="white"/>
</clipPath>
</defs>
</svg>
