<svg width="20" height="20" viewBox="0 0 20 20" fill="none" xmlns="http://www.w3.org/2000/svg">
<g clip-path="url(#clip0_3935_68)">
<path d="M0 2.5V9.16667H9.16667V0H2.5C1.83696 0 1.20107 0.263392 0.732233 0.732233C0.263392 1.20107 0 1.83696 0 2.5Z" fill="black"/>
<path d="M17.4999 0H10.8333V9.16667H19.9999V2.5C19.9999 1.83696 19.7365 1.20107 19.2677 0.732233C18.7988 0.263392 18.163 0 17.4999 0Z" fill="black"/>
<path d="M0 17.4999C0 18.163 0.263392 18.7988 0.732233 19.2677C1.20107 19.7365 1.83696 19.9999 2.5 19.9999H9.16667V10.8333H0V17.4999Z" fill="black"/>
<path d="M10.8333 19.9999H17.4999C18.163 19.9999 18.7988 19.7365 19.2677 19.2677C19.7365 18.7988 19.9999 18.163 19.9999 17.4999V10.8333H10.8333V19.9999Z" fill="black"/>
</g>
<defs>
<clipPath id="clip0_3935_68">
<rect width="20" height="20" fill="white"/>
</clipPath>
</defs>
</svg>
