<svg width="20" height="20" viewBox="0 0 20 20" fill="none" xmlns="http://www.w3.org/2000/svg">
<g clip-path="url(#clip0_3935_62)">
<path d="M9.16667 9.16667H0V2.5C0 1.83696 0.263392 1.20107 0.732233 0.732233C1.20107 0.263392 1.83696 0 2.5 0L9.16667 0V9.16667ZM1.66667 7.5H7.5V1.66667H2.5C2.27899 1.66667 2.06702 1.75446 1.91074 1.91074C1.75446 2.06702 1.66667 2.27899 1.66667 2.5V7.5Z" fill="black"/>
<path d="M19.9999 9.16667H10.8333V0H17.4999C18.163 0 18.7988 0.263392 19.2677 0.732233C19.7365 1.20107 19.9999 1.83696 19.9999 2.5V9.16667ZM12.4999 7.5H18.3333V2.5C18.3333 2.27899 18.2455 2.06702 18.0892 1.91074C17.9329 1.75446 17.7209 1.66667 17.4999 1.66667H12.4999V7.5Z" fill="black"/>
<path d="M9.16667 19.9999H2.5C1.83696 19.9999 1.20107 19.7365 0.732233 19.2677C0.263392 18.7988 0 18.163 0 17.4999L0 10.8333H9.16667V19.9999ZM1.66667 12.4999V17.4999C1.66667 17.7209 1.75446 17.9329 1.91074 18.0892C2.06702 18.2455 2.27899 18.3333 2.5 18.3333H7.5V12.4999H1.66667Z" fill="black"/>
<path d="M17.4999 19.9999H10.8333V10.8333H19.9999V17.4999C19.9999 18.163 19.7365 18.7988 19.2677 19.2677C18.7988 19.7365 18.163 19.9999 17.4999 19.9999ZM12.4999 18.3333H17.4999C17.7209 18.3333 17.9329 18.2455 18.0892 18.0892C18.2455 17.9329 18.3333 17.7209 18.3333 17.4999V12.4999H12.4999V18.3333Z" fill="black"/>
</g>
<defs>
<clipPath id="clip0_3935_62">
<rect width="20" height="20" fill="white"/>
</clipPath>
</defs>
</svg>
