<svg width="20" height="20" viewBox="0 0 20 20" fill="none" xmlns="http://www.w3.org/2000/svg">
<g clip-path="url(#clip0_3937_146)">
<path d="M15.4167 4.16667H12.9167C11.7675 4.16667 10.8333 5.10167 10.8333 6.25V9.16667H9.36083L7.96833 6.3825C7.5425 5.53 6.68583 5 5.7325 5H4.58333C3.435 5 2.5 5.93417 2.5 7.08333V11.8008C2.5 12.53 2.87083 13.1933 3.50167 13.5817L6.66667 15.4733V20.0008H8.33333V14.5283L6.66667 13.5325V7.50583L8.33083 10.8342H15.4167C16.5658 10.8342 17.5 9.89917 17.5 8.75083V6.25083C17.5 5.1025 16.5658 4.16667 15.4167 4.16667ZM3.33333 2.08333C3.33333 0.9325 4.26583 0 5.41667 0C6.5675 0 7.5 0.9325 7.5 2.08333C7.5 3.23417 6.5675 4.16667 5.41667 4.16667C4.26583 4.16667 3.33333 3.23417 3.33333 2.08333ZM3.33333 15.4225L5 16.4183V20H3.33333V15.4225Z" fill="black"/>
</g>
<defs>
<clipPath id="clip0_3937_146">
<rect width="20" height="20" fill="white"/>
</clipPath>
</defs>
</svg>
