<svg width="20" height="20" viewBox="0 0 20 20" fill="none" xmlns="http://www.w3.org/2000/svg">
<g clip-path="url(#clip0_3936_106)">
<path d="M17.9167 5.00008H3.75C2.795 5.00008 1.89917 4.52758 1.35667 3.75091C1.885 2.99508 2.76083 2.50008 3.75 2.50008H19.5833C19.8133 2.50008 20 2.31341 20 2.08341C20 1.85341 19.8133 1.66675 19.5833 1.66675H3.75C1.67917 1.66675 0 3.34591 0 5.41675V14.5834C0 16.6542 1.67917 18.3334 3.75 18.3334H17.9167C19.0675 18.3334 20 17.4009 20 16.2501V7.08341C20 5.93258 19.0675 5.00008 17.9167 5.00008ZM19.1667 16.2501C19.1667 16.9392 18.6058 17.5001 17.9167 17.5001H3.75C2.14167 17.5001 0.833333 16.1917 0.833333 14.5834V5.41675C0.833333 5.12675 0.875833 4.84675 0.955 4.58258C1.66 5.36758 2.675 5.83341 3.75 5.83341H17.9167C18.6058 5.83341 19.1667 6.39425 19.1667 7.08341V16.2501ZM17.5 11.6667C17.5 12.1267 17.1267 12.5001 16.6667 12.5001C16.2067 12.5001 15.8333 12.1267 15.8333 11.6667C15.8333 11.2067 16.2067 10.8334 16.6667 10.8334C17.1267 10.8334 17.5 11.2067 17.5 11.6667Z" fill="black"/>
</g>
<defs>
<clipPath id="clip0_3936_106">
<rect width="20" height="20" fill="white"/>
</clipPath>
</defs>
</svg>
