<svg width="20" height="20" viewBox="0 0 20 20" fill="none" xmlns="http://www.w3.org/2000/svg">
<g clip-path="url(#clip0_3936_108)">
<path d="M17.5 5.00008H4.16667C3.45083 5.00008 2.77333 4.69008 2.30417 4.16758C2.7625 3.65591 3.42833 3.33341 4.16667 3.33341H19.1667C20.2567 3.32841 20.2558 1.67091 19.1667 1.66675H4.16667C1.86583 1.66675 0 3.53258 0 5.83341V14.1667C0 16.4676 1.86583 18.3334 4.16667 18.3334H17.5C18.8808 18.3334 20 17.2142 20 15.8334V7.50008C20 6.11925 18.8808 5.00008 17.5 5.00008ZM16.6667 12.5001C15.5767 12.4951 15.5767 10.8384 16.6667 10.8334C17.7567 10.8384 17.7567 12.4951 16.6667 12.5001Z" fill="black"/>
</g>
<defs>
<clipPath id="clip0_3936_108">
<rect width="20" height="20" fill="white"/>
</clipPath>
</defs>
</svg>
