<svg width="20" height="20" viewBox="0 0 20 20" fill="none" xmlns="http://www.w3.org/2000/svg">
<g clip-path="url(#clip0_3935_77)">
<path d="M3.33332 0H5.83332C7.67426 0 9.16664 1.49238 9.16664 3.33332V5.83332C9.16664 7.67426 7.67426 9.16664 5.83332 9.16664H3.33332C1.49238 9.16668 0 7.6743 0 5.83332V3.33332C0 1.49238 1.49238 0 3.33332 0Z" fill="black"/>
<path d="M14.1666 0H16.6666C18.5075 0 19.9999 1.49238 19.9999 3.33332V5.83332C19.9999 7.67426 18.5075 9.16664 16.6666 9.16664H14.1666C12.3256 9.16664 10.8333 7.67426 10.8333 5.83332V3.33332C10.8332 1.49238 12.3256 0 14.1666 0Z" fill="black"/>
<path d="M3.33332 10.8333H5.83332C7.67426 10.8333 9.16664 12.3256 9.16664 14.1666V16.6666C9.16664 18.5075 7.67426 19.9999 5.83332 19.9999H3.33332C1.49238 19.9999 0 18.5075 0 16.6666V14.1666C0 12.3256 1.49238 10.8333 3.33332 10.8333Z" fill="black"/>
<path d="M14.1666 10.8333H16.6666C18.5075 10.8333 19.9999 12.3256 19.9999 14.1666V16.6666C19.9999 18.5075 18.5075 19.9999 16.6666 19.9999H14.1666C12.3256 19.9999 10.8333 18.5075 10.8333 16.6666V14.1666C10.8332 12.3256 12.3256 10.8333 14.1666 10.8333Z" fill="black"/>
</g>
<defs>
<clipPath id="clip0_3935_77">
<rect width="20" height="20" fill="white"/>
</clipPath>
</defs>
</svg>
