<svg width="20" height="20" viewBox="0 0 20 20" fill="none" xmlns="http://www.w3.org/2000/svg">
<g clip-path="url(#clip0_3935_75)">
<path d="M17.4408 6.66675C17.239 4.83437 16.3681 3.1409 14.9951 1.9108C13.6221 0.680702 11.8435 0.000488281 10 0.000488281C8.15654 0.000488281 6.3779 0.680702 5.00488 1.9108C3.63185 3.1409 2.76099 4.83437 2.55917 6.66675H0L1.595 17.8542C1.68211 18.4483 1.97929 18.9915 2.43262 19.3852C2.88596 19.7789 3.46541 19.9971 4.06583 20.0001H15.9342C16.5346 19.9971 17.114 19.7789 17.5674 19.3852C18.0207 18.9915 18.3179 18.4483 18.405 17.8542L20 6.66675H17.4408ZM10 1.66675C11.4011 1.66899 12.7546 2.17546 13.813 3.09355C14.8714 4.01164 15.564 5.28001 15.7642 6.66675H4.23583C4.43599 5.28001 5.12859 4.01164 6.18699 3.09355C7.2454 2.17546 8.59889 1.66899 10 1.66675ZM11.6667 14.1992L5.8075 8.33342H8.16083L11.6667 11.8426L15.1667 8.33342H17.5192L11.6667 14.1992Z" fill="black"/>
</g>
<defs>
<clipPath id="clip0_3935_75">
<rect width="20" height="20" fill="white"/>
</clipPath>
</defs>
</svg>
