<svg width="20" height="20" viewBox="0 0 20 20" fill="none" xmlns="http://www.w3.org/2000/svg">
<g clip-path="url(#clip0_3935_88)">
<path d="M20.0001 10.0001C20.0001 8.64511 19.4051 7.36678 18.3959 6.56344C18.5126 5.21178 18.0292 3.88761 17.0709 2.92844C16.1126 1.97094 14.7917 1.48594 13.5067 1.63261C11.8284 -0.497392 8.20258 -0.537392 6.56341 1.60344C3.86924 1.28344 1.27841 3.82011 1.63341 6.49344C-0.496588 8.17178 -0.537422 11.7976 1.60424 13.4376C1.48758 14.7893 1.97091 16.1134 2.92924 17.0726C3.88758 18.0301 5.21008 18.5151 6.49341 18.3684C8.17174 20.4984 11.7976 20.5384 13.4367 18.3976C14.7867 18.5134 16.1117 18.0318 17.0709 17.0726C18.0284 16.1143 18.5117 14.7893 18.3667 13.5084C19.4051 12.6351 20.0001 11.3568 20.0001 10.0018V10.0001ZM6.66674 7.50011C6.67174 6.41011 8.32841 6.41011 8.33341 7.50011C8.32841 8.59011 6.67174 8.59011 6.66674 7.50011ZM9.02674 12.9626C8.77008 13.3484 8.24924 13.4468 7.87091 13.1934C7.48758 12.9384 7.38425 12.4209 7.64008 12.0376L10.9734 7.03761C11.2284 6.65511 11.7451 6.55011 12.1292 6.80678C12.5126 7.06178 12.6159 7.57928 12.3601 7.96261L9.02674 12.9626ZM12.5001 13.3334C11.4101 13.3284 11.4101 11.6718 12.5001 11.6668C13.5901 11.6718 13.5901 13.3284 12.5001 13.3334Z" fill="black"/>
</g>
<defs>
<clipPath id="clip0_3935_88">
<rect width="20" height="20" fill="white"/>
</clipPath>
</defs>
</svg>
