<svg width="20" height="20" viewBox="0 0 20 20" fill="none" xmlns="http://www.w3.org/2000/svg">
<g clip-path="url(#clip0_3936_119)">
<path d="M3.33332 0H5.83332C7.67426 0 9.16664 1.49238 9.16664 3.33332V5.83332C9.16664 7.67426 7.67426 9.16664 5.83332 9.16664H3.33332C1.49238 9.16668 0 7.6743 0 5.83332V3.33332C0 1.49238 1.49238 0 3.33332 0Z" fill="black"/>
<path d="M3.33332 10.8333H5.83332C7.67426 10.8333 9.16664 12.3256 9.16664 14.1666V16.6666C9.16664 18.5075 7.67426 19.9999 5.83332 19.9999H3.33332C1.49238 19.9999 0 18.5075 0 16.6666V14.1666C0 12.3256 1.49238 10.8333 3.33332 10.8333Z" fill="black"/>
<path d="M14.1667 10.8333H16.6667C18.5076 10.8333 20 12.3256 20 14.1666V16.6666C20 18.5075 18.5076 19.9999 16.6667 19.9999H14.1667C12.3258 19.9999 10.8334 18.5075 10.8334 16.6666V14.1666C10.8333 12.3256 12.3257 10.8333 14.1667 10.8333Z" fill="black"/>
<path d="M11.6667 5.83321H14.1667V8.33321C14.1667 8.79345 14.5398 9.16653 15 9.16653C15.4602 9.16653 15.8333 8.79345 15.8333 8.33321V5.83321H18.3333C18.7936 5.83321 19.1667 5.46013 19.1667 4.99989C19.1667 4.53966 18.7936 4.16657 18.3333 4.16657H15.8333V1.66657C15.8333 1.20634 15.4602 0.833252 15 0.833252C14.5398 0.833252 14.1667 1.20634 14.1667 1.66657V4.16657H11.6667C11.2065 4.16657 10.8334 4.53966 10.8334 4.99989C10.8334 5.46013 11.2065 5.83321 11.6667 5.83321Z" fill="black"/>
</g>
<defs>
<clipPath id="clip0_3936_119">
<rect width="20" height="20" fill="white"/>
</clipPath>
</defs>
</svg>
