<svg width="20" height="20" viewBox="0 0 20 20" fill="none" xmlns="http://www.w3.org/2000/svg">
<g clip-path="url(#clip0_3937_129)">
<path d="M19.1616 9.96173C19.1666 8.95673 18.785 7.7434 17.0191 7.42006C16.9275 7.24506 16.8266 7.06923 16.7158 6.89256C17.6058 5.66006 17.5375 4.51673 16.5091 3.4884C15.48 2.4584 14.3366 2.3909 13.1033 3.28423C12.9291 3.17423 12.755 3.07423 12.5808 2.98423C12.2625 1.22423 11.0608 0.834229 10.0583 0.834229C8.65247 0.834229 7.74914 1.57673 7.48664 3.0209C7.3133 3.11173 7.1383 3.21256 6.96247 3.32256C5.73497 2.4359 4.59081 2.51173 3.55164 3.54923C2.51581 4.58589 2.44081 5.7309 3.32497 6.9584C3.21414 7.13506 3.11247 7.31089 3.01997 7.48589C1.57914 7.74923 0.845805 8.60673 0.838305 10.0384C0.833305 11.0434 1.21497 12.2567 2.9808 12.5801C3.07247 12.7551 3.1733 12.9309 3.28497 13.1076C2.39414 14.3401 2.46247 15.4834 3.49081 16.5117C4.51997 17.5417 5.66414 17.6092 6.89664 16.7159C7.0708 16.8259 7.24497 16.9259 7.41914 17.0159C7.73747 18.7759 8.93914 19.1659 9.94164 19.1659C11.4291 19.1659 12.2508 18.4234 12.5133 16.9792C12.6866 16.8884 12.8616 16.7876 13.0375 16.6776C14.9966 18.1517 16.4475 16.4509 16.4483 16.4509C17.46 15.4934 17.56 14.2692 16.675 13.0409C16.7858 12.8642 16.8875 12.6884 16.98 12.5142C18.4208 12.2509 19.1541 11.3934 19.1616 9.96173ZM12.0516 12.0517C11.3708 12.7334 10.7241 13.1134 9.82664 13.0601C8.97997 13.0092 8.34914 12.4534 7.9483 12.0517C6.58664 10.6909 6.58664 9.30923 7.9483 7.94756C8.6833 7.21089 9.40997 6.8759 10.1733 6.94006C11.0191 7.00506 11.6508 7.54673 12.0516 7.94839C13.4125 9.30923 13.4133 10.6909 12.0516 12.0526V12.0517Z" fill="black"/>
</g>
<defs>
<clipPath id="clip0_3937_129">
<rect width="20" height="20" fill="white"/>
</clipPath>
</defs>
</svg>
