<svg width="20" height="20" viewBox="0 0 20 20" fill="none" xmlns="http://www.w3.org/2000/svg">
<g clip-path="url(#clip0_3936_127)">
<path d="M9.96 5.38333C10.1475 6.44583 9.6425 7.5075 8.705 8.02417C8.2925 8.25083 7.91667 8.94667 7.91667 9.48417V10H7.08333V9.48417C7.08333 8.64667 7.63083 7.66417 8.30333 7.29417C8.93833 6.94417 9.26667 6.25083 9.14 5.52833C9.02167 4.86 8.47333 4.31167 7.805 4.19333C7.30333 4.10667 6.8125 4.23333 6.42917 4.55667C6.05083 4.875 5.83333 5.33917 5.83333 5.83333H5C5 5.0925 5.32583 4.39417 5.8925 3.91833C6.45917 3.4425 7.20583 3.2425 7.95 3.37333C8.95667 3.55 9.78333 4.37667 9.96 5.38333ZM7.5 10.8333C7.04 10.8333 6.66667 11.2067 6.66667 11.6667C6.66667 12.1267 7.04 12.5 7.5 12.5C7.96 12.5 8.33333 12.1267 8.33333 11.6667C8.33333 11.2067 7.96 10.8333 7.5 10.8333ZM16.6633 7.56667C16.6608 7.885 16.6425 8.19917 16.6083 8.50917C18.1517 9.56 19.1667 11.33 19.1667 13.3333V19.1667H13.3333C11.33 19.1667 9.56 18.1508 8.50917 16.6083C8.19917 16.6425 7.885 16.6617 7.56667 16.6633C8.72083 18.6542 10.8708 20 13.3333 20H20V13.3333C20 10.8708 18.6542 8.72083 16.6633 7.56667ZM10.4708 14.3858C9.55917 14.7808 8.555 15 7.5 15H0V7.5C0 3.36417 3.36417 0 7.5 0C11.6358 0 15 3.36417 15 7.5C15 10.2675 13.4933 12.6892 11.2583 13.9883L13.0342 15.7058C13.2017 15.8742 13.4667 15.8733 13.6283 15.7108L17.0167 12.3942L17.5992 12.99L14.2142 16.3042C13.9725 16.5458 13.6542 16.6675 13.3342 16.6675C13.0142 16.6675 12.6933 16.5458 12.4492 16.3017L10.47 14.3875L10.4708 14.3858ZM7.5 14.1667C11.1758 14.1667 14.1667 11.1758 14.1667 7.5C14.1667 3.82417 11.1758 0.833333 7.5 0.833333C3.82417 0.833333 0.833333 3.82417 0.833333 7.5V14.1667H7.5Z" fill="black"/>
</g>
<defs>
<clipPath id="clip0_3936_127">
<rect width="20" height="20" fill="white"/>
</clipPath>
</defs>
</svg>
