<svg width="20" height="20" viewBox="0 0 20 20" fill="none" xmlns="http://www.w3.org/2000/svg">
<g clip-path="url(#clip0_3936_125)">
<path d="M20 13.3333V20H13.3333C10.8708 20 8.72083 18.6542 7.56667 16.6633C9.02583 16.6525 10.3992 16.2933 11.62 15.6767L12.9975 17.0117C13.3233 17.3375 13.7508 17.5 14.1783 17.5C14.6033 17.5 15.0275 17.3392 15.3475 17.0183L18.5083 13.9292L17.3433 12.7375L14.1667 15.8242L13.0725 14.7633C15.2358 13.1008 16.6425 10.5017 16.6633 7.56667C18.6542 8.72083 20 10.8708 20 13.3333ZM7.5 15H0V7.5C0 3.36417 3.365 0 7.5 0C11.635 0 15 3.36417 15 7.5C15 11.6358 11.6358 15 7.5 15ZM8.33333 10H6.66667V11.7308H8.33333V10ZM9.96083 5.3875C9.78333 4.3775 8.95417 3.54917 7.94667 3.37333C7.20833 3.23917 6.46083 3.44083 5.89417 3.9175C5.32583 4.39417 5.00083 5.0925 5.00083 5.83333H6.6675C6.6675 5.58583 6.77583 5.35333 6.96583 5.19417C7.1575 5.03333 7.40417 4.96833 7.65917 5.01417C7.985 5.07083 8.26333 5.34833 8.32 5.675C8.3975 6.1175 8.14333 6.43083 7.90167 6.56333C7.1975 6.95083 6.6675 7.8925 6.6675 8.75333V9.16583H8.33417V8.75333C8.33417 8.49333 8.55083 8.10917 8.70667 8.02333C9.64333 7.50583 10.1475 6.44667 9.96167 5.38667L9.96083 5.3875Z" fill="black"/>
</g>
<defs>
<clipPath id="clip0_3936_125">
<rect width="20" height="20" fill="white"/>
</clipPath>
</defs>
</svg>
