<svg width="20" height="20" viewBox="0 0 20 20" fill="none" xmlns="http://www.w3.org/2000/svg">
<g clip-path="url(#clip0_3936_110)">
<path d="M10.0325 0.00166667C10.0217 0.00166667 10.0108 0 10 0C9.99583 0 9.9925 0 9.98833 0C9.98667 0 9.98583 0 9.98417 0C4.4775 0.00916667 0 4.49167 0 10C0 15.5083 4.48583 20 10 20C15.5142 20 20 15.5142 20 10C20 4.48583 15.5317 0.0191667 10.0325 0.00166667ZM18.155 5.83333H14.1433C13.2542 3.60917 11.8833 1.84917 11.0342 0.895833C14.1458 1.24667 16.785 3.16167 18.1558 5.83333H18.155ZM14.1667 10C14.1667 11.1725 13.9233 12.2942 13.5575 13.3333H6.4425C6.07667 12.2942 5.83333 11.1725 5.83333 10C5.83333 8.8275 6.07667 7.705 6.44167 6.66667H13.5575C13.9233 7.70583 14.1667 8.8275 14.1667 10ZM13.2317 14.1667C12.2075 16.5317 10.635 18.325 10 18.99C9.365 18.325 7.7925 16.5317 6.76833 14.1667H13.2308H13.2317ZM6.7675 5.83333C7.79167 3.46583 9.365 1.67333 10 1.00917C10.635 1.67417 12.2075 3.4675 13.2317 5.83333H6.7675ZM8.96417 0.895833C8.11 1.85417 6.74083 3.61583 5.85583 5.83333H1.845C3.21583 3.1625 5.85333 1.24833 8.96417 0.895833ZM1.47 6.66667H5.55667C5.22083 7.70583 5 8.82417 5 10C5 11.1758 5.22083 12.2933 5.5575 13.3333H1.47C1.06417 12.2983 0.833333 11.1767 0.833333 10C0.833333 8.82333 1.06417 7.70167 1.47 6.66667ZM1.845 14.1667H5.8575C6.74667 16.3908 8.1175 18.1508 8.96667 19.1042C5.855 18.7533 3.21583 16.8383 1.845 14.1667ZM11.0333 19.1042C11.8825 18.1508 13.2533 16.39 14.1425 14.1667H18.1542C16.7833 16.8383 14.145 18.7533 11.0333 19.1042ZM18.53 13.3333H14.4425C14.7792 12.2933 15 11.1758 15 10C15 8.82417 14.7792 7.70667 14.4425 6.66667H18.53C18.9358 7.70167 19.1667 8.82333 19.1667 10C19.1667 11.1767 18.9358 12.2983 18.53 13.3333Z" fill="black"/>
</g>
<defs>
<clipPath id="clip0_3936_110">
<rect width="20" height="20" fill="white"/>
</clipPath>
</defs>
</svg>
