<svg width="20" height="20" viewBox="0 0 20 20" fill="none" xmlns="http://www.w3.org/2000/svg">
<g clip-path="url(#clip0_95_2399)">
<path d="M15.8333 2.50006H10.3933C10.265 2.50006 10.135 2.47006 10.0208 2.41256L7.39083 1.09756C7.045 0.925062 6.65917 0.834229 6.27333 0.834229H4.16667C1.86917 0.833395 0 2.70256 0 5.00006V15.0001C0 17.2976 1.86917 19.1667 4.16667 19.1667H5C5.46 19.1667 5.83333 18.7942 5.83333 18.3334C5.83333 17.8726 5.46 17.5001 5 17.5001H4.16667C2.78833 17.5001 1.66667 16.3784 1.66667 15.0001V7.50006H18.3333V15.0001C18.3333 16.3784 17.2117 17.5001 15.8333 17.5001H15C14.5392 17.5001 14.1667 17.8726 14.1667 18.3334C14.1667 18.7942 14.5392 19.1667 15 19.1667H15.8333C18.1308 19.1667 20 17.2976 20 15.0001V6.66673C20 4.36923 18.1308 2.50006 15.8333 2.50006ZM1.66667 5.00006C1.66667 3.62173 2.78833 2.50006 4.16667 2.50006H6.27333C6.40167 2.50006 6.53167 2.53006 6.64583 2.58756L9.27583 3.90256C9.62167 4.07506 10.0075 4.1659 10.3933 4.1659H15.8333C16.9183 4.1659 17.835 4.86506 18.18 5.83256H1.66667V5.00006ZM13.0892 15.9209C13.415 16.2467 13.415 16.7734 13.0892 17.0992L11.745 18.4434C11.2642 18.9242 10.6325 19.1642 10 19.1642C9.3675 19.1642 8.73667 18.9242 8.25583 18.4434L6.91083 17.0992C6.585 16.7734 6.585 16.2467 6.91083 15.9209C7.23667 15.5951 7.76333 15.5951 8.08917 15.9209L9.16667 16.9984V10.8334C9.16667 10.3726 9.54 10.0001 10 10.0001C10.46 10.0001 10.8333 10.3726 10.8333 10.8334V16.9984L11.9108 15.9209C12.2367 15.5951 12.7633 15.5951 13.0892 15.9209Z" fill="black"/>
</g>
<defs>
<clipPath id="clip0_95_2399">
<rect width="20" height="20" fill="white"/>
</clipPath>
</defs>
</svg>
