<svg width="23" height="14" viewBox="0 0 23 14" fill="none" xmlns="http://www.w3.org/2000/svg">
<path d="M8.49337 3.99288C8.48956 4.35077 8.25275 4.58911 7.9375 4.58835L7.96263 5.7275C8.27026 5.73893 8.48043 5.95823 8.49413 6.30165C8.50479 6.55446 8.49642 6.80803 8.49642 7.0616C8.49566 7.30222 8.50556 7.54361 8.49261 7.78347C8.4751 8.10633 8.29844 8.29975 7.97253 8.32792L7.9672 9.46936C8.29158 9.48535 8.49489 9.72978 8.49718 10.1296C8.50175 10.904 8.4987 11.6776 8.4987 12.452V12.8092C8.61216 12.8213 8.66242 12.832 8.71268 12.832C12.7355 12.8328 16.7591 12.8343 20.782 12.8312C21.2312 12.8312 21.4315 12.6264 21.4345 12.1779C21.4406 11.2512 21.4399 10.3253 21.4345 9.39855C21.4315 8.92643 21.2571 8.75206 20.769 8.70409C19.8415 8.61347 19.1882 7.9114 19.1966 7.01439C19.205 6.13032 19.8522 5.44195 20.7591 5.35286C21.2807 5.30184 21.4345 5.13204 21.4361 4.59216C21.4383 3.74159 21.4368 2.8918 21.4361 2.04124C21.4353 1.37495 21.2807 1.22266 20.6007 1.22266H8.95025H8.49718V1.6704C8.49642 2.44481 8.50251 3.21847 8.49337 3.99288Z" fill="black"/>
<path d="M7.37269 3.64677V1.26794C7.29122 1.24586 7.25543 1.22758 7.2204 1.22758C5.65939 1.2253 4.09838 1.21997 2.53737 1.22758C2.14369 1.22911 1.94494 1.44841 1.9419 1.8596C1.93504 2.78631 1.93733 3.71226 1.94114 4.63896C1.94266 5.12402 2.11171 5.30296 2.58991 5.35094C3.53184 5.44536 4.17833 6.12459 4.18138 7.02312C4.18442 7.92089 3.53413 8.61307 2.59981 8.70521C2.11704 8.75242 1.94494 8.92984 1.94266 9.40728C1.93809 10.2959 1.94038 11.1838 1.9419 12.0724C1.94342 12.6618 2.11704 12.8331 2.71936 12.8339C4.14102 12.8354 5.56192 12.8339 6.98358 12.8339H7.37498C7.37498 11.8881 7.36812 11.001 7.37802 10.1147C7.38259 9.70121 7.62474 9.45221 7.96588 9.46896L7.97121 8.32752C7.65596 8.35493 7.40468 8.15314 7.38792 7.812C7.36279 7.2942 7.36355 6.77336 7.3864 6.25556C7.40163 5.91214 7.64606 5.71568 7.96131 5.7271L7.93618 4.58795C7.63159 4.58718 7.41305 4.37245 7.37878 4.0275C7.36584 3.9011 7.37269 3.77394 7.37269 3.64677Z" fill="black"/>
<path d="M18.0809 9.42666C18.0801 10.319 17.4413 10.9666 16.5601 10.9682C15.6725 10.9698 15.0369 10.3334 15.0313 9.43702C15.0257 8.52629 15.6828 7.85401 16.5688 7.86438C17.4381 7.87474 18.0817 8.53985 18.0809 9.42666ZM16.5457 8.89872C16.2594 8.9035 16.013 9.15152 16.017 9.42985C16.0218 9.71934 16.2562 9.93705 16.5601 9.93386C16.8631 9.93067 17.0896 9.70578 17.0856 9.4131C17.0816 9.1268 16.8368 8.89393 16.5457 8.89872Z" fill="#D1D1D1"/>
<path d="M12.4735 3.79181C13.3476 3.79181 14.0039 4.45134 14.0063 5.33017C14.0087 6.20501 13.3532 6.88208 12.4895 6.89484C11.6146 6.9084 10.9304 6.21618 10.9376 5.32538C10.9447 4.43778 11.5923 3.79102 12.4727 3.79102L12.4735 3.79181ZM12.4815 5.86528C12.7829 5.8597 12.9839 5.64358 12.9791 5.32778C12.9743 5.01357 12.7686 4.8134 12.4568 4.81978C12.1577 4.82616 11.9376 5.05504 11.9448 5.3517C11.952 5.64358 12.1888 5.87007 12.4815 5.86528Z" fill="#D1D1D1"/>
<path d="M17.2533 3.86785L11.3322 9.78891C11.1142 10.0069 11.1142 10.3604 11.3322 10.5784C11.5502 10.7964 11.9037 10.7964 12.1217 10.5784L18.0428 4.65732C18.2608 4.43932 18.2608 4.08586 18.0428 3.86785C17.8248 3.64984 17.4713 3.64985 17.2533 3.86785Z" fill="#D1D1D1"/>
</svg>
