<svg width="14" height="13" viewBox="0 0 14 13" fill="none" xmlns="http://www.w3.org/2000/svg">
<g clip-path="url(#clip0_4400_10584)">
<path d="M8.00078 4.0029C8.00078 3.03842 7.99873 2.07394 8.00129 1.10893C8.00333 0.392141 8.37852 0.000238275 9.05825 0.000238275C10.3542 0.000238275 11.6502 -0.000297844 12.9467 0.000238275C13.6096 0.000238275 13.9991 0.405008 13.9996 1.09285C14.0001 3.03092 14.0001 4.96899 13.9996 6.90705C13.9996 7.58846 13.6224 7.99484 12.9764 7.99698C11.663 8.00127 10.3502 8.00073 9.03675 7.99698C8.36623 7.99537 8.00385 7.60776 8.0018 6.89633C7.99924 5.93185 8.00078 4.96792 8.00078 4.0029Z" fill="#ABABAB"/>
<path d="M5.99864 9.03451C5.99864 9.98125 6.00018 10.928 5.99864 11.8747C5.9971 12.6124 5.62807 13 4.93145 13C3.64366 13 2.35638 13 1.06859 13C0.387335 13 0.00089572 12.6006 0.00038388 11.8962C-0.00012796 9.9582 -0.00012796 8.02022 0.00038388 6.08224C0.00038388 5.41695 0.379146 5.0063 1.0082 5.00362C2.33847 4.99879 3.66874 4.99879 4.99902 5.00362C5.62244 5.00576 5.99455 5.40194 5.99762 6.0608C6.00222 7.05203 5.99813 8.04273 5.99864 9.03451Z" fill="#ABABAB"/>
<path d="M3.01308 3.99844C2.34848 3.99844 1.68337 4.00173 1.01877 3.9975C0.386915 3.99328 0.0021744 3.63756 0.00115115 3.06221C-0.000383717 2.35078 -0.000383717 1.63934 0.00115115 0.928367C0.00268602 0.370854 0.402776 0.00152518 1.00803 0.0010559C2.33722 -0.000351966 3.66693 -0.000351966 4.99613 0.0010559C5.59422 0.00199447 5.9897 0.356306 5.99482 0.905372C6.00147 1.64028 6.00198 2.37518 5.99482 3.10961C5.9897 3.64038 5.60957 3.99 5.03297 3.9961C4.35967 4.0036 3.68637 3.99844 3.01308 3.99844Z" fill="#ABABAB"/>
<path d="M10.9918 9.00149C11.6564 9.00149 12.3211 8.9982 12.9862 9.00243C13.6161 9.00665 13.9978 9.3633 13.9988 9.94191C13.9998 10.6533 14.0009 11.3648 13.9988 12.0757C13.9973 12.6309 13.5951 12.9978 12.9868 12.9988C11.6575 13.0002 10.3277 13.0006 8.99837 12.9988C8.41304 12.9978 8.01138 12.6445 8.00576 12.1128C7.99808 11.3704 7.99808 10.6275 8.00576 9.88513C8.01087 9.3572 8.39411 9.009 8.97279 9.00336C9.64613 8.99679 10.3185 9.00196 10.9918 9.00149Z" fill="#ABABAB"/>
</g>
<defs>
<clipPath id="clip0_4400_10584">
<rect width="14" height="13" fill="white"/>
</clipPath>
</defs>
</svg>
