<svg width="20" height="20" viewBox="0 0 20 20" fill="none" xmlns="http://www.w3.org/2000/svg">
<path d="M15.4167 4.16667H12.9167C11.7675 4.16667 10.8333 5.10167 10.8333 6.25V9.16667H9.68167L8.54083 6.88417C7.96 5.72167 6.79083 5 5.49167 5C3.8425 5 2.5 6.3425 2.5 8.00333L2.545 11.1533C2.56167 12.315 3.165 13.365 4.16 13.9625L6.26333 15.2275C6.5125 15.3775 6.66667 15.6517 6.66667 15.9417V19.1658C6.66667 19.6258 7.03917 19.9992 7.5 19.9992C7.96083 19.9992 8.33333 19.6258 8.33333 19.1658V15.9417C8.33333 15.07 7.86917 14.2492 7.1225 13.7992L5.01833 12.5333C4.52167 12.2342 4.22 11.7092 4.21167 11.1283L4.16667 7.99C4.16667 7.25917 4.76083 6.665 5.49167 6.665C5.60833 6.665 5.7225 6.67667 5.83333 6.69833V10.8317C5.83333 11.2917 6.20583 11.665 6.66667 11.665C7.1275 11.665 7.5 11.2917 7.5 10.8317V8.5275L8.19083 9.90917C8.47417 10.4783 9.045 10.8308 9.68167 10.8308H15.4167C16.5658 10.8308 17.5 9.89583 17.5 8.7475V6.2475C17.5 5.09917 16.5658 4.16417 15.4167 4.16417V4.16667ZM15.8333 8.75C15.8333 8.98 15.6458 9.16667 15.4167 9.16667H12.5V6.25C12.5 6.02 12.6875 5.83333 12.9167 5.83333H15.4167C15.6458 5.83333 15.8333 6.02 15.8333 6.25V8.75ZM3.33333 2.08333C3.33333 0.9325 4.26583 0 5.41667 0C6.5675 0 7.5 0.9325 7.5 2.08333C7.5 3.23417 6.5675 4.16667 5.41667 4.16667C4.26583 4.16667 3.33333 3.23417 3.33333 2.08333ZM5 16.6667V19.1667C5 19.6267 4.6275 20 4.16667 20C3.70583 20 3.33333 19.6267 3.33333 19.1667V16.6667C3.33333 16.2067 3.70583 15.8333 4.16667 15.8333C4.6275 15.8333 5 16.2067 5 16.6667Z" fill="black"/>
</svg>
