<svg width="18" height="18" viewBox="0 0 18 18" fill="none" xmlns="http://www.w3.org/2000/svg">
<path d="M9.71552 12.75H6.03527C5.18777 12.75 4.50077 13.437 4.50077 14.2845V17.9647C4.50077 17.9842 4.51652 17.9993 4.53527 17.9993H11.2155C11.235 17.9993 11.25 17.9835 11.25 17.9647V14.2845C11.25 13.437 10.563 12.75 9.71552 12.75ZM8.96552 15.75H6.78527C6.76577 15.75 6.75077 15.7342 6.75077 15.7155V14.2853C6.75077 14.2658 6.76652 14.2507 6.78527 14.2507H8.96552C8.98502 14.2507 9.00002 14.2665 9.00002 14.2853V15.7155C9.00002 15.735 8.98427 15.75 8.96552 15.75ZM18 6.75H14.6453C14.6325 6.75 14.6228 6.753 14.6168 6.76425C14.5298 6.918 13.7655 8.2695 13.6178 8.517C12.7613 9.94875 11.3108 10.8503 11.085 10.9853C10.7955 11.1585 10.4633 11.2508 10.1258 11.2508C9.03677 11.2508 8.05877 10.2915 8.28377 8.99025C8.37602 8.45775 8.74802 8.02425 9.20702 7.7385C9.86702 7.3275 10.5008 6.73275 10.5008 6C10.5008 5.0985 9.70052 4.38 8.77352 4.5165C8.01827 4.62825 7.50077 5.349 7.50077 6.1125V10.608C7.50077 11.5102 6.70427 12.2265 5.77577 12.0915C5.02052 11.982 4.50077 11.2627 4.50077 10.5V4.5345C4.50077 2.03025 6.53102 0 9.03527 0H18.0008L18 6.75ZM3.00002 10.2983C2.45852 10.6088 1.74752 10.569 1.23602 10.1025C0.672016 9.588 0.644266 8.70225 1.07252 8.06925L3.00002 5.22V10.2975V10.2983ZM3.00002 5.06025L2.11877 5.46075C1.29752 5.83425 0.315766 5.40525 0.0540163 4.5045C-0.158984 3.771 0.280516 3.00075 0.975766 2.685L3.92027 1.34625C3.34052 2.2725 3.00002 3.363 3.00002 4.5345V5.06025Z" fill="black"/>
</svg>
