<svg width="25" height="25" viewBox="0 0 25 25" fill="none" xmlns="http://www.w3.org/2000/svg">
<g clip-path="url(#clip0_4409_10673)">
<path d="M14.6891 0.722678C17.8694 0.713991 20.4716 3.29958 20.481 6.47825C20.4905 9.65219 17.9065 12.2544 14.7239 12.2765C11.561 12.2986 8.93513 9.68299 8.9375 6.51458C8.93987 3.31616 11.5065 0.731365 14.6891 0.722678Z" fill="black"/>
<path d="M16.8935 12.8226C17.1975 12.8226 17.4655 12.7466 17.6975 12.5946C17.9375 12.4346 18.1215 12.2146 18.2495 11.9346H21.0575C20.9375 12.6066 20.6935 13.1946 20.3255 13.6986C19.9655 14.2026 19.4935 14.5946 18.9095 14.8746C18.3335 15.1466 17.6775 15.2826 16.9415 15.2826C15.9015 15.2826 15.0295 15.0146 14.3255 14.4786C13.6215 13.9426 13.1495 13.2146 12.9095 12.2946H12.1175V11.1066H12.7415V10.9626V10.7706H12.1175V9.57058H12.9215C13.1695 8.66658 13.6415 7.95458 14.3375 7.43458C15.0415 6.90658 15.9095 6.64258 16.9415 6.64258C17.6775 6.64258 18.3335 6.78258 18.9095 7.06258C19.4935 7.33458 19.9655 7.72258 20.3255 8.22658C20.6935 8.73058 20.9375 9.31858 21.0575 9.99058H18.2495C18.1215 9.71058 17.9375 9.49458 17.6975 9.34258C17.4655 9.18258 17.1975 9.10258 16.8935 9.10258C16.4695 9.10258 16.1255 9.25858 15.8615 9.57058H17.3495V10.7706H15.4415V10.9626V11.1066H17.3495V12.2946H15.8135C16.0775 12.6466 16.4375 12.8226 16.8935 12.8226Z" fill="#DFDFDF"/>
<path d="M12.849 21.0674C11.9583 21.0674 11.0677 21.0571 10.1779 21.073C9.89668 21.0777 9.73261 21.0008 9.58635 20.743C8.76601 19.2908 7.92691 17.8479 7.08312 16.4088C6.94999 16.1819 6.93405 16.0047 7.07843 15.774C8.46505 13.5577 11.844 12.4776 14.2628 14.6602C14.4053 14.7887 14.6425 14.8656 14.8385 14.8712C15.5876 14.8956 16.3376 14.8778 17.0876 14.8824C17.7692 14.8871 18.1761 15.2528 18.1658 15.8397C18.1555 16.4097 17.7627 16.7481 17.0942 16.75C16.001 16.7538 14.9069 16.7491 13.8137 16.7519C13.2662 16.7538 12.954 17.0144 12.9568 17.4569C12.9596 17.8938 13.2775 18.1573 13.8231 18.1591C14.8694 18.1629 15.9166 18.1591 16.9629 18.1601C17.5602 18.1601 18.0917 17.9791 18.5755 17.6266C19.9003 16.6619 21.2297 15.7037 22.5629 14.7502C22.7494 14.6162 22.9566 14.4821 23.1742 14.4259C23.6242 14.3105 24.0583 14.5505 24.2551 14.9678C24.4501 15.3821 24.3667 15.8406 23.9739 16.1444C23.2698 16.6881 22.5441 17.2029 21.8232 17.7241C20.8247 18.447 19.8281 19.1726 18.8211 19.8833C17.6652 20.699 16.3826 21.1115 14.9575 21.0702C14.2553 21.0505 13.5512 21.0665 12.8481 21.0665L12.849 21.0674Z" fill="black"/>
<path d="M4.73512 15.5869C4.90107 15.7332 5.13545 15.8569 5.24983 16.0519C6.36363 17.9458 7.46056 19.8499 8.5528 21.7559C8.80124 22.1891 8.70374 22.5116 8.25747 22.7741C7.22242 23.3816 6.18363 23.9826 5.14014 24.5742C4.67231 24.8395 4.36386 24.7533 4.08728 24.277C2.9988 22.4038 1.91781 20.5268 0.839635 18.648C0.578998 18.1942 0.651188 17.8605 1.07215 17.612C2.13251 16.9867 3.2013 16.3754 4.2701 15.7641C4.38917 15.6966 4.52793 15.6647 4.73512 15.5869Z" fill="black"/>
</g>
<defs>
<clipPath id="clip0_4409_10673">
<rect width="25" height="25" fill="white"/>
</clipPath>
</defs>
</svg>
