<svg width="20" height="20" viewBox="0 0 20 20" fill="none" xmlns="http://www.w3.org/2000/svg">
<path d="M3.55845 4.5749L2.75011 5.04157C2.29178 5.30823 1.90845 5.95823 1.90845 6.49157V14.5999C1.90845 16.1832 3.03345 16.8332 4.40011 16.0499L6.35845 14.9332C6.78345 14.6916 7.49178 14.6666 7.93345 14.8916L12.3084 17.0832C12.7501 17.2999 13.4584 17.2832 13.8834 17.0416L17.4918 14.9749C17.9501 14.7082 18.3334 14.0582 18.3334 13.5249V5.40823C18.3334 3.8249 17.2084 3.1749 15.8418 3.95823L13.8834 5.0749C13.4584 5.31657 12.7501 5.34157 12.3084 5.11657L7.93345 2.93323C7.49178 2.71656 6.78345 2.73323 6.35845 2.9749" stroke="black" stroke-width="1.5" stroke-linecap="round" stroke-linejoin="round"/>
<path d="M7.1333 3.33325V14.1666" stroke="black" stroke-width="1.5" stroke-linecap="round" stroke-linejoin="round"/>
<path d="M13.1084 5.5166V16.6666" stroke="black" stroke-width="1.5" stroke-linecap="round" stroke-linejoin="round"/>
</svg>
