<svg width="17" height="24" viewBox="0 0 17 24" fill="none" xmlns="http://www.w3.org/2000/svg">
<g clip-path="url(#clip0_4409_10728)">
<mask id="mask0_4409_10728" style="mask-type:luminance" maskUnits="userSpaceOnUse" x="1" y="0" width="15" height="24">
<path d="M16 0.5H1V23.5H16V0.5Z" fill="white"/>
</mask>
<g mask="url(#mask0_4409_10728)">
<path d="M11.4619 1.00862C12.79 0.793998 13.8768 1.60664 13.8823 2.84577C13.9016 7.20154 13.8869 11.5573 13.8842 15.9131C13.8842 15.9874 13.8704 16.0617 13.8558 16.2057C13.277 15.7462 12.668 15.526 11.9636 15.6875C11.9021 15.7012 11.8205 15.6554 11.7554 15.6233C11.3509 15.4297 10.9491 15.2325 10.5006 15.0152V14.1567C10.9473 14.1567 11.3747 14.1897 11.7939 14.1429C12.003 14.119 12.28 13.9971 12.3754 13.832C12.5194 13.5834 12.3754 13.3486 12.0938 13.2064C12.0103 13.1642 11.9553 12.9936 11.9507 12.8799C11.8471 10.3567 10.5823 8.85617 8.07374 8.30952C7.92332 7.97566 8.21774 7.33821 7.53442 7.34554C6.88688 7.35288 7.1437 7.94722 7.02721 8.28292C6.63557 8.40032 6.2476 8.4847 5.88347 8.63054C4.21692 9.29917 3.15939 10.8859 3.14013 12.713C3.13738 12.946 3.19424 13.1817 2.86864 13.3064C2.75857 13.3486 2.64576 13.6907 2.70629 13.8026C2.79435 13.965 3.03465 14.1337 3.21626 14.1401C4.14721 14.1741 5.08 14.1567 6.01279 14.1567C6.17697 14.1567 6.34023 14.1567 6.53101 14.1567V18.6473C5.33682 18.2006 4.16831 18.0557 3.50701 19.3929C2.80535 20.8118 3.79959 21.6327 4.80484 22.3968C4.79292 22.438 4.781 22.4793 4.76907 22.5206C4.02339 22.4747 3.26212 22.5068 2.53661 22.3619C1.75241 22.2051 1.23236 21.4511 1.20117 20.6394C1.17824 20.0441 1.19108 19.4471 1.19108 18.8518C1.19108 13.5944 1.18833 8.33612 1.19292 3.07874C1.19292 1.65616 2.18991 0.788495 3.62258 1.00587C3.62258 1.2792 3.61615 1.56444 3.62349 1.84969C3.65376 3.08241 4.44897 3.87303 5.68352 3.8822C6.92174 3.89138 8.15995 3.89138 9.39725 3.8822C10.6318 3.87303 11.4279 3.08424 11.46 1.85244C11.4674 1.5672 11.4609 1.28103 11.4609 1.00771L11.4619 1.00862Z" fill="black"/>
<path d="M7.53698 20.0289C7.53698 18.7714 7.53606 17.5671 7.53698 16.3638C7.53698 15.5392 7.53331 14.7147 7.54706 13.8901C7.5599 13.1316 7.92311 12.7032 8.52388 12.7051C9.12098 12.7069 9.48969 13.1563 9.49244 13.8965C9.49611 14.8128 9.49244 15.7282 9.49244 16.7765C9.82447 16.3023 10.1803 16.0455 10.682 16.1537C11.2076 16.2675 11.4131 16.6573 11.4901 17.2076C11.8175 16.76 12.1881 16.4986 12.7118 16.66C13.2098 16.8132 13.4006 17.2049 13.4391 17.746C13.7446 17.2599 14.1142 17.0049 14.6508 17.1544C15.0351 17.2617 15.3267 17.5084 15.3304 17.9212C15.3478 19.751 15.3377 21.5808 15.3377 23.4721H14.8764C12.5706 23.4721 10.2647 23.4794 7.95889 23.4611C7.72592 23.4592 7.44801 23.3602 7.26824 23.2125C6.41799 22.5154 5.59435 21.7872 4.76337 21.0672C4.30752 20.6719 4.19104 20.2408 4.41575 19.8189C4.65697 19.3667 5.08622 19.23 5.6824 19.4217C6.28775 19.6171 6.89127 19.818 7.53514 20.0289H7.53698Z" fill="black"/>
<path d="M10.9038 13.1582C10.5966 13.2683 10.4287 13.1775 10.282 12.8601C9.94721 12.1337 9.35103 11.7467 8.54023 11.7411C7.71017 11.7347 7.10757 12.13 6.75628 12.8693C6.64163 13.1114 6.52698 13.2123 6.25458 13.205C5.57126 13.1857 4.88703 13.1986 4.21381 13.1986C3.91389 12.1034 4.47063 10.7212 5.49147 9.96087C6.6453 9.10054 8.19353 9.04551 9.39781 9.82145C10.536 10.5543 11.1533 11.92 10.9038 13.1601V13.1582Z" fill="black"/>
<path d="M10.4656 0.976562C10.4656 1.36087 10.4959 1.72591 10.4583 2.08362C10.4088 2.55689 10.0254 2.90451 9.51083 2.91277C8.20016 2.93295 6.88765 2.9357 5.57697 2.91277C4.98721 2.90268 4.62676 2.49544 4.60658 1.90935C4.59649 1.60759 4.60474 1.30584 4.60474 0.977482H10.4647L10.4656 0.976562Z" fill="black"/>
</g>
</g>
<defs>
<clipPath id="clip0_4409_10728">
<rect width="16" height="23" fill="white" transform="translate(0.5 0.5)"/>
</clipPath>
</defs>
</svg>
