<svg width="21" height="21" viewBox="0 0 21 21" fill="none" xmlns="http://www.w3.org/2000/svg">
<g clip-path="url(#clip0_4400_10610)">
<path d="M14.7062 7.75881C17.8872 7.75012 20.4901 10.3364 20.4995 13.5158C20.509 16.6905 17.9244 19.2934 14.7409 19.3155C11.5773 19.3376 8.95076 16.7214 8.95313 13.5522C8.9555 10.3529 11.5228 7.7675 14.7062 7.75881Z" fill="black"/>
<path d="M7.25598 6.87517C5.47389 6.77958 3.75106 6.52681 2.15856 5.71081C1.72094 5.48647 1.30307 5.18156 0.956286 4.83399C0.34409 4.21942 0.370158 3.58827 0.964185 2.95395C1.58507 2.29041 2.38211 1.90888 3.22812 1.64504C6.13744 0.738991 9.03411 0.759529 11.8826 1.88439C12.4103 2.09293 12.9158 2.4168 13.3542 2.78096C14.2089 3.49032 14.1971 4.28025 13.3756 5.02199C12.509 5.80481 11.4458 6.20451 10.3312 6.43122C9.31769 6.63819 8.28131 6.73061 7.2544 6.87359L7.25598 6.87517Z" fill="black"/>
<path d="M8.91258 8.64518C8.55316 9.28897 8.21981 9.89564 7.87303 10.4936C7.83196 10.5647 7.71505 10.6303 7.63211 10.6318C5.59409 10.6642 3.61768 10.4036 1.80795 9.37507C1.71632 9.32294 1.62943 9.26448 1.54175 9.20603C0.777096 8.6981 0.340265 8.03456 0.554336 7.04004C3.13899 8.57487 5.97641 8.86794 8.91258 8.64518Z" fill="black"/>
<path d="M0.551952 14.7354C2.71399 16.0324 5.05613 16.4376 7.4986 16.4084C7.72925 16.4061 7.83984 16.4787 7.94333 16.6881C8.19926 17.2031 8.49391 17.6984 8.80751 18.2632C8.37621 18.29 7.95517 18.3343 7.53256 18.3398C5.67228 18.3643 3.86255 18.1186 2.17447 17.2797C1.89404 17.1399 1.62784 16.9653 1.37111 16.7844C0.673602 16.2923 0.369479 15.6303 0.551952 14.7354Z" fill="black"/>
<path d="M7.27302 14.4971C6.10551 14.4939 4.95063 14.4078 3.84789 14.0468C3.06744 13.7917 2.28857 13.4773 1.58237 13.0641C0.632875 12.508 0.45593 12.0285 0.530974 10.8721C2.60533 12.1344 4.88191 12.5475 7.27223 12.5673V14.4963L7.27302 14.4971Z" fill="black"/>
<path d="M14.5975 15.5C14.7875 15.5 14.955 15.4525 15.1 15.3575C15.25 15.2575 15.365 15.12 15.445 14.945H17.2C17.125 15.365 16.9725 15.7325 16.7425 16.0475C16.5175 16.3625 16.2225 16.6075 15.8575 16.7825C15.4975 16.9525 15.0875 17.0375 14.6275 17.0375C13.9775 17.0375 13.4325 16.87 12.9925 16.535C12.5525 16.2 12.2575 15.745 12.1075 15.17H11.6125V14.4275H12.0025V14.3375V14.2175H11.6125V13.4675H12.115C12.27 12.9025 12.565 12.4575 13 12.1325C13.44 11.8025 13.9825 11.6375 14.6275 11.6375C15.0875 11.6375 15.4975 11.725 15.8575 11.9C16.2225 12.07 16.5175 12.3125 16.7425 12.6275C16.9725 12.9425 17.125 13.31 17.2 13.73H15.445C15.365 13.555 15.25 13.42 15.1 13.325C14.955 13.225 14.7875 13.175 14.5975 13.175C14.3325 13.175 14.1175 13.2725 13.9525 13.4675H14.8825V14.2175H13.69V14.3375V14.4275H14.8825V15.17H13.9225C14.0875 15.39 14.3125 15.5 14.5975 15.5Z" fill="#E1E1E1"/>
</g>
<defs>
<clipPath id="clip0_4400_10610">
<rect width="20" height="20" fill="white" transform="translate(0.5 0.5)"/>
</clipPath>
</defs>
</svg>
