<svg width="23" height="21" viewBox="0 0 23 21" fill="none" xmlns="http://www.w3.org/2000/svg">
<path d="M9.29788 0.975605C11.4042 0.975605 13.5105 0.975605 15.6178 0.975605C16.3309 0.975605 16.5288 1.16828 16.5288 1.8762C16.5314 4.50563 16.5358 7.13506 16.5271 9.76449C16.5218 11.3905 15.4748 12.4358 13.8506 12.441C11.3667 12.4489 8.88202 12.4506 6.39818 12.4375C5.80534 12.434 5.29706 12.5918 4.81843 12.9449C3.76701 13.72 2.69292 14.4654 1.63103 15.2282C1.37035 15.4157 1.11055 15.5526 0.789718 15.3791C0.474117 15.2064 0.4375 14.917 0.4375 14.5953C0.440987 10.9345 0.435756 7.27368 0.441859 3.61288C0.444475 2.04534 1.502 0.984323 3.06606 0.977348C5.14362 0.96863 7.22119 0.974733 9.29875 0.974733L9.29788 0.975605ZM8.93433 4.54138C7.71377 4.54138 6.49321 4.54487 5.27265 4.53876C4.95792 4.53702 4.69289 4.612 4.55252 4.91888C4.33544 5.3949 4.68155 5.84214 5.28747 5.84389C7.69982 5.84999 10.1113 5.84825 12.5236 5.84476C13.0441 5.84476 13.3353 5.60675 13.3449 5.20309C13.3554 4.78636 13.0546 4.54399 12.5088 4.54225C11.317 4.53963 10.1261 4.54225 8.93433 4.54225V4.54138ZM8.89335 8.8979C10.0991 8.8979 11.3057 8.90139 12.5114 8.89616C13.0528 8.89441 13.3545 8.64245 13.3449 8.22223C13.3353 7.82119 13.045 7.59452 12.521 7.59365C10.705 7.59103 8.88812 7.59277 7.0721 7.59277C6.43305 7.59277 5.79313 7.58406 5.15408 7.598C4.76263 7.60672 4.50893 7.86042 4.49498 8.21177C4.48103 8.55789 4.72602 8.836 5.10177 8.88831C5.21598 8.904 5.33368 8.89703 5.44963 8.89703C6.59783 8.89703 7.74515 8.89703 8.89335 8.89703V8.8979Z" fill="#9C9C9C"/>
<path d="M17.836 6.06356C18.7915 6.06356 19.6956 5.99643 20.5849 6.08012C21.8211 6.19695 22.7505 7.27366 22.7557 8.52473C22.7697 12.2718 22.7679 16.0181 22.747 19.7652C22.7461 19.9962 22.5761 20.3301 22.3869 20.426C22.1986 20.5219 21.8342 20.46 21.6407 20.3293C20.5116 19.5638 19.4044 18.7652 18.3016 17.9623C17.884 17.658 17.4385 17.5194 16.9232 17.522C14.4542 17.5316 11.986 17.5272 9.51703 17.5255C7.69753 17.5255 6.67837 16.5115 6.67226 14.7008C6.67139 14.4113 6.67226 14.1219 6.67226 13.774C6.86406 13.7653 7.02971 13.7505 7.19623 13.7505C9.38888 13.7487 11.5824 13.7531 13.775 13.7487C16.2336 13.7435 17.8273 12.1446 17.836 9.68077C17.8404 8.49073 17.836 7.30068 17.836 6.0653V6.06356Z" fill="#C8C8C8"/>
</svg>
