<svg width="25" height="22" viewBox="0 0 25 22" fill="none" xmlns="http://www.w3.org/2000/svg">
<mask id="mask0_4409_10684" style="mask-type:luminance" maskUnits="userSpaceOnUse" x="1" y="0" width="23" height="22">
<path d="M24 0.5H1V21.5H24V0.5Z" fill="white"/>
</mask>
<g mask="url(#mask0_4409_10684)">
<path d="M10.2979 1.47561C12.4042 1.47561 14.5105 1.47561 16.6178 1.47561C17.3309 1.47561 17.5288 1.66828 17.5288 2.3762C17.5314 5.00563 17.5358 7.63506 17.5271 10.2645C17.5218 11.8905 16.4748 12.9358 14.8506 12.941C12.3667 12.9489 9.88202 12.9506 7.39818 12.9375C6.80534 12.934 6.29706 13.0918 5.81843 13.4449C4.76701 14.22 3.69292 14.9654 2.63103 15.7282C2.37035 15.9157 2.11055 16.0526 1.78972 15.8791C1.47412 15.7064 1.4375 15.417 1.4375 15.0953C1.44099 11.4345 1.43576 7.77368 1.44186 4.11288C1.44448 2.54534 2.502 1.48432 4.06606 1.47735C6.14362 1.46863 8.22119 1.47473 10.2987 1.47473L10.2979 1.47561ZM9.93433 5.04138C8.71377 5.04138 7.49321 5.04487 6.27265 5.03876C5.95792 5.03702 5.69289 5.112 5.55252 5.41888C5.33544 5.8949 5.68155 6.34214 6.28747 6.34389C8.69982 6.34999 11.1113 6.34825 13.5236 6.34476C14.0441 6.34476 14.3353 6.10675 14.3449 5.70309C14.3554 5.28636 14.0546 5.04399 13.5088 5.04225C12.317 5.03963 11.1261 5.04138 9.93433 5.04138ZM9.89335 9.3979C11.0991 9.3979 12.3057 9.40139 13.5114 9.39616C14.0528 9.39441 14.3545 9.14245 14.3449 8.72223C14.3353 8.32119 14.045 8.09452 13.521 8.09365C11.705 8.09103 9.88812 8.09277 8.0721 8.09277C7.43305 8.09277 6.79313 8.08406 6.15408 8.098C5.76263 8.10672 5.50893 8.36042 5.49498 8.71177C5.48103 9.05789 5.72602 9.336 6.10177 9.38831C6.21598 9.404 6.33368 9.39703 6.44963 9.39703C7.59783 9.39703 8.74515 9.3979 9.89335 9.3979Z" fill="black"/>
<path d="M18.836 6.56356C19.7915 6.56356 20.6956 6.49643 21.5849 6.58012C22.8211 6.69695 23.7505 7.77366 23.7557 9.02473C23.7697 12.7718 23.7679 16.5181 23.747 20.2652C23.7461 20.4962 23.5761 20.8301 23.3869 20.926C23.1986 21.0219 22.8342 20.96 22.6407 20.8293C21.5116 20.0638 20.4044 19.2652 19.3016 18.4623C18.884 18.158 18.4385 18.0194 17.9232 18.022C15.4542 18.0316 12.986 18.0272 10.517 18.0255C8.69753 18.0255 7.67837 17.0115 7.67226 15.2008C7.67139 14.9113 7.67226 14.6219 7.67226 14.274C7.86406 14.2653 8.02971 14.2505 8.19623 14.2505C10.3889 14.2487 12.5824 14.2531 14.775 14.2487C17.2336 14.2435 18.8273 12.6446 18.836 10.1808C18.8404 8.99073 18.836 7.80068 18.836 6.5653V6.56356Z" fill="black"/>
</g>
</svg>
