<svg width="21" height="13" viewBox="0 0 21 13" fill="none" xmlns="http://www.w3.org/2000/svg">
<path d="M7.49337 3.49288C7.48956 3.85077 7.25275 4.08911 6.9375 4.08835L6.96263 5.2275C7.27026 5.23893 7.48043 5.45823 7.49413 5.80165C7.50479 6.05446 7.49642 6.30803 7.49642 6.5616H7.49566C7.4949 6.80222 7.50556 7.04361 7.49261 7.28347C7.4751 7.60633 7.29844 7.79975 6.97253 7.82792L6.9672 8.96936C7.29158 8.98535 7.49489 9.22978 7.49718 9.62956C7.50175 10.404 7.4987 11.1776 7.4987 11.952V12.3092C7.61216 12.3213 7.66242 12.332 7.71268 12.332C11.7355 12.3328 15.7591 12.3343 19.782 12.3312C20.2312 12.3312 20.4315 12.1264 20.4345 11.6779C20.4406 10.7512 20.4399 9.82525 20.4345 8.89855C20.4315 8.42643 20.2571 8.25206 19.769 8.20409C18.8415 8.11347 18.1882 7.4114 18.1966 6.51439C18.205 5.63032 18.8522 4.94195 19.7591 4.85286C20.2807 4.80184 20.4345 4.63204 20.4361 4.09216C20.4383 3.24159 20.4368 2.3918 20.4361 1.54124C20.4353 0.87495 20.2807 0.722656 19.6007 0.722656H7.95025H7.49718V1.1704C7.49642 1.94481 7.50251 2.71847 7.49337 3.49288Z" fill="#9C9C9C"/>
<path d="M6.37269 3.14677V0.767942C6.29122 0.745859 6.25543 0.727584 6.2204 0.727584C4.65939 0.7253 3.09838 0.719969 1.53737 0.727584C1.14369 0.729107 0.944944 0.94841 0.941899 1.3596C0.935045 2.28631 0.93733 3.21226 0.941137 4.13896C0.94266 4.62402 1.11171 4.80296 1.58991 4.85094C2.53184 4.94536 3.17833 5.62459 3.18138 6.52312C3.18442 7.42089 2.53413 8.11307 1.59981 8.20521C1.11704 8.25242 0.944944 8.42984 0.94266 8.90728C0.938091 9.79591 0.940376 10.6838 0.941899 11.5724C0.943421 12.1618 1.11704 12.3331 1.71936 12.3339C3.14102 12.3354 4.56192 12.3339 5.98358 12.3339H6.37498C6.37498 11.3881 6.36812 10.501 6.37802 9.61468C6.38259 9.20121 6.62474 8.95221 6.96588 8.96896L6.97121 7.82752C6.65596 7.85493 6.40468 7.65314 6.38792 7.312C6.36279 6.7942 6.36355 6.27336 6.3864 5.75556C6.40163 5.41214 6.64606 5.21568 6.96131 5.2271L6.93618 4.08795C6.63159 4.08718 6.41305 3.87245 6.37878 3.5275C6.36584 3.4011 6.37269 3.27394 6.37269 3.14677Z" fill="#C8C8C8"/>
<path d="M17.0809 8.92666C17.0801 9.81905 16.4413 10.4666 15.5601 10.4682C14.6725 10.4698 14.0369 9.8334 14.0313 8.93702C14.0257 8.02629 14.6828 7.35401 15.5688 7.36438C16.4381 7.37474 17.0817 8.03985 17.0809 8.92666ZM15.5457 8.39872C15.2594 8.4035 15.013 8.65152 15.017 8.92985C15.0218 9.21934 15.2562 9.43705 15.5601 9.43386C15.8631 9.43067 16.0896 9.20578 16.0856 8.9131C16.0816 8.6268 15.836 8.39393 15.5449 8.39872H15.5457Z" fill="white"/>
<path d="M11.4735 3.29181C12.3476 3.29181 13.0039 3.95134 13.0063 4.83017C13.0087 5.70501 12.3532 6.38208 11.4895 6.39484C10.6146 6.4084 9.93038 5.71618 9.93756 4.82538C9.94473 3.93778 10.5923 3.29102 11.4727 3.29102L11.4735 3.29181ZM11.4815 5.36528C11.7829 5.3597 11.9839 5.14358 11.9791 4.82778C11.9743 4.51357 11.7686 4.3134 11.4568 4.31978C11.1577 4.32616 10.9376 4.55504 10.9448 4.8517C10.952 5.14358 11.1888 5.37007 11.4815 5.36528Z" fill="white"/>
<rect x="9.9375" y="9.68359" width="9.49012" height="1.11648" rx="0.558242" transform="rotate(-45 9.9375 9.68359)" fill="white"/>
</svg>
