<svg width="21" height="22" viewBox="0 0 21 22" fill="none" xmlns="http://www.w3.org/2000/svg">
<mask id="mask0_4409_10708" style="mask-type:luminance" maskUnits="userSpaceOnUse" x="1" y="0" width="19" height="22">
<path d="M20 0.5H1V21.5H20V0.5Z" fill="white"/>
</mask>
<g mask="url(#mask0_4409_10708)">
<mask id="mask1_4409_10708" style="mask-type:luminance" maskUnits="userSpaceOnUse" x="1" y="0" width="19" height="22">
<path d="M20 0.5H1V21.5H20V0.5Z" fill="white"/>
</mask>
<g mask="url(#mask1_4409_10708)">
<path d="M13.2857 12.3996C13.2857 15.0007 13.2857 17.6011 13.2857 20.2022C13.2857 20.8085 13.1242 20.9715 12.524 20.9722C8.90838 20.9722 5.29197 20.9722 1.67632 20.9722C1.09821 20.9722 0.938262 20.8092 0.938262 20.2227C0.9375 15.0213 0.9375 9.81909 0.9375 4.61764C0.9375 4.04563 1.08755 3.89177 1.65499 3.89177C5.28359 3.89024 8.91219 3.89024 12.5408 3.89177C13.1258 3.89177 13.2849 4.05324 13.2849 4.63592C13.2857 7.22408 13.2849 9.81223 13.2849 12.4004L13.2857 12.3996ZM4.58438 10.6455C4.61942 11.1444 4.66207 11.6364 4.68644 12.1285C4.70015 12.4057 4.79993 12.5512 5.10232 12.5322C5.38033 12.5146 5.66062 12.5124 5.93863 12.5322C6.35146 12.5619 6.76276 12.6563 7.17406 12.6517C7.75064 12.6449 8.32951 12.5885 8.90229 12.5154C9.03025 12.4986 9.20315 12.3433 9.24276 12.2168C9.36691 11.8192 9.4545 11.4079 9.52153 10.9966C9.56342 10.7415 9.66092 10.6188 9.92521 10.5442C10.904 10.2685 11.4546 9.27373 11.1942 8.31327C10.9321 7.34671 9.97396 6.77088 8.98303 7.00395C8.77585 7.0527 8.67455 7.01157 8.54278 6.84705C7.78644 5.9041 6.44133 5.90105 5.68195 6.84705C5.5319 7.03366 5.41536 7.0428 5.20666 6.99329C4.26829 6.77317 3.30173 7.35051 3.0359 8.27137C2.76322 9.21432 3.28345 10.2136 4.21497 10.532C4.33303 10.5724 4.45413 10.6051 4.58743 10.6455H4.58438ZM7.20681 13.7394C6.43372 13.7394 5.66062 13.7394 4.88752 13.7394C4.51964 13.7394 4.15099 13.7234 3.78539 13.7516C3.68865 13.7592 3.60335 13.9055 3.51271 13.9877C3.59725 14.0624 3.67114 14.1614 3.76939 14.2033C3.85546 14.2398 3.96895 14.2139 4.07025 14.2139C5.51514 14.2139 6.96003 14.2139 8.40568 14.2139C9.09042 14.2139 9.7744 14.217 10.4591 14.2116C10.6397 14.2101 10.8956 14.2665 10.8979 13.9885C10.9002 13.6891 10.6359 13.7455 10.4401 13.7394C10.3769 13.7371 10.3137 13.7394 10.2497 13.7394C9.2359 13.7394 8.2206 13.7394 7.20681 13.7394ZM7.1931 15.9932C6.48322 15.9932 5.77259 15.9909 5.06271 15.9947C4.89209 15.9955 4.67045 15.9574 4.6674 16.2247C4.66436 16.4845 4.87229 16.4708 5.05205 16.4708C6.48551 16.4715 7.91821 16.4776 9.35168 16.4609C9.48802 16.4593 9.72337 16.3276 9.73784 16.2308C9.77364 15.9818 9.54057 15.994 9.3631 15.9932C8.64028 15.9917 7.91745 15.9932 7.19463 15.9924L7.1931 15.9932ZM7.19158 18.7078C7.79939 18.7078 8.40644 18.7093 9.01426 18.707C9.18868 18.7063 9.42632 18.7261 9.38214 18.4686C9.36539 18.3711 9.13384 18.2455 8.99826 18.2432C7.80929 18.2256 6.61956 18.2333 5.42983 18.2333C5.23865 18.2333 4.99873 18.2135 5.02006 18.4808C5.02691 18.5661 5.26912 18.6918 5.40775 18.6979C6.00185 18.7223 6.59671 18.7078 7.19158 18.7078Z" fill="black"/>
<path d="M13.7752 18.5546V15.725C14.0403 15.725 14.2901 15.725 14.5392 15.725C15.377 15.725 16.2149 15.7342 17.052 15.7144C17.1738 15.7113 17.2926 15.5719 17.413 15.4958C17.2957 15.4166 17.1792 15.2703 17.0603 15.268C16.109 15.249 15.1569 15.2574 14.2048 15.2574C14.0693 15.2574 13.9337 15.2574 13.7775 15.2574V12.9084C13.9184 12.9023 14.0525 12.8916 14.1865 12.8909C15.1257 12.8893 16.0656 12.8992 17.004 12.8802C17.1411 12.8772 17.3787 12.7538 17.3924 12.6601C17.4343 12.3706 17.1746 12.4133 16.9941 12.4125C16.0679 12.408 15.1409 12.4102 14.2147 12.4102C14.0784 12.4102 13.9413 12.4102 13.7813 12.4102V10.0582C13.9139 10.0514 14.0494 10.0384 14.1843 10.0384C15.1234 10.0369 16.0633 10.046 17.0017 10.027C17.1403 10.0239 17.381 9.90359 17.3939 9.81143C17.4343 9.53113 17.186 9.55703 16.9971 9.55703C16.0709 9.5555 15.144 9.55627 14.2178 9.55627C14.0807 9.55627 13.9436 9.55627 13.7813 9.55627V7.20727C13.9078 7.20118 14.0411 7.18976 14.1744 7.18976C15.1135 7.18823 16.0526 7.18976 16.9918 7.18747C17.1746 7.18747 17.4145 7.2385 17.4084 6.94297C17.4023 6.67487 17.1776 6.72285 17.007 6.72285C16.0808 6.71981 15.1539 6.72133 14.2277 6.72133C14.0898 6.72133 13.9527 6.72133 13.757 6.72133C13.757 6.17826 13.757 5.66261 13.757 5.14696C13.757 4.88037 13.7646 4.61302 13.7501 4.3472C13.7265 3.9199 13.4393 3.60533 13.044 3.44919C11.4796 2.83072 9.92348 2.19472 8.375 1.48713C8.47935 1.48256 8.58294 1.47342 8.68728 1.47342C12.1019 1.47266 15.5157 1.47266 18.9302 1.47266C19.5396 1.47266 19.6942 1.62651 19.6942 2.23433C19.6942 7.42587 19.6942 12.6167 19.6942 17.8082C19.6942 18.4023 19.5457 18.5531 18.9569 18.5539C17.3574 18.5554 15.7586 18.5539 14.1591 18.5539C14.0464 18.5539 13.9329 18.5546 13.7752 18.5546Z" fill="black"/>
<path d="M7.39844 3.36087V1.65625C8.11365 1.95482 8.76183 2.22369 9.40849 2.49561C10.0483 2.76448 10.6873 3.0364 11.3218 3.36087H7.39844Z" fill="black"/>
</g>
</g>
</svg>
