<svg width="19" height="21" viewBox="0 0 19 21" fill="none" xmlns="http://www.w3.org/2000/svg">
<g clip-path="url(#clip0_4405_10630)">
<path d="M17.4751 8.29297H3.54688V18.507H17.4751V8.29297Z" fill="white"/>
<path d="M12.2857 11.8996C12.2857 14.5007 12.2857 17.1011 12.2857 19.7022C12.2857 20.3085 12.1242 20.4715 11.524 20.4722C7.90838 20.4722 4.29197 20.4722 0.67632 20.4722C0.09821 20.4722 -0.061738 20.3092 -0.061738 19.7227C-0.0625 14.5213 -0.0625 9.31909 -0.0625 4.11764C-0.0625 3.54563 0.08755 3.39177 0.65499 3.39177C4.28359 3.39024 7.91219 3.39024 11.5408 3.39177C12.1258 3.39177 12.2849 3.55324 12.2849 4.13592C12.2857 6.72408 12.2849 9.31223 12.2849 11.9004L12.2857 11.8996ZM3.58438 10.1455C3.61942 10.6444 3.66207 11.1364 3.68644 11.6285C3.70015 11.9057 3.79993 12.0512 4.10232 12.0322C4.38033 12.0146 4.66062 12.0124 4.93863 12.0322C5.35146 12.0619 5.76276 12.1563 6.17406 12.1517C6.75064 12.1449 7.32951 12.0885 7.90229 12.0154C8.03025 11.9986 8.20315 11.8433 8.24276 11.7168C8.36691 11.3192 8.4545 10.9079 8.52153 10.4966C8.56342 10.2415 8.66092 10.1188 8.92521 10.0442C9.904 9.76847 10.4546 8.77373 10.1942 7.81327C9.9321 6.84671 8.97396 6.27088 7.98303 6.50395C7.77585 6.5527 7.67455 6.51157 7.54278 6.34705C6.78644 5.4041 5.44133 5.40105 4.68195 6.34705C4.5319 6.53366 4.41536 6.5428 4.20666 6.49329C3.26829 6.27317 2.30173 6.85051 2.0359 7.77137C1.76322 8.71432 2.28345 9.71363 3.21497 10.032C3.33303 10.0724 3.45413 10.1051 3.58743 10.1455H3.58438ZM6.20681 13.2394C5.43372 13.2394 4.66062 13.2394 3.88752 13.2394C3.51964 13.2394 3.15099 13.2234 2.78539 13.2516C2.68865 13.2592 2.60335 13.4055 2.51271 13.4877C2.59725 13.5624 2.67114 13.6614 2.76939 13.7033C2.85546 13.7398 2.96895 13.7139 3.07025 13.7139C4.51514 13.7139 5.96003 13.7139 7.40568 13.7139C8.09042 13.7139 8.7744 13.717 9.4591 13.7116C9.6397 13.7101 9.8956 13.7665 9.8979 13.4885C9.9002 13.1891 9.6359 13.2455 9.4401 13.2394C9.3769 13.2371 9.3137 13.2394 9.2497 13.2394C8.2359 13.2394 7.2206 13.2394 6.20681 13.2394ZM6.1931 15.4932C5.48322 15.4932 4.77259 15.4909 4.06271 15.4947C3.89209 15.4955 3.67045 15.4574 3.6674 15.7247C3.66436 15.9845 3.87229 15.9708 4.05205 15.9708C5.48551 15.9715 6.91821 15.9776 8.35168 15.9609C8.48802 15.9593 8.72337 15.8276 8.73784 15.7308C8.77364 15.4818 8.54057 15.494 8.3631 15.4932C7.64028 15.4917 6.91745 15.4932 6.19463 15.4924L6.1931 15.4932ZM6.19158 18.2078C6.79939 18.2078 7.40644 18.2093 8.01426 18.207C8.18868 18.2063 8.42632 18.2261 8.38214 17.9686C8.36539 17.8711 8.13384 17.7455 7.99826 17.7432C6.80929 17.7256 5.61956 17.7333 4.42983 17.7333C4.23865 17.7333 3.99873 17.7135 4.02006 17.9808C4.02691 18.0661 4.26912 18.1918 4.40775 18.1979C5.00185 18.2223 5.59671 18.2078 6.19158 18.2078Z" fill="#9C9C9C"/>
<path d="M12.7752 18.0546V15.225C13.0403 15.225 13.2901 15.225 13.5392 15.225C14.377 15.225 15.2149 15.2342 16.052 15.2144C16.1738 15.2113 16.2926 15.0719 16.413 14.9958C16.2957 14.9166 16.1792 14.7703 16.0603 14.768C15.109 14.749 14.1569 14.7574 13.2048 14.7574C13.0693 14.7574 12.9337 14.7574 12.7775 14.7574V12.4084C12.9184 12.4023 13.0525 12.3916 13.1865 12.3909C14.1257 12.3893 15.0656 12.3992 16.004 12.3802C16.1411 12.3772 16.3787 12.2538 16.3924 12.1601C16.4343 11.8706 16.1746 11.9133 15.9941 11.9125C15.0679 11.908 14.1409 11.9102 13.2147 11.9102C13.0784 11.9102 12.9413 11.9102 12.7813 11.9102V9.55821C12.9139 9.55135 13.0494 9.5384 13.1843 9.5384C14.1234 9.53688 15.0633 9.54602 16.0017 9.52698C16.1403 9.52393 16.381 9.40359 16.3939 9.31143C16.4343 9.03113 16.186 9.05703 15.9971 9.05703C15.0709 9.0555 14.144 9.05627 13.2178 9.05627C13.0807 9.05627 12.9436 9.05627 12.7813 9.05627V6.70727C12.9078 6.70118 13.0411 6.68976 13.1744 6.68976C14.1135 6.68823 15.0526 6.68976 15.9918 6.68747C16.1746 6.68747 16.4145 6.7385 16.4084 6.44297C16.4023 6.17487 16.1776 6.22285 16.007 6.22285C15.0808 6.21981 14.1539 6.22133 13.2277 6.22133C13.0898 6.22133 12.9527 6.22133 12.757 6.22133C12.757 5.67826 12.757 5.16261 12.757 4.64696C12.757 4.38037 12.7646 4.11302 12.7501 3.8472C12.7265 3.4199 12.4393 3.10533 12.044 2.94919C10.4796 2.33072 8.92348 1.69472 7.375 0.987128C7.47935 0.982558 7.58294 0.973418 7.68728 0.973418C11.1019 0.972656 14.5157 0.972656 17.9302 0.972656C18.5396 0.972656 18.6942 1.12651 18.6942 1.73433C18.6942 6.92587 18.6942 12.1167 18.6942 17.3082C18.6942 17.9023 18.5457 18.0531 17.9569 18.0539C16.3574 18.0554 14.7586 18.0539 13.1591 18.0539C13.0464 18.0539 12.9329 18.0546 12.7752 18.0546Z" fill="#C8C8C8"/>
<path d="M6.39844 2.86087V1.15625C7.11365 1.45482 7.76183 1.72369 8.40849 1.99561C9.0483 2.26448 9.6873 2.5364 10.3218 2.86087H6.39844Z" fill="#9C9C9C"/>
</g>
<defs>
<clipPath id="clip0_4405_10630">
<rect width="19" height="21" fill="white"/>
</clipPath>
</defs>
</svg>
