<svg width="15" height="23" viewBox="0 0 15 23" fill="none" xmlns="http://www.w3.org/2000/svg">
<path d="M10.4619 0.508623C11.79 0.293998 12.8768 1.10664 12.8823 2.34577C12.9016 6.70154 12.8869 11.0573 12.8842 15.4131C12.8842 15.4874 12.8704 15.5617 12.8558 15.7057C12.277 15.2462 11.668 15.026 10.9636 15.1875C10.9021 15.2012 10.8205 15.1554 10.7554 15.1233C10.3509 14.9297 9.94915 14.7325 9.50064 14.5152V13.6567C9.94732 13.6567 10.3747 13.6897 10.7939 13.6429C11.003 13.619 11.28 13.4971 11.3754 13.332C11.5194 13.0834 11.3754 12.8486 11.0938 12.7064C11.0103 12.6642 10.9553 12.4936 10.9507 12.3799C10.8471 9.8567 9.58227 8.35617 7.07374 7.80952C6.92332 7.47566 7.21774 6.83821 6.53442 6.84554C5.88688 6.85288 6.1437 7.44722 6.02721 7.78292C5.63557 7.90032 5.2476 7.9847 4.88347 8.13054C3.21692 8.79917 2.15939 10.3859 2.14013 12.213C2.13738 12.446 2.19424 12.6817 1.86864 12.8064C1.75857 12.8486 1.64576 13.1907 1.70629 13.3026C1.79435 13.465 2.03465 13.6337 2.21626 13.6401C3.14721 13.6741 4.08 13.6567 5.01279 13.6567C5.17697 13.6567 5.34023 13.6567 5.53101 13.6567V18.1473C4.33682 17.7006 3.16831 17.5557 2.50701 18.8929C1.80535 20.3118 2.79959 21.1327 3.80484 21.8968C3.79292 21.938 3.781 21.9793 3.76907 22.0206C3.02339 21.9747 2.26212 22.0068 1.53661 21.8619C0.752409 21.7051 0.232358 20.9511 0.201173 20.1394C0.178243 19.5441 0.191084 18.9471 0.191084 18.3518C0.191084 13.0944 0.188332 7.83612 0.192918 2.57874C0.192918 1.15616 1.18991 0.288495 2.62258 0.505871C2.62258 0.779196 2.61615 1.06444 2.62349 1.34969C2.65376 2.58241 3.44897 3.37303 4.68352 3.3822C5.92174 3.39138 7.15995 3.39138 8.39725 3.3822C9.6318 3.37303 10.4279 2.58424 10.46 1.35244C10.4674 1.0672 10.4609 0.781031 10.4609 0.507706L10.4619 0.508623Z" fill="#9C9C9C"/>
<path d="M6.53698 19.5289C6.53698 18.2714 6.53606 17.0671 6.53698 15.8638C6.53698 15.0392 6.53331 14.2147 6.54706 13.3901C6.5599 12.6316 6.92311 12.2032 7.52388 12.2051C8.12098 12.2069 8.48969 12.6563 8.49244 13.3965C8.49611 14.3128 8.49244 15.2282 8.49244 16.2765C8.82447 15.8023 9.18034 15.5455 9.68205 15.6537C10.2076 15.7675 10.4131 16.1573 10.4901 16.7076C10.8175 16.26 11.1881 15.9986 11.7118 16.16C12.2098 16.3132 12.4006 16.7049 12.4391 17.246C12.7446 16.7599 13.1142 16.5049 13.6508 16.6544C14.0351 16.7617 14.3267 17.0084 14.3304 17.4212C14.3478 19.251 14.3377 21.0808 14.3377 22.9721H13.8764C11.5706 22.9721 9.26472 22.9794 6.95889 22.9611C6.72592 22.9592 6.44801 22.8602 6.26824 22.7125C5.41799 22.0154 4.59435 21.2872 3.76337 20.5672C3.30752 20.1719 3.19104 19.7408 3.41575 19.3189C3.65697 18.8667 4.08622 18.73 4.6824 18.9217C5.28775 19.1171 5.89127 19.318 6.53514 19.5289H6.53698Z" fill="#9C9C9C"/>
<path d="M9.90385 12.6582C9.59659 12.7683 9.42874 12.6775 9.28199 12.3601C8.94721 11.6337 8.35103 11.2467 7.54023 11.2411C6.71017 11.2347 6.10757 11.63 5.75628 12.3693C5.64163 12.6114 5.52698 12.7123 5.25458 12.705C4.57126 12.6857 3.88703 12.6986 3.21381 12.6986C2.91389 11.6034 3.47063 10.2212 4.49147 9.46087C5.6453 8.60054 7.19353 8.54551 8.39781 9.32145C9.53605 10.0543 10.1533 11.42 9.90385 12.6601V12.6582Z" fill="#9C9C9C"/>
<path d="M9.46564 0.476562C9.46564 0.860868 9.4959 1.22591 9.4583 1.58362C9.40877 2.05689 9.02538 2.40451 8.51083 2.41277C7.20016 2.43295 5.88765 2.4357 4.57697 2.41277C3.98721 2.40268 3.62676 1.99544 3.60658 1.40935C3.59649 1.10759 3.60474 0.805837 3.60474 0.47748H9.46472L9.46564 0.476562Z" fill="#9C9C9C"/>
</svg>
