<svg width="20" height="20" viewBox="0 0 20 20" fill="none" xmlns="http://www.w3.org/2000/svg">
<path d="M14.2062 7.25881C17.3872 7.25012 19.9901 9.83635 19.9995 13.0158C20.009 16.1905 17.4244 18.7934 14.2409 18.8155C11.0773 18.8376 8.45076 16.2214 8.45313 13.0522C8.4555 9.85294 11.0228 7.2675 14.2062 7.25881Z" fill="#ABABAB"/>
<path d="M6.75598 6.37517C4.97389 6.27958 3.25106 6.02681 1.65856 5.21081C1.22094 4.98647 0.803065 4.68156 0.456286 4.33399C-0.15591 3.71942 -0.129842 3.08827 0.464185 2.45395C1.08507 1.79041 1.88211 1.40888 2.72812 1.14504C5.63744 0.238991 8.53411 0.259529 11.3826 1.38439C11.9103 1.59293 12.4158 1.9168 12.8542 2.28096C13.7089 2.99032 13.6971 3.78025 12.8756 4.52199C12.009 5.30481 10.9458 5.70451 9.83117 5.93122C8.81769 6.13819 7.78131 6.23061 6.7544 6.37359L6.75598 6.37517Z" fill="#ABABAB"/>
<path d="M8.41258 8.14518C8.05316 8.78897 7.71981 9.39564 7.37303 9.99361C7.33196 10.0647 7.21505 10.1303 7.13211 10.1318C5.09409 10.1642 3.11768 9.90356 1.30795 8.87507C1.21632 8.82294 1.12943 8.76448 1.04175 8.70603C0.277096 8.1981 -0.159735 7.53456 0.0543358 6.54004C2.63899 8.07487 5.4772 8.36794 8.41337 8.14518H8.41258Z" fill="#ABABAB"/>
<path d="M0.0519524 14.2354C2.21399 15.5324 4.55613 15.9376 6.9986 15.9084C7.22925 15.9061 7.33984 15.9787 7.44333 16.1881C7.69926 16.7031 7.99391 17.1984 8.30751 17.7632C7.87621 17.79 7.45517 17.8343 7.03256 17.8398C5.17228 17.8643 3.36255 17.6186 1.67447 16.7797C1.39404 16.6399 1.12784 16.4653 0.87111 16.2844C0.173602 15.7923 -0.130521 15.1303 0.0519524 14.2354Z" fill="#ABABAB"/>
<path d="M6.77302 13.9971C5.60551 13.9939 4.45063 13.9078 3.34789 13.5468C2.56744 13.2917 1.78857 12.9773 1.08237 12.5641C0.132875 12.008 -0.0440696 11.5285 0.0309737 10.3721C2.10533 11.6344 4.38191 12.0475 6.77223 12.0673V13.9963L6.77302 13.9971Z" fill="#ABABAB"/>
<path d="M14.0975 15C14.2875 15 14.455 14.9525 14.6 14.8575C14.75 14.7575 14.865 14.62 14.945 14.445H16.7C16.625 14.865 16.4725 15.2325 16.2425 15.5475C16.0175 15.8625 15.7225 16.1075 15.3575 16.2825C14.9975 16.4525 14.5875 16.5375 14.1275 16.5375C13.4775 16.5375 12.9325 16.37 12.4925 16.035C12.0525 15.7 11.7575 15.245 11.6075 14.67H11.1125V13.9275H11.5025V13.8375V13.7175H11.1125V12.9675H11.615C11.77 12.4025 12.065 11.9575 12.5 11.6325C12.94 11.3025 13.4825 11.1375 14.1275 11.1375C14.5875 11.1375 14.9975 11.225 15.3575 11.4C15.7225 11.57 16.0175 11.8125 16.2425 12.1275C16.4725 12.4425 16.625 12.81 16.7 13.23H14.945C14.865 13.055 14.75 12.92 14.6 12.825C14.455 12.725 14.2875 12.675 14.0975 12.675C13.8325 12.675 13.6175 12.7725 13.4525 12.9675H14.3825V13.7175H13.19V13.8375V13.9275H14.3825V14.67H13.4225C13.5875 14.89 13.8125 15 14.0975 15Z" fill="white"/>
</svg>
