<svg width="20" height="20" viewBox="0 0 20 20" fill="none" xmlns="http://www.w3.org/2000/svg">
<g clip-path="url(#clip0_4400_10598)">
<path d="M6.48037 18.4634C6.38058 18.7449 6.29362 19.0388 6.16888 19.3119C6.12682 19.4042 5.97714 19.5126 5.89302 19.4988C4.96853 19.3403 4.11673 18.9772 3.35832 18.4149C3.35404 18.3703 3.34905 18.3565 3.3519 18.3457C3.45597 17.9857 3.70331 17.5841 3.62562 17.2787C3.54436 16.9626 3.1566 16.7295 2.88431 16.4841C2.80875 16.4156 2.6669 16.4226 2.55428 16.4172C2.50154 16.4149 2.44594 16.4641 2.39176 16.4903C1.94365 16.7041 1.59604 16.5862 1.34894 16.1364C0.967595 15.4372 0.69103 14.6956 0.558449 13.8664C0.826461 13.7371 1.09447 13.631 1.33682 13.4787C1.42735 13.4217 1.4915 13.2625 1.51003 13.1402C1.53356 12.9794 1.49435 12.8094 1.49221 12.6432C1.48604 12.1807 1.27956 11.8645 0.872793 11.6948C0.753043 11.6448 0.634719 11.5894 0.5 11.5301C0.627591 10.5117 0.939083 9.58317 1.45657 8.73931C1.50219 8.66469 1.67469 8.62084 1.76593 8.64777C2.0375 8.72854 2.29839 8.85239 2.43881 8.90931C2.78309 8.59161 3.07961 8.33468 3.35333 8.0516C3.41178 7.9916 3.42532 7.8239 3.39396 7.73082C3.29844 7.44466 3.17085 7.17004 3.0511 6.88003C3.80738 6.24309 4.64563 5.84001 5.55587 5.61539C5.63856 5.59539 5.82602 5.72693 5.84741 5.82001C5.99852 6.47387 6.34565 6.65464 6.96864 6.60695C7.40772 6.5731 7.64152 6.47695 7.7299 6.01386C7.76269 5.84309 7.84752 5.68462 7.91594 5.5C8.92384 5.65231 9.82909 6.02617 10.6745 6.64541C10.5718 6.94157 10.4549 7.22158 10.3844 7.51466C10.3573 7.6262 10.4079 7.79159 10.4756 7.89083C10.5718 8.03237 10.7208 8.13006 10.8398 8.25468C11.1307 8.55879 11.4631 8.62136 11.837 8.44238C11.9653 8.38084 12.0958 8.32468 12.2476 8.25622C12.8578 9.12701 13.2534 10.0816 13.448 11.1655C13.2177 11.2801 13.0003 11.4117 12.7687 11.4978C12.5263 11.5878 12.4294 11.7217 12.4828 12.0063C12.522 12.2171 12.5441 12.4471 12.5092 12.6556C12.4493 13.0117 12.5869 13.164 12.8849 13.2456C13.0887 13.3017 13.2805 13.4079 13.5 13.501C13.376 14.5902 13.016 15.5595 12.4479 16.4826C12.1742 16.371 11.9162 16.2441 11.6453 16.1679C11.5412 16.1387 11.3837 16.1903 11.2953 16.2656C11.1392 16.3995 11.0394 16.6133 10.8769 16.7333C10.5305 16.9903 10.5219 17.2703 10.7301 17.6257C10.8234 17.7849 10.8726 17.9734 10.9489 18.1672C10.1926 18.7911 9.36221 19.208 8.44698 19.4219C8.36501 19.4411 8.18253 19.3303 8.16614 19.2519C8.01859 18.5188 7.6016 18.3088 6.95937 18.4595C6.81325 18.4934 6.65501 18.4649 6.47894 18.4649L6.48037 18.4634ZM4.04046 12.5032C4.03334 14.2771 5.34845 15.7164 6.98717 15.7272C8.61591 15.7379 9.9631 14.2971 9.97023 12.5356C9.97735 10.767 8.65583 9.32701 7.01711 9.31625C5.37411 9.30625 4.04831 10.7262 4.04046 12.5032Z" fill="black"/>
<path d="M13.3435 6.93647C13.0939 7.07436 12.8422 7.21369 12.5752 7.36163C12.0499 6.84741 11.7039 6.24629 11.5036 5.52595C11.87 5.2753 12.2966 5.16039 12.2719 4.50253C12.2494 3.89063 11.9578 3.6802 11.5 3.47121C11.693 2.73866 12.0448 2.13395 12.5752 1.61326C12.8443 1.76192 13.0961 1.90125 13.3406 2.03555C13.5466 1.907 13.7258 1.74253 13.9369 1.67502C14.3381 1.54719 14.4419 1.29079 14.3809 0.917336C14.3381 0.655198 14.4404 0.500069 14.7212 0.500069C15.2254 0.499351 15.7303 0.504378 16.2346 0.507969C16.4885 0.510124 16.5632 0.650889 16.5349 0.881427C16.5219 0.987719 16.5052 1.10622 16.54 1.20174C16.585 1.32742 16.6539 1.47178 16.7576 1.5436C17.0137 1.72027 17.296 1.8596 17.5934 2.02837C17.819 1.90269 18.0686 1.76336 18.3392 1.61254C18.8681 2.11958 19.2076 2.72358 19.4166 3.44895C19.0284 3.68595 18.6446 3.84108 18.6475 4.49032C18.6504 5.12879 19.0052 5.28464 19.5 5.55898C19.138 6.18524 18.7912 6.78565 18.4538 7.37025C18.3189 7.33291 18.2826 7.3286 18.2522 7.3128C18.0185 7.19286 17.7581 6.9379 17.56 6.97956C17.2241 7.04994 16.91 7.28335 16.6256 7.49881C16.532 7.56991 16.5197 7.80332 16.5414 7.9527C16.5966 8.34411 16.4188 8.50283 16.0525 8.49996C15.5954 8.49565 15.1383 8.48201 14.682 8.46549C14.4687 8.45759 14.3418 8.35848 14.3809 8.12435C14.4542 7.69559 14.3338 7.39826 13.8695 7.26468C13.6816 7.21081 13.5241 7.05281 13.3435 6.93647ZM13.9565 4.48386C13.9551 5.30475 14.6124 5.9705 15.4372 5.98415C16.2708 5.9978 16.9593 5.32198 16.9608 4.49032C16.9622 3.65722 16.2774 2.97925 15.4438 2.98931C14.6211 2.99864 13.9587 3.66584 13.9565 4.48386Z" fill="black"/>
</g>
<defs>
<clipPath id="clip0_4400_10598">
<rect width="19" height="19" fill="white" transform="translate(0.5 0.5)"/>
</clipPath>
</defs>
</svg>
