<svg width="16" height="17" viewBox="0 0 16 17" fill="none" xmlns="http://www.w3.org/2000/svg">
  <path fill-rule="evenodd" clip-rule="evenodd" d="M0 4.42v.03l.002.03.001.041c.003.066.008.187.016.289v.002C.107 5.997.473 7.08.963 8.074 2.08 10.34 3.696 12.175 5.66 13.68c1.3.995 2.754 1.818 4.435 2.244.913.23 1.918.34 2.966.077.343-.086.909-.235 1.375-.66l.003-.002c.327-.3.634-.616.917-.907l.05-.052c.787-.808.802-2.03-.007-2.848a242.646 242.646 0 0 0-2.345-2.337c-.832-.817-2.065-.774-2.866.013l-.316.317c-.14.142-.268.27-.41.403-.103.004-.254-.027-.516-.14-.91-.39-1.63-1.038-2.22-1.905-.232-.341-.43-.72-.48-1.134a1.009 1.009 0 0 1-.004-.035c.2-.177.396-.38.554-.543l.15-.155c.383-.385.621-.89.625-1.445a2.044 2.044 0 0 0-.618-1.456c-.766-.772-1.536-1.54-2.31-2.303-.39-.385-.9-.613-1.45-.61a2.069 2.069 0 0 0-1.439.615l-.162.158c-.21.205-.444.432-.661.667a2.98 2.98 0 0 0-.474.666l-.004.009C.098 3.011.006 3.729 0 4.42Zm1.343-1.65a1.98 1.98 0 0 1 .318-.446c.198-.215.407-.419.616-.623l.177-.172c.44-.433 1.046-.44 1.485-.006.772.761 1.54 1.526 2.304 2.295.44.443.434 1.048-.007 1.492l-.19.196a7.587 7.587 0 0 1-.514.498c-.28.24-.32.535-.28.864.072.584.32 1.098.647 1.576.676.994 1.534 1.783 2.652 2.263.374.16.766.277 1.18.192a.766.766 0 0 0 .347-.18c.182-.167.355-.342.528-.517l.282-.282c.428-.42 1.037-.432 1.464-.012.784.77 1.563 1.545 2.336 2.326.418.423.415 1.022 0 1.447l-.046.047c-.287.296-.575.593-.88.873-.264.24-.605.344-.945.429-.832.208-1.66.13-2.478-.077-1.513-.383-2.845-1.13-4.072-2.069C4.408 11.46 2.899 9.74 1.86 7.632c-.45-.914-.767-1.87-.844-2.894a8.07 8.07 0 0 1-.012-.236L1 4.428c.005-.61.087-1.155.343-1.659Z" fill="#FFC00B"/>
</svg>