<svg width="19" height="19" viewBox="0 0 19 19" fill="none" xmlns="http://www.w3.org/2000/svg">
<g id="Frame 2713">
<path id="Vector" d="M6.71027 7.57815C6.81963 7.47104 6.93051 7.36463 7.04159 7.25804C7.32752 6.98364 7.61476 6.70799 7.88067 6.41582L7.88071 6.41578C8.28404 5.97215 8.49583 5.5172 8.49385 5.05437C8.49187 4.59134 8.27603 4.14016 7.86479 3.70407C7.86478 3.70406 7.86477 3.70405 7.86476 3.70403L6.71027 7.57815ZM6.71027 7.57815C7.28373 8.74767 8.0957 9.7077 9.04025 10.5477C9.46182 10.9225 9.91952 11.2484 10.3825 11.578C10.6292 11.7537 10.8775 11.9304 11.1225 12.1162L11.1226 12.1163C11.2354 12.202 11.3104 12.2132 11.3692 12.1995C11.4362 12.184 11.5095 12.1307 11.6056 12.0281L11.6056 12.0281C11.9498 11.6607 12.3093 11.3032 12.6877 10.9686L12.6877 10.9685C13.0553 10.6441 13.4772 10.4773 13.9008 10.48C14.3247 10.4827 14.7412 10.6552 15.0974 10.9934L15.0285 11.0659L15.0974 10.9934C15.8769 11.7336 16.639 12.4943 17.3773 13.2754L17.3773 13.2754C17.7429 13.6625 17.9327 14.1011 17.9372 14.5479C17.9417 14.9946 17.7609 15.4379 17.4072 15.8345C16.9402 16.3585 16.4483 16.8652 15.9329 17.3425L15.9329 17.3426C15.0587 18.1512 14.0035 18.2072 12.9246 18.0042C11.3696 17.7117 9.98018 17.0251 8.66836 16.1993C5.58266 14.2579 3.24777 11.6407 1.72137 8.32026C1.32303 7.45508 1.02911 6.54777 0.926091 5.58577L0.926088 5.58574C0.813549 4.53204 1.0555 3.58712 1.84772 2.81955L6.71027 7.57815ZM13.7942 16.8778L13.7943 16.8771C14.116 16.8911 14.3773 16.8548 14.612 16.7612C14.8467 16.6674 15.0614 16.5136 15.2861 16.2825L15.2861 16.2824C15.4653 16.0983 15.6456 15.9151 15.8257 15.732C16.0058 15.5489 16.1858 15.3659 16.365 15.1819C16.6114 14.9285 16.713 14.7425 16.7144 14.5743C16.7158 14.4071 16.6183 14.2243 16.3739 13.9769L16.445 13.9066L16.3739 13.9769C15.7178 13.3124 15.0575 12.6528 14.3936 11.9966C14.1904 11.7958 14.0258 11.7132 13.8755 11.7125C13.7253 11.7118 13.5598 11.7929 13.3546 11.9923L13.3546 11.9923C13.1141 12.2258 12.879 12.4621 12.6433 12.6991C12.4763 12.8669 12.3089 13.0351 12.1391 13.2029L12.139 13.203C11.9492 13.3903 11.7659 13.514 11.5619 13.5473C11.3557 13.581 11.1488 13.5192 10.919 13.3815M13.7942 16.8778L6.99819 4.55984C7.19855 4.7653 7.27775 4.92767 7.27555 5.07564C7.27332 5.22461 7.18827 5.38958 6.98352 5.5991C6.71892 5.86985 6.44853 6.13357 6.17704 6.39837C6.04756 6.52466 5.91783 6.65119 5.78836 6.77885C5.59889 6.96543 5.47556 7.13967 5.43751 7.34003C5.39937 7.54084 5.4505 7.7485 5.56473 7.99359L5.56473 7.99359C6.35107 9.68032 7.58864 10.9989 9.00566 12.14L9.00567 12.14C9.5111 12.5469 10.0771 12.8822 10.6328 13.2114C10.7286 13.2682 10.8241 13.3248 10.919 13.3815M13.7942 16.8778C12.8155 16.8363 11.9074 16.5188 11.0286 16.094L11.0286 16.094C7.15271 14.2212 4.34077 11.3234 2.65028 7.3587L2.65027 7.35866C2.31849 6.58128 2.09262 5.77649 2.14114 4.92511L2.14114 4.92506C2.16473 4.50712 2.28578 4.13894 2.56987 3.84573L2.56993 3.84567C3.02468 3.3755 3.47931 2.90763 3.95176 2.4603L3.9518 2.46027C4.12792 2.29336 4.28801 2.22444 4.43654 2.22741C4.58564 2.23039 4.74618 2.30625 4.9219 2.47865C5.62127 3.16542 6.31358 3.85844 6.99816 4.55981L13.7942 16.8778ZM10.919 13.3815L10.9703 13.2957M10.919 13.3815C10.919 13.3815 10.919 13.3815 10.919 13.3815L10.9703 13.2957M10.9703 13.2957C10.8748 13.2386 10.7788 13.1817 10.6827 13.1247C10.1267 12.7953 9.56774 12.4641 9.06838 12.0621M10.9703 13.2957C11.4089 13.5584 11.7003 13.4954 12.0688 13.1318C12.2372 12.9654 12.4042 12.7976 12.5712 12.6298C12.8077 12.392 13.0443 12.1543 13.2849 11.9206C13.7094 11.508 14.0436 11.5101 14.4639 11.9255L9.06838 12.0621M9.06838 12.0621C7.6582 10.9265 6.43296 9.61932 5.65537 7.95134L9.06838 12.0621Z" fill="#FFC00B" stroke="#FFC00B" stroke-width="0.2"/>
</g>
</svg>
