<svg width="16" height="16" viewBox="0 0 16 16" fill="none" xmlns="http://www.w3.org/2000/svg">
<path id="Vector" d="M1.24985 4.79196L1.25002 4.76945C1.25461 4.18419 1.33244 3.58629 1.6248 3.00971L1.62826 3.00289L1.62829 3.00291C1.73212 2.80322 1.86293 2.61877 2.01705 2.45477C2.20099 2.25478 2.39869 2.06175 2.57885 1.88583C2.62723 1.83859 2.67435 1.79258 2.7196 1.748L1.24985 4.79196ZM1.24985 4.79196L1.25102 4.81445M1.24985 4.79196L1.25102 4.81445M1.25102 4.81445C1.25144 4.8224 1.25202 4.83605 1.25278 4.85376C1.25523 4.91087 1.25949 5.01013 1.26566 5.09592L1.26579 5.09772M1.25102 4.81445L1.26579 5.09772M7.02118 6.06184L7.02083 6.0622C6.98059 6.10285 6.93584 6.14934 6.88759 6.19946C6.7421 6.35062 6.56477 6.53483 6.38326 6.69194C6.38326 6.69198 6.38326 6.69203 6.38325 6.69207C6.38264 6.71117 6.38362 6.74058 6.38887 6.78419C6.43087 7.12639 6.57852 7.45482 6.81874 7.8075L6.81972 7.80895C7.33496 8.56924 7.96597 9.14128 8.76826 9.48714C9.0266 9.59778 9.17991 9.62704 9.29727 9.61243C9.43157 9.48762 9.55067 9.36674 9.68122 9.23425C9.76363 9.15061 9.8506 9.06235 9.94883 8.96554L7.02118 6.06184ZM7.02118 6.06184C7.33083 5.74856 7.52131 5.34116 7.52401 4.89693C7.52672 4.45146 7.34003 4.04012 7.02669 3.7236L6.4936 4.25116M7.02118 6.06184L6.48777 5.5346C6.8659 5.15205 6.87105 4.63234 6.4936 4.25116M6.4936 4.25116L7.02655 3.72345M6.4936 4.25116L7.02655 3.72345M7.02655 3.72345C6.3701 3.06013 5.71021 2.40037 5.04688 1.74416L7.02655 3.72345ZM12.2569 8.95463L12.257 8.9547C12.9313 9.61957 13.601 10.289 14.2661 10.9631L14.2663 10.9633C14.9165 11.6228 14.9045 12.6038 14.2707 13.2569C14.2566 13.2714 14.2426 13.286 14.2284 13.3006C13.9854 13.5519 13.7245 13.8216 13.4468 14.0772L13.4443 14.0795L13.4443 14.0795C13.0664 14.4242 12.6055 14.5481 12.3111 14.6219L12.2569 8.95463ZM12.2569 8.95463C11.587 8.29422 10.596 8.32732 9.94918 8.96519L12.2569 8.95463ZM9.82037 14.5555L9.8201 14.5554C8.39708 14.1938 7.16438 13.4942 6.05732 12.6439L6.0571 12.6437C4.38596 11.3591 3.01207 9.79228 2.06395 7.86209L9.82037 14.5555ZM9.82037 14.5555C10.5927 14.7515 11.436 14.8417 12.311 14.622L9.82037 14.5555ZM1.26579 5.09772C1.3403 6.09876 1.64782 7.0154 2.06386 7.86192L1.26579 5.09772ZM3.87854 1.25003C4.32051 1.2474 4.73088 1.43127 5.0467 1.74399L3.87854 1.25003ZM3.87854 1.25003C3.43798 1.25265 3.03198 1.44005 2.71988 1.74772L3.87854 1.25003Z" stroke="#FFC00B" stroke-width="1.5"/>
</svg>
