<svg width="19" height="19" viewBox="0 0 19 19" fill="none" xmlns="http://www.w3.org/2000/svg">
  <path fill-rule="evenodd" clip-rule="evenodd" d="M4.183 1.036c-.08.02-.286.107-.457.194-.279.144-.395.245-1.172 1.018-.93.926-1.152 1.21-1.342 1.72C.93 4.726.93 5.62 1.211 6.74c.184.733.425 1.35.89 2.277 1.597 3.19 3.92 5.681 7.07 7.584.98.591 1.754.957 2.695 1.27 1.776.593 3.014.572 3.99-.068.28-.185 1.673-1.572 1.956-1.95.507-.675.566-1.441.164-2.135-.144-.25-1.243-1.41-2.126-2.246-.516-.488-.746-.679-.948-.785-.512-.27-1.026-.279-1.56-.029-.325.153-.476.276-1.174.961-.316.31-.603.563-.64.563-.064 0-1.325-.888-1.816-1.278-1.059-.842-2.169-2.151-2.61-3.078l-.064-.132.686-.698c.62-.629.702-.73.846-1.019.334-.676.293-1.24-.138-1.894-.154-.233-1.986-2.112-2.436-2.499-.31-.266-.649-.46-.938-.537a2.327 2.327 0 0 0-.875-.01Zm.244 1.426c-.077.034-.462.39-.919.851-.91.917-.998 1.051-1.058 1.595-.097.89.146 1.833.85 3.298 1.634 3.4 4.234 6.021 7.686 7.751 1.271.637 2.199.91 3.1.913.473.002.733-.072 1.03-.29.272-.2 1.552-1.523 1.64-1.696.093-.182.095-.235.012-.413-.077-.165-2.159-2.28-2.406-2.444-.19-.126-.36-.142-.499-.048a20.45 20.45 0 0 0-.874.83c-.86.845-.987.934-1.344.934-.251 0-.522-.13-1.343-.64-.957-.594-1.64-1.14-2.475-1.975-.865-.866-1.53-1.767-2.013-2.724-.216-.428-.257-.542-.275-.757-.032-.405.032-.503.883-1.344.402-.398.778-.787.836-.865.136-.183.139-.366.008-.555-.185-.266-2.319-2.36-2.468-2.422-.172-.071-.204-.071-.371.001Z" fill="#FFC00B"/>
</svg>
