<svg width="32" height="32" viewBox="0 0 32 32" fill="none" xmlns="http://www.w3.org/2000/svg">
<g id="chevron-down">
<path id="Vector" d="M18.4426 15.9958C17.2095 14.8318 15.9986 13.689 14.7883 12.5462C14.2621 12.0493 13.7304 11.5566 13.2111 11.0532C12.8422 10.696 12.9827 10.1583 13.4687 10.0256C13.715 9.95814 13.9265 10.0275 14.1047 10.1916C14.3475 10.4152 14.5858 10.643 14.8255 10.8694C16.44 12.3933 18.0549 13.9173 19.6694 15.4412C20.1087 15.8561 20.1102 16.1453 19.6738 16.5569C17.8489 18.2796 16.023 20.0018 14.1995 21.7259C13.9885 21.9251 13.7646 22.0648 13.4514 21.9692C13.0175 21.8365 12.8601 21.3579 13.1406 21.0204C13.1967 20.9534 13.2642 20.8943 13.3283 20.8338C14.9655 19.2874 16.6038 17.7414 18.2411 16.195C18.3046 16.135 18.3647 16.0726 18.4421 15.9962L18.4426 15.9958Z" fill="#727272" stroke="#727272" stroke-width="0.5"/>
</g>
</svg>
