<svg xmlns="http://www.w3.org/2000/svg" width="20" height="20"
                                             viewBox="0 0 20 20" fill="none">
                                            <g clip-path="url(#clip0_2603_29799)">
                                                <path
                                                    d="M19.9068 5.07776C19.9162 5.24262 19.9279 5.35747 19.9279 5.47233C19.9287 9.66408 19.9302 13.8558 19.9271 18.0476C19.9263 19.0555 19.4489 19.718 18.5778 19.9462C18.4535 19.979 18.3223 19.9977 18.1941 19.9977C15.2134 20.0009 12.2319 20.0001 9.25122 19.9993C9.20278 19.9993 9.15434 19.9899 9.03089 19.9766C10.588 18.7765 11.4764 17.2499 11.6999 15.3138C11.8514 15.3138 11.9921 15.3138 12.1319 15.3138C13.5641 15.3138 14.9954 15.3145 16.4276 15.3138C16.9128 15.3138 17.1855 15.0966 17.1823 14.7231C17.1792 14.3512 16.9081 14.1434 16.4174 14.1426C14.9986 14.141 13.5797 14.1426 12.1608 14.1426C12.0194 14.1426 11.8772 14.1426 11.7717 14.1426C11.5475 13.355 11.3334 12.6003 11.1107 11.8174C11.2061 11.8127 11.3412 11.8002 11.4756 11.8002C13.1422 11.7986 14.8079 11.7963 16.4745 11.8018C16.7917 11.8025 17.0433 11.7111 17.1503 11.3923C17.2902 10.9782 16.9901 10.6306 16.4878 10.629C14.8736 10.6251 13.2578 10.5868 11.6459 10.6431C10.7623 10.6743 10.0857 10.5024 9.41217 9.83909C8.29802 8.74213 6.84711 8.29834 5.27902 8.28428C5.09853 8.28271 4.91727 8.28428 4.68834 8.28428C4.68834 8.12332 4.68834 7.98347 4.68834 7.8444C4.68834 5.90439 4.686 3.96517 4.68913 2.02517C4.69069 0.682087 5.37199 0 6.69945 0C9.25122 0 11.8022 0 14.354 0H14.8243C14.8321 0.155482 14.8446 0.292212 14.8446 0.428942C14.8462 1.67826 14.8446 2.92837 14.8454 4.17769C14.8454 4.92072 14.9993 5.07698 15.7283 5.07698C17.1073 5.07698 18.4864 5.07698 19.9068 5.07698V5.07776ZM12.3085 8.28115C13.7008 8.28115 15.0923 8.28349 16.4846 8.27959C16.9769 8.27802 17.2652 7.96862 17.1597 7.55765C17.0706 7.20997 16.8136 7.10605 16.4792 7.10683C14.5931 7.11074 12.707 7.1084 10.8201 7.1084C9.90987 7.1084 8.99886 7.10371 8.08862 7.11074C7.62687 7.11465 7.3495 7.43264 7.45263 7.83111C7.54249 8.17802 7.79876 8.28349 8.13394 8.28193C9.52546 8.27724 10.9178 8.28037 12.3101 8.28037L12.3085 8.28115Z"
                                                    fill="currentColor" />
                                                <path
                                                    d="M10.5462 14.72C10.5524 17.6171 8.18897 19.9954 5.30202 19.9993C2.3799 20.0032 0.0078324 17.6468 1.92588e-05 14.7333C-0.00779388 11.844 2.36271 9.46018 5.24967 9.45393C8.17491 9.44768 10.5399 11.7994 10.5462 14.72ZM5.86144 15.7318C5.86144 15.1857 5.86613 14.6403 5.85988 14.0942C5.85519 13.6293 5.64345 13.3675 5.28483 13.3613C4.92386 13.355 4.69494 13.6183 4.69259 14.0754C4.68634 15.1544 4.68712 16.2326 4.69259 17.3116C4.69494 17.7757 4.90902 18.0382 5.26686 18.0445C5.63642 18.0507 5.85597 17.7781 5.86066 17.2913C5.86535 16.7717 5.86144 16.2514 5.86144 15.7318ZM5.2903 12.5753C5.61298 12.5667 5.87081 12.2831 5.85206 11.9573C5.83409 11.6463 5.56923 11.3994 5.26139 11.4072C4.93871 11.4158 4.68087 11.6994 4.69963 12.0245C4.7176 12.3354 4.98324 12.5823 5.2903 12.5745V12.5753Z"
                                                    fill="currentColor" />
                                                <path
                                                    d="M16.0508 0.453857C17.1931 1.59458 18.3299 2.73139 19.4768 3.8768H16.0508V0.453857Z"
                                                    fill="currentColor" />
                                            </g>
                                            <defs>
                                                <clipPath id="clip0_2603_29799">
                                                    <rect width="19.9309" height="20" fill="white" />
                                                </clipPath>
                                            </defs>
                                        </svg>