<svg width="31" height="30" viewBox="0 0 31 30" fill="none" xmlns="http://www.w3.org/2000/svg">
<path d="M8.87109 14.7588C9.09693 14.7995 9.22461 14.8099 9.34432 14.8466C10.2181 15.1099 11.0808 15.4163 11.965 15.6358C12.9681 15.8848 13.905 15.3725 14.2657 14.4579C14.7046 13.3447 14.4388 12.3919 13.4852 11.8293C12.7319 11.3856 11.9554 10.9794 11.1782 10.578C10.5645 10.2612 10.5174 10.0928 10.9547 9.57168C13.5674 6.45863 16.1801 3.34557 18.7888 0.23012C19.021 -0.0467908 19.2062 -0.0827015 19.511 0.171067C21.6234 1.92989 23.7525 3.66956 25.8776 5.41403C26.3349 5.78909 26.3572 5.987 25.951 6.4698C23.2481 9.68101 20.5429 12.8898 17.8384 16.0994C16.9055 17.2071 15.967 18.3091 15.0493 19.4288C14.8418 19.6817 14.6782 19.724 14.4309 19.5157C12.6329 18.0011 10.8318 16.4897 9.03309 14.9766C8.99718 14.9463 8.97484 14.8992 8.87189 14.7596L8.87109 14.7588ZM17.2375 12.8411C18.891 12.8603 20.0912 11.6896 20.1087 10.0393C20.1279 8.32119 18.5438 6.71 16.8097 6.68367C15.1778 6.65893 13.8731 7.94533 13.8579 9.59323C13.8419 11.376 15.3438 12.8196 17.2375 12.8411Z" fill="#308921"/>
<mask id="path-2-inside-1_4540_2200" fill="white">
<path d="M29.4941 26.9018C28.4551 26.9928 27.4384 27.0782 26.4217 27.1708C25.2989 27.2721 24.1769 27.3894 23.0525 27.4732C22.8993 27.4844 22.6799 27.3846 22.5833 27.2633C22.0766 26.6217 21.3895 26.3903 20.6202 26.3815C18.9994 26.3624 17.3778 26.368 15.7571 26.3751C14.3286 26.3815 13.0805 25.9147 11.996 24.9914C10.8437 24.0098 9.68498 23.0339 8.53743 22.0467C8.3491 21.8847 8.17513 21.6924 8.04107 21.4833C7.68515 20.9295 7.76974 20.4371 8.27728 19.9064C8.64676 19.5202 9.19101 19.4276 9.69535 19.7516C10.8341 20.4818 11.9657 21.2271 13.071 22.0068C13.8562 22.5614 14.6869 22.8918 15.6589 22.8814C17.148 22.8655 18.6379 22.8822 20.127 22.8711C20.3496 22.8695 20.6768 22.9812 20.692 22.5646C20.7056 22.1983 20.5611 22.0746 20.0935 22.0722C19.2157 22.0675 18.3379 22.0762 17.46 22.0683C16.8328 22.0627 16.3684 21.6948 16.2399 21.1274C16.0667 20.3605 16.524 19.7604 17.3076 19.758C19.3011 19.7508 21.2953 19.7293 23.2879 19.7676C24.2511 19.7859 25.2239 19.8522 26.069 20.4435C26.8998 21.0252 27.3937 21.8568 27.7919 22.7418C28.3785 24.0457 28.9044 25.3776 29.4542 26.6983C29.4781 26.7558 29.4797 26.8228 29.4949 26.9026L29.4941 26.9018Z"/>
</mask>
<path d="M29.4941 26.9018C28.4551 26.9928 27.4384 27.0782 26.4217 27.1708C25.2989 27.2721 24.1769 27.3894 23.0525 27.4732C22.8993 27.4844 22.6799 27.3846 22.5833 27.2633C22.0766 26.6217 21.3895 26.3903 20.6202 26.3815C18.9994 26.3624 17.3778 26.368 15.7571 26.3751C14.3286 26.3815 13.0805 25.9147 11.996 24.9914C10.8437 24.0098 9.68498 23.0339 8.53743 22.0467C8.3491 21.8847 8.17513 21.6924 8.04107 21.4833C7.68515 20.9295 7.76974 20.4371 8.27728 19.9064C8.64676 19.5202 9.19101 19.4276 9.69535 19.7516C10.8341 20.4818 11.9657 21.2271 13.071 22.0068C13.8562 22.5614 14.6869 22.8918 15.6589 22.8814C17.148 22.8655 18.6379 22.8822 20.127 22.8711C20.3496 22.8695 20.6768 22.9812 20.692 22.5646C20.7056 22.1983 20.5611 22.0746 20.0935 22.0722C19.2157 22.0675 18.3379 22.0762 17.46 22.0683C16.8328 22.0627 16.3684 21.6948 16.2399 21.1274C16.0667 20.3605 16.524 19.7604 17.3076 19.758C19.3011 19.7508 21.2953 19.7293 23.2879 19.7676C24.2511 19.7859 25.2239 19.8522 26.069 20.4435C26.8998 21.0252 27.3937 21.8568 27.7919 22.7418C28.3785 24.0457 28.9044 25.3776 29.4542 26.6983C29.4781 26.7558 29.4797 26.8228 29.4949 26.9026L29.4941 26.9018Z" fill="#F8BB8E" stroke="black" stroke-width="1.2" mask="url(#path-2-inside-1_4540_2200)"/>
<mask id="path-3-inside-2_4540_2200" fill="white">
<path d="M13.2288 5.521C12.2441 6.66216 11.3224 7.73869 10.3855 8.80244C10.3057 8.89341 10.1293 8.92613 9.99446 8.93651C9.78378 8.95247 9.56991 8.91735 9.35764 8.92134C8.95864 8.92853 8.72003 9.13681 8.63065 9.52544C8.54287 9.9045 8.68731 10.1647 9.01689 10.3514C10.2849 11.0704 11.5506 11.7926 12.8162 12.5164C13.3525 12.8228 13.6166 13.2929 13.5353 13.7821C13.4395 14.3558 13.145 14.7062 12.6119 14.7876C12.3725 14.8243 12.102 14.7947 11.8706 14.7189C10.3344 14.2202 8.79105 13.7342 7.27961 13.1668C6.81916 12.9936 6.40419 12.6217 6.05067 12.2602C5.46652 11.6625 5.0316 11.5221 4.23518 11.7854C3.7468 11.9466 3.24565 12.0671 2.69342 12.2219C2.68384 12.0512 2.67028 11.9259 2.66948 11.8006C2.66788 10.1655 2.66709 8.53032 2.66948 6.89518C2.66948 6.31024 2.68065 6.33737 3.27198 6.18735C4.45304 5.88889 5.64448 5.61437 6.79601 5.22494C8.11593 4.77965 9.42707 4.7972 10.7621 5.04299C11.5554 5.18903 12.3454 5.34943 13.2296 5.521H13.2288Z"/>
</mask>
<path d="M13.2288 5.521C12.2441 6.66216 11.3224 7.73869 10.3855 8.80244C10.3057 8.89341 10.1293 8.92613 9.99446 8.93651C9.78378 8.95247 9.56991 8.91735 9.35764 8.92134C8.95864 8.92853 8.72003 9.13681 8.63065 9.52544C8.54287 9.9045 8.68731 10.1647 9.01689 10.3514C10.2849 11.0704 11.5506 11.7926 12.8162 12.5164C13.3525 12.8228 13.6166 13.2929 13.5353 13.7821C13.4395 14.3558 13.145 14.7062 12.6119 14.7876C12.3725 14.8243 12.102 14.7947 11.8706 14.7189C10.3344 14.2202 8.79105 13.7342 7.27961 13.1668C6.81916 12.9936 6.40419 12.6217 6.05067 12.2602C5.46652 11.6625 5.0316 11.5221 4.23518 11.7854C3.7468 11.9466 3.24565 12.0671 2.69342 12.2219C2.68384 12.0512 2.67028 11.9259 2.66948 11.8006C2.66788 10.1655 2.66709 8.53032 2.66948 6.89518C2.66948 6.31024 2.68065 6.33737 3.27198 6.18735C4.45304 5.88889 5.64448 5.61437 6.79601 5.22494C8.11593 4.77965 9.42707 4.7972 10.7621 5.04299C11.5554 5.18903 12.3454 5.34943 13.2296 5.521H13.2288Z" fill="#F8BB8E" stroke="black" stroke-width="1.2" mask="url(#path-3-inside-2_4540_2200)"/>
<path d="M1.76684 9.54726C1.76684 10.6749 1.76923 11.8024 1.76444 12.9308C1.76364 13.183 1.77801 13.4519 1.40374 13.4759C0.856302 13.5102 0.667172 13.4097 0.628069 12.9811C0.490811 11.4625 0.369513 9.94307 0.234648 8.42445C0.174797 7.75173 0.0965915 7.0798 0.0295583 6.40787C0.013598 6.23629 -0.000766263 6.06392 3.17523e-05 5.89155C0.0024258 5.59389 0.14527 5.46382 0.455698 5.49733C0.678344 5.52127 0.905779 5.50452 1.13162 5.49654C1.62559 5.47978 1.76604 5.61464 1.76604 6.12457C1.76524 7.02713 1.76205 7.92888 1.76045 8.83144C1.76045 9.07005 1.76045 9.30865 1.76045 9.54806C1.76285 9.54806 1.76524 9.54806 1.76684 9.54806V9.54726Z" fill="#767676"/>
<path d="M25.8922 29.9985C24.7494 29.9985 23.6066 30.0001 22.4647 29.9985C21.9907 29.9977 21.9005 29.9003 21.8765 29.4566C21.8558 29.072 22.0441 28.9667 22.4 28.9331C24.6848 28.7161 26.9663 28.4703 29.251 28.254C29.8463 28.1974 29.8774 28.1463 29.9628 28.7799C30.1065 29.8437 29.994 29.9961 28.9222 29.9993C27.9127 30.0017 26.9024 29.9993 25.893 29.9993L25.8922 29.9985Z" fill="#767676"/>
<path d="M15.2378 9.5318C15.1779 9.22057 15.0758 8.90935 15.0782 8.59812C15.079 8.46964 15.2833 8.2861 15.4333 8.22864C15.6599 8.14166 15.9312 8.17438 16.1651 8.09936C16.4348 8.01238 16.6519 8.02036 16.7452 8.30685C16.7787 8.41139 16.7109 8.58456 16.6335 8.68032C16.5106 8.83114 16.3103 8.92132 16.2018 9.07853C16.1395 9.1687 16.1667 9.35225 16.2153 9.46876C16.2321 9.50866 16.4452 9.49908 16.5505 9.46237C16.8849 9.34666 17.2017 9.14077 17.5424 9.0905C18.2591 8.98436 18.7969 9.63714 18.6589 10.3546C18.6285 10.5134 18.6477 10.7137 18.7219 10.8533C18.8432 11.0815 18.8025 11.2579 18.6565 11.4351C18.508 11.6146 18.3756 11.5037 18.2072 11.4391C18.0931 11.396 17.8768 11.467 17.7794 11.562C17.461 11.8716 17.1761 11.8532 16.9479 11.4726C16.8298 11.2755 16.8514 11.1366 17.0636 11.0169C17.2352 10.9203 17.4179 10.8142 17.5376 10.6658C17.6358 10.5445 17.6486 10.3546 17.6996 10.1957C17.5209 10.1846 17.3294 10.1279 17.165 10.1718C16.9128 10.2396 16.6878 10.4064 16.4364 10.4798C15.7469 10.6825 15.1356 10.2285 15.2378 9.5334V9.5318Z" fill="#308921"/>
</svg>
