<svg width="56" height="57" viewBox="0 0 56 57" fill="none" xmlns="http://www.w3.org/2000/svg">
<g id="Coffee" clip-path="url(#clip0_1830_18576)">
<path id="Vector" d="M11.4935 49.9669C10.9102 49.4419 10.3268 48.8003 9.80182 48.2169L11.5518 46.7003C12.0185 47.2253 12.5435 47.8086 13.0685 48.2753L11.4935 49.9669ZM7.64349 45.3003C7.23516 44.6003 6.82682 43.9003 6.41849 43.2003L8.46016 42.1503C8.81016 42.7919 9.16016 43.4336 9.56849 44.0753L7.64349 45.3003ZM5.07682 39.8169C4.84349 39.0586 4.61016 38.2419 4.43516 37.4836L6.71016 37.0169C6.88516 37.7169 7.06016 38.4169 7.29349 39.1169L5.07682 39.8169ZM3.96849 33.8669C3.91016 33.3419 3.91016 32.8753 3.91016 32.3503C3.91016 32.0586 3.91016 31.7669 3.91016 31.4169L6.24349 31.5336C6.24349 31.8253 6.24349 32.0586 6.24349 32.3503C6.24349 32.8169 6.24349 33.2836 6.30182 33.6919L3.96849 33.8669ZM6.59349 28.2669L4.31849 27.8586C4.49349 27.0419 4.66849 26.2836 4.90182 25.5253L7.11849 26.1669C6.88516 26.8669 6.71016 27.5669 6.59349 28.2669ZM8.28516 23.0753L6.18516 22.0836C6.53516 21.3836 6.88516 20.6253 7.35182 19.9253L9.33516 21.0919C8.92682 21.7919 8.57682 22.4336 8.28516 23.0753ZM45.3852 49.0919L43.7518 47.4586C44.2768 46.9336 44.7435 46.3503 45.2102 45.8253L47.0185 47.2253C46.4935 47.8669 45.9685 48.5086 45.3852 49.0919ZM49.0018 44.1919L47.0185 43.0836C47.3685 42.4419 47.7185 41.8003 48.0102 41.1003L50.1102 42.0336C49.7602 42.7919 49.4102 43.4919 49.0018 44.1919ZM51.2768 38.6503L49.0602 38.0669C49.2352 37.3669 49.4102 36.6669 49.5268 35.9086L51.8018 36.2586C51.6852 37.0169 51.5102 37.8336 51.2768 38.6503ZM52.0935 32.6419H49.7602V32.4086C49.7602 31.7669 49.7018 31.0669 49.6435 30.4253L51.9185 30.1919C51.9768 30.8919 52.0352 31.6503 52.0352 32.3503L52.0935 32.6419ZM49.1768 27.1586C49.0018 26.4586 48.7685 25.7586 48.5352 25.0586L50.6935 24.3003C50.9852 25.0586 51.2185 25.8169 51.3935 26.6336L49.1768 27.1586ZM47.1935 22.0836C46.8435 21.4419 46.4935 20.8003 46.0852 20.2169L48.0102 18.9336C48.4768 19.5753 48.8852 20.2753 49.2935 21.0336L47.1935 22.0836Z" fill="#2E2E2E"/>
<path id="Vector_2" d="M12.8927 1.95898H43.1094L47.0177 9.71732H8.98438L12.8927 1.95898Z" fill="#A6C44A"/>
<path id="Vector_3" d="M48.9422 10.8827H7.11719L12.1922 0.791016H43.8672L48.9422 10.8827ZM10.8505 8.54935H45.2089L42.4672 3.06602H13.6505L10.8505 8.54935Z" fill="#2E2E2E"/>
<path id="Vector_4" d="M16.7984 55.0426H39.1984L40.5984 44.0176H15.3984L16.7984 55.0426Z" fill="white"/>
<path id="Vector_5" d="M40.2505 56.2079H15.7505L14.1172 42.8496H41.9422L40.2505 56.2079ZM17.7922 53.8746H38.2089L39.3172 45.1246H16.6839L17.7922 53.8746Z" fill="#2E2E2E"/>
<path id="Vector_6" d="M44.8573 9.7168H11.1406L12.4823 20.7418H43.5156L44.8573 9.7168Z" fill="white"/>
<path id="Vector_7" d="M44.5094 21.9091H11.4927L9.85938 8.55078H46.201L44.5094 21.9091ZM13.5344 19.5758H42.4677L43.576 10.8258H12.426L13.5344 19.5758Z" fill="#2E2E2E"/>
<g id="Group">
<path id="Vector_8" d="M12.4844 20.7402L15.401 44.0152H40.601L43.5177 20.7402H12.4844Z" fill="#F8B602"/>
<path id="Vector_9" d="M41.5909 45.1828H14.4076L11.1992 19.6328H44.7992L41.5909 45.1828ZM16.3909 42.8495H39.5492L42.1742 21.9078H13.8242L16.3909 42.8495Z" fill="#F8B602"/>
</g>
<g id="Group_2">
<path id="Vector_10" d="M28.0029 40.3413C31.5145 40.3413 34.3612 36.7894 34.3612 32.4079C34.3612 28.0265 31.5145 24.4746 28.0029 24.4746C24.4913 24.4746 21.6445 28.0265 21.6445 32.4079C21.6445 36.7894 24.4913 40.3413 28.0029 40.3413Z" fill="white"/>
<path id="Vector_11" d="M28.0016 41.4503C23.8599 41.4503 20.4766 37.3669 20.4766 32.3503C20.4766 27.3336 23.8599 23.3086 28.0016 23.3086C32.1432 23.3086 35.5266 27.3919 35.5266 32.4086C35.5266 37.4253 32.1432 41.4503 28.0016 41.4503ZM28.0016 25.5836C25.1432 25.5836 22.8099 28.6169 22.8099 32.3503C22.8099 36.0836 25.1432 39.1169 28.0016 39.1169C30.8599 39.1169 33.1932 36.0836 33.1932 32.3503C33.1932 28.6169 30.8599 25.5836 28.0016 25.5836Z" fill="#2E2E2E"/>
</g>
<g id="Group_3">
<path id="Vector_12" d="M27.4751 40.5742C26.8334 38.9409 26.7751 37.1909 27.2418 35.4992C27.3584 35.0909 27.5334 34.6825 27.6501 34.3325C27.8251 33.8075 28.0001 33.3409 28.1168 32.9325C28.2334 32.1742 28.1168 31.2992 27.7668 30.4242C27.4168 29.5492 26.8334 28.6742 26.2501 27.8576C25.9001 27.3909 25.6084 26.8659 25.3751 26.2826C25.0834 25.4659 25.0251 24.6492 25.3168 23.9492L27.4751 24.8242C27.4168 24.9992 27.4168 25.2326 27.5334 25.4659C27.6501 25.8159 27.8834 26.1659 28.1751 26.5159C28.8168 27.4492 29.4584 28.4409 29.9251 29.5492C30.4501 30.8325 30.6251 32.1742 30.4501 33.3409C30.3334 34.0409 30.1001 34.6242 29.8668 35.2075C29.7501 35.5575 29.6334 35.8492 29.5168 36.1992C29.1668 37.3659 29.2251 38.6492 29.6918 39.7575L27.4751 40.5742Z" fill="#2E2E2E"/>
</g>
</g>
<defs>
<clipPath id="clip0_1830_18576">
<rect width="56" height="56" fill="white" transform="translate(0 0.5)"/>
</clipPath>
</defs>
</svg>
