<svg width="40" height="40" viewBox="0 0 40 40" fill="none" xmlns="http://www.w3.org/2000/svg">
<path d="M21.0131 14.9996C21.0131 13.3131 21.0094 11.6266 21.0141 9.93912C21.0178 8.68571 21.705 8.00042 22.95 8.00042C25.3237 8.00042 27.6974 7.99948 30.072 8.00042C31.286 8.00042 31.9995 8.70821 32.0004 9.911C32.0013 13.3 32.0013 16.689 32.0004 20.078C32.0004 21.2695 31.3095 21.9801 30.1264 21.9838C27.7208 21.9913 25.3162 21.9904 22.9106 21.9838C21.6825 21.981 21.0188 21.3032 21.015 20.0592C21.0103 18.3727 21.0141 16.6862 21.0141 14.9987L21.0131 14.9996Z" fill="#292929"/>
<path d="M18.987 25.063C18.987 26.7186 18.9898 28.3742 18.987 30.0298C18.9842 31.3198 18.3083 31.9976 17.0324 31.9976C14.6737 31.9976 12.3159 31.9976 9.95722 31.9976C8.70944 31.9976 8.00164 31.2991 8.0007 30.0673C7.99977 26.6783 7.99977 23.2893 8.0007 19.9003C8.0007 18.7369 8.69444 18.0188 9.8466 18.0141C12.2831 18.0057 14.7196 18.0057 17.1561 18.0141C18.298 18.0179 18.9795 18.7107 18.9851 19.8628C18.9936 21.5962 18.987 23.3296 18.988 25.064L18.987 25.063Z" fill="#292929"/>
<path d="M13.521 15.9876C12.3033 15.9876 11.0845 15.9941 9.86675 15.9857C8.70897 15.9772 8.00398 15.2666 8.00211 14.1173C7.9993 12.6961 7.9993 11.2748 8.00211 9.85457C8.00492 8.74084 8.73803 8.00305 9.84707 8.00211C12.2826 7.9993 14.7191 7.9993 17.1547 8.00211C18.2506 8.00398 18.9753 8.71178 18.9847 9.80863C18.9969 11.2767 18.9978 12.7448 18.9847 14.212C18.9753 15.2723 18.2787 15.9707 17.2222 15.9829C15.9885 15.9979 14.7548 15.9866 13.521 15.9866V15.9876Z" fill="#4C4C4C"/>
<path d="M26.4895 24.0108C27.7073 24.0108 28.9251 24.0042 30.1438 24.0127C31.2978 24.0211 31.9972 24.7336 31.999 25.8895C32.0009 27.3107 32.0028 28.7319 31.999 30.1522C31.9962 31.2612 31.2594 31.9944 30.1447 31.9962C27.7091 31.999 25.2726 32 22.8371 31.9962C21.7646 31.9944 21.0287 31.2884 21.0184 30.2263C21.0043 28.7432 21.0043 27.2591 21.0184 25.7761C21.0277 24.7214 21.7299 24.0258 22.7902 24.0145C24.0239 24.0014 25.2576 24.0117 26.4914 24.0108H26.4895Z" fill="#4C4C4C"/>
</svg>
