 <svg width="28" height="28" viewBox="0 0 28 28" fill="none" xmlns="http://www.w3.org/2000/svg">
                          <mask id="path-1-outside-1_1830_3659" maskUnits="userSpaceOnUse" x="0" y="0" width="28" height="28" fill="black">
                            <rect fill="white" width="28" height="28" />
                            <path d="M13.3927 26.9996C10.126 26.9996 6.85935 27.0006 3.5927 26.9996C1.97766 26.9985 1.00152 26.0244 1.00152 24.4114C0.999492 19.8243 0.999492 15.2372 1.00152 10.65C1.00152 9.09391 1.97868 8.03956 3.5216 8.12285C4.85122 8.19497 5.95534 7.8232 7.0818 7.1396C10.2895 5.19444 13.5562 3.34476 16.8005 1.45953C18.2713 0.605284 19.541 0.948608 20.3952 2.43465C21.3968 4.17768 22.3983 5.92172 23.3866 7.67186C23.5461 7.95424 23.731 8.12082 24.0611 8.20309C25.0961 8.46211 25.7655 9.29604 25.794 10.3687C25.8234 11.4677 25.8132 12.5688 25.8041 13.6688C25.8021 13.9461 25.861 14.1249 26.1291 14.2742C26.7234 14.6064 26.9986 15.1488 26.9996 15.8293C26.9996 16.9629 26.9986 18.0975 26.9996 19.2311C27.0007 19.9309 26.701 20.45 26.121 20.8461C25.9656 20.9528 25.8275 21.2027 25.8224 21.3916C25.7929 22.3891 25.8132 23.3886 25.8072 24.387C25.797 26.0508 24.8483 26.9955 23.1926 26.9955C19.926 26.9965 16.6593 26.9955 13.3927 26.9955V26.9996ZM24.6482 14.001C24.6482 12.8542 24.6512 11.7897 24.6482 10.7262C24.6441 9.71047 24.2114 9.26963 23.1916 9.26963C16.6756 9.26557 10.1585 9.26659 3.64247 9.26963C2.60844 9.26963 2.19401 9.68914 2.19401 10.7171C2.19198 15.2697 2.19198 19.8233 2.19401 24.3759C2.19401 25.4211 2.58609 25.806 3.64349 25.8081C5.91166 25.8111 8.17983 25.8081 10.448 25.8081C14.7131 25.8081 18.9783 25.8101 23.2434 25.8071C24.2033 25.8071 24.637 25.3693 24.6482 24.4145C24.6533 23.9574 24.6482 23.5003 24.6482 23.0432C24.6482 22.4063 24.6482 21.7695 24.6482 21.1001C23.4405 21.1001 22.3079 21.1082 21.1763 21.098C20.0306 21.0879 19.0524 20.6755 18.3404 19.7644C17.4485 18.6257 17.2789 17.354 17.8934 16.0477C18.5171 14.7222 19.6202 14.0406 21.087 14.0061C22.251 13.9786 23.4161 14.001 24.6492 14.001H24.6482ZM23.0413 19.8964C23.0413 19.8964 23.0413 19.8995 23.0413 19.9005C23.734 19.9005 24.4268 19.8984 25.1195 19.9005C25.5776 19.9015 25.8061 19.675 25.8072 19.2179C25.8072 18.1026 25.8072 16.9873 25.8072 15.872C25.8072 15.4109 25.5735 15.1915 25.1175 15.1925C23.732 15.1965 22.3455 15.1722 20.961 15.2118C19.6842 15.2483 18.7294 16.2996 18.7446 17.5714C18.7589 18.841 19.736 19.8517 21.0138 19.8913C21.6893 19.9127 22.3658 19.8954 23.0413 19.8954V19.8964ZM19.1936 2.78204C18.7253 2.12586 18.1961 2.01616 17.5004 2.42043C14.3881 4.22846 11.2779 6.04056 8.16866 7.85368C8.0813 7.90446 8.01122 7.98268 7.87104 8.09949C8.48862 8.09949 9.01478 8.13199 9.53586 8.08831C9.8741 8.05987 10.2398 7.98471 10.5293 7.81914C12.9346 6.4428 15.3256 5.04106 17.7198 3.64644C18.2104 3.36 18.7 3.07153 19.1936 2.78204ZM12.6227 7.98471C13.7126 8.07409 14.7395 8.22849 15.7431 7.55708C17.2281 6.56367 18.8218 5.73076 20.3942 4.81557C20.1951 4.46818 20.0143 4.15127 19.8112 3.79779C17.3876 5.20968 15.0057 6.59719 12.6227 7.98572V7.98471ZM20.9823 5.84046C19.7259 6.57383 18.5141 7.28181 17.1855 8.05683H22.25C21.8173 7.30009 21.4171 6.60024 20.9823 5.84046Z" />
                          </mask>
                          <path d="M13.3927 26.9996C10.126 26.9996 6.85935 27.0006 3.5927 26.9996C1.97766 26.9985 1.00152 26.0244 1.00152 24.4114C0.999492 19.8243 0.999492 15.2372 1.00152 10.65C1.00152 9.09391 1.97868 8.03956 3.5216 8.12285C4.85122 8.19497 5.95534 7.8232 7.0818 7.1396C10.2895 5.19444 13.5562 3.34476 16.8005 1.45953C18.2713 0.605284 19.541 0.948608 20.3952 2.43465C21.3968 4.17768 22.3983 5.92172 23.3866 7.67186C23.5461 7.95424 23.731 8.12082 24.0611 8.20309C25.0961 8.46211 25.7655 9.29604 25.794 10.3687C25.8234 11.4677 25.8132 12.5688 25.8041 13.6688C25.8021 13.9461 25.861 14.1249 26.1291 14.2742C26.7234 14.6064 26.9986 15.1488 26.9996 15.8293C26.9996 16.9629 26.9986 18.0975 26.9996 19.2311C27.0007 19.9309 26.701 20.45 26.121 20.8461C25.9656 20.9528 25.8275 21.2027 25.8224 21.3916C25.7929 22.3891 25.8132 23.3886 25.8072 24.387C25.797 26.0508 24.8483 26.9955 23.1926 26.9955C19.926 26.9965 16.6593 26.9955 13.3927 26.9955V26.9996ZM24.6482 14.001C24.6482 12.8542 24.6512 11.7897 24.6482 10.7262C24.6441 9.71047 24.2114 9.26963 23.1916 9.26963C16.6756 9.26557 10.1585 9.26659 3.64247 9.26963C2.60844 9.26963 2.19401 9.68914 2.19401 10.7171C2.19198 15.2697 2.19198 19.8233 2.19401 24.3759C2.19401 25.4211 2.58609 25.806 3.64349 25.8081C5.91166 25.8111 8.17983 25.8081 10.448 25.8081C14.7131 25.8081 18.9783 25.8101 23.2434 25.8071C24.2033 25.8071 24.637 25.3693 24.6482 24.4145C24.6533 23.9574 24.6482 23.5003 24.6482 23.0432C24.6482 22.4063 24.6482 21.7695 24.6482 21.1001C23.4405 21.1001 22.3079 21.1082 21.1763 21.098C20.0306 21.0879 19.0524 20.6755 18.3404 19.7644C17.4485 18.6257 17.2789 17.354 17.8934 16.0477C18.5171 14.7222 19.6202 14.0406 21.087 14.0061C22.251 13.9786 23.4161 14.001 24.6492 14.001H24.6482ZM23.0413 19.8964C23.0413 19.8964 23.0413 19.8995 23.0413 19.9005C23.734 19.9005 24.4268 19.8984 25.1195 19.9005C25.5776 19.9015 25.8061 19.675 25.8072 19.2179C25.8072 18.1026 25.8072 16.9873 25.8072 15.872C25.8072 15.4109 25.5735 15.1915 25.1175 15.1925C23.732 15.1965 22.3455 15.1722 20.961 15.2118C19.6842 15.2483 18.7294 16.2996 18.7446 17.5714C18.7589 18.841 19.736 19.8517 21.0138 19.8913C21.6893 19.9127 22.3658 19.8954 23.0413 19.8954V19.8964ZM19.1936 2.78204C18.7253 2.12586 18.1961 2.01616 17.5004 2.42043C14.3881 4.22846 11.2779 6.04056 8.16866 7.85368C8.0813 7.90446 8.01122 7.98268 7.87104 8.09949C8.48862 8.09949 9.01478 8.13199 9.53586 8.08831C9.8741 8.05987 10.2398 7.98471 10.5293 7.81914C12.9346 6.4428 15.3256 5.04106 17.7198 3.64644C18.2104 3.36 18.7 3.07153 19.1936 2.78204ZM12.6227 7.98471C13.7126 8.07409 14.7395 8.22849 15.7431 7.55708C17.2281 6.56367 18.8218 5.73076 20.3942 4.81557C20.1951 4.46818 20.0143 4.15127 19.8112 3.79779C17.3876 5.20968 15.0057 6.59719 12.6227 7.98572V7.98471ZM20.9823 5.84046C19.7259 6.57383 18.5141 7.28181 17.1855 8.05683H22.25C21.8173 7.30009 21.4171 6.60024 20.9823 5.84046Z" fill="black" />
                          <path d="M13.3927 26.9996C10.126 26.9996 6.85935 27.0006 3.5927 26.9996C1.97766 26.9985 1.00152 26.0244 1.00152 24.4114C0.999492 19.8243 0.999492 15.2372 1.00152 10.65C1.00152 9.09391 1.97868 8.03956 3.5216 8.12285C4.85122 8.19497 5.95534 7.8232 7.0818 7.1396C10.2895 5.19444 13.5562 3.34476 16.8005 1.45953C18.2713 0.605284 19.541 0.948608 20.3952 2.43465C21.3968 4.17768 22.3983 5.92172 23.3866 7.67186C23.5461 7.95424 23.731 8.12082 24.0611 8.20309C25.0961 8.46211 25.7655 9.29604 25.794 10.3687C25.8234 11.4677 25.8132 12.5688 25.8041 13.6688C25.8021 13.9461 25.861 14.1249 26.1291 14.2742C26.7234 14.6064 26.9986 15.1488 26.9996 15.8293C26.9996 16.9629 26.9986 18.0975 26.9996 19.2311C27.0007 19.9309 26.701 20.45 26.121 20.8461C25.9656 20.9528 25.8275 21.2027 25.8224 21.3916C25.7929 22.3891 25.8132 23.3886 25.8072 24.387C25.797 26.0508 24.8483 26.9955 23.1926 26.9955C19.926 26.9965 16.6593 26.9955 13.3927 26.9955V26.9996ZM24.6482 14.001C24.6482 12.8542 24.6512 11.7897 24.6482 10.7262C24.6441 9.71047 24.2114 9.26963 23.1916 9.26963C16.6756 9.26557 10.1585 9.26659 3.64247 9.26963C2.60844 9.26963 2.19401 9.68914 2.19401 10.7171C2.19198 15.2697 2.19198 19.8233 2.19401 24.3759C2.19401 25.4211 2.58609 25.806 3.64349 25.8081C5.91166 25.8111 8.17983 25.8081 10.448 25.8081C14.7131 25.8081 18.9783 25.8101 23.2434 25.8071C24.2033 25.8071 24.637 25.3693 24.6482 24.4145C24.6533 23.9574 24.6482 23.5003 24.6482 23.0432C24.6482 22.4063 24.6482 21.7695 24.6482 21.1001C23.4405 21.1001 22.3079 21.1082 21.1763 21.098C20.0306 21.0879 19.0524 20.6755 18.3404 19.7644C17.4485 18.6257 17.2789 17.354 17.8934 16.0477C18.5171 14.7222 19.6202 14.0406 21.087 14.0061C22.251 13.9786 23.4161 14.001 24.6492 14.001H24.6482ZM23.0413 19.8964C23.0413 19.8964 23.0413 19.8995 23.0413 19.9005C23.734 19.9005 24.4268 19.8984 25.1195 19.9005C25.5776 19.9015 25.8061 19.675 25.8072 19.2179C25.8072 18.1026 25.8072 16.9873 25.8072 15.872C25.8072 15.4109 25.5735 15.1915 25.1175 15.1925C23.732 15.1965 22.3455 15.1722 20.961 15.2118C19.6842 15.2483 18.7294 16.2996 18.7446 17.5714C18.7589 18.841 19.736 19.8517 21.0138 19.8913C21.6893 19.9127 22.3658 19.8954 23.0413 19.8954V19.8964ZM19.1936 2.78204C18.7253 2.12586 18.1961 2.01616 17.5004 2.42043C14.3881 4.22846 11.2779 6.04056 8.16866 7.85368C8.0813 7.90446 8.01122 7.98268 7.87104 8.09949C8.48862 8.09949 9.01478 8.13199 9.53586 8.08831C9.8741 8.05987 10.2398 7.98471 10.5293 7.81914C12.9346 6.4428 15.3256 5.04106 17.7198 3.64644C18.2104 3.36 18.7 3.07153 19.1936 2.78204ZM12.6227 7.98471C13.7126 8.07409 14.7395 8.22849 15.7431 7.55708C17.2281 6.56367 18.8218 5.73076 20.3942 4.81557C20.1951 4.46818 20.0143 4.15127 19.8112 3.79779C17.3876 5.20968 15.0057 6.59719 12.6227 7.98572V7.98471ZM20.9823 5.84046C19.7259 6.57383 18.5141 7.28181 17.1855 8.05683H22.25C21.8173 7.30009 21.4171 6.60024 20.9823 5.84046Z" stroke="black" stroke-width="0.6" mask="url(#path-1-outside-1_1830_3659)" />
                          <path d="M22.4971 17.4998C22.5083 18.1712 21.9923 18.6984 21.3269 18.6964C20.6901 18.6933 20.1619 18.1784 20.1487 17.5455C20.1355 16.9117 20.6992 16.3378 21.334 16.3398C21.9699 16.3419 22.4869 16.8569 22.4971 17.5009V17.4998Z" fill="black" />
                        </svg>