<svg width="19" height="19" viewBox="0 0 19 19" fill="none" xmlns="http://www.w3.org/2000/svg">
<g clip-path="url(#clip0_2866_26893)">
<path d="M-8.08661e-07 9.25C-3.61202e-07 14.3683 4.1317 18.5 9.25 18.5C14.3683 18.5 18.5 14.3683 18.5 9.25C18.5 4.1317 14.3683 3.61202e-07 9.25 8.08661e-07C4.1317 1.25612e-06 -1.25612e-06 4.1317 -8.08661e-07 9.25ZM9.86667 5.4883L9.86667 11.1617L11.47 9.74333C11.84 9.435 12.3333 9.49667 12.6417 9.805C12.765 9.99 12.8267 10.175 12.8267 10.36C12.8267 10.6067 12.7033 10.8533 12.5183 10.9767L9.55833 13.5667C9.49667 13.6283 9.435 13.6283 9.37333 13.69C9.31167 13.69 9.31167 13.69 9.25 13.7517C9.18833 13.7517 9.18833 13.7517 9.12667 13.7517L9.065 13.7517C9.00333 13.7517 9.00333 13.7517 8.94167 13.7517L8.88 13.7517C8.81833 13.7517 8.81833 13.7517 8.75667 13.69C8.75667 13.69 8.695 13.69 8.695 13.6283L8.63333 13.5667C8.63333 13.5667 8.63333 13.5667 8.57167 13.505L5.9817 10.8533C5.6733 10.545 5.6733 9.99 5.9817 9.68167C6.29 9.37333 6.845 9.37333 7.1533 9.68167L8.325 10.915L8.325 5.4267C8.325 4.995 8.695 4.5633 9.18833 4.5633C9.49667 4.6867 9.86667 5.0567 9.86667 5.4883Z" fill="#FFC00B"/>
</g>
<defs>
<clipPath id="clip0_2866_26893">
<rect width="19" height="19" fill="white"/>
</clipPath>
</defs>
</svg>
