<svg width="40" height="40" viewBox="0 0 40 40" fill="none"
                                         xmlns="http://www.w3.org/2000/svg">
                                        <path
                                            d="M22.6688 4.00003C26.9092 3.98845 30.3787 7.43589 30.3914 11.6741C30.404 15.906 26.9587 19.3756 22.7152 19.4051C18.498 19.4346 14.9968 15.9471 15 11.7226C15.0032 7.45801 18.4253 4.01161 22.6688 4.00003Z"
                                            fill="#FFC00B" />
                                        <path class="menu-hover-path-icon"
                                              d="M23.064 12.928H20.964C21.124 13.448 21.388 13.848 21.756 14.128C22.124 14.408 22.552 14.548 23.04 14.548C23.856 14.548 24.492 14.172 24.948 13.42L26.532 14.2C26.18 14.816 25.692 15.296 25.068 15.64C24.452 15.976 23.752 16.144 22.968 16.144C21.936 16.144 21.064 15.856 20.352 15.28C19.648 14.704 19.192 13.92 18.984 12.928H18.216V12.172H18.888C18.88 12.092 18.876 11.968 18.876 11.8C18.876 11.64 18.88 11.52 18.888 11.44H18.216V10.684H18.984C19.184 9.692 19.636 8.908 20.34 8.332C21.052 7.748 21.928 7.456 22.968 7.456C23.752 7.456 24.452 7.628 25.068 7.972C25.692 8.308 26.18 8.784 26.532 9.4L24.948 10.18C24.492 9.428 23.856 9.052 23.04 9.052C22.552 9.052 22.12 9.196 21.744 9.484C21.376 9.764 21.112 10.164 20.952 10.684H23.724L23.508 11.44H20.82C20.812 11.52 20.808 11.64 20.808 11.8C20.808 11.968 20.812 12.092 20.82 12.172H23.292C23.236 12.34 23.16 12.592 23.064 12.928Z"
                                              fill="white" />
                                        <path
                                            d="M20.2127 31.126C19.0252 31.126 17.8376 31.1123 16.6513 31.1335C16.2763 31.1398 16.0575 31.0373 15.8625 30.6935C14.7687 28.7572 13.6499 26.8334 12.5249 24.9145C12.3474 24.612 12.3261 24.3757 12.5186 24.0682C14.3675 21.1131 18.8727 19.673 22.0978 22.5832C22.2878 22.7544 22.6041 22.8569 22.8654 22.8644C23.8641 22.8969 24.8642 22.8732 25.8642 22.8794C26.773 22.8857 27.3155 23.3732 27.3018 24.1557C27.288 24.9158 26.7643 25.367 25.873 25.3695C24.4154 25.3745 22.9566 25.3683 21.499 25.372C20.769 25.3745 20.3527 25.7221 20.3565 26.3121C20.3602 26.8946 20.784 27.2459 21.5115 27.2484C22.9066 27.2534 24.3029 27.2484 25.698 27.2496C26.4943 27.2496 27.203 27.0084 27.8481 26.5383C29.6144 25.252 31.387 23.9745 33.1646 22.7032C33.4133 22.5244 33.6896 22.3457 33.9796 22.2706C34.5796 22.1169 35.1584 22.4369 35.4209 22.9932C35.6809 23.5457 35.5697 24.157 35.0459 24.562C34.1071 25.287 33.1396 25.9733 32.1783 26.6683C30.847 27.6321 29.5182 28.5997 28.1756 29.5472C26.6343 30.6348 24.9242 31.1848 23.0241 31.1298C22.0878 31.1035 21.149 31.1248 20.2115 31.1248L20.2127 31.126Z"
                                            fill="#FFD258" />
                                        <path
                                            d="M9.39683 23.8192C9.61809 24.0142 9.9306 24.1792 10.0831 24.4392C11.5682 26.9644 13.0307 29.5032 14.4871 32.0446C14.8183 32.6221 14.6883 33.0521 14.0933 33.4021C12.7132 34.2122 11.3282 35.0135 9.93686 35.8023C9.31308 36.156 8.90181 36.041 8.53304 35.406C7.08173 32.9084 5.64041 30.4058 4.20285 27.9006C3.85533 27.2956 3.95158 26.8506 4.51286 26.5193C5.92667 25.6855 7.35174 24.8705 8.7768 24.0555C8.93556 23.9655 9.12057 23.923 9.39683 23.8192Z"
                                            fill="#FFD258" />
                                    </svg>