<svg xmlns="http://www.w3.org/2000/svg" viewBox="0 0 240 240">
        <path d="M58.57 25.81c-2.13-3.67-.87-8.38 2.8-10.51a7.688 7.688 0 0 1 10.51 2.8l9.88 17.1c2.13 3.67.87 8.38-2.8 10.51a7.688 7.688 0 0 1-10.51-2.8l-9.88-17.1zM120 51.17c19.01 0 36.21 7.7 48.67 20.16C181.12 83.79 188.83 101 188.83 120c0 19.01-7.7 36.21-20.16 48.67s-29.66 20.16-48.67 20.16-36.21-7.7-48.67-20.16C58.88 156.21 51.17 139.01 51.17 120s7.7-36.21 20.16-48.67C83.79 58.88 101 51.17 120 51.17zm38.27 30.56c-9.79-9.79-23.32-15.85-38.27-15.85-14.95 0-28.48 6.06-38.27 15.85-9.79 9.79-15.85 23.32-15.85 38.27 0 14.95 6.06 28.48 15.85 38.27 9.79 9.79 23.32 15.85 38.27 15.85 14.95 0 28.48-6.06 38.27-15.85 9.79-9.79 15.85-23.32 15.85-38.27 0-14.95-6.06-28.48-15.85-38.27zM113.88 7.71c0-4.26 3.45-7.71 7.71-7.71s7.71 3.45 7.71 7.71v19.75c0 4.26-3.45 7.71-7.71 7.71s-7.71-3.45-7.71-7.71V7.71zm56.99 12.01c2.11-3.67 6.8-4.94 10.48-2.83 3.67 2.11 4.94 6.8 2.83 10.48l-9.88 17.1c-2.11 3.67-6.8 4.94-10.48 2.83-3.67-2.11-4.94-6.8-2.83-10.48l9.88-17.1zm43.32 38.85c3.67-2.13 8.38-.87 10.51 2.8 2.13 3.67.88 8.38-2.8 10.51l-17.1 9.88c-3.67 2.13-8.38.87-10.51-2.8a7.688 7.688 0 0 1 2.8-10.51l17.1-9.88zm18.1 55.31c4.26 0 7.71 3.45 7.71 7.71s-3.45 7.71-7.71 7.71h-19.75c-4.26 0-7.71-3.45-7.71-7.71s3.45-7.71 7.71-7.71h19.75zm-12.01 56.99c3.67 2.11 4.94 6.8 2.83 10.48-2.11 3.67-6.8 4.94-10.48 2.83l-17.1-9.88c-3.67-2.11-4.94-6.8-2.83-10.48 2.11-3.67 6.8-4.94 10.48-2.83l17.1 9.88zm-38.85 43.32c2.13 3.67.87 8.38-2.8 10.51a7.688 7.688 0 0 1-10.51-2.8l-9.88-17.1c-2.13-3.67-.87-8.38 2.8-10.51a7.688 7.688 0 0 1 10.51 2.8l9.88 17.1zm-55.31 18.1c0 4.26-3.45 7.71-7.71 7.71s-7.71-3.45-7.71-7.71v-19.75c0-4.26 3.45-7.71 7.71-7.71s7.71 3.45 7.71 7.71v19.75zm-56.99-12.01c-2.11 3.67-6.8 4.94-10.48 2.83-3.67-2.11-4.94-6.8-2.83-10.48l9.88-17.1c2.11-3.67 6.8-4.94 10.48-2.83 3.67 2.11 4.94 6.8 2.83 10.48l-9.88 17.1zm-43.32-38.85c-3.67 2.13-8.38.87-10.51-2.8a7.688 7.688 0 0 1 2.8-10.51l17.1-9.88c3.67-2.13 8.38-.87 10.51 2.8 2.13 3.67.88 8.38-2.8 10.51l-17.1 9.88zm-18.1-55.31c-4.26 0-7.71-3.45-7.71-7.71s3.45-7.71 7.71-7.71h19.75c4.26 0 7.71 3.45 7.71 7.71s-3.45 7.71-7.71 7.71H7.71zm12.01-56.99c-3.67-2.11-4.94-6.8-2.83-10.48 2.11-3.67 6.8-4.94 10.48-2.83l17.1 9.88c3.67 2.11 4.94 6.8 2.83 10.48-2.11 3.67-6.8 4.94-10.48 2.83l-17.1-9.88z"></path>
    </svg>