<svg width="11" height="16" viewBox="0 0 11 16" fill="none" xmlns="http://www.w3.org/2000/svg">
<g id="Group 1586">
<path id="Vector" d="M4.88329 0.818091L4.88281 0.818146C2.67393 1.06755 0.789284 3.19026 0.750682 5.56874L4.88329 0.818091ZM4.88329 0.818091C5.03048 0.801376 5.17206 0.787392 5.31954 0.772826C5.39235 0.765635 5.46659 0.758302 5.54366 0.750428C7.89256 0.787268 9.92642 2.65903 10.2157 5.12561C10.3598 6.35564 10.0363 7.49786 9.488 8.68811C8.69952 10.3988 7.59838 11.91 6.35555 13.3674L6.35532 13.3676C6.11597 13.6486 5.8766 13.9069 5.6257 14.1776C5.58395 14.2227 5.54188 14.2681 5.49944 14.314C3.90986 12.6044 2.51494 10.7947 1.52327 8.69385L1.52319 8.69367M4.88329 0.818091L1.52319 8.69367M1.52319 8.69367C1.03821 7.66693 0.733675 6.65062 0.750677 5.56903L1.52319 8.69367ZM5.17087 14.673C5.17055 14.6734 5.17023 14.6737 5.1699 14.6741L5.17087 14.673Z" stroke="#FFC00B" stroke-width="1.5"/>
<circle id="Ellipse 88" cx="5.69922" cy="6" r="2" stroke="#FFC00B"/>
</g>
</svg>
