<svg width="12" height="17" viewBox="0 0 12 17" fill="none" xmlns="http://www.w3.org/2000/svg">
<path id="Vector" d="M7.1724 15.0681L7.17255 15.068C8.53784 13.4378 9.76013 11.7328 10.6381 9.79333L7.1724 15.0681ZM7.1724 15.0681C6.90766 15.3845 6.63803 15.6809 6.36056 15.9858C6.2424 16.1157 6.12282 16.2471 6.00159 16.3823C4.15985 14.3964 2.52555 12.2833 1.37548 9.80241L1.37543 9.8023M7.1724 15.0681L1.37543 9.8023M1.37543 9.8023C0.833543 8.63416 0.481121 7.45213 0.500783 6.18053L1.37543 9.8023ZM5.29234 0.577647L5.29201 0.577685C2.71908 0.873484 0.545425 3.37479 0.500786 6.18033L5.29234 0.577647ZM5.29234 0.577647C5.45477 0.558864 5.61344 0.542901 5.77618 0.526529C5.86066 0.51803 5.94622 0.509422 6.03398 0.500252M5.29234 0.577647L6.03398 0.500252M6.03398 0.500252C8.76545 0.533993 11.1252 2.74419 11.4604 5.65381C11.6277 7.10868 11.2484 8.4443 10.6381 9.79325L6.03398 0.500252ZM6.15262 16.543C6.15262 16.5431 6.15178 16.5424 6.15008 16.5409C6.15176 16.5422 6.15261 16.5429 6.15262 16.543ZM2.75283 6.36205C2.74419 8.22762 4.16729 9.80177 5.99448 9.80998C7.80065 9.81715 9.25058 8.2564 9.25637 6.41637L9.25637 6.41634C9.26212 4.54921 7.83945 2.97237 6.0136 2.96918C4.20408 2.966 2.76151 4.5191 2.75283 6.36201V6.36205Z" stroke="#FFC00B"/>
</svg>
