<svg width="17" height="22" viewBox="0 0 17 22" fill="none" xmlns="http://www.w3.org/2000/svg">
<g id="Frame 2716">
<path id="Vector" d="M10.2503 18.7997L10.2505 18.7995C12.0996 16.7615 13.7525 14.6325 14.9389 12.2132L10.2503 18.7997ZM10.2503 18.7997C9.89191 19.1951 9.52696 19.5653 9.15129 19.9465C8.97918 20.1211 8.80483 20.298 8.62783 20.4806M10.2503 18.7997L8.62783 20.4806M8.62783 20.4806C6.11741 17.9863 3.89188 15.3358 2.32921 12.2242L2.32913 12.224C1.59692 10.767 1.1247 9.30029 1.15105 7.72691L8.62783 20.4806ZM7.65792 0.747524L7.65753 0.747566C4.12135 1.12283 1.2106 4.27339 1.15105 7.72664L7.65792 0.747524ZM7.65792 0.747524C7.87834 0.723996 8.09427 0.703943 8.31511 0.683434C8.43077 0.672692 8.54777 0.661826 8.66747 0.65027M7.65792 0.747524L8.66747 0.65027M8.66747 0.65027C12.4246 0.690773 15.599 3.48673 16.0469 7.07623C16.2709 8.87439 15.7641 10.5297 14.939 12.2131L8.66747 0.65027ZM8.46567 20.6461C8.46568 20.646 8.46695 20.6449 8.46949 20.6431C8.46694 20.6453 8.46567 20.6462 8.46567 20.6461ZM8.79145 20.6413C8.79265 20.6421 8.79327 20.6426 8.79328 20.6427C8.79329 20.6427 8.79268 20.6423 8.79145 20.6413ZM4.25488 7.95219C4.24286 10.3462 6.20835 12.2775 8.61784 12.2875C10.9985 12.2962 12.9995 10.3825 13.0076 8.02071L13.0076 8.02066C13.0156 5.62466 11.0508 3.69036 8.64328 3.68647C6.25776 3.6826 4.26694 5.58701 4.25488 7.95214L4.25488 7.95219Z" stroke="#FFC00B" stroke-width="1.3"/>
</g>
</svg>
