<svg width="18" height="18" viewBox="0 0 18 18" fill="none" xmlns="http://www.w3.org/2000/svg">
  <g fill="#292929">
    <path d="M13.473 4.034a6.52 6.52 0 0 0-3.218-1.57c-1.45-.27-2.845-.065-4.171.567-.346.165-.657.405-.983.611-.017.011-.026.034-.064.085.315 0 .599-.004.882.001.116.002.237.004.347.035.392.11.642.5.582.887a.8.8 0 0 1-.802.693c-.996.002-1.992.002-2.987 0-.482-.002-.84-.347-.842-.827-.005-.984-.005-1.968 0-2.952.003-.44.322-.798.712-.824.511-.034.839.215.903.716.034.26.025.525.034.788.003.074 0 .149 0 .267.09-.053.144-.08.191-.116A8.14 8.14 0 0 1 8.207.772c2.19-.214 4.164.362 5.904 1.695 1.758 1.347 2.782 3.147 3.14 5.325.07.43.115.872.107 1.308a8.15 8.15 0 0 1-.646 3.107c-.385.893-.88 1.713-1.548 2.43-1.373 1.472-3.048 2.358-5.045 2.629-1.534.208-3.006-.017-4.424-.634a8.107 8.107 0 0 1-2.896-2.118C1.727 13.29 1.047 11.865.82 10.245a8.076 8.076 0 0 1-.073-1.342c.011-.386.346-.66.73-.675.426-.017.771.224.839.615.045.258.055.523.071.785.064 1.059.414 2.022.972 2.916.68 1.088 1.578 1.938 2.741 2.493 1.044.498 2.143.746 3.301.673 1.476-.093 2.793-.598 3.927-1.559.93-.789 1.634-1.74 2.025-2.9a7.042 7.042 0 0 0 .367-2.082c.022-.873-.106-1.717-.43-2.525a6.84 6.84 0 0 0-1.707-2.502c-.035-.032-.067-.066-.109-.108Z"/>
    <path d="M9.032 11.712c.544.184 1.083.181 1.623.065.123-.026.173.007.202.118.08.3.157.6.245.897.043.148-.01.212-.15.25a4.042 4.042 0 0 1-1.39.134 4.016 4.016 0 0 1-1.55-.415c-.928-.476-1.52-1.219-1.79-2.223-.082-.307-.08-.308-.397-.308-.44-.001-.41.032-.41-.408 0-.363 0-.358.364-.37.085-.002.233-.035.24-.075a1.19 1.19 0 0 0-.012-.428c-.005-.03-.132-.052-.203-.053-.41-.005-.39.026-.39-.396 0-.047.004-.094 0-.14-.011-.153.062-.207.21-.207.162 0 .367.038.474-.045.107-.082.114-.292.168-.445.453-1.306 1.363-2.103 2.709-2.384a4.235 4.235 0 0 1 1.982.05c.15.041.187.1.143.247-.089.297-.165.598-.243.898-.03.12-.085.148-.213.117-.858-.205-1.653-.077-2.34.503-.283.238-.466.553-.59.9-.058.16.048.161.157.161h1.792c.058 0 .117.003.175.001.126-.004.184.054.18.18-.002.117-.004.234.002.351.008.15-.058.209-.208.208-.591-.004-1.183-.002-1.775-.001-.117 0-.234.002-.35.001-.11 0-.154.054-.163.162-.031.375-.012.4.366.4h1.897c.212 0 .229.02.232.234.001.111-.005.223.001.334.008.152-.062.207-.21.206-.627-.004-1.253-.002-1.88-.001-.251 0-.27.027-.17.258.252.579.648 1.01 1.272 1.224Z"/>
  </g>
</svg>
