<svg width="22" height="19" viewBox="0 0 22 19" fill="none" xmlns="http://www.w3.org/2000/svg">
  <path fill-rule="evenodd" clip-rule="evenodd" d="M14.265.258c-.406.055-.749.24-1.046.565a1.79 1.79 0 0 0-.438.812c-.063.278-.063 5.58 0 5.834.024.093.033.178.021.189a.923.923 0 0 1-.154.07 1.99 1.99 0 0 0-.677.5 1.989 1.989 0 0 0-.366.733c-.057.248-.06 1.95-.003 2.084.02.05.104.176.186.28.293.376.524.872.626 1.35.082.38.063.998-.042 1.357a3.755 3.755 0 0 1-.388.882l-.123.205H8.98l.022-.345c.012-.19.017-1.738.012-3.441-.009-3.036-.01-3.102-.067-3.358a6.418 6.418 0 0 0-.118-.45 4.14 4.14 0 0 0-.466-.926l-.129-.175.797-.009.797-.009.132-.08c.343-.207.41-.678.135-.954-.19-.19-.193-.19-1.301-.19h-.996l-.012-.458c-.01-.405-.02-.483-.087-.683a2.123 2.123 0 0 0-1.37-1.367c-.175-.059-.253-.065-.938-.076-.833-.013-.897-.003-1.068.168-.188.19-.18.115-.188 1.67C4.126 5.96 4.129 6 4.27 6.179c.132.164.268.22.576.235.146.008.267.021.267.031 0 .01-.193.861-.43 1.893l-.43 1.875-.274.049c-1.483.265-2.75 1.36-3.267 2.823-.199.562-.295 1.27-.247 1.813.015.16.017.415.006.566-.071.963.23 1.826.87 2.499.533.56 1.156.87 1.923.957a2.947 2.947 0 0 0 1.684-.326c.83-.43 1.41-1.177 1.64-2.117l.03-.12h6.167l.046.177c.217.828.765 1.53 1.501 1.923.465.249.866.35 1.39.35.796 0 1.485-.284 2.058-.849.4-.394.675-.855.813-1.366l.062-.23.629-.011c.55-.01.65-.02.806-.072a1.75 1.75 0 0 0 .98-.844c.222-.442.245-.811.09-1.456-.314-1.297-.913-2.269-1.844-2.988a40.264 40.264 0 0 1-.286-.222.84.84 0 0 1 .09-.167c.228-.366.326-.872.266-1.371a3.853 3.853 0 0 0-.048-.322c-.016-.056-.004-.06.21-.077.509-.04.851-.196 1.186-.54.223-.228.337-.412.458-.738l.06-.163.008-2.758c.009-3.1.016-2.97-.192-3.4a1.867 1.867 0 0 0-.76-.787c-.428-.215-.222-.201-3.197-.208-1.466-.003-2.747.006-2.847.02Zm.049 1.249a.679.679 0 0 0-.2.132c-.17.168-.183.217-.195.72l-.01.458h6.155v-.452c0-.391-.007-.465-.053-.558a.646.646 0 0 0-.35-.312c-.068-.02-.96-.029-2.672-.028-2.114 0-2.588.008-2.675.04ZM5.332 4.503v.679h1.257v-.333c0-.23-.013-.374-.043-.463a.93.93 0 0 0-.404-.464c-.125-.067-.178-.077-.475-.086l-.335-.012v.679Zm8.588 1.122c.007 1.414.012 1.578.054 1.657a.668.668 0 0 0 .343.29c.144.042 5.202.042 5.346 0a.635.635 0 0 0 .209-.127c.2-.186.192-.108.192-1.838V4.055h-6.152l.008 1.57ZM5.909 8.37c-.231 1.01-.422 1.848-.424 1.862-.001.015.053.038.12.051.675.136 1.48.558 1.975 1.034.113.11.214.198.224.198.01 0 .014-.719.009-1.597-.01-1.546-.012-1.605-.07-1.821a2.33 2.33 0 0 0-1.125-1.45 1.363 1.363 0 0 0-.252-.114c-.026 0-.158.53-.457 1.837Zm7.125.529a.574.574 0 0 0-.265.35c-.016.062-.03.3-.03.528v.415h5.045l.121-.063a.627.627 0 0 0 .202-.183c.07-.102.082-.15.093-.351.019-.377-.066-.577-.298-.699-.101-.053-.175-.055-2.436-.054-2.258.002-2.334.003-2.432.057Zm-8.918 2.588c-.537.12-.993.351-1.41.717-.16.14-.451.475-.525.6" fill="#292929"/>
</svg>
