<svg width="22" height="19" viewBox="0 0 22 19" fill="none" xmlns="http://www.w3.org/2000/svg">
  <path fill-rule="evenodd" clip-rule="evenodd" d="M14.31.398c-.776.159-1.334.771-1.432 1.573-.015.127-.021 1.151-.016 2.755.009 2.663.004 2.549.102 2.856.014.042.009.055-.022.055-.067 0-.286.101-.46.212-.324.206-.577.53-.702.9-.09.265-.113.578-.104 1.37.01.826-.003.776.293 1.156.801 1.03.852 2.356.132 3.472l-.108.166h-2.9l.017-.203c.028-.34.024-6.182-.004-6.451a3.46 3.46 0 0 0-.65-1.695l-.111-.148.794-.012c.656-.01.809-.02.88-.052a.613.613 0 0 0 .34-.743.725.725 0 0 0-.135-.217c-.177-.196-.182-.197-1.332-.197h-.994v-.343c0-.195-.015-.423-.035-.527a2.058 2.058 0 0 0-1.267-1.519c-.338-.129-.426-.14-1.214-.14-.7 0-.732.003-.828.055a.856.856 0 0 0-.19.152c-.164.182-.166.202-.166 1.656s.002 1.474.166 1.656c.15.165.25.203.568.214.152.006.277.012.277.014l-.44 1.851-.437 1.849-.332.066a4.245 4.245 0 0 0-2.263 1.21 4.33 4.33 0 0 0-1.178 2.304c-.043.245-.061.835-.038 1.208.006.095.002.306-.009.469a3.073 3.073 0 0 0 .348 1.597 3.258 3.258 0 0 0 1.377 1.356 3.146 3.146 0 0 0 2.365.175c.763-.24 1.472-.848 1.836-1.575.075-.152.203-.505.251-.696l.027-.105h6.213l.014.068c.037.174.174.533.282.738.417.797 1.168 1.358 2.078 1.553.285.061.869.061 1.154 0 .747-.158 1.396-.56 1.823-1.127.248-.33.388-.611.505-1.016l.059-.204.638-.012c.634-.013.639-.013.85-.089.393-.14.733-.422.927-.768.1-.178.203-.498.208-.644l.004-.09.018.086c.01.053.017-.037.017-.234 0-.233-.005-.277-.015-.16l-.015.16-.02-.146a6.932 6.932 0 0 0-.104-.482c-.308-1.254-.967-2.252-1.956-2.96l-.19-.136.093-.136c.257-.381.358-.997.253-1.546a9.076 9.076 0 0 1-.037-.2c0-.003.064-.005.142-.006.314 0 .68-.098.938-.25.202-.12.484-.397.609-.598.128-.206.228-.488.26-.736.031-.24.03-5.007 0-5.248a1.798 1.798 0 0 0-1.11-1.447c-.33-.133-.306-.132-3.203-.13-2.124.003-2.713.01-2.84.036Zm.124 1.223a.615.615 0 0 0-.303.281c-.048.09-.053.139-.054.543v.444h6.191v-.444c0-.496-.013-.548-.177-.712-.173-.172-.024-.164-2.93-.163-2.578 0-2.617.001-2.727.05ZM5.423 3.88a7.102 7.102 0 0 0-.016.666v.65h1.287l-.01-.365c-.008-.337-.013-.373-.074-.487a.834.834 0 0 0-.549-.443c-.146-.038-.606-.053-.638-.021Zm8.658.221c-.01.01-.017.674-.017 1.476 0 1.592.003 1.626.142 1.791a.658.658 0 0 0 .19.137l.125.058h2.639c2.602-.001 2.64-.002 2.75-.051a.622.622 0 0 0 .305-.282c.052-.098.053-.108.053-1.616V4.097l-3.085-.006c-1.697-.003-3.093.001-3.102.01ZM6 8.31c-.235.994-.429 1.816-.43 1.827-.002.01.123.052.278.091.741.19 1.378.534 1.909 1.034l.168.159-.01-1.565c-.01-1.713-.008-1.694-.163-2.082a2.307 2.307 0 0 0-1.317-1.27c-.004 0-.2.812-.435 1.806Zm7.213.508a.694.694 0 0 0-.29.297c-.014.035-.031.273-.037.528l-.011.463 2.564-.007 2.563-.007.12-.074a.484.484 0 0 0 .192-.21c.068-.13.07-.147.063-.408-.008-.25-.014-.282-.077-.376a.721.721 0 0 0-.17-.171l-.103-.068-2.358-.006c-2.24-.005-2.362-.004-2.456.04Zm-8.945 2.534c-.821.148-1.61.664-2.033 1.327l-.045.07.098-.049c.154-.078.497-.193.726-.242.29-.063.941-.065 1.226-.004 1.198.26 2.135 1.138 2.423 2.271l.045.177.58.007.58.006.014-.093c.036-.248.041-.461.017-.703a3.025 3.025 0 0 0-.9-1.905 2.974 2.974 0 0 0-2.206-.899 3.957 3.957 0 0 0-.525.037Zm9.138-.008c.288.663.397 1.157.397 1.794 0 .578-.087 1.023-.295 1.508l-.102.238c-.01.024.647.03 3.24.03 3.123 0 3.256-.002 3.353-.047a.48.48 0 0 0 .252-.303c.05-.188-.172-.99-.401-1.447-.336-.668-.887-1.246-1.491-1.565a4.175 4.175 0 0 0-.382-.177l-.165-.062h-2.21c-1.758 0-2.206.007-2.196.031Zm2.067 1.243a.568.568 0 0 0-.319.577.568.568 0 0 0 .288.46c.17.102.298.113 1.175.103.664-.009.695-.011.807-.066a.594.594 0 0 0 .345-.547.583.583 0 0 0-.338-.54c-.105-.05-.148-.052-.97-.052h-.858l-.13.065ZM3.236 13.645a1.902 1.902 0 0 0-1.321 1.034c-.157.317-.194.483-.194.851 0 .37.038.53.202.863.098.201.148.268.35.47.13.128.3.271.38.318a2.1 2.1 0 0 0 .792.254c.955.106 1.873-.56 2.074-1.506a2.39 2.39 0 0 0 0-.798 1.937 1.937 0 0 0-1.514-1.49 2.232 2.232 0 0 0-.77.004Zm-.02.206a1.739 1.739 0 0 0-1.254 1.235c-.07.255-.06.695.024.95.091.278.222.488.437.702.285.285.578.433.985.496.698.108 1.467-.304 1.776-.95a1.744 1.744 0 0 0-.412-2.06 2.01 2.01 0 0 0-.761-.383 2.065 2.065 0 0 0-.794.01Zm-2.708.557c0 .176.004.245.008.153a3.58 3.58 0 0 0 0-.32c-.005-.085-.008-.01-.008.167Zm2.913.645c-.337.177-.408.576-.149.835a.5.5 0 0 0 .694.032.475.475 0 0 0 .178-.43.482.482 0 0 0-.264-.42c-.13-.069-.346-.077-.46-.017Zm10.794 1.186a1.812 1.812 0 0 0 3.288.117c.048-.095.088-.186.088-.203 0-.024-.359-.03-1.713-.03h-1.713l.05.116Z" fill="#292929"/>
</svg>