<svg width="25" height="22" viewBox="0 0 25 22" fill="none" xmlns="http://www.w3.org/2000/svg">
                                <path d="M21.1567 9.8782H15.4438C15.0061 9.87761 14.5865 9.7025 14.277 9.39128C13.9675 9.08 13.7934 8.6581 13.793 8.21797V2.6956C13.7934 2.24611 13.9712 1.81514 14.2873 1.49726C14.6034 1.17939 15.032 1.00056 15.4791 1H21.1567C21.6037 1.00056 22.0323 1.17939 22.3484 1.49726C22.6644 1.81514 22.8422 2.24611 22.8427 2.6956V8.18255C22.8422 8.63207 22.6644 9.06302 22.3484 9.38091C22.0323 9.6988 21.6037 9.87761 21.1567 9.8782ZM15.4791 1.7008C15.2168 1.70117 14.9654 1.80612 14.7799 1.9926C14.5945 2.1791 14.4902 2.43191 14.49 2.6956V8.21797C14.4902 8.47223 14.5909 8.71605 14.7697 8.89591C14.9484 9.07577 15.1909 9.177 15.4438 9.1774H21.1567C21.4189 9.177 21.6703 9.07207 21.8557 8.88554C22.0411 8.69907 22.1454 8.44626 22.1457 8.18255V2.6956C22.1455 2.43189 22.0412 2.17901 21.8558 1.9925C21.6704 1.80599 21.4189 1.70108 21.1567 1.7008H15.4791Z" fill="#FFC00B" stroke="#FFC00B" stroke-width="0.6" />
                                <path d="M20.2315 12.7643H13.9657C13.8733 12.7643 13.7846 12.7274 13.7192 12.6616C13.6539 12.596 13.6172 12.5068 13.6172 12.4139V10.8266C13.6178 10.39 13.7906 9.97148 14.0977 9.66277C14.4047 9.35406 14.821 9.18028 15.2552 9.17969H20.2315C20.6658 9.18028 21.082 9.35406 21.3891 9.66277C21.6961 9.97148 21.8689 10.39 21.8695 10.8266V11.117C21.869 11.5537 21.6962 11.9723 21.3892 12.2811C21.0821 12.5899 20.6658 12.7637 20.2315 12.7643ZM14.3139 12.0635H20.2315C20.4811 12.0635 20.7204 11.9638 20.897 11.7864C21.0734 11.609 21.1725 11.3683 21.1725 11.1174V10.8269C21.1725 10.576 21.0734 10.3354 20.897 10.1579C20.7204 9.98053 20.4811 9.88082 20.2315 9.88082H15.2552C15.0056 9.88082 14.7663 9.98053 14.5898 10.1579C14.4134 10.3354 14.3142 10.576 14.3142 10.8269L14.3139 12.0635Z" fill="#FFC00B" stroke="#FFC00B" stroke-width="0.6" />
                                <path d="M22.4242 18.2385H7.05942C6.96702 18.2385 6.87838 18.2016 6.81302 18.1359C6.74766 18.0702 6.71094 17.981 6.71094 17.8881C6.71094 17.7952 6.74766 17.706 6.81302 17.6403C6.87838 17.5746 6.96702 17.5377 7.05942 17.5377H22.4242C22.6534 17.5375 22.8735 17.4477 23.0379 17.287C23.2023 17.1265 23.2981 16.9078 23.3048 16.6775C22.7971 13.3679 20.2659 12.7792 20.1581 12.7561C20.0677 12.737 19.9885 12.6824 19.9379 12.6046C19.8875 12.5267 19.8697 12.4319 19.8888 12.3409C19.9078 12.2499 19.962 12.1702 20.0395 12.1195C20.1169 12.0687 20.2112 12.0509 20.3017 12.07C20.3331 12.0767 23.4265 12.7709 23.998 16.6011C24.0005 16.6183 24.0019 16.6359 24.0019 16.6533C24.0011 17.0737 23.8347 17.4766 23.5389 17.7738C23.2431 18.0709 22.8423 18.2381 22.4242 18.2385Z" fill="#FFC00B" stroke="#FFC00B" stroke-width="0.6" />
                                <path d="M13.9654 18.2393C13.8998 18.2393 13.8354 18.2206 13.7799 18.1853C13.7243 18.1501 13.6798 18.0998 13.6514 18.0403C13.623 17.9808 13.612 17.9144 13.6195 17.8488C13.6271 17.7832 13.6529 17.7211 13.694 17.6695C15.8307 14.9925 13.7985 12.7464 13.711 12.6525C13.6479 12.5845 13.6142 12.4941 13.6174 12.4012C13.6205 12.3082 13.6603 12.2203 13.7279 12.1569C13.7956 12.0934 13.8855 12.0595 13.9779 12.0627C14.0704 12.0659 14.1578 12.1059 14.2209 12.1739C14.2463 12.2015 16.7476 14.9637 14.2376 18.1083C14.2049 18.1493 14.1635 18.1823 14.1164 18.205C14.0693 18.2276 14.0177 18.2394 13.9654 18.2393Z" fill="#FFC00B" stroke="#FFC00B" stroke-width="0.6" />
                                <path d="M18.0224 20.9754C17.2076 20.9745 16.4265 20.6487 15.8504 20.0694C15.2742 19.4902 14.9501 18.7048 14.9492 17.8856C14.9492 17.7927 14.986 17.7035 15.0513 17.6378C15.1167 17.5721 15.2053 17.5352 15.2977 17.5352C15.3902 17.5352 15.4788 17.5721 15.5442 17.6378C15.6095 17.7035 15.6462 17.7927 15.6462 17.8856C15.6424 18.2017 15.701 18.5155 15.8187 18.8087C15.9364 19.1019 16.1109 19.3686 16.3319 19.5936C16.5529 19.8185 16.8161 19.997 17.1062 20.1189C17.3964 20.2408 17.7077 20.3036 18.0222 20.3036C18.3366 20.3036 18.648 20.2408 18.9382 20.1189C19.2283 19.997 19.4915 19.8185 19.7125 19.5936C19.9335 19.3686 20.108 19.1019 20.2256 18.8087C20.3433 18.5155 20.402 18.2017 20.3982 17.8856C20.3982 17.7927 20.4349 17.7035 20.5002 17.6378C20.5656 17.5721 20.6542 17.5352 20.7467 17.5352C20.8391 17.5352 20.9277 17.5721 20.9931 17.6378C21.0585 17.7035 21.0952 17.7927 21.0952 17.8856C21.0943 18.7048 20.7703 19.4902 20.1943 20.0694C19.6182 20.6487 18.8371 20.9745 18.0224 20.9754Z" fill="#FFC00B" stroke="#FFC00B" stroke-width="0.6" />
                                <path d="M19.4771 15.5016H17.868C17.7756 15.5016 17.6869 15.4646 17.6216 15.399C17.5562 15.3332 17.5195 15.2441 17.5195 15.1512C17.5195 15.0582 17.5562 14.9691 17.6216 14.9034C17.6869 14.8377 17.7756 14.8008 17.868 14.8008H19.4764C19.5688 14.8008 19.6574 14.8377 19.7228 14.9034C19.7882 14.9691 19.8249 15.0582 19.8249 15.1512C19.8249 15.2441 19.7882 15.3332 19.7228 15.399C19.6574 15.4646 19.5688 15.5016 19.4764 15.5016H19.4771Z" fill="#FFC00B" stroke="#FFC00B" stroke-width="0.6" />
                                <path d="M4.20594 21.1091C3.57243 21.1096 2.95299 20.9213 2.42593 20.5679C1.89888 20.2145 1.48788 19.7119 1.24493 19.1236C1.00197 18.5354 0.937956 17.8879 1.06098 17.2631C1.18401 16.6383 1.48854 16.0642 1.93609 15.6133C2.38363 15.1626 2.95408 14.8553 3.5753 14.7304C4.19652 14.6056 4.84061 14.6688 5.42613 14.9119C6.01164 15.1552 6.51228 15.5674 6.86475 16.0967C7.21719 16.6259 7.40568 17.2484 7.40627 17.8854C7.40541 18.7391 7.06808 19.5576 6.46828 20.1618C5.86846 20.766 5.05498 21.1066 4.20594 21.1091ZM4.20594 15.3691C3.71002 15.3686 3.22509 15.5159 2.81252 15.7927C2.39995 16.0693 2.0783 16.4628 1.88829 16.9234C1.69827 17.384 1.64842 17.8908 1.74506 18.3799C1.8417 18.869 2.08048 19.3182 2.43117 19.6707C2.78187 20.0233 3.2287 20.2633 3.71512 20.3604C4.20155 20.4575 4.70569 20.4073 5.16374 20.2162C5.62178 20.025 6.01313 19.7016 6.28825 19.2868C6.56337 18.8719 6.7099 18.3843 6.70928 17.8857C6.70762 17.2187 6.44334 16.5796 5.97422 16.1079C5.5051 15.6363 4.86932 15.3707 4.20594 15.3691Z" fill="#FFC00B" stroke="#FFC00B" stroke-width="0.6" />
                                <path d="M9.51627 18.2371C9.46159 18.2371 9.40764 18.2242 9.35881 18.1993C9.30998 18.1744 9.26765 18.1384 9.23532 18.094C9.20292 18.0497 9.18143 17.9983 9.17243 17.944C9.16349 17.8897 9.16743 17.8341 9.1838 17.7816C9.35158 17.2516 9.40323 16.6914 9.33535 16.1394C9.26739 15.5874 9.08147 15.0567 8.79027 14.5838C8.49907 14.1109 8.10955 13.707 7.6484 13.3997C7.18732 13.0925 6.6655 12.8892 6.11885 12.8039C5.57221 12.7186 5.01368 12.7532 4.48161 12.9055C3.94954 13.0576 3.45653 13.3239 3.03645 13.6857C2.61637 14.0476 2.27916 14.4966 2.04797 15.0019C1.81678 15.5072 1.6971 16.0568 1.69714 16.613C1.69465 16.8152 1.71346 17.0171 1.75325 17.2153C1.7584 17.2391 1.76097 17.2632 1.76092 17.2875C1.76101 17.3807 1.72441 17.4702 1.65912 17.5364C1.59382 17.6026 1.50512 17.6401 1.41241 17.6407C1.32763 17.6409 1.24568 17.6101 1.18191 17.5539C1.11814 17.4977 1.07693 17.42 1.066 17.3355C1.02019 17.0975 0.998121 16.8554 1.00013 16.613C1.00024 15.9558 1.14181 15.3064 1.41509 14.7093C1.68838 14.1123 2.08691 13.5819 2.58335 13.1543C3.07979 12.7267 3.66235 12.4123 4.29107 12.2324C4.91979 12.0526 5.57976 12.0117 6.22569 12.1125C6.87162 12.2133 7.48818 12.4534 8.03312 12.8165C8.578 13.1795 9.03836 13.6567 9.38253 14.2154C9.7267 14.7742 9.94653 15.4012 10.027 16.0534C10.1073 16.7056 10.0465 17.3676 9.84841 17.9939C9.82581 18.0646 9.78151 18.1263 9.72177 18.1699C9.6621 18.2137 9.59014 18.2372 9.51627 18.2371Z" fill="#FFC00B" stroke="#FFC00B" stroke-width="0.6" />
                                <path d="M9.71188 16.9588C9.61942 16.9588 9.53076 16.922 9.46544 16.8562C9.40005 16.7905 9.36337 16.7014 9.36337 16.6084V10.0777C9.37428 9.41697 9.15846 8.77273 8.75219 8.25337C8.34591 7.73408 7.77403 7.37138 7.13287 7.22641L7.10954 7.22218L5.86884 12.4902C5.85905 12.5357 5.84033 12.5788 5.81378 12.617C5.78722 12.6552 5.75336 12.6876 5.71418 12.7125C5.67499 12.7374 5.63128 12.7541 5.58557 12.7617C5.53987 12.7694 5.49311 12.7679 5.44802 12.7571C5.40293 12.7464 5.36043 12.7268 5.32297 12.6994C5.28553 12.672 5.2539 12.6373 5.22993 12.5974C5.20597 12.5575 5.19015 12.5132 5.1834 12.4672C5.17666 12.4211 5.17912 12.3741 5.19064 12.329L6.50243 6.75407C6.52066 6.67193 6.56815 6.59932 6.63594 6.54994C6.70373 6.50057 6.78714 6.47783 6.87045 6.48601C7.00032 6.49651 7.12952 6.51359 7.25767 6.53716C8.0628 6.70483 8.784 7.15082 9.29601 7.79764C9.8081 8.44439 10.0785 9.25119 10.0604 10.0777V16.6084C10.0604 16.7014 10.0237 16.7905 9.95826 16.8562C9.89294 16.922 9.80428 16.9588 9.71188 16.9588Z" fill="#FFC00B" stroke="#FFC00B" stroke-width="0.6" />
                                <path d="M11.1455 7.18738H5.5321C5.43967 7.18738 5.35103 7.15051 5.28567 7.08476C5.22031 7.01908 5.18359 6.92992 5.18359 6.837V3.96369C5.18359 3.87075 5.22031 3.78163 5.28567 3.71592C5.35103 3.6502 5.43967 3.61328 5.5321 3.61328H6.70554C7.23102 3.61394 7.73482 3.82414 8.1064 4.19779C8.47797 4.57143 8.68696 5.07801 8.68748 5.60638V6.48519H11.1455C11.238 6.48519 11.3266 6.52211 11.392 6.58782C11.4573 6.65353 11.4941 6.74266 11.4941 6.83559C11.4941 6.92852 11.4573 7.01763 11.392 7.08337C11.3266 7.14905 11.238 7.18599 11.1455 7.18599V7.18738ZM5.88061 6.48659H7.99047V5.60778C7.99014 5.26522 7.85463 4.93679 7.61377 4.69453C7.37284 4.45227 7.04622 4.31596 6.70554 4.31549H5.88061V6.48659Z" fill="#FFC00B" stroke="#FFC00B" stroke-width="0.6" />
                                <path d="M22.4942 4.5719H14.1415C14.0491 4.5719 13.9604 4.53498 13.895 4.46927C13.8297 4.40356 13.793 4.31443 13.793 4.2215C13.793 4.12856 13.8297 4.03944 13.895 3.97372C13.9604 3.90801 14.0491 3.87109 14.1415 3.87109H22.4942C22.5866 3.87109 22.6753 3.90801 22.7406 3.97372C22.806 4.03944 22.8427 4.12856 22.8427 4.2215C22.8427 4.31443 22.806 4.40356 22.7406 4.46927C22.6753 4.53498 22.5866 4.5719 22.4942 4.5719Z" fill="#FFC00B" stroke="#FFC00B" stroke-width="0.6" />
                              </svg>