<svg xmlns="http://www.w3.org/2000/svg" width="26" height="26" viewBox="0 0 26 26" fill="none">
                          <g clip-path="url(#clip0_1830_3652)">
                            <path d="M12.9568 26C5.80397 25.9919 -0.0111571 20.1321 1.60742e-05 12.9436C0.0111892 5.79687 5.87609 -0.0131822 13.0686 2.24634e-05C20.2113 0.0132271 26.0152 5.88524 26 13.0808C25.9848 20.1981 20.1188 26.0081 12.9568 25.999V26ZM23.9776 12.9761C23.9685 6.91926 19.0523 2.0183 12.9883 2.02237C6.9284 2.02643 2.02236 6.93755 2.02134 12.9985C2.02134 19.0808 6.9477 23.9919 13.0361 23.9777C19.0899 23.9645 23.9858 19.0411 23.9776 12.9761Z" fill="black" />
                            <path d="M14.0109 9.7123C14.0109 10.5411 13.9896 11.37 14.0251 12.1968C14.0343 12.4081 14.1704 12.6783 14.3369 12.8083C15.3608 13.6107 16.4152 14.3735 17.4461 15.1679C17.6523 15.3263 17.8616 15.5386 17.9571 15.7722C18.1348 16.2039 18.0089 16.6153 17.6249 16.8967C17.2267 17.1882 16.8011 17.177 16.404 16.8834C15.371 16.1206 14.341 15.3537 13.3171 14.5787C11.8281 13.4533 11.9926 13.7804 11.9875 11.9185C11.9845 10.4304 11.9875 8.94338 11.9875 7.45532C11.9875 6.52998 12.3298 6.04547 12.987 6.03531C13.6605 6.02515 14.0109 6.51982 14.0119 7.4797C14.0119 8.22322 14.0119 8.96776 14.0119 9.71128L14.0109 9.7123Z" fill="black" />
                          </g>
                          <defs>
                            <clipPath id="clip0_1830_3652">
                              <rect width="26" height="26" fill="white" />
                            </clipPath>
                          </defs>
                        </svg>