<svg width="24" height="16" viewBox="0 0 24 16" fill="none" xmlns="http://www.w3.org/2000/svg">
  <path d="M3.691 10.582c.553-.504 1.134-.656 1.809-.383.083.033.24-.08.345-.15.153-.105.29-.233.419-.337-1.467-2.528-1.21-4.698.681-6.146a4.188 4.188 0 0 1 5.528.368 4.224 4.224 0 0 1 .372 5.534c-1.137 1.506-3.593 2.434-6.05.74-.145.183-.312.38-.463.586-.043.06-.078.165-.054.225.272.702.04 1.278-.52 1.854h15.104c.972 0 1.277-.308 1.277-1.286v-8.85c0-.877-.338-1.212-1.224-1.212H15.03c-.129 0-.292.04-.378-.023-.142-.104-.313-.27-.325-.423-.01-.123.177-.288.312-.389.075-.057.221-.025.335-.025 2.004 0 4.009-.002 6.013 0 1.283.002 2.012.74 2.012 2.036.002 2.963 0 5.927 0 8.892 0 1.445-.687 2.14-2.12 2.14-5.198 0-10.395.003-15.593-.006-.296 0-.513.073-.713.294a16.72 16.72 0 0 1-.94.943c-.658.624-1.607.634-2.2.033-.599-.608-.575-1.53.06-2.195.02-.02.038-.044.061-.06 1.082-.736 1.315-1.757 1.26-3.028-.101-2.33-.03-4.667-.028-7 .003-1.327.72-2.046 2.04-2.048C6.787.664 17.748.661 19.709.673c.184 0 .4.06.542.17.083.064.12.336.057.413-.11.133-.316.256-.482.259-1.447.02-11.892.011-13.338.012-.616 0-1.231-.01-1.846.003-.596.013-.987.381-.989.963-.008 2.649-.002 5.297 0 7.946 0 .028.013.055.038.143Zm5.782-7.02a3.33 3.33 0 0 0-3.335 3.366 3.354 3.354 0 0 0 3.365 3.345 3.371 3.371 0 0 0 3.345-3.376 3.352 3.352 0 0 0-3.375-3.334ZM4.94 10.988c-.223-.037-.48.084-.594.195-.786.769-1.516 1.496-2.284 2.282-.275.282-.262.67-.014.924a.638.638 0 0 0 .924.012 68.891 68.891 0 0 0 2.383-2.398c.125-.134.155-.472.079-.652-.085-.2-.27-.325-.494-.363Z" fill="#FFC00B"/>
  <path d="M19.157 3.343h1.159c.343 0 .541.152.541.513V6.3c0 .337-.18.496-.509.497-.815 0-1.63.002-2.445 0-.332-.002-.498-.171-.497-.507.003-.816 0-1.63.001-2.446 0-.336.179-.498.507-.5.415-.004.83 0 1.244-.001v-.001Zm-.868 2.56h1.672V4.23h-1.672v1.674Zm-1.152 5.173c-1.015 0-2.03-.004-3.045.001-.318.002-.609-.06-.602-.438.008-.374.305-.427.618-.426 2.044.003 4.09.003 6.134 0 .316 0 .605.064.6.442-.006.384-.306.422-.617.421-1.03-.004-2.06-.001-3.089-.001h.001Zm.942-2.089c-.73 0-1.46-.003-2.19.001-.304.002-.575-.076-.584-.42-.01-.379.275-.445.595-.444 1.446.005 2.892.004 4.337 0 .316 0 .609.05.603.434-.006.38-.302.431-.615.43-.716-.005-1.431-.001-2.147-.002ZM8.717 4.486c.81-.308 1.55-.158 2.18.44.602.574.82 1.466.456 2.205-.338.69-.755 1.345-1.186 1.982-.302.445-1.004.495-1.304.063-.556-.8-1.231-1.754-1.396-2.722 0-.878.433-1.658 1.25-1.968Zm.764 4.136c.368-.602.71-1.128 1.017-1.675a1.151 1.151 0 0 0-.271-1.475 1.175 1.175 0 0 0-1.502-.002 1.143 1.143 0 0 0-.27 1.475c.31.547.654 1.073 1.026 1.678Z" fill="#FFC00B"/>
  <circle cx="9.473" cy="6.379" r=".372" fill="#FFC00B"/>
</svg>
