<svg width="24" height="16" viewBox="0 0 24 16" fill="none" xmlns="http://www.w3.org/2000/svg">
<g id="Group 2893">
<path id="Vector" d="M5.77728 9.91307L5.77753 9.9129C5.88069 9.84317 5.97356 9.76427 6.06584 9.68587C6.08497 9.66962 6.10407 9.65339 6.12323 9.63727C5.41491 8.39125 5.11844 7.22309 5.23639 6.17869C5.35695 5.11114 5.90918 4.1854 6.87095 3.44877L6.87097 3.44875C8.58855 2.13402 10.9913 2.29374 12.5177 3.82448L12.5177 3.8245C14.0414 5.35351 14.1957 7.75925 12.8979 9.47733C11.7471 11.0013 9.27728 11.9417 6.80273 10.2897C6.77752 10.3209 6.75201 10.3522 6.72633 10.3837C6.61753 10.5174 6.50571 10.6547 6.40054 10.7987C6.38706 10.8173 6.37269 10.847 6.36447 10.8777C6.36047 10.8927 6.35854 10.9056 6.35821 10.9157C6.35787 10.9262 6.3594 10.9298 6.35892 10.9285L6.26562 10.9645M5.77728 9.91307L5.9256 1.59208C6.10857 1.59291 6.29186 1.59375 6.47566 1.59375L6.47572 1.59375C6.76987 1.59358 7.43776 1.59379 8.32693 1.59408C9.99629 1.59463 12.4456 1.59543 14.6658 1.59436C14.712 1.60437 14.7585 1.60473 14.7969 1.60345C14.8292 1.60237 14.8626 1.59964 14.893 1.59716C14.8971 1.59683 14.9011 1.59649 14.9051 1.59617C14.9138 1.59548 14.9222 1.59482 14.9303 1.59422C15.8295 1.59372 16.6837 1.5929 17.424 1.5916C17.5937 1.59161 17.7633 1.59161 17.933 1.59161H17.9334C18.9119 1.59161 19.8905 1.59161 20.8691 1.59204H20.8691C21.303 1.59204 21.575 1.67463 21.7414 1.83937C21.9075 2.00385 21.9908 2.27249 21.9908 2.70171V2.71895V2.7362V2.75344V2.77069V2.78793V2.80518V2.82242V2.83967V2.85691V2.87416V2.8914V2.90865V2.92589V2.94314V2.96038V2.97763V2.99487V3.01212V3.02936V3.04661V3.06385V3.08109V3.09834V3.11558V3.13283V3.15007V3.16732V3.18456V3.20181V3.21905V3.2363V3.25354V3.27079V3.28803V3.30527V3.32252V3.33976V3.35701V3.37425V3.3915V3.40874V3.42599V3.44323V3.46047V3.47772V3.49496V3.51221V3.52945V3.5467V3.56394V3.58118V3.59843V3.61567V3.63292V3.65016V3.6674V3.68465V3.70189V3.71914V3.73638V3.75363V3.77087V3.78811V3.80536V3.8226V3.83985V3.85709V3.87433V3.89158V3.90882V3.92606V3.94331V3.96055V3.9778V3.99504V4.01228V4.02953V4.04677V4.06402V4.08126V4.0985V4.11575V4.13299V4.15023V4.16748V4.18472V4.20197V4.21921V4.23645V4.2537V4.27094V4.28818V4.30543V4.32267V4.33991V4.35716V4.3744V4.39165V4.40889V4.42613V4.44338V4.46062V4.47786V4.49511V4.51235V4.52959V4.54684V4.56408V4.58132V4.59857V4.61581V4.63305V4.6503V4.66754V4.68478V4.70203V4.71927V4.73651V4.75376V4.771V4.78824V4.80549V4.82273V4.83997V4.85722V4.87446V4.8917V4.90895V4.92619V4.94343V4.96068V4.97792V4.99516V5.01241V5.02965V5.04689V5.06414V5.08138V5.09862V5.11586V5.13311V5.15035V5.16759V5.18484V5.20208V5.21932V5.23657V5.25381V5.27105V5.2883V5.30554V5.32278V5.34002V5.35727V5.37451V5.39175V5.409V5.42624V5.44348V5.46072V5.47797V5.49521V5.51245V5.5297V5.54694V5.56418V5.58143V5.59867V5.61591V5.63315V5.6504V5.66764V5.68488V5.70213V5.71937V5.73661V5.75385V5.7711V5.78834V5.80558V5.82283V5.84007V5.85731V5.87455V5.8918V5.90904V5.92628V5.94352V5.96077V5.97801V5.99525V6.0125V6.02974V6.04698V6.06422V6.08147V6.09871V6.11595V6.13319V6.15044V6.16768V6.18492V6.20217V6.21941V6.23665V6.25389V6.27114V6.28838V6.30562V6.32286V6.34011V6.35735V6.37459V6.39184V6.40908V6.42632V6.44356V6.46081V6.47805V6.49529V6.51253V6.52978V6.54702V6.56426V6.5815V6.59875V6.61599V6.63323V6.65047V6.66772V6.68496V6.7022V6.71945V6.73669V6.75393V6.77117V6.78842V6.80566V6.8229V6.84014V6.85739V6.87463V6.89187V6.90911V6.92636V6.9436V6.96084V6.97808V6.99533V7.01257V7.02981V7.04705V7.0643V7.08154V7.09878V7.11602V7.13327V7.15051V7.16775V7.185V7.20224V7.21948V7.23672V7.25397V7.27121V7.28845V7.30569V7.32294V7.34018V7.35742V7.37466V7.39191V7.40915V7.42639V7.44363V7.46088V7.47812V7.49536V7.5126V7.52985V7.54709V7.56433V7.58157V7.59882V7.61606V7.6333V7.65055V7.66779V7.68503V7.70227V7.71952V7.73676V7.754V7.77124V7.78849V7.80573V7.82297V7.84021V7.85746V7.8747V7.89194V7.90919V7.92643V7.94367V7.96091V7.97816V7.9954V8.01264V8.02988V8.04713V8.06437V8.08161V8.09886V8.1161V8.13334V8.15058V8.16783V8.18507V8.20231V8.21955V8.2368V8.25404V8.27128V8.28853V8.30577V8.32301V8.34025V8.3575V8.37474V8.39198V8.40922V8.42647V8.44371V8.46095V8.4782V8.49544V8.51268V8.52992V8.54717V8.56441V8.58165V8.5989V8.61614V8.63338V8.65062V8.66787V8.68511V8.70235V8.7196V8.73684V8.75408V8.77133V8.78857V8.80581V8.82305V8.8403V8.85754V8.87478V8.89203V8.90927V8.92651V8.94375V8.961V8.97824V8.99548V9.01273V9.02997V9.04721V9.06446V9.0817V9.09894V9.11619V9.13343V9.15067V9.16791V9.18516V9.2024V9.21964V9.23689V9.25413V9.27137V9.28862V9.30586V9.3231V9.34035V9.35759V9.37483V9.39208V9.40932V9.42656V9.44381V9.46105V9.47829V9.49554V9.51278V9.53002V9.54727V9.56451V9.58175V9.599V9.61624V9.63348V9.65073V9.66797V9.68521V9.70246V9.7197V9.73694V9.75419V9.77143V9.78867V9.80592V9.82316V9.8404V9.85765V9.87489V9.89213V9.90938V9.92662V9.94387V9.96111V9.97835V9.9956V10.0128V10.0301V10.0473V10.0646V10.0818V10.0991V10.1163V10.1335V10.1508V10.168V10.1853V10.2025V10.2198V10.237V10.2543V10.2715V10.2887V10.306V10.3232V10.3405V10.3577V10.375V10.3922V10.4094V10.4267V10.4439V10.4612V10.4784V10.4957V10.5129V10.5302V10.5474V10.5646V10.5819V10.5991V10.6164V10.6336V10.6509V10.6681V10.6854V10.7026V10.7198V10.7371V10.7543V10.7716V10.7888V10.8061V10.8233V10.8406V10.8578V10.875V10.8923V10.9095V10.9268V10.944V10.9613V10.9785V10.9958V11.013V11.0302V11.0475V11.0647V11.082V11.0992V11.1165V11.1337V11.151V11.1682V11.1854V11.2027V11.2199V11.2372V11.2544V11.2717V11.2889V11.3062V11.3234V11.3406V11.3579V11.3751V11.3924V11.4096V11.4269V11.4441V11.4614V11.4786V11.4959V11.5131V11.5303C21.9908 12.0145 21.9138 12.2991 21.7465 12.4678C21.5793 12.6362 21.2973 12.7137 20.8168 12.7137H20.7885H20.7601H20.7317H20.7033H20.675H20.6466H20.6182H20.5898H20.5614H20.5331H20.5047H20.4763H20.4479H20.4196H20.3912H20.3628H20.3344H20.3061H20.2777H20.2493H20.2209H20.1926H20.1642H20.1358H20.1074H20.079H20.0507H20.0223H19.9939H19.9655H19.9372H19.9088H19.8804H19.852H19.8237H19.7953H19.7669H19.7385H19.7102H19.6818H19.6534H19.625H19.5966H19.5683H19.5399H19.5115H19.4831H19.4548H19.4264H19.398H19.3696H19.3413H19.3129H19.2845H19.2561H19.2278H19.1994H19.171H19.1426H19.1143H19.0859H19.0575H19.0291H19.0008H18.9724H18.944H18.9156H18.8873H18.8589H18.8305H18.8021H18.7738H18.7454H18.717H18.6886H18.6602H18.6319H18.6035H18.5751H18.5467H18.5184H18.49H18.4616H18.4332H18.4049H18.3765H18.3481H18.3197H18.2914H18.263H18.2346H18.2062H18.1779H18.1495H18.1211H18.0927H18.0644H18.036H18.0076H17.9792H17.9509H17.9225H17.8941H17.8657H17.8374H17.809H17.7806H17.7522H17.7239H17.6955H17.6671H17.6387H17.6104H17.582H17.5536H17.5252H17.4969H17.4685H17.4401H17.4117H17.3834H17.355H17.3266H17.2982H17.2699H17.2415H17.2131H17.1847H17.1564H17.128H17.0996H17.0712H17.0429H17.0145H16.9861H16.9577H16.9294H16.901H16.8726H16.8442H16.8159H16.7875H16.7591H16.7307H16.7024H16.674H16.6456H16.6172H16.5889H16.5605H16.5321H16.5037H16.4754H16.447H16.4186H16.3902H16.3619H16.3335H16.3051H16.2767H16.2484H16.22H16.1916H16.1632H16.1349H16.1065H16.0781H16.0497H16.0214H15.993H15.9646H15.9363H15.9079H15.8795H15.8511H15.8228H15.7944H15.766H15.7376H15.7093H15.6809H15.6525H15.6241H15.5958H15.5674H15.539H15.5106H15.4823H15.4539H15.4255H15.3971H15.3688H15.3404H15.312H15.2836H15.2553H15.2269H15.1985H15.1701H15.1418H15.1134H15.085H15.0566H15.0283H14.9999H14.9715H14.9431H14.9148H14.8864H14.858H14.8296H14.8013H14.7729H14.7445H14.7161H14.6878H14.6594H14.631H14.6027H14.5743H14.5459H14.5175H14.4892H14.4608H14.4324H14.404H14.3757H14.3473H14.3189H14.2905H14.2622H14.2338H14.2054H14.177H14.1487H14.1203H14.0919H14.0635H14.0352H14.0068H13.9784H13.95H13.9217H13.8933H13.8649H13.8365H13.8082H13.7798H13.7514H13.723H13.6947H13.6663H13.6379H13.6096H13.5812H13.5528H13.5244H13.4961H13.4677H13.4393H13.4109H13.3826H13.3542H13.3258H13.2974H13.2691H13.2407H13.2123H13.1839H13.1556H13.1272H13.0988H13.0704H13.0421H13.0137H12.9853H12.9569H12.9286H12.9002H12.8718H12.8434H12.8151H12.7867H12.7583H12.7299H12.7016H12.6732H12.6448H12.6165H12.5881H12.5597H12.5313H12.503H12.4746H12.4462H12.4178H12.3895H12.3611H12.3327H12.3043H12.276H12.2476H12.2192H12.1908H12.1625H12.1341H12.1057H12.0773H12.049H12.0206H11.9922H11.9638H11.9355H11.9071H11.8787H11.8503H11.822H11.7936H11.7652H11.7368H11.7085H11.6801H11.6517H11.6233H11.595H11.5666H11.5382H11.5098H11.4815H11.4531H11.4247H11.3963H11.368H11.3396H11.3112H11.2829H11.2545H11.2261H11.1977H11.1694H11.141H11.1126H11.0842H11.0559H11.0275H10.9991H10.9707H10.9424H10.914H10.8856H10.8572H10.8289H10.8005H10.7721H10.7437H10.7154H10.687H10.6586H10.6302H10.6019H10.5735H10.5451H10.5167H10.4884H10.46H10.4316H10.4032H10.3749H10.3465H10.3181H10.2897H10.2614H10.233H10.2046H10.1762H10.1479H10.1195H10.0911H10.0627H10.0344H10.006H9.97762H9.94924H9.92087H9.89249H9.86412H9.83574H9.80737H9.77899H9.75062H9.72224H9.69387H9.66549H9.63712H9.60874H9.58037H9.55199H9.52362H9.49524H9.46687H9.43849H9.41012H9.38174H9.35337H9.32499H9.29662H9.26824H9.23987H9.21149H9.18312H9.15474H9.12636H9.09799H9.06961H9.04124H9.01286H8.98449H8.95611H8.92774H8.89936H8.87099H8.84261H8.81424H8.78586H8.75749H8.72911H8.70073H8.67236H8.64398H8.61561H8.58723H8.55886H8.53048H8.50211H8.47373H8.44535H8.41698H8.3886H8.36023H8.33185H8.30348H8.2751H8.24673H8.21835H8.18997H8.1616H8.13322H8.10485H8.07647H8.0481H8.01972H7.99134H7.96297H7.93459H7.90622H7.87784H7.84947H7.82109H7.79271H7.76434H7.73596H7.70759H7.67921H7.65083H7.62246H7.59408H7.56571H7.53733H7.50895H7.48058H7.4522H7.42383H7.39545H7.36707H7.3387H7.31032H7.28195H7.25357H7.22519H7.19682H7.16844H7.14006H7.11169H7.08331H7.05494H7.02656H6.99818H6.96981H6.94143H6.91305H6.88468H6.8563H6.82793H6.79955H6.77117H6.7428H6.71442H6.68604H6.65767H6.62929H6.60091H6.57254H6.54416H6.51578H6.48741H6.45903H6.43065H6.40228H6.3739H6.34552H6.31715H6.28877H5.97443C6.18076 12.4739 6.33281 12.2272 6.41367 11.9656C6.51454 11.6392 6.5022 11.2973 6.35884 10.9283L6.26562 10.9645M5.77728 9.91307C5.77151 9.917 5.76568 9.92098 5.7598 9.92499C5.71008 9.95893 5.65713 9.99507 5.60687 10.0214C5.57899 10.036 5.55635 10.0452 5.53936 10.0494C5.53091 10.0515 5.52614 10.0518 5.52419 10.0518C5.1723 9.91049 4.83921 9.87747 4.51959 9.94907C4.24797 10.0099 3.99201 10.145 3.7465 10.3435C3.7461 9.75674 3.74551 9.17005 3.74491 8.58339C3.74283 6.54133 3.74076 4.4998 3.74738 2.4577L3.74738 2.45767C3.74817 2.19069 3.83766 1.98104 3.98761 1.83642C4.13813 1.69124 4.35841 1.60317 4.63539 1.59716L5.77728 9.91307ZM6.26562 10.9645C6.52162 11.6235 6.33184 12.1722 5.84102 12.7137L6.65058 10.3184C6.54105 10.4529 6.42647 10.5936 6.31963 10.7399C6.27677 10.7991 6.24247 10.9045 6.26562 10.9645ZM14.5621 1.5497L14.6024 1.49439L5.92747 1.49208C6.11014 1.49292 6.29286 1.49375 6.47566 1.49375C6.77015 1.49357 7.43862 1.49379 8.32843 1.49408C9.95415 1.49461 12.3187 1.49538 14.491 1.49444C14.515 1.51432 14.539 1.53282 14.5621 1.54966C14.5621 1.54967 14.5621 1.54968 14.5621 1.5497ZM5.52739 10.0531L5.52715 10.053L5.52739 10.0531ZM15.9417 0.533386C15.6172 0.533548 15.2927 0.533711 14.9682 0.533851L4.63879 14.0263C4.63883 14.0262 4.63887 14.0262 4.63891 14.0262C4.72981 13.9259 4.82155 13.8623 4.92149 13.8229C5.02229 13.7832 5.13685 13.7659 5.27628 13.7659C10.0633 13.7738 14.8495 13.773 19.6363 13.7721C20.0352 13.7721 20.4342 13.772 20.8331 13.7719C21.5628 13.7719 22.1223 13.595 22.4984 13.2152C22.8742 12.8357 23.049 12.2715 23.049 11.5363C23.049 10.5504 23.0492 9.56454 23.0494 8.57873C23.0497 6.60727 23.0501 4.63601 23.049 2.66478C23.049 2.00039 22.8615 1.4649 22.4962 1.09521C22.1307 0.725366 21.6003 0.534745 20.9413 0.533862C19.2752 0.531719 17.6084 0.532553 15.9417 0.533386ZM14.6519 0.533695C10.7932 0.531898 6.04277 0.533646 4.81667 0.53472L4.81663 0.53472C4.14061 0.5356 3.60376 0.72051 3.23575 1.08989C2.86783 1.45919 2.68325 1.99827 2.68149 2.67744L2.68149 2.67763C2.681 3.34454 2.67479 4.01252 2.66857 4.68102C2.65313 6.34249 2.63765 8.00717 2.70988 9.66658C2.73705 10.2944 2.69249 10.851 2.51288 11.3382C2.33425 11.8228 2.01994 12.2445 1.49709 12.6005C1.47627 12.6144 1.45999 12.6306 1.44833 12.6431C1.44296 12.6488 1.43776 12.6546 1.43346 12.6594L1.43217 12.6608C1.42731 12.6663 1.42351 12.6705 1.41989 12.6743L1.41976 12.6744C0.753418 13.3723 0.720919 14.3532 1.36172 15.0032C1.99455 15.6452 3.00436 15.6289 3.69641 14.9731L14.6519 0.533695ZM2.11599 14.2556L2.11587 14.2555C1.90685 14.0406 1.89379 13.7159 2.13035 13.4734C2.89526 12.6897 3.67141 11.9169 4.45457 11.1509C4.49956 11.1069 4.55918 11.0719 4.64214 11.0313C4.66647 11.0194 4.69323 11.0068 4.72185 10.9933C4.76905 10.9711 4.82129 10.9466 4.87595 10.9187C4.91108 10.947 4.94695 10.9739 4.9819 10.9997C4.99452 11.009 5.00695 11.0182 5.01921 11.0272C5.05929 11.0566 5.09751 11.0846 5.13414 11.1135C5.231 11.1898 5.29891 11.2585 5.33084 11.3337L5.33088 11.3338C5.36005 11.4023 5.37208 11.5127 5.3596 11.626C5.34688 11.7414 5.31173 11.8334 5.271 11.877C4.50453 12.6947 3.7052 13.4838 2.89715 14.2653C2.65696 14.4975 2.32579 14.472 2.11599 14.2556ZM6.22674 6.88156C6.21925 5.07458 7.65021 3.63055 9.4543 3.62473C11.2547 3.61891 12.7123 5.05961 12.7207 6.85244C12.729 8.63957 11.2707 10.1112 9.48352 10.1195C7.69239 10.1278 6.23422 8.6784 6.22674 6.88156Z" fill="#FFC00B" stroke="#FFC00B" stroke-width="0.2"/>
<path id="Vector_2" d="M18.8711 3.20469H19.1124H19.1147H19.117H19.1192H19.1215H19.1237H19.126H19.1282H19.1305H19.1327H19.135H19.1373H19.1395H19.1418H19.144H19.1463H19.1485H19.1508H19.153H19.1553H19.1576H19.1598H19.1621H19.1643H19.1666H19.1688H19.1711H19.1734H19.1756H19.1779H19.1801H19.1824H19.1846H19.1869H19.1891H19.1914H19.1937H19.1959H19.1982H19.2004H19.2027H19.2049H19.2072H19.2094H19.2117H19.214H19.2162H19.2185H19.2207H19.223H19.2252H19.2275H19.2298H19.232H19.2343H19.2365H19.2388H19.241H19.2433H19.2456H19.2478H19.2501H19.2523H19.2546H19.2568H19.2591H19.2613H19.2636H19.2659H19.2681H19.2704H19.2726H19.2749H19.2771H19.2794H19.2817H19.2839H19.2862H19.2884H19.2907H19.2929H19.2952H19.2975H19.2997H19.302H19.3042H19.3065H19.3087H19.311H19.3133H19.3155H19.3178H19.32H19.3223H19.3245H19.3268H19.3291H19.3313H19.3336H19.3358H19.3381H19.3403H19.3426H19.3449H19.3471H19.3494H19.3516H19.3539H19.3561H19.3584H19.3607H19.3629H19.3652H19.3674H19.3697H19.3719H19.3742H19.3765H19.3787H19.381H19.3832H19.3855H19.3877H19.39H19.3923H19.3945H19.3968H19.399H19.4013H19.4035H19.4058H19.4081H19.4103H19.4126H19.4148H19.4171H19.4193H19.4216H19.4239H19.4261H19.4284H19.4306H19.4329H19.4351H19.4374H19.4397H19.4419H19.4442H19.4464H19.4487H19.4509H19.4532H19.4555H19.4577H19.46H19.4622H19.4645H19.4667H19.469H19.4713H19.4735H19.4758H19.478H19.4803H19.4826H19.4848H19.4871H19.4893H19.4916H19.4938H19.4961H19.4984H19.5006H19.5029H19.5051H19.5074H19.5096H19.5119H19.5142H19.5164H19.5187H19.5209H19.5232H19.5254H19.5277H19.53H19.5322H19.5345H19.5367H19.539H19.5413H19.5435H19.5458H19.548H19.5503H19.5525H19.5548H19.5571H19.5593H19.5616H19.5638H19.5661H19.5683H19.5706H19.5729H19.5751H19.5774H19.5796H19.5819H19.5842H19.5864H19.5887H19.5909H19.5932H19.5954H19.5977H19.6H19.6022H19.6045H19.6067H19.609H19.6112H19.6135H19.6158H19.618H19.6203H19.6225H19.6248H19.6271H19.6293H19.6316H19.6338H19.6361H19.6383H19.6406H19.6429H19.6451H19.6474H19.6496H19.6519H19.6541H19.6564H19.6587H19.6609H19.6632H19.6654H19.6677H19.67H19.6722H19.6745H19.6767H19.679H19.6812H19.6835H19.6858H19.688H19.6903H19.6925H19.6948H19.6971H19.6993H19.7016H19.7038H19.7061H19.7083H19.7106H19.7129H19.7151H19.7174H19.7196H19.7219H19.7241H19.7264H19.7287H19.7309H19.7332H19.7354H19.7377H19.74H19.7422H19.7445H19.7467H19.749H19.7512H19.7535H19.7558H19.758H19.7603H19.7625H19.7648H19.767H19.7693H19.7716H19.7738H19.7761H19.7783H19.7806H19.7829H19.7851H19.7874H19.7896H19.7919H19.7941H19.7964H19.7987H19.8009H19.8032H19.8054H19.8077H19.8099H19.8122H19.8145H19.8167H19.819H19.8212H19.8235H19.8258H19.828H19.8303H19.8325H19.8348H19.837H19.8393H19.8416H19.8438H19.8461H19.8483H19.8506H19.8528H19.8551H19.8574H19.8596H19.8619H19.8641H19.8664H19.8687H19.8709H19.8732H19.8754H19.8777H19.8799H19.8822H19.8845H19.8867H19.889H19.8912H19.8935H19.8957H19.898H19.9003H19.9025H19.9048H19.907H19.9093H19.9115H19.9138H19.9161H19.9183H19.9206H19.9228H19.9251H19.9274H19.9296H19.9319H19.9341H19.9364H19.9386H19.9409H19.9432H19.9454H19.9477H19.9499H19.9522H19.9544H19.9567H19.959H19.9612H19.9635H19.9657H19.968H19.9702H19.9725H19.9748H19.977H19.9793H19.9815H19.9838H19.986H19.9883H19.9906H19.9928H19.9951H19.9973H19.9996H20.0018H20.0041H20.0064H20.0086H20.0109H20.0131H20.0154H20.0176H20.0199H20.0222H20.0244H20.0267H20.0289H20.0312H20.0334H20.0357H20.038H20.0402H20.0425H20.0447H20.047H20.0492H20.0515H20.0538H20.056H20.0583H20.0605H20.0628H20.065H20.0673H20.0696H20.0718H20.0741H20.0763H20.0786H20.0808H20.0831H20.0854H20.0876H20.0899H20.0921H20.0944H20.0966H20.0989H20.1012H20.1034H20.1057H20.1079H20.1102H20.1124H20.1147H20.117H20.1192H20.1215H20.1237H20.126H20.1282H20.1305H20.1327H20.135H20.1373H20.1395H20.1418H20.144H20.1463H20.1485H20.1508H20.1531H20.1553H20.1576H20.1598H20.1621H20.1643H20.1666H20.1688H20.1711H20.1734H20.1756H20.1779H20.1801H20.1824H20.1846H20.1869H20.1892H20.1914H20.1937H20.1959H20.1982H20.2004H20.2027H20.2049H20.2072H20.2095H20.2117H20.214H20.2162H20.2185H20.2207H20.223H20.2253H20.2275H20.2298H20.232H20.2343H20.2365H20.2388H20.241H20.2433H20.2456H20.2478H20.2501H20.2523H20.2546H20.2568H20.2591H20.2613H20.2636H20.2659H20.2681C20.4518 3.20469 20.6153 3.24517 20.7333 3.3512C20.8533 3.45908 20.9082 3.61846 20.9082 3.8165V3.82127V3.82604V3.83081V3.83557V3.84034V3.84511V3.84987V3.85464V3.85941V3.86418V3.86894V3.87371V3.87848V3.88324V3.88801V3.89278V3.89754V3.90231V3.90708V3.91184V3.91661V3.92138V3.92614V3.93091V3.93568V3.94044V3.94521V3.94998V3.95474V3.95951V3.96428V3.96904V3.97381V3.97858V3.98334V3.98811V3.99288V3.99764V4.00241V4.00718V4.01194V4.01671V4.02147V4.02624V4.03101V4.03577V4.04054V4.04531V4.05007V4.05484V4.05961V4.06437V4.06914V4.0739V4.07867V4.08344V4.0882V4.09297V4.09773V4.1025V4.10727V4.11203V4.1168V4.12157V4.12633V4.1311V4.13586V4.14063V4.1454V4.15016V4.15493V4.15969V4.16446V4.16922V4.17399V4.17876V4.18352V4.18829V4.19305V4.19782V4.20259V4.20735V4.21212V4.21688V4.22165V4.22641V4.23118V4.23595V4.24071V4.24548V4.25024V4.25501V4.25977V4.26454V4.26931V4.27407V4.27884V4.2836V4.28837V4.29313V4.2979V4.30266V4.30743V4.3122V4.31696V4.32173V4.32649V4.33126V4.33602V4.34079V4.34555V4.35032V4.35509V4.35985V4.36462V4.36938V4.37415V4.37891V4.38368V4.38844V4.39321V4.39797V4.40274V4.4075V4.41227V4.41703V4.4218V4.42657V4.43133V4.4361V4.44086V4.44563V4.45039V4.45516V4.45992V4.46469V4.46945V4.47422V4.47898V4.48375V4.48851V4.49328V4.49804V4.50281V4.50757V4.51234V4.5171V4.52187V4.52663V4.5314V4.53616V4.54093V4.54569V4.55046V4.55522V4.55999V4.56475V4.56952V4.57428V4.57905V4.58381V4.58858V4.59334V4.59811V4.60287V4.60764V4.6124V4.61717V4.62193V4.6267V4.63146V4.63623V4.64099V4.64576V4.65052V4.65529V4.66005V4.66482V4.66958V4.67435V4.67911V4.68388V4.68864V4.69341V4.69817V4.70294V4.7077V4.71247V4.71723V4.722V4.72676V4.73152V4.73629V4.74105V4.74582V4.75058V4.75535V4.76011V4.76488V4.76964V4.77441V4.77917V4.78394V4.7887V4.79347V4.79823V4.803V4.80776V4.81253V4.81729V4.82206V4.82682V4.83158V4.83635V4.84111V4.84588V4.85064V4.85541V4.86017V4.86494V4.8697V4.87447V4.87923V4.884V4.88876V4.89353V4.89829V4.90305V4.90782V4.91258V4.91735V4.92211V4.92688V4.93164V4.93641V4.94117V4.94594V4.9507V4.95547V4.96023V4.965V4.96976V4.97452V4.97929V4.98405V4.98882V4.99358V4.99835V5.00311V5.00788V5.01264V5.01741V5.02217V5.02694V5.0317V5.03646V5.04123V5.04599V5.05076V5.05552V5.06029V5.06505V5.06982V5.07458V5.07935V5.08411V5.08888V5.09364V5.0984V5.10317V5.10793V5.1127V5.11746V5.12223V5.12699V5.13176V5.13652V5.14129V5.14605V5.15082V5.15558V5.16035V5.16511V5.16987V5.17464V5.1794V5.18417V5.18893V5.1937V5.19846V5.20323V5.20799V5.21276V5.21752V5.22229V5.22705V5.23182V5.23658V5.24134V5.24611V5.25087V5.25564V5.2604V5.26517V5.26993V5.2747V5.27946V5.28423V5.28899V5.29376V5.29852V5.30329V5.30805V5.31282V5.31758V5.32235V5.32711V5.33187V5.33664V5.3414V5.34617V5.35093V5.3557V5.36046V5.36523V5.36999V5.37476V5.37952V5.38429V5.38905V5.39382V5.39858V5.40335V5.40811V5.41288V5.41764V5.42241V5.42717V5.43194V5.4367V5.44147V5.44623V5.451V5.45576V5.46053V5.46529V5.47006V5.47482V5.47959V5.48435V5.48912V5.49388V5.49865V5.50341V5.50818V5.51294V5.51771V5.52247V5.52724V5.532V5.53677V5.54153V5.5463V5.55106V5.55583V5.56059V5.56536V5.57012V5.57489V5.57965V5.58442V5.58918V5.59395V5.59871V5.60348V5.60824V5.61301V5.61777V5.62254V5.6273V5.63207V5.63683V5.6416V5.64636V5.65113V5.65589V5.66066V5.66543V5.67019V5.67496V5.67972V5.68449V5.68925V5.69402V5.69878V5.70355V5.70831V5.71308V5.71784V5.72261V5.72738V5.73214V5.73691V5.74167V5.74644V5.7512V5.75597V5.76073V5.7655V5.77026V5.77503V5.7798V5.78456V5.78933V5.79409V5.79886V5.80362V5.80839V5.81315V5.81792V5.82269V5.82745V5.83222V5.83698V5.84175V5.84651V5.85128V5.85605V5.86081V5.86558V5.87034V5.87511V5.87988V5.88464V5.88941V5.89417V5.89894V5.9037V5.90847V5.91324V5.918V5.92277V5.92753V5.9323V5.93707V5.94183V5.9466V5.95136V5.95613V5.9609V5.96566V5.97043V5.97519V5.97996V5.98473V5.98949V5.99426V5.99903V6.00379V6.00856V6.01332V6.01809V6.02286V6.02762V6.03239V6.03716V6.04192V6.04669V6.05145V6.05622V6.06099V6.06575V6.07052V6.07529V6.08005V6.08482V6.08959V6.09435V6.09912V6.10389V6.10865V6.11342V6.11819V6.12295V6.12772V6.13249V6.13725V6.14202V6.14679V6.15155V6.15632V6.16109V6.16585V6.17062V6.17539V6.18015V6.18492V6.18969V6.19445V6.19922V6.20399V6.20875V6.21352V6.21829V6.22305V6.22782V6.23259V6.23736V6.24212V6.24689V6.25166V6.25642C20.9082 6.44171 20.8583 6.5957 20.7462 6.70234C20.6351 6.80807 20.4793 6.85149 20.3009 6.85195L20.3008 6.85195L20.3002 6.85195C19.4868 6.85281 18.6741 6.85367 17.8605 6.85109L18.8711 3.20469ZM18.8711 3.20469L18.8721 3.20564M18.8711 3.20469L18.8721 3.20564M18.8721 3.20564C18.7937 3.20557 18.7153 3.20542 18.6369 3.20527C18.3818 3.20478 18.1263 3.20429 17.8711 3.20641L18.8721 3.20564ZM17.2652 6.24588L17.2652 6.24582C17.2668 5.75778 17.2665 5.27039 17.2662 4.78272L17.2652 6.24588ZM17.2652 6.24588C17.2648 6.42864 17.3096 6.58436 17.4172 6.69402M17.2652 6.24588L17.4172 6.69402M17.4172 6.69402C17.525 6.80393 17.6791 6.85062 17.8604 6.85109L17.4172 6.69402ZM17.4267 3.3597C17.3155 3.46722 17.2661 3.62146 17.2661 3.80611L17.8711 3.20641C17.6924 3.20782 17.5371 3.25287 17.4267 3.3597ZM19.814 4.28858V5.75949H18.3457V4.28858H19.814Z" fill="#FFC00B" stroke="#FFC00B" stroke-width="0.2"/>
<path id="Vector_3" d="M17.3408 11.1209H17.0995C16.81 11.1209 16.5206 11.1206 16.2311 11.1204C15.5078 11.1197 14.7846 11.119 14.0617 11.1226L17.3408 11.1209ZM17.3408 11.1209L17.3399 11.12M17.3408 11.1209L17.3399 11.12M17.3399 11.12C17.5397 11.1199 17.7395 11.1198 17.9393 11.1197C18.6862 11.1192 19.4327 11.1187 20.1794 11.1218L20.1796 11.1218C20.3339 11.1222 20.5086 11.114 20.6466 11.0448C20.7184 11.0088 20.7816 10.9558 20.8265 10.8794C20.871 10.8038 20.8937 10.7118 20.8954 10.6033C20.8971 10.4961 20.878 10.4038 20.8372 10.3266C20.7962 10.2486 20.7362 10.1921 20.6662 10.1522C20.531 10.0753 20.3568 10.0602 20.197 10.0602L20.1969 10.0602C18.1574 10.0627 16.1171 10.0636 14.0776 10.0602L14.0775 10.1602L14.0777 10.0602C13.9206 10.0597 13.7465 10.0717 13.6088 10.1437C13.5375 10.1809 13.4751 10.2347 13.4305 10.3105C13.3863 10.3857 13.3633 10.4767 13.3611 10.5833H13.3611L13.3611 10.5836C13.3591 10.6906 13.3781 10.7828 13.419 10.8599C13.4602 10.9377 13.5204 10.9939 13.5907 11.0333C13.7263 11.1094 13.9011 11.1235 14.0617 11.1226L17.3399 11.12Z" fill="#FFC00B" stroke="#FFC00B" stroke-width="0.2"/>
<path id="Vector_4" d="M18.2804 9.03497H18.0391C17.8401 9.03497 17.6413 9.03478 17.4425 9.03459C16.913 9.03408 16.384 9.03357 15.8544 9.03669L15.8544 9.03669C15.6979 9.03757 15.5324 9.01865 15.4021 8.94256C15.2628 8.86126 15.1768 8.72243 15.1717 8.5191L18.2804 9.03497ZM18.2804 9.03497L18.2797 9.03426M18.2804 9.03497L18.2797 9.03426M18.2797 9.03426C18.4546 9.03427 18.6293 9.03411 18.8041 9.03394C19.2629 9.03351 19.7213 9.03308 20.1801 9.03583L20.1802 9.03583C20.3372 9.03669 20.5115 9.02529 20.6491 8.95268C20.7203 8.91506 20.7826 8.86069 20.8266 8.78416C20.8704 8.70822 20.8928 8.61643 20.8945 8.50876L20.8945 8.50852C20.896 8.40012 20.8765 8.30735 20.8349 8.23028C20.793 8.15241 20.7319 8.097 20.6611 8.05871C20.525 7.9851 20.3501 7.9738 20.1924 7.97423L20.1924 7.97423C18.7506 7.97852 17.3079 7.97937 15.8662 7.97423L15.8661 7.97423C15.704 7.97379 15.5296 7.98927 15.3952 8.0671C15.3256 8.10743 15.2665 8.16452 15.2266 8.24271C15.187 8.32011 15.1691 8.41233 15.1717 8.5191L18.2797 9.03426Z" fill="#FFC00B" stroke="#FFC00B" stroke-width="0.2"/>
<path id="Vector_5" d="M7.32334 6.67535L7.32579 6.43052C7.33557 5.45126 7.85417 4.65797 8.6634 4.35077M7.32334 6.67535L8.6634 4.35077M7.32334 6.67535L7.34427 6.65443C7.35478 6.74199 7.37631 6.84749 7.42836 6.94128L7.42836 6.94128L7.42847 6.94147C7.47403 7.02314 7.51954 7.10502 7.56512 7.18701C7.94039 7.86211 8.31983 8.5447 8.76253 9.18143M7.32334 6.67535L8.76253 9.18143M8.6634 4.35077C9.08244 4.19168 9.48813 4.14905 9.87331 4.22697C10.2585 4.30489 10.6163 4.50197 10.942 4.81159L10.942 4.81162C11.57 5.40913 11.8035 6.34517 11.4189 7.12803C11.078 7.82182 10.6592 8.48045 10.228 9.11699L10.228 9.117C10.0581 9.36771 9.77754 9.50469 9.49992 9.52039C9.22191 9.53611 8.93557 9.43033 8.76253 9.18143M8.6634 4.35077L8.76253 9.18143M9.46048 8.38099C9.37519 8.24339 9.29165 8.10998 9.20986 7.97939C8.96573 7.58956 8.73732 7.22484 8.52539 6.8488L8.52535 6.84873C8.25735 6.37402 8.37045 5.8362 8.77043 5.50373C9.1681 5.17432 9.74447 5.17443 10.1411 5.50525L10.1413 5.50539C10.5396 5.83614 10.6537 6.37925 10.3889 6.85152L9.46048 8.38099ZM9.46048 8.38099C9.54825 8.23839 9.63427 8.10021 9.71848 7.96493C9.95695 7.58184 10.1809 7.22207 10.3889 6.85156L9.46048 8.38099ZM11.3291 7.08393C10.9914 7.7715 10.5756 8.42563 10.1452 9.0609L10.873 4.88406C11.474 5.45589 11.6918 6.34578 11.3291 7.08393Z" fill="#FFC00B" stroke="#FFC00B" stroke-width="0.2"/>
<path id="Vector_6" d="M9.45516 6.85794C9.57577 6.85978 9.68301 6.78597 9.76487 6.72034C9.79965 6.69245 9.83465 6.66185 9.86772 6.63294C9.87569 6.62599 9.88353 6.61912 9.89124 6.61242C9.93218 6.57682 9.97005 6.54486 10.0067 6.51877L10.0514 6.48696L10.0486 6.43219C10.0453 6.36837 10.0428 6.30366 10.0403 6.23895L10.04 6.232L10.0379 6.17606L9.98908 6.14865C9.95024 6.12684 9.90958 6.09933 9.86553 6.0685C9.85677 6.06237 9.84783 6.05608 9.83876 6.04969C9.8036 6.02493 9.7664 5.99874 9.72977 5.97516C9.64233 5.91885 9.52882 5.85678 9.40981 5.87076M9.45516 6.85794C9.39528 6.85715 9.33668 6.83257 9.28822 6.80413C9.23778 6.77453 9.18838 6.73487 9.14485 6.69158C9.10128 6.64825 9.06124 6.59896 9.03086 6.54859C9.0015 6.49991 8.97621 6.4421 8.97269 6.38328L9.07251 6.3773M9.45516 6.85794C9.45511 6.85794 9.45506 6.85794 9.45501 6.85794L9.45659 6.75795M9.45516 6.85794C9.45522 6.85794 9.45529 6.85794 9.45536 6.85794L9.45659 6.75795M9.07251 6.3773L8.97271 6.38354C8.96898 6.32399 8.9894 6.26385 9.01409 6.21383C9.03984 6.16168 9.07564 6.10969 9.11544 6.06327C9.15525 6.01683 9.20127 5.97339 9.24904 5.93963C9.29503 5.90712 9.351 5.87762 9.40981 5.87076M9.07251 6.3773C9.06394 6.24013 9.2817 5.98637 9.42144 5.97008M9.07251 6.3773C9.08108 6.52047 9.31685 6.75623 9.45659 6.75795M9.40981 5.87076C9.40979 5.87076 9.40977 5.87076 9.40975 5.87076L9.42144 5.97008M9.40981 5.87076C9.40983 5.87075 9.40984 5.87075 9.40986 5.87075L9.42144 5.97008M9.42144 5.97008L9.45659 6.75795" fill="#FFC00B" stroke="#FFC00B" stroke-width="0.2"/>
</g>
</svg>
